<?xml version="1.0" encoding="utf-8"?>
<!-- Generator: Adobe Illustrator 13.0.0, SVG Export Plug-In  -->
<!DOCTYPE svg PUBLIC "-//W3C//DTD SVG 1.1//EN" "http://www.w3.org/Graphics/SVG/1.1/DTD/svg11.dtd" [
	<!ENTITY ns_flows "http://ns.adobe.com/Flows/1.0/">
]>
<svg version="1.1"
	 xmlns="http://www.w3.org/2000/svg" xmlns:xlink="http://www.w3.org/1999/xlink" xmlns:a="http://ns.adobe.com/AdobeSVGViewerExtensions/3.0/"
	 x="0px" y="0px" width="40px" height="32px" viewBox="0 0 40 32" enable-background="new 0 0 40 32" xml:space="preserve">
<defs>
</defs>
<g>
	<defs>
		<rect id="SVGID_1_" width="40" height="32"/>
	</defs>
	<clipPath id="SVGID_2_">
		<use xlink:href="#SVGID_1_"  overflow="visible"/>
	</clipPath>
	<path clip-path="url(#SVGID_2_)" fill="#F2AB00" d="M3,32c-0.8,0-1.5-0.3-2.1-0.9C0.3,30.5,0,29.8,0,29V3c0-0.8,0.3-1.5,0.9-2.1
		S2.2,0,3,0h34c0.8,0,1.5,0.3,2.1,0.9C39.7,1.5,40,2.2,40,3v26c0,0.8-0.3,1.5-0.9,2.1C38.5,31.7,37.8,32,37,32H3z M20,16.9L37,5.75
		V3L20,13.9L3,3v2.75L20,16.9z"/>
</g>
</svg>
