<?xml version="1.0" encoding="utf-8"?>
<!-- Generator: Adobe Illustrator 13.0.0, SVG Export Plug-In  -->
<!DOCTYPE svg PUBLIC "-//W3C//DTD SVG 1.1//EN" "http://www.w3.org/Graphics/SVG/1.1/DTD/svg11.dtd" [
	<!ENTITY ns_flows "http://ns.adobe.com/Flows/1.0/">
]>
<svg version="1.1"
	 xmlns="http://www.w3.org/2000/svg" xmlns:xlink="http://www.w3.org/1999/xlink" xmlns:a="http://ns.adobe.com/AdobeSVGViewerExtensions/3.0/"
	 x="0px" y="0px" width="40px" height="40px" viewBox="0 0 40 40" enable-background="new 0 0 40 40" xml:space="preserve">
<defs>
</defs>
<g>
	<defs>
		<rect id="SVGID_1_" width="40" height="40"/>
	</defs>
	<clipPath id="SVGID_2_">
		<use xlink:href="#SVGID_1_"  overflow="visible"/>
	</clipPath>
	<path clip-path="url(#SVGID_2_)" fill="#8C0F73" d="M20,25.2l2.8-6.4l6.4-2.8l-6.4-2.8L20,6.8l-2.8,6.4L10.8,16l6.4,2.8L20,25.2z
		 M0,40V3c0-0.767,0.3-1.458,0.9-2.075C1.5,0.308,2.2,0,3,0h34c0.767,0,1.458,0.308,2.075,0.925C39.692,1.542,40,2.233,40,3v26
		c0,0.767-0.308,1.458-0.925,2.075S37.767,32,37,32H8L0,40z"/>
</g>
</svg>
