<?xml version="1.0" standalone="no"?>
<!DOCTYPE svg PUBLIC "-//W3C//DTD SVG 1.1//EN" "http://www.w3.org/Graphics/SVG/1.1/DTD/svg11.dtd" >
<svg xmlns="http://www.w3.org/2000/svg" xmlns:xlink="http://www.w3.org/1999/xlink" version="1.1">
<metadata>
Created by FontForge 20170731 at Fri Jul 29 13:45:13 2022
 By Aleksey,,,
2005 published by FontShop International GmbH
</metadata>
<defs>
<font id="KievitOT-Regular" horiz-adv-x="2" >
  <font-face 
    font-family="KievitOT-Regular"
    font-weight="400"
    font-stretch="normal"
    units-per-em="2048"
    panose-1="2 11 5 4 3 1 1 2 1 2"
    ascent="1556"
    descent="-492"
    x-height="983"
    cap-height="1364"
    bbox="-1112 -520 2505 1829"
    underline-thickness="122"
    underline-position="-398"
    unicode-range="U+000D-FEFF"
  />
<missing-glyph horiz-adv-x="1085" 
d="M168 0v1364h750v-1364h-750zM293 125h500v1114h-500v-1114z" />
    <glyph glyph-name="f_b" unicode="fb" horiz-adv-x="1689" 
d="M1112 -25q-97 0 -184.5 21.5t-139.5 54.5v1290q-84 27 -208 27q-226 0 -226 -258v-127h232v-119h-232v-864h-149v864h-164v119h164v147q0 177 104 273t279 96q188 0 350 -49v-545q44 46 110.5 74.5t135.5 28.5q198 0 311 -140t113 -372q0 -225 -140.5 -373t-355.5 -148z
M1114 104q107 0 184.5 56.5t113.5 142.5t36 189q0 80 -16 147t-50 120t-92 83t-135 30q-59 0 -120 -28.5t-97 -67.5v-641q67 -31 176 -31z" />
    <glyph glyph-name="f_f" unicode="ff" horiz-adv-x="1200" 
d="M213 0v864h-172v119h172v127q0 169 101 272t278 103q160 0 266 -78q95 92 256 92q112 0 164 -26l-39 -130q-50 25 -129 25q-100 0 -152.5 -63.5t-52.5 -186.5v-135h250v-119h-250v-864h-149v864h-394v-864h-149zM362 983h394v145q0 94 26 162q-79 64 -194 64
q-226 0 -226 -285v-86z" />
    <glyph glyph-name="f_f_b" unicode="ffb" horiz-adv-x="2240" 
d="M1663 -25q-97 0 -184.5 21.5t-139.5 54.5v1290q-84 27 -209 27q-225 0 -225 -258v-127h252v-119h-252v-864h-149v864h-394v-864h-149v864h-172v119h172v127q0 169 101 272t278 103q159 0 268 -80q108 94 279 94q188 0 350 -49v-545q44 46 110.5 74.5t135.5 28.5
q198 0 311 -140t113 -372q0 -225 -140.5 -373t-355.5 -148zM1665 104q107 0 184.5 56.5t113.5 142.5t36 189q0 80 -16 147t-50 120t-92 83t-135 30q-59 0 -120 -28.5t-97 -67.5v-641q67 -31 176 -31zM362 983h394v147q0 85 26 158q-71 66 -194 66q-226 0 -226 -285v-86z" />
    <glyph glyph-name="f_f_h" unicode="ffh" horiz-adv-x="2256" 
d="M213 0v864h-172v119h172v127q0 169 101 272t278 103q159 0 268 -80q108 94 279 94q188 0 350 -49v-608q130 166 319 166q147 0 218 -85.5t71 -222.5v-700h-149v672q0 98 -40 149t-134 51q-43 0 -86 -16.5t-74 -38t-60 -50t-42 -45t-23 -30.5v-692h-150v1341
q-84 27 -209 27q-225 0 -225 -258v-127h252v-119h-252v-864h-149v864h-394v-864h-149zM362 983h394v147q0 85 26 158q-71 66 -194 66q-226 0 -226 -285v-86z" />
    <glyph glyph-name="f_f_i" unicode="ffi" horiz-adv-x="1636" 
d="M213 0v864h-172v119h172v127q0 169 101 272t278 103q160 0 272 -82q104 96 277 96q78 0 144 -16.5t98.5 -33.5t72.5 -44l-76 -119q-117 82 -245 82q-111 0 -170.5 -66.5t-59.5 -193.5v-125h551v-983h-149v864h-402v-864h-149v864h-394v-864h-149zM362 983h394v139
q0 90 30 164q-84 68 -198 68q-226 0 -226 -285v-86z" />
    <glyph glyph-name="f_f_j" unicode="ffj" horiz-adv-x="1624" 
d="M1176 -471q-79 0 -107 14l25 125q25 -10 69 -10q78 0 111 59.5t33 178.5v968h-402v-864h-149v864h-394v-864h-149v864h-172v119h172v127q0 169 101 272t278 103q160 0 272 -82q104 96 277 96q78 0 144 -16.5t98.5 -33.5t72.5 -44l-76 -119q-117 82 -245 82
q-111 0 -170.5 -66.5t-59.5 -193.5v-125h551v-1114q0 -160 -67.5 -250t-212.5 -90zM362 983h394v139q0 90 30 164q-84 68 -198 68q-226 0 -226 -285v-86z" />
    <glyph glyph-name="f_f_k" unicode="ffk" horiz-adv-x="2136" 
d="M213 0v864h-172v119h172v127q0 169 101 272t278 103q159 0 268 -80q108 94 279 94q188 0 350 -49v-1450h-150v1341q-84 27 -209 27q-225 0 -225 -258v-127h252v-119h-252v-864h-149v864h-394v-864h-149zM362 983h394v147q0 85 26 158q-71 66 -194 66q-226 0 -226 -285
v-86zM1919 0l-420 549l406 434h178l-410 -434l428 -549h-182z" />
    <glyph glyph-name="f_f_l" unicode="ffl" horiz-adv-x="1660" 
d="M213 0v864h-172v119h172v127q0 169 101 272t278 103q159 0 268 -80q108 94 279 94q188 0 350 -49v-1450h-150v1341q-84 27 -209 27q-225 0 -225 -258v-127h252v-119h-252v-864h-149v864h-394v-864h-149zM362 983h394v147q0 85 26 158q-71 66 -194 66q-226 0 -226 -285
v-86z" />
    <glyph glyph-name="f_h" unicode="fh" horiz-adv-x="1705" 
d="M205 0v864h-164v119h164v147q0 177 104 273t279 96q188 0 350 -49v-608q130 166 319 166q147 0 218 -85.5t71 -222.5v-700h-149v672q0 98 -40 149t-134 51q-43 0 -86 -16.5t-74 -38t-60 -50t-42 -45t-23 -30.5v-692h-150v1341q-84 27 -208 27q-226 0 -226 -258v-127h232
v-119h-232v-864h-149z" />
    <glyph glyph-name="f_i" unicode="fi" horiz-adv-x="1099" 
d="M205 0v864h-164v119h164v139q0 170 101.5 273.5t283.5 103.5q78 0 144 -16.5t98.5 -33.5t72.5 -44l-76 -119q-117 82 -245 82q-111 0 -170.5 -66.5t-59.5 -193.5v-125h566v-983h-150v864h-416v-864h-149z" />
    <glyph glyph-name="f_j" unicode="fj" horiz-adv-x="1087" 
d="M639 -471q-79 0 -107 14l25 125q25 -10 70 -10q78 0 110.5 59.5t32.5 178.5v968h-416v-864h-149v864h-164v119h164v139q0 170 101.5 273.5t283.5 103.5q78 0 144 -16.5t98.5 -33.5t72.5 -44l-76 -119q-117 82 -245 82q-111 0 -170.5 -66.5t-59.5 -193.5v-125h566v-1114
q0 -160 -68 -250t-213 -90z" />
    <glyph glyph-name="f_k" unicode="fk" horiz-adv-x="1585" 
d="M205 0v864h-164v119h164v147q0 177 104 273t279 96q188 0 350 -49v-1450h-150v1341q-84 27 -208 27q-226 0 -226 -258v-127h232v-119h-232v-864h-149zM1368 0l-420 549l406 434h178l-410 -434l428 -549h-182z" />
    <glyph glyph-name="f_l" unicode="fl" horiz-adv-x="1110" 
d="M205 0v864h-164v119h164v147q0 177 104 273t279 96q188 0 350 -49v-1450h-150v1341q-84 27 -208 27q-226 0 -226 -258v-127h232v-119h-232v-864h-149z" />
    <glyph glyph-name=".notdef" horiz-adv-x="1085" 
d="M168 0v1364h750v-1364h-750zM293 125h500v1114h-500v-1114z" />
    <glyph glyph-name=".null" horiz-adv-x="0" 
 />
    <glyph glyph-name=".null" horiz-adv-x="0" 
 />
    <glyph glyph-name="nonmarkingreturn" horiz-adv-x="682" 
 />
    <glyph glyph-name="CR" unicode="&#xd;" horiz-adv-x="460" 
 />
    <glyph glyph-name="space" unicode=" " horiz-adv-x="460" 
 />
    <glyph glyph-name="exclam" unicode="!" horiz-adv-x="563" 
d="M281 -16q-48 0 -82.5 33.5t-34.5 82.5q0 47 35 81t82 34t81.5 -34t34.5 -81q0 -49 -34 -82.5t-82 -33.5zM221 408l-33 956h185l-33 -956h-119z" />
    <glyph glyph-name="quotedbl" unicode="&#x22;" horiz-adv-x="669" 
d="M135 909l-47 455h188l-22 -455h-119zM416 909l-23 455h189l-47 -455h-119z" />
    <glyph glyph-name="numbersign" unicode="#" horiz-adv-x="1011" 
d="M203 217l45 295h-201l21 121h198l35 227h-199l19 121h196l41 268h121l-41 -268h207l41 268h121l-41 -268h199l-21 -121h-196l-33 -227h196l-20 -121h-195l-43 -295h-121l43 295h-206l-45 -295h-121zM387 633h207l35 227h-209z" />
    <glyph glyph-name="dollar" unicode="$" horiz-adv-x="835" 
d="M365 -252v227q-166 13 -281 99l66 116q124 -88 264 -88q106 0 163.5 37t57.5 105q0 27 -12.5 50.5t-29.5 39.5t-50 34t-56.5 28t-68.5 28.5t-68 28.5q-54 24 -92 46.5t-75.5 56t-57 80t-19.5 103.5q0 102 70 173.5t189 88.5v213h145v-210q140 -16 242 -95l-72 -110
q-106 80 -244 80q-86 0 -135 -35t-49 -99q0 -27 13.5 -51t29.5 -40t51.5 -35t58 -29t70.5 -30q8 -3 12 -5q39 -16 62.5 -26.5t58.5 -28.5t57 -33t47.5 -38t40 -46t24 -54t9.5 -65q0 -116 -71.5 -190t-204.5 -94v-232h-145z" />
    <glyph glyph-name="percent" unicode="%" horiz-adv-x="1527" 
d="M358 436q-73 0 -130.5 25.5t-91 68t-50 91.5t-16.5 100t17.5 100.5t51 92t92 68.5t131.5 26q74 0 131 -25.5t90 -67.5t49.5 -90.5t16.5 -99.5t-17 -100.5t-51 -92.5t-92 -69.5t-131 -26.5zM362 535q81 0 121.5 51.5t40.5 134.5t-42.5 135.5t-123.5 52.5t-122 -50.5
t-41 -133.5t43 -136.5t124 -53.5zM1167 -25q-73 0 -130.5 25.5t-91 68t-50 91.5t-16.5 100t17.5 100.5t51 92t92 68.5t131.5 26q74 0 131 -25.5t90 -67.5t49.5 -90.5t16.5 -99.5t-17 -100.5t-51 -92.5t-92 -69.5t-131 -26.5zM1171 74q81 0 121.5 51.5t40.5 134.5t-42.5 136
t-123.5 53t-122 -51t-41 -134t43 -136.5t124 -53.5zM412 0l587 983h129l-587 -983h-129z" />
    <glyph glyph-name="ampersand" unicode="&#x26;" horiz-adv-x="1280" 
d="M535 -25q-209 0 -333 107.5t-124 265.5q0 125 66 212.5t218 172.5q-91 98 -131.5 175.5t-40.5 164.5q0 141 101.5 228.5t259.5 87.5q147 0 241.5 -81t94.5 -208q0 -111 -72 -197.5t-235 -179.5l358 -381q83 135 113 309l143 -24q-38 -222 -162 -387l225 -240h-200
l-123 131q-177 -156 -399 -156zM500 807q125 70 180 138.5t55 150.5q0 70 -51 119t-135 49q-90 0 -143.5 -51t-53.5 -132q0 -62 32.5 -123t115.5 -151zM539 111q174 0 303 116l-398 418q-206 -116 -206 -291q0 -107 79.5 -175t221.5 -68z" />
    <glyph glyph-name="quotesingle" unicode="'" horiz-adv-x="382" 
d="M131 909l-37 455h195l-37 -455h-121z" />
    <glyph glyph-name="parenleft" unicode="(" horiz-adv-x="632" 
d="M483 -362q-178 193 -274 433.5t-96 501.5q0 253 99.5 491.5t270.5 410.5h144q-69 -71 -129.5 -159.5t-114 -201t-84.5 -252.5t-31 -287q0 -529 359 -937h-144z" />
    <glyph glyph-name="parenright" unicode=")" horiz-adv-x="632" 
d="M8 -362q69 71 129.5 159t114 200.5t84.5 252.5t31 287q0 530 -359 938h144q178 -193 274 -434t96 -502q0 -256 -99 -492.5t-271 -408.5h-144z" />
    <glyph glyph-name="asterisk" unicode="*" horiz-adv-x="929" 
d="M295 670l-94 69l174 234l-279 86l37 110l275 -96l-9 291h131l-8 -291l275 96l39 -110l-281 -86l174 -234l-94 -69l-170 243z" />
    <glyph glyph-name="plus" unicode="+" horiz-adv-x="1175" 
d="M522 41v440h-436v125h436v418h142v-418h426v-125h-426v-440h-142z" />
    <glyph glyph-name="comma" unicode="," horiz-adv-x="462" 
d="M121 -297l-64 57q34 32 54.5 55.5t39.5 59.5t19 70q0 35 -28.5 81.5t-28.5 86.5q0 51 32 83.5t80 32.5q54 0 91.5 -37t37.5 -100q0 -78 -41.5 -160t-90 -135.5t-101.5 -93.5z" />
    <glyph glyph-name="hyphen" unicode="-" horiz-adv-x="632" 
d="M111 522v131h411v-131h-411z" />
    <glyph glyph-name="period" unicode="." horiz-adv-x="450" 
d="M225 -18q-53 0 -89 36t-36 88t36 87.5t89 35.5t89 -35.5t36 -87.5t-36 -88t-89 -36z" />
    <glyph glyph-name="slash" unicode="/" horiz-adv-x="823" 
d="M92 0l494 1364h143l-493 -1364h-144z" />
    <glyph glyph-name="zero" unicode="0" horiz-adv-x="1167" 
d="M580 -25q-100 0 -184 31t-141 82.5t-97 119t-58 138.5t-18 143t18.5 143.5t59 139.5t98 120.5t142 84t184.5 31.5q124 0 223 -46.5t158 -122t89.5 -164t30.5 -181.5q0 -72 -19 -143.5t-59.5 -139.5t-98.5 -120.5t-143 -84t-185 -31.5zM584 104q110 0 188.5 52.5t116 138
t37.5 194.5t-38.5 196t-118 140.5t-189.5 53.5q-163 0 -250.5 -108.5t-87.5 -276.5t89.5 -279t252.5 -111z" />
    <glyph glyph-name="one" unicode="1" horiz-adv-x="661" 
d="M328 0v844l-228 -78l-30 125l284 92h123v-983h-149z" />
    <glyph glyph-name="two" unicode="2" horiz-adv-x="983" 
d="M55 0v57q18 15 81.5 67t106 88.5t108.5 95t110 107t88.5 103.5t67 105t22.5 92q0 74 -48.5 118t-144.5 44q-65 0 -134.5 -30.5t-121.5 -88.5l-86 96q65 69 163.5 111.5t189.5 42.5q70 0 131 -17t108.5 -50.5t75 -88t27.5 -123.5q0 -41 -16 -86.5t-37.5 -84.5t-62 -88
t-70 -81t-82.5 -80.5t-77.5 -69.5t-77.5 -65.5t-63 -52.5q60 6 113 6h471v-127h-842z" />
    <glyph glyph-name="three" unicode="3" horiz-adv-x="876" 
d="M270 -385q-108 0 -170 8l23 127q45 -10 125 -10q103 0 189 33t140 100t54 156q0 282 -395 282v113q58 1 119.5 21.5t114 56t86.5 89.5t34 116q0 79 -51 124.5t-144 45.5q-125 0 -241 -107l-78 98q60 63 146.5 101.5t178.5 38.5q161 0 254 -85t93 -204
q0 -114 -86.5 -207.5t-188.5 -118.5v-2q132 -20 225 -114t93 -230q0 -100 -43 -182.5t-115 -136.5t-166 -83.5t-197 -29.5z" />
    <glyph glyph-name="four" unicode="4" horiz-adv-x="1146" 
d="M698 -362v362h-637v98l664 885h123v-856h227v-127h-227v-362h-150zM231 127h467v614h-4z" />
    <glyph glyph-name="five" unicode="5" horiz-adv-x="860" 
d="M215 -385q-69 0 -123 12l27 125q56 -8 110 -8q103 0 190.5 36t144.5 113t57 181q0 159 -98.5 233t-266.5 74q-78 0 -115 -4l41 606h574v-121h-437l-22 -358q98 0 178.5 -22.5t136 -61.5t93.5 -93t55.5 -115.5t17.5 -129.5q0 -96 -38 -180.5t-108 -148.5t-178 -101
t-239 -37z" />
    <glyph glyph-name="six" unicode="6" horiz-adv-x="1042" 
d="M539 -25q-93 0 -170 34t-127.5 90.5t-85.5 131.5t-50.5 155.5t-15.5 164.5q0 184 54 338.5t154.5 265t251 172.5t337.5 62l31 -125q-327 0 -500 -185q-134 -140 -158 -377q54 49 132.5 78t162.5 29q187 0 295 -111t108 -292q0 -117 -49.5 -214t-146.5 -157t-223 -60z
M547 104q80 0 139.5 42.5t87 105t27.5 133.5q0 141 -66.5 219t-197.5 78q-161 0 -285 -100l-2 -52q-8 -194 69.5 -310t227.5 -116z" />
    <glyph glyph-name="seven" unicode="7" horiz-adv-x="913" 
d="M233 -406l-129 64l562 1192h-633v133h798v-106z" />
    <glyph glyph-name="eight" unicode="8" horiz-adv-x="1046" 
d="M520 -25q-81 0 -149 20.5t-115 54.5t-80 80t-48 97t-15 105q0 105 72.5 205.5t209.5 179.5q-132 80 -188.5 161.5t-56.5 176.5q0 144 109.5 239t258.5 95q181 0 282 -94t101 -232q0 -95 -65 -175.5t-201 -158.5q297 -168 297 -387q0 -164 -115.5 -265.5t-296.5 -101.5z
M526 106q117 0 183.5 68.5t66.5 169.5q0 78 -63 153t-213 156q-122 -78 -178 -152.5t-56 -158.5q0 -103 71.5 -169.5t188.5 -66.5zM528 795q220 129 220 258q0 88 -59 147.5t-161 59.5q-99 0 -161 -57.5t-62 -147.5q0 -67 50 -128t173 -132z" />
    <glyph glyph-name="nine" unicode="9" horiz-adv-x="1046" 
d="M129 -381l-29 123q334 0 521 184q136 136 159 353q-139 -103 -295 -103q-182 0 -290.5 115.5t-108.5 294.5q0 115 54.5 211.5t153.5 153.5t220 57q95 0 171.5 -35t125 -91.5t80.5 -133.5t45.5 -155.5t13.5 -162.5q0 -245 -95.5 -427t-282 -283t-443.5 -101zM506 303
q169 0 285 94l2 52q8 192 -67.5 311t-219.5 119q-108 0 -184 -80.5t-76 -208.5q0 -129 66 -208t194 -79z" />
    <glyph glyph-name="colon" unicode=":" horiz-adv-x="460" 
d="M229 -18q-52 0 -88.5 37t-36.5 90q0 52 36 87t89 35t89 -35t36 -87q0 -53 -36.5 -90t-88.5 -37zM229 750q-53 0 -89 36t-36 88t36 88.5t89 36.5t89 -36.5t36 -88.5t-36 -88t-89 -36z" />
    <glyph glyph-name="semicolon" unicode=";" horiz-adv-x="462" 
d="M231 750q-53 0 -89 36t-36 88t36 88.5t89 36.5t89 -36.5t36 -88.5t-36 -88t-89 -36zM121 -297l-64 57q34 32 54.5 55.5t39.5 59.5t19 70q0 35 -28.5 81.5t-28.5 86.5q0 51 32 83.5t80 32.5q54 0 91.5 -37t37.5 -100q0 -78 -41.5 -160t-90 -135.5t-101.5 -93.5z" />
    <glyph glyph-name="less" unicode="&#x3c;" horiz-adv-x="739" 
d="M567 55l-512 449l512 454l84 -86l-409 -362l409 -360z" />
    <glyph glyph-name="equal" unicode="=" horiz-adv-x="940" 
d="M72 313v129h796v-129h-796zM72 647v129h796v-129h-796z" />
    <glyph glyph-name="greater" unicode="&#x3e;" horiz-adv-x="739" 
d="M172 55l-84 86l410 363l-410 360l84 94l512 -448z" />
    <glyph glyph-name="question" unicode="?" horiz-adv-x="829" 
d="M221 395v129q0 84 32 139.5t120 108.5q42 25 63.5 39.5t51 39.5t43.5 48t25 57.5t11 75.5q0 114 -66.5 169.5t-185.5 55.5q-84 0 -168 -43l-55 119q112 56 234 56q192 0 296.5 -96.5t104.5 -252.5q0 -52 -11.5 -97t-34.5 -81.5t-45 -63t-57.5 -52.5t-55.5 -39t-54 -33
q-61 -36 -81.5 -70.5t-20.5 -95.5v-113h-146zM297 -16q-48 0 -82.5 33.5t-34.5 82.5q0 47 35 81t82 34t82 -34t35 -81q0 -49 -34.5 -82.5t-82.5 -33.5z" />
    <glyph glyph-name="at" unicode="@" horiz-adv-x="1566" 
d="M756 -186q-154 0 -282.5 53.5t-213.5 145.5t-131.5 215.5t-46.5 263.5q0 150 56.5 291t153 248t236.5 172t297 65q125 0 235.5 -38t188 -101t134 -143t83.5 -165.5t27 -167.5q0 -129 -45 -239t-127 -177t-184 -67q-101 0 -158 63.5t-57 165.5h-4q-43 -103 -118.5 -166
t-166.5 -63q-89 0 -141 71t-52 165q0 80 17 157t52.5 147.5t85.5 123.5t122.5 84.5t156.5 31.5q30 0 68 -5.5t60 -10t64 -15.5t48 -12l-51 -284q-3 -20 -10 -57t-10 -56t-6 -42.5t-3 -39.5q0 -59 31 -101t78 -42q101 0 167 104t66 250t-74 265t-200 185t-277 66
q-115 0 -226 -52.5t-195 -140t-135.5 -210t-51.5 -254.5q0 -164 65.5 -292t194 -203t301.5 -75q83 0 166.5 18t138.5 42l47 -105q-68 -28 -167.5 -48.5t-206.5 -20.5zM670 297q57 0 108.5 48t87.5 126.5t60.5 156t40.5 156.5l8 41q-60 21 -113 21q-80 0 -143.5 -60.5
t-96 -155t-32.5 -202.5q0 -51 20.5 -91t59.5 -40z" />
    <glyph glyph-name="A" unicode="A" horiz-adv-x="1284" 
d="M377 473h518l-172 467q-25 67 -51 142.5t-33 93.5h-4q-41 -122 -84 -236zM43 0l522 1364h156l524 -1364h-174l-125 338h-620l-125 -338h-158z" />
    <glyph glyph-name="B" unicode="B" horiz-adv-x="1171" 
d="M197 0v1364h360q98 0 177.5 -19t141 -58.5t95 -106t33.5 -156.5q0 -117 -64.5 -194t-179.5 -107v-4q132 -23 217.5 -111.5t85.5 -224.5q0 -383 -512 -383h-354zM354 133h193q182 0 266 58.5t84 187.5q0 130 -79 199t-259 69h-205v-514zM354 778h187q156 0 227.5 57.5
t71.5 178.5q0 112 -74 164.5t-221 52.5h-191v-453z" />
    <glyph glyph-name="C" unicode="C" horiz-adv-x="1259" 
d="M774 -25q-155 0 -283 59t-210 158.5t-127 226.5t-45 267q0 139 46 265.5t129.5 224t211 155.5t280.5 58q123 0 212.5 -26t170.5 -77l-80 -121q-131 90 -307 90q-119 0 -215 -46.5t-156.5 -125.5t-92.5 -180t-32 -213q0 -115 31.5 -217t91.5 -184t158 -130t221 -48
q198 0 334 116l74 -114q-61 -56 -170.5 -97t-241.5 -41z" />
    <glyph glyph-name="D" unicode="D" horiz-adv-x="1390" 
d="M197 0v1364h319q197 0 346.5 -48.5t241.5 -137.5t138 -209.5t46 -270.5q0 -151 -46.5 -275.5t-139.5 -220t-245 -149t-351 -53.5h-309zM356 131h164q295 0 447.5 143t152.5 420q0 278 -148.5 408.5t-461.5 130.5h-154v-1102z" />
    <glyph glyph-name="E" unicode="E" horiz-adv-x="1030" 
d="M197 0v1364h700v-135h-541v-438h475v-136h-475v-520h555v-135h-714z" />
    <glyph glyph-name="F" unicode="F" horiz-adv-x="1003" 
d="M197 0v1364h714v-135h-555v-438h484v-136h-484v-655h-159z" />
    <glyph glyph-name="G" unicode="G" horiz-adv-x="1447" 
d="M786 -25q-157 0 -287 59.5t-214 159.5t-130 227t-46 265q0 140 46.5 266.5t132 224t217 155t290.5 57.5q263 0 430 -129l-84 -117q-78 62 -159 87t-191 25q-104 0 -190 -30.5t-145.5 -83.5t-100.5 -125.5t-60 -154t-19 -171.5q0 -114 31.5 -215.5t92.5 -184t162 -131
t229 -48.5q222 0 337 84v383h-292v135h452v-596q-78 -66 -208.5 -104t-293.5 -38z" />
    <glyph glyph-name="H" unicode="H" horiz-adv-x="1484" 
d="M197 0v1364h159v-578h772v578h160v-1364h-160v651h-772v-651h-159z" />
    <glyph glyph-name="I" unicode="I" horiz-adv-x="577" 
d="M209 0v1364h160v-1364h-160z" />
    <glyph glyph-name="J" unicode="J" horiz-adv-x="579" 
d="M74 -389q-77 0 -117 20l25 138q35 -15 79 -15q83 0 122.5 59t39.5 183v1368h160v-1393q0 -174 -78.5 -267t-230.5 -93z" />
    <glyph glyph-name="K" unicode="K" horiz-adv-x="1165" 
d="M934 0l-574 711l549 653h187l-549 -643l586 -721h-199zM197 0v1364h157v-1364h-157z" />
    <glyph glyph-name="L" unicode="L" horiz-adv-x="968" 
d="M197 0v1364h159v-1229h537v-135h-696z" />
    <glyph glyph-name="M" unicode="M" horiz-adv-x="1744" 
d="M111 0l186 1364h149l338 -928q52 -145 86 -252h4q26 85 87 252l337 928h152l184 -1364h-161l-117 893q-22 179 -23 190h-4q-32 -108 -61 -188l-324 -895h-153l-332 895q-22 58 -66 188h-4q-3 -40 -20 -194l-109 -889h-149z" />
    <glyph glyph-name="N" unicode="N" horiz-adv-x="1456" 
d="M193 0v1364h157l643 -924q46 -67 127 -200h4q-8 108 -8 184v940h148v-1364h-148l-674 973q-18 26 -37 56.5t-42.5 73t-26.5 46.5h-4q8 -108 8 -150v-999h-147z" />
    <glyph glyph-name="O" unicode="O" horiz-adv-x="1556" 
d="M780 -25q-153 0 -281 57.5t-212.5 154.5t-131 224.5t-46.5 268.5t46 269t129.5 226t211 156t280.5 58t281.5 -57.5t213 -154.5t131 -224.5t46.5 -268.5t-46 -269t-129.5 -226t-211.5 -156t-281 -58zM776 109q119 0 216 46t159 124.5t95.5 181.5t33.5 219t-33 219.5
t-94.5 183t-157.5 126t-215 46.5t-216 -46t-159 -124.5t-95.5 -181.5t-33.5 -219t33 -219.5t94.5 -183t157.5 -126t215 -46.5z" />
    <glyph glyph-name="P" unicode="P" horiz-adv-x="1110" 
d="M197 0v1364h342q214 0 346.5 -101.5t132.5 -291.5q0 -200 -132 -310t-370 -110h-160v-551h-159zM356 686h160q176 0 257 70t81 209q0 264 -332 264h-166v-543z" />
    <glyph glyph-name="Q" unicode="Q" horiz-adv-x="1556" 
d="M1278 -332q-143 0 -264.5 69.5t-255.5 237.5q-148 4 -272 63t-205.5 155.5t-126.5 222t-45 264.5q0 141 46 269t129.5 226t211 156t280.5 58t281.5 -57.5t213 -154.5t131 -224.5t46.5 -268.5q0 -164 -59.5 -307.5t-177.5 -247t-277 -137.5q81 -102 157.5 -147.5
t188.5 -45.5q93 0 166 58l59 -119q-35 -30 -94.5 -50t-132.5 -20zM776 109q119 0 216 46t159 124.5t95.5 181.5t33.5 219t-33 219.5t-94.5 183t-157.5 126t-215 46.5t-216 -46t-159 -124.5t-95.5 -181.5t-33.5 -219t33 -219.5t94.5 -183t157.5 -126t215 -46.5z" />
    <glyph glyph-name="R" unicode="R" horiz-adv-x="1167" 
d="M197 0v1364h370q214 0 333.5 -95.5t119.5 -267.5q0 -164 -106 -255.5t-277 -100.5v-4q39 -26 143 -170l338 -471h-188l-275 387q-84 118 -125 165t-71 62t-80 15h-23v-629h-159zM356 760h205q295 0 295 237q0 232 -307 232h-193v-469z" />
    <glyph glyph-name="S" unicode="S" horiz-adv-x="1021" 
d="M477 -25q-96 0 -182 27t-129.5 54.5t-75.5 58.5l82 114q128 -120 311 -120q122 0 200.5 68.5t78.5 162.5q0 46 -18 86.5t-39.5 66.5t-69.5 58t-75.5 46.5t-90.5 45.5q-13 7 -20 10q-60 29 -98 51t-84.5 57.5t-72.5 72.5t-44.5 90t-18.5 116q0 108 56 188.5t145.5 120.5
t195.5 40q219 0 359 -109l-78 -119q-119 94 -283 94q-103 0 -170 -57t-67 -149q0 -49 18 -88.5t55.5 -71t75.5 -54t97 -49.5q5 -2 15 -7q152 -73 218 -123q156 -121 156 -314q0 -162 -124.5 -264.5t-322.5 -102.5z" />
    <glyph glyph-name="T" unicode="T" horiz-adv-x="1017" 
d="M428 0v1229h-387v135h936v-135h-387v-1229h-162z" />
    <glyph glyph-name="U" unicode="U" horiz-adv-x="1413" 
d="M713 -25q-269 0 -399 142.5t-130 392.5v854h160v-834q0 -213 91 -315t282 -102q179 0 270.5 105.5t91.5 283.5v862h150v-846q0 -258 -128.5 -400.5t-387.5 -142.5z" />
    <glyph glyph-name="V" unicode="V" horiz-adv-x="1261" 
d="M561 0l-524 1364h172l350 -940q29 -76 82 -240h4q39 126 80 240l342 940h158l-508 -1364h-156z" />
    <glyph glyph-name="W" unicode="W" horiz-adv-x="1792" 
d="M416 0l-373 1364h174l232 -911q7 -28 49 -238h4q22 111 59 238l262 911h164l258 -905q32 -108 58 -240h4q0 1 4 26.5t9 55.5t14.5 75t19.5 83l235 905h158l-375 -1364h-145l-264 922q-26 90 -60 262h-4q-18 -92 -68 -262l-270 -922h-145z" />
    <glyph glyph-name="X" unicode="X" horiz-adv-x="1157" 
d="M51 0l432 707l-409 657h182l330 -528l311 528h168l-399 -657l440 -707h-182l-361 578l-344 -578h-168z" />
    <glyph glyph-name="Y" unicode="Y" horiz-adv-x="1136" 
d="M494 0v516l-457 848h178l365 -696h2l364 696h154l-447 -848v-516h-159z" />
    <glyph glyph-name="Z" unicode="Z" horiz-adv-x="1148" 
d="M94 0v113l746 1120h-711v131h899v-104l-756 -1129h781v-131h-959z" />
    <glyph glyph-name="bracketleft" unicode="[" horiz-adv-x="626" 
d="M164 -330v1805h411v-117h-266v-1571h266v-117h-411z" />
    <glyph glyph-name="backslash" unicode="\" horiz-adv-x="823" 
d="M666 -330l-652 1805h144l651 -1805h-143z" />
    <glyph glyph-name="bracketright" unicode="]" horiz-adv-x="626" 
d="M51 -330v117h266v1571h-266v117h412v-1805h-412z" />
    <glyph glyph-name="asciicircum" unicode="^" horiz-adv-x="1196" 
d="M125 590l420 774h104l420 -774h-135l-336 616l-336 -616h-137z" />
    <glyph glyph-name="underscore" unicode="_" horiz-adv-x="808" 
d="M-2 -326v125h813v-125h-813z" />
    <glyph glyph-name="grave" unicode="`" horiz-adv-x="1024" 
d="M582 1106l-277 258h223l189 -258h-135z" />
    <glyph glyph-name="a" unicode="a" horiz-adv-x="966" 
d="M371 -25q-124 0 -202.5 73t-78.5 192q0 75 32 134.5t83.5 97t121.5 62t140.5 34.5t146.5 10h43v92q0 108 -47 156t-149 48q-136 0 -256 -106l-80 104q145 136 346 136q336 0 336 -326v-459q0 -137 22 -223h-149q-9 40 -14 119q-52 -64 -130 -104t-165 -40zM395 104
q155 0 262 142v221h-43q-364 0 -364 -223q0 -69 46 -104.5t99 -35.5z" />
    <glyph glyph-name="b" unicode="b" horiz-adv-x="1062" 
d="M485 -25q-97 0 -183.5 21.5t-139.5 54.5v1424h149v-570q44 46 110.5 74.5t135.5 28.5q198 0 311 -140t113 -372q0 -225 -140.5 -373t-355.5 -148zM487 104q107 0 184.5 56.5t113.5 142.5t36 189q0 80 -16 147t-50 120t-92 83t-135 30q-59 0 -120 -28.5t-97 -67.5v-641
q67 -31 176 -31z" />
    <glyph glyph-name="c" unicode="c" horiz-adv-x="901" 
d="M528 -25q-140 0 -243.5 74t-153 189.5t-49.5 253.5q0 122 36.5 221.5t99 163t144 97.5t173.5 34q175 0 301 -99l-72 -112q-49 38 -102 60t-130 22q-145 0 -217.5 -106t-72.5 -277q0 -80 17.5 -149.5t52.5 -124.5t93 -86.5t132 -31.5q136 0 239 82l62 -112
q-117 -99 -310 -99z" />
    <glyph glyph-name="d" unicode="d" horiz-adv-x="1071" 
d="M487 -25q-181 0 -293 136.5t-112 377.5q0 231 123 375t311 144q155 0 250 -86v553h149v-1274q0 -95 25 -201h-149q-16 52 -19 113q-112 -138 -285 -138zM518 111q67 0 134.5 36t113.5 99v542q-97 91 -236 91q-136 0 -212 -107t-76 -278q0 -177 67.5 -280t208.5 -103z" />
    <glyph glyph-name="e" unicode="e" horiz-adv-x="1003" 
d="M547 -25q-113 0 -202.5 40.5t-146.5 112t-86.5 166t-29.5 204.5q0 219 124 364.5t318 145.5q181 0 284 -120t103 -323q0 -19 -4 -69h-665q2 -82 19.5 -150t53 -123.5t96 -87t140.5 -31.5q48 0 91.5 8.5t82.5 27t54 27t44 26.5l62 -117q-150 -101 -338 -101zM250 614h508
q-3 115 -61 190t-177 75q-114 0 -181.5 -71.5t-88.5 -193.5z" />
    <glyph glyph-name="f" unicode="f" horiz-adv-x="649" 
d="M205 0v864h-164v119h164v145q0 171 95 271t263 100q112 0 164 -26l-39 -130q-50 25 -129 25q-99 0 -152 -64.5t-53 -185.5v-135h250v-119h-250v-864h-149z" />
    <glyph glyph-name="g" unicode="g" horiz-adv-x="1028" 
d="M475 -485q-179 0 -286 71t-107 207q0 85 54 151t136 105v4q-100 51 -100 156q0 104 111 168v4q-164 92 -164 287q0 149 102 244.5t271 95.5q78 0 151 -25h320v-119h-166q73 -88 73 -196q0 -149 -105 -244.5t-273 -95.5q-50 0 -103 12q-72 -39 -72 -96q0 -87 142 -94
q23 -1 66 -3t70 -3t68.5 -4.5t69 -9t62.5 -15.5t58 -23t47.5 -34t38.5 -46.5t23 -61t9 -77.5q0 -103 -67 -185.5t-180.5 -127.5t-248.5 -45zM487 -367q144 0 237 62t93 158q0 42 -14 71t-34 44t-53 24t-60 11t-66 4q-18 1 -27 1q-138 9 -184 15q-68 -39 -107 -95t-39 -118
q0 -80 64 -128.5t190 -48.5zM496 451q101 0 161 60t60 157t-62 157t-163 60q-100 0 -160 -59.5t-60 -157.5q0 -96 62.5 -156.5t161.5 -60.5z" />
    <glyph glyph-name="h" unicode="h" horiz-adv-x="1079" 
d="M162 0v1475h149v-633q130 166 320 166q147 0 218 -85.5t71 -222.5v-700h-150v672q0 98 -40 149t-134 51q-43 0 -86 -16.5t-74 -38t-60 -50t-42 -45t-23 -30.5v-692h-149z" />
    <glyph glyph-name="i" unicode="i" horiz-adv-x="512" 
d="M256 1167q-46 0 -78.5 32.5t-32.5 78.5t32.5 78.5t78.5 32.5t78.5 -32.5t32.5 -78.5t-32.5 -78.5t-78.5 -32.5zM180 0v983h152v-983h-152z" />
    <glyph glyph-name="j" unicode="j" horiz-adv-x="489" 
d="M41 -471q-79 0 -107 14l25 125q25 -10 70 -10q78 0 110.5 59.5t32.5 178.5v1087h150v-1114q0 -160 -68 -250t-213 -90zM244 1167q-46 0 -78.5 32.5t-32.5 78.5t32.5 78.5t78.5 32.5t78 -32.5t32 -78.5t-32 -78.5t-78 -32.5z" />
    <glyph glyph-name="k" unicode="k" horiz-adv-x="958" 
d="M741 0l-419 549l405 434h178l-409 -434l428 -549h-183zM162 0v1475h149v-1475h-149z" />
    <glyph glyph-name="l" unicode="l" horiz-adv-x="493" 
d="M172 0v1475h150v-1475h-150z" />
    <glyph glyph-name="m" unicode="m" horiz-adv-x="1624" 
d="M168 0v983h149v-139q19 24 32 38.5t43.5 41t59.5 42.5t73.5 29t92.5 13q192 0 252 -166q68 76 144 121t174 45q142 0 209 -84t67 -224v-700h-149v672q0 96 -36.5 148t-125.5 52q-140 0 -262 -153v-719h-150v672q0 200 -157 200q-50 0 -97.5 -22t-84 -58t-53.5 -56.5
t-32 -41.5v-694h-149z" />
    <glyph glyph-name="n" unicode="n" horiz-adv-x="1085" 
d="M168 0v983h149v-141q132 166 320 166q147 0 218 -85.5t71 -222.5v-700h-150v672q0 98 -40 149t-134 51q-78 0 -153 -50.5t-132 -129.5v-692h-149z" />
    <glyph glyph-name="o" unicode="o" horiz-adv-x="1081" 
d="M537 -25q-96 0 -174.5 31.5t-129.5 83t-86 119.5t-50 138t-15 142t14.5 142t48 139t83.5 121.5t128 84.5t174 32t176 -31.5t133 -83.5t90 -119.5t53.5 -138t16.5 -141.5t-15.5 -142t-51.5 -139.5t-88.5 -121t-131.5 -84.5t-175 -32zM539 104q99 0 168.5 53t101 138
t31.5 194q0 108 -34.5 195t-106.5 141t-171 54q-145 0 -215.5 -107t-70.5 -278q0 -169 75.5 -279.5t221.5 -110.5z" />
    <glyph glyph-name="p" unicode="p" horiz-adv-x="1083" 
d="M168 -449v1432h149v-106q110 131 285 131q182 0 290.5 -136.5t108.5 -377.5q0 -231 -121.5 -375t-312.5 -144q-154 0 -250 86v-510h-149zM553 104q137 0 213 107t76 278q0 173 -68.5 278t-202.5 105q-48 0 -92.5 -15.5t-76.5 -40t-52 -44t-33 -37.5v-540q100 -91 236 -91
z" />
    <glyph glyph-name="q" unicode="q" horiz-adv-x="1069" 
d="M752 -444v522q-38 -40 -104 -71.5t-142 -31.5q-198 0 -311 141t-113 371q0 224 142.5 372.5t353.5 148.5q88 0 166.5 -18t108.5 -32t48 -26v-1376h-149zM535 111q72 0 134.5 35.5t82.5 60.5v637q-79 35 -177 35q-81 0 -145.5 -32t-105 -87t-61.5 -123.5t-21 -144.5
q0 -80 16 -147t50 -120.5t92 -83.5t135 -30z" />
    <glyph glyph-name="r" unicode="r" horiz-adv-x="706" 
d="M168 0v983h149v-154q18 30 39.5 57t54.5 56.5t77 47.5t92 18q60 0 102 -21l-37 -143q-27 16 -86 16q-51 0 -97 -26t-76 -64t-46 -65t-23 -46v-659h-149z" />
    <glyph glyph-name="s" unicode="s" horiz-adv-x="835" 
d="M395 -27q-176 0 -311 95l66 114q110 -80 243 -80q93 0 147 37.5t54 104.5q0 63 -48 101t-169 89q-52 22 -88 41t-73 46t-59.5 56t-36.5 70t-14 90q0 117 84 194t228 77q173 0 291 -95l-74 -108q-96 74 -219 74q-78 0 -121 -36.5t-43 -99.5t45.5 -99.5t142.5 -76.5
q59 -25 94.5 -42t80.5 -45.5t70 -57t42.5 -69.5t17.5 -89q0 -134 -94.5 -212.5t-255.5 -78.5z" />
    <glyph glyph-name="t" unicode="t" horiz-adv-x="712" 
d="M459 -25q-121 0 -183.5 68t-62.5 193v628h-162v119h162v281h149v-281h248v-119h-248v-614q0 -76 26 -111t89 -35q40 0 77.5 14.5t55.5 28.5l56 -112q-97 -60 -207 -60z" />
    <glyph glyph-name="u" unicode="u" horiz-adv-x="1081" 
d="M446 -25q-148 0 -219 85t-71 223v700h149v-672q0 -98 40.5 -149t135.5 -51q52 0 103 22.5t89 58t58 58t33 41.5v692h149v-776q0 -114 19 -207h-152q-11 68 -14 145q-20 -28 -46 -53.5t-66 -54t-94 -45.5t-114 -17z" />
    <glyph glyph-name="v" unicode="v" horiz-adv-x="946" 
d="M408 0l-375 983h164l280 -786h4l275 786h153l-362 -983h-139z" />
    <glyph glyph-name="w" unicode="w" horiz-adv-x="1429" 
d="M328 0l-293 983h164l209 -743h4l231 743h145l232 -745h4l211 745h151l-294 -983h-136l-243 764h-4l-246 -764h-135z" />
    <glyph glyph-name="x" unicode="x" horiz-adv-x="946" 
d="M45 0l340 514l-319 469h170q225 -334 237 -352l223 352h158l-307 -459l356 -524h-170l-276 408l-256 -408h-156z" />
    <glyph glyph-name="y" unicode="y" horiz-adv-x="960" 
d="M117 -475q-49 0 -94 10l20 125q42 -6 76 -6q97 0 151 53t97 170l47 129l-371 977h168l281 -784h4l272 784h160l-418 -1114q-24 -63 -44 -106.5t-53.5 -92t-72 -77.5t-96 -48.5t-127.5 -19.5z" />
    <glyph glyph-name="z" unicode="z" horiz-adv-x="866" 
d="M86 0v94l500 768h-471v121h653v-100l-502 -762h510v-121h-690z" />
    <glyph glyph-name="braceleft" unicode="{" horiz-adv-x="733" 
d="M506 -330q-90 0 -155.5 56.5t-65.5 164.5v412q0 100 -61.5 161t-166.5 62v115q104 2 166 61t62 162v391q0 108 64.5 164t154.5 56h178v-117h-135q-67 0 -92 -40.5t-25 -121.5v-358q0 -195 -205 -248v-4q205 -59 205 -262v-383q0 -80 24 -117t91 -37h137v-117h-176z" />
    <glyph glyph-name="bar" unicode="|" horiz-adv-x="581" 
d="M229 -512v2048h123v-2048h-123z" />
    <glyph glyph-name="braceright" unicode="}" horiz-adv-x="733" 
d="M51 -330v117h135q67 0 92 40.5t25 121.5v381q0 195 205 248v4q-205 59 -205 262v360q0 80 -24 117t-91 37h-137v117h176q90 0 156 -57t66 -165v-389q0 -100 61 -161t166 -62v-115q-104 -2 -165.5 -61t-61.5 -162v-414q0 -108 -64.5 -163.5t-155.5 -55.5h-178z" />
    <glyph glyph-name="asciitilde" unicode="~" horiz-adv-x="1204" 
d="M815 365q-74 0 -141 22.5t-108 49t-94 49t-103 22.5q-93 0 -183 -82l-73 92q134 121 268 121q62 0 121.5 -22t100 -48.5t101 -48.5t123.5 -22q94 0 195 84l70 -93q-57 -56 -131 -90t-146 -34z" />
    <glyph glyph-name="uni00A0" unicode="&#xa0;" horiz-adv-x="460" 
 />
    <glyph glyph-name="exclamdown" unicode="&#xa1;" horiz-adv-x="563" 
d="M283 776q-47 0 -82 34t-35 81q0 49 34.5 83t82.5 34t82 -34t34 -83q0 -47 -34.5 -81t-81.5 -34zM190 -373l33 957h119l33 -957h-185z" />
    <glyph glyph-name="cent" unicode="&#xa2;" horiz-adv-x="901" 
d="M436 -252v236q-114 23 -195.5 99t-120 181t-38.5 228q0 208 98.5 339.5t255.5 165.5v217h146v-208q141 -11 254 -97l-72 -112q-49 38 -102 60t-130 22q-145 0 -217.5 -106t-72.5 -277q0 -80 17.5 -149.5t52.5 -124.5t93 -86.5t132 -31.5q136 0 239 82l62 -112
q-101 -84 -256 -97v-229h-146z" />
    <glyph glyph-name="sterling" unicode="&#xa3;" horiz-adv-x="958" 
d="M125 608v121h180q-24 172 -24 283q0 172 91.5 274.5t276.5 102.5q135 0 246 -70l-68 -115q-83 53 -198 53q-99 0 -146 -66.5t-47 -182.5q0 -49 23 -279h309v-121h-297q6 -55 6 -100q0 -137 -48 -236.5t-105 -144.5h528v-127h-741v100q76 42 127 114t71.5 144t20.5 144
q0 28 -8 106h-197z" />
    <glyph glyph-name="currency" unicode="&#xa4;" horiz-adv-x="1110" 
d="M207 -25l-105 78l160 203q-96 108 -96 260q0 156 104 266l-164 207l105 78l158 -213q87 41 188 41q94 0 172 -33l158 205l102 -78l-155 -194q57 -54 86.5 -129t29.5 -150q0 -164 -108 -272l147 -191l-104 -78l-146 197q-82 -37 -182 -37q-115 0 -197 45zM557 252
q114 0 184 75.5t70 188.5q0 112 -70 188t-184 76q-112 0 -183 -76.5t-71 -187.5q0 -112 71 -188t183 -76z" />
    <glyph glyph-name="yen" unicode="&#xa5;" horiz-adv-x="1064" 
d="M463 0v195h-330v120h330v146h-330v121h293l-422 782h178l363 -696h4l364 696h154l-414 -782h295v-121h-330v-146h330v-120h-330v-195h-155z" />
    <glyph glyph-name="brokenbar" unicode="&#xa6;" horiz-adv-x="362" 
d="M117 -512v774h123v-774h-123zM117 782v754h123v-754h-123z" />
    <glyph glyph-name="section" unicode="&#xa7;" horiz-adv-x="958" 
d="M420 -311q-139 0 -236 67l66 115q82 -51 170 -51q86 0 130 47.5t44 122.5q0 44 -25 94t-65 98.5t-88.5 100t-97.5 106.5t-89 110.5t-65 119.5t-25 126q0 86 42 151t98 103q-66 94 -66 191q0 73 28 133.5t73.5 98t101 57.5t112.5 20q147 0 240 -72l-72 -114q-2 1 -11 7.5
t-12.5 9t-13 8.5t-15.5 8.5t-17 7t-20.5 7t-22 5t-26.5 3.5t-30 1q-83 0 -126.5 -51t-43.5 -119q0 -52 34 -112.5t84.5 -115t110 -120t110 -127t84.5 -136.5t34 -147q0 -132 -137 -258q61 -98 61 -184q0 -79 -27.5 -140.5t-73.5 -97.5t-101.5 -54.5t-116.5 -18.5zM600 289
q70 63 70 153q0 49 -40.5 120t-81 119t-112.5 126t-84 92q-65 -46 -65 -154q0 -47 39.5 -116.5t82 -120.5t109.5 -126t82 -93z" />
    <glyph glyph-name="dieresis" unicode="&#xa8;" horiz-adv-x="1024" 
d="M319 1102q-44 0 -76 32t-32 78q0 44 32 76.5t76 32.5q46 0 78.5 -32.5t32.5 -76.5q0 -46 -32.5 -78t-78.5 -32zM702 1102q-44 0 -76 32t-32 78q0 44 32 76.5t76 32.5q46 0 78.5 -32.5t32.5 -76.5q0 -46 -32.5 -78t-78.5 -32z" />
    <glyph glyph-name="copyright" unicode="&#xa9;" horiz-adv-x="1771" 
d="M901 260q-133 0 -241 65t-168 173.5t-60 236.5q0 131 61.5 240t169.5 172t238 63q97 0 162 -26.5t127 -75.5l-78 -98q-27 23 -50.5 38t-67 28.5t-95.5 13.5q-78 0 -141 -31.5t-100.5 -83t-57.5 -112.5t-20 -124q0 -150 95 -254t234 -104q129 0 238 90l63 -104
q-137 -107 -309 -107zM885 -29q-155 0 -296 60.5t-243 163t-162.5 244t-60.5 296.5t60.5 296.5t162.5 244t243 163t296 60.5t296.5 -60.5t244 -163t163 -244t60.5 -296.5t-60.5 -296.5t-163 -244t-244 -163t-296.5 -60.5zM885 78q138 0 258.5 49t206 135.5t135 209
t49.5 263.5q0 188 -84 338.5t-232.5 235t-332.5 84.5q-183 0 -331 -84.5t-232 -235t-84 -338.5q0 -141 49 -263.5t135 -209t206 -135.5t257 -49z" />
    <glyph glyph-name="ordfeminine" unicode="&#xaa;" horiz-adv-x="739" 
d="M285 645q-92 0 -153.5 55.5t-61.5 141.5q0 99 73 162q98 81 330 81v56q0 69 -30.5 104t-102.5 35q-40 0 -79 -14.5t-55 -25.5t-44 -32l-68 86q112 95 252 95q121 0 185.5 -59.5t64.5 -178.5v-322q0 -90 18 -167h-127q-7 34 -10 71q-84 -88 -192 -88zM301 752q94 0 172 90
v149q-96 0 -154 -13t-92 -50q-28 -32 -28 -82q0 -43 29 -68.5t73 -25.5z" />
    <glyph glyph-name="guillemotleft" unicode="&#xab;" horiz-adv-x="974" 
d="M365 115l-273 387l273 389h157l-270 -389l270 -387h-157zM729 115l-272 387l272 389h158l-271 -389l271 -387h-158z" />
    <glyph glyph-name="logicalnot" unicode="&#xac;" horiz-adv-x="1204" 
d="M963 68v417h-881v131h1020v-548h-139z" />
    <glyph glyph-name="uni00AD" unicode="&#xad;" horiz-adv-x="632" 
d="M111 522v131h411v-131h-411z" />
    <glyph glyph-name="registered" unicode="&#xae;" horiz-adv-x="1771" 
d="M608 279v925h301q135 0 210 -75.5t75 -184.5q0 -100 -64.5 -162t-181.5 -77q45 -34 109 -121l215 -305h-162l-223 325q-37 53 -65.5 71.5t-80.5 18.5v-415h-133zM885 -29q-155 0 -296 60.5t-243 163t-162.5 244t-60.5 296.5t60.5 296.5t162.5 244t243 163t296 60.5
t296.5 -60.5t244 -163t163 -244t60.5 -296.5t-60.5 -296.5t-163 -244t-244 -163t-296.5 -60.5zM885 78q138 0 258.5 49t206 135.5t135 209t49.5 263.5q0 188 -84 338.5t-232.5 235t-332.5 84.5q-183 0 -331 -84.5t-232 -235t-84 -338.5q0 -141 49 -263.5t135 -209
t206 -135.5t257 -49zM741 799h95q37 0 63 2t57 10.5t50 23.5t32 43t13 66q0 146 -172 146h-138v-291z" />
    <glyph glyph-name="macron" unicode="&#xaf;" horiz-adv-x="1024" 
d="M233 1176v124h555v-124h-555z" />
    <glyph glyph-name="degree" unicode="&#xb0;" horiz-adv-x="708" 
d="M354 856q-110 0 -189 78.5t-79 187.5t79 188t189 79t189.5 -79t79.5 -188t-78.5 -187.5t-190.5 -78.5zM354 961q67 0 111.5 46.5t44.5 114.5q0 67 -44.5 114.5t-111.5 47.5t-111 -47.5t-44 -114.5q0 -68 44 -114.5t111 -46.5z" />
    <glyph glyph-name="plusminus" unicode="&#xb1;" horiz-adv-x="1175" 
d="M522 41v440h-436v125h436v418h142v-418h426v-125h-426v-440h-142zM147 -236v132h891v-132h-891z" />
    <glyph glyph-name="twosuperior" unicode="&#xb2;" horiz-adv-x="686" 
d="M70 690v70q56 45 77.5 63t73.5 63t76.5 73t56 68t45 75.5t13.5 68.5q0 52 -31.5 77.5t-83.5 25.5q-85 0 -162 -66l-69 80q107 88 251 88q117 0 174.5 -50.5t57.5 -139.5q0 -51 -23 -103.5t-67 -104t-89 -94t-108 -93.5q6 0 37 1t47 1h240v-103h-516z" />
    <glyph glyph-name="threesuperior" unicode="&#xb3;" horiz-adv-x="626" 
d="M195 678q-40 0 -83.5 6.5t-58.5 13.5l27 101q48 -19 108 -19q91 0 144 29t53 82q0 58 -58.5 83t-168.5 27v89q90 2 147 31t57 79q0 35 -29.5 54.5t-82.5 19.5q-37 0 -79 -17.5t-65 -37.5l-57 79q33 30 98 54t132 24q108 0 162.5 -40.5t54.5 -112.5q0 -63 -39.5 -103.5
t-104.5 -56.5v-2q72 -6 120 -51t48 -117q0 -105 -85.5 -160t-239.5 -55z" />
    <glyph glyph-name="acute" unicode="&#xb4;" horiz-adv-x="1024" 
d="M305 1106l189 258h223l-277 -258h-135z" />
    <glyph glyph-name="mu" unicode="&#xb5;" horiz-adv-x="1077" 
d="M156 -444v1427h149v-688q0 -40 5.5 -69.5t20.5 -57t46.5 -42.5t77.5 -15q49 0 97.5 17.5t88.5 46t69 56.5t54 58v694h149v-786q0 -109 15 -197h-150q-10 51 -14 141q-21 -23 -37 -38.5t-49.5 -42t-65.5 -43t-78 -29.5t-94 -13q-84 0 -137 35h-4q6 -71 6 -227v-227h-149z
" />
    <glyph glyph-name="paragraph" unicode="&#xb6;" horiz-adv-x="1318" 
d="M532 -362v923q-169 0 -284 110.5t-115 289.5t115 291t284 112h654v-129h-164v-1597h-137v1597h-213v-1597h-140z" />
    <glyph glyph-name="periodcentered" unicode="&#xb7;" horiz-adv-x="450" 
d="M225 471q-53 0 -89 36.5t-36 88.5t36 87.5t89 35.5t89 -35.5t36 -87.5t-36 -88.5t-89 -36.5z" />
    <glyph glyph-name="cedilla" unicode="&#xb8;" horiz-adv-x="1024" 
d="M463 -449q-77 0 -135 25l24 86q40 -22 109 -22q47 0 74.5 20t27.5 59q0 36 -22.5 56t-51.5 24.5t-71 3.5l74 197h104l-51 -135q64 -9 103.5 -47.5t39.5 -96.5q0 -80 -64 -125t-161 -45z" />
    <glyph glyph-name="onesuperior" unicode="&#xb9;" horiz-adv-x="524" 
d="M215 690v563l-147 -41l-31 101l209 51h96v-674h-127z" />
    <glyph glyph-name="ordmasculine" unicode="&#xba;" horiz-adv-x="804" 
d="M399 645q-68 0 -123.5 21.5t-92.5 57t-62.5 84t-37 100.5t-11.5 108q0 71 18.5 135.5t55 119.5t101 87.5t148.5 32.5t150.5 -32.5t106.5 -86t60.5 -118t20.5 -134.5q0 -71 -20 -136t-59 -119.5t-105 -87t-150 -32.5zM401 752q99 0 146 70.5t47 193.5q0 122 -51 194
t-150 72q-184 0 -184 -262q0 -124 47 -196t145 -72z" />
    <glyph glyph-name="guillemotright" unicode="&#xbb;" horiz-adv-x="974" 
d="M88 115l270 387l-270 389h156l274 -389l-274 -387h-156zM453 115l270 387l-270 389h155l275 -389l-275 -387h-155z" />
    <glyph glyph-name="onequarter" unicode="&#xbc;" horiz-adv-x="1325" 
d="M215 690v563l-147 -41l-31 101l209 51h96v-674h-127zM135 0l854 1364h125l-854 -1364h-125zM1059 0v141h-359v86l365 447h119v-432h112v-101h-112v-141h-125zM844 238q36 4 92 4h125v264h-2z" />
    <glyph glyph-name="onehalf" unicode="&#xbd;" horiz-adv-x="1411" 
d="M215 690v563l-147 -41l-31 101l209 51h96v-674h-127zM135 0l854 1364h125l-854 -1364h-125zM795 0v70q56 45 77.5 63t73.5 63t76.5 73t56 68t45 75.5t13.5 68.5q0 52 -31.5 77.5t-83.5 25.5q-85 0 -162 -66l-69 80q107 88 251 88q117 0 174.5 -50.5t57.5 -139.5
q0 -51 -23 -104t-66.5 -104.5t-89 -94t-108.5 -93.5q6 0 37 1t47 1h240v-102h-516z" />
    <glyph glyph-name="threequarters" unicode="&#xbe;" horiz-adv-x="1427" 
d="M195 678q-40 0 -83.5 6.5t-58.5 13.5l27 101q48 -19 108 -19q91 0 144 29t53 82q0 58 -58.5 83t-168.5 27v89q90 2 147 31t57 79q0 35 -29.5 54.5t-82.5 19.5q-37 0 -79 -17.5t-65 -37.5l-57 79q33 30 98 54t132 24q108 0 162.5 -40.5t54.5 -112.5q0 -63 -39.5 -103.5
t-104.5 -56.5v-2q72 -6 120 -51t48 -117q0 -105 -85.5 -160t-239.5 -55zM238 0l854 1364h125l-855 -1364h-124zM1161 0v141h-358v86l364 447h119v-432h113v-101h-113v-141h-125zM946 238q36 4 92 4h125v264h-2z" />
    <glyph glyph-name="questiondown" unicode="&#xbf;" horiz-adv-x="819" 
d="M504 -397q-192 0 -297 96t-105 252q0 52 11.5 97t34.5 81.5t45 63t57.5 52.5t55.5 39t54 33q61 36 82 70.5t21 95.5v113h145v-129q0 -84 -31.5 -139.5t-119.5 -108.5q-42 -25 -63 -39t-51.5 -39.5t-44.5 -48.5t-25 -57.5t-11 -75.5q0 -114 66.5 -169.5t185.5 -55.5
q80 0 168 43l55 -119q-108 -55 -233 -55zM532 776q-47 0 -81.5 34t-34.5 81q0 49 34 83t82 34t82.5 -34t34.5 -83q0 -47 -35 -81t-82 -34z" />
    <glyph glyph-name="Agrave" unicode="&#xc0;" horiz-adv-x="1284" 
d="M377 473h518l-172 467q-25 67 -51 142.5t-33 93.5h-4q-41 -122 -84 -236zM43 0l522 1364h156l524 -1364h-174l-125 338h-620l-125 -338h-158zM578 1475l-277 258h223l189 -258h-135z" />
    <glyph glyph-name="Aacute" unicode="&#xc1;" horiz-adv-x="1284" 
d="M377 473h518l-172 467q-25 67 -51 142.5t-33 93.5h-4q-41 -122 -84 -236zM43 0l522 1364h156l524 -1364h-174l-125 338h-620l-125 -338h-158zM567 1475l189 258h223l-277 -258h-135z" />
    <glyph glyph-name="Acircumflex" unicode="&#xc2;" horiz-adv-x="1284" 
d="M377 473h518l-172 467q-25 67 -51 142.5t-33 93.5h-4q-41 -122 -84 -236zM43 0l522 1364h156l524 -1364h-174l-125 338h-620l-125 -338h-158zM332 1477l252 313h110l248 -313h-141l-166 174l-162 -174h-141z" />
    <glyph glyph-name="Atilde" unicode="&#xc3;" horiz-adv-x="1284" 
d="M377 473h518l-172 467q-25 67 -51 142.5t-33 93.5h-4q-41 -122 -84 -236zM43 0l522 1364h156l524 -1364h-174l-125 338h-620l-125 -338h-158zM737 1481q-51 0 -115 40t-102 40q-13 0 -26 -4.5t-24.5 -14t-19.5 -16.5t-18 -18t-12 -13l-80 76q89 123 192 123q43 0 81 -20
t71.5 -40t65.5 -20q54 0 104 63l80 -78q-42 -54 -87.5 -86t-109.5 -32z" />
    <glyph glyph-name="Adieresis" unicode="&#xc4;" horiz-adv-x="1284" 
d="M377 473h518l-172 467q-25 67 -51 142.5t-33 93.5h-4q-41 -122 -84 -236zM43 0l522 1364h156l524 -1364h-174l-125 338h-620l-125 -338h-158zM444 1470q-44 0 -76 32.5t-32 78.5q0 44 32 76.5t76 32.5q46 0 78.5 -32.5t32.5 -76.5q0 -46 -32.5 -78.5t-78.5 -32.5z
M827 1470q-44 0 -76 32.5t-32 78.5q0 44 32 76.5t76 32.5q46 0 78.5 -32.5t32.5 -76.5q0 -46 -32.5 -78.5t-78.5 -32.5z" />
    <glyph glyph-name="Aring" unicode="&#xc5;" horiz-adv-x="1284" 
d="M377 473h518l-172 467q-25 67 -51 142.5t-33 93.5h-4q-41 -122 -84 -236zM43 0l522 1364h156l524 -1364h-174l-125 338h-620l-125 -338h-158zM637 1440q-78 0 -136.5 57t-58.5 137q0 81 58.5 138t136.5 57t136 -57t58 -138t-58 -137.5t-136 -56.5zM637 1522q46 0 74 33
t28 79q0 47 -28 80t-74 33t-74 -33t-28 -80q0 -46 28 -79t74 -33z" />
    <glyph glyph-name="AE" unicode="&#xc6;" horiz-adv-x="1669" 
d="M-31 0l785 1364h782v-135h-541v-438h475v-136h-475v-520h555v-135h-714v373h-484l-209 -373h-174zM428 506h408v727z" />
    <glyph glyph-name="Ccedilla" unicode="&#xc7;" horiz-adv-x="1259" 
d="M643 -449q-77 0 -135 25l24 86q40 -22 109 -22q47 0 74.5 20t27.5 59q0 36 -22.5 56t-51.5 24.5t-71 3.5l68 181q-131 19 -237.5 84.5t-175.5 160.5t-106.5 212.5t-37.5 244.5q0 139 46 265.5t129.5 224t211 155.5t280.5 58q123 0 212.5 -26t170.5 -77l-80 -121
q-131 90 -307 90q-119 0 -215 -46.5t-156.5 -125.5t-92.5 -180t-32 -213q0 -115 31.5 -217t91.5 -184t158 -130t221 -48q198 0 334 116l74 -114q-61 -56 -170.5 -97t-241.5 -41h-8l-41 -110q64 -9 103.5 -47.5t39.5 -96.5q0 -80 -64 -125t-161 -45z" />
    <glyph glyph-name="Egrave" unicode="&#xc8;" horiz-adv-x="1030" 
d="M197 0v1364h700v-135h-541v-438h475v-136h-475v-520h555v-135h-714zM500 1475l-277 258h223l189 -258h-135z" />
    <glyph glyph-name="Eacute" unicode="&#xc9;" horiz-adv-x="1030" 
d="M197 0v1364h700v-135h-541v-438h475v-136h-475v-520h555v-135h-714zM489 1475l189 258h223l-276 -258h-136z" />
    <glyph glyph-name="Ecircumflex" unicode="&#xca;" horiz-adv-x="1030" 
d="M197 0v1364h700v-135h-541v-438h475v-136h-475v-520h555v-135h-714zM254 1477l252 313h110l248 -313h-141l-166 174l-162 -174h-141z" />
    <glyph glyph-name="Edieresis" unicode="&#xcb;" horiz-adv-x="1030" 
d="M197 0v1364h700v-135h-541v-438h475v-136h-475v-520h555v-135h-714zM367 1470q-44 0 -76.5 32.5t-32.5 78.5q0 44 32.5 76.5t76.5 32.5q45 0 77.5 -32t32.5 -77q0 -46 -32 -78.5t-78 -32.5zM750 1470q-44 0 -76.5 32.5t-32.5 78.5q0 44 32.5 76.5t76.5 32.5q46 0 78 -32
t32 -77q0 -46 -32 -78.5t-78 -32.5z" />
    <glyph glyph-name="Igrave" unicode="&#xcc;" horiz-adv-x="577" 
d="M209 0v1364h160v-1364h-160zM229 1475l-276 258h223l189 -258h-136z" />
    <glyph glyph-name="Iacute" unicode="&#xcd;" horiz-adv-x="577" 
d="M209 0v1364h160v-1364h-160zM219 1475l189 258h223l-277 -258h-135z" />
    <glyph glyph-name="Icircumflex" unicode="&#xce;" horiz-adv-x="577" 
d="M209 0v1364h160v-1364h-160zM-16 1477l252 313h110l248 -313h-141l-166 174l-162 -174h-141z" />
    <glyph glyph-name="Idieresis" unicode="&#xcf;" horiz-adv-x="577" 
d="M209 0v1364h160v-1364h-160zM96 1470q-44 0 -76 32.5t-32 78.5q0 44 32 76.5t76 32.5q46 0 78.5 -32.5t32.5 -76.5q0 -46 -32.5 -78.5t-78.5 -32.5zM479 1470q-44 0 -76 32.5t-32 78.5q0 44 32 76.5t76 32.5q46 0 78.5 -32.5t32.5 -76.5q0 -46 -32.5 -78.5t-78.5 -32.5z
" />
    <glyph glyph-name="Eth" unicode="&#xd0;" horiz-adv-x="1345" 
d="M197 0v643h-144v119h144v602h319q197 0 346.5 -48.5t241.5 -137.5t138 -209.5t46 -270.5q0 -151 -46.5 -275.5t-139.5 -220t-245 -149t-351 -53.5h-309zM356 131h164q295 0 447.5 143t152.5 420q0 278 -148.5 408.5t-461.5 130.5h-154v-471h228v-119h-228v-512z" />
    <glyph glyph-name="Ntilde" unicode="&#xd1;" horiz-adv-x="1456" 
d="M193 0v1364h157l643 -924q46 -67 127 -200h4q-8 108 -8 184v940h148v-1364h-148l-674 973q-18 26 -37 56.5t-42.5 73t-26.5 46.5h-4q8 -108 8 -150v-999h-147zM827 1481q-51 0 -115 40t-102 40q-13 0 -26 -4.5t-24.5 -14t-19.5 -16.5t-18 -18t-12 -13l-80 76
q89 123 193 123q43 0 81 -20t71 -40t65 -20q54 0 104 63l80 -78q-42 -54 -87.5 -86t-109.5 -32z" />
    <glyph glyph-name="Ograve" unicode="&#xd2;" horiz-adv-x="1556" 
d="M780 -25q-153 0 -281 57.5t-212.5 154.5t-131 224.5t-46.5 268.5t46 269t129.5 226t211 156t280.5 58t281.5 -57.5t213 -154.5t131 -224.5t46.5 -268.5t-46 -269t-129.5 -226t-211.5 -156t-281 -58zM776 109q119 0 216 46t159 124.5t95.5 181.5t33.5 219t-33 219.5
t-94.5 183t-157.5 126t-215 46.5t-216 -46t-159 -124.5t-95.5 -181.5t-33.5 -219t33 -219.5t94.5 -183t157.5 -126t215 -46.5zM719 1475l-277 258h224l188 -258h-135z" />
    <glyph glyph-name="Oacute" unicode="&#xd3;" horiz-adv-x="1556" 
d="M780 -25q-153 0 -281 57.5t-212.5 154.5t-131 224.5t-46.5 268.5t46 269t129.5 226t211 156t280.5 58t281.5 -57.5t213 -154.5t131 -224.5t46.5 -268.5t-46 -269t-129.5 -226t-211.5 -156t-281 -58zM776 109q119 0 216 46t159 124.5t95.5 181.5t33.5 219t-33 219.5
t-94.5 183t-157.5 126t-215 46.5t-216 -46t-159 -124.5t-95.5 -181.5t-33.5 -219t33 -219.5t94.5 -183t157.5 -126t215 -46.5zM709 1475l188 258h223l-276 -258h-135z" />
    <glyph glyph-name="Ocircumflex" unicode="&#xd4;" horiz-adv-x="1556" 
d="M780 -25q-153 0 -281 57.5t-212.5 154.5t-131 224.5t-46.5 268.5t46 269t129.5 226t211 156t280.5 58t281.5 -57.5t213 -154.5t131 -224.5t46.5 -268.5t-46 -269t-129.5 -226t-211.5 -156t-281 -58zM776 109q119 0 216 46t159 124.5t95.5 181.5t33.5 219t-33 219.5
t-94.5 183t-157.5 126t-215 46.5t-216 -46t-159 -124.5t-95.5 -181.5t-33.5 -219t33 -219.5t94.5 -183t157.5 -126t215 -46.5zM473 1477l252 313h111l247 -313h-141l-166 174l-162 -174h-141z" />
    <glyph glyph-name="Otilde" unicode="&#xd5;" horiz-adv-x="1556" 
d="M780 -25q-153 0 -281 57.5t-212.5 154.5t-131 224.5t-46.5 268.5t46 269t129.5 226t211 156t280.5 58t281.5 -57.5t213 -154.5t131 -224.5t46.5 -268.5t-46 -269t-129.5 -226t-211.5 -156t-281 -58zM776 109q119 0 216 46t159 124.5t95.5 181.5t33.5 219t-33 219.5
t-94.5 183t-157.5 126t-215 46.5t-216 -46t-159 -124.5t-95.5 -181.5t-33.5 -219t33 -219.5t94.5 -183t157.5 -126t215 -46.5zM879 1481q-51 0 -115 40t-102 40q-13 0 -26 -4.5t-25 -14t-19.5 -16t-18 -18t-12.5 -13.5l-80 76q89 123 193 123q43 0 81 -20t71 -40t65 -20
q54 0 104 63l80 -78q-20 -25 -36.5 -42.5t-41 -36.5t-54.5 -29t-64 -10z" />
    <glyph glyph-name="Odieresis" unicode="&#xd6;" horiz-adv-x="1556" 
d="M780 -25q-153 0 -281 57.5t-212.5 154.5t-131 224.5t-46.5 268.5t46 269t129.5 226t211 156t280.5 58t281.5 -57.5t213 -154.5t131 -224.5t46.5 -268.5t-46 -269t-129.5 -226t-211.5 -156t-281 -58zM776 109q119 0 216 46t159 124.5t95.5 181.5t33.5 219t-33 219.5
t-94.5 183t-157.5 126t-215 46.5t-216 -46t-159 -124.5t-95.5 -181.5t-33.5 -219t33 -219.5t94.5 -183t157.5 -126t215 -46.5zM586 1470q-44 0 -76.5 32.5t-32.5 78.5q0 44 32.5 76.5t76.5 32.5q46 0 78 -32t32 -77q0 -46 -32 -78.5t-78 -32.5zM969 1470q-44 0 -76.5 32.5
t-32.5 78.5q0 44 32.5 76.5t76.5 32.5q45 0 77.5 -32t32.5 -77q0 -46 -32 -78.5t-78 -32.5z" />
    <glyph glyph-name="multiply" unicode="&#xd7;" horiz-adv-x="1046" 
d="M793 172l-281 279l-264 -265l-92 93l264 264l-264 266l98 98l266 -264l264 264l93 -92l-265 -264l281 -281z" />
    <glyph glyph-name="Oslash" unicode="&#xd8;" horiz-adv-x="1556" 
d="M1278 1477l90 -68l-133 -197q102 -98 157.5 -236t55.5 -292q0 -141 -46 -269t-129.5 -226t-211.5 -156t-281 -58q-179 0 -325 78l-127 -186l-88 63l122 185q-122 97 -187.5 245.5t-65.5 319.5q0 141 46 269t129.5 226t211 156t280.5 58q214 0 371 -107zM1147 1087
l-619 -915q108 -63 248 -63q119 0 216 46t159 124.5t95.5 181.5t33.5 219q0 250 -133 407zM446 233l623 930q-123 92 -289 92q-119 0 -216 -46t-159 -124.5t-95.5 -181.5t-33.5 -219q0 -136 43.5 -254.5t126.5 -196.5z" />
    <glyph glyph-name="Ugrave" unicode="&#xd9;" horiz-adv-x="1413" 
d="M713 -25q-269 0 -399 142.5t-130 392.5v854h160v-834q0 -213 91 -315t282 -102q179 0 270.5 105.5t91.5 283.5v862h150v-846q0 -258 -128.5 -400.5t-387.5 -142.5zM647 1475l-276 258h223l188 -258h-135z" />
    <glyph glyph-name="Uacute" unicode="&#xda;" horiz-adv-x="1413" 
d="M713 -25q-269 0 -399 142.5t-130 392.5v854h160v-834q0 -213 91 -315t282 -102q179 0 270.5 105.5t91.5 283.5v862h150v-846q0 -258 -128.5 -400.5t-387.5 -142.5zM637 1475l188 258h224l-277 -258h-135z" />
    <glyph glyph-name="Ucircumflex" unicode="&#xdb;" horiz-adv-x="1413" 
d="M713 -25q-269 0 -399 142.5t-130 392.5v854h160v-834q0 -213 91 -315t282 -102q179 0 270.5 105.5t91.5 283.5v862h150v-846q0 -258 -128.5 -400.5t-387.5 -142.5zM401 1477l252 313h111l248 -313h-142l-165 174l-162 -174h-142z" />
    <glyph glyph-name="Udieresis" unicode="&#xdc;" horiz-adv-x="1413" 
d="M713 -25q-269 0 -399 142.5t-130 392.5v854h160v-834q0 -213 91 -315t282 -102q179 0 270.5 105.5t91.5 283.5v862h150v-846q0 -258 -128.5 -400.5t-387.5 -142.5zM514 1470q-44 0 -76 32.5t-32 78.5q0 44 32 76.5t76 32.5q46 0 78.5 -32.5t32.5 -76.5q0 -46 -32.5 -78.5
t-78.5 -32.5zM897 1470q-44 0 -76.5 32.5t-32.5 78.5q0 44 32.5 76.5t76.5 32.5q46 0 78.5 -32.5t32.5 -76.5q0 -46 -32.5 -78.5t-78.5 -32.5z" />
    <glyph glyph-name="Yacute" unicode="&#xdd;" horiz-adv-x="1136" 
d="M494 0v516l-457 848h178l365 -696h2l364 696h154l-447 -848v-516h-159zM498 1475l188 258h223l-276 -258h-135z" />
    <glyph glyph-name="Thorn" unicode="&#xde;" horiz-adv-x="1085" 
d="M197 0v1364h159v-236h183q214 0 346.5 -101.5t132.5 -291.5q0 -200 -132 -310t-370 -110h-160v-315h-159zM356 451h160q176 0 257 70t81 208q0 264 -332 264h-166v-542z" />
    <glyph glyph-name="germandbls" unicode="&#xdf;" horiz-adv-x="1120" 
d="M692 -25q-151 0 -250 70l64 121q28 -18 46.5 -28t60.5 -22t85 -12q86 0 137.5 37.5t51.5 108.5q0 36 -13 64.5t-42.5 53.5t-58.5 43t-80 46q-10 5 -15 8q-47 26 -75 44.5t-61.5 48.5t-49 67t-15.5 82q0 34 10 65t22.5 52t37.5 46t41.5 37.5t49.5 36t46 33.5
q56 42 82.5 84.5t26.5 107.5q0 93 -52 145t-161 52q-115 0 -184.5 -88.5t-69.5 -265.5v-1012h-150v1016q0 119 31.5 212.5t87 152t129 88.5t160.5 30q173 0 266.5 -90t93.5 -227q0 -58 -15 -105.5t-45.5 -84.5t-57.5 -60.5t-68 -52.5q-42 -29 -58 -41t-39.5 -33.5t-31.5 -40
t-8 -41.5q0 -46 29.5 -71.5t135.5 -84.5q48 -27 74 -43t65.5 -46.5t60 -57.5t36.5 -67.5t16 -86.5q0 -134 -90 -212.5t-256 -78.5z" />
    <glyph glyph-name="agrave" unicode="&#xe0;" horiz-adv-x="966" 
d="M371 -25q-124 0 -202.5 73t-78.5 192q0 75 32 134.5t83.5 97t121.5 62t140.5 34.5t146.5 10h43v92q0 108 -47 156t-149 48q-136 0 -256 -106l-80 104q145 136 346 136q336 0 336 -326v-459q0 -137 22 -223h-149q-9 40 -14 119q-52 -64 -130 -104t-165 -40zM395 104
q155 0 262 142v221h-43q-364 0 -364 -223q0 -69 46 -104.5t99 -35.5zM412 1106l-277 258h223l189 -258h-135z" />
    <glyph glyph-name="aacute" unicode="&#xe1;" horiz-adv-x="966" 
d="M371 -25q-124 0 -202.5 73t-78.5 192q0 75 32 134.5t83.5 97t121.5 62t140.5 34.5t146.5 10h43v92q0 108 -47 156t-149 48q-136 0 -256 -106l-80 104q145 136 346 136q336 0 336 -326v-459q0 -137 22 -223h-149q-9 40 -14 119q-52 -64 -130 -104t-165 -40zM395 104
q155 0 262 142v221h-43q-364 0 -364 -223q0 -69 46 -104.5t99 -35.5zM401 1106l189 258h223l-276 -258h-136z" />
    <glyph glyph-name="acircumflex" unicode="&#xe2;" horiz-adv-x="966" 
d="M371 -25q-124 0 -202.5 73t-78.5 192q0 75 32 134.5t83.5 97t121.5 62t140.5 34.5t146.5 10h43v92q0 108 -47 156t-149 48q-136 0 -256 -106l-80 104q145 136 346 136q336 0 336 -326v-459q0 -137 22 -223h-149q-9 40 -14 119q-52 -64 -130 -104t-165 -40zM395 104
q155 0 262 142v221h-43q-364 0 -364 -223q0 -69 46 -104.5t99 -35.5zM166 1108l252 313h110l248 -313h-141l-166 174l-162 -174h-141z" />
    <glyph glyph-name="atilde" unicode="&#xe3;" horiz-adv-x="966" 
d="M371 -25q-124 0 -202.5 73t-78.5 192q0 75 32 134.5t83.5 97t121.5 62t140.5 34.5t146.5 10h43v92q0 108 -47 156t-149 48q-136 0 -256 -106l-80 104q145 136 346 136q336 0 336 -326v-459q0 -137 22 -223h-149q-9 40 -14 119q-52 -64 -130 -104t-165 -40zM395 104
q155 0 262 142v221h-43q-364 0 -364 -223q0 -69 46 -104.5t99 -35.5zM571 1112q-51 0 -115 40t-102 40q-13 0 -26 -4.5t-24.5 -14t-19.5 -16.5t-18 -18t-12 -13l-80 76q89 123 193 123q43 0 81 -20t71 -40t65 -20q53 0 104 64l80 -78q-42 -54 -87.5 -86.5t-109.5 -32.5z" />
    <glyph glyph-name="adieresis" unicode="&#xe4;" horiz-adv-x="966" 
d="M371 -25q-124 0 -202.5 73t-78.5 192q0 75 32 134.5t83.5 97t121.5 62t140.5 34.5t146.5 10h43v92q0 108 -47 156t-149 48q-136 0 -256 -106l-80 104q145 136 346 136q336 0 336 -326v-459q0 -137 22 -223h-149q-9 40 -14 119q-52 -64 -130 -104t-165 -40zM395 104
q155 0 262 142v221h-43q-364 0 -364 -223q0 -69 46 -104.5t99 -35.5zM279 1102q-45 0 -77 32t-32 78q0 44 32.5 76.5t76.5 32.5q45 0 77.5 -32.5t32.5 -76.5q0 -46 -32 -78t-78 -32zM662 1102q-44 0 -76.5 32t-32.5 78q0 44 32.5 76.5t76.5 32.5q46 0 78 -32.5t32 -76.5
q0 -46 -32 -78t-78 -32z" />
    <glyph glyph-name="aring" unicode="&#xe5;" horiz-adv-x="966" 
d="M371 -25q-124 0 -202.5 73t-78.5 192q0 75 32 134.5t83.5 97t121.5 62t140.5 34.5t146.5 10h43v92q0 108 -47 156t-149 48q-136 0 -256 -106l-80 104q145 136 346 136q336 0 336 -326v-459q0 -137 22 -223h-149q-9 40 -14 119q-52 -64 -130 -104t-165 -40zM395 104
q155 0 262 142v221h-43q-364 0 -364 -223q0 -69 46 -104.5t99 -35.5zM471 1116q-78 0 -136.5 57t-58.5 138q0 80 58.5 137t136.5 57t136.5 -57t58.5 -137q0 -81 -58.5 -138t-136.5 -57zM471 1198q46 0 74 33.5t28 79.5q0 47 -28 79.5t-74 32.5t-74 -32.5t-28 -79.5
q0 -46 28 -79.5t74 -33.5z" />
    <glyph glyph-name="ae" unicode="&#xe6;" horiz-adv-x="1576" 
d="M371 -25q-124 0 -202.5 73t-78.5 192q0 75 32 134.5t83.5 97t121.5 62t140.5 34.5t146.5 10h45v92q0 101 -44 152.5t-154 51.5q-130 0 -242 -94q-3 -2 -7 -6l-7 -6l-80 104q26 24 49.5 41.5t67.5 42.5t102.5 38.5t126.5 13.5q225 0 299 -160q60 75 144.5 117.5
t183.5 42.5q181 0 284 -121t103 -322q0 -19 -4 -69h-666q2 -82 19.5 -150t53 -123.5t96 -87t140.5 -31.5q62 0 124.5 19t86.5 32.5t62 37.5l61 -117q-150 -101 -338 -101q-124 0 -219 52t-156 145q-162 -197 -374 -197zM395 104q185 0 297 175q-31 96 -37 188h-41
q-364 0 -364 -223q0 -69 46 -104.5t99 -35.5zM823 614h508q-2 55 -15.5 100.5t-40.5 83.5t-73.5 59.5t-107.5 21.5q-114 0 -182 -71.5t-89 -193.5z" />
    <glyph glyph-name="ccedilla" unicode="&#xe7;" horiz-adv-x="901" 
d="M408 -449q-78 0 -136 25l25 86q40 -22 109 -22q47 0 74.5 20t27.5 59q0 36 -23 56t-52 24.5t-71 3.5l68 183q-164 34 -256 176t-92 330q0 122 36.5 221.5t99 163t144 97.5t173.5 34q175 0 301 -99l-72 -112q-49 38 -102 60t-130 22q-145 0 -217.5 -106t-72.5 -277
q0 -80 17.5 -149.5t52.5 -124.5t93 -86.5t132 -31.5q136 0 239 82l62 -112q-43 -36 -119.5 -67t-188.5 -32l-41 -110q64 -9 104 -48t40 -96q0 -80 -64 -125t-161 -45z" />
    <glyph glyph-name="egrave" unicode="&#xe8;" horiz-adv-x="1003" 
d="M547 -25q-113 0 -202.5 40.5t-146.5 112t-86.5 166t-29.5 204.5q0 219 124 364.5t318 145.5q181 0 284 -120t103 -323q0 -19 -4 -69h-665q2 -82 19.5 -150t53 -123.5t96 -87t140.5 -31.5q48 0 91.5 8.5t82.5 27t54 27t44 26.5l62 -117q-150 -101 -338 -101zM250 614h508
q-3 115 -61 190t-177 75q-114 0 -181.5 -71.5t-88.5 -193.5zM461 1106l-277 258h224l188 -258h-135z" />
    <glyph glyph-name="eacute" unicode="&#xe9;" horiz-adv-x="1003" 
d="M547 -25q-113 0 -202.5 40.5t-146.5 112t-86.5 166t-29.5 204.5q0 219 124 364.5t318 145.5q181 0 284 -120t103 -323q0 -19 -4 -69h-665q2 -82 19.5 -150t53 -123.5t96 -87t140.5 -31.5q48 0 91.5 8.5t82.5 27t54 27t44 26.5l62 -117q-150 -101 -338 -101zM250 614h508
q-3 115 -61 190t-177 75q-114 0 -181.5 -71.5t-88.5 -193.5zM451 1106l188 258h223l-276 -258h-135z" />
    <glyph glyph-name="ecircumflex" unicode="&#xea;" horiz-adv-x="1003" 
d="M547 -25q-113 0 -202.5 40.5t-146.5 112t-86.5 166t-29.5 204.5q0 219 124 364.5t318 145.5q181 0 284 -120t103 -323q0 -19 -4 -69h-665q2 -82 19.5 -150t53 -123.5t96 -87t140.5 -31.5q48 0 91.5 8.5t82.5 27t54 27t44 26.5l62 -117q-150 -101 -338 -101zM250 614h508
q-3 115 -61 190t-177 75q-114 0 -181.5 -71.5t-88.5 -193.5zM215 1108l252 313h111l247 -313h-141l-166 174l-162 -174h-141z" />
    <glyph glyph-name="edieresis" unicode="&#xeb;" horiz-adv-x="1003" 
d="M547 -25q-113 0 -202.5 40.5t-146.5 112t-86.5 166t-29.5 204.5q0 219 124 364.5t318 145.5q181 0 284 -120t103 -323q0 -19 -4 -69h-665q2 -82 19.5 -150t53 -123.5t96 -87t140.5 -31.5q48 0 91.5 8.5t82.5 27t54 27t44 26.5l62 -117q-150 -101 -338 -101zM250 614h508
q-3 115 -61 190t-177 75q-114 0 -181.5 -71.5t-88.5 -193.5zM328 1102q-44 0 -76.5 32t-32.5 78q0 44 32.5 76.5t76.5 32.5q46 0 78 -32.5t32 -76.5q0 -46 -32 -78t-78 -32zM711 1102q-45 0 -77 32t-32 78q0 44 32.5 76.5t76.5 32.5q45 0 77.5 -32.5t32.5 -76.5
q0 -46 -32 -78t-78 -32z" />
    <glyph glyph-name="igrave" unicode="&#xec;" horiz-adv-x="512" 
d="M180 0v983h152v-983h-152zM197 1106l-277 258h223l189 -258h-135z" />
    <glyph glyph-name="iacute" unicode="&#xed;" horiz-adv-x="512" 
d="M180 0v983h152v-983h-152zM186 1106l189 258h223l-276 -258h-136z" />
    <glyph glyph-name="icircumflex" unicode="&#xee;" horiz-adv-x="512" 
d="M-49 1108l252 313h110l248 -313h-141l-166 174l-162 -174h-141zM180 0v983h152v-983h-152z" />
    <glyph glyph-name="idieresis" unicode="&#xef;" horiz-adv-x="512" 
d="M180 0v983h152v-983h-152zM63 1102q-44 0 -76 32t-32 78q0 44 32 76.5t76 32.5q46 0 78.5 -32.5t32.5 -76.5q0 -46 -32.5 -78t-78.5 -32zM446 1102q-44 0 -76 32t-32 78q0 44 32 76.5t76 32.5q46 0 78.5 -32.5t32.5 -76.5q0 -46 -32.5 -78t-78.5 -32z" />
    <glyph glyph-name="eth" unicode="&#xf0;" horiz-adv-x="1101" 
d="M535 -25q-192 0 -322.5 141.5t-130.5 372.5q0 234 125 369t319 135q101 0 181.5 -37t130.5 -104q-52 266 -230 397l-162 -137l-77 90l131 111q-134 61 -320 61l31 125q229 0 403 -88l148 125l78 -90l-121 -103q145 -113 221 -298.5t76 -430.5q0 -104 -18 -197.5
t-56.5 -174.5t-94.5 -140t-136 -93t-176 -34zM541 104q150 0 233.5 132.5t83.5 392.5v33q-114 202 -342 202q-127 0 -200.5 -100t-73.5 -270q0 -182 82 -286t217 -104z" />
    <glyph glyph-name="ntilde" unicode="&#xf1;" horiz-adv-x="1085" 
d="M168 0v983h149v-141q132 166 320 166q147 0 218 -85.5t71 -222.5v-700h-150v672q0 98 -40 149t-134 51q-78 0 -153 -50.5t-132 -129.5v-692h-149zM627 1112q-51 0 -115 40t-102 40q-13 0 -26 -4.5t-25 -14t-19.5 -16t-18 -18t-12.5 -13.5l-80 76q89 123 193 123
q43 0 81 -20t71 -40t65 -20q53 0 104 64l80 -78q-27 -35 -49 -57t-62 -42t-85 -20z" />
    <glyph glyph-name="ograve" unicode="&#xf2;" horiz-adv-x="1081" 
d="M537 -25q-96 0 -174.5 31.5t-129.5 83t-86 119.5t-50 138t-15 142t14.5 142t48 139t83.5 121.5t128 84.5t174 32t176 -31.5t133 -83.5t90 -119.5t53.5 -138t16.5 -141.5t-15.5 -142t-51.5 -139.5t-88.5 -121t-131.5 -84.5t-175 -32zM539 104q99 0 168.5 53t101 138
t31.5 194q0 108 -34.5 195t-106.5 141t-171 54q-145 0 -215.5 -107t-70.5 -278q0 -169 75.5 -279.5t221.5 -110.5zM481 1106l-276 258h223l188 -258h-135z" />
    <glyph glyph-name="oacute" unicode="&#xf3;" horiz-adv-x="1081" 
d="M537 -25q-96 0 -174.5 31.5t-129.5 83t-86 119.5t-50 138t-15 142t14.5 142t48 139t83.5 121.5t128 84.5t174 32t176 -31.5t133 -83.5t90 -119.5t53.5 -138t16.5 -141.5t-15.5 -142t-51.5 -139.5t-88.5 -121t-131.5 -84.5t-175 -32zM539 104q99 0 168.5 53t101 138
t31.5 194q0 108 -34.5 195t-106.5 141t-171 54q-145 0 -215.5 -107t-70.5 -278q0 -169 75.5 -279.5t221.5 -110.5zM471 1106l188 258h224l-277 -258h-135z" />
    <glyph glyph-name="ocircumflex" unicode="&#xf4;" horiz-adv-x="1081" 
d="M537 -25q-96 0 -174.5 31.5t-129.5 83t-86 119.5t-50 138t-15 142t14.5 142t48 139t83.5 121.5t128 84.5t174 32t176 -31.5t133 -83.5t90 -119.5t53.5 -138t16.5 -141.5t-15.5 -142t-51.5 -139.5t-88.5 -121t-131.5 -84.5t-175 -32zM539 104q99 0 168.5 53t101 138
t31.5 194q0 108 -34.5 195t-106.5 141t-171 54q-145 0 -215.5 -107t-70.5 -278q0 -169 75.5 -279.5t221.5 -110.5zM236 1108l251 313h111l248 -313h-141l-166 174l-162 -174h-141z" />
    <glyph glyph-name="otilde" unicode="&#xf5;" horiz-adv-x="1081" 
d="M537 -25q-96 0 -174.5 31.5t-129.5 83t-86 119.5t-50 138t-15 142t14.5 142t48 139t83.5 121.5t128 84.5t174 32t176 -31.5t133 -83.5t90 -119.5t53.5 -138t16.5 -141.5t-15.5 -142t-51.5 -139.5t-88.5 -121t-131.5 -84.5t-175 -32zM539 104q99 0 168.5 53t101 138
t31.5 194q0 108 -34.5 195t-106.5 141t-171 54q-145 0 -215.5 -107t-70.5 -278q0 -169 75.5 -279.5t221.5 -110.5zM641 1112q-51 0 -115 40t-102 40q-13 0 -26 -4.5t-24.5 -14t-19.5 -16.5t-18 -18t-12 -13l-80 76q89 123 192 123q43 0 81 -20t71 -40t65 -20q54 0 105 64
l80 -78q-42 -54 -87.5 -86.5t-109.5 -32.5z" />
    <glyph glyph-name="odieresis" unicode="&#xf6;" horiz-adv-x="1081" 
d="M537 -25q-96 0 -174.5 31.5t-129.5 83t-86 119.5t-50 138t-15 142t14.5 142t48 139t83.5 121.5t128 84.5t174 32t176 -31.5t133 -83.5t90 -119.5t53.5 -138t16.5 -141.5t-15.5 -142t-51.5 -139.5t-88.5 -121t-131.5 -84.5t-175 -32zM539 104q99 0 168.5 53t101 138
t31.5 194q0 108 -34.5 195t-106.5 141t-171 54q-145 0 -215.5 -107t-70.5 -278q0 -169 75.5 -279.5t221.5 -110.5zM348 1102q-44 0 -76 32t-32 78q0 44 32 76.5t76 32.5q46 0 78.5 -32.5t32.5 -76.5q0 -46 -32.5 -78t-78.5 -32zM731 1102q-44 0 -76 32t-32 78q0 44 32 76.5
t76 32.5q46 0 78.5 -32.5t32.5 -76.5q0 -46 -32.5 -78t-78.5 -32z" />
    <glyph glyph-name="divide" unicode="&#xf7;" horiz-adv-x="1171" 
d="M582 92q-47 0 -81 32.5t-34 78.5t34 78t81 32q46 0 79 -32t33 -78t-33 -78.5t-79 -32.5zM582 782q-47 0 -81 33.5t-34 79.5q0 45 34 78t81 33q46 0 79 -33t33 -78q0 -46 -33 -79.5t-79 -33.5zM74 487v123h1024v-123h-1024z" />
    <glyph glyph-name="oslash" unicode="&#xf8;" horiz-adv-x="1081" 
d="M180 -113l-80 56l113 168q-66 74 -98.5 174.5t-32.5 203.5q0 72 14.5 142t48 139t83.5 121.5t128 84.5t174 32q132 0 234 -60l119 180l86 -59l-123 -184q75 -75 114 -180.5t39 -210.5q0 -71 -15.5 -142t-51.5 -139.5t-88.5 -121t-131.5 -84.5t-175 -32q-146 0 -252 72z
M539 98q99 0 169.5 54.5t103 141.5t32.5 195q0 171 -80 277l-406 -606q75 -62 181 -62zM238 494q0 -156 57 -258l395 600q-73 47 -162 47q-75 0 -131.5 -30.5t-90.5 -85t-51 -123.5t-17 -150z" />
    <glyph glyph-name="ugrave" unicode="&#xf9;" horiz-adv-x="1081" 
d="M446 -25q-148 0 -219 85t-71 223v700h149v-672q0 -98 40.5 -149t135.5 -51q52 0 103 22.5t89 58t58 58t33 41.5v692h149v-776q0 -114 19 -207h-152q-11 68 -14 145q-20 -28 -46 -53.5t-66 -54t-94 -45.5t-114 -17zM483 1106l-276 258h223l188 -258h-135z" />
    <glyph glyph-name="uacute" unicode="&#xfa;" horiz-adv-x="1081" 
d="M446 -25q-148 0 -219 85t-71 223v700h149v-672q0 -98 40.5 -149t135.5 -51q52 0 103 22.5t89 58t58 58t33 41.5v692h149v-776q0 -114 19 -207h-152q-11 68 -14 145q-20 -28 -46 -53.5t-66 -54t-94 -45.5t-114 -17zM473 1106l189 258h223l-277 -258h-135z" />
    <glyph glyph-name="ucircumflex" unicode="&#xfb;" horiz-adv-x="1081" 
d="M446 -25q-148 0 -219 85t-71 223v700h149v-672q0 -98 40.5 -149t135.5 -51q52 0 103 22.5t89 58t58 58t33 41.5v692h149v-776q0 -114 19 -207h-152q-11 68 -14 145q-20 -28 -46 -53.5t-66 -54t-94 -45.5t-114 -17zM238 1108l251 313h111l248 -313h-141l-166 174
l-162 -174h-141z" />
    <glyph glyph-name="udieresis" unicode="&#xfc;" horiz-adv-x="1081" 
d="M446 -25q-148 0 -219 85t-71 223v700h149v-672q0 -98 40.5 -149t135.5 -51q52 0 103 22.5t89 58t58 58t33 41.5v692h149v-776q0 -114 19 -207h-152q-11 68 -14 145q-20 -28 -46 -53.5t-66 -54t-94 -45.5t-114 -17zM350 1102q-44 0 -76 32t-32 78q0 44 32 76.5t76 32.5
q46 0 78.5 -32.5t32.5 -76.5q0 -46 -32.5 -78t-78.5 -32zM733 1102q-44 0 -76 32t-32 78q0 44 32 76.5t76 32.5q46 0 78.5 -32.5t32.5 -76.5q0 -46 -32.5 -78t-78.5 -32z" />
    <glyph glyph-name="yacute" unicode="&#xfd;" horiz-adv-x="960" 
d="M117 -475q-49 0 -94 10l20 125q42 -6 76 -6q97 0 151 53t97 170l47 129l-371 977h168l281 -784h4l272 784h160l-418 -1114q-24 -63 -44 -106.5t-53.5 -92t-72 -77.5t-96 -48.5t-127.5 -19.5zM416 1106l188 258h223l-276 -258h-135z" />
    <glyph glyph-name="thorn" unicode="&#xfe;" horiz-adv-x="1085" 
d="M168 -449v1924h149v-598q108 131 285 131q182 0 290.5 -136.5t108.5 -377.5q0 -231 -121.5 -375t-312.5 -144q-154 0 -250 86v-510h-149zM553 104q137 0 213 107t76 278q0 173 -68.5 278t-202.5 105q-68 0 -138.5 -37.5t-115.5 -99.5v-540q101 -91 236 -91z" />
    <glyph glyph-name="ydieresis" unicode="&#xff;" horiz-adv-x="960" 
d="M117 -475q-49 0 -94 10l20 125q42 -6 76 -6q97 0 151 53t97 170l47 129l-371 977h168l281 -784h4l272 784h160l-418 -1114q-24 -63 -44 -106.5t-53.5 -92t-72 -77.5t-96 -48.5t-127.5 -19.5zM293 1102q-45 0 -77 32t-32 78q0 44 32.5 76.5t76.5 32.5q45 0 77.5 -32.5
t32.5 -76.5q0 -46 -32 -78t-78 -32zM676 1102q-44 0 -76.5 32t-32.5 78q0 44 32.5 76.5t76.5 32.5q46 0 78 -32.5t32 -76.5q0 -46 -32 -78t-78 -32z" />
    <glyph glyph-name="dotlessi" unicode="&#x131;" horiz-adv-x="512" 
d="M180 0v983h152v-983h-152z" />
    <glyph glyph-name="IJ" unicode="&#x132;" horiz-adv-x="1157" 
d="M651 -389q-76 0 -116 20l24 138q35 -15 80 -15q83 0 122.5 59t39.5 183v1368h160v-1393q0 -173 -79 -266.5t-231 -93.5zM209 0v1364h160v-1364h-160z" />
    <glyph glyph-name="ij" unicode="&#x133;" horiz-adv-x="1001" 
d="M553 -471q-79 0 -107 14l25 125q25 -10 70 -10q78 0 110.5 59.5t32.5 178.5v1087h150v-1114q0 -160 -68 -250t-213 -90zM756 1167q-46 0 -78.5 32.5t-32.5 78.5t32.5 78.5t78.5 32.5t78 -32.5t32 -78.5t-32 -78.5t-78 -32.5zM256 1167q-46 0 -78.5 32.5t-32.5 78.5
t32.5 78.5t78.5 32.5t78.5 -32.5t32.5 -78.5t-32.5 -78.5t-78.5 -32.5zM180 0v983h152v-983h-152z" />
    <glyph glyph-name="Lslash" unicode="&#x141;" horiz-adv-x="980" 
d="M197 0v573l-150 -116l-65 86l215 172v649h159v-524l217 172l70 -88l-287 -226v-563h537v-135h-696z" />
    <glyph glyph-name="lslash" unicode="&#x142;" horiz-adv-x="552" 
d="M186 0v569l-137 -110v139l137 111v766h150v-644l166 136v-142l-166 -135v-690h-150z" />
    <glyph glyph-name="OE" unicode="&#x152;" horiz-adv-x="1812" 
d="M780 -25q-153 0 -281 57.5t-212.5 154.5t-131 224.5t-46.5 268.5t46 269t129.5 226t211 156t280.5 58q105 0 203 -25h700v-135h-540v-438h475v-136h-475v-520h555v-135h-715q-92 -25 -199 -25zM776 109q118 0 203 36v1072q-87 38 -199 38q-119 0 -216 -46t-159 -124.5
t-95.5 -181.5t-33.5 -219t33 -219.5t94.5 -183t157.5 -126t215 -46.5z" />
    <glyph glyph-name="oe" unicode="&#x153;" horiz-adv-x="1759" 
d="M537 -25q-96 0 -174.5 31.5t-129.5 83t-86 119.5t-50 138t-15 142t14.5 142t48 139t83.5 121.5t128 84.5t174 32q134 0 231 -58.5t154 -158.5q58 104 152 160.5t213 56.5q181 0 284 -121t103 -322q0 -34 -4 -69h-666q1 -82 18.5 -150.5t53 -124t96.5 -86.5t142 -31
q48 0 91.5 8.5t82.5 27t54 27t44 26.5l61 -117q-150 -101 -337 -101q-132 0 -231.5 57.5t-153.5 157.5q-130 -215 -381 -215zM539 104q99 0 168.5 53t101 138t31.5 194q0 108 -34.5 195t-106.5 141t-171 54q-145 0 -215.5 -107t-70.5 -278q0 -169 75.5 -279.5t221.5 -110.5z
M1006 614h507q-2 55 -15.5 100.5t-40.5 83.5t-73.5 59.5t-107.5 21.5q-114 0 -181.5 -71.5t-88.5 -193.5z" />
    <glyph glyph-name="Scaron" unicode="&#x160;" horiz-adv-x="1021" 
d="M477 -25q-96 0 -182 27t-129.5 54.5t-75.5 58.5l82 114q128 -120 311 -120q122 0 200.5 68.5t78.5 162.5q0 46 -18 86.5t-39.5 66.5t-69.5 58t-75.5 46.5t-90.5 45.5q-13 7 -20 10q-60 29 -98 51t-84.5 57.5t-72.5 72.5t-44.5 90t-18.5 116q0 108 56 188.5t145.5 120.5
t195.5 40q219 0 359 -109l-78 -119q-119 94 -283 94q-103 0 -170 -57t-67 -149q0 -49 18 -88.5t55.5 -71t75.5 -54t97 -49.5q5 -2 15 -7q152 -73 218 -123q156 -121 156 -314q0 -162 -124.5 -264.5t-322.5 -102.5zM449 1473l-248 313h141l166 -174l162 174h141l-252 -313
h-110z" />
    <glyph glyph-name="scaron" unicode="&#x161;" horiz-adv-x="835" 
d="M395 -27q-176 0 -311 95l66 114q110 -80 243 -80q93 0 147 37.5t54 104.5q0 63 -48 101t-169 89q-52 22 -88 41t-73 46t-59.5 56t-36.5 70t-14 90q0 117 84 194t228 77q173 0 291 -95l-74 -108q-96 74 -219 74q-78 0 -121 -36.5t-43 -99.5t45.5 -99.5t142.5 -76.5
q59 -25 94.5 -42t80.5 -45.5t70 -57t42.5 -69.5t17.5 -89q0 -134 -94.5 -212.5t-255.5 -78.5zM356 1104l-247 313h141l166 -174l162 174h141l-252 -313h-111z" />
    <glyph glyph-name="Ydieresis" unicode="&#x178;" horiz-adv-x="1136" 
d="M494 0v516l-457 848h178l365 -696h2l364 696h154l-447 -848v-516h-159zM375 1470q-44 0 -76.5 32.5t-32.5 78.5q0 44 32.5 76.5t76.5 32.5q45 0 77.5 -32t32.5 -77q0 -46 -32 -78.5t-78 -32.5zM758 1470q-44 0 -76.5 32.5t-32.5 78.5q0 44 32.5 76.5t76.5 32.5
q46 0 78 -32t32 -77q0 -46 -32 -78.5t-78 -32.5z" />
    <glyph glyph-name="Zcaron" unicode="&#x17d;" horiz-adv-x="1148" 
d="M94 0v113l746 1120h-711v131h899v-104l-756 -1129h781v-131h-959zM535 1473l-248 313h141l166 -174l162 174h141l-252 -313h-110z" />
    <glyph glyph-name="zcaron" unicode="&#x17e;" horiz-adv-x="866" 
d="M86 0v94l500 768h-471v121h653v-100l-502 -762h510v-121h-690zM383 1104l-248 313h141l166 -174l162 174h141l-251 -313h-111z" />
    <glyph glyph-name="longs" unicode="&#x17f;" horiz-adv-x="538" 
d="M176 0v1128q0 171 95 271t264 100q111 0 163 -26l-39 -130q-50 25 -129 25q-98 0 -151 -64.5t-53 -185.5v-1118h-150z" />
    <glyph glyph-name="florin" unicode="&#x192;" horiz-adv-x="890" 
d="M47 -385q-108 0 -180 41l47 121q62 -31 119 -31q209 0 239 272l82 736h-211l17 118h209l28 265q19 174 117.5 268t269.5 94q126 0 222 -59l-60 -121q-27 18 -75.5 33.5t-104.5 15.5q-112 0 -163 -68.5t-66 -203.5l-25 -224h229l-20 -118h-221l-84 -754
q-20 -176 -110.5 -280.5t-258.5 -104.5z" />
    <glyph glyph-name="uni02BB" unicode="&#x2bb;" horiz-adv-x="452" 
d="M219 889q-51 0 -88 36t-37 99q0 104 74 207t160 170l59 -53q-113 -109 -113 -189q0 -33 28 -77t28 -83q0 -47 -32.5 -78.5t-78.5 -31.5z" />
    <glyph glyph-name="afii57929" unicode="&#x2bc;" horiz-adv-x="452" 
d="M233 1389q51 0 88 -36.5t37 -99.5q0 -104 -73.5 -206.5t-159.5 -169.5l-59 53q112 108 112 188q0 33 -27.5 77t-27.5 83q0 47 32 79t78 32z" />
    <glyph glyph-name="circumflex" unicode="&#x2c6;" horiz-adv-x="1024" 
d="M207 1108l252 313h110l248 -313h-141l-166 174l-162 -174h-141z" />
    <glyph glyph-name="caron" unicode="&#x2c7;" horiz-adv-x="1024" 
d="M455 1104l-248 313h141l166 -174l162 174h141l-252 -313h-110z" />
    <glyph glyph-name="breve" unicode="&#x2d8;" horiz-adv-x="1024" 
d="M512 1098q-116 0 -199 73.5t-96 217.5h133q6 -78 48.5 -125t113.5 -47q69 0 111.5 47t48.5 125h133q-13 -144 -95 -217.5t-198 -73.5z" />
    <glyph glyph-name="dotaccent" unicode="&#x2d9;" horiz-adv-x="1024" 
d="M512 1167q-46 0 -78.5 32.5t-32.5 78.5t32.5 78.5t78.5 32.5t78.5 -32.5t32.5 -78.5t-32.5 -78.5t-78.5 -32.5z" />
    <glyph glyph-name="ring" unicode="&#x2da;" horiz-adv-x="1024" 
d="M512 1116q-78 0 -136.5 57t-58.5 138q0 80 58.5 137t136.5 57t136.5 -57t58.5 -137q0 -81 -58.5 -138t-136.5 -57zM512 1198q46 0 74 33.5t28 79.5q0 47 -28 79.5t-74 32.5t-74 -32.5t-28 -79.5q0 -46 28 -79.5t74 -33.5z" />
    <glyph glyph-name="ogonek" unicode="&#x2db;" horiz-adv-x="1024" 
d="M539 -449q-95 0 -148 53.5t-53 135.5q0 129 131 260h102q-31 -39 -50 -67.5t-37.5 -78t-18.5 -98.5q0 -98 102 -98q45 0 88 16l23 -88q-68 -35 -139 -35z" />
    <glyph glyph-name="tilde" unicode="&#x2dc;" horiz-adv-x="1024" 
d="M612 1112q-51 0 -115 40t-102 40q-13 0 -26 -4.5t-24.5 -14t-19.5 -16.5t-18 -18t-12 -13l-80 76q89 123 193 123q43 0 81 -20t71 -40t65 -20q53 0 104 64l80 -78q-42 -54 -87.5 -86.5t-109.5 -32.5z" />
    <glyph glyph-name="hungarumlaut" unicode="&#x2dd;" horiz-adv-x="1024" 
d="M164 1106l190 258h215l-272 -258h-133zM500 1106l190 258h215l-272 -258h-133z" />
    <glyph glyph-name="gravecomb" unicode="&#x300;" 
d="M-598 1106l-276 258h223l188 -258h-135z" />
    <glyph glyph-name="acutecomb" unicode="&#x301;" 
d="M-608 1106l188 258h223l-276 -258h-135z" />
    <glyph glyph-name="uni0302" unicode="&#x302;" 
d="M-844 1108l252 313h111l248 -313h-142l-166 174l-161 -174h-142z" />
    <glyph glyph-name="tildecomb" unicode="&#x303;" 
d="M-438 1112q-51 0 -115 40t-102 40q-13 0 -26 -4.5t-25 -14t-19.5 -16t-18 -18t-12.5 -13.5l-80 76q89 123 193 123q43 0 81 -20t71 -40t65 -20q53 0 104 64l80 -78q-27 -35 -49 -57t-62 -42t-85 -20z" />
    <glyph glyph-name="uni0304" unicode="&#x304;" 
d="M-788 1176v124h555v-124h-555z" />
    <glyph glyph-name="uni0306" unicode="&#x306;" 
d="M-510 1104q-116 0 -199 73.5t-96 217.5h133q6 -78 48.5 -125t113.5 -47q69 0 111.5 47t48.5 125h133q-13 -144 -95 -217.5t-198 -73.5z" />
    <glyph glyph-name="uni0307" unicode="&#x307;" 
d="M-254 1167q-46 0 -78.5 32.5t-32.5 78.5t32.5 78.5t78.5 32.5t78.5 -32.5t32.5 -78.5t-32.5 -78.5t-78.5 -32.5z" />
    <glyph glyph-name="uni0308" unicode="&#x308;" 
d="M-702 1102q-44 0 -76.5 32t-32.5 78q0 44 32.5 76.5t76.5 32.5q46 0 78 -32.5t32 -76.5q0 -46 -32 -78t-78 -32zM-319 1102q-45 0 -77 32t-32 78q0 44 32.5 76.5t76.5 32.5q45 0 77.5 -32.5t32.5 -76.5q0 -46 -32 -78t-78 -32z" />
    <glyph glyph-name="uni030A" unicode="&#x30a;" 
d="M-510 1116q-78 0 -136.5 57t-58.5 138q0 80 58.5 137t136.5 57t136.5 -57t58.5 -137q0 -81 -58.5 -138t-136.5 -57zM-510 1198q46 0 74 33.5t28 79.5q0 47 -28 79.5t-74 32.5t-74 -32.5t-28 -79.5q0 -46 28 -79.5t74 -33.5z" />
    <glyph glyph-name="uni030B" unicode="&#x30b;" 
d="M-858 1106l190 258h215l-272 -258h-133zM-522 1106l190 258h215l-272 -258h-133z" />
    <glyph glyph-name="uni030C" unicode="&#x30c;" 
d="M-481 1104l-248 313h141l166 -174l162 174h141l-252 -313h-110z" />
    <glyph glyph-name="uni0312" unicode="&#x312;" 
d="M-209 1104q-43 0 -73.5 32t-30.5 85q0 66 39.5 130t99.5 115l51 -45q-4 -4 -17 -16t-18.5 -18t-13.5 -17t-11 -23t-3 -26q0 -30 30.5 -66t30.5 -71q0 -34 -23 -57t-61 -23z" />
    <glyph glyph-name="uni0313" unicode="&#x313;" 
d="M-340 1135l86 340h186l-157 -340h-115z" />
    <glyph glyph-name="uni0326" unicode="&#x326;" 
d="M-526 -102q43 0 73.5 -32t30.5 -85q0 -66 -39.5 -130.5t-99.5 -115.5l-51 45q3 3 17 16t18.5 18.5t13 17t11.5 23.5t3 26q0 30 -30.5 66t-30.5 71q0 34 23 57t61 23z" />
    <glyph glyph-name="uni0327" unicode="&#x327;" 
d="M-559 -449q-77 0 -135 25l24 86q40 -22 109 -22q47 0 74.5 20t27.5 59q0 36 -22.5 56t-51.5 24.5t-71 3.5l74 197h104l-51 -135q64 -9 103.5 -47.5t39.5 -96.5q0 -80 -64 -125t-161 -45z" />
    <glyph glyph-name="uni0328" unicode="&#x328;" 
d="M-483 -449q-95 0 -148 53.5t-53 135.5q0 129 131 260h102q-31 -39 -50 -67.5t-37.5 -78t-18.5 -98.5q0 -98 102 -98q45 0 88 16l23 -88q-68 -35 -139 -35z" />
    <glyph glyph-name="uni037E" unicode="&#x37e;" horiz-adv-x="462" 
d="M231 750q-53 0 -89 36t-36 88t36 88.5t89 36.5t89 -36.5t36 -88.5t-36 -88t-89 -36zM121 -297l-64 57q34 32 54.5 55.5t39.5 59.5t19 70q0 35 -28.5 81.5t-28.5 86.5q0 51 32 83.5t80 32.5q54 0 91.5 -37t37.5 -100q0 -78 -41.5 -160t-90 -135.5t-101.5 -93.5z" />
    <glyph glyph-name="uni0394" unicode="&#x394;" horiz-adv-x="1243" 
d="M43 0v106l496 1258h155l510 -1258v-106h-1161zM209 135h815l-315 805q-63 160 -95 258h-4q-24 -78 -92 -258z" />
    <glyph glyph-name="uni03A9" unicode="&#x3a9;" horiz-adv-x="1523" 
d="M125 0v135h285q-136 91 -212.5 251.5t-76.5 342.5q0 147 53 272.5t142 209.5t205 131t241 47t241 -47t205 -131t142 -209.5t53 -272.5q0 -182 -76.5 -342.5t-212.5 -251.5h287v-135h-467v131q301 211 301 598q0 139 -60.5 259.5t-170 193.5t-242.5 73t-242.5 -73
t-170 -193.5t-60.5 -259.5q0 -385 303 -598v-131h-467z" />
    <glyph glyph-name="uni03BC" unicode="&#x3bc;" horiz-adv-x="1077" 
d="M156 -444v1427h149v-688q0 -40 5.5 -69.5t20.5 -57t46.5 -42.5t77.5 -15q49 0 97.5 17.5t88.5 46t69 56.5t54 58v694h149v-786q0 -109 15 -197h-150q-10 51 -14 141q-21 -23 -37 -38.5t-49.5 -42t-65.5 -43t-78 -29.5t-94 -13q-84 0 -137 35h-4q6 -71 6 -227v-227h-149z
" />
    <glyph glyph-name="pi" unicode="&#x3c0;" horiz-adv-x="1251" 
d="M979 -25q-111 0 -158 62t-47 178v649h-356q0 -447 -62 -864h-153q69 443 69 864h-202v119h1091v-119h-237v-635q0 -65 15.5 -95t57.5 -30q39 0 72 29l51 -110q-56 -48 -141 -48z" />
    <glyph glyph-name="uni1E9E" unicode="&#x1e9e;" horiz-adv-x="1355" 
d="M184 0v780q0 297 149 451.5t421 154.5q169 0 399 -63v-94l-289 -438l70 -35q61 -32 100 -55.5t87.5 -61.5t76 -76.5t47 -94t19.5 -120.5q0 -163 -114 -267t-306 -104q-219 0 -371 93l59 118q138 -77 295 -77q133 0 206 61t73 170q0 98 -66.5 167.5t-205.5 139.5l-170 86
l313 488q-116 28 -223 28q-201 0 -305.5 -116t-104.5 -349v-786h-160z" />
    <glyph glyph-name="uni2007" unicode="&#x2007;" horiz-adv-x="1167" 
 />
    <glyph glyph-name="uni2008" unicode="&#x2008;" horiz-adv-x="450" 
 />
    <glyph glyph-name="uni200B" unicode="&#x200b;" horiz-adv-x="0" 
 />
    <glyph glyph-name="endash" unicode="&#x2013;" horiz-adv-x="1075" 
d="M111 500v125h854v-125h-854z" />
    <glyph glyph-name="emdash" unicode="&#x2014;" horiz-adv-x="1703" 
d="M111 500v125h1482v-125h-1482z" />
    <glyph glyph-name="quoteleft" unicode="&#x2018;" horiz-adv-x="452" 
d="M219 889q-51 0 -88 36t-37 99q0 104 74 207t160 170l59 -53q-113 -109 -113 -189q0 -33 28 -77t28 -83q0 -47 -32.5 -78.5t-78.5 -31.5z" />
    <glyph glyph-name="quoteright" unicode="&#x2019;" horiz-adv-x="452" 
d="M233 1389q51 0 88 -36.5t37 -99.5q0 -104 -73.5 -206.5t-159.5 -169.5l-59 53q112 108 112 188q0 33 -27.5 77t-27.5 83q0 47 32 79t78 32z" />
    <glyph glyph-name="quotesinglbase" unicode="&#x201a;" horiz-adv-x="452" 
d="M233 225q51 0 88 -36t37 -99q0 -55 -23.5 -114t-61 -108.5t-74.5 -87.5t-74 -67l-59 54q112 108 112 188q0 33 -27.5 77t-27.5 83q0 47 32 78.5t78 31.5z" />
    <glyph glyph-name="quotedblleft" unicode="&#x201c;" horiz-adv-x="806" 
d="M219 889q-51 0 -88 36t-37 99q0 104 74 207t160 170l59 -53q-113 -109 -113 -189q0 -33 28 -77t28 -83q0 -47 -32.5 -78.5t-78.5 -31.5zM573 889q-51 0 -87.5 36t-36.5 99q0 55 23.5 114t61 108.5t74.5 87.5t74 67l59 -53q-112 -108 -112 -189q0 -33 27.5 -77t27.5 -83
q0 -47 -32.5 -78.5t-78.5 -31.5z" />
    <glyph glyph-name="quotedblright" unicode="&#x201d;" horiz-adv-x="806" 
d="M233 1389q51 0 88 -36.5t37 -99.5q0 -104 -73.5 -206.5t-159.5 -169.5l-59 53q112 108 112 188q0 33 -27.5 77t-27.5 83q0 47 32 79t78 32zM588 1389q51 0 88 -36.5t37 -99.5q0 -55 -23.5 -114t-61 -108.5t-75 -87t-74.5 -66.5l-59 53q112 108 112 188q0 33 -27.5 77
t-27.5 83q0 47 32.5 79t78.5 32z" />
    <glyph glyph-name="quotedblbase" unicode="&#x201e;" horiz-adv-x="806" 
d="M233 225q51 0 88 -36t37 -99q0 -55 -23.5 -114t-61 -108.5t-74.5 -87.5t-74 -67l-59 54q112 108 112 188q0 33 -27.5 77t-27.5 83q0 47 32 78.5t78 31.5zM588 225q51 0 88 -36t37 -99q0 -104 -74 -207t-160 -170l-59 54q112 108 112 188q0 33 -27.5 77t-27.5 83
q0 47 32.5 78.5t78.5 31.5z" />
    <glyph glyph-name="dagger" unicode="&#x2020;" horiz-adv-x="1112" 
d="M506 -348l-39 913l33 291l-168 -16h-226v143h226l168 -16l-27 227v281h166v-281l-27 -227l168 16h226v-143h-226l-168 16l31 -291l-37 -913h-100z" />
    <glyph glyph-name="daggerdbl" unicode="&#x2021;" horiz-adv-x="1112" 
d="M473 -344v281l27 227l-168 -17h-226v144h226l168 -17l-33 291l33 291l-168 -16h-226v143h226l168 -16l-27 227v281h166v-281l-27 -227l168 16h226v-143h-226l-168 16l31 -291l-31 -291l168 17h226v-144h-226l-168 17l27 -227v-281h-166z" />
    <glyph glyph-name="bullet" unicode="&#x2022;" horiz-adv-x="741" 
d="M371 332q-106 0 -181 74t-75 180t75 181t181 75t181 -75t75 -181t-75 -180t-181 -74z" />
    <glyph glyph-name="ellipsis" unicode="&#x2026;" horiz-adv-x="1271" 
d="M225 -18q-52 0 -87.5 35.5t-35.5 86.5t35.5 86t87.5 35q51 0 87 -35t36 -86t-36 -86.5t-87 -35.5zM635 -18q-51 0 -86 35.5t-35 86.5t35 86t86 35q52 0 87.5 -35t35.5 -86t-35.5 -86.5t-87.5 -35.5zM1047 -18q-51 0 -87 35.5t-36 86.5t36 86t87 35t86.5 -35t35.5 -86
t-35.5 -86.5t-86.5 -35.5z" />
    <glyph glyph-name="perthousand" unicode="&#x2030;" horiz-adv-x="2203" 
d="M358 436q-73 0 -130.5 25.5t-91 68t-50 91.5t-16.5 100t17.5 100.5t51 92t92 68.5t131.5 26q74 0 131 -25.5t90 -67.5t49.5 -90.5t16.5 -99.5t-17 -100.5t-51 -92.5t-92 -69.5t-131 -26.5zM362 535q81 0 121.5 51.5t40.5 134.5t-42.5 135.5t-123.5 52.5t-122 -50.5
t-41 -133.5t43 -136.5t124 -53.5zM1167 -25q-73 0 -130.5 25.5t-91 68t-50 91.5t-16.5 100t17.5 100.5t51 92t92 68.5t131.5 26q74 0 131 -25.5t90 -67.5t49.5 -90.5t16.5 -99.5t-17 -100.5t-51 -92.5t-92 -69.5t-131 -26.5zM1171 74q81 0 121.5 51.5t40.5 134.5t-42.5 136
t-123.5 53t-122 -51t-41 -134t43 -136.5t124 -53.5zM1843 -25q-59 0 -108.5 17t-82 45.5t-55.5 66t-33 76.5t-10 80q0 51 17.5 100.5t51.5 92t92 68.5t132 26t131 -25.5t90 -67.5t49.5 -90.5t16.5 -99.5t-17 -100.5t-51 -92.5t-92 -69.5t-131 -26.5zM1847 74
q81 0 121.5 51.5t40.5 134.5t-42.5 136t-123.5 53t-122.5 -51.5t-41.5 -133.5t43.5 -136t124.5 -54zM412 0l587 983h129l-587 -983h-129z" />
    <glyph glyph-name="guilsinglleft" unicode="&#x2039;" horiz-adv-x="610" 
d="M365 115l-273 387l273 389h157l-270 -389l270 -387h-157z" />
    <glyph glyph-name="guilsinglright" unicode="&#x203a;" horiz-adv-x="610" 
d="M88 115l270 387l-270 389h156l274 -389l-274 -387h-156z" />
    <glyph glyph-name="fraction" unicode="&#x2044;" horiz-adv-x="200" 
d="M-389 0l854 1364h125l-854 -1364h-125z" />
    <glyph glyph-name="uni2070" unicode="&#x2070;" horiz-adv-x="845" 
d="M422 678q-82 0 -147 30t-104.5 80t-60 111.5t-20.5 128.5t20 128t59 111t104.5 79.5t148.5 29.5q82 0 147.5 -29.5t105 -79.5t60.5 -111t21 -128t-21 -128.5t-60.5 -111.5t-105 -80t-147.5 -30zM422 778q86 0 136 67t50 183q0 114 -50 181t-136 67q-84 0 -135 -67.5
t-51 -180.5q0 -115 51 -182.5t135 -67.5z" />
    <glyph glyph-name="uni2074" unicode="&#x2074;" horiz-adv-x="653" 
d="M387 690v141h-358v87l364 446h119v-432h113v-101h-113v-141h-125zM172 928q36 4 92 4h125v264h-2z" />
    <glyph glyph-name="uni2075" unicode="&#x2075;" horiz-adv-x="612" 
d="M180 678q-62 0 -106 14l20 103q40 -15 88 -15q93 0 156 30.5t63 94.5q0 121 -219 121q-34 0 -76 -6l25 344h381v-102h-266l-13 -140q139 -3 219 -55.5t80 -153.5q0 -115 -94 -175t-258 -60z" />
    <glyph glyph-name="uni2076" unicode="&#x2076;" horiz-adv-x="694" 
d="M362 678q-73 0 -127.5 24t-85 66.5t-45 93.5t-14.5 111q0 184 124 293.5t345 109.5l31 -102q-69 -2 -123 -11.5t-105.5 -31.5t-85.5 -64.5t-47 -103.5q61 45 162 45q105 0 169.5 -56.5t64.5 -152.5q0 -100 -72 -160.5t-191 -60.5zM367 776q56 0 89 31.5t33 83.5
q0 58 -35 89.5t-94 31.5q-88 0 -139 -45v-9q0 -90 40 -136t106 -46z" />
    <glyph glyph-name="uni2077" unicode="&#x2077;" horiz-adv-x="604" 
d="M229 664l-110 45l258 548h-340v107h483v-72z" />
    <glyph glyph-name="uni2078" unicode="&#x2078;" horiz-adv-x="681" 
d="M340 678q-125 0 -193.5 49.5t-68.5 130.5q0 107 149 178q-63 33 -96 70.5t-33 93.5q0 77 71 126.5t175 49.5q110 0 176 -44.5t66 -123.5q0 -52 -37.5 -89.5t-104.5 -69.5q160 -68 160 -187q0 -84 -73 -134t-191 -50zM338 774q60 0 94.5 24t34.5 62q0 27 -23.5 52
t-48.5 39t-69 36q-27 -16 -40.5 -25t-35 -26.5t-31.5 -36t-10 -39.5q0 -40 35 -63t94 -23zM346 1098q74 44 94 67q17 21 17 41q0 34 -30 55t-81 21t-84 -22t-33 -54q0 -23 22 -45.5t38.5 -32t56.5 -30.5z" />
    <glyph glyph-name="uni2079" unicode="&#x2079;" horiz-adv-x="702" 
d="M147 672l-28 102q136 2 231 53.5t121 163.5q-65 -43 -164 -43q-105 0 -171 56.5t-66 150.5q0 99 74 160t190 61q74 0 129.5 -24t87 -66t46.5 -93.5t15 -111.5q0 -189 -120 -299t-345 -110zM338 1042q88 0 139 45v9q0 86 -39.5 135t-103.5 49q-56 0 -90.5 -34.5
t-34.5 -82.5q0 -58 35 -89.5t94 -31.5z" />
    <glyph glyph-name="uni207A" unicode="&#x207a;" horiz-adv-x="704" 
d="M299 791v188h-221v98h221v183h109v-183h219v-98h-219v-188h-109z" />
    <glyph glyph-name="uni207B" unicode="&#x207b;" horiz-adv-x="659" 
d="M119 979v98h422v-98h-422z" />
    <glyph glyph-name="uni207D" unicode="&#x207d;" horiz-adv-x="436" 
d="M309 580q-89 78 -148 191.5t-59 256.5q0 138 60 252t147 184h121q-78 -69 -133 -178.5t-55 -253.5q0 -271 188 -452h-121z" />
    <glyph glyph-name="uni207E" unicode="&#x207e;" horiz-adv-x="436" 
d="M6 580q191 175 191 440t-191 444h123q205 -173 205 -440q0 -146 -59.5 -259t-145.5 -185h-123z" />
    <glyph glyph-name="uni2080" unicode="&#x2080;" horiz-adv-x="845" 
d="M422 -422q-82 0 -147 30t-104.5 80t-60 111.5t-20.5 128.5t20 128t59 111t104.5 79.5t148.5 29.5q82 0 147.5 -29.5t105 -79.5t60.5 -111t21 -128t-21 -128.5t-60.5 -111.5t-105 -80t-147.5 -30zM422 -322q86 0 136 67t50 183q0 114 -50 181t-136 67q-84 0 -135 -67.5
t-51 -180.5q0 -115 51 -182.5t135 -67.5z" />
    <glyph glyph-name="uni2081" unicode="&#x2081;" horiz-adv-x="524" 
d="M215 -410v564l-147 -41l-31 100l209 51h96v-674h-127z" />
    <glyph glyph-name="uni2082" unicode="&#x2082;" horiz-adv-x="686" 
d="M70 -410v70q64 52 93.5 76.5t87 77.5t85.5 88.5t52 82.5t24 87q0 52 -31.5 77t-83.5 25q-86 0 -162 -65l-69 79q107 88 251 88q117 0 174.5 -50.5t57.5 -139.5q0 -51 -23 -103.5t-67 -104t-89 -94t-108 -93.5q6 0 37 1t47 1h240v-103h-516z" />
    <glyph glyph-name="uni2083" unicode="&#x2083;" horiz-adv-x="626" 
d="M195 -422q-40 0 -83.5 7t-58.5 14l27 100q45 -18 108 -18q91 0 144 28.5t53 81.5q0 58 -58.5 83.5t-168.5 27.5v88q90 2 147 31t57 79q0 35 -29.5 54.5t-82.5 19.5q-37 0 -79 -17.5t-65 -37.5l-57 80q33 29 98 53t132 24q108 0 162.5 -40.5t54.5 -112.5
q0 -63 -39.5 -103.5t-104.5 -56.5v-2q72 -6 120 -51t48 -117q0 -105 -85.5 -160t-239.5 -55z" />
    <glyph glyph-name="uni2084" unicode="&#x2084;" horiz-adv-x="653" 
d="M387 -410v142h-358v86l364 446h119v-432h113v-100h-113v-142h-125zM172 -172q36 4 92 4h125v264h-2z" />
    <glyph glyph-name="uni2085" unicode="&#x2085;" horiz-adv-x="612" 
d="M180 -422q-62 0 -106 14l20 103q37 -14 88 -14q93 0 156 30t63 94q0 121 -219 121q-34 0 -76 -6l25 344h381v-102h-266l-13 -139q139 -3 219 -55.5t80 -153.5q0 -115 -94.5 -175.5t-257.5 -60.5z" />
    <glyph glyph-name="uni2086" unicode="&#x2086;" horiz-adv-x="694" 
d="M362 -422q-73 0 -127.5 24t-85 66.5t-45 93.5t-14.5 111q0 184 124 293.5t345 109.5l31 -102q-69 -2 -123 -11.5t-105.5 -31.5t-85.5 -64.5t-47 -103.5q61 45 162 45q105 0 169.5 -56.5t64.5 -152.5q0 -100 -72 -160.5t-191 -60.5zM367 -324q56 0 89 31.5t33 83.5
q0 58 -35 89.5t-94 31.5q-88 0 -139 -45v-8q0 -90 40 -136.5t106 -46.5z" />
    <glyph glyph-name="uni2087" unicode="&#x2087;" horiz-adv-x="604" 
d="M229 -436l-110 45l258 549h-340v106h483v-71z" />
    <glyph glyph-name="uni2088" unicode="&#x2088;" horiz-adv-x="681" 
d="M340 -422q-125 0 -193.5 49.5t-68.5 130.5q0 108 149 179q-63 33 -96 70t-33 93q0 77 71 126.5t175 49.5q110 0 176 -44.5t66 -122.5q0 -52 -38 -90t-104 -70q160 -68 160 -187q0 -84 -73 -134t-191 -50zM338 -326q60 0 94.5 24t34.5 62q0 27 -23.5 52t-48.5 39t-69 36
q-27 -16 -40.5 -25t-35 -26.5t-31.5 -36t-10 -39.5q0 -40 35 -63t94 -23zM346 -2q74 44 94 67q17 21 17 41q0 34 -30 55t-81 21t-84 -22t-33 -54q0 -23 22 -45.5t38.5 -32t56.5 -30.5z" />
    <glyph glyph-name="uni2089" unicode="&#x2089;" horiz-adv-x="702" 
d="M147 -428l-28 102q136 2 231 53.5t121 163.5q-65 -43 -164 -43q-105 0 -171 56.5t-66 150.5q0 99 74 160t190 61q74 0 129.5 -24t87 -66t46.5 -93t15 -111q0 -189 -120 -299.5t-345 -110.5zM338 -57q88 0 139 45v8q0 86 -39.5 135t-103.5 49q-56 0 -90.5 -34.5
t-34.5 -82.5q0 -58 35 -89t94 -31z" />
    <glyph glyph-name="uni208A" unicode="&#x208a;" horiz-adv-x="704" 
d="M299 -309v188h-221v98h221v183h109v-183h219v-98h-219v-188h-109z" />
    <glyph glyph-name="uni208B" unicode="&#x208b;" horiz-adv-x="659" 
d="M119 -121v98h422v-98h-422z" />
    <glyph glyph-name="uni208D" unicode="&#x208d;" horiz-adv-x="436" 
d="M309 -520q-89 78 -148 191.5t-59 256.5q0 138 60.5 253t146.5 184h121q-77 -68 -132.5 -178.5t-55.5 -254.5q0 -271 188 -452h-121z" />
    <glyph glyph-name="uni208E" unicode="&#x208e;" horiz-adv-x="436" 
d="M6 -520q191 175 191 440q0 266 -191 445h123q90 -76 147.5 -186.5t57.5 -254.5q0 -146 -59.5 -259t-145.5 -185h-123z" />
    <glyph glyph-name="Euro" unicode="&#x20ac;" horiz-adv-x="1193" 
d="M80 748v120h153q42 249 195.5 385t368.5 136q116 0 186.5 -21.5t132.5 -60.5l-69 -125q-36 21 -57 32t-78 26t-119 15q-144 0 -250 -99.5t-142 -287.5h365v-120h-381v-58q0 -42 4 -108h377v-121h-356q44 -175 149 -262.5t242 -87.5q143 0 258 79l74 -114
q-47 -30 -76.5 -46.5t-102 -35.5t-157.5 -19q-201 0 -352 126t-203 360h-162v121h143q-4 33 -4 104q0 42 2 62h-141z" />
    <glyph glyph-name="uni20B4" unicode="&#x20b4;" horiz-adv-x="1146" 
d="M1067 748h-260q-43 -29 -143 -78q-116 -54 -168 -88h571v-121h-692q-25 -55 -25 -121q0 -94 78.5 -162.5t200.5 -68.5q183 0 311 120l82 -114q-32 -31 -75.5 -58.5t-129.5 -54.5t-182 -27q-198 0 -322.5 102.5t-124.5 264.5q0 64 19 119h-127v121h203q32 34 78.5 66
t83 52t94.5 48h-459v120h663q80 73 80 181q0 92 -67 149t-170 57q-164 0 -283 -94l-78 119q140 109 359 109q106 0 195.5 -40t145.5 -120.5t56 -188.5q0 -99 -47 -172h133v-120z" />
    <glyph glyph-name="afii61352" unicode="&#x2116;" horiz-adv-x="2228" 
d="M197 0v1364h157l643 -924q46 -67 127 -200h4q-8 108 -8 184v940h148v-1364h-148l-674 973q-18 26 -37 56.5t-42.5 73t-26.5 46.5h-4q8 -108 8 -150v-999h-147zM1792 737q-65 0 -120 19.5t-92.5 51.5t-63.5 73.5t-38 85.5t-12 88q0 56 20.5 110.5t59.5 102t104 77
t146 29.5t145 -28.5t102 -75t57.5 -101t19.5 -110.5t-20 -111t-59 -103t-103.5 -78t-145.5 -30zM1796 846q90 0 138 59t48 150q0 90 -50.5 150.5t-139.5 60.5q-90 0 -139 -58.5t-49 -148.5t51.5 -151.5t140.5 -61.5z" />
    <glyph glyph-name="uni2117" unicode="&#x2117;" horiz-adv-x="1771" 
d="M885 -29q-155 0 -296 60.5t-243 163t-162.5 244t-60.5 296.5t60.5 296.5t162.5 244t243 163t296 60.5t296.5 -60.5t244 -163t163 -244t60.5 -296.5t-60.5 -296.5t-163 -244t-244 -163t-296.5 -60.5zM885 78q138 0 258.5 49t206 135.5t135 209t49.5 263.5q0 188 -84 338.5
t-232.5 235t-332.5 84.5q-183 0 -331 -84.5t-232 -235t-84 -338.5q0 -141 49 -263.5t135 -209t206 -135.5t257 -49zM635 279v925h301q132 0 208.5 -82.5t76.5 -193.5q0 -55 -19.5 -103t-59.5 -87t-108 -62t-157 -23h-109v-374h-133zM768 758h100q209 0 209 166
q0 83 -41.5 124.5t-130.5 41.5h-137v-332z" />
    <glyph glyph-name="trademark" unicode="&#x2122;" horiz-adv-x="1462" 
d="M614 768l64 596h123l137 -350q26 -65 39 -115h4q15 59 39 117l137 348h125l66 -596h-109l-33 338q-8 90 -8 129h-4q-14 -70 -43 -143l-131 -324h-94l-121 307q-15 38 -49 160h-4q0 -8 -1.5 -26.5t-3.5 -51t-4 -55.5l-28 -334h-101zM258 768v504h-170v92h453v-92h-172
v-504h-111z" />
    <glyph glyph-name="Omega" unicode="&#x2126;" horiz-adv-x="1523" 
d="M125 0v135h285q-136 91 -212.5 251.5t-76.5 342.5q0 147 53 272.5t142 209.5t205 131t241 47t241 -47t205 -131t142 -209.5t53 -272.5q0 -182 -76.5 -342.5t-212.5 -251.5h287v-135h-467v131q301 211 301 598q0 139 -60.5 259.5t-170 193.5t-242.5 73t-242.5 -73
t-170 -193.5t-60.5 -259.5q0 -385 303 -598v-131h-467z" />
    <glyph glyph-name="uni2150" unicode="&#x2150;" horiz-adv-x="1452" 
d="M135 0l854 1364h125l-854 -1364h-125zM215 690v563l-147 -41l-31 101l209 51h96v-674h-127zM1077 -27l-110 45l258 549h-340v107h483v-72z" />
    <glyph glyph-name="uni2151" unicode="&#x2151;" horiz-adv-x="1427" 
d="M135 0l854 1364h125l-854 -1364h-125zM215 690v563l-147 -41l-31 101l209 51h96v-674h-127zM872 -18l-28 102q136 2 231 53.5t121 163.5q-65 -43 -164 -43q-105 0 -171 56.5t-66 150.5q0 99 74 160t190 61q74 0 129.5 -24t87 -66t46.5 -93.5t15 -111.5q0 -189 -120 -299
t-345 -110zM1063 352q88 0 139 45v9q0 86 -39.5 135t-103.5 49q-56 0 -90.5 -34.5t-34.5 -82.5q0 -58 35 -89.5t94 -31.5z" />
    <glyph glyph-name="uni2152" unicode="&#x2152;" horiz-adv-x="2177" 
d="M135 0l854 1364h125l-854 -1364h-125zM215 690v563l-147 -41l-31 101l209 51h96v-674h-127zM1022 0v563l-148 -41l-30 101l209 51h96v-674h-127zM1753 -12q-82 0 -147 30t-104.5 80t-60 111.5t-20.5 128.5t20 128t59 111t104.5 79.5t148.5 29.5q82 0 147.5 -29.5
t105 -79.5t60.5 -111t21 -128t-21 -128.5t-60.5 -111.5t-105 -80t-147.5 -30zM1753 88q86 0 136 67t50 183q0 114 -50 181t-136 67q-84 0 -135 -67.5t-51 -180.5q0 -115 51 -182.5t135 -67.5z" />
    <glyph glyph-name="onethird" unicode="&#x2153;" horiz-adv-x="1351" 
d="M135 0l854 1364h125l-854 -1364h-125zM215 690v563l-147 -41l-31 101l209 51h96v-674h-127zM920 -12q-40 0 -83.5 6.5t-58.5 13.5l27 101q47 -19 108 -19q91 0 144 29t53 82q0 58 -58.5 83t-168.5 27v88q90 2 147 31.5t57 79.5q0 35 -29.5 54.5t-82.5 19.5q-36 0 -78 -18
t-66 -38l-57 80q33 30 98 54t132 24q108 0 162.5 -41t54.5 -113q0 -63 -39.5 -103t-104.5 -56v-2q72 -6 120 -51t48 -117q0 -105 -85.5 -160t-239.5 -55z" />
    <glyph glyph-name="twothirds" unicode="&#x2154;" horiz-adv-x="1513" 
d="M297 0l854 1364h125l-854 -1364h-125zM70 690v70q56 45 77.5 63t73.5 63t76.5 73t56 68t45 75.5t13.5 68.5q0 52 -31.5 77.5t-83.5 25.5q-85 0 -162 -66l-69 80q107 88 251 88q117 0 174.5 -50.5t57.5 -139.5q0 -51 -23 -103.5t-67 -104t-89 -94t-108 -93.5q6 0 37 1
t47 1h240v-103h-516zM1081 -12q-40 0 -83 6.5t-58 13.5l27 101q47 -19 108 -19q91 0 144 29t53 82q0 58 -58.5 83t-169.5 27v88q90 2 147.5 31.5t57.5 79.5q0 35 -29.5 54.5t-82.5 19.5q-36 0 -78 -18t-66 -38l-57 80q33 30 97.5 54t131.5 24q108 0 162.5 -41t54.5 -113
q0 -63 -39 -103t-104 -56v-2q72 -6 120 -51t48 -117q0 -104 -86 -159.5t-240 -55.5z" />
    <glyph glyph-name="uni2155" unicode="&#x2155;" horiz-adv-x="1337" 
d="M135 0l854 1364h125l-854 -1364h-125zM215 690v563l-147 -41l-31 101l209 51h96v-674h-127zM905 -12q-62 0 -106 14l20 102q37 -14 88 -14q93 0 156 30.5t63 94.5q0 121 -219 121q-34 0 -76 -6l25 344h381v-103h-266l-13 -139q139 -3 219 -55.5t80 -153.5
q0 -115 -94 -175t-258 -60z" />
    <glyph glyph-name="uni2156" unicode="&#x2156;" horiz-adv-x="1499" 
d="M297 0l854 1364h125l-854 -1364h-125zM70 690v70q56 45 77.5 63t73.5 63t76.5 73t56 68t45 75.5t13.5 68.5q0 52 -31.5 77.5t-83.5 25.5q-85 0 -162 -66l-69 80q107 88 251 88q117 0 174.5 -50.5t57.5 -139.5q0 -51 -23 -103.5t-67 -104t-89 -94t-108 -93.5q6 0 37 1
t47 1h240v-103h-516zM1067 -12q-62 0 -106 14l20 102q37 -14 88 -14q93 0 156 30.5t63 94.5q0 121 -219 121q-34 0 -76 -6l25 344h381v-103h-266l-13 -139q139 -3 219 -55.5t80 -153.5q0 -115 -94 -175t-258 -60z" />
    <glyph glyph-name="uni2157" unicode="&#x2157;" horiz-adv-x="1439" 
d="M238 0l854 1364h125l-855 -1364h-124zM195 678q-40 0 -83.5 6.5t-58.5 13.5l27 101q48 -19 108 -19q91 0 144 29t53 82q0 58 -58.5 83t-168.5 27v89q90 2 147 31t57 79q0 35 -29.5 54.5t-82.5 19.5q-37 0 -79 -17.5t-65 -37.5l-57 79q33 30 98 54t132 24
q108 0 162.5 -40.5t54.5 -112.5q0 -63 -39.5 -103.5t-104.5 -56.5v-2q72 -6 120 -51t48 -117q0 -105 -85.5 -160t-239.5 -55zM1008 -12q-63 0 -107 14l21 102q37 -14 88 -14q93 0 156 30.5t63 94.5q0 121 -219 121q-34 0 -76 -6l24 344h381v-103h-266l-12 -139
q139 -3 219 -55.5t80 -153.5q0 -115 -94 -175t-258 -60z" />
    <glyph glyph-name="uni2158" unicode="&#x2158;" horiz-adv-x="1466" 
d="M264 0l854 1364h125l-854 -1364h-125zM387 690v141h-358v87l364 446h119v-432h113v-101h-113v-141h-125zM172 928q36 4 92 4h125v264h-2zM1034 -12q-62 0 -106 14l20 102q37 -14 88 -14q93 0 156 30.5t63 94.5q0 121 -219 121q-33 0 -75 -6l24 344h381v-103h-266
l-13 -139q139 -3 219 -55.5t80 -153.5q0 -115 -94 -175t-258 -60z" />
    <glyph glyph-name="uni2159" unicode="&#x2159;" horiz-adv-x="1419" 
d="M135 0l854 1364h125l-854 -1364h-125zM215 690v563l-147 -41l-31 101l209 51h96v-674h-127zM1087 -12q-73 0 -127.5 24t-85 66.5t-45 93.5t-14.5 111q0 184 124 293.5t345 109.5l31 -102q-69 -2 -123 -11.5t-105.5 -31.5t-85.5 -64.5t-47 -103.5q61 45 162 45
q105 0 169.5 -56.5t64.5 -152.5q0 -100 -72 -160.5t-191 -60.5zM1092 86q56 0 89 31.5t33 83.5q0 58 -35 89.5t-94 31.5q-87 0 -139 -46v-8q0 -90 40 -136t106 -46z" />
    <glyph glyph-name="uni215A" unicode="&#x215a;" horiz-adv-x="1507" 
d="M223 0l854 1364h125l-854 -1364h-125zM180 678q-62 0 -106 14l20 103q40 -15 88 -15q93 0 156 30.5t63 94.5q0 121 -219 121q-34 0 -76 -6l25 344h381v-102h-266l-13 -140q139 -3 219 -55.5t80 -153.5q0 -115 -94 -175t-258 -60zM1176 -12q-73 0 -127.5 24.5t-85.5 66.5
t-45.5 93t-14.5 111q0 184 124 293.5t345 109.5l31 -102q-69 -2 -123 -11.5t-105.5 -31.5t-85.5 -64.5t-47 -103.5q61 45 162 45q105 0 169.5 -56.5t64.5 -152.5q0 -100 -72 -160.5t-190 -60.5zM1180 86q56 0 89.5 31.5t33.5 83.5q0 58 -35 89.5t-94 31.5q-88 0 -140 -46v-8
q0 -90 40 -136t106 -46z" />
    <glyph glyph-name="oneeighth" unicode="&#x215b;" horiz-adv-x="1406" 
d="M135 0l854 1364h125l-854 -1364h-125zM215 690v563l-147 -41l-31 101l209 51h96v-674h-127zM1065 -12q-125 0 -193.5 49.5t-68.5 130.5q0 107 149 178q-63 33 -96 70.5t-33 93.5q0 77 71 126.5t175 49.5q110 0 176 -44.5t66 -123.5q0 -52 -38 -90t-104 -70
q160 -68 160 -186q0 -84 -73 -134t-191 -50zM1063 84q60 0 94.5 24t34.5 62q0 27 -23.5 52t-48.5 39t-69 36q-27 -16 -40.5 -25t-35 -26.5t-31.5 -36t-10 -39.5q0 -40 35 -63t94 -23zM1071 408q74 44 94 67q17 21 17 41q0 34 -30 55t-81 21t-84 -22t-33 -54q0 -23 22 -45.5
t38.5 -32t56.5 -30.5z" />
    <glyph glyph-name="threeeighths" unicode="&#x215c;" horiz-adv-x="1509" 
d="M238 0l854 1364h125l-855 -1364h-124zM195 678q-40 0 -83.5 6.5t-58.5 13.5l27 101q48 -19 108 -19q91 0 144 29t53 82q0 58 -58.5 83t-168.5 27v89q90 2 147 31t57 79q0 35 -29.5 54.5t-82.5 19.5q-37 0 -79 -17.5t-65 -37.5l-57 79q33 30 98 54t132 24
q108 0 162.5 -40.5t54.5 -112.5q0 -63 -39.5 -103.5t-104.5 -56.5v-2q72 -6 120 -51t48 -117q0 -105 -85.5 -160t-239.5 -55zM1167 -12q-125 0 -193.5 49.5t-68.5 130.5q0 107 150 178q-63 33 -96 70.5t-33 93.5q0 77 70.5 126.5t174.5 49.5q110 0 176 -44.5t66 -123.5
q0 -52 -37.5 -90t-103.5 -70q160 -68 160 -186q0 -84 -73.5 -134t-191.5 -50zM1165 84q60 0 94.5 24t34.5 62q0 27 -23.5 52t-48.5 39t-69 36q-27 -16 -40.5 -25t-35 -26.5t-31.5 -36t-10 -39.5q0 -40 35 -63t94 -23zM1174 408q21 13 26 16t23.5 14.5t25 18t17 17.5t14.5 21
t4 21q0 34 -30 55t-80 21q-51 0 -84 -22t-33 -54q0 -23 22 -45.5t38.5 -32t56.5 -30.5z" />
    <glyph glyph-name="fiveeighths" unicode="&#x215d;" horiz-adv-x="1495" 
d="M223 0l854 1364h125l-854 -1364h-125zM180 678q-62 0 -106 14l20 103q40 -15 88 -15q93 0 156 30.5t63 94.5q0 121 -219 121q-34 0 -76 -6l25 344h381v-102h-266l-13 -140q139 -3 219 -55.5t80 -153.5q0 -115 -94 -175t-258 -60zM1153 -12q-125 0 -193.5 49.5
t-68.5 130.5q0 107 149 178q-63 33 -96 70.5t-33 93.5q0 77 71 126.5t175 49.5q110 0 176 -44.5t66 -123.5q0 -52 -38 -90t-104 -70q160 -68 160 -186q0 -84 -73 -134t-191 -50zM1151 84q60 0 94.5 24t34.5 62q0 27 -23.5 52t-48.5 39t-69 36q-27 -16 -40.5 -25t-35 -26.5
t-31.5 -36t-10 -39.5q0 -40 35 -63t94 -23zM1159 408q74 44 94 67q17 21 17 41q0 34 -30 55t-81 21t-84 -22t-33 -54q0 -23 22 -45.5t38.5 -32t56.5 -30.5z" />
    <glyph glyph-name="seveneighths" unicode="&#x215e;" horiz-adv-x="1384" 
d="M113 0l854 1364h125l-854 -1364h-125zM229 664l-110 45l258 548h-340v107h483v-72zM1042 -12q-125 0 -193.5 49.5t-68.5 130.5q0 107 150 178q-63 33 -96 70.5t-33 93.5q0 77 71 126.5t175 49.5q110 0 175.5 -44.5t65.5 -123.5q0 -52 -37.5 -90t-103.5 -70
q160 -68 160 -186q0 -84 -73.5 -134t-191.5 -50zM1040 84q60 0 94.5 24t34.5 62q0 27 -23.5 52t-48.5 39t-69 36q-27 -16 -40.5 -25t-35 -26.5t-31.5 -36t-10 -39.5q0 -40 35 -63t94 -23zM1049 408q21 13 26 16t23.5 14.5t25 18t17 17.5t14.5 21t4 21q0 34 -30 55t-80 21
q-51 0 -84 -22t-33 -54q0 -23 22 -45.5t38.5 -32t56.5 -30.5z" />
    <glyph glyph-name="uni215F" unicode="&#x215f;" horiz-adv-x="724" 
d="M135 0l854 1364h125l-854 -1364h-125zM215 690v563l-147 -41l-31 101l209 51h96v-674h-127z" />
    <glyph glyph-name="uni2189" unicode="&#x2189;" horiz-adv-x="1673" 
d="M457 0l854 1364h125l-854 -1364h-125zM422 678q-82 0 -147 30t-104.5 80t-60 111.5t-20.5 128.5t20 128t59 111t104.5 79.5t148.5 29.5q82 0 147.5 -29.5t105 -79.5t60.5 -111t21 -128t-21 -128.5t-60.5 -111.5t-105 -80t-147.5 -30zM422 778q86 0 136 67t50 183
q0 114 -50 181t-136 67q-84 0 -135 -67.5t-51 -180.5q0 -115 51 -182.5t135 -67.5zM1241 -12q-40 0 -83 6.5t-58 13.5l26 101q48 -19 109 -19q91 0 144 29t53 82q0 58 -58.5 83t-169.5 27v88q90 2 147.5 31.5t57.5 79.5q0 35 -30 54.5t-83 19.5q-36 0 -77.5 -18t-65.5 -38
l-57 80q33 30 97.5 54t131.5 24q108 0 162.5 -41t54.5 -113q0 -63 -39 -103t-104 -56v-2q72 -6 120 -51t48 -117q0 -104 -86 -159.5t-240 -55.5z" />
    <glyph glyph-name="partialdiff" unicode="&#x2202;" horiz-adv-x="1112" 
d="M500 -25q-173 0 -294.5 116.5t-121.5 287.5q0 130 55.5 239t158.5 174.5t234 65.5q101 0 214.5 -32t166.5 -74q-17 292 -170 426.5t-428 134.5l43 125h9q174 0 310 -54.5t222 -152t130 -228t44 -286.5q0 -162 -45 -301t-122.5 -235.5t-182.5 -151t-223 -54.5zM506 104
q107 0 198.5 76.5t145 195.5t63.5 253q-54 41 -166.5 71.5t-209.5 30.5q-134 0 -214.5 -96t-80.5 -248q0 -123 77 -203t187 -80z" />
    <glyph glyph-name="Delta" unicode="&#x2206;" horiz-adv-x="1243" 
d="M43 0v106l496 1258h155l510 -1258v-106h-1161zM209 135h815l-315 805q-63 160 -95 258h-4q-24 -78 -92 -258z" />
    <glyph glyph-name="product" unicode="&#x220f;" horiz-adv-x="1738" 
d="M360 -459v1768h-223v125h1430v-125h-224v-1768h-153v1768h-676v-1768h-154z" />
    <glyph glyph-name="summation" unicode="&#x2211;" horiz-adv-x="1247" 
d="M109 -301v115l569 882l-537 781v114h987v-135h-817l525 -754l-557 -868h880v-135h-1050z" />
    <glyph glyph-name="minus" unicode="&#x2212;" horiz-adv-x="1126" 
d="M176 483v129h756v-129h-756z" />
    <glyph glyph-name="uni2219" unicode="&#x2219;" horiz-adv-x="1175" 
d="M588 301q-106 0 -181 74t-75 180t75 181t181 75t181 -75t75 -181t-75 -180t-181 -74z" />
    <glyph glyph-name="radical" unicode="&#x221a;" horiz-adv-x="1169" 
d="M485 0l-383 983h156l297 -797h4l406 1289h153l-489 -1475h-144z" />
    <glyph glyph-name="infinity" unicode="&#x221e;" horiz-adv-x="1798" 
d="M424 223q-157 0 -253.5 88t-96.5 215q0 131 104 225.5t254 94.5q98 0 204.5 -53.5t264.5 -176.5q156 122 264.5 176t200.5 54q155 0 252.5 -88.5t97.5 -214.5q0 -131 -103 -225.5t-257 -94.5q-89 0 -198.5 52.5t-266.5 175.5q-174 -133 -272 -180.5t-195 -47.5zM436 344
q115 0 357 186q-137 106 -219 149.5t-146 43.5q-89 0 -153 -55.5t-64 -130.5q0 -84 65 -138.5t160 -54.5zM1364 344q87 0 152 56.5t65 131.5q0 83 -66 137t-161 54q-61 0 -144 -43.5t-211 -142.5q141 -107 223.5 -150t141.5 -43z" />
    <glyph glyph-name="integral" unicode="&#x222b;" horiz-adv-x="694" 
d="M57 -481q-56 0 -159 37l47 125q74 -27 131 -27q59 0 102 23.5t67 65.5t35 93.5t11 114.5v1177q0 81 24 150.5t70 123t119 84t166 30.5q68 0 157 -39l-55 -123q-54 26 -121 26q-74 0 -123.5 -42t-70.5 -106t-21 -145v-1181q0 -169 -97 -278t-282 -109z" />
    <glyph glyph-name="approxequal" unicode="&#x2248;" horiz-adv-x="1226" 
d="M203 283l-60 102q56 50 126.5 81.5t142.5 31.5q62 0 119 -18.5t93.5 -41t88 -41t104.5 -18.5q50 0 108 23.5t103 60.5l55 -107q-54 -53 -128.5 -81.5t-149.5 -28.5q-62 0 -119.5 18.5t-95.5 41t-89.5 41t-101.5 18.5q-104 0 -196 -82zM203 596l-60 102q51 48 122 80.5
t147 32.5q62 0 119 -18.5t93.5 -41t88 -41t104.5 -18.5q50 0 108 23.5t103 60.5l55 -106q-54 -53 -128.5 -82t-149.5 -29q-62 0 -119.5 18.5t-95.5 41t-89.5 41t-101.5 18.5q-101 0 -196 -82z" />
    <glyph glyph-name="notequal" unicode="&#x2260;" horiz-adv-x="1271" 
d="M389 -25l-102 56l155 258h-319v117h391l133 219h-524v116h596l164 269l104 -60l-133 -209h295v-116h-367l-133 -219h500v-117h-571z" />
    <glyph glyph-name="lessequal" unicode="&#x2264;" horiz-adv-x="1187" 
d="M1034 39l-887 420v104l887 420v-137l-729 -336l729 -336v-135zM147 -233v131h887v-131h-887z" />
    <glyph glyph-name="greaterequal" unicode="&#x2265;" horiz-adv-x="1187" 
d="M147 39v135l730 336l-730 336v137l887 -420v-104zM147 -233v131h887v-131h-887z" />
    <glyph glyph-name="dotmath" unicode="&#x22c5;" horiz-adv-x="1175" 
d="M588 430q-52 0 -88.5 36t-36.5 89q0 52 36 87.5t89 35.5t89 -35.5t36 -87.5q0 -53 -36.5 -89t-88.5 -36z" />
    <glyph glyph-name="lozenge" unicode="&#x25ca;" horiz-adv-x="1261" 
d="M594 -10l-524 672l516 714h82l524 -676l-512 -710h-86zM641 150l379 542l-397 514l-381 -540z" />
    <glyph glyph-name="uniFB00" unicode="&#xfb00;" horiz-adv-x="1200" 
d="M213 0v864h-172v119h172v127q0 169 101 272t278 103q160 0 266 -78q95 92 256 92q112 0 164 -26l-39 -130q-50 25 -129 25q-100 0 -152.5 -63.5t-52.5 -186.5v-135h250v-119h-250v-864h-149v864h-394v-864h-149zM362 983h394v145q0 94 26 162q-79 64 -194 64
q-226 0 -226 -285v-86z" />
    <glyph glyph-name="fi" unicode="&#xfb01;" horiz-adv-x="1099" 
d="M205 0v864h-164v119h164v139q0 170 101.5 273.5t283.5 103.5q78 0 144 -16.5t98.5 -33.5t72.5 -44l-76 -119q-117 82 -245 82q-111 0 -170.5 -66.5t-59.5 -193.5v-125h566v-983h-150v864h-416v-864h-149z" />
    <glyph glyph-name="fl" unicode="&#xfb02;" horiz-adv-x="1110" 
d="M205 0v864h-164v119h164v147q0 177 104 273t279 96q188 0 350 -49v-1450h-150v1341q-84 27 -208 27q-226 0 -226 -258v-127h232v-119h-232v-864h-149z" />
    <glyph glyph-name="uniFB03" unicode="&#xfb03;" horiz-adv-x="1636" 
d="M213 0v864h-172v119h172v127q0 169 101 272t278 103q160 0 272 -82q104 96 277 96q78 0 144 -16.5t98.5 -33.5t72.5 -44l-76 -119q-117 82 -245 82q-111 0 -170.5 -66.5t-59.5 -193.5v-125h551v-983h-149v864h-402v-864h-149v864h-394v-864h-149zM362 983h394v139
q0 90 30 164q-84 68 -198 68q-226 0 -226 -285v-86z" />
    <glyph glyph-name="uniFB04" unicode="&#xfb04;" horiz-adv-x="1660" 
d="M213 0v864h-172v119h172v127q0 169 101 272t278 103q159 0 268 -80q108 94 279 94q188 0 350 -49v-1450h-150v1341q-84 27 -209 27q-225 0 -225 -258v-127h252v-119h-252v-864h-149v864h-394v-864h-149zM362 983h394v147q0 85 26 158q-71 66 -194 66q-226 0 -226 -285
v-86z" />
    <glyph glyph-name="uniFEFF" unicode="&#xfeff;" horiz-adv-x="0" 
 />
    <glyph glyph-name="slash.alt001" horiz-adv-x="823" 
d="M-102 -231l841 1706h142l-840 -1706h-143z" />
    <glyph glyph-name="parenleft.numr" horiz-adv-x="436" 
d="M309 580q-89 78 -148 191.5t-59 256.5q0 138 60 252t147 184h121q-78 -69 -133 -178.5t-55 -253.5q0 -271 188 -452h-121z" />
    <glyph glyph-name="parenright.numr" horiz-adv-x="436" 
d="M6 580q191 175 191 440t-191 444h123q205 -173 205 -440q0 -146 -59.5 -259t-145.5 -185h-123z" />
    <glyph glyph-name="plus.numr" horiz-adv-x="704" 
d="M299 791v188h-221v98h221v183h109v-183h219v-98h-219v-188h-109z" />
    <glyph glyph-name="zero.numr" horiz-adv-x="845" 
d="M422 678q-82 0 -147 30t-104.5 80t-60 111.5t-20.5 128.5t20 128t59 111t104.5 79.5t148.5 29.5q82 0 147.5 -29.5t105 -79.5t60.5 -111t21 -128t-21 -128.5t-60.5 -111.5t-105 -80t-147.5 -30zM422 778q86 0 136 67t50 183q0 114 -50 181t-136 67q-84 0 -135 -67.5
t-51 -180.5q0 -115 51 -182.5t135 -67.5z" />
    <glyph glyph-name="one.numr" horiz-adv-x="524" 
d="M215 690v563l-147 -41l-31 101l209 51h96v-674h-127z" />
    <glyph glyph-name="two.numr" horiz-adv-x="686" 
d="M70 690v70q56 45 77.5 63t73.5 63t76.5 73t56 68t45 75.5t13.5 68.5q0 52 -31.5 77.5t-83.5 25.5q-85 0 -162 -66l-69 80q107 88 251 88q117 0 174.5 -50.5t57.5 -139.5q0 -51 -23 -103.5t-67 -104t-89 -94t-108 -93.5q6 0 37 1t47 1h240v-103h-516z" />
    <glyph glyph-name="three.numr" horiz-adv-x="626" 
d="M195 678q-40 0 -83.5 6.5t-58.5 13.5l27 101q48 -19 108 -19q91 0 144 29t53 82q0 58 -58.5 83t-168.5 27v89q90 2 147 31t57 79q0 35 -29.5 54.5t-82.5 19.5q-37 0 -79 -17.5t-65 -37.5l-57 79q33 30 98 54t132 24q108 0 162.5 -40.5t54.5 -112.5q0 -63 -39.5 -103.5
t-104.5 -56.5v-2q72 -6 120 -51t48 -117q0 -105 -85.5 -160t-239.5 -55z" />
    <glyph glyph-name="four.numr" horiz-adv-x="653" 
d="M387 690v141h-358v87l364 446h119v-432h113v-101h-113v-141h-125zM172 928q36 4 92 4h125v264h-2z" />
    <glyph glyph-name="five.numr" horiz-adv-x="612" 
d="M180 678q-62 0 -106 14l20 103q40 -15 88 -15q93 0 156 30.5t63 94.5q0 121 -219 121q-34 0 -76 -6l25 344h381v-102h-266l-13 -140q139 -3 219 -55.5t80 -153.5q0 -115 -94 -175t-258 -60z" />
    <glyph glyph-name="six.numr" horiz-adv-x="694" 
d="M362 678q-73 0 -127.5 24t-85 66.5t-45 93.5t-14.5 111q0 184 124 293.5t345 109.5l31 -102q-69 -2 -123 -11.5t-105.5 -31.5t-85.5 -64.5t-47 -103.5q61 45 162 45q105 0 169.5 -56.5t64.5 -152.5q0 -100 -72 -160.5t-191 -60.5zM367 776q56 0 89 31.5t33 83.5
q0 58 -35 89.5t-94 31.5q-88 0 -139 -45v-9q0 -90 40 -136t106 -46z" />
    <glyph glyph-name="seven.numr" horiz-adv-x="604" 
d="M229 664l-110 45l258 548h-340v107h483v-72z" />
    <glyph glyph-name="eight.numr" horiz-adv-x="681" 
d="M340 678q-125 0 -193.5 49.5t-68.5 130.5q0 107 149 178q-63 33 -96 70.5t-33 93.5q0 77 71 126.5t175 49.5q110 0 176 -44.5t66 -123.5q0 -52 -37.5 -89.5t-104.5 -69.5q160 -68 160 -187q0 -84 -73 -134t-191 -50zM338 774q60 0 94.5 24t34.5 62q0 27 -23.5 52
t-48.5 39t-69 36q-27 -16 -40.5 -25t-35 -26.5t-31.5 -36t-10 -39.5q0 -40 35 -63t94 -23zM346 1098q74 44 94 67q17 21 17 41q0 34 -30 55t-81 21t-84 -22t-33 -54q0 -23 22 -45.5t38.5 -32t56.5 -30.5z" />
    <glyph glyph-name="nine.numr" horiz-adv-x="702" 
d="M147 672l-28 102q136 2 231 53.5t121 163.5q-65 -43 -164 -43q-105 0 -171 56.5t-66 150.5q0 99 74 160t190 61q74 0 129.5 -24t87 -66t46.5 -93.5t15 -111.5q0 -189 -120 -299t-345 -110zM338 1042q88 0 139 45v9q0 86 -39.5 135t-103.5 49q-56 0 -90.5 -34.5
t-34.5 -82.5q0 -58 35 -89.5t94 -31.5z" />
    <glyph glyph-name="minus.numr" horiz-adv-x="659" 
d="M119 979v98h422v-98h-422z" />
    <glyph glyph-name="parenleft.dnom" horiz-adv-x="436" 
d="M309 -111q-89 78 -148 192t-59 257q0 138 60 252t147 184h121q-78 -69 -133 -178.5t-55 -253.5q0 -272 188 -453h-121z" />
    <glyph glyph-name="parenright.dnom" horiz-adv-x="436" 
d="M6 -111q191 175 191 441q0 265 -191 444h123q205 -173 205 -440q0 -146 -59.5 -259.5t-145.5 -185.5h-123z" />
    <glyph glyph-name="plus.dnom" horiz-adv-x="704" 
d="M299 100v189h-221v98h221v182h109v-182h219v-98h-219v-189h-109z" />
    <glyph glyph-name="zero.dnom" horiz-adv-x="845" 
d="M422 -12q-82 0 -147 30t-104.5 80t-60 111.5t-20.5 128.5t20 128t59 111t104.5 79.5t148.5 29.5q82 0 147.5 -29.5t105 -79.5t60.5 -111t21 -128t-21 -128.5t-60.5 -111.5t-105 -80t-147.5 -30zM422 88q86 0 136 67t50 183q0 114 -50 181t-136 67q-84 0 -135 -67.5
t-51 -180.5q0 -115 51 -182.5t135 -67.5z" />
    <glyph glyph-name="one.dnom" horiz-adv-x="524" 
d="M215 0v563l-147 -41l-31 101l209 51h96v-674h-127z" />
    <glyph glyph-name="two.dnom" horiz-adv-x="686" 
d="M70 0v70q56 45 77.5 63t73.5 63t76.5 73t56 68t45 75.5t13.5 68.5q0 52 -31.5 77.5t-83.5 25.5q-85 0 -162 -66l-69 80q107 88 251 88q117 0 174.5 -50.5t57.5 -139.5q0 -51 -23 -104t-66.5 -104.5t-89 -94t-108.5 -93.5q6 0 37 1t47 1h240v-102h-516z" />
    <glyph glyph-name="three.dnom" horiz-adv-x="626" 
d="M195 -12q-40 0 -83.5 6.5t-58.5 13.5l27 101q48 -19 108 -19q91 0 144 29t53 82q0 58 -58.5 83t-168.5 27v88q90 2 147 31.5t57 79.5q0 35 -29.5 54.5t-82.5 19.5q-36 0 -78 -18t-66 -38l-57 80q33 30 98 54t132 24q108 0 162.5 -41t54.5 -113q0 -63 -39.5 -103
t-104.5 -56v-2q72 -6 120 -51t48 -117q0 -105 -85.5 -160t-239.5 -55z" />
    <glyph glyph-name="four.dnom" horiz-adv-x="653" 
d="M387 0v141h-358v86l364 447h119v-432h113v-101h-113v-141h-125zM172 238q36 4 92 4h125v264h-2z" />
    <glyph glyph-name="five.dnom" horiz-adv-x="612" 
d="M180 -12q-62 0 -106 14l20 102q37 -14 88 -14q93 0 156 30.5t63 94.5q0 121 -219 121q-34 0 -76 -6l25 344h381v-103h-266l-13 -139q139 -3 219 -55.5t80 -153.5q0 -115 -94 -175t-258 -60z" />
    <glyph glyph-name="six.dnom" horiz-adv-x="694" 
d="M362 -12q-73 0 -127.5 24t-85 66.5t-45 93.5t-14.5 111q0 184 124 293.5t345 109.5l31 -102q-69 -2 -123 -11.5t-105.5 -31.5t-85.5 -64.5t-47 -103.5q61 45 162 45q105 0 169.5 -56.5t64.5 -152.5q0 -100 -72 -160.5t-191 -60.5zM367 86q56 0 89 31.5t33 83.5
q0 58 -35 89.5t-94 31.5q-87 0 -139 -46v-8q0 -90 40 -136t106 -46z" />
    <glyph glyph-name="seven.dnom" horiz-adv-x="604" 
d="M229 -27l-110 45l258 549h-340v107h483v-72z" />
    <glyph glyph-name="eight.dnom" horiz-adv-x="681" 
d="M340 -12q-125 0 -193.5 49.5t-68.5 130.5q0 107 149 178q-63 33 -96 70.5t-33 93.5q0 77 71 126.5t175 49.5q110 0 176 -44.5t66 -123.5q0 -52 -38 -90t-104 -70q160 -68 160 -186q0 -84 -73 -134t-191 -50zM338 84q60 0 94.5 24t34.5 62q0 27 -23.5 52t-48.5 39t-69 36
q-27 -16 -40.5 -25t-35 -26.5t-31.5 -36t-10 -39.5q0 -40 35 -63t94 -23zM346 408q74 44 94 67q17 21 17 41q0 34 -30 55t-81 21t-84 -22t-33 -54q0 -23 22 -45.5t38.5 -32t56.5 -30.5z" />
    <glyph glyph-name="nine.dnom" horiz-adv-x="702" 
d="M147 -18l-28 102q136 2 231 53.5t121 163.5q-65 -43 -164 -43q-105 0 -171 56.5t-66 150.5q0 99 74 160t190 61q74 0 129.5 -24t87 -66t46.5 -93.5t15 -111.5q0 -189 -120 -299t-345 -110zM338 352q88 0 139 45v9q0 86 -39.5 135t-103.5 49q-56 0 -90.5 -34.5
t-34.5 -82.5q0 -58 35 -89.5t94 -31.5z" />
    <glyph glyph-name="minus.dnom" horiz-adv-x="659" 
d="M119 289v98h422v-98h-422z" />
    <glyph glyph-name="space.frac" horiz-adv-x="92" 
 />
    <glyph glyph-name="numbersign.tf" horiz-adv-x="1159" 
d="M240 0l67 446h-264l18 115h263l43 277h-267l19 114h264l63 412h115l-61 -412h245l64 412h115l-62 -412h252l-18 -114h-252l-41 -277h254l-19 -115h-254l-67 -446h-115l68 446h-248l-68 -446h-114zM440 561h246l43 277h-248z" />
    <glyph glyph-name="dollar.tf" horiz-adv-x="1021" 
d="M580 -242h-119v217q-133 4 -227.5 47.5t-143.5 92.5l82 114q116 -116 295 -120v534q-3 2 -9 5t-9 5q-60 29 -98 51t-84.5 57.5t-72.5 72.5t-44.5 90t-18.5 116q0 143 93.5 232.5t236.5 109.5v224h119v-220q181 -11 307 -106l-78 -119q-105 81 -236 92v-485
q44 -21 73.5 -36.5t69.5 -40.5t67 -48t56 -56t46 -67.5t28 -80.5t11 -97q0 -139 -94 -236t-250 -122v-226zM764 340q0 85 -50 143t-141 107v-471q87 22 139 82.5t52 138.5zM287 1049q0 -84 45.5 -135t134.5 -95v430q-81 -15 -130.5 -69t-49.5 -131z" />
    <glyph glyph-name="percent.tf" horiz-adv-x="1691" 
d="M420 700q-73 0 -133.5 20.5t-100.5 54.5t-67.5 79t-40 92.5t-12.5 95.5q0 60 20.5 118.5t61 109.5t110 82.5t158.5 31.5q90 0 161 -31.5t111.5 -82t61 -108.5t20.5 -118q0 -62 -20.5 -121t-61 -110t-110 -82t-158.5 -31zM420 811q98 0 158.5 65.5t60.5 165.5
q0 101 -60.5 166.5t-160.5 65.5t-160.5 -65t-60.5 -165q0 -102 61 -167.5t162 -65.5zM1276 -14q-73 0 -133.5 20.5t-100.5 54.5t-67.5 79t-40 92.5t-12.5 95.5q0 60 20.5 118.5t61 109.5t110 82.5t158.5 31.5q90 0 161 -31.5t111.5 -82t61 -108.5t20.5 -118
q0 -62 -20.5 -121t-61 -110t-110 -82t-158.5 -31zM1276 96q98 0 158.5 66t60.5 166q0 101 -60.5 166t-160.5 65t-160.5 -64.5t-60.5 -164.5q0 -102 61 -168t162 -66zM338 0l874 1364h142l-875 -1364h-141z" />
    <glyph glyph-name="plus.tf" horiz-adv-x="1187" 
d="M528 41v440h-436v125h436v418h142v-418h426v-125h-426v-440h-142z" />
    <glyph glyph-name="zero.tf" horiz-adv-x="1116" 
d="M557 -25q-81 0 -149.5 29t-117.5 80t-86 118t-58.5 147.5t-32.5 163t-11 169.5q0 107 14 204.5t48 190.5t84.5 161t129.5 109.5t177 41.5q97 0 175.5 -41.5t130.5 -110.5t87 -161.5t50.5 -190.5t15.5 -203q0 -104 -15.5 -202.5t-50.5 -191t-86.5 -161.5t-130 -110.5
t-174.5 -41.5zM555 104q76 0 134 47t92.5 128.5t51.5 183t17 219.5t-17 219.5t-51.5 183t-92 128.5t-132.5 47q-76 0 -133.5 -47t-91.5 -128.5t-51 -183t-17 -219.5t17 -219.5t50.5 -183t91 -128.5t132.5 -47z" />
    <glyph glyph-name="one.tf" horiz-adv-x="1116" 
d="M178 0v135h340v1088l-332 -111l-32 127l391 125h127v-1229h336v-135h-830z" />
    <glyph glyph-name="two.tf" horiz-adv-x="1116" 
d="M139 0v88l41 41q235 233 346 370q250 305 250 509q0 122 -66.5 184.5t-170.5 62.5q-171 0 -306 -135l-79 99q166 170 391 170q176 0 287.5 -97t111.5 -262q0 -65 -20.5 -136.5t-49.5 -132.5t-82.5 -137.5t-95 -129t-113 -130.5t-111.5 -118.5t-114 -114.5q54 4 156 4h459
v-135h-834z" />
    <glyph glyph-name="three.tf" horiz-adv-x="1116" 
d="M412 -25q-157 0 -258 33l26 129q32 -10 99.5 -19t136.5 -9q160 0 262 78.5t102 209.5q0 77 -35.5 133.5t-100.5 88.5t-145 46.5t-180 14.5v111q107 0 201 31.5t156.5 97.5t62.5 153q0 88 -65.5 133t-175.5 45q-164 0 -293 -112l-72 100q64 60 162 105t213 45
q183 0 288 -83.5t105 -220.5q0 -121 -88.5 -208.5t-216.5 -122.5v-2q142 -16 245 -113t103 -233q0 -102 -45 -185.5t-120 -136t-169.5 -81t-197.5 -28.5z" />
    <glyph glyph-name="four.tf" horiz-adv-x="1116" 
d="M700 0v289h-641v125l633 950h158v-938h178v-137h-178v-289h-150zM242 422l139 4h319v721h-2z" />
    <glyph glyph-name="five.tf" horiz-adv-x="1116" 
d="M358 -25q-118 0 -217 23l27 131q82 -20 194 -20t204.5 34.5t152 109.5t59.5 179q0 297 -426 297q-99 0 -153 -6l39 641h665v-135h-524l-23 -367q130 0 236 -25t185 -75.5t122 -131.5t43 -188q0 -220 -162.5 -343.5t-421.5 -123.5z" />
    <glyph glyph-name="six.tf" horiz-adv-x="1116" 
d="M569 -25q-112 0 -200.5 51.5t-140.5 136.5t-78.5 184.5t-26.5 205.5q0 254 89 441t265 291t422 104l29 -121q-281 0 -441 -135.5t-196 -423.5q53 56 129.5 87t159.5 31q183 0 297 -116t114 -299q0 -186 -116.5 -311.5t-305.5 -125.5zM582 104q120 0 184.5 89t64.5 208
q0 146 -68.5 222.5t-197.5 76.5q-89 0 -156 -28.5t-128 -87.5v-31q0 -209 78.5 -329t222.5 -120z" />
    <glyph glyph-name="seven.tf" horiz-adv-x="1116" 
d="M391 -49l-143 49l543 1229h-676v135h841v-111z" />
    <glyph glyph-name="eight.tf" horiz-adv-x="1116" 
d="M553 -25q-103 0 -185.5 29.5t-133 79.5t-77 113t-26.5 133q0 54 20 106.5t50.5 92.5t72.5 78t78.5 63t77.5 47q-46 28 -75.5 48.5t-68 54.5t-61 66.5t-39 78t-16.5 96.5q0 142 116.5 235t278.5 93q172 0 278.5 -88t106.5 -232q0 -51 -19.5 -98t-45 -79t-69.5 -66.5
t-73.5 -52.5t-76.5 -44q317 -167 317 -389q0 -160 -120.5 -262.5t-309.5 -102.5zM557 109q117 0 189.5 65.5t72.5 167.5q0 44 -20 85.5t-46.5 71.5t-71 63t-74 50.5t-75.5 42.5q-101 -69 -140 -108q-99 -96 -99 -209q0 -104 70.5 -166.5t193.5 -62.5zM561 793q43 26 65 40
t60 43t57.5 53t35.5 59t16 71q0 86 -62.5 142t-165.5 56q-104 0 -171.5 -55t-67.5 -141q0 -33 9.5 -62t30.5 -55.5t38.5 -45t51.5 -41.5t50.5 -33t52.5 -31z" />
    <glyph glyph-name="nine.tf" horiz-adv-x="1116" 
d="M227 -37l-28 121q267 0 427.5 142t196.5 429q-53 -56 -129 -87t-159 -31q-185 0 -298.5 116t-113.5 299q0 186 116 311.5t306 125.5q91 0 167 -33t126.5 -88.5t85.5 -130.5t51 -157t16 -169q0 -191 -47.5 -345.5t-140.5 -267t-239.5 -174t-336.5 -61.5zM549 664
q93 0 158.5 28t126.5 88v31q0 210 -76 329.5t-221 119.5q-64 0 -114.5 -26t-80 -69t-44.5 -94.5t-15 -107.5q0 -147 67 -223t199 -76z" />
    <glyph glyph-name="less.tf" horiz-adv-x="1187" 
d="M766 55l-512 449l512 454l84 -86l-410 -362l410 -360z" />
    <glyph glyph-name="equal.tf" horiz-adv-x="1187" 
d="M195 313v129h796v-129h-796zM195 647v129h796v-129h-796z" />
    <glyph glyph-name="greater.tf" horiz-adv-x="1187" 
d="M420 55l-84 86l409 363l-409 360l84 94l512 -448z" />
    <glyph glyph-name="logicalnot.tf" horiz-adv-x="1187" 
d="M965 68v417h-881v131h1020v-548h-139z" />
    <glyph glyph-name="plusminus.tf" horiz-adv-x="1187" 
d="M528 41v440h-436v125h436v418h142v-418h426v-125h-426v-440h-142zM154 -236v132h890v-132h-890z" />
    <glyph glyph-name="multiply.tf" horiz-adv-x="1187" 
d="M862 172l-280 279l-265 -265l-92 93l264 264l-264 266l99 98l266 -264l264 264l92 -92l-264 -264l281 -281z" />
    <glyph glyph-name="divide.tf" horiz-adv-x="1187" 
d="M590 92q-47 0 -81 32.5t-34 78.5t34 78t81 32q46 0 79 -32t33 -78t-33 -78.5t-79 -32.5zM590 782q-47 0 -81 33.5t-34 79.5q0 45 34 78t81 33q46 0 79 -33t33 -78q0 -46 -33 -79.5t-79 -33.5zM82 487v123h1024v-123h-1024z" />
    <glyph glyph-name="uni2007.tf" horiz-adv-x="1116" 
 />
    <glyph glyph-name="perthousand.tf" horiz-adv-x="2512" 
d="M420 700q-73 0 -133.5 20.5t-100.5 54.5t-67.5 79t-40 92.5t-12.5 95.5q0 60 20.5 118.5t61 109.5t110 82.5t158.5 31.5q90 0 161 -31.5t111.5 -82t61 -108.5t20.5 -118q0 -62 -20.5 -121t-61 -110t-110 -82t-158.5 -31zM420 811q98 0 158.5 65.5t60.5 165.5
q0 101 -60.5 166.5t-160.5 65.5t-160.5 -65t-60.5 -165q0 -102 61 -167.5t162 -65.5zM1276 -14q-73 0 -133.5 20.5t-100.5 54.5t-67.5 79t-40 92.5t-12.5 95.5q0 60 20.5 118.5t61 109.5t110 82.5t158.5 31.5q90 0 161 -31.5t111.5 -82t61 -108.5t20.5 -118
q0 -62 -20.5 -121t-61 -110t-110 -82t-158.5 -31zM1276 96q98 0 158.5 66t60.5 166q0 101 -60.5 166t-160.5 65t-160.5 -64.5t-60.5 -164.5q0 -102 61 -168t162 -66zM2097 -14q-73 0 -133.5 20.5t-100.5 54.5t-67.5 79t-40 92.5t-12.5 95.5q0 60 20.5 118.5t61 109.5
t110 82.5t158.5 31.5q90 0 161 -31.5t111.5 -82t61 -108.5t20.5 -118q0 -62 -20.5 -121t-61 -110t-110 -82t-158.5 -31zM2097 96q98 0 158.5 66t60.5 166q0 101 -60.5 166t-160.5 65t-160.5 -64.5t-60.5 -164.5q0 -102 61 -168t162 -66zM338 0l874 1364h142l-875 -1364h-141
z" />
    <glyph glyph-name="minus.tf" horiz-adv-x="1187" 
d="M215 483v129h756v-129h-756z" />
    <glyph glyph-name="uni2219.tf" horiz-adv-x="1187" 
d="M594 301q-106 0 -181 74t-75 180t75 181t181 75t181 -75t75 -181t-75 -180t-181 -74z" />
    <glyph glyph-name="approxequal.tf" horiz-adv-x="1187" 
d="M182 283l-59 102q126 113 268 113q62 0 119 -18.5t93.5 -41t88.5 -41t105 -18.5q50 0 108 23.5t103 60.5l55 -107q-54 -53 -129 -81.5t-150 -28.5q-62 0 -119.5 18.5t-95 41t-89 41t-101.5 18.5q-105 0 -197 -82zM182 596l-59 102q51 48 121.5 80.5t146.5 32.5
q62 0 119 -18.5t93.5 -41t88.5 -41t105 -18.5q50 0 108 23.5t103 60.5l55 -106q-54 -53 -129 -82t-150 -29q-62 0 -119.5 18.5t-95 41t-89 41t-101.5 18.5q-102 0 -197 -82z" />
    <glyph glyph-name="notequal.tf" horiz-adv-x="1187" 
d="M346 -25l-102 56l155 258h-319v117h391l133 219h-524v116h596l164 269l104 -60l-133 -209h295v-116h-367l-133 -219h500v-117h-571z" />
    <glyph glyph-name="lessequal.tf" horiz-adv-x="1187" 
d="M1036 39l-886 420v104l886 420v-137l-729 -336l729 -336v-135zM150 -233v131h886v-131h-886z" />
    <glyph glyph-name="greaterequal.tf" horiz-adv-x="1187" 
d="M150 39v135l729 336l-729 336v137l886 -420v-104zM150 -233v131h886v-131h-886z" />
    <glyph glyph-name="dotmath.tf" horiz-adv-x="1187" 
d="M594 430q-52 0 -88.5 36t-36.5 89q0 52 36 87.5t89 35.5t89 -35.5t36 -87.5q0 -53 -36.5 -89t-88.5 -36z" />
    <glyph glyph-name="numbersign.lf" horiz-adv-x="1159" 
d="M240 0l67 446h-264l18 115h263l43 277h-267l19 114h264l63 412h115l-61 -412h245l64 412h115l-62 -412h252l-18 -114h-252l-41 -277h254l-19 -115h-254l-67 -446h-115l68 446h-248l-68 -446h-114zM440 561h246l43 277h-248z" />
    <glyph glyph-name="dollar.lf" horiz-adv-x="1021" 
d="M580 -242h-119v217q-133 4 -227.5 47.5t-143.5 92.5l82 114q116 -116 295 -120v534q-3 2 -9 5t-9 5q-60 29 -98 51t-84.5 57.5t-72.5 72.5t-44.5 90t-18.5 116q0 143 93.5 232.5t236.5 109.5v224h119v-220q181 -11 307 -106l-78 -119q-105 81 -236 92v-485
q44 -21 73.5 -36.5t69.5 -40.5t67 -48t56 -56t46 -67.5t28 -80.5t11 -97q0 -139 -94 -236t-250 -122v-226zM764 340q0 85 -50 143t-141 107v-471q87 22 139 82.5t52 138.5zM287 1049q0 -84 45.5 -135t134.5 -95v430q-81 -15 -130.5 -69t-49.5 -131z" />
    <glyph glyph-name="percent.lf" horiz-adv-x="1691" 
d="M420 700q-73 0 -133.5 20.5t-100.5 54.5t-67.5 79t-40 92.5t-12.5 95.5q0 60 20.5 118.5t61 109.5t110 82.5t158.5 31.5q90 0 161 -31.5t111.5 -82t61 -108.5t20.5 -118q0 -62 -20.5 -121t-61 -110t-110 -82t-158.5 -31zM420 811q98 0 158.5 65.5t60.5 165.5
q0 101 -60.5 166.5t-160.5 65.5t-160.5 -65t-60.5 -165q0 -102 61 -167.5t162 -65.5zM1276 -14q-73 0 -133.5 20.5t-100.5 54.5t-67.5 79t-40 92.5t-12.5 95.5q0 60 20.5 118.5t61 109.5t110 82.5t158.5 31.5q90 0 161 -31.5t111.5 -82t61 -108.5t20.5 -118
q0 -62 -20.5 -121t-61 -110t-110 -82t-158.5 -31zM1276 96q98 0 158.5 66t60.5 166q0 101 -60.5 166t-160.5 65t-160.5 -64.5t-60.5 -164.5q0 -102 61 -168t162 -66zM338 0l874 1364h142l-875 -1364h-141z" />
    <glyph glyph-name="plus.lf" horiz-adv-x="1175" 
d="M522 41v440h-436v125h436v418h142v-418h426v-125h-426v-440h-142z" />
    <glyph glyph-name="slash.lf" horiz-adv-x="823" 
d="M-14 -330l651 1805h143l-651 -1805h-143z" />
    <glyph glyph-name="zero.lf" horiz-adv-x="1224" 
d="M612 -25q-107 0 -195 41.5t-146.5 110.5t-98 161.5t-57 191t-17.5 202.5q0 106 16.5 204.5t55.5 191t96.5 161t146 109.5t197.5 41q107 0 195.5 -41.5t147 -110.5t98.5 -161.5t57.5 -191t17.5 -202.5q0 -132 -29.5 -253.5t-88.5 -225t-161 -166t-235 -62.5zM610 104
q118 0 199 78.5t117.5 206t36.5 293.5t-36.5 293.5t-117 206t-197.5 78.5q-118 0 -199 -78.5t-117 -206t-36 -293.5t36 -293.5t116.5 -206t197.5 -78.5z" />
    <glyph glyph-name="one.lf" horiz-adv-x="696" 
d="M342 0v1223l-268 -88l-33 127l328 102h127v-1364h-154z" />
    <glyph glyph-name="two.lf" horiz-adv-x="1015" 
d="M72 0v88l41 41q235 233 346 370q250 305 250 509q0 122 -66.5 184.5t-171.5 62.5q-170 0 -305 -135l-80 99q166 170 391 170q176 0 288 -97t112 -262q0 -51 -13 -106.5t-30.5 -103t-54 -108t-63 -101.5t-79.5 -105t-81.5 -97t-92 -99t-87.5 -90l-89 -89q54 4 155 4h463
v-135h-833z" />
    <glyph glyph-name="three.lf" horiz-adv-x="950" 
d="M289 -25q-144 0 -201 17l23 133q61 -16 174 -16q185 0 285 76.5t100 211.5q0 280 -439 283v111q162 2 280 79t118 203q0 85 -57.5 131.5t-163.5 46.5q-91 0 -154.5 -24.5t-126.5 -73.5l-74 100q155 136 365 136q180 0 276.5 -86t96.5 -222q0 -122 -85 -207t-212 -120v-2
q138 -12 239 -110.5t101 -235.5t-72 -235.5t-193.5 -147t-279.5 -48.5z" />
    <glyph glyph-name="four.lf" horiz-adv-x="1079" 
d="M686 0v309h-635v125l623 930h157v-918h197v-137h-197v-309h-145zM211 438q70 8 174 8h297v697h-4z" />
    <glyph glyph-name="five.lf" horiz-adv-x="907" 
d="M211 -25q-74 0 -129 11l20 133q70 -10 117 -10q191 0 313.5 83.5t122.5 239.5q0 66 -19.5 117t-54 85t-86 55.5t-111.5 30.5t-134 9q-73 0 -113 -4l39 639h604v-135h-463l-22 -367q249 -4 386.5 -115.5t137.5 -304.5q0 -221 -166 -344t-442 -123z" />
    <glyph glyph-name="six.lf" horiz-adv-x="1058" 
d="M553 -25q-93 0 -170.5 34t-129 91t-87.5 132.5t-52 156t-16 164.5q0 254 94.5 442.5t275 291t427.5 102.5l29 -121q-311 0 -480 -160q-144 -138 -178 -399q53 56 133 87t164 31q189 0 304.5 -116t115.5 -299q0 -122 -51 -220.5t-150 -157.5t-229 -59zM565 104
q65 0 116 26t81 69t45.5 94.5t15.5 107.5q0 147 -69.5 223t-204.5 76q-94 0 -163 -28.5t-130 -87.5v-31q0 -209 79.5 -329t229.5 -120z" />
    <glyph glyph-name="seven.lf" horiz-adv-x="913" 
d="M317 -49l-143 49l481 1229h-614v135h780v-111z" />
    <glyph glyph-name="eight.lf" horiz-adv-x="999" 
d="M496 -25q-103 0 -183.5 29.5t-129 80.5t-73 113.5t-24.5 133.5q0 216 287 385q-58 38 -92.5 64.5t-75.5 69.5t-60.5 94.5t-19.5 113.5q0 143 111 236.5t272 93.5q171 0 272 -88t101 -234q0 -51 -18.5 -97t-42 -77.5t-66.5 -66t-70.5 -52t-75.5 -45.5q305 -166 305 -387
q0 -161 -115 -264t-302 -103zM500 109q116 0 183 65.5t67 169.5q0 54 -25 102.5t-71.5 88t-85 65t-93.5 55.5q-34 -23 -50 -35t-48.5 -38t-50.5 -48.5t-38.5 -53t-30 -66t-9.5 -74.5q0 -106 65 -168.5t187 -62.5zM504 793q49 29 79.5 50.5t67.5 55.5t55.5 73.5t18.5 84.5
q0 88 -57 144t-158 56q-103 0 -165 -55.5t-62 -142.5q0 -39 14.5 -74.5t34 -60.5t53.5 -52t57 -42t62 -37z" />
    <glyph glyph-name="nine.lf" horiz-adv-x="1058" 
d="M180 -37l-28 121q320 0 489 192q123 141 152 379q-53 -56 -133 -87t-164 -31q-189 0 -304.5 116t-115.5 299q0 122 51 220.5t150 157.5t229 59q93 0 170.5 -33t129.5 -88.5t87.5 -130.5t51.5 -157t16 -169q0 -258 -86.5 -446.5t-264 -295t-430.5 -106.5zM510 664
q94 0 163 28.5t130 87.5v31q0 210 -78.5 329.5t-226.5 119.5q-66 0 -117.5 -26t-82 -69t-46.5 -95t-16 -107q0 -147 69.5 -223t204.5 -76z" />
    <glyph glyph-name="less.lf" horiz-adv-x="739" 
d="M567 55l-512 449l512 454l84 -86l-409 -362l409 -360z" />
    <glyph glyph-name="equal.lf" horiz-adv-x="940" 
d="M72 313v129h796v-129h-796zM72 647v129h796v-129h-796z" />
    <glyph glyph-name="greater.lf" horiz-adv-x="739" 
d="M172 55l-84 86l410 363l-410 360l84 94l512 -448z" />
    <glyph glyph-name="logicalnot.lf" horiz-adv-x="1204" 
d="M963 68v417h-881v131h1020v-548h-139z" />
    <glyph glyph-name="plusminus.lf" horiz-adv-x="1175" 
d="M522 41v440h-436v125h436v418h142v-418h426v-125h-426v-440h-142zM147 -236v132h891v-132h-891z" />
    <glyph glyph-name="multiply.lf" horiz-adv-x="1046" 
d="M793 172l-281 279l-264 -265l-92 93l264 264l-264 266l98 98l266 -264l264 264l93 -92l-265 -264l281 -281z" />
    <glyph glyph-name="divide.lf" horiz-adv-x="1171" 
d="M582 92q-47 0 -81 32.5t-34 78.5t34 78t81 32q46 0 79 -32t33 -78t-33 -78.5t-79 -32.5zM582 782q-47 0 -81 33.5t-34 79.5q0 45 34 78t81 33q46 0 79 -33t33 -78q0 -46 -33 -79.5t-79 -33.5zM74 487v123h1024v-123h-1024z" />
    <glyph glyph-name="perthousand.lf" horiz-adv-x="2512" 
d="M420 700q-73 0 -133.5 20.5t-100.5 54.5t-67.5 79t-40 92.5t-12.5 95.5q0 60 20.5 118.5t61 109.5t110 82.5t158.5 31.5q90 0 161 -31.5t111.5 -82t61 -108.5t20.5 -118q0 -62 -20.5 -121t-61 -110t-110 -82t-158.5 -31zM420 811q98 0 158.5 65.5t60.5 165.5
q0 101 -60.5 166.5t-160.5 65.5t-160.5 -65t-60.5 -165q0 -102 61 -167.5t162 -65.5zM1276 -14q-73 0 -133.5 20.5t-100.5 54.5t-67.5 79t-40 92.5t-12.5 95.5q0 60 20.5 118.5t61 109.5t110 82.5t158.5 31.5q90 0 161 -31.5t111.5 -82t61 -108.5t20.5 -118
q0 -62 -20.5 -121t-61 -110t-110 -82t-158.5 -31zM1276 96q98 0 158.5 66t60.5 166q0 101 -60.5 166t-160.5 65t-160.5 -64.5t-60.5 -164.5q0 -102 61 -168t162 -66zM2097 -14q-73 0 -133.5 20.5t-100.5 54.5t-67.5 79t-40 92.5t-12.5 95.5q0 60 20.5 118.5t61 109.5
t110 82.5t158.5 31.5q90 0 161 -31.5t111.5 -82t61 -108.5t20.5 -118q0 -62 -20.5 -121t-61 -110t-110 -82t-158.5 -31zM2097 96q98 0 158.5 66t60.5 166q0 101 -60.5 166t-160.5 65t-160.5 -64.5t-60.5 -164.5q0 -102 61 -168t162 -66zM338 0l874 1364h142l-875 -1364h-141
z" />
    <glyph glyph-name="minus.lf" horiz-adv-x="1126" 
d="M176 483v129h756v-129h-756z" />
    <glyph glyph-name="uni2219.lf" horiz-adv-x="1175" 
d="M588 301q-106 0 -181 74t-75 180t75 181t181 75t181 -75t75 -181t-75 -180t-181 -74z" />
    <glyph glyph-name="approxequal.lf" horiz-adv-x="1226" 
d="M203 283l-60 102q56 50 126.5 81.5t142.5 31.5q62 0 119 -18.5t93.5 -41t88 -41t104.5 -18.5q50 0 108 23.5t103 60.5l55 -107q-54 -53 -128.5 -81.5t-149.5 -28.5q-62 0 -119.5 18.5t-95.5 41t-89.5 41t-101.5 18.5q-104 0 -196 -82zM203 596l-60 102q51 48 122 80.5
t147 32.5q62 0 119 -18.5t93.5 -41t88 -41t104.5 -18.5q50 0 108 23.5t103 60.5l55 -106q-54 -53 -128.5 -82t-149.5 -29q-62 0 -119.5 18.5t-95.5 41t-89.5 41t-101.5 18.5q-101 0 -196 -82z" />
    <glyph glyph-name="notequal.lf" horiz-adv-x="1271" 
d="M389 -25l-102 56l155 258h-319v117h391l133 219h-524v116h596l164 269l104 -60l-133 -209h295v-116h-367l-133 -219h500v-117h-571z" />
    <glyph glyph-name="lessequal.lf" horiz-adv-x="1187" 
d="M1034 39l-887 420v104l887 420v-137l-729 -336l729 -336v-135zM147 -233v131h887v-131h-887z" />
    <glyph glyph-name="greaterequal.lf" horiz-adv-x="1187" 
d="M147 39v135l730 336l-730 336v137l887 -420v-104zM147 -233v131h887v-131h-887z" />
    <glyph glyph-name="dotmath.lf" horiz-adv-x="1175" 
d="M588 430q-52 0 -88.5 36t-36.5 89q0 52 36 87.5t89 35.5t89 -35.5t36 -87.5q0 -53 -36.5 -89t-88.5 -36z" />
    <glyph glyph-name="numbersign.tosf" horiz-adv-x="1011" 
d="M203 217l45 295h-201l21 121h198l35 227h-199l19 121h196l41 268h121l-41 -268h207l41 268h121l-41 -268h199l-21 -121h-196l-33 -227h196l-20 -121h-195l-43 -295h-121l43 295h-206l-45 -295h-121zM387 633h207l35 227h-209z" />
    <glyph glyph-name="dollar.tosf" horiz-adv-x="835" 
d="M365 -252v227q-166 13 -281 99l66 116q124 -88 264 -88q106 0 163.5 37t57.5 105q0 27 -12.5 50.5t-29.5 39.5t-50 34t-56.5 28t-68.5 28.5t-68 28.5q-54 24 -92 46.5t-75.5 56t-57 80t-19.5 103.5q0 102 70 173.5t189 88.5v213h145v-210q140 -16 242 -95l-72 -110
q-106 80 -244 80q-86 0 -135 -35t-49 -99q0 -27 13.5 -51t29.5 -40t51.5 -35t58 -29t70.5 -30q8 -3 12 -5q39 -16 62.5 -26.5t58.5 -28.5t57 -33t47.5 -38t40 -46t24 -54t9.5 -65q0 -116 -71.5 -190t-204.5 -94v-232h-145z" />
    <glyph glyph-name="percent.tosf" horiz-adv-x="1527" 
d="M358 436q-73 0 -130.5 25.5t-91 68t-50 91.5t-16.5 100t17.5 100.5t51 92t92 68.5t131.5 26q74 0 131 -25.5t90 -67.5t49.5 -90.5t16.5 -99.5t-17 -100.5t-51 -92.5t-92 -69.5t-131 -26.5zM362 535q81 0 121.5 51.5t40.5 134.5t-42.5 135.5t-123.5 52.5t-122 -50.5
t-41 -133.5t43 -136.5t124 -53.5zM1167 -25q-73 0 -130.5 25.5t-91 68t-50 91.5t-16.5 100t17.5 100.5t51 92t92 68.5t131.5 26q74 0 131 -25.5t90 -67.5t49.5 -90.5t16.5 -99.5t-17 -100.5t-51 -92.5t-92 -69.5t-131 -26.5zM1171 74q81 0 121.5 51.5t40.5 134.5t-42.5 136
t-123.5 53t-122 -51t-41 -134t43 -136.5t124 -53.5zM412 0l587 983h129l-587 -983h-129z" />
    <glyph glyph-name="plus.tosf" horiz-adv-x="1187" 
d="M528 41v440h-436v125h436v418h142v-418h426v-125h-426v-440h-142z" />
    <glyph glyph-name="zero.tosf" horiz-adv-x="1116" 
d="M553 -25q-114 0 -204.5 47t-143.5 123.5t-80 164.5t-27 179q0 72 16.5 143.5t53.5 139.5t89.5 120.5t130 84t169.5 31.5q115 0 206 -46.5t145 -122t82 -164t28 -181.5q0 -91 -28.5 -180t-83.5 -166t-147 -125t-206 -48zM557 104q141 0 221 109.5t80 275.5t-82 278
t-223 112t-218 -109t-77 -276t79 -278.5t220 -111.5z" />
    <glyph glyph-name="one.tosf" horiz-adv-x="1116" 
d="M209 0v127h321v717l-309 -109l-31 125l367 123h123v-856h317v-127h-788z" />
    <glyph glyph-name="two.tosf" horiz-adv-x="1116" 
d="M117 0v57q27 20 79 60q81 61 121 92t108 86t102.5 88t80 81t67.5 84t38 78t16 81q0 79 -51.5 124.5t-140.5 45.5q-77 0 -156 -33t-135 -86l-78 92q68 66 167.5 112t211.5 46q148 0 245 -71.5t97 -211.5q0 -66 -33 -137.5t-71.5 -122.5t-119.5 -124t-123.5 -106
t-137.5 -104q-4 -3 -7 -5.5t-6 -4.5q60 6 113 6h467v-127h-854z" />
    <glyph glyph-name="three.tosf" horiz-adv-x="1116" 
d="M385 -385q-121 0 -199 20l27 125q78 -16 184 -16q94 0 182 34t147.5 101.5t59.5 151.5q0 75 -36 130.5t-99.5 87.5t-140.5 47t-168 15v113q59 1 127.5 21.5t130.5 55.5t103.5 90t41.5 116q0 77 -62 123.5t-157 46.5q-172 0 -299 -117l-75 92q63 66 164.5 111t215.5 45
q169 0 270 -78t101 -209q0 -84 -50.5 -156.5t-119 -114t-139.5 -57.5v-2q65 -9 126 -35t112.5 -68t82.5 -104.5t31 -136.5q0 -87 -34 -160t-90 -122.5t-129 -84t-151 -50t-157 -15.5z" />
    <glyph glyph-name="four.tosf" horiz-adv-x="1116" 
d="M678 -362v362h-608v98l635 885h122v-856h195v-127h-195v-362h-149zM240 127h438v618h-2z" />
    <glyph glyph-name="five.tosf" horiz-adv-x="1116" 
d="M356 -385q-112 0 -186 18l27 125q63 -14 172 -14q77 0 146.5 21.5t124.5 61.5t87.5 104t32.5 143q0 81 -33.5 141.5t-91.5 96t-128.5 52.5t-152.5 17q-85 0 -135 -4l41 606h635v-127h-498l-22 -352q251 0 397 -113t146 -309q0 -96 -38 -180.5t-107.5 -148.5t-177.5 -101
t-239 -37z" />
    <glyph glyph-name="six.tosf" horiz-adv-x="1116" 
d="M571 -25q-92 0 -167 34t-125 90.5t-84 131.5t-49 155.5t-15 164.5q0 248 89.5 435.5t268 295t426.5 107.5l31 -125q-281 0 -449 -144.5t-196 -417.5q119 107 287 107q183 0 289 -111t106 -292q0 -117 -48.5 -214t-144 -157t-219.5 -60zM580 104q114 0 179.5 84.5
t65.5 196.5q0 141 -64.5 219t-191.5 78q-91 0 -155 -27t-121 -73v-52q0 -197 71.5 -311.5t215.5 -114.5z" />
    <glyph glyph-name="seven.tosf" horiz-adv-x="1116" 
d="M324 -406l-125 64l622 1192h-694v133h860v-106z" />
    <glyph glyph-name="eight.tosf" horiz-adv-x="1116" 
d="M555 -25q-100 0 -179 31t-125.5 83t-70.5 114t-24 129q0 107 69.5 207t204.5 178q-130 80 -183.5 161t-53.5 177q0 142 106.5 238t253.5 96q179 0 277 -94.5t98 -231.5q0 -97 -62 -177t-196 -157q150 -85 219 -180t69 -207q0 -163 -111.5 -265t-291.5 -102zM561 106
q116 0 179 69t63 169q0 80 -60 154.5t-208 154.5q-120 -77 -173 -151t-53 -160q0 -101 68.5 -168.5t183.5 -67.5zM563 795q211 123 211 258q0 87 -55 147t-156 60q-98 0 -156.5 -58.5t-58.5 -146.5q0 -69 47 -129.5t168 -130.5z" />
    <glyph glyph-name="nine.tosf" horiz-adv-x="1116" 
d="M174 -381l-29 123q133 0 246 33t202.5 97.5t146.5 168.5t71 238q-139 -103 -287 -103q-179 0 -285 115.5t-106 294.5q0 115 53.5 211.5t150.5 153.5t216 57q94 0 169 -35t122.5 -91.5t79 -133.5t44.5 -155.5t13 -162.5q0 -376 -213.5 -593.5t-593.5 -217.5zM545 303
q160 0 276 94v52q0 195 -69.5 312.5t-206.5 117.5q-103 0 -177.5 -80.5t-74.5 -208.5q0 -129 64 -208t188 -79z" />
    <glyph glyph-name="less.tosf" horiz-adv-x="1187" 
d="M766 55l-512 449l512 454l84 -86l-410 -362l410 -360z" />
    <glyph glyph-name="equal.tosf" horiz-adv-x="1187" 
d="M195 313v129h796v-129h-796zM195 647v129h796v-129h-796z" />
    <glyph glyph-name="greater.tosf" horiz-adv-x="1187" 
d="M420 55l-84 86l409 363l-409 360l84 94l512 -448z" />
    <glyph glyph-name="logicalnot.tosf" horiz-adv-x="1187" 
d="M965 68v417h-881v131h1020v-548h-139z" />
    <glyph glyph-name="plusminus.tosf" horiz-adv-x="1187" 
d="M528 41v440h-436v125h436v418h142v-418h426v-125h-426v-440h-142zM154 -236v132h890v-132h-890z" />
    <glyph glyph-name="multiply.tosf" horiz-adv-x="1187" 
d="M862 172l-280 279l-265 -265l-92 93l264 264l-264 266l99 98l266 -264l264 264l92 -92l-264 -264l281 -281z" />
    <glyph glyph-name="divide.tosf" horiz-adv-x="1187" 
d="M590 92q-47 0 -81 32.5t-34 78.5t34 78t81 32q46 0 79 -32t33 -78t-33 -78.5t-79 -32.5zM590 782q-47 0 -81 33.5t-34 79.5q0 45 34 78t81 33q46 0 79 -33t33 -78q0 -46 -33 -79.5t-79 -33.5zM82 487v123h1024v-123h-1024z" />
    <glyph glyph-name="uni2007.tosf" horiz-adv-x="1116" 
 />
    <glyph glyph-name="perthousand.tosf" horiz-adv-x="2203" 
d="M358 436q-73 0 -130.5 25.5t-91 68t-50 91.5t-16.5 100t17.5 100.5t51 92t92 68.5t131.5 26q74 0 131 -25.5t90 -67.5t49.5 -90.5t16.5 -99.5t-17 -100.5t-51 -92.5t-92 -69.5t-131 -26.5zM362 535q81 0 121.5 51.5t40.5 134.5t-42.5 135.5t-123.5 52.5t-122 -50.5
t-41 -133.5t43 -136.5t124 -53.5zM1167 -25q-73 0 -130.5 25.5t-91 68t-50 91.5t-16.5 100t17.5 100.5t51 92t92 68.5t131.5 26q74 0 131 -25.5t90 -67.5t49.5 -90.5t16.5 -99.5t-17 -100.5t-51 -92.5t-92 -69.5t-131 -26.5zM1171 74q81 0 121.5 51.5t40.5 134.5t-42.5 136
t-123.5 53t-122 -51t-41 -134t43 -136.5t124 -53.5zM1843 -25q-59 0 -108.5 17t-82 45.5t-55.5 66t-33 76.5t-10 80q0 51 17.5 100.5t51.5 92t92 68.5t132 26t131 -25.5t90 -67.5t49.5 -90.5t16.5 -99.5t-17 -100.5t-51 -92.5t-92 -69.5t-131 -26.5zM1847 74
q81 0 121.5 51.5t40.5 134.5t-42.5 136t-123.5 53t-122.5 -51.5t-41.5 -133.5t43.5 -136t124.5 -54zM412 0l587 983h129l-587 -983h-129z" />
    <glyph glyph-name="minus.tosf" horiz-adv-x="1187" 
d="M215 483v129h756v-129h-756z" />
    <glyph glyph-name="uni2219.tosf" horiz-adv-x="1187" 
d="M594 301q-106 0 -181 74t-75 180t75 181t181 75t181 -75t75 -181t-75 -180t-181 -74z" />
    <glyph glyph-name="approxequal.tosf" horiz-adv-x="1187" 
d="M182 283l-59 102q126 113 268 113q62 0 119 -18.5t93.5 -41t88.5 -41t105 -18.5q50 0 108 23.5t103 60.5l55 -107q-54 -53 -129 -81.5t-150 -28.5q-62 0 -119.5 18.5t-95 41t-89 41t-101.5 18.5q-105 0 -197 -82zM182 596l-59 102q51 48 121.5 80.5t146.5 32.5
q62 0 119 -18.5t93.5 -41t88.5 -41t105 -18.5q50 0 108 23.5t103 60.5l55 -106q-54 -53 -129 -82t-150 -29q-62 0 -119.5 18.5t-95 41t-89 41t-101.5 18.5q-102 0 -197 -82z" />
    <glyph glyph-name="notequal.tosf" horiz-adv-x="1187" 
d="M346 -25l-102 56l155 258h-319v117h391l133 219h-524v116h596l164 269l104 -60l-133 -209h295v-116h-367l-133 -219h500v-117h-571z" />
    <glyph glyph-name="lessequal.tosf" horiz-adv-x="1187" 
d="M1036 39l-886 420v104l886 420v-137l-729 -336l729 -336v-135zM150 -233v131h886v-131h-886z" />
    <glyph glyph-name="greaterequal.tosf" horiz-adv-x="1187" 
d="M150 39v135l729 336l-729 336v137l886 -420v-104zM150 -233v131h886v-131h-886z" />
    <glyph glyph-name="dotmath.tosf" horiz-adv-x="1187" 
d="M594 430q-52 0 -88.5 36t-36.5 89q0 52 36 87.5t89 35.5t89 -35.5t36 -87.5q0 -53 -36.5 -89t-88.5 -36z" />
    <glyph glyph-name="exclam.sc" horiz-adv-x="483" 
d="M242 -14q-46 0 -79.5 33t-33.5 79t33.5 78.5t79.5 32.5t79 -32.5t33 -78.5t-33 -79t-79 -33zM186 342l-30 707h176l-29 -707h-117z" />
    <glyph glyph-name="ampersand.sc" horiz-adv-x="1069" 
d="M444 -18q-172 0 -272 81.5t-100 206.5q0 106 57 171.5t172 125.5q-66 71 -98.5 130t-32.5 126q0 109 83 177.5t212 68.5q124 0 202 -63.5t78 -161.5q0 -87 -59 -154t-184 -135l266 -274q62 91 88 229l131 -23q-30 -171 -131 -299l182 -188h-178l-94 96
q-142 -114 -322 -114zM428 631q95 51 136.5 99.5t41.5 105.5q0 51 -39 85.5t-102 34.5q-67 0 -108.5 -36t-41.5 -93q0 -51 26 -92.5t87 -103.5zM451 102q133 0 229 80l-299 305q-78 -43 -117 -93.5t-39 -117.5q0 -76 60.5 -125t165.5 -49z" />
    <glyph glyph-name="question.sc" horiz-adv-x="692" 
d="M186 342v72q0 67 26 110t93 80q75 42 110.5 82.5t35.5 104.5q0 78 -49.5 116.5t-139.5 38.5q-60 0 -137 -35l-51 111q101 47 207 47q157 0 241 -74t84 -194q0 -45 -14 -84.5t-31.5 -65t-48.5 -52t-49.5 -38.5t-50.5 -31q-53 -31 -71.5 -57.5t-18.5 -75.5v-55h-136z
M258 -14q-46 0 -79.5 33t-33.5 79t33.5 78.5t79.5 32.5t79.5 -32.5t33.5 -78.5t-33.5 -79t-79.5 -33z" />
    <glyph glyph-name="a.sc" horiz-adv-x="1077" 
d="M332 369h403l-135 346q-35 90 -65 188h-5q-28 -91 -65 -188zM41 0l422 1049h149l426 -1049h-159l-95 240h-501l-93 -240h-149z" />
    <glyph glyph-name="b.sc" horiz-adv-x="989" 
d="M164 0v1049h307q80 0 145 -14.5t115.5 -44.5t78.5 -82t28 -122q0 -91 -51.5 -150t-143.5 -83v-2q105 -16 173.5 -84t68.5 -174q0 -293 -418 -293h-303zM315 125h148q140 0 202 38t62 132t-60 142t-194 48h-158v-360zM315 604h140q119 0 173 41.5t54 130.5q0 80 -55.5 115
t-167.5 35h-144v-322z" />
    <glyph glyph-name="c.sc" horiz-adv-x="1038" 
d="M637 -18q-128 0 -232 44t-171.5 119t-103.5 173t-36 208t37 208.5t105.5 173t173 118t231.5 43.5q181 0 313 -82l-75 -115q-101 68 -242 68q-183 0 -282 -113t-99 -295q0 -188 98.5 -304.5t286.5 -116.5q152 0 264 86l68 -109q-49 -42 -138.5 -74t-197.5 -32z" />
    <glyph glyph-name="d.sc" horiz-adv-x="1155" 
d="M164 0v1049h276q314 0 468.5 -135t154.5 -375q0 -118 -37.5 -215t-113 -170t-198 -113.5t-282.5 -40.5h-268zM317 125h127q459 0 459 407q0 209 -113 301.5t-354 92.5h-119v-801z" />
    <glyph glyph-name="e.sc" horiz-adv-x="911" 
d="M164 0v1049h629v-127h-476v-308h424v-125h-424v-362h486v-127h-639z" />
    <glyph glyph-name="f.sc" horiz-adv-x="868" 
d="M164 0v1049h618v-127h-465v-314h410v-125h-410v-483h-153z" />
    <glyph glyph-name="g.sc" horiz-adv-x="1189" 
d="M649 -18q-130 0 -236.5 44t-175 119.5t-106 173.5t-37.5 207q0 111 38.5 209.5t109 172.5t178.5 117.5t239 43.5q221 0 349 -98l-74 -113q-115 82 -279 82q-133 0 -225 -55.5t-133 -145.5t-41 -207q0 -88 24 -163t71 -134t124 -92.5t176 -33.5q153 0 256 61v264h-231v125
h381v-463q-13 -13 -38 -28.5t-72.5 -36.5t-126 -35t-171.5 -14z" />
    <glyph glyph-name="h.sc" horiz-adv-x="1226" 
d="M164 0v1049h153v-435h594v435h152v-1049h-152v485h-594v-485h-153z" />
    <glyph glyph-name="i.sc" horiz-adv-x="501" 
d="M174 0v1049h154v-1049h-154z" />
    <glyph glyph-name="j.sc" horiz-adv-x="503" 
d="M80 -305q-79 0 -111 16l23 131q28 -14 67 -14q66 0 97.5 43t31.5 135v1043h154v-1065q0 -140 -67.5 -214.5t-194.5 -74.5z" />
    <glyph glyph-name="k.sc" horiz-adv-x="993" 
d="M786 0l-454 547l428 502h178l-428 -496l451 -553h-175zM164 0v1049h151v-1049h-151z" />
    <glyph glyph-name="l.sc" horiz-adv-x="837" 
d="M164 0v1049h155v-922h449v-127h-604z" />
    <glyph glyph-name="m.sc" horiz-adv-x="1452" 
d="M100 0l150 1049h147l260 -707q43 -113 68 -195h4q36 117 66 195l262 707h147l148 -1049h-156l-88 655q-10 75 -16 148h-5q-41 -128 -49 -148l-243 -655h-150l-248 655q-20 52 -51 148h-4q-8 -111 -14 -152l-86 -651h-142z" />
    <glyph glyph-name="n.sc" horiz-adv-x="1206" 
d="M160 0v1049h155l490 -672q68 -96 104 -170h4q-6 75 -6 158v684h140v-1049h-140l-518 711q-51 70 -90 151h-2q6 -69 6 -131v-731h-143z" />
    <glyph glyph-name="o.sc" horiz-adv-x="1280" 
d="M643 -18q-125 0 -230 44t-174 118.5t-107 172t-38 205.5q0 87 23.5 168t70 149.5t111 120t153 80.5t189.5 29q125 0 230 -44t173.5 -119t106 -172.5t37.5 -205.5t-37.5 -206.5t-105.5 -174t-172.5 -120.5t-229.5 -45zM641 109q181 0 283 118.5t102 294.5
q0 115 -41.5 208.5t-130.5 152.5t-211 59q-92 0 -166.5 -33.5t-122 -91t-73 -131.5t-25.5 -158q0 -178 101.5 -298.5t283.5 -120.5z" />
    <glyph glyph-name="p.sc" horiz-adv-x="944" 
d="M164 0v1049h303q179 0 287 -78t108 -232q0 -162 -108.5 -246.5t-304.5 -84.5h-132v-408h-153zM317 532h132q135 0 197.5 48.5t62.5 152.5q0 98 -60.5 145.5t-195.5 47.5h-136v-394z" />
    <glyph glyph-name="q.sc" horiz-adv-x="1280" 
d="M1034 -262q-120 0 -219.5 55t-208.5 191q-118 6 -215.5 52t-161.5 119.5t-99.5 168t-35.5 198.5q0 87 23.5 168t70 149.5t111 120t153 80.5t189.5 29q125 0 230 -44t173.5 -119t106 -172.5t37.5 -205.5q0 -192 -111 -341t-303 -191q63 -72 122 -104.5t142 -32.5
q42 0 78 14t55 29l56 -107q-69 -57 -193 -57zM641 109q181 0 283 118.5t102 294.5q0 115 -41.5 208.5t-130.5 152.5t-211 59q-92 0 -166.5 -33.5t-122 -91t-73 -131.5t-25.5 -158q0 -178 101.5 -298.5t283.5 -120.5z" />
    <glyph glyph-name="r.sc" horiz-adv-x="983" 
d="M164 0v1049h313q181 0 279 -73t98 -212q0 -128 -82.5 -196t-216.5 -79v-4q34 -24 121 -137l262 -348h-180l-217 301q-57 79 -89.5 113.5t-55.5 44.5t-60 10h-19v-469h-153zM317 586h156q115 0 169 43t54 129q0 87 -56.5 127.5t-176.5 40.5h-146v-340z" />
    <glyph glyph-name="s.sc" horiz-adv-x="851" 
d="M397 -18q-114 0 -194.5 33t-122.5 73l72 109q1 0 11 -8t15 -11.5t18 -12t23.5 -13.5t26.5 -12.5t32 -12t35 -9.5t41 -7t45 -2q98 0 157.5 42.5t59.5 116.5q0 39 -14 68.5t-46 53t-66.5 41.5t-91.5 44l-13.5 6t-11.5 5t-13 6q-57 26 -96.5 50.5t-77.5 60t-57.5 83
t-19.5 107.5q0 128 95 202t234 74q175 0 297 -86l-69 -111q-96 70 -224 70q-83 0 -133.5 -36t-50.5 -107q0 -22 6.5 -41.5t13 -33.5t26 -30t28.5 -23.5t39.5 -22.5t40 -19t47.5 -21q42 -19 64.5 -30t60.5 -31.5t59 -37.5t47.5 -43.5t40 -53t23.5 -63t10 -77.5
q0 -133 -100 -211.5t-267 -78.5z" />
    <glyph glyph-name="t.sc" horiz-adv-x="876" 
d="M360 0v922h-321v127h799v-127h-322v-922h-156z" />
    <glyph glyph-name="u.sc" horiz-adv-x="1171" 
d="M590 -18q-219 0 -327.5 117t-108.5 321v629h155v-611q0 -174 68.5 -250.5t218.5 -76.5q276 0 276 307v631h144v-617q0 -211 -107 -330.5t-319 -119.5z" />
    <glyph glyph-name="v.sc" horiz-adv-x="1056" 
d="M461 0l-424 1049h160l276 -711q40 -101 64 -180h4q21 68 63 180l266 711h148l-408 -1049h-149z" />
    <glyph glyph-name="w.sc" horiz-adv-x="1480" 
d="M342 0l-301 1049h158l186 -668q24 -93 41 -184h4q16 90 47 186l197 666h153l193 -662q32 -117 45 -186h4q10 83 39 184l184 664h146l-301 -1049h-142l-196 684q-32 115 -51 203h-5q-25 -115 -53 -203l-207 -684h-141z" />
    <glyph glyph-name="x.sc" horiz-adv-x="974" 
d="M49 0l354 549l-329 500h164l254 -396l245 396h154l-324 -512l357 -537h-164l-281 434l-274 -434h-156z" />
    <glyph glyph-name="y.sc" horiz-adv-x="956" 
d="M406 0v397l-369 652h166l282 -517h4l279 517h150l-359 -652v-397h-153z" />
    <glyph glyph-name="z.sc" horiz-adv-x="952" 
d="M86 0v104l576 820h-551v125h737v-101l-584 -823h602v-125h-780z" />
    <glyph glyph-name="exclamdown.sc" horiz-adv-x="483" 
d="M242 840q-46 0 -79.5 32.5t-33.5 77.5q0 46 33.5 79.5t79.5 33.5t79 -33.5t33 -79.5t-33 -78t-79 -32zM152 0l28 707h117l31 -707h-176z" />
    <glyph glyph-name="questiondown.sc" horiz-adv-x="692" 
d="M412 -18q-158 0 -242 74t-84 194q0 45 14 84.5t31.5 64.5t49.5 52t49.5 38t50.5 31q53 31 71.5 57.5t18.5 75.5v56h135v-72q0 -67 -26 -110.5t-93 -80.5q-75 -42 -110 -82t-35 -104q0 -78 49 -117t139 -39q60 0 137 35l51 -110q-101 -47 -206 -47zM434 842q-46 0 -79 32
t-33 78t33 79.5t79 33.5t79.5 -33.5t33.5 -79.5q0 -45 -33.5 -77.5t-79.5 -32.5z" />
    <glyph glyph-name="germandbls.sc" horiz-adv-x="1703" 
d="M397 -18q-114 0 -194.5 33t-122.5 73l72 109q1 0 11 -8t15 -11.5t18 -12t23.5 -13.5t26.5 -12.5t32 -12t35 -9.5t41 -7t45 -2q98 0 157.5 42.5t59.5 116.5q0 39 -14 68.5t-46 53t-66.5 41.5t-91.5 44l-13.5 6t-11.5 5t-13 6q-57 26 -96.5 50.5t-77.5 60t-57.5 83
t-19.5 107.5q0 128 95 202t234 74q175 0 297 -86l-69 -111q-96 70 -224 70q-83 0 -133.5 -36t-50.5 -107q0 -22 6.5 -41.5t13 -33.5t26 -30t28.5 -23.5t39.5 -22.5t40 -19t47.5 -21q42 -19 64.5 -30t60.5 -31.5t59 -37.5t47.5 -43.5t40 -53t23.5 -63t10 -77.5
q0 -133 -100 -211.5t-267 -78.5zM1249 -18q-114 0 -194.5 33t-122.5 73l72 109q1 0 11 -8t15 -11.5t18 -12t23.5 -13.5t26.5 -12.5t32 -12t35 -9.5t41 -7t45 -2q98 0 157.5 42.5t59.5 116.5q0 39 -14 68.5t-46 53t-66.5 41.5t-91.5 44q-25 11 -38 17q-57 26 -96.5 50.5
t-77.5 60t-57.5 83t-19.5 107.5q0 128 95 202t234 74q175 0 297 -86l-69 -111q-96 70 -224 70q-83 0 -133.5 -36t-50.5 -107q0 -22 6.5 -41.5t13 -33.5t26 -30t28.5 -23.5t39.5 -22.5t40 -19t47.5 -21q42 -19 64.5 -30t60.5 -31.5t59 -37.5t47.5 -43.5t40 -53t23.5 -63
t10 -77.5q0 -133 -100 -211.5t-267 -78.5z" />
    <glyph glyph-name="agrave.sc" horiz-adv-x="1077" 
d="M332 369h403l-135 346q-35 90 -65 188h-5q-28 -91 -65 -188zM41 0l422 1049h149l426 -1049h-159l-95 240h-501l-93 -240h-149zM479 1147l-276 258h223l188 -258h-135z" />
    <glyph glyph-name="aacute.sc" horiz-adv-x="1077" 
d="M332 369h403l-135 346q-35 90 -65 188h-5q-28 -91 -65 -188zM41 0l422 1049h149l426 -1049h-159l-95 240h-501l-93 -240h-149zM469 1147l188 258h224l-277 -258h-135z" />
    <glyph glyph-name="acircumflex.sc" horiz-adv-x="1077" 
d="M332 369h403l-135 346q-35 90 -65 188h-5q-28 -91 -65 -188zM41 0l422 1049h149l426 -1049h-159l-95 240h-501l-93 -240h-149zM233 1149l252 313h111l248 -313h-142l-165 174l-162 -174h-142z" />
    <glyph glyph-name="atilde.sc" horiz-adv-x="1077" 
d="M332 369h403l-135 346q-35 90 -65 188h-5q-28 -91 -65 -188zM41 0l422 1049h149l426 -1049h-159l-95 240h-501l-93 -240h-149zM639 1153q-51 0 -115 40t-102 40q-13 0 -26 -4.5t-24.5 -14t-19.5 -16.5t-18 -18t-12 -13l-80 76q89 123 192 123q43 0 81 -20t71 -40t65 -20
q54 0 105 64l80 -78q-42 -54 -87.5 -86.5t-109.5 -32.5z" />
    <glyph glyph-name="adieresis.sc" horiz-adv-x="1077" 
d="M332 369h403l-135 346q-35 90 -65 188h-5q-28 -91 -65 -188zM41 0l422 1049h149l426 -1049h-159l-95 240h-501l-93 -240h-149zM346 1143q-44 0 -76 32t-32 78q0 44 32 76.5t76 32.5q46 0 78.5 -32.5t32.5 -76.5q0 -46 -32.5 -78t-78.5 -32zM729 1143q-44 0 -76 32t-32 78
q0 44 32 76.5t76 32.5q46 0 78.5 -32.5t32.5 -76.5q0 -46 -32.5 -78t-78.5 -32z" />
    <glyph glyph-name="aring.sc" horiz-adv-x="1077" 
d="M332 369h403l-135 346q-35 90 -65 188h-5q-28 -91 -65 -188zM41 0l422 1049h149l426 -1049h-159l-95 240h-501l-93 -240h-149zM539 1157q-78 0 -136.5 57t-58.5 138q0 80 58.5 137t136.5 57t136 -56.5t58 -137.5t-58 -138t-136 -57zM539 1239q46 0 74 33.5t28 79.5
q0 47 -28 79.5t-74 32.5t-74.5 -32.5t-28.5 -79.5q0 -46 28.5 -79.5t74.5 -33.5z" />
    <glyph glyph-name="ae.sc" horiz-adv-x="1384" 
d="M-16 0l630 1049h654v-127h-428v-308h374v-125h-374v-362h438v-127h-594v266h-377l-155 -266h-168zM381 391h303v518z" />
    <glyph glyph-name="ccedilla.sc" horiz-adv-x="1038" 
d="M545 -449q-77 0 -135 25l24 86q40 -22 109 -22q47 0 74.5 20t27.5 59q0 36 -22.5 56t-51.5 24.5t-71 3.5l67 183q-148 14 -257 92t-162.5 194t-53.5 254q0 110 37 208.5t105.5 173t173 118t231.5 43.5q181 0 313 -82l-75 -115q-101 68 -242 68q-183 0 -282 -113t-99 -295
q0 -188 98.5 -304.5t286.5 -116.5q152 0 264 86l68 -109q-46 -39 -125.5 -69.5t-175.5 -34.5l-45 -119q64 -9 103.5 -47.5t39.5 -96.5q0 -80 -64 -125t-161 -45z" />
    <glyph glyph-name="egrave.sc" horiz-adv-x="911" 
d="M164 0v1049h629v-127h-476v-308h424v-125h-424v-362h486v-127h-639zM410 1147l-277 258h223l189 -258h-135z" />
    <glyph glyph-name="eacute.sc" horiz-adv-x="911" 
d="M164 0v1049h629v-127h-476v-308h424v-125h-424v-362h486v-127h-639zM399 1147l189 258h223l-276 -258h-136z" />
    <glyph glyph-name="ecircumflex.sc" horiz-adv-x="911" 
d="M164 0v1049h629v-127h-476v-308h424v-125h-424v-362h486v-127h-639zM164 1149l252 313h110l248 -313h-141l-166 174l-162 -174h-141z" />
    <glyph glyph-name="edieresis.sc" horiz-adv-x="911" 
d="M164 0v1049h629v-127h-476v-308h424v-125h-424v-362h486v-127h-639zM276 1143q-44 0 -76 32t-32 78q0 44 32 76.5t76 32.5q46 0 78.5 -32.5t32.5 -76.5q0 -46 -32.5 -78t-78.5 -32zM659 1143q-44 0 -76 32t-32 78q0 44 32 76.5t76 32.5q46 0 78.5 -32.5t32.5 -76.5
q0 -46 -32.5 -78t-78.5 -32z" />
    <glyph glyph-name="igrave.sc" horiz-adv-x="501" 
d="M174 0v1049h154v-1049h-154zM190 1147l-276 258h223l189 -258h-136z" />
    <glyph glyph-name="iacute.sc" horiz-adv-x="501" 
d="M174 0v1049h154v-1049h-154zM180 1147l189 258h223l-277 -258h-135z" />
    <glyph glyph-name="icircumflex.sc" horiz-adv-x="501" 
d="M-55 1149l252 313h110l248 -313h-141l-166 174l-162 -174h-141zM174 0v1049h154v-1049h-154z" />
    <glyph glyph-name="idieresis.sc" horiz-adv-x="501" 
d="M174 0v1049h154v-1049h-154zM57 1143q-44 0 -76 32t-32 78q0 44 32 76.5t76 32.5q46 0 78.5 -32.5t32.5 -76.5q0 -46 -32.5 -78t-78.5 -32zM440 1143q-44 0 -76 32t-32 78q0 44 32 76.5t76 32.5q46 0 78.5 -32.5t32.5 -76.5q0 -46 -32.5 -78t-78.5 -32z" />
    <glyph glyph-name="eth.sc" horiz-adv-x="1155" 
d="M164 0v461h-113v119h113v469h276q314 0 468.5 -135t154.5 -375q0 -118 -37.5 -215t-113 -170t-198 -113.5t-282.5 -40.5h-268zM317 125h127q459 0 459 407q0 209 -113 301.5t-354 92.5h-119v-346h244v-119h-244v-336z" />
    <glyph glyph-name="ntilde.sc" horiz-adv-x="1206" 
d="M160 0v1049h155l490 -672q68 -96 104 -170h4q-6 75 -6 158v684h140v-1049h-140l-518 711q-51 70 -90 151h-2q6 -69 6 -131v-731h-143zM702 1153q-51 0 -115 40t-102 40q-13 0 -26 -4.5t-24.5 -14t-19.5 -16.5t-18 -18t-12 -13l-80 76q89 123 193 123q43 0 81 -20t71 -40
t65 -20q53 0 104 64l80 -78q-42 -54 -87.5 -86.5t-109.5 -32.5z" />
    <glyph glyph-name="ograve.sc" horiz-adv-x="1280" 
d="M643 -18q-125 0 -230 44t-174 118.5t-107 172t-38 205.5q0 87 23.5 168t70 149.5t111 120t153 80.5t189.5 29q125 0 230 -44t173.5 -119t106 -172.5t37.5 -205.5t-37.5 -206.5t-105.5 -174t-172.5 -120.5t-229.5 -45zM641 109q181 0 283 118.5t102 294.5
q0 115 -41.5 208.5t-130.5 152.5t-211 59q-92 0 -166.5 -33.5t-122 -91t-73 -131.5t-25.5 -158q0 -178 101.5 -298.5t283.5 -120.5zM582 1147l-277 258h223l189 -258h-135z" />
    <glyph glyph-name="oacute.sc" horiz-adv-x="1280" 
d="M643 -18q-125 0 -230 44t-174 118.5t-107 172t-38 205.5q0 87 23.5 168t70 149.5t111 120t153 80.5t189.5 29q125 0 230 -44t173.5 -119t106 -172.5t37.5 -205.5t-37.5 -206.5t-105.5 -174t-172.5 -120.5t-229.5 -45zM641 109q181 0 283 118.5t102 294.5
q0 115 -41.5 208.5t-130.5 152.5t-211 59q-92 0 -166.5 -33.5t-122 -91t-73 -131.5t-25.5 -158q0 -178 101.5 -298.5t283.5 -120.5zM571 1147l189 258h223l-276 -258h-136z" />
    <glyph glyph-name="ocircumflex.sc" horiz-adv-x="1280" 
d="M643 -18q-125 0 -230 44t-174 118.5t-107 172t-38 205.5q0 87 23.5 168t70 149.5t111 120t153 80.5t189.5 29q125 0 230 -44t173.5 -119t106 -172.5t37.5 -205.5t-37.5 -206.5t-105.5 -174t-172.5 -120.5t-229.5 -45zM641 109q181 0 283 118.5t102 294.5
q0 115 -41.5 208.5t-130.5 152.5t-211 59q-92 0 -166.5 -33.5t-122 -91t-73 -131.5t-25.5 -158q0 -178 101.5 -298.5t283.5 -120.5zM336 1149l252 313h110l248 -313h-141l-166 174l-162 -174h-141z" />
    <glyph glyph-name="otilde.sc" horiz-adv-x="1280" 
d="M643 -18q-125 0 -230 44t-174 118.5t-107 172t-38 205.5q0 87 23.5 168t70 149.5t111 120t153 80.5t189.5 29q125 0 230 -44t173.5 -119t106 -172.5t37.5 -205.5t-37.5 -206.5t-105.5 -174t-172.5 -120.5t-229.5 -45zM641 109q181 0 283 118.5t102 294.5
q0 115 -41.5 208.5t-130.5 152.5t-211 59q-92 0 -166.5 -33.5t-122 -91t-73 -131.5t-25.5 -158q0 -178 101.5 -298.5t283.5 -120.5zM741 1153q-51 0 -115 40t-102 40q-13 0 -26 -4.5t-24.5 -14t-19.5 -16.5t-18 -18t-12 -13l-80 76q89 123 193 123q43 0 81 -20t71 -40
t65 -20q53 0 104 64l80 -78q-42 -54 -87.5 -86.5t-109.5 -32.5z" />
    <glyph glyph-name="odieresis.sc" horiz-adv-x="1280" 
d="M643 -18q-125 0 -230 44t-174 118.5t-107 172t-38 205.5q0 87 23.5 168t70 149.5t111 120t153 80.5t189.5 29q125 0 230 -44t173.5 -119t106 -172.5t37.5 -205.5t-37.5 -206.5t-105.5 -174t-172.5 -120.5t-229.5 -45zM641 109q181 0 283 118.5t102 294.5
q0 115 -41.5 208.5t-130.5 152.5t-211 59q-92 0 -166.5 -33.5t-122 -91t-73 -131.5t-25.5 -158q0 -178 101.5 -298.5t283.5 -120.5zM449 1143q-45 0 -77 32.5t-32 77.5q0 44 32.5 76.5t76.5 32.5q45 0 77.5 -32t32.5 -77q0 -46 -32 -78t-78 -32zM831 1143q-44 0 -76 32
t-32 78q0 44 32 76.5t76 32.5q46 0 78.5 -32.5t32.5 -76.5q0 -46 -32.5 -78t-78.5 -32z" />
    <glyph glyph-name="oslash.sc" horiz-adv-x="1280" 
d="M1036 1143l90 -68l-108 -145q83 -76 126.5 -180t43.5 -222q0 -108 -37.5 -206.5t-105.5 -174t-172.5 -120.5t-229.5 -45q-148 0 -262 57l-102 -145l-86 61l96 143q-93 75 -144 186t-51 238q0 87 23.5 168t70 149.5t111 120t153 80.5t189.5 29q160 0 293 -76zM934 811
l-477 -661q77 -41 184 -41q181 0 283 118.5t102 294.5q0 174 -92 289zM375 211l479 672q-88 59 -211 59q-92 0 -166.5 -33.5t-122 -91t-73 -131.5t-25.5 -158q0 -201 119 -317z" />
    <glyph glyph-name="ugrave.sc" horiz-adv-x="1171" 
d="M590 -18q-219 0 -327.5 117t-108.5 321v629h155v-611q0 -174 68.5 -250.5t218.5 -76.5q276 0 276 307v631h144v-617q0 -211 -107 -330.5t-319 -119.5zM528 1147l-276 258h223l189 -258h-136z" />
    <glyph glyph-name="uacute.sc" horiz-adv-x="1171" 
d="M590 -18q-219 0 -327.5 117t-108.5 321v629h155v-611q0 -174 68.5 -250.5t218.5 -76.5q276 0 276 307v631h144v-617q0 -211 -107 -330.5t-319 -119.5zM518 1147l189 258h223l-277 -258h-135z" />
    <glyph glyph-name="ucircumflex.sc" horiz-adv-x="1171" 
d="M590 -18q-219 0 -327.5 117t-108.5 321v629h155v-611q0 -174 68.5 -250.5t218.5 -76.5q276 0 276 307v631h144v-617q0 -211 -107 -330.5t-319 -119.5zM283 1149l252 313h110l248 -313h-141l-166 174l-162 -174h-141z" />
    <glyph glyph-name="udieresis.sc" horiz-adv-x="1171" 
d="M590 -18q-219 0 -327.5 117t-108.5 321v629h155v-611q0 -174 68.5 -250.5t218.5 -76.5q276 0 276 307v631h144v-617q0 -211 -107 -330.5t-319 -119.5zM395 1143q-44 0 -76 32t-32 78q0 44 32 76.5t76 32.5q46 0 78.5 -32.5t32.5 -76.5q0 -46 -32.5 -78t-78.5 -32z
M778 1143q-44 0 -76 32t-32 78q0 44 32 76.5t76 32.5q46 0 78.5 -32.5t32.5 -76.5q0 -46 -32.5 -78t-78.5 -32z" />
    <glyph glyph-name="yacute.sc" horiz-adv-x="956" 
d="M406 0v397l-369 652h166l282 -517h4l279 517h150l-359 -652v-397h-153zM408 1147l188 258h223l-276 -258h-135z" />
    <glyph glyph-name="thorn.sc" horiz-adv-x="944" 
d="M164 0v1049h153v-185h156q117 0 204 -32t139 -103t52 -174q0 -162 -108.5 -247t-304.5 -85h-138v-223h-153zM317 348h138q135 0 197.5 48.5t62.5 152.5q0 97 -60.5 144.5t-195.5 47.5h-142v-393z" />
    <glyph glyph-name="ydieresis.sc" horiz-adv-x="956" 
d="M406 0v397l-369 652h166l282 -517h4l279 517h150l-359 -652v-397h-153zM285 1143q-45 0 -77 32.5t-32 77.5q0 44 32.5 76.5t76.5 32.5q45 0 77.5 -32t32.5 -77q0 -46 -32 -78t-78 -32zM668 1143q-44 0 -76.5 32.5t-32.5 77.5q0 44 32.5 76.5t76.5 32.5q46 0 78 -32
t32 -77q0 -46 -32 -78t-78 -32z" />
    <glyph glyph-name="dotlessi.sc" horiz-adv-x="501" 
d="M174 0v1049h154v-1049h-154z" />
    <glyph glyph-name="ij.sc" horiz-adv-x="1005" 
d="M582 -305q-79 0 -111 16l23 131q28 -14 67 -14q66 0 97.5 43t31.5 135v1043h154v-1065q0 -140 -67.5 -214.5t-194.5 -74.5zM174 0v1049h154v-1049h-154z" />
    <glyph glyph-name="lslash.sc" horiz-adv-x="837" 
d="M164 0v387l-105 -80l-61 86l166 131v525h155v-404l166 131l66 -88l-232 -180v-381h449v-127h-604z" />
    <glyph glyph-name="oe.sc" horiz-adv-x="1497" 
d="M641 -18q-125 0 -230 44t-174 118.5t-107 172t-38 205.5q0 109 37 207.5t105 174.5t172.5 120.5t230.5 44.5q96 0 172 -20h571v-127h-428v-308h375v-125h-375v-362h441v-127h-586q-73 -18 -166 -18zM637 109q99 0 164 26v776q-67 31 -160 31q-181 0 -285 -120t-104 -294
q0 -178 101.5 -298.5t283.5 -120.5z" />
    <glyph glyph-name="scaron.sc" horiz-adv-x="851" 
d="M397 -18q-114 0 -194.5 33t-122.5 73l72 109q1 0 11 -8t15 -11.5t18 -12t23.5 -13.5t26.5 -12.5t32 -12t35 -9.5t41 -7t45 -2q98 0 157.5 42.5t59.5 116.5q0 39 -14 68.5t-46 53t-66.5 41.5t-91.5 44l-13.5 6t-11.5 5t-13 6q-57 26 -96.5 50.5t-77.5 60t-57.5 83
t-19.5 107.5q0 128 95 202t234 74q175 0 297 -86l-69 -111q-96 70 -224 70q-83 0 -133.5 -36t-50.5 -107q0 -22 6.5 -41.5t13 -33.5t26 -30t28.5 -23.5t39.5 -22.5t40 -19t47.5 -21q42 -19 64.5 -30t60.5 -31.5t59 -37.5t47.5 -43.5t40 -53t23.5 -63t10 -77.5
q0 -133 -100 -211.5t-267 -78.5zM371 1145l-248 313h141l166 -174l162 174h141l-252 -313h-110z" />
    <glyph glyph-name="zcaron.sc" horiz-adv-x="952" 
d="M86 0v104l576 820h-551v125h737v-101l-584 -823h602v-125h-780zM420 1145l-248 313h141l166 -174l162 174h141l-252 -313h-110z" />
    <glyph glyph-name="longs.sc" horiz-adv-x="851" 
d="M397 -18q-114 0 -194.5 33t-122.5 73l72 109q1 0 11 -8t15 -11.5t18 -12t23.5 -13.5t26.5 -12.5t32 -12t35 -9.5t41 -7t45 -2q98 0 157.5 42.5t59.5 116.5q0 39 -14 68.5t-46 53t-66.5 41.5t-91.5 44l-13.5 6t-11.5 5t-13 6q-57 26 -96.5 50.5t-77.5 60t-57.5 83
t-19.5 107.5q0 128 95 202t234 74q175 0 297 -86l-69 -111q-96 70 -224 70q-83 0 -133.5 -36t-50.5 -107q0 -22 6.5 -41.5t13 -33.5t26 -30t28.5 -23.5t39.5 -22.5t40 -19t47.5 -21q42 -19 64.5 -30t60.5 -31.5t59 -37.5t47.5 -43.5t40 -53t23.5 -63t10 -77.5
q0 -133 -100 -211.5t-267 -78.5z" />
    <glyph glyph-name="gravecomb.sc" 
d="M-696 1147l-277 258h223l189 -258h-135z" />
    <glyph glyph-name="acutecomb.sc" 
d="M-707 1147l189 258h223l-276 -258h-136z" />
    <glyph glyph-name="uni0302.sc" 
d="M-942 1149l252 313h110l248 -313h-141l-166 174l-162 -174h-141z" />
    <glyph glyph-name="tildecomb.sc" 
d="M-537 1153q-51 0 -115 40t-102 40q-13 0 -26 -4.5t-24.5 -14t-19.5 -16.5t-18 -18t-12 -13l-80 76q89 123 193 123q43 0 81 -20t71 -40t65 -20q53 0 104 64l80 -78q-42 -54 -87.5 -86.5t-109.5 -32.5z" />
    <glyph glyph-name="uni0304.sc" 
d="M-788 1217v124h555v-124h-555z" />
    <glyph glyph-name="uni0306.sc" 
d="M-510 1145q-116 0 -199 73.5t-96 217.5h133q6 -78 48.5 -125t113.5 -47q69 0 111.5 47t48.5 125h133q-13 -144 -95 -217.5t-198 -73.5z" />
    <glyph glyph-name="uni0307.sc" 
d="M-510 1141q-46 0 -78.5 32t-32.5 78t32.5 78.5t78.5 32.5t78.5 -32.5t32.5 -78.5t-32.5 -78t-78.5 -32z" />
    <glyph glyph-name="uni0308.sc" 
d="M-702 1143q-44 0 -76.5 32.5t-32.5 77.5q0 44 32.5 76.5t76.5 32.5q46 0 78 -32t32 -77q0 -46 -32 -78t-78 -32zM-319 1143q-45 0 -77 32.5t-32 77.5q0 44 32.5 76.5t76.5 32.5q45 0 77.5 -32t32.5 -77q0 -46 -32 -78t-78 -32z" />
    <glyph glyph-name="uni030A.sc" 
d="M-510 1157q-78 0 -136.5 57t-58.5 138q0 80 58.5 137t136.5 57t136.5 -57t58.5 -137q0 -81 -58.5 -138t-136.5 -57zM-510 1239q46 0 74 33.5t28 79.5q0 47 -28 79.5t-74 32.5t-74 -32.5t-28 -79.5q0 -46 28 -79.5t74 -33.5z" />
    <glyph glyph-name="uni030B.sc" 
d="M-858 1147l190 258h215l-272 -258h-133zM-522 1147l190 258h215l-272 -258h-133z" />
    <glyph glyph-name="uni030C.sc" 
d="M-530 1145l-248 313h141l166 -174l162 174h141l-252 -313h-110z" />
    <glyph glyph-name="uni0326.sc" 
d="M-524 -102q43 0 73.5 -32t30.5 -85q0 -66 -39.5 -130.5t-99.5 -115.5l-51 45q3 3 17 16t18.5 18.5t13 17t11.5 23.5t3 26q0 30 -30.5 66t-30.5 71q0 34 23 57t61 23z" />
    <glyph glyph-name="uni0327.sc" 
d="M-559 -449q-77 0 -135 25l24 86q40 -22 109 -22q47 0 74.5 20t27.5 59q0 36 -22.5 56t-51.5 24.5t-71 3.5l74 197h104l-51 -135q64 -9 103.5 -47.5t39.5 -96.5q0 -80 -64 -125t-161 -45z" />
    <glyph glyph-name="uni0328.sc" 
d="M-483 -449q-95 0 -148 53.5t-53 135.5q0 129 131 260h102q-31 -39 -50 -67.5t-37.5 -78t-18.5 -98.5q0 -98 102 -98q45 0 88 16l23 -88q-68 -35 -139 -35z" />
    <glyph glyph-name="uni03BC.sc" horiz-adv-x="1452" 
d="M100 0l150 1049h147l260 -707q43 -113 68 -195h4q36 117 66 195l262 707h147l148 -1049h-156l-88 655q-10 75 -16 148h-5q-41 -128 -49 -148l-243 -655h-150l-248 655q-20 52 -51 148h-4q-8 -111 -14 -152l-86 -651h-142z" />
    <glyph glyph-name="pi.sc" horiz-adv-x="1202" 
d="M164 0v1049h874v-1049h-151v920h-570v-920h-153z" />
    <glyph glyph-name="uni1E9E.sc" horiz-adv-x="1187" 
d="M154 0v594q0 238 126.5 357.5t354.5 119.5q176 0 360 -47v-117l-202 -299l45 -22q252 -125 252 -316q0 -130 -99 -209t-268 -79q-174 0 -293 65l45 117q110 -55 244 -55q101 0 162 39.5t61 119.5q0 39 -16 71t-50 60t-71.5 50t-97.5 51l-107 51l234 367q-110 26 -207 26
q-150 0 -235 -84.5t-85 -261.5v-598h-153z" />
    <glyph glyph-name="uniFB00.sc" horiz-adv-x="1736" 
d="M164 0v1049h618v-127h-465v-314h410v-125h-410v-483h-153zM1032 0v1049h619v-127h-465v-314h409v-125h-409v-483h-154z" />
    <glyph glyph-name="fi.sc" horiz-adv-x="1370" 
d="M164 0v1049h618v-127h-465v-314h410v-125h-410v-483h-153zM1042 0v1049h154v-1049h-154z" />
    <glyph glyph-name="fl.sc" horiz-adv-x="1705" 
d="M164 0v1049h618v-127h-465v-314h410v-125h-410v-483h-153zM1032 0v1049h156v-922h448v-127h-604z" />
    <glyph glyph-name="uniFB03.sc" horiz-adv-x="2238" 
d="M164 0v1049h618v-127h-465v-314h410v-125h-410v-483h-153zM1032 0v1049h619v-127h-465v-314h409v-125h-409v-483h-154zM1911 0v1049h153v-1049h-153z" />
    <glyph glyph-name="uniFB04.sc" horiz-adv-x="2574" 
d="M164 0v1049h618v-127h-465v-314h410v-125h-410v-483h-153zM1032 0v1049h619v-127h-465v-314h409v-125h-409v-483h-154zM1901 0v1049h155v-922h449v-127h-604z" />
    <glyph glyph-name="parenleft.case" horiz-adv-x="632" 
d="M483 -238q-178 193 -274 434t-96 502q0 253 99.5 491t270.5 410h144q-69 -71 -129.5 -159t-114 -200.5t-84.5 -252.5t-31 -287q0 -530 359 -938h-144z" />
    <glyph glyph-name="parenright.case" horiz-adv-x="632" 
d="M8 -238q69 71 129.5 159.5t114 201t84.5 252.5t31 287q0 529 -359 937h144q178 -193 274 -433.5t96 -501.5q0 -257 -99 -493.5t-271 -408.5h-144z" />
    <glyph glyph-name="hyphen.case" horiz-adv-x="632" 
d="M111 616v132h411v-132h-411z" />
    <glyph glyph-name="bracketleft.case" horiz-adv-x="626" 
d="M164 -221v1804h411v-117h-266v-1570h266v-117h-411z" />
    <glyph glyph-name="bracketright.case" horiz-adv-x="626" 
d="M51 -221v117h266v1570h-266v117h412v-1804h-412z" />
    <glyph glyph-name="braceleft.case" horiz-adv-x="733" 
d="M506 -221q-90 0 -155.5 56.5t-65.5 164.5v412q0 100 -61.5 161t-166.5 62v115q104 2 166 61t62 162v391q0 108 64.5 163.5t154.5 55.5h178v-117h-135q-68 0 -92.5 -40t-24.5 -121v-359q0 -195 -205 -248v-4q205 -59 205 -262v-383q0 -80 24 -116.5t91 -36.5h137v-117
h-176z" />
    <glyph glyph-name="braceright.case" horiz-adv-x="733" 
d="M51 -221v117h135q68 0 92.5 40t24.5 121v381q0 195 205 248v4q-205 59 -205 262v361q0 80 -24 116.5t-91 36.5h-137v117h176q91 0 156.5 -56.5t65.5 -164.5v-389q0 -100 61 -161t166 -62v-115q-104 -2 -165.5 -61t-61.5 -162v-414q0 -108 -64.5 -163.5t-155.5 -55.5h-178
z" />
    <glyph glyph-name="exclamdown.case" horiz-adv-x="563" 
d="M283 1149q-47 0 -82 34t-35 81q0 49 34.5 82.5t82.5 33.5t82 -33.5t34 -82.5q0 -47 -34.5 -81t-81.5 -34zM190 0l33 956h119l33 -956h-185z" />
    <glyph glyph-name="guillemotleft.case" horiz-adv-x="974" 
d="M365 293l-273 387l273 389h157l-270 -389l270 -387h-157zM729 293l-272 387l272 389h158l-271 -389l271 -387h-158z" />
    <glyph glyph-name="uni00AD.case" horiz-adv-x="632" 
d="M111 616v132h411v-132h-411z" />
    <glyph glyph-name="guillemotright.case" horiz-adv-x="974" 
d="M88 293l270 387l-270 389h156l274 -389l-274 -387h-156zM453 293l270 387l-270 389h155l275 -389l-275 -387h-155z" />
    <glyph glyph-name="questiondown.case" horiz-adv-x="819" 
d="M504 -25q-192 0 -297 96.5t-105 252.5q0 52 11.5 97t34.5 81.5t45 63t57.5 52.5t55.5 39t54 33q61 36 82 70.5t21 95.5v113h145v-129q0 -84 -31.5 -139.5t-119.5 -108.5q-42 -25 -63 -39t-51.5 -39.5t-44.5 -48.5t-25 -57.5t-11 -75.5q0 -114 66.5 -170t185.5 -56
q78 0 168 44l55 -119q-110 -56 -233 -56zM532 1149q-47 0 -81.5 34t-34.5 81q0 49 34 82.5t82 33.5t82.5 -33.5t34.5 -82.5q0 -47 -35 -81t-82 -34z" />
    <glyph glyph-name="gravecomb.case" 
d="M-836 1475l-276 258h223l189 -258h-136z" />
    <glyph glyph-name="acutecomb.case" 
d="M-846 1475l189 258h223l-277 -258h-135z" />
    <glyph glyph-name="uni0302.case" 
d="M-1081 1477l252 313h110l248 -313h-141l-166 174l-162 -174h-141z" />
    <glyph glyph-name="tildecomb.case" 
d="M-676 1481q-51 0 -115 40t-102 40q-13 0 -26 -4.5t-24.5 -14t-19.5 -16.5t-18 -18t-12 -13l-80 76q89 123 192 123q43 0 81 -20t71 -40t65 -20q55 0 105 63l80 -78q-42 -54 -87.5 -86t-109.5 -32z" />
    <glyph glyph-name="uni0304.case" 
d="M-788 1544v125h555v-125h-555z" />
    <glyph glyph-name="uni0306.case" 
d="M-510 1473q-116 0 -199 73t-96 217h133q6 -78 48.5 -125t113.5 -47q69 0 111.5 47t48.5 125h133q-13 -144 -95 -217t-198 -73z" />
    <glyph glyph-name="uni0307.case" 
d="M-510 1468q-46 0 -78.5 32.5t-32.5 78.5t32.5 78.5t78.5 32.5t78.5 -32.5t32.5 -78.5t-32.5 -78.5t-78.5 -32.5z" />
    <glyph glyph-name="uni0308.case" 
d="M-702 1470q-44 0 -76.5 32.5t-32.5 78.5q0 44 32.5 76.5t76.5 32.5q46 0 78 -32t32 -77q0 -46 -32 -78.5t-78 -32.5zM-319 1470q-44 0 -76.5 32.5t-32.5 78.5q0 44 32.5 76.5t76.5 32.5q45 0 77.5 -32t32.5 -77q0 -46 -32 -78.5t-78 -32.5z" />
    <glyph glyph-name="uni030A.case" 
d="M-510 1440q-78 0 -136.5 57t-58.5 137q0 81 58.5 138t136.5 57t136.5 -57t58.5 -138q0 -80 -58.5 -137t-136.5 -57zM-510 1522q46 0 74 33t28 79q0 47 -28 80t-74 33t-74 -33t-28 -80q0 -46 28 -79t74 -33z" />
    <glyph glyph-name="uni030B.case" 
d="M-858 1475l190 258h215l-272 -258h-133zM-522 1475l190 258h215l-272 -258h-133z" />
    <glyph glyph-name="uni030C.case" 
d="M-612 1473l-248 313h141l166 -174l162 174h141l-252 -313h-110z" />
    <glyph glyph-name="uni0326.case" 
d="M-524 -102q43 0 73.5 -32t30.5 -85q0 -66 -39.5 -130.5t-99.5 -115.5l-51 45q3 3 17 16t18.5 18.5t13 17t11.5 23.5t3 26q0 30 -30.5 66t-30.5 71q0 34 23 57t61 23z" />
    <glyph glyph-name="uni0327.case" 
d="M-559 -449q-77 0 -135 25l24 86q40 -22 109 -22q47 0 74.5 20t27.5 59q0 36 -22.5 56t-51.5 24.5t-71 3.5l74 197h104l-51 -135q64 -9 103.5 -47.5t39.5 -96.5q0 -80 -64 -125t-161 -45z" />
    <glyph glyph-name="uni0328.case" 
d="M-483 -449q-95 0 -148 53.5t-53 135.5q0 129 131 260h102q-31 -39 -50 -67.5t-37.5 -78t-18.5 -98.5q0 -98 102 -98q45 0 88 16l23 -88q-68 -35 -139 -35z" />
    <glyph glyph-name="endash.case" horiz-adv-x="1075" 
d="M111 618v125h854v-125h-854z" />
    <glyph glyph-name="emdash.case" horiz-adv-x="1703" 
d="M111 618v125h1482v-125h-1482z" />
    <glyph glyph-name="guilsinglleft.case" horiz-adv-x="610" 
d="M365 293l-273 387l273 389h157l-270 -389l270 -387h-157z" />
    <glyph glyph-name="guilsinglright.case" horiz-adv-x="610" 
d="M88 293l270 387l-270 389h156l274 -389l-274 -387h-156z" />
    <glyph glyph-name="Omega.mgrk" horiz-adv-x="1464" 
d="M111 0v125h292q-137 92 -220 258t-83 346q0 122 36 229.5t97.5 185t142.5 133.5t171.5 84t183.5 28t183.5 -28t171.5 -84t142.5 -133.5t97.5 -185t36 -229.5q0 -180 -83 -346t-220 -258h295v-125h-451v131q301 211 301 598q0 139 -60.5 259.5t-170 193.5t-242.5 73
t-242.5 -73t-170 -193.5t-60.5 -259.5q0 -385 303 -598v-131h-450z" />
    <glyph glyph-name="Delta.mgrk" horiz-adv-x="1488" 
d="M70 0l583 1434h131l584 -1434h-1298zM274 135h889l-444 1098z" />
    <glyph glyph-name="pi.ss05" horiz-adv-x="1312" 
d="M281 -260v1118h-224v125h1168v-125h-258v-608q0 -67 26 -104t68 -37q70 0 125 34l53 -114q-76 -54 -195 -54q-118 0 -172.5 66.5t-54.5 194.5v622h-381v-1118h-155z" />
    <glyph glyph-name="commaaccent.comp" horiz-adv-x="1024" 
d="M498 -102q43 0 73.5 -32t30.5 -85q0 -66 -39.5 -130.5t-99.5 -115.5l-51 45q3 3 17 16t18.5 18.5t13 17t11.5 23.5t3 26q0 30 -30.5 66t-30.5 71q0 34 23 57t61 23z" />
    <glyph glyph-name="commaturn.comp" horiz-adv-x="1034" 
d="M504 1104q-43 0 -74 32t-31 85q0 66 40 130t100 115l51 -45q-5 -5 -17.5 -16.5t-18 -18t-13.5 -17t-11.5 -22.5t-3.5 -26q0 -30 31 -66t31 -71q0 -34 -23 -57t-61 -23z" />
    </font>
</defs>
</svg>
