<?xml version="1.0" standalone="no"?>
<!DOCTYPE svg PUBLIC "-//W3C//DTD SVG 1.1//EN" "http://www.w3.org/Graphics/SVG/1.1/DTD/svg11.dtd" >
<svg xmlns="http://www.w3.org/2000/svg" xmlns:xlink="http://www.w3.org/1999/xlink" version="1.1">
<metadata>
Created by FontForge 20170731 at Fri Aug  5 17:18:46 2022
 By Aleksey,,,
Copyright (c) 2014 Swiss Typefaces. All rights reserved.
</metadata>
<defs>
<font id="RomainText-Regular" horiz-adv-x="1024" >
  <font-face 
    font-family="Romain Text"
    font-weight="400"
    font-stretch="normal"
    units-per-em="2048"
    panose-1="2 2 0 0 0 0 0 0 0 0"
    ascent="1638"
    descent="-410"
    x-height="977"
    cap-height="1583"
    bbox="-68 -711 2580 2111"
    underline-thickness="102"
    underline-position="-409"
    unicode-range="U+000D-FB06"
  />
<missing-glyph horiz-adv-x="1427" 
d="M205 0v1612h1018v-1612h-1018zM229 1591v-1571h969v1571h-969z" />
    <glyph glyph-name="f_b" unicode="fb" horiz-adv-x="1980" 
d="M248 1075q0 126 28.5 226t73 162t103.5 102.5t116 56.5t115 16q164 0 254 -34l188 18q-2 -229 -2 -475v-248q112 131 293 131q140 0 247.5 -69.5t163.5 -187.5t56 -265q0 -69 -18.5 -139t-59 -137t-98 -118t-142.5 -82.5t-186 -31.5q-152 0 -256 98l-8 -100l-364 2v47
l86 14q41 7 62 22.5t22 51.5q4 94 4 420v551q0 64 -1 161t-1 122q-39 5 -69 26t-49 46.5t-38.5 50t-48.5 41t-68 16.5q-46 0 -80.5 -19t-64 -66t-45 -138t-15.5 -224v-149h345v-76h-345v-383l3 -377q2 -40 15 -55t60 -21l119 -14v-47h-569v47l86 14q50 8 66 25t18 49
q4 234 4 379v383l-166 16v60h166v102zM1124 848v-334l2 -371q81 -51 177 -51q110 0 194.5 58.5t127 151t42.5 200.5q0 116 -34.5 211.5t-108 156t-174.5 60.5q-63 0 -124.5 -20t-101.5 -62z" />
    <glyph glyph-name="f_f" unicode="ff" horiz-adv-x="1415" 
d="M995 1475q108 163 320 163q74 0 138.5 -17t109 -53.5t47.5 -86.5q0 -42 -25.5 -70.5t-64.5 -28.5q-38 0 -63.5 20.5t-39.5 50t-28 58.5t-39.5 49.5t-63.5 20.5q-25 0 -49.5 -12t-50 -44.5t-45 -82t-31.5 -132.5t-12 -188v-149h323v-76h-323v-383l2 -377q2 -39 15.5 -54.5
t60.5 -21.5l118 -14v-47h-569v47l86 14q50 8 66 25t18 49q4 234 4 379v383h-455v-383l2 -377q2 -39 15.5 -54.5t60.5 -21.5l99 -14v-47h-549v47l86 14q50 8 66 25t18 49q4 234 4 379v383l-166 16v60h166v41q0 126 28.5 226t74 162t106.5 102.5t122 56.5t125 16q89 0 172 -27
t121 -75zM444 973h455v102q0 136 29 246q-34 3 -61 24.5t-45 50t-36.5 57t-46.5 48t-65 19.5q-26 0 -54 -12t-60.5 -44.5t-57.5 -82t-41.5 -132.5t-16.5 -188v-88z" />
    <glyph glyph-name="f_f_i" unicode="ffi" horiz-adv-x="1998" 
d="M1098 897v-383l2 -377q2 -39 15.5 -54.5t60.5 -21.5l98 -14v-47h-549v47l86 14q50 8 66 25t18 49q4 234 4 379v383h-455v-383l2 -377q2 -39 15.5 -54.5t60.5 -21.5l99 -14v-47h-549v47l86 14q50 8 66 25t18 49q4 234 4 379v383l-166 16v60h166v41q0 126 28.5 226t74 162
t106.5 102.5t122 56.5t125 16q90 0 183.5 -27.5t130.5 -74.5q72 86 170 124.5t194 38.5q64 0 126 -12t115 -34.5t85.5 -60t32.5 -83.5q0 -56 -31 -83.5t-78 -27.5q-46 0 -74 24t-41.5 58t-27.5 68t-42.5 58t-74.5 24q-122 0 -193.5 -97.5t-78.5 -297.5v-201h241v-76h-241z
M444 973h455v131q3 121 35 219q-31 6 -57.5 29t-46.5 50.5t-41.5 54.5t-50.5 45t-64 18q-26 0 -54 -12t-60.5 -44.5t-57.5 -82t-41.5 -132.5t-16.5 -188v-88zM1774 391l4 -254q2 -40 14 -54.5t59 -21.5l95 -14v-47h-545v47l86 14q50 8 66 25t18 49q4 111 4 256v240l-2 200
q-2 32 -14.5 48t-47.5 22l-104 17v55l369 33l-2 -375v-240z" />
    <glyph glyph-name="f_f_l" unicode="ffl" horiz-adv-x="1972" 
d="M1098 897v-383l2 -377q2 -39 15.5 -54.5t60.5 -21.5l98 -14v-47h-549v47l86 14q50 8 66 25t18 49q4 234 4 379v383h-455v-383l2 -377q2 -39 15.5 -54.5t60.5 -21.5l99 -14v-47h-549v47l86 14q50 8 66 25t18 49q4 234 4 379v383l-166 16v60h166v41q0 126 28.5 226t74 162
t106.5 102.5t122 56.5t125 16q89 0 177.5 -27.5t126.5 -74.5q122 163 331 163q148 0 254 -34l187 18q0 -51 -1 -232t-1 -264v-612l4 -377q2 -40 14 -54.5t59 -21.5l95 -14v-47h-545v47l86 14q50 8 66 25t18 49q4 234 4 379v879q-34 0 -60 13.5t-41.5 33t-33 42t-33 42
t-43.5 32.5t-63 13q-92 0 -142 -82q-60 -114 -63 -338v-176h332v-76h-332zM444 973h455v123q0 123 31 225q-32 5 -58.5 27.5t-45.5 50.5t-39 56t-48.5 46.5t-64.5 18.5q-26 0 -54 -12t-60.5 -44.5t-57.5 -82t-41.5 -132.5t-16.5 -188v-88z" />
    <glyph glyph-name="f_h" unicode="fh" horiz-adv-x="2009" 
d="M1124 514l4 -377q2 -39 14.5 -54t59.5 -22l94 -14v-47h-544v47l86 14q50 8 66 25t18 49q4 234 4 379v879q-40 1 -69 19t-47.5 44t-37 51.5t-49 43.5t-72.5 18q-61 0 -103 -35.5t-63.5 -101t-30 -138t-8.5 -166.5v-155h332v-76h-332v-383l3 -377q2 -40 14 -54.5t59 -21.5
l94 -14v-47h-544v47l86 14q50 8 66 25t18 49q6 234 6 379v383l-156 16v60h156v114q0 254 118.5 402.5t319.5 148.5q148 0 254 -34l186 18q0 -51 -1 -232t-1 -264v-333q54 111 148.5 174t210.5 63q323 0 323 -393v-164l6 -338q2 -36 16.5 -50.5t67.5 -23.5l86 -14v-47h-542
v47l84 14q51 9 65.5 23.5t16.5 50.5q2 197 2 338v127q0 73 -10 126.5t-33.5 95.5t-67 63.5t-106.5 21.5q-69 0 -146.5 -47t-120.5 -131v-215z" />
    <glyph glyph-name="f_i" unicode="fi" horiz-adv-x="1345" 
d="M444 514l5 -377q2 -40 14 -54.5t59 -21.5l94 -14v-47h-544v47l86 14q50 8 66 25t18 49q4 234 4 379v383l-166 16v60h166v114q0 127 33 227t83 159.5t116.5 98t127 52.5t121.5 14q64 0 125.5 -12t114.5 -34.5t85.5 -60t32.5 -83.5q0 -56 -30.5 -83.5t-77.5 -27.5
q-46 0 -74 25t-41.5 60.5t-27.5 71t-42.5 60.5t-74.5 25q-128 0 -200.5 -113.5t-72.5 -337.5v-155h242v-76h-242v-383zM1120 391l4 -254q2 -39 14.5 -54t59.5 -22l94 -14v-47h-544v47l86 14q50 8 66 25t18 49q4 111 4 256v240l-2 200q-2 32 -14.5 48t-47.5 22l-104 17v55
l368 33l-2 -375v-240z" />
    <glyph glyph-name="f_k" unicode="fk" horiz-adv-x="1927" 
d="M1124 526v-12l4 -377q2 -39 14.5 -54t59.5 -22l94 -14v-47h-544v47l86 14q50 8 66 25t18 49q4 234 4 379v879q-40 1 -69 19t-47.5 44t-37 51.5t-49 43.5t-72.5 18q-61 0 -103 -35.5t-63.5 -101t-30 -138t-8.5 -166.5v-155h332v-76h-332v-383l3 -377q2 -40 14 -54.5
t59 -21.5l94 -14v-47h-544v47l86 14q50 8 66 25t18 49q6 234 6 379v383l-156 16v60h156v114q0 254 118.5 402.5t319.5 148.5q148 0 254 -34l186 18q0 -51 -1 -232t-1 -264v-600l371 351q17 17 11 40.5t-29 26.5l-91 12v48h451v-48l-61 -4q-49 -3 -96 -28t-74 -52l-303 -284
l405 -441q36 -40 75.5 -62t66 -28t77.5 -12v-45h-541v45l148 31z" />
    <glyph glyph-name="f_l" unicode="fl" horiz-adv-x="1320" 
d="M1124 514l4 -377q2 -39 14.5 -54t59.5 -22l94 -14v-47h-544v47l86 14q50 8 66 25t18 49q4 234 4 379v879q-40 1 -69 19t-47.5 44t-37 51.5t-49 43.5t-72.5 18q-61 0 -103 -35.5t-63.5 -101t-30 -138t-8.5 -166.5v-155h332v-76h-332v-383l3 -377q2 -40 14 -54.5t59 -21.5
l94 -14v-47h-544v47l86 14q50 8 66 25t18 49q6 234 6 379v383l-156 16v60h156v114q0 254 118.5 402.5t319.5 148.5q148 0 254 -34l186 18q0 -51 -1 -232t-1 -264v-612z" />
    <glyph glyph-name=".notdef" horiz-adv-x="1427" 
d="M205 0v1612h1018v-1612h-1018zM229 1591v-1571h969v1571h-969z" />
    <glyph glyph-name=".null" horiz-adv-x="0" 
 />
    <glyph glyph-name="nonmarkingreturn" horiz-adv-x="682" 
 />
    <glyph glyph-name="NULL" horiz-adv-x="409" 
 />
    <glyph glyph-name="NULL" horiz-adv-x="409" 
 />
    <glyph glyph-name="CR" unicode="&#xd;" horiz-adv-x="409" 
 />
    <glyph glyph-name="space" unicode=" " horiz-adv-x="409" 
 />
    <glyph glyph-name="exclam" unicode="!" horiz-adv-x="432" 
d="M96 1622q117 27 234 0q0 -128 -21 -325.5t-42 -441.5t-21 -486h-66q0 240 -21 485.5t-42 444t-21 323.5zM215 -29q-56 0 -94.5 39t-38.5 96q0 56 39 95t94 39q57 0 96 -39t39 -95q0 -57 -39 -96t-96 -39z" />
    <glyph glyph-name="quotedbl" unicode="&#x22;" horiz-adv-x="694" 
d="M432 1147l-31 450h191l-31 -450h-129zM133 1147l-31 450h191l-31 -450h-129z" />
    <glyph glyph-name="numbersign" unicode="#" horiz-adv-x="1732" 
d="M250 1010l41 96h371l200 500h103l-201 -500h450l201 500h103l-201 -500h354l-41 -96h-352l-193 -478h398l-41 -96h-395l-175 -436h-102l174 436h-450l-175 -436h-102l174 436h-330l41 96h328l193 478h-373zM725 1010l-193 -478h451l193 478h-451z" />
    <glyph glyph-name="dollar" unicode="$" horiz-adv-x="1370" 
d="M625 -211v184q-295 13 -471 136l-11 313h43q36 -101 82 -170.5t103 -109t117 -57.5t137 -24v664l-127 43q-170 58 -250 170.5t-80 251.5q0 119 62.5 212t165 144.5t229.5 61.5v215h96v-215q197 -7 405 -113l25 -283h-49q-58 144 -158 221.5t-223 88.5v-580l84 -29
q37 -13 53.5 -19t58.5 -23t66 -30t63.5 -37.5t63.5 -47.5t53 -57t45 -69.5t27.5 -81.5t11.5 -97q0 -204 -145.5 -336.5t-380.5 -143.5v-182h-96zM1047 340q0 242 -314 348l-12 4v-633q158 4 242 82.5t84 198.5zM365 1276q0 -103 59 -177.5t197 -121.5l4 -2v545
q-122 -13 -191 -79t-69 -165z" />
    <glyph glyph-name="percent" unicode="%" horiz-adv-x="1847" 
d="M1538 1618l-1075 -1618h-111l1071 1618h115zM739 1161q0 121 -75 203t-191 82t-191 -82t-75 -203q0 -117 71.5 -199.5t194.5 -82.5t194.5 82.5t71.5 199.5zM104 1161q0 159 101 265t268 106t268 -106t101 -265q0 -156 -105 -263t-264 -107t-264 107t-105 263zM1642 342
q0 121 -75 203t-191 82t-191 -82t-75 -203q0 -117 71.5 -200t194.5 -83t194.5 83t71.5 200zM1008 342q0 159 101 265t267 106q167 0 268 -106t101 -265q0 -157 -105 -264t-264 -107q-158 0 -263 107t-105 264z" />
    <glyph glyph-name="ampersand" unicode="&#x26;" horiz-adv-x="1732" 
d="M1708 977v-53l-43.5 -3t-38.5 -4.5t-37 -8t-33.5 -13t-34.5 -20t-34.5 -29t-38.5 -39.5t-41.5 -51.5t-48 -66t-53.5 -81.5l-91 -143l289 -328q34 -41 91.5 -60.5t152.5 -29.5v-47h-604v47q45 6 69 11.5t39 15t12 24t-22 37.5l-139 160q-122 -163 -247 -243.5t-290 -80.5
q-118 0 -212.5 40t-151.5 106t-87 145t-30 162q0 164 121 300t356 198l-26 30q-79 90 -118.5 179t-39.5 163q0 138 101.5 228t285.5 90q156 0 244 -74t88 -201q0 -105 -102 -209t-230 -151l407 -463l156 277q28 46 15 83.5t-68 43.5l-60 6v53h494zM635 80q221 0 422 266
l-467 541q-136 -65 -211.5 -181t-75.5 -253q0 -170 91 -271.5t241 -101.5zM713 1036l24 -28q97 51 164.5 140.5t67.5 190.5q0 87 -55.5 152t-141.5 65q-99 0 -151 -62.5t-52 -150.5q0 -74 37.5 -154t106.5 -153z" />
    <glyph glyph-name="quotesingle" unicode="'" horiz-adv-x="395" 
d="M133 1147l-31 450h191l-31 -450h-129z" />
    <glyph glyph-name="parenleft" unicode="(" horiz-adv-x="696" 
d="M557 1604h121q-139 -134 -237.5 -324.5t-143.5 -385.5t-45 -386q0 -306 118.5 -608t334.5 -500h-123q-206 189 -322.5 488.5t-116.5 617.5t108 611.5t306 486.5z" />
    <glyph glyph-name="parenright" unicode=")" horiz-adv-x="704" 
d="M27 1604h120q198 -193 306 -486.5t108 -611.5t-116 -617.5t-322 -488.5h-123q216 198 334.5 500t118.5 608q0 191 -45 386t-143.5 385.5t-237.5 324.5z" />
    <glyph glyph-name="asterisk" unicode="*" horiz-adv-x="753" 
d="M420 1606v-252l217 133l49 -84l-219 -125l225 -123l-49 -84l-213 127v-256h-96v250l-217 -131l-49 84l219 123l-226 125l50 84l213 -129v258h96z" />
    <glyph glyph-name="plus" unicode="+" horiz-adv-x="1134" 
d="M514 973h104v-412h435v-96h-435v-430h-104v430h-432v96h432v412z" />
    <glyph glyph-name="comma" unicode="," horiz-adv-x="526" 
d="M150 -266l-23 45q61 36 106.5 83.5t45.5 96.5q0 24 -16 43.5t-39 34t-46 30.5t-39 42t-16 59q0 50 37 83.5t90 33.5q82 0 128 -62.5t46 -146.5q0 -114 -81.5 -204.5t-192.5 -137.5z" />
    <glyph glyph-name="hyphen" unicode="-" horiz-adv-x="806" 
d="M102 471v96h603v-96h-603z" />
    <glyph glyph-name="period" unicode="." horiz-adv-x="538" 
d="M276 -29q-63 0 -108 46.5t-45 113.5q0 63 45 108.5t108 45.5q67 0 113.5 -45.5t46.5 -108.5q0 -67 -46 -113.5t-114 -46.5z" />
    <glyph glyph-name="slash" unicode="/" horiz-adv-x="796" 
d="M797 1669l-688 -1737h-109l688 1737h109z" />
    <glyph glyph-name="zero" unicode="0" horiz-adv-x="1478" 
d="M739 1386q-57 0 -106.5 -17.5t-98.5 -64t-83.5 -119.5t-56 -193t-21.5 -275t21.5 -274t56 -191t83.5 -117t98 -61.5t107 -16.5t107 16.5t98.5 61.5t84 117t56 191t21.5 274t-21.5 275t-56 193t-83.5 119.5t-99 64t-107 17.5zM739 -29q-133 0 -242.5 48t-188.5 140.5
t-122 235.5t-43 324q0 180 46.5 324.5t128 237.5t190 142.5t235.5 49.5q283 0 437.5 -195.5t154.5 -562.5q0 -180 -46.5 -323t-128 -234t-189 -139t-232.5 -48z" />
    <glyph glyph-name="one" unicode="1" horiz-adv-x="800" 
d="M348 422v612l-4 242q-72 -11 -262 -6v49q8 2 47.5 12.5t54 14.5t52.5 15t58 17.5t54.5 19t58.5 23t53 24t54 28.5h33v-1051l2 -189q1 -49 5 -73.5t19 -46.5t43.5 -32.5t79.5 -19.5l84 -14v-47h-688v47l103 14q51 7 81 19t45 35t19.5 47t5.5 67q2 78 2 193z" />
    <glyph glyph-name="two" unicode="2" horiz-adv-x="1239" 
d="M285 1018l-78 14q-2 187 129.5 314t345.5 127q171 0 287 -94t116 -257q0 -77 -28 -157t-63.5 -144t-110.5 -145t-126 -130.5t-157 -132t-156 -119.5t-167 -120q-7 -5 -11 -8h434q51 0 85.5 1.5t70.5 6t60 12.5t48.5 22t40.5 34t31 48t26 64.5t21 83.5h47v-438h-1101
l-6 33q39 34 114.5 99t118.5 102t112.5 99.5t111 104t98.5 101.5t91.5 105.5t73 104t59 108.5t34.5 106t14 110q0 134 -62.5 205.5t-183.5 71.5q-135 0 -221.5 -94.5t-97.5 -237.5z" />
    <glyph glyph-name="three" unicode="3" horiz-adv-x="1136" 
d="M745 1169q0 97 -63.5 143t-167.5 46q-37 0 -77 -11t-83 -35t-80 -71t-57 -111l-70 21q21 91 70 157t113.5 100t128.5 49.5t131 15.5q155 0 260.5 -72.5t105.5 -200.5q0 -124 -102 -226.5t-279 -158.5q126 -6 218 -40t143 -89t74.5 -119t23.5 -139q0 -91 -32 -172
t-94 -145.5t-163 -102t-229 -37.5q-115 0 -222.5 38.5t-173 101t-65.5 129.5q0 37 27 63.5t65 26.5q21 0 38.5 -6.5t28 -14t23 -25.5t17.5 -27.5t17 -35.5t16 -35q67 -145 227 -145q142 0 220.5 96t78.5 240q0 155 -92.5 235t-257.5 80q-66 0 -133 -20v59q103 35 185.5 91
t130.5 117t73.5 120.5t25.5 109.5z" />
    <glyph glyph-name="four" unicode="4" horiz-adv-x="1325" 
d="M909 455v-144l4 -147q0 -44 23 -68t102 -35l107 -14v-47h-670v47l109 14q52 6 81 24.5t35.5 36t6.5 40.5l3 47l1 102v144h-682l-19 30l862 1059h37v-915h140q98 0 136 32t58 138h41v-344h-375zM236 629h475v573z" />
    <glyph glyph-name="five" unicode="5" horiz-adv-x="1153" 
d="M1020 1534l-47 -295h-635l-74 -401q141 114 326 114q215 0 343 -117t128 -327q0 -237 -149 -387t-394 -150q-111 0 -223.5 38.5t-186 102.5t-73.5 130q0 42 27 70t73 28q34 0 59.5 -21.5t38 -48t30 -65.5t32.5 -60q74 -100 205 -100q152 0 241.5 113.5t89.5 283.5
q0 160 -83 256.5t-242 96.5q-188 0 -326 -150l-33 8l140 781h491q86 0 130 22t67 78h45z" />
    <glyph glyph-name="six" unicode="6" horiz-adv-x="1314" 
d="M1042 1565l21 -64q-167 -62 -286.5 -133t-201 -160.5t-129.5 -194t-73 -239.5q18 38 46.5 73.5t72.5 70.5t108 56t139 21q62 0 124 -15t126 -52.5t112.5 -93t79.5 -144.5t31 -198q0 -144 -73.5 -264t-198 -188.5t-270.5 -68.5q-255 0 -401 171t-146 444q0 162 50.5 305.5
t136.5 252t204 195t250.5 142t277.5 84.5zM989 483q0 185 -83.5 302.5t-217.5 117.5q-106 0 -187 -58.5t-122 -155.5t-41 -216q0 -185 89 -306.5t230 -121.5q153 0 242.5 118.5t89.5 319.5z" />
    <glyph glyph-name="seven" unicode="7" horiz-adv-x="1089" 
d="M877 1239h-594q-85 0 -126.5 -32t-60.5 -134h-45l49 363h942l19 -19l-916 -1630l-170 98z" />
    <glyph glyph-name="eight" unicode="8" horiz-adv-x="1255" 
d="M193 1206q0 153 117 256t323 103t317 -79.5t111 -209.5q0 -226 -338 -387l88 -49q168 -93 245 -193.5t77 -232.5q0 -79 -35 -156t-99 -142t-167.5 -105t-227.5 -40q-132 0 -240.5 47.5t-174.5 142t-66 218.5q0 130 86.5 239t241.5 177q-126 75 -192 183t-66 228zM293 389
q0 -161 79.5 -250.5t235.5 -89.5q153 0 237.5 77.5t84.5 205.5q0 45 -8.5 80t-33 75.5t-73.5 81.5t-125 86l-192 113q-101 -64 -153 -168t-52 -211zM899 1245q0 117 -64 180.5t-196 63.5q-260 0 -260 -213q0 -197 278 -350l25 -15q217 146 217 334z" />
    <glyph glyph-name="nine" unicode="9" horiz-adv-x="1314" 
d="M272 -158l-24 60q142 56 246.5 116t179 124.5t126.5 144.5t84.5 165.5t57.5 198.5q-14 -30 -34 -59t-53 -62t-72 -57.5t-93.5 -40.5t-114.5 -16q-61 0 -123.5 17t-126 57t-112.5 98t-80 148t-31 200q0 147 74 271.5t199 196t270 71.5q128 0 232 -45t172.5 -125
t105.5 -189t37 -237q0 -167 -52 -318t-139.5 -265.5t-206.5 -207.5t-250 -153t-272 -93zM326 936q0 -186 83.5 -306t217.5 -120q106 0 187 62.5t122 163.5t41 220q0 186 -91 315.5t-231 129.5q-152 0 -240.5 -127t-88.5 -338z" />
    <glyph glyph-name="colon" unicode=":" horiz-adv-x="559" 
d="M276 717q-63 0 -108 46.5t-45 113.5q0 63 45 108t108 45q67 0 113.5 -45t46.5 -108q0 -67 -46 -113.5t-114 -46.5zM276 -29q-63 0 -108 46.5t-45 113.5q0 63 45 108.5t108 45.5q67 0 113.5 -45.5t46.5 -108.5q0 -67 -46 -113.5t-114 -46.5z" />
    <glyph glyph-name="semicolon" unicode=";" horiz-adv-x="559" 
d="M276 717q-63 0 -108 46.5t-45 113.5q0 63 45 108t108 45q67 0 113.5 -45t46.5 -108q0 -67 -46 -113.5t-114 -46.5zM150 -266l-23 45q61 36 106.5 83.5t45.5 96.5q0 24 -16 43.5t-39 34t-46 30.5t-39 42t-16 59q0 50 37 83.5t90 33.5q82 0 128 -62.5t46 -146.5
q0 -114 -81.5 -204.5t-192.5 -137.5z" />
    <glyph glyph-name="less" unicode="&#x3c;" horiz-adv-x="1136" 
d="M102 471v96l1035 463v-110l-914 -400l914 -432v-115z" />
    <glyph glyph-name="equal" unicode="=" horiz-adv-x="1134" 
d="M102 287v96h930v-96h-930zM102 655v97h930v-97h-930z" />
    <glyph glyph-name="greater" unicode="&#x3e;" horiz-adv-x="1136" 
d="M1034 567v-96l-1034 -498v115l913 432l-913 400v110z" />
    <glyph glyph-name="question" unicode="?" horiz-adv-x="788" 
d="M354 -29q-56 0 -94.5 39t-38.5 96q0 56 39 95t94 39q57 0 96 -39t39 -95q0 -57 -39 -96t-96 -39zM377 389l-45 -31q-111 120 -111 285q0 77 23.5 148t58.5 122.5t76 108.5t76 107t58.5 117t23.5 138q0 47 -13.5 89.5t-46 74t-78.5 31.5q-34 0 -60.5 -20.5t-43.5 -49.5
t-34.5 -57.5t-45 -49t-63.5 -20.5q-40 0 -65.5 25t-25.5 66q3 49 53 86t119 54t144 17q147 0 248.5 -75t101.5 -216q0 -67 -21.5 -131.5t-55.5 -119t-75 -108t-82.5 -107.5t-75.5 -108.5t-55.5 -119.5t-21.5 -133q0 -74 37 -123z" />
    <glyph glyph-name="at" unicode="@" horiz-adv-x="1951" 
d="M1849 848q0 -169 -61 -304.5t-170 -211.5t-244 -76q-173 0 -257 82t-81 205q-69 -95 -165.5 -147t-186.5 -52q-55 0 -98.5 25.5t-68.5 66.5t-37.5 87.5t-12.5 94.5q0 105 27.5 202t76.5 173.5t113.5 134t142.5 88.5t160 31q99 0 176 -49l19 64h184l-100 -541
q-37 -183 -0.5 -278t155.5 -95q133 0 229.5 139t96.5 361q0 319 -205.5 510.5t-544.5 191.5q-157 0 -301.5 -63.5t-250.5 -171t-169 -257.5t-63 -315q0 -283 166 -479q104 -121 263.5 -185.5t338.5 -64.5q106 0 231 27l17 -84q-130 -31 -271 -31q-198 0 -374 70t-289 201
q-191 219 -191 544q0 149 44.5 285.5t126.5 246.5t193 192t251 126.5t293 44.5q131 0 252 -29t228 -92t186 -153.5t125 -222.5t46 -291zM809 461q20 0 45.5 6.5t60 22.5t70 50t62.5 81l77 409q-1 44 -14 76.5t-33.5 49t-41.5 24.5t-42 8q-69 0 -143 -90.5t-121 -219
t-47 -237.5q0 -89 33.5 -134.5t93.5 -45.5z" />
    <glyph glyph-name="A" unicode="A" horiz-adv-x="1601" 
d="M229 266l529 1358h51l616 -1472q36 -91 125 -99l72 -6v-47h-629v47l97 8q67 9 83.5 37t-6.5 80l-155 395h-559l-111 -291q-20 -54 -25 -93.5t0.5 -62.5t23.5 -37.5t37.5 -20.5t49.5 -9l61 -6v-47h-509v47l53 6q67 8 108.5 51t87.5 162zM729 1292l-223 -583h450z" />
    <glyph glyph-name="B" unicode="B" horiz-adv-x="1513" 
d="M768 793h-219v-236l2 -354q0 -38 7.5 -61.5t20.5 -38.5t42.5 -22t62.5 -9t92 -2q210 0 307 90.5t97 283.5q0 161 -105 255t-307 94zM549 1501v-637h168q185 0 284 86t99 252q0 320 -375 305zM123 0v47l102 14q53 8 78 29.5t25 73.5q0 16 1 155t1 238v487l-2 375
q0 52 -25 73.5t-78 29.5l-102 14v47q504 0 631 4q120 4 219 -14.5t178.5 -61.5t123.5 -120t44 -183q0 -140 -103.5 -240.5t-244.5 -123.5q117 -5 215.5 -52.5t161.5 -139t63 -208.5q0 -139 -75.5 -241t-203 -152.5t-290.5 -50.5h-719z" />
    <glyph glyph-name="C" unicode="C" horiz-adv-x="1683" 
d="M1554 442h48l-62 -309q-122 -81 -278 -121.5t-293 -40.5q-204 0 -371.5 64.5t-276.5 175.5t-168 258.5t-59 314.5q0 181 67 336.5t181.5 262t270 167t329.5 60.5q53 0 107.5 -5t91.5 -9.5t99.5 -18.5t88 -20t103.5 -27t102 -27l37 -309h-43q-167 326 -590 326
q-92 0 -176.5 -26t-161.5 -84t-134 -142.5t-90.5 -210.5t-33.5 -279q0 -144 35.5 -264t96 -202.5t141.5 -140t170 -84t184 -26.5q61 0 118.5 8t128.5 32.5t130.5 65t115.5 111t92 164.5z" />
    <glyph glyph-name="D" unicode="D" horiz-adv-x="1800" 
d="M547 1495v-938q0 -116 1 -229t1 -117q0 -38 7.5 -60.5t24 -39t54.5 -23.5t85.5 -9.5t131.5 -2.5q66 0 127.5 9.5t125.5 33.5t118.5 61t103 95.5t82.5 132.5t54 176.5t20 224.5q0 123 -23.5 224t-63 172t-98 125t-122 87t-142 53t-150 27.5t-153.5 7.5q-79 0 -184 -10z
M123 1536v47q92 -1 271 1.5t247 2.5q119 0 215 -6t203 -22t199.5 -49.5t164.5 -84.5q145 -101 224 -257t79 -363q0 -186 -62 -337.5t-174.5 -254t-271.5 -158t-350 -55.5h-745v47l100 14q53 8 78 29.5t25 73.5q0 16 1 155t1 238v487l-2 375q0 52 -25 73.5t-78 29.5z" />
    <glyph glyph-name="E" unicode="E" horiz-adv-x="1527" 
d="M123 1536v47h1204v-354h-49q-14 140 -85 198t-202 64q-220 10 -440 0q-2 -254 -2 -424v-193h301q133 0 183.5 37.5t62.5 155.5h49v-475h-49q-7 68 -22 107.5t-48 59t-69.5 24.5t-106.5 5h-301v-274l2 -303q0 -31 2 -51.5t9.5 -35t15 -21.5t26 -11t35 -5t49.5 -1
q245 0 377 6q143 7 208.5 76t78.5 199h49l4 -367h-1282v47l102 14q53 8 78 29.5t25 73.5q0 16 1 155t1 238v487l-2 375q0 52 -25 73.5t-78 29.5z" />
    <glyph glyph-name="F" unicode="F" horiz-adv-x="1372" 
d="M123 0v47l102 14q53 8 78 29.5t25 73.5q0 16 1 155t1 238v487l-2 375q0 52 -25 73.5t-78 29.5l-102 14v47h1225v-354h-50q-14 140 -84.5 198t-201.5 64q-231 11 -461 0q-2 -254 -2 -424v-193h260q133 0 183.5 37.5t62.5 155.5h49v-475h-49q-7 68 -22 107.5t-48 59
t-69.5 24.5t-106.5 5h-260v-274l4 -350q0 -53 29.5 -74t103.5 -29l133 -14v-47h-696z" />
    <glyph glyph-name="G" unicode="G" horiz-adv-x="1806" 
d="M1665 625q-52 -8 -77 -29.5t-25 -73.5q-2 -191 -2 -377q-111 -81 -282 -127.5t-343 -46.5q-191 0 -351.5 66.5t-266.5 179.5t-165 262t-59 314q0 180 67.5 334t182 258t268 162.5t324.5 58.5q62 0 115.5 -4t123 -18.5t98.5 -21t124.5 -32t118.5 -31.5l36 -309h-43
q-164 326 -571 326q-94 0 -178 -23t-161.5 -77.5t-133.5 -135.5t-89.5 -206t-33.5 -281q0 -177 48.5 -319t132 -231.5t193 -136.5t234.5 -47q71 0 161.5 13.5t143.5 36.5q56 24 71 42t15 60l-2 311q0 53 -26.5 74t-89.5 31l-90 12v47h622v-47z" />
    <glyph glyph-name="H" unicode="H" horiz-adv-x="1955" 
d="M1626 1044v-487l2 -393q0 -52 25 -73.5t78 -29.5l102 -14v-47h-633v47l103 14q52 8 77 29.5t25 73.5q0 16 1 155t1 238v234h-858v-234l2 -393q0 -52 25 -73.5t77 -29.5l103 -14v-47h-633v47l102 14q53 8 78 29.5t25 73.5q0 16 1 155t1 238v487l-2 375q0 52 -25 73.5
t-78 29.5l-102 14v47h633v-47l-103 -14q-52 -8 -77 -29.5t-25 -73.5q-2 -189 -2 -375v-167h858v167l-2 375q0 52 -25 73.5t-77 29.5l-103 14v47h633v-47l-102 -14q-53 -8 -78 -29.5t-25 -73.5q-2 -189 -2 -375z" />
    <glyph glyph-name="I" unicode="I" horiz-adv-x="878" 
d="M549 1044v-487l2 -393q0 -52 25 -73.5t77 -29.5l103 -14v-47h-633v47l102 14q53 8 78 29.5t25 73.5q0 16 1 155t1 238v487l-2 375q0 52 -25 73.5t-78 29.5l-102 14v47h633v-47l-103 -14q-52 -8 -77 -29.5t-25 -73.5q-2 -189 -2 -375z" />
    <glyph glyph-name="J" unicode="J" horiz-adv-x="966" 
d="M492 1044l-3 375q0 53 -29.5 74.5t-105.5 30.5l-98 12v47h662v-47l-103 -14q-52 -8 -77 -29.5t-25 -73.5q-2 -189 -2 -375v-389q0 -66 -1 -114.5t-4 -106.5t-9.5 -99.5t-16.5 -88.5t-25.5 -80t-36 -66.5t-48.5 -55t-63 -39.5t-79.5 -26t-97.5 -8q-103 0 -194 53.5
t-91 135.5q0 46 28 80t81 34q41 0 67.5 -19.5t37.5 -48t19.5 -62.5t14.5 -62.5t21.5 -48t41.5 -19.5q71 0 103.5 149t32.5 492v389z" />
    <glyph glyph-name="K" unicode="K" horiz-adv-x="1603" 
d="M549 1044v-235l459 471q145 150 151 203q5 36 -46 47q-27 6 -73 6v47h506v-47l-33 -2q-51 -3 -109 -30t-116 -74t-95.5 -81.5t-84.5 -82.5l-350 -367l618 -729q30 -35 64.5 -59.5t72 -37t63.5 -17.5t62 -9v-47h-649v47l76 8q42 4 60 13.5t14 31.5t-37 60l-553 649v-252
l2 -393q0 -52 25 -73.5t77 -29.5l103 -14v-47h-633v47l102 14q53 8 78 29.5t25 73.5q0 16 1 155t1 238v487l-2 375q0 52 -25 73.5t-78 29.5l-102 14v47h633v-47l-103 -14q-52 -8 -77 -29.5t-25 -73.5q-2 -189 -2 -375z" />
    <glyph glyph-name="L" unicode="L" horiz-adv-x="1425" 
d="M330 557v487l-2 375q0 52 -25 73.5t-78 29.5l-102 14v47h659v-47l-112 -12q-64 -8 -91.5 -30t-27.5 -75q-2 -182 -2 -352v-553l2 -303q0 -31 2 -51.5t9.5 -35t15 -21.5t26 -11t35 -5t49.5 -1q224 0 356 6q143 7 208.5 76t78.5 199h49l4 -367h-1261v47l102 14
q53 8 78 29.5t25 73.5q0 16 1 155t1 238z" />
    <glyph glyph-name="M" unicode="M" horiz-adv-x="2197" 
d="M2003 61l113 -14v-47h-650v47l103 14q54 8 79.5 30t22.5 73q-6 166 -16 383l-41 839l-531 -1404h-34l-576 1407l-53 -1153q-2 -32 0.5 -56t14.5 -50.5t34.5 -43.5t64.5 -28t101 -11v-47h-567v47q121 3 177.5 56.5t59.5 129.5l66 1176q8 109 -101 119l-118 8v47h489
l481 -1216l457 1216h471v-47l-119 -8q-105 -10 -100 -127l43 -850l27 -387q3 -52 27 -73.5t75 -29.5z" />
    <glyph glyph-name="N" unicode="N" horiz-adv-x="1867" 
d="M330 582v800l-25 29q-101 118 -182 125v47h352l1026 -1212v633l-4 296q-1 45 -3.5 71.5t-15 62t-35 55t-66 33.5t-105.5 14v47h559v-47q-61 0 -104 -13.5t-66 -32.5t-35.5 -53t-15.5 -62.5t-4 -74.5q-4 -158 -4 -299v-1030h-56l-1116 1295v-686l4 -297q1 -45 3.5 -71.5
t15 -62t35 -55t66 -33.5t105.5 -14v-47h-559v47q44 0 78.5 7t58 17.5t40.5 29t26 36t14 44.5t6.5 48.5t2.5 53.5q4 172 4 299z" />
    <glyph glyph-name="O" unicode="O" horiz-adv-x="1810" 
d="M905 1524q-93 0 -175 -24.5t-155.5 -80.5t-126.5 -140t-83.5 -210t-30.5 -283t31 -282t83.5 -207.5t126 -137.5t155.5 -78.5t175 -23.5t175 23.5t156 78.5t126.5 137.5t83.5 207.5t31 282q0 195 -46.5 341.5t-127.5 231t-180.5 125t-217.5 40.5zM905 -29
q-170 0 -320.5 60t-260.5 166t-174 260.5t-64 335.5q0 240 110 428t296 288.5t413 100.5q135 0 259.5 -38.5t225.5 -112t176.5 -174t116.5 -230.5t41 -275q0 -181 -64 -333.5t-174 -256t-260 -161.5t-321 -58z" />
    <glyph glyph-name="P" unicode="P" horiz-adv-x="1404" 
d="M557 1495v-727q97 -23 164 -23q189 0 306.5 94.5t117.5 286.5q0 109 -34.5 186.5t-95.5 118.5t-130 58.5t-154 17.5q-95 0 -174 -12zM131 1536v47q199 -1 290.5 -0.5t179 1.5t122.5 1q86 0 157.5 -7t148 -23.5t135 -49.5t106 -81.5t73 -122.5t25.5 -168
q0 -218 -153 -339.5t-398 -121.5q-130 0 -260 41v-135l4 -414q0 -53 29.5 -74t103.5 -29l133 -14v-47h-696v47l102 14q53 8 78 29.5t25 73.5q0 27 1 161.5t1 231.5v487q0 96 -1 222t-1 153q0 52 -25 73.5t-78 29.5z" />
    <glyph glyph-name="Q" unicode="Q" horiz-adv-x="1810" 
d="M905 -29q-170 0 -320.5 60t-260.5 166t-174 260.5t-64 335.5q0 240 110 428t296 288.5t413 100.5q135 0 259.5 -38.5t225.5 -112t176.5 -174t116.5 -230.5t41 -275q0 -238 -105 -419.5t-288 -282.5l289 -365l-27 -30l-553 299q-83 -11 -135 -11zM905 1524
q-93 0 -175 -24.5t-155.5 -80.5t-126.5 -140t-83.5 -210t-30.5 -283t31 -282t83.5 -207.5t126 -137.5t155.5 -78.5t175 -23.5t175 23.5t156 78.5t126.5 137.5t83.5 207.5t31 282q0 195 -46.5 341.5t-127.5 231t-180.5 125t-217.5 40.5z" />
    <glyph glyph-name="R" unicode="R" horiz-adv-x="1634" 
d="M549 1503v-690h121q430 0 430 371q0 81 -25.5 141.5t-65.5 95.5t-98.5 56t-114.5 27.5t-124 6.5q-60 0 -123 -8zM123 1536v47q95 -2 305 1t285 3q66 0 123.5 -4t121.5 -15t116 -29t100.5 -48.5t81 -71t52 -99t19.5 -130.5t-30.5 -141t-86.5 -126t-144 -94t-194 -41
q159 -17 251 -95t145 -240q28 -85 49.5 -140.5t47.5 -106t51.5 -78.5t60 -48.5t75 -27.5t95.5 -5l8 -31q-56 -26 -102 -35.5t-109 -9.5q-81 0 -146.5 31.5t-113 92t-81.5 134t-61 170.5q-26 93 -64.5 159.5t-81 104.5t-102 59t-114.5 27.5t-131 6.5v-199l4 -393
q0 -54 25 -74t98 -29l123 -14v-47h-676v47l102 14q53 8 78 29.5t25 73.5q2 99 2 393v487q0 96 -1 222t-1 153q0 52 -25 73.5t-78 29.5z" />
    <glyph glyph-name="S" unicode="S" horiz-adv-x="1370" 
d="M1047 340q0 242 -314 348l-235 80q-170 58 -250 170.5t-80 251.5q0 128 72 225t187 146t253 49q133 0 236.5 -31t209.5 -84l25 -283h-49q-62 155 -173 233.5t-245 78.5q-147 0 -233 -68t-86 -180q0 -103 59 -177.5t197 -121.5l184 -64q37 -13 53.5 -19t58.5 -23t66 -30
t63.5 -37.5t63.5 -47.5t53 -57t45 -69.5t27.5 -81.5t11.5 -97q0 -213 -155.5 -346.5t-405.5 -133.5q-156 0 -295.5 35.5t-236.5 102.5l-11 313h43q33 -91 75 -157t88 -105.5t105 -62.5t116 -30.5t132 -7.5q166 0 255.5 79t89.5 202z" />
    <glyph glyph-name="T" unicode="T" horiz-adv-x="1456" 
d="M842 557l2 -393q0 -54 29.5 -76.5t101.5 -30.5l115 -10v-47h-715v47l108 10q76 8 107 30.5t31 76.5q0 27 1 161.5t1 231.5v467q0 124 -1 297t-1 174h-230q-172 0 -248 -68.5t-92 -218.5h-49l21 375h1433l-6 -375h-47q-8 77 -24.5 127t-52.5 88t-96 55t-151 17h-235
q0 -7 -1 -188.5t-1 -282.5v-467z" />
    <glyph glyph-name="U" unicode="U" horiz-adv-x="1792" 
d="M272 1024l-2 395q0 52 -25 73.5t-77 29.5l-102 14v47h632v-47l-102 -14q-52 -8 -77 -29.5t-25 -73.5q-2 -209 -2 -395v-350q0 -136 23 -239.5t74 -183t139 -120.5t212 -41q469 0 469 578v336l-4 296q-1 44 -4 71.5t-15.5 62t-35.5 54.5t-66 34t-104 14v47h563v-47
q-60 0 -102.5 -13t-65.5 -32.5t-36 -53.5t-16.5 -63t-4.5 -74q-5 -158 -5 -299v-342q0 -336 -154 -512t-458 -176q-318 0 -473.5 173.5t-155.5 519.5v360z" />
    <glyph glyph-name="V" unicode="V" horiz-adv-x="1644" 
d="M1128 1536v47h517v-47l-54 -6q-68 -8 -109.5 -50t-86.5 -163l-529 -1366h-53l-616 1481q-35 90 -125 98l-72 6v47h629v-47l-97 -8q-67 -9 -83.5 -37t6.5 -80l438 -1128l383 1024q20 54 25.5 93.5t0 62.5t-23.5 37.5t-38 20.5t-50 9z" />
    <glyph glyph-name="W" unicode="W" horiz-adv-x="2168" 
d="M1298 1528q-65 -6 -81.5 -34.5t0.5 -82.5q24 -121 73 -287l230 -782l282 965q20 69 23 113t-13 66.5t-37 31t-59 12.5l-61 6v47h514v-47l-53 -6q-72 -8 -116 -50.5t-81 -162.5l-418 -1346h-63l-357 1110l-338 -1110h-69l-357 1110q-83 268 -120 351q-20 44 -48 69t-77 29
l-72 6v47h608v-47l-76 -8q-65 -7 -81.5 -35t0.5 -82q42 -174 75 -287l232 -786l274 897l-69 197q-30 87 -125 98l-52 6v47h609v-47z" />
    <glyph glyph-name="X" unicode="X" horiz-adv-x="1697" 
d="M1286 1311l-328 -412l531 -758q33 -48 85 -67t124 -27v-47h-664v47l119 6q58 3 71.5 28t-16.5 66l-399 566l-373 -469q-51 -64 -62.5 -108t9.5 -63.5t68 -21.5l90 -4v-47h-541v47l49 4q36 2 64.5 11.5t49.5 21t51.5 43.5t52 58t69.5 87l416 523l-455 651q-23 34 -61 54
t-66.5 25.5t-77.5 10.5v47h643v-47l-106 -6q-108 -8 -47 -94l319 -455l285 358q39 49 56 85.5t12.5 59t-24 34.5t-54.5 14l-74 4v47h520v-47l-49 -4q-85 -6 -135 -46.5t-152 -174.5z" />
    <glyph glyph-name="Y" unicode="Y" horiz-adv-x="1513" 
d="M492 57q74 8 100 30t26 77q0 28 1.5 152t1.5 221v176l-424 719q-13 22 -23.5 35t-31.5 29.5t-56.5 26t-85.5 13.5v47h629v-47l-97 -8q-136 -12 -77 -117l348 -608l313 504q32 52 46.5 90.5t13.5 61.5t-17.5 38.5t-38.5 22t-57 10.5l-59 6v47h509v-47l-55 -6
q-63 -7 -109 -51t-120 -162l-389 -608v-172l2 -373q0 -55 25.5 -77t95.5 -30l114 -10v-47h-694v47z" />
    <glyph glyph-name="Z" unicode="Z" horiz-adv-x="1413" 
d="M61 20l1002 1475q-191 9 -424 -2q-190 -9 -287 -88.5t-110 -206.5h-47q34 311 34 385h1102l21 -29l-998 -1468q97 -4 297 -4t297 4q175 9 254.5 85.5t95.5 229.5h48l4 -401h-1276z" />
    <glyph glyph-name="bracketleft" unicode="[" horiz-adv-x="612" 
d="M184 1618h418v-92h-313v-2034h313v-92h-418v2218z" />
    <glyph glyph-name="backslash" unicode="\" horiz-adv-x="798" 
d="M690 -68l-688 1737h109l688 -1737h-109z" />
    <glyph glyph-name="bracketright" unicode="]" horiz-adv-x="612" 
d="M10 1618h418v-2218h-418v96h314v2026h-314v96z" />
    <glyph glyph-name="asciicircum" unicode="^" horiz-adv-x="1097" 
d="M483 1606h97l415 -850h-114l-351 729l-317 -729h-111z" />
    <glyph glyph-name="underscore" unicode="_" horiz-adv-x="1599" 
d="M123 -98v98h1354v-98h-1354z" />
    <glyph glyph-name="grave" unicode="`" horiz-adv-x="428" 
d="M246 1583l157 -418h-41l-346 418h230z" />
    <glyph glyph-name="a" unicode="a" horiz-adv-x="1073" 
d="M852 768l-6 -498q-2 -84 18 -130t72 -46q51 0 102 51l29 -24q-86 -144 -221 -144q-72 0 -121.5 40t-62.5 124q-110 -172 -302 -172q-122 0 -198 72t-76 180q0 83 40 144t114.5 98t174 54.5t226.5 17.5h14v237q0 93 -34 143t-121 50q-82 0 -124.5 -36t-35.5 -102
q7 -56 -15 -92.5t-77 -36.5q-38 0 -64 28t-26 69q0 101 107 167t255 66q146 0 239.5 -62.5t92.5 -197.5zM289 242q0 -80 43 -122t110 -42q59 0 121 30t94 91v290q-198 -13 -283 -79.5t-85 -167.5z" />
    <glyph glyph-name="b" unicode="b" horiz-adv-x="1255" 
d="M399 848v-334l2 -371q81 -51 179 -51q111 0 194.5 58.5t125.5 153.5t42 210q0 114 -35 207t-108 151t-174 58q-63 0 -124.5 -20t-101.5 -62zM25 1610l378 28q-4 -245 -4 -491v-248q112 131 293 131q140 0 247.5 -67.5t163.5 -184t56 -262.5q0 -88 -30.5 -176t-89 -165.5
t-157.5 -126t-223 -48.5q-156 0 -260 98l-8 -100l-364 2v47l86 14q41 7 62 22.5t22 51.5q4 94 4 420v551l-4 350q0 39 -13 58t-49 26l-110 23v47z" />
    <glyph glyph-name="c" unicode="c" horiz-adv-x="1046" 
d="M944 268l53 -24q-28 -65 -67 -114.5t-79.5 -79t-87.5 -48t-87.5 -25t-83.5 -6.5q-158 0 -273 72.5t-171 190.5t-56 264q0 236 149.5 384t381.5 148q74 0 152 -19.5t137 -61.5t59 -95q0 -41 -26.5 -66.5t-59.5 -25.5q-42 0 -68.5 21t-40.5 51t-30 59.5t-50 50.5t-88 21
q-51 0 -104 -28.5t-98.5 -80.5t-74 -136t-28.5 -185q0 -195 90.5 -320t247.5 -125q202 0 303 178z" />
    <glyph glyph-name="d" unicode="d" horiz-adv-x="1263" 
d="M864 514v352q-78 64 -202 64q-151 0 -250 -119t-99 -303q0 -203 95 -318.5t233 -115.5t221 78zM688 1610l387 28q-12 -218 -12 -512v-469q0 -433 6 -503q3 -35 20.5 -54t55.5 -26l96 -21v-47l-360 -24l-15 124q-54 -69 -132 -102t-163 -33q-145 0 -254 72.5t-165 194
t-56 272.5q0 146 66.5 265.5t180 187t249.5 67.5q171 0 272 -112v249l-4 289q0 40 -12.5 58.5t-48.5 25.5l-111 23v47z" />
    <glyph glyph-name="e" unicode="e" horiz-adv-x="1079" 
d="M1014 600h-713v-68q0 -193 90 -317.5t242 -124.5q219 0 332 201l53 -23q-61 -149 -173.5 -223t-254.5 -74q-155 0 -270 70.5t-172.5 189.5t-57.5 271q0 115 40 215t108 168.5t159 107.5t191 39q174 0 291 -115t135 -317zM584 963q-105 0 -183.5 -83.5t-93.5 -217.5h500
q-6 161 -69.5 231t-153.5 70z" />
    <glyph glyph-name="f" unicode="f" horiz-adv-x="761" 
d="M289 1350q29 79 76.5 137.5t104.5 90t114 46t118 14.5q74 0 138.5 -17t109 -53.5t47.5 -86.5q0 -42 -25.5 -70.5t-64.5 -28.5q-47 0 -75 26t-48 71q-21 47 -49.5 74.5t-75.5 27.5q-51 0 -103 -48.5t-83 -158.5q-29 -102 -29 -309v-92h324v-76h-324v-383l2 -377
q2 -39 15.5 -54.5t60.5 -21.5l119 -14v-47h-569v47l86 14q50 8 66 25t18 49q4 234 4 379v383l-166 16v60h166v41q0 218 43 336z" />
    <glyph glyph-name="g" unicode="g" horiz-adv-x="1142" 
d="M541 1030q107 0 202 -53l414 33q12 -45 13.5 -76t-7 -46.5t-23.5 -22.5t-35.5 -5.5t-42.5 6.5t-46 11q-7 2 -11.5 3.5t-9.5 2.5l-186 49q66 -55 103.5 -130t37.5 -155q0 -167 -119.5 -268.5t-304.5 -99.5q-118 -4 -182.5 -45.5t-64.5 -90.5q0 -42 31 -63.5t110 -20.5
l264 4q426 6 426 -294q0 -180 -154.5 -286t-404.5 -106q-90 0 -174 17t-156 51.5t-115 93t-43 133.5q0 64 61.5 124t164.5 81q-80 18 -125 74t-45 119q0 32 12 63.5t39.5 66.5t84.5 62t136 39q-117 41 -192 141t-74 226q1 116 60 199.5t151.5 123t204.5 39.5zM680 -131
l-234 -4q-37 -1 -108 6q-49 -33 -79 -81.5t-30 -104.5q0 -60 27.5 -105.5t74 -71.5t102 -38.5t118.5 -12.5q74 0 141 11.5t129.5 36.5t99.5 73.5t37 114.5q0 90 -77 134t-201 42zM748 641q2 154 -48.5 242t-156.5 88q-212 0 -215 -303q-2 -150 48.5 -240t155.5 -90
q47 0 85 19t61.5 49t39.5 70.5t22.5 81t7.5 83.5z" />
    <glyph glyph-name="h" unicode="h" horiz-adv-x="1308" 
d="M424 1147v-359q54 113 149 177.5t211 64.5q324 0 324 -393v-164l6 -338q2 -36 16.5 -50.5t67.5 -23.5l86 -14v-47h-543v47l84 14q51 9 65.5 23.5t16.5 50.5q2 197 2 338v127q0 73 -10 126.5t-33.5 95.5t-67 63.5t-106.5 21.5q-68 0 -145.5 -49t-120.5 -133v-252l2 -336
q2 -39 15.5 -54t60.5 -22l94 -14v-47h-545v47l86 14q50 8 65 25t17 49q4 215 4 338v674v80t-0.5 69t-1 56t-1 45t-1 32t-0.5 20v7q0 40 -12.5 58.5t-48.5 25.5l-111 23v47l379 28q-4 -305 -4 -491z" />
    <glyph glyph-name="i" unicode="i" horiz-adv-x="667" 
d="M244 473v358q0 39 -13 58t-49 26l-112 23v47l372 29v-541l4 -336q2 -39 14.5 -54t59.5 -22l94 -14v-47h-544v47l86 14q50 8 66 25t18 49q4 215 4 338zM334 1276q-59 0 -99 40.5t-40 100.5q0 59 40.5 99t98.5 40q60 0 100.5 -40t40.5 -99q0 -60 -40.5 -100.5t-100.5 -40.5
z" />
    <glyph glyph-name="j" unicode="j" horiz-adv-x="571" 
d="M209 631l-2 194q0 39 -13 58t-49 26l-112 23v47l377 29q-2 -199 -2 -377v-613q0 -88 -5.5 -148t-25 -132t-55.5 -128t-100 -116t-156 -115l-25 39q48 50 80.5 104.5t49.5 100.5t26 112.5t10.5 112.5t1.5 129v654zM289 1276q-59 0 -99 40.5t-40 100.5q0 59 40 99t99 40
q60 0 100.5 -40t40.5 -99q0 -60 -40.5 -100.5t-100.5 -40.5z" />
    <glyph glyph-name="k" unicode="k" horiz-adv-x="1226" 
d="M225 1147v70.5t-0.5 65t-0.5 57v48t-0.5 36t-0.5 24.5v8q0 40 -12.5 58.5t-48.5 25.5l-113 23v47l379 28q-4 -276 -4 -491v-633l283 258q82 76 62 119t-124 43v47h492v-47q-93 -6 -153 -37t-132 -96l-250 -226l406 -428q28 -31 54 -50.5t57 -29.5t49 -13.5t59 -8.5v-45
h-541v45l148 31l-410 438v-41l4 -336q2 -39 15.5 -54t60.5 -22l94 -14v-47h-547v47l86 14q50 8 66 25t18 49q4 215 4 338v674z" />
    <glyph glyph-name="l" unicode="l" horiz-adv-x="608" 
d="M211 1147v70.5t-0.5 65t-0.5 57v48t-0.5 36t-0.5 24.5v8q0 39 -13 58t-49 26l-112 23v47l379 28q-4 -276 -4 -491v-674l4 -336q2 -39 15 -54t60 -22l95 -14v-47h-547v47l86 14q50 8 66 25t18 49q4 215 4 338v674z" />
    <glyph glyph-name="m" unicode="m" horiz-adv-x="1968" 
d="M70 981l360 20l10 -196q55 106 144 165.5t200 59.5q248 0 303 -242q59 117 151 179.5t208 62.5q319 0 319 -393v-164l7 -338q2 -36 16 -50.5t67 -23.5l87 -14v-47h-543v47l84 14q51 9 65.5 23.5t16.5 50.5q2 197 2 338v127q0 151 -46 229t-167 78q-66 0 -138.5 -47.5
t-117.5 -130.5q6 -44 6 -92v-164l6 -338q2 -36 16.5 -50.5t67.5 -23.5l86 -14v-47h-543v47l84 14q51 9 65.5 23.5t16.5 50.5q2 197 2 338v127q0 151 -46 229t-167 78q-64 0 -135 -45t-115 -123v-266l4 -336q2 -39 15.5 -54t60.5 -22l94 -14v-47h-544v47l86 14q50 8 65 25
t17 49q4 215 4 338l-2 365q0 38 -12.5 51.5t-49.5 21.5l-110 23v47z" />
    <glyph glyph-name="n" unicode="n" horiz-adv-x="1316" 
d="M70 981l360 20l10 -208q117 237 355 237q154 0 236.5 -97.5t82.5 -295.5v-164l6 -338q2 -36 16.5 -50.5t67.5 -23.5l86 -14v-47h-549v47l90 14q51 9 65.5 23.5t16.5 50.5q2 197 2 338v127q0 73 -10.5 126.5t-34.5 95.5t-67.5 63.5t-106.5 21.5q-67 0 -136 -45.5
t-118 -138.5v-250l4 -336q2 -39 15.5 -54t60.5 -22l96 -14v-47h-546v47l86 14q50 8 65 25t17 49q4 215 4 338l-2 365q0 38 -12.5 51.5t-49.5 21.5l-110 23v47z" />
    <glyph glyph-name="o" unicode="o" horiz-adv-x="1239" 
d="M612 -29q-159 0 -280 78t-181.5 201t-60.5 268q0 110 44 206.5t117 163t169 104.5t198 38q157 0 279.5 -74.5t187 -198t64.5 -272.5q0 -217 -152.5 -365.5t-384.5 -148.5zM610 53q142 0 229 118.5t87 324.5q0 198 -83.5 325t-219.5 127q-140 0 -224 -120t-84 -326
q0 -122 35.5 -224t103.5 -163.5t156 -61.5z" />
    <glyph glyph-name="p" unicode="p" horiz-adv-x="1259" 
d="M406 70v-152l6 -381q2 -40 15 -55t60 -21l115 -14v-47h-567v47l86 14q50 8 66 25t18 49q4 272 4 385l-2 911q0 39 -13 58t-49 26l-110 23v47l360 21l11 -107q112 131 292 131q211 0 339 -149.5t128 -376.5q0 -72 -17.5 -145t-57 -143.5t-95.5 -124.5t-139.5 -87
t-183.5 -33q-70 0 -142 24.5t-124 74.5zM406 848l2 -733q82 -52 176 -52q110 0 195 63t127 162t42 214t-34.5 210t-108.5 156.5t-174 61.5q-63 0 -124 -20t-101 -62z" />
    <glyph glyph-name="q" unicode="q" horiz-adv-x="1253" 
d="M856 152l2 714q-82 64 -203 64q-152 0 -250 -116.5t-98 -301.5q0 -204 95 -321t233 -117t221 78zM858 918l31 81l334 -14v-61l-105 -17q-36 -6 -48.5 -19.5t-12.5 -43.5l-4 -436v-490l4 -381q2 -39 15.5 -54t60.5 -22l94 -14v-47h-568v47l107 14q50 7 66 24.5t18 49.5
q6 268 6 381v186q-54 -67 -131 -99t-160 -32q-145 0 -254 73.5t-165 195.5t-56 274q0 146 66.5 264.5t180 185t249.5 66.5q171 0 272 -112z" />
    <glyph glyph-name="r" unicode="r" horiz-adv-x="886" 
d="M68 979l358 20l4 -284q34 136 117 225.5t194 89.5q64 0 105 -34t41 -89q0 -44 -30.5 -72t-70.5 -28q-29 0 -56 14.5t-43 31.5t-32 31.5t-26 14.5q-40 0 -99.5 -69.5t-91.5 -165.5v-195l4 -332q2 -39 15.5 -54.5t60.5 -21.5l115 -14v-47h-567v47l86 14q50 8 66 25t18 49
q4 211 4 334v356q0 39 -13 58t-49 26l-110 23v47z" />
    <glyph glyph-name="s" unicode="s" horiz-adv-x="942" 
d="M840 291q0 -150 -104.5 -235t-264.5 -85q-66 0 -140.5 22.5t-127.5 78.5l-58 -99h-39v389h56q28 -150 106.5 -226.5t182.5 -76.5q43 0 79.5 8.5t67.5 27t48.5 52t17.5 80.5q0 79 -56.5 130t-148.5 75l-103 27q-125 33 -184 109t-59 169q0 134 101 210.5t245 76.5
q63 0 128 -16.5t105 -55.5l62 70h34v-352h-51q-18 137 -88.5 204.5t-177.5 67.5q-79 0 -135.5 -39.5t-56.5 -107.5q0 -77 46 -113.5t134 -60.5l98 -27q133 -36 208 -106.5t75 -196.5z" />
    <glyph glyph-name="t" unicode="t" horiz-adv-x="743" 
d="M360 1245h41v-272h291v-76h-291v-301l2 -352q0 -168 136 -168q39 0 87 20t85 51l26 -28q-125 -148 -291 -148q-107 0 -175 60.5t-68 181.5v684l-158 12v64h170z" />
    <glyph glyph-name="u" unicode="u" horiz-adv-x="1241" 
d="M862 0l-10 233q-105 -262 -342 -262q-76 0 -133.5 24t-91.5 63t-55 95.5t-28 113t-7 124.5v424q0 39 -13 58t-49 26l-110 23v47l366 20v-575q0 -58 5 -103.5t18.5 -87.5t35.5 -69.5t58.5 -43.5t85.5 -16q79 0 149 54t105 174v493q0 39 -14 58t-50 26l-110 23v47l370 22
v-856q0 -36 15.5 -50.5t68.5 -23.5l86 -14v-47h-350z" />
    <glyph glyph-name="v" unicode="v" horiz-adv-x="1097" 
d="M500 -41l-353 893q-19 45 -50 63t-97 19v47h526v-47q-89 0 -130 -21.5t-25 -70.5l213 -625l204 541q27 65 20.5 103.5t-36.5 55t-88 17.5v47h414v-47q-37 -5 -57 -9t-43.5 -14t-38.5 -26t-31 -42.5t-33 -66.5l-334 -817h-61z" />
    <glyph glyph-name="w" unicode="w" horiz-adv-x="1701" 
d="M991 842l197 -617l205 533q27 65 19.5 103.5t-38 55t-88.5 17.5v47h416v-47q-37 -5 -57.5 -9t-44 -14t-38.5 -26t-31 -42.5t-32 -66.5l-323 -817h-72l-260 668l-289 -668h-68l-340 893q-17 45 -48.5 63t-98.5 19v47h526v-47q-89 0 -131 -21.5t-24 -70.5l217 -617l221 523
l-37 104q-15 44 -47.5 62.5t-99.5 19.5v47h526v-47q-90 0 -133 -21t-27 -71z" />
    <glyph glyph-name="x" unicode="x" horiz-adv-x="1142" 
d="M825 776l-172 -209l322 -438q30 -41 67 -61t101 -21v-47h-525v47q84 0 116.5 25t0.5 67l-205 279l-157 -195q-69 -82 -57.5 -129t106.5 -47v-47h-422v47q84 11 142 44t124 114l221 270l-274 377q-30 42 -67 62.5t-101 21.5v45h514v-45q-83 0 -111 -25.5t5 -68.5l157 -217
l109 133q144 178 -49 178v45h422v-45q-84 -11 -143 -45t-124 -115z" />
    <glyph glyph-name="y" unicode="y" horiz-adv-x="1132" 
d="M899 696l-405 -1005q-75 -185 -146 -250.5t-188 -65.5q-29 0 -65.5 8.5t-74 25.5t-63 48.5t-25.5 71.5q0 34 26.5 63t68.5 29q31 0 55.5 -16.5t41 -40t31 -47t33 -40t39.5 -16.5q35 0 76.5 52t66 102.5t44.5 101.5l96 242l-340 893q-17 45 -48.5 63t-98.5 19v47h526v-47
q-89 0 -130.5 -21.5t-25.5 -70.5l217 -643l197 512q26 65 31.5 109t-9.5 68.5t-42.5 34.5t-71.5 11v47h420v-47q-39 -5 -58 -9.5t-45 -18t-44 -38t-40.5 -66.5t-48.5 -106z" />
    <glyph glyph-name="z" unicode="z" horiz-adv-x="983" 
d="M115 676l18 301h764l12 -27l-620 -891h84q87 0 146 3.5t115.5 13.5t91.5 28t64.5 48t46 72.5t25.5 101.5h47v-326h-854l-12 20l616 883h-90q-145 0 -226.5 -21.5t-122 -69t-56.5 -136.5h-49z" />
    <glyph glyph-name="braceleft" unicode="{" horiz-adv-x="638" 
d="M33 483v37q83 11 138.5 64t78 125t22.5 161q0 110 -32 201q-45 127 -45 232q0 146 91 230.5t283 84.5h60v-92h-60q-268 0 -268 -221q0 -75 33 -179q45 -140 45 -262q0 -235 -172 -362q172 -127 172 -375q0 -122 -45 -262q-33 -104 -33 -178q0 -222 268 -222h60v-92h-60
q-193 0 -283.5 83t-90.5 233q0 104 45 231q32 91 32 201q0 66 -13.5 125t-40.5 110t-74.5 85t-110.5 42z" />
    <glyph glyph-name="bar" unicode="|" horiz-adv-x="546" 
d="M225 0v1618h97v-1618h-97z" />
    <glyph glyph-name="braceright" unicode="}" horiz-adv-x="606" 
d="M606 520v-37q-63 -8 -110.5 -42t-74.5 -85t-40.5 -110t-13.5 -125q0 -110 32 -201q45 -127 45 -231q0 -150 -90.5 -233t-283.5 -83h-60v92h60q268 0 268 222q0 74 -33 178q-45 140 -45 262q0 248 172 375q-172 127 -172 362q0 122 45 262q33 104 33 179q0 221 -268 221
h-60v92h60q192 0 283 -84.5t91 -230.5q0 -105 -45 -232q-32 -91 -32 -201q0 -89 22.5 -161t78 -125t138.5 -64z" />
    <glyph glyph-name="asciitilde" unicode="~" horiz-adv-x="1349" 
d="M94 426q38 114 112.5 170.5t168.5 56.5q69 0 155 -31.5t154 -69.5t149 -69.5t140 -31.5q63 0 109.5 37.5t84.5 127.5l88 -34q-38 -114 -112.5 -171t-167.5 -57q-71 0 -158.5 31.5t-155.5 69t-147 69t-137 31.5q-63 0 -110.5 -38.5t-84.5 -129.5z" />
    <glyph glyph-name="uni00A0" unicode="&#xa0;" horiz-adv-x="409" 
 />
    <glyph glyph-name="exclamdown" unicode="&#xa1;" horiz-adv-x="432" 
d="M254 633q0 -241 21 -486.5t42 -444t21 -323.5q-117 -30 -234 0q0 128 21 325.5t42 442t21 486.5h66zM219 1030q56 0 94.5 -39t38.5 -96q0 -55 -39 -94t-94 -39q-57 0 -96 38.5t-39 94.5q0 57 39 96t96 39z" />
    <glyph glyph-name="cent" unicode="&#xa2;" horiz-adv-x="1034" 
d="M954 268l54 -24q-104 -247 -355 -271v-186h-88v186q-147 8 -253.5 82t-158 188t-51.5 255q0 218 128.5 362t334.5 166v223h88v-219q73 -3 146 -24t127.5 -61.5t54.5 -90.5q0 -41 -26.5 -66.5t-59.5 -25.5q-39 0 -64.5 18.5t-39.5 46t-28 55.5t-41 51.5t-69 29.5v-873
q200 0 301 178zM313 535q0 -166 66.5 -284t185.5 -151v856q-102 -27 -177 -138.5t-75 -282.5z" />
    <glyph glyph-name="sterling" unicode="&#xa3;" horiz-adv-x="1296" 
d="M106 754v86h230l-10 84q-12 90 -13 168.5t9.5 139.5t27.5 112t44 88t56 66t66 48t72 32t76 20t75 9.5t72 2.5q100 0 195 -26.5t159 -76.5t64 -110q0 -52 -26.5 -76.5t-65.5 -24.5q-19 0 -35.5 6.5t-27.5 13.5t-25 25t-19.5 27t-19 33t-17.5 31q-37 60 -87 84t-124 24
q-61 0 -107.5 -18.5t-75.5 -49t-47 -76.5t-25 -94t-6 -108.5t7 -114t17 -116.5q12 -87 14 -123h430v-86h-426q3 -121 -16.5 -229.5t-52 -186t-76 -139.5t-85.5 -98.5t-83 -53.5l4 -6q84 47 119.5 66t112 55t137 51.5t114.5 15.5q71 0 140 -17t111 -33.5t85 -24t84.5 11.5
t87.5 72l39 -25q-39 -74 -79.5 -123.5t-79 -74t-70.5 -33.5t-68 -9q-48 0 -150.5 36t-166.5 36q-68 0 -156 -17t-152.5 -32.5t-150.5 -15t-166 29.5l6 31l62 6q293 30 231 707h-238z" />
    <glyph glyph-name="yen" unicode="&#xa5;" horiz-adv-x="1513" 
d="M307 614v97h314v2l-424 719q-13 22 -23.5 35t-31.5 29.5t-56.5 26t-85.5 13.5v47h629v-47l-97 -8q-136 -12 -77 -117l348 -608l313 504q32 52 46.5 90.5t13.5 61.5t-17.5 38.5t-38.5 22t-57 10.5l-59 6v47h509v-47l-55 -6q-63 -7 -109 -51t-120 -162l-389 -606h315v-97
h-315v-77v-134h315v-96h-315l2 -143q0 -55 25.5 -77t95.5 -30l114 -10v-47h-694v47l109 10q74 8 100 30t26 77v143h-311v96h314v134v77h-314z" />
    <glyph glyph-name="brokenbar" unicode="&#xa6;" horiz-adv-x="432" 
d="M164 1618h104v-899h-104v899zM164 299h104v-899h-104v899z" />
    <glyph glyph-name="section" unicode="&#xa7;" horiz-adv-x="1185" 
d="M1071 -176q0 -196 -136.5 -322.5t-365.5 -126.5q-110 0 -224.5 35.5t-195.5 102t-81 143.5q0 50 30.5 78t75.5 28q34 0 58.5 -17.5t39.5 -45.5t29.5 -61.5t34.5 -67.5t47.5 -62t76 -45.5t113.5 -17.5q133 0 220.5 88.5t87.5 206.5q0 117 -65 200.5t-204 141.5l-159 65
q-178 74 -260 158t-82 221q0 106 76 200.5t194 147.5q-258 133 -258 375q0 164 125.5 276.5t331.5 112.5q97 0 195 -23.5t168.5 -71.5t70.5 -107q0 -55 -29.5 -80t-73.5 -25q-32 1 -55.5 15t-38 35.5t-27.5 47.5t-29 51.5t-37.5 47t-58.5 34.5t-87 13q-124 0 -191.5 -68.5
t-67.5 -173.5q0 -95 53.5 -169.5t157.5 -119.5l207 -90q91 -40 146.5 -71.5t102 -74.5t67 -96t20.5 -124q0 -110 -81.5 -215.5t-203.5 -147.5q153 -78 218 -170.5t65 -230.5zM274 627q0 -99 70 -167t199 -124l125 -53q18 -7 47 -21t37 -18q65 47 109 111t44 124q0 53 -21 97
t-63.5 79t-87.5 60.5t-110 54.5l-197 84h-4q-73 -40 -110.5 -103t-37.5 -124z" />
    <glyph glyph-name="dieresis" unicode="&#xa8;" horiz-adv-x="892" 
d="M225 1235q-59 0 -99 40.5t-40 100.5q0 59 40.5 99.5t98.5 40.5q60 0 101 -40.5t41 -99.5q0 -60 -41 -100.5t-101 -40.5zM662 1235q-59 0 -99.5 40.5t-40.5 100.5q0 58 41 99t99 41q60 0 100.5 -40.5t40.5 -99.5q0 -60 -40.5 -100.5t-100.5 -40.5z" />
    <glyph glyph-name="copyright" unicode="&#xa9;" horiz-adv-x="1832" 
d="M915 -29q-221 0 -408 109t-296 296t-109 408q0 222 109 409.5t296 296.5t408 109q166 0 317 -64.5t260.5 -173.5t174 -260t64.5 -317q0 -165 -64.5 -316t-174 -259.5t-260.5 -173t-317 -64.5zM915 1520q-148 0 -282 -58.5t-230.5 -157t-153 -234.5t-56.5 -286
q0 -149 56.5 -284.5t153 -233.5t230.5 -156.5t282 -58.5q149 0 283.5 58t230.5 156.5t152.5 234t56.5 284.5q0 200 -95.5 369.5t-262 268t-365.5 98.5zM1315 594l-37 -201q-55 -49 -154 -75.5t-204 -26.5q-117 0 -216 41t-165.5 110.5t-104 163t-37.5 197.5q0 149 73 267.5
t194 182.5t264 64q48 0 95 -6.5t76.5 -13.5t85 -22.5t89.5 -23.5l22 -202h-34q-59 102 -146.5 151t-189.5 49q-74 0 -137.5 -25t-117 -76t-84 -140t-30.5 -207q0 -112 32 -199.5t85.5 -139t117 -78t132.5 -26.5q255 0 356 236h35z" />
    <glyph glyph-name="ordfeminine" unicode="&#xaa;" horiz-adv-x="757" 
d="M428 946v213q-117 -14 -172 -62.5t-55 -103.5q0 -56 27 -82t69 -26q36 0 73 17t58 44zM424 1194v168q0 125 -90 125q-41 0 -61.5 -18.5t-20.5 -45.5v-19v-21.5t-1 -19.5t-3.5 -20.5t-6 -16.5t-9.5 -16t-14.5 -11t-20 -9t-25.5 -2q-33 0 -52.5 25t-19.5 65q0 52 42 89.5
t96.5 53t111.5 15.5q238 0 238 -186l-4 -355q0 -58 12 -83t39 -25q37 0 84 41l18 -15q-67 -114 -174 -114q-51 0 -83 25.5t-52 86.5q-80 -116 -205 -116q-88 0 -135 51.5t-47 130.5q0 200 383 217z" />
    <glyph glyph-name="guillemotleft" unicode="&#xab;" horiz-adv-x="921" 
d="M788 70l-387 434l387 428h60l-246 -430l246 -432h-60zM432 70l-387 434l387 428h60l-246 -430l246 -432h-60z" />
    <glyph glyph-name="logicalnot" unicode="&#xac;" horiz-adv-x="1196" 
d="M82 438v97h971v-533h-105v436h-866z" />
    <glyph glyph-name="uni00AD" unicode="&#xad;" horiz-adv-x="806" 
d="M102 471v96h603v-96h-603z" />
    <glyph glyph-name="registered" unicode="&#xae;" horiz-adv-x="1832" 
d="M915 -29q-221 0 -408 109t-296 296t-109 408q0 222 109 409.5t296 296.5t408 109q166 0 317 -64.5t260.5 -173.5t174 -260t64.5 -317q0 -165 -64.5 -316t-174 -259.5t-260.5 -173t-317 -64.5zM915 1520q-148 0 -282 -58.5t-230.5 -157t-153 -234.5t-56.5 -286
q0 -149 56.5 -284.5t153 -233.5t230.5 -156.5t282 -58.5q149 0 283.5 58t230.5 156.5t152.5 234t56.5 284.5q0 200 -95.5 369.5t-262 268t-365.5 98.5zM469 1266v37q57 0 193 2t200 2q56 0 106.5 -6t103 -23.5t90 -44.5t61.5 -73.5t24 -106.5q0 -43 -22 -87t-59.5 -81
t-94.5 -61.5t-121 -26.5v-2q105 -8 164 -47t94 -140q17 -51 26 -76.5t23 -58t26.5 -46.5t30.5 -27.5t40 -16.5t51 0l8 -33q-53 -33 -123 -33q-44 0 -78.5 14.5t-57.5 35.5t-43 58t-32 69t-26 81q-12 41 -27 72t-30 51.5t-37 35t-39.5 22t-47 11t-50 4.5t-56.5 1v-330
q0 -30 17.5 -45t56.5 -20l63 -6v-37h-434v37l68 6q41 5 59 19.5t18 45.5v754q0 29 -18 44.5t-59 19.5zM766 1243v-430l96 10q112 12 171 69t59 157q0 49 -15 86t-38 58t-58 34t-68.5 17.5t-74.5 4.5q-20 0 -39.5 -2.5t-32.5 -3.5z" />
    <glyph glyph-name="macron" unicode="&#xaf;" horiz-adv-x="868" 
d="M102 1296v97h664v-97h-664z" />
    <glyph glyph-name="degree" unicode="&#xb0;" horiz-adv-x="708" 
d="M354 1024q-122 0 -207.5 85t-85.5 206t85.5 206t207.5 85t207.5 -85t85.5 -206t-85.5 -206t-207.5 -85zM354 1511q-75 0 -132.5 -55t-57.5 -141q0 -80 52.5 -138.5t137.5 -58.5q87 0 139 56.5t52 140.5q0 86 -54.5 141t-136.5 55z" />
    <glyph glyph-name="plusminus" unicode="&#xb1;" horiz-adv-x="1134" 
d="M514 973h104v-344h435v-97h-435v-354h-104v354h-432v97h432v344zM82 0v96h971v-96h-971z" />
    <glyph glyph-name="twosuperior" unicode="&#xb2;" horiz-adv-x="901" 
d="M782 1085l6 -268h-692l-4 23q465 305 465 495q0 115 -129 115q-91 0 -192 -90l-31 33q61 72 137 108.5t154 36.5q57 0 110.5 -17t93 -58t39.5 -99q0 -51 -26 -101.5t-65 -91t-97 -82.5t-109 -71.5t-114 -61.5h264q75 0 103 25.5t42 103.5h45z" />
    <glyph glyph-name="threesuperior" unicode="&#xb3;" horiz-adv-x="768" 
d="M152 1346l-43 24q38 84 113 125t165 41q109 0 171.5 -51t62.5 -129q0 -196 -287 -295q158 -15 245 -80.5t87 -169.5q0 -76 -39.5 -142t-97.5 -110.5t-136.5 -81t-142.5 -56.5t-131 -34l-13 51q61 19 110 38.5t102 49.5t88 63.5t58 79.5t23 99q0 213 -254 238l-4 28
q94 50 155.5 130.5t61.5 176.5q0 115 -116 115q-53 0 -102 -29t-76 -81z" />
    <glyph glyph-name="acute" unicode="&#xb4;" horiz-adv-x="428" 
d="M45 1165l158 418h229l-346 -418h-41z" />
    <glyph glyph-name="mu" unicode="&#xb5;" horiz-adv-x="1163" 
d="M205 973h104v-637q0 -112 72 -186t192 -74q88 0 164 56.5t117 154.5v686h104v-973h-100v160q-47 -91 -120 -140t-160 -49q-76 0 -151 29.5t-118 93.5v-553h-104v1432z" />
    <glyph glyph-name="paragraph" unicode="&#xb6;" horiz-adv-x="1146" 
d="M1028 1511h-172v-1751h-96v1751h-158v-1751h-96v1031q-186 0 -315.5 111.5t-129.5 293.5q0 60 14 115t50 109.5t92 94.5t147 64.5t207 24.5h457v-93z" />
    <glyph glyph-name="periodcentered" unicode="&#xb7;" horiz-adv-x="559" 
d="M276 362q-63 0 -108 46.5t-45 113.5q0 63 45 108.5t108 45.5q67 0 113.5 -45.5t46.5 -108.5q0 -68 -46 -114t-114 -46z" />
    <glyph glyph-name="cedilla" unicode="&#xb8;" horiz-adv-x="573" 
d="M260 0h76l-131 -172q61 47 127 47q67 0 110 -39t43 -108q0 -55 -36 -101t-94 -75t-121 -46t-125 -22l-9 43q122 16 190 73.5t68 123.5q0 37 -22 63.5t-72 26.5q-42 0 -84 -29l-49 39z" />
    <glyph glyph-name="onesuperior" unicode="&#xb9;" horiz-adv-x="606" 
d="M141 1458l-73 12v48h464v-48l-65 -12q-50 -10 -67 -27.5t-17 -48.5q-2 -22 -2 -141v-154l2 -137q0 -40 12.5 -55.5t59.5 -22.5l73 -12v-47h-465v47l66 12q50 10 67 27.5t17 48.5v432q0 40 -12.5 55.5t-59.5 22.5z" />
    <glyph glyph-name="ordmasculine" unicode="&#xba;" horiz-adv-x="872" 
d="M434 795q-94 0 -167.5 31.5t-117 85.5t-66 121.5t-22.5 144.5q0 158 106 258t271 100q180 0 276.5 -108t96.5 -273q0 -157 -100 -258.5t-277 -101.5zM430 846q89 0 142 89t53 226q0 133 -51 228.5t-134 95.5q-88 0 -139 -90.5t-51 -227.5q0 -81 20.5 -153t62.5 -120
t97 -48z" />
    <glyph glyph-name="guillemotright" unicode="&#xbb;" horiz-adv-x="921" 
d="M883 502l-389 -432h-60l246 432l-246 430h60zM522 502l-389 -432h-59l245 432l-245 430h59z" />
    <glyph glyph-name="onequarter" unicode="&#xbc;" horiz-adv-x="1734" 
d="M1397 309v-172q0 -40 12 -55.5t59 -22.5l74 -12v-47h-465v47l66 12q50 10 67 27.5t17 48.5v174h-424l-12 23l505 700h101v-594h71q62 0 84 21.5t35 97.5h39v-248h-229zM944 438h293v400zM1380 1618l-1075 -1618h-110l1071 1618h114zM141 1458l-73 12v48h464v-48l-65 -12
q-50 -10 -67 -27.5t-17 -48.5q-2 -22 -2 -141v-154l2 -137q0 -40 12.5 -55.5t59.5 -22.5l73 -12v-47h-465v47l66 12q50 10 67 27.5t17 48.5v432q0 40 -12.5 55.5t-59.5 22.5z" />
    <glyph glyph-name="onehalf" unicode="&#xbd;" horiz-adv-x="1593" 
d="M1485 268l6 -268h-692l-4 23q465 305 465 495q0 115 -130 115q-91 0 -192 -90l-31 32q61 73 137 109.5t154 36.5q57 0 110.5 -17t93.5 -58t40 -99q0 -51 -26 -101.5t-65 -91t-97.5 -82.5t-109 -71.5t-114.5 -61.5h264q76 0 104 25.5t42 103.5h45zM1380 1618l-1075 -1618
h-110l1071 1618h114zM141 1458l-73 12v48h464v-48l-65 -12q-50 -10 -67 -27.5t-17 -48.5q-2 -22 -2 -141v-154l2 -137q0 -40 12.5 -55.5t59.5 -22.5l73 -12v-47h-465v47l66 12q50 10 67 27.5t17 48.5v432q0 40 -12.5 55.5t-59.5 22.5z" />
    <glyph glyph-name="threequarters" unicode="&#xbe;" horiz-adv-x="1902" 
d="M1548 1618l-1075 -1618h-111l1072 1618h114zM152 1346l-43 24q38 84 113 125t165 41q109 0 171.5 -51t62.5 -129q0 -196 -287 -295q158 -15 245 -80.5t87 -169.5q0 -76 -39.5 -142t-97.5 -110.5t-136.5 -81t-142.5 -56.5t-131 -34l-13 51q61 19 110 38.5t102 49.5
t88 63.5t58 79.5t23 99q0 213 -254 238l-4 28q94 50 155.5 130.5t61.5 176.5q0 115 -116 115q-53 0 -102 -29t-76 -81zM1567 309v-172q0 -40 12 -55.5t59 -22.5l74 -12v-47h-465v47l66 12q50 10 67 27.5t17 48.5v174h-424l-12 23l505 700h101v-594h71q62 0 84 21.5t35 97.5
h39v-248h-229zM1114 438h293v400z" />
    <glyph glyph-name="questiondown" unicode="&#xbf;" horiz-adv-x="788" 
d="M455 1030q56 0 94.5 -39t38.5 -96q0 -55 -39 -94t-94 -39q-57 0 -96.5 38.5t-39.5 94.5q0 57 39.5 96t96.5 39zM432 612l45 31q111 -120 111 -285q0 -77 -23.5 -148t-58.5 -122.5t-76 -108.5t-76 -107t-58.5 -117t-23.5 -138q0 -47 13.5 -89.5t46 -74t78.5 -31.5
q34 0 60.5 20.5t43.5 49t34.5 57.5t45 49.5t63.5 20.5q40 0 65.5 -24.5t25.5 -65.5q-3 -49 -53 -86.5t-119 -54.5t-144 -17q-147 0 -248.5 75t-101.5 216q0 67 21.5 131.5t55.5 119t75.5 108t82.5 107.5t75 108.5t55.5 119.5t21.5 133q0 74 -37 123z" />
    <glyph glyph-name="Agrave" unicode="&#xc0;" horiz-adv-x="1601" 
d="M229 266l529 1358h51l616 -1472q36 -91 125 -99l72 -6v-47h-629v47l97 8q67 9 83.5 37t-6.5 80l-155 395h-559l-111 -291q-20 -54 -25 -93.5t0.5 -62.5t23.5 -37.5t37.5 -20.5t49.5 -9l61 -6v-47h-509v47l53 6q67 8 108.5 51t87.5 162zM729 1292l-223 -583h450zM795 2111
l157 -417h-41l-346 417h230z" />
    <glyph glyph-name="Aacute" unicode="&#xc1;" horiz-adv-x="1601" 
d="M229 266l529 1358h51l616 -1472q36 -91 125 -99l72 -6v-47h-629v47l97 8q67 9 83.5 37t-6.5 80l-155 395h-559l-111 -291q-20 -54 -25 -93.5t0.5 -62.5t23.5 -37.5t37.5 -20.5t49.5 -9l61 -6v-47h-509v47l53 6q67 8 108.5 51t87.5 162zM729 1292l-223 -583h450zM604 1694
l158 417h229l-346 -417h-41z" />
    <glyph glyph-name="Acircumflex" unicode="&#xc2;" horiz-adv-x="1601" 
d="M229 266l529 1358h51l616 -1472q36 -91 125 -99l72 -6v-47h-629v47l97 8q67 9 83.5 37t-6.5 80l-155 395h-559l-111 -291q-20 -54 -25 -93.5t0.5 -62.5t23.5 -37.5t37.5 -20.5t49.5 -9l61 -6v-47h-509v47l53 6q67 8 108.5 51t87.5 162zM729 1292l-223 -583h450zM481 1706
l271 383h94l268 -381l-37 -29l-278 240l-281 -240z" />
    <glyph glyph-name="Atilde" unicode="&#xc3;" horiz-adv-x="1601" 
d="M229 266l529 1358h51l616 -1472q36 -91 125 -99l72 -6v-47h-629v47l97 8q67 9 83.5 37t-6.5 80l-155 395h-559l-111 -291q-20 -54 -25 -93.5t0.5 -62.5t23.5 -37.5t37.5 -20.5t49.5 -9l61 -6v-47h-509v47l53 6q67 8 108.5 51t87.5 162zM729 1292l-223 -583h450zM623 2042
q48 0 106.5 -24.5t104 -54.5t101.5 -54.5t101 -24.5q85 0 146 96l35 -18q-45 -128 -95.5 -188t-134.5 -60q-52 0 -112 24.5t-105 54.5t-99.5 54.5t-97.5 24.5q-86 0 -145 -96l-35 18q45 128 95.5 188t134.5 60z" />
    <glyph glyph-name="Adieresis" unicode="&#xc4;" horiz-adv-x="1601" 
d="M229 266l529 1358h51l616 -1472q36 -91 125 -99l72 -6v-47h-629v47l97 8q67 9 83.5 37t-6.5 80l-155 395h-559l-111 -291q-20 -54 -25 -93.5t0.5 -62.5t23.5 -37.5t37.5 -20.5t49.5 -9l61 -6v-47h-509v47l53 6q67 8 108.5 51t87.5 162zM729 1292l-223 -583h450zM528 1722
q-59 0 -99 41t-40 101q0 58 40.5 98.5t98.5 40.5q60 0 101 -40t41 -99q0 -60 -41 -101t-101 -41zM1067 1722q-59 0 -99 41t-40 101q0 58 40 98.5t99 40.5q60 0 100.5 -40t40.5 -99q0 -60 -40.5 -101t-100.5 -41z" />
    <glyph glyph-name="Aring" unicode="&#xc5;" horiz-adv-x="1601" 
d="M229 266l529 1358h51l616 -1472q36 -91 125 -99l72 -6v-47h-629v47l97 8q67 9 83.5 37t-6.5 80l-155 395h-559l-111 -291q-20 -54 -25 -93.5t0.5 -62.5t23.5 -37.5t37.5 -20.5t49.5 -9l61 -6v-47h-509v47l53 6q67 8 108.5 51t87.5 162zM729 1292l-223 -583h450zM797 2075
q87 0 148 -58.5t61 -142.5t-61 -142.5t-148 -58.5t-148 58.5t-61 142.5t61 142.5t148 58.5zM797 1749q60 0 91.5 34t31.5 91q0 58 -34.5 91.5t-88.5 33.5q-57 0 -89 -34t-32 -91t32 -91t89 -34z" />
    <glyph glyph-name="AE" unicode="&#xc6;" horiz-adv-x="2490" 
d="M502 49l57 -2v-47h-559v47q119 10 187 50.5t135 125.5l962 1237q-8 29 -31.5 42t-64.5 20l-90 14v47h1192v-354h-49q-14 140 -85 198t-202 64q-220 10 -441 0q-2 -254 -2 -424v-193h301q133 0 183.5 37.5t62.5 155.5h49v-475h-49q-7 68 -22 107.5t-48 59t-69.5 24.5
t-106.5 5h-301v-274l2 -303q0 -37 4.5 -59.5t11.5 -36.5t26.5 -20t38 -7.5t57.5 -1.5q245 0 377 6q143 7 208 76t78 199h49l4 -367h-1269v47l90 14q52 8 77 29.5t25 73.5q0 16 1 155t1 238v238h-413l-455 -598q-41 -51 -36.5 -83.5t34 -47.5t80.5 -17zM946 883h346v452z" />
    <glyph glyph-name="Ccedilla" unicode="&#xc7;" horiz-adv-x="1683" 
d="M760 -176l110 151q-182 14 -330.5 84t-245 179t-148.5 249t-52 297q0 181 67 336.5t181.5 262t270 167t329.5 60.5q53 0 107.5 -5t91.5 -9.5t99.5 -18.5t88 -20t103.5 -27t102 -27l37 -309h-43q-167 326 -590 326q-92 0 -176.5 -26t-161.5 -84t-134 -142.5t-90.5 -210.5
t-33.5 -279q0 -144 35.5 -264t96 -202.5t141.5 -140t170 -84t184 -26.5q61 0 118.5 8t128.5 32.5t130.5 65t115.5 111t92 164.5h48l-62 -309q-122 -81 -278 -121.5t-293 -40.5q-4 0 -13.5 1t-13.5 1l-108 -145q61 47 127 47q67 0 110 -39t43 -108q0 -55 -36.5 -101
t-94 -75.5t-121 -46.5t-125.5 -21l-8 43q122 16 190 73.5t68 123.5q0 37 -22 63.5t-72 26.5q-42 0 -84 -29z" />
    <glyph glyph-name="Egrave" unicode="&#xc8;" horiz-adv-x="1527" 
d="M123 1536v47h1204v-354h-49q-14 140 -85 198t-202 64q-220 10 -440 0q-2 -254 -2 -424v-193h301q133 0 183.5 37.5t62.5 155.5h49v-475h-49q-7 68 -22 107.5t-48 59t-69.5 24.5t-106.5 5h-301v-274l2 -303q0 -31 2 -51.5t9.5 -35t15 -21.5t26 -11t35 -5t49.5 -1
q245 0 377 6q143 7 208.5 76t78.5 199h49l4 -367h-1282v47l102 14q53 8 78 29.5t25 73.5q0 16 1 155t1 238v487l-2 375q0 52 -25 73.5t-78 29.5zM733 2111l158 -417h-41l-346 417h229z" />
    <glyph glyph-name="Eacute" unicode="&#xc9;" horiz-adv-x="1527" 
d="M123 1536v47h1204v-354h-49q-14 140 -85 198t-202 64q-220 10 -440 0q-2 -254 -2 -424v-193h301q133 0 183.5 37.5t62.5 155.5h49v-475h-49q-7 68 -22 107.5t-48 59t-69.5 24.5t-106.5 5h-301v-274l2 -303q0 -31 2 -51.5t9.5 -35t15 -21.5t26 -11t35 -5t49.5 -1
q245 0 377 6q143 7 208.5 76t78.5 199h49l4 -367h-1282v47l102 14q53 8 78 29.5t25 73.5q0 16 1 155t1 238v487l-2 375q0 52 -25 73.5t-78 29.5zM698 1694l158 417h229l-346 -417h-41z" />
    <glyph glyph-name="Ecircumflex" unicode="&#xca;" horiz-adv-x="1527" 
d="M123 1536v47h1204v-354h-49q-14 140 -85 198t-202 64q-220 10 -440 0q-2 -254 -2 -424v-193h301q133 0 183.5 37.5t62.5 155.5h49v-475h-49q-7 68 -22 107.5t-48 59t-69.5 24.5t-106.5 5h-301v-274l2 -303q0 -31 2 -51.5t9.5 -35t15 -21.5t26 -11t35 -5t49.5 -1
q245 0 377 6q143 7 208.5 76t78.5 199h49l4 -367h-1282v47l102 14q53 8 78 29.5t25 73.5q0 16 1 155t1 238v487l-2 375q0 52 -25 73.5t-78 29.5zM436 1706l271 383h94l268 -381l-37 -29l-278 240l-281 -240z" />
    <glyph glyph-name="Edieresis" unicode="&#xcb;" horiz-adv-x="1527" 
d="M123 1536v47h1204v-354h-49q-14 140 -85 198t-202 64q-220 10 -440 0q-2 -254 -2 -424v-193h301q133 0 183.5 37.5t62.5 155.5h49v-475h-49q-7 68 -22 107.5t-48 59t-69.5 24.5t-106.5 5h-301v-274l2 -303q0 -31 2 -51.5t9.5 -35t15 -21.5t26 -11t35 -5t49.5 -1
q245 0 377 6q143 7 208.5 76t78.5 199h49l4 -367h-1282v47l102 14q53 8 78 29.5t25 73.5q0 16 1 155t1 238v487l-2 375q0 52 -25 73.5t-78 29.5zM528 1722q-59 0 -99 41t-40 101q0 58 40.5 98.5t98.5 40.5q60 0 101 -40t41 -99q0 -60 -41 -101t-101 -41zM1067 1722
q-59 0 -99 41t-40 101q0 58 40 98.5t99 40.5q60 0 100.5 -40t40.5 -99q0 -60 -40.5 -101t-100.5 -41z" />
    <glyph glyph-name="Igrave" unicode="&#xcc;" horiz-adv-x="878" 
d="M549 1044v-487l2 -393q0 -52 25 -73.5t77 -29.5l103 -14v-47h-633v47l102 14q53 8 78 29.5t25 73.5q0 16 1 155t1 238v487l-2 375q0 52 -25 73.5t-78 29.5l-102 14v47h633v-47l-103 -14q-52 -8 -77 -29.5t-25 -73.5q-2 -189 -2 -375zM473 2111l158 -417h-41l-346 417h229
z" />
    <glyph glyph-name="Iacute" unicode="&#xcd;" horiz-adv-x="878" 
d="M549 1044v-487l2 -393q0 -52 25 -73.5t77 -29.5l103 -14v-47h-633v47l102 14q53 8 78 29.5t25 73.5q0 16 1 155t1 238v487l-2 375q0 52 -25 73.5t-78 29.5l-102 14v47h633v-47l-103 -14q-52 -8 -77 -29.5t-25 -73.5q-2 -189 -2 -375zM283 1694l157 417h230l-346 -417h-41
z" />
    <glyph glyph-name="Icircumflex" unicode="&#xce;" horiz-adv-x="878" 
d="M549 1044v-487l2 -393q0 -52 25 -73.5t77 -29.5l103 -14v-47h-633v47l102 14q53 8 78 29.5t25 73.5q0 16 1 155t1 238v487l-2 375q0 52 -25 73.5t-78 29.5l-102 14v47h633v-47l-103 -14q-52 -8 -77 -29.5t-25 -73.5q-2 -189 -2 -375zM121 1706l270 383h94l269 -381
l-37 -29l-279 240l-280 -240z" />
    <glyph glyph-name="Idieresis" unicode="&#xcf;" horiz-adv-x="878" 
d="M170 1722q-59 0 -99 41t-40 101q0 58 40.5 98.5t98.5 40.5q60 0 100.5 -40t40.5 -99q0 -60 -40.5 -101t-100.5 -41zM709 1722q-59 0 -99.5 41t-40.5 101q0 58 40.5 98.5t99.5 40.5q60 0 100.5 -40t40.5 -99q0 -60 -40.5 -101t-100.5 -41zM549 1044v-487l2 -393
q0 -52 25 -73.5t77 -29.5l103 -14v-47h-633v47l102 14q53 8 78 29.5t25 73.5q0 16 1 155t1 238v487l-2 375q0 52 -25 73.5t-78 29.5l-102 14v47h633v-47l-103 -14q-52 -8 -77 -29.5t-25 -73.5q-2 -189 -2 -375z" />
    <glyph glyph-name="Eth" unicode="&#xd0;" horiz-adv-x="1800" 
d="M74 756v96h254v192l-2 375q0 52 -25 73.5t-78 29.5l-100 14v47q92 -1 271 1.5t247 2.5q119 0 215 -6t203 -22t199.5 -49.5t164.5 -84.5q145 -101 224 -257t79 -363q0 -186 -62 -337.5t-174.5 -254t-271.5 -158t-350 -55.5h-745v47l100 14q53 8 78 29.5t25 73.5
q0 16 1 155t1 238v199h-254zM547 1495v-643h311v-96h-311v-199q0 -116 1 -229t1 -117q0 -38 7.5 -60.5t24 -39t54.5 -23.5t85.5 -9.5t131.5 -2.5q66 0 127.5 9.5t125.5 33.5t118.5 61t103 95.5t82.5 132.5t54 176.5t20 224.5q0 123 -23.5 224t-63 172t-98 125t-122 87
t-142 53t-150 27.5t-153.5 7.5q-79 0 -184 -10z" />
    <glyph glyph-name="Ntilde" unicode="&#xd1;" horiz-adv-x="1867" 
d="M330 582v800l-25 29q-101 118 -182 125v47h352l1026 -1212v633l-4 296q-1 45 -3.5 71.5t-15 62t-35 55t-66 33.5t-105.5 14v47h559v-47q-61 0 -104 -13.5t-66 -32.5t-35.5 -53t-15.5 -62.5t-4 -74.5q-4 -158 -4 -299v-1030h-56l-1116 1295v-686l4 -297q1 -45 3.5 -71.5
t15 -62t35 -55t66 -33.5t105.5 -14v-47h-559v47q44 0 78.5 7t58 17.5t40.5 29t26 36t14 44.5t6.5 48.5t2.5 53.5q4 172 4 299zM780 2042q48 0 106.5 -24.5t104 -54.5t102 -54.5t101.5 -24.5q84 0 145 96l35 -18q-45 -128 -95 -188t-134 -60q-52 0 -112 24.5t-105 54.5
t-99.5 54.5t-97.5 24.5q-86 0 -145 -96l-35 18q45 128 95 188t134 60z" />
    <glyph glyph-name="Ograve" unicode="&#xd2;" horiz-adv-x="1810" 
d="M905 1524q-93 0 -175 -24.5t-155.5 -80.5t-126.5 -140t-83.5 -210t-30.5 -283t31 -282t83.5 -207.5t126 -137.5t155.5 -78.5t175 -23.5t175 23.5t156 78.5t126.5 137.5t83.5 207.5t31 282q0 195 -46.5 341.5t-127.5 231t-180.5 125t-217.5 40.5zM905 -29
q-170 0 -320.5 60t-260.5 166t-174 260.5t-64 335.5q0 240 110 428t296 288.5t413 100.5q135 0 259.5 -38.5t225.5 -112t176.5 -174t116.5 -230.5t41 -275q0 -181 -64 -333.5t-174 -256t-260 -161.5t-321 -58zM899 2111l158 -417h-41l-346 417h229z" />
    <glyph glyph-name="Oacute" unicode="&#xd3;" horiz-adv-x="1810" 
d="M905 1524q-93 0 -175 -24.5t-155.5 -80.5t-126.5 -140t-83.5 -210t-30.5 -283t31 -282t83.5 -207.5t126 -137.5t155.5 -78.5t175 -23.5t175 23.5t156 78.5t126.5 137.5t83.5 207.5t31 282q0 195 -46.5 341.5t-127.5 231t-180.5 125t-217.5 40.5zM905 -29
q-170 0 -320.5 60t-260.5 166t-174 260.5t-64 335.5q0 240 110 428t296 288.5t413 100.5q135 0 259.5 -38.5t225.5 -112t176.5 -174t116.5 -230.5t41 -275q0 -181 -64 -333.5t-174 -256t-260 -161.5t-321 -58zM748 1694l157 417h230l-347 -417h-40z" />
    <glyph glyph-name="Ocircumflex" unicode="&#xd4;" horiz-adv-x="1810" 
d="M905 1524q-93 0 -175 -24.5t-155.5 -80.5t-126.5 -140t-83.5 -210t-30.5 -283t31 -282t83.5 -207.5t126 -137.5t155.5 -78.5t175 -23.5t175 23.5t156 78.5t126.5 137.5t83.5 207.5t31 282q0 195 -46.5 341.5t-127.5 231t-180.5 125t-217.5 40.5zM905 -29
q-170 0 -320.5 60t-260.5 166t-174 260.5t-64 335.5q0 240 110 428t296 288.5t413 100.5q135 0 259.5 -38.5t225.5 -112t176.5 -174t116.5 -230.5t41 -275q0 -181 -64 -333.5t-174 -256t-260 -161.5t-321 -58zM588 1706l270 383h94l269 -381l-37 -29l-279 240l-280 -240z
" />
    <glyph glyph-name="Otilde" unicode="&#xd5;" horiz-adv-x="1810" 
d="M905 1524q-93 0 -175 -24.5t-155.5 -80.5t-126.5 -140t-83.5 -210t-30.5 -283t31 -282t83.5 -207.5t126 -137.5t155.5 -78.5t175 -23.5t175 23.5t156 78.5t126.5 137.5t83.5 207.5t31 282q0 195 -46.5 341.5t-127.5 231t-180.5 125t-217.5 40.5zM905 -29
q-170 0 -320.5 60t-260.5 166t-174 260.5t-64 335.5q0 240 110 428t296 288.5t413 100.5q135 0 259.5 -38.5t225.5 -112t176.5 -174t116.5 -230.5t41 -275q0 -181 -64 -333.5t-174 -256t-260 -161.5t-321 -58zM739 2042q48 0 106.5 -24.5t104 -54.5t102 -54.5t101.5 -24.5
q84 0 145 96l35 -18q-45 -128 -95 -188t-134 -60q-52 0 -112 24.5t-105 54.5t-99.5 54.5t-97.5 24.5q-86 0 -145 -96l-35 18q45 128 95 188t134 60z" />
    <glyph glyph-name="Odieresis" unicode="&#xd6;" horiz-adv-x="1810" 
d="M905 1524q-93 0 -175 -24.5t-155.5 -80.5t-126.5 -140t-83.5 -210t-30.5 -283t31 -282t83.5 -207.5t126 -137.5t155.5 -78.5t175 -23.5t175 23.5t156 78.5t126.5 137.5t83.5 207.5t31 282q0 195 -46.5 341.5t-127.5 231t-180.5 125t-217.5 40.5zM905 -29
q-170 0 -320.5 60t-260.5 166t-174 260.5t-64 335.5q0 240 110 428t296 288.5t413 100.5q135 0 259.5 -38.5t225.5 -112t176.5 -174t116.5 -230.5t41 -275q0 -181 -64 -333.5t-174 -256t-260 -161.5t-321 -58zM631 1722q-59 0 -99 41t-40 101q0 58 40 98.5t99 40.5
q60 0 100.5 -40t40.5 -99q0 -60 -40.5 -101t-100.5 -41zM1169 1722q-59 0 -99 41t-40 101q0 58 40 98.5t99 40.5q60 0 101 -40t41 -99q0 -60 -41 -101t-101 -41z" />
    <glyph glyph-name="multiply" unicode="&#xd7;" horiz-adv-x="1089" 
d="M920 963l67 -70l-373 -373l373 -373l-69 -67l-371 371l-371 -371l-67 70l368 370l-375 377l68 70l377 -379z" />
    <glyph glyph-name="Oslash" unicode="&#xd8;" horiz-adv-x="1810" 
d="M905 -29q-241 0 -432 113l-108 -156h-115l145 207q-146 110 -227.5 279t-81.5 379q0 240 110 428t296 288.5t413 100.5q241 0 438 -121l119 168h119l-158 -223q142 -113 221.5 -281t79.5 -373q0 -181 -64 -333.5t-174 -256t-260 -161.5t-321 -58zM905 1524
q-93 0 -175 -24.5t-155.5 -80.5t-126.5 -140t-83.5 -210t-30.5 -283q0 -345 143 -532l797 1132q-147 138 -369 138zM1477 786q0 332 -138 527l-796 -1131q142 -125 362 -125q93 0 175 23.5t156 78.5t126.5 137.5t83.5 207.5t31 282z" />
    <glyph glyph-name="Ugrave" unicode="&#xd9;" horiz-adv-x="1792" 
d="M272 1024l-2 395q0 52 -25 73.5t-77 29.5l-102 14v47h632v-47l-102 -14q-52 -8 -77 -29.5t-25 -73.5q-2 -209 -2 -395v-350q0 -136 23 -239.5t74 -183t139 -120.5t212 -41q469 0 469 578v336l-4 296q-1 44 -4 71.5t-15.5 62t-35.5 54.5t-66 34t-104 14v47h563v-47
q-60 0 -102.5 -13t-65.5 -32.5t-36 -53.5t-16.5 -63t-4.5 -74q-5 -158 -5 -299v-342q0 -336 -154 -512t-458 -176q-318 0 -473.5 173.5t-155.5 519.5v360zM891 2111l158 -417h-41l-346 417h229z" />
    <glyph glyph-name="Uacute" unicode="&#xda;" horiz-adv-x="1792" 
d="M272 1024l-2 395q0 52 -25 73.5t-77 29.5l-102 14v47h632v-47l-102 -14q-52 -8 -77 -29.5t-25 -73.5q-2 -209 -2 -395v-350q0 -136 23 -239.5t74 -183t139 -120.5t212 -41q469 0 469 578v336l-4 296q-1 44 -4 71.5t-15.5 62t-35.5 54.5t-66 34t-104 14v47h563v-47
q-60 0 -102.5 -13t-65.5 -32.5t-36 -53.5t-16.5 -63t-4.5 -74q-5 -158 -5 -299v-342q0 -336 -154 -512t-458 -176q-318 0 -473.5 173.5t-155.5 519.5v360zM801 1694l157 417h230l-346 -417h-41z" />
    <glyph glyph-name="Ucircumflex" unicode="&#xdb;" horiz-adv-x="1792" 
d="M272 1024l-2 395q0 52 -25 73.5t-77 29.5l-102 14v47h632v-47l-102 -14q-52 -8 -77 -29.5t-25 -73.5q-2 -209 -2 -395v-350q0 -136 23 -239.5t74 -183t139 -120.5t212 -41q469 0 469 578v336l-4 296q-1 44 -4 71.5t-15.5 62t-35.5 54.5t-66 34t-104 14v47h563v-47
q-60 0 -102.5 -13t-65.5 -32.5t-36 -53.5t-16.5 -63t-4.5 -74q-5 -158 -5 -299v-342q0 -336 -154 -512t-458 -176q-318 0 -473.5 173.5t-155.5 519.5v360zM616 1706l271 383h94l268 -381l-37 -29l-278 240l-281 -240z" />
    <glyph glyph-name="Udieresis" unicode="&#xdc;" horiz-adv-x="1792" 
d="M272 1024l-2 395q0 52 -25 73.5t-77 29.5l-102 14v47h632v-47l-102 -14q-52 -8 -77 -29.5t-25 -73.5q-2 -209 -2 -395v-350q0 -136 23 -239.5t74 -183t139 -120.5t212 -41q469 0 469 578v336l-4 296q-1 44 -4 71.5t-15.5 62t-35.5 54.5t-66 34t-104 14v47h563v-47
q-60 0 -102.5 -13t-65.5 -32.5t-36 -53.5t-16.5 -63t-4.5 -74q-5 -158 -5 -299v-342q0 -336 -154 -512t-458 -176q-318 0 -473.5 173.5t-155.5 519.5v360zM678 1722q-59 0 -99 41t-40 101q0 58 40.5 98.5t98.5 40.5q60 0 100.5 -40t40.5 -99q0 -60 -40.5 -101t-100.5 -41z
M1217 1722q-59 0 -99.5 41t-40.5 101q0 58 40.5 98.5t99.5 40.5q60 0 100.5 -40t40.5 -99q0 -60 -40.5 -101t-100.5 -41z" />
    <glyph glyph-name="Yacute" unicode="&#xdd;" horiz-adv-x="1513" 
d="M492 57q74 8 100 30t26 77q0 28 1.5 152t1.5 221v176l-424 719q-13 22 -23.5 35t-31.5 29.5t-56.5 26t-85.5 13.5v47h629v-47l-97 -8q-136 -12 -77 -117l348 -608l313 504q32 52 46.5 90.5t13.5 61.5t-17.5 38.5t-38.5 22t-57 10.5l-59 6v47h509v-47l-55 -6
q-63 -7 -109 -51t-120 -162l-389 -608v-172l2 -373q0 -55 25.5 -77t95.5 -30l114 -10v-47h-694v47zM659 1694l158 417h230l-347 -417h-41z" />
    <glyph glyph-name="Thorn" unicode="&#xde;" horiz-adv-x="1398" 
d="M694 1524q-74 -8 -103.5 -29t-29.5 -74q-2 -57 -4 -133q135 15 229 15q92 0 171.5 -12.5t155.5 -44.5t130 -82t86.5 -131t32.5 -185q0 -222 -151 -354t-392 -132q-121 0 -264 41q0 -63 1 -121.5t2.5 -89t2.5 -28.5q0 -53 29.5 -74t103.5 -29l133 -14v-47h-696v47l102 14
q52 8 76.5 28.5t24.5 68.5q0 28 1 165t1 234v487l-2 383q0 49 -24 69t-77 28l-102 14v47h696v-47zM739 1227q-94 0 -184 -33v-150v-585q97 -23 170 -23q184 0 299 108t115 306q0 377 -400 377z" />
    <glyph glyph-name="germandbls" unicode="&#xdf;" horiz-adv-x="1300" 
d="M645 233q38 0 63.5 -21t40.5 -51t31.5 -60t47 -51t75.5 -21q85 0 142 55.5t57 159.5q0 71 -36.5 132t-127.5 122l-76 51q-143 97 -206.5 177.5t-63.5 180.5q0 89 40.5 147t119.5 107q116 72 116 207q0 82 -51.5 134t-150.5 52q-41 0 -75 -11t-66 -40.5t-53.5 -77
t-34.5 -125.5t-13 -180v-606q0 -91 2 -274t2 -240h-373v47l84 14q51 9 65.5 23.5t16.5 50.5q4 234 4 379v404l-155 36v50h155v75q0 256 122 402.5t337 146.5q91 0 171.5 -23.5t137 -77t56.5 -128.5q0 -31 -9 -59.5t-20 -50.5t-34.5 -46.5t-39 -39t-49 -37t-48.5 -31.5
t-52 -31q-80 -49 -80 -117q0 -29 16 -57t53.5 -60t63.5 -51t82 -57l84 -57q142 -97 203 -182.5t61 -200.5q0 -86 -36.5 -155.5t-95 -110.5t-126 -63t-135.5 -22q-80 0 -154.5 18t-127 57t-52.5 91q0 41 26 68.5t66 27.5z" />
    <glyph glyph-name="agrave" unicode="&#xe0;" horiz-adv-x="1073" 
d="M852 768l-6 -498q-2 -84 18 -130t72 -46q51 0 102 51l29 -24q-86 -144 -221 -144q-72 0 -121.5 40t-62.5 124q-110 -172 -302 -172q-122 0 -198 72t-76 180q0 83 40 144t114.5 98t174 54.5t226.5 17.5h14v237q0 93 -34 143t-121 50q-82 0 -124.5 -36t-35.5 -102
q7 -56 -15 -92.5t-77 -36.5q-38 0 -64 28t-26 69q0 101 107 167t255 66q146 0 239.5 -62.5t92.5 -197.5zM289 242q0 -80 43 -122t110 -42q59 0 121 30t94 91v290q-198 -13 -283 -79.5t-85 -167.5zM467 1583l158 -418h-41l-346 418h229z" />
    <glyph glyph-name="aacute" unicode="&#xe1;" horiz-adv-x="1073" 
d="M852 768l-6 -498q-2 -84 18 -130t72 -46q51 0 102 51l29 -24q-86 -144 -221 -144q-72 0 -121.5 40t-62.5 124q-110 -172 -302 -172q-122 0 -198 72t-76 180q0 83 40 144t114.5 98t174 54.5t226.5 17.5h14v237q0 93 -34 143t-121 50q-82 0 -124.5 -36t-35.5 -102
q7 -56 -15 -92.5t-77 -36.5q-38 0 -64 28t-26 69q0 101 107 167t255 66q146 0 239.5 -62.5t92.5 -197.5zM289 242q0 -80 43 -122t110 -42q59 0 121 30t94 91v290q-198 -13 -283 -79.5t-85 -167.5zM416 1165l157 418h230l-346 -418h-41z" />
    <glyph glyph-name="acircumflex" unicode="&#xe2;" horiz-adv-x="1073" 
d="M852 768l-6 -498q-2 -84 18 -130t72 -46q51 0 102 51l29 -24q-86 -144 -221 -144q-72 0 -121.5 40t-62.5 124q-110 -172 -302 -172q-122 0 -198 72t-76 180q0 83 40 144t114.5 98t174 54.5t226.5 17.5h14v237q0 93 -34 143t-121 50q-82 0 -124.5 -36t-35.5 -102
q7 -56 -15 -92.5t-77 -36.5q-38 0 -64 28t-26 69q0 101 107 167t255 66q146 0 239.5 -62.5t92.5 -197.5zM289 242q0 -80 43 -122t110 -42q59 0 121 30t94 91v290q-198 -13 -283 -79.5t-85 -167.5zM199 1178l270 383h94l268 -381l-36 -29l-279 240l-280 -240z" />
    <glyph glyph-name="atilde" unicode="&#xe3;" horiz-adv-x="1073" 
d="M852 768l-6 -498q-2 -84 18 -130t72 -46q51 0 102 51l29 -24q-86 -144 -221 -144q-72 0 -121.5 40t-62.5 124q-110 -172 -302 -172q-122 0 -198 72t-76 180q0 83 40 144t114.5 98t174 54.5t226.5 17.5h14v237q0 93 -34 143t-121 50q-82 0 -124.5 -36t-35.5 -102
q7 -56 -15 -92.5t-77 -36.5q-38 0 -64 28t-26 69q0 101 107 167t255 66q146 0 239.5 -62.5t92.5 -197.5zM289 242q0 -80 43 -122t110 -42q59 0 121 30t94 91v290q-198 -13 -283 -79.5t-85 -167.5zM362 1513q48 0 100 -24.5t90 -54t88 -54t95 -24.5q84 0 146 96l34 -18
q-43 -123 -93.5 -175.5t-135.5 -52.5q-53 0 -106.5 24.5t-91 54.5t-85 54.5t-90.5 24.5q-83 0 -145 -96l-35 18q43 122 93.5 174.5t135.5 52.5z" />
    <glyph glyph-name="adieresis" unicode="&#xe4;" horiz-adv-x="1073" 
d="M852 768l-6 -498q-2 -84 18 -130t72 -46q51 0 102 51l29 -24q-86 -144 -221 -144q-72 0 -121.5 40t-62.5 124q-110 -172 -302 -172q-122 0 -198 72t-76 180q0 83 40 144t114.5 98t174 54.5t226.5 17.5h14v237q0 93 -34 143t-121 50q-82 0 -124.5 -36t-35.5 -102
q7 -56 -15 -92.5t-77 -36.5q-38 0 -64 28t-26 69q0 101 107 167t255 66q146 0 239.5 -62.5t92.5 -197.5zM289 242q0 -80 43 -122t110 -42q59 0 121 30t94 91v290q-198 -13 -283 -79.5t-85 -167.5zM295 1235q-59 0 -99 40.5t-40 100.5q0 59 40.5 99.5t98.5 40.5
q60 0 100.5 -40.5t40.5 -99.5q0 -60 -40.5 -100.5t-100.5 -40.5zM731 1235q-59 0 -99 40.5t-40 100.5q0 59 40.5 99.5t98.5 40.5q60 0 100.5 -40.5t40.5 -99.5q0 -60 -40.5 -100.5t-100.5 -40.5z" />
    <glyph glyph-name="aring" unicode="&#xe5;" horiz-adv-x="1073" 
d="M852 768l-6 -498q-2 -84 18 -130t72 -46q51 0 102 51l29 -24q-86 -144 -221 -144q-72 0 -121.5 40t-62.5 124q-110 -172 -302 -172q-122 0 -198 72t-76 180q0 83 40 144t114.5 98t174 54.5t226.5 17.5h14v237q0 93 -34 143t-121 50q-82 0 -124.5 -36t-35.5 -102
q7 -56 -15 -92.5t-77 -36.5q-38 0 -64 28t-26 69q0 101 107 167t255 66q146 0 239.5 -62.5t92.5 -197.5zM289 242q0 -80 43 -122t110 -42q59 0 121 30t94 91v290q-198 -13 -283 -79.5t-85 -167.5zM537 1546q87 0 147.5 -58t60.5 -142t-60.5 -142.5t-147.5 -58.5t-148 58.5
t-61 142.5t61 142t148 58zM537 1221q60 0 91 34t31 91q0 58 -34 91t-88 33q-56 0 -88.5 -34t-32.5 -90t32.5 -90.5t88.5 -34.5z" />
    <glyph glyph-name="ae" unicode="&#xe6;" horiz-adv-x="1630" 
d="M801 893q65 62 151.5 99.5t177.5 37.5q177 0 297 -115t138 -317h-715v-66q0 -114 26.5 -200.5t73 -138.5t106.5 -77.5t132 -25.5q216 0 328 201l53 -23q-61 -149 -173 -223t-251 -74q-298 0 -418 217q-67 -120 -158 -169.5t-209 -49.5q-124 0 -199 73.5t-75 182.5
q0 82 40.5 143t115.5 97t174 53t225 17h14v243q0 93 -35 142t-120 49q-92 0 -128.5 -40t-31.5 -100q11 -129 -92 -129q-37 0 -63.5 26.5t-26.5 70.5q0 67 53.5 122t132.5 83t164 28q214 0 293 -137zM289 242q0 -79 43 -119.5t110 -40.5q40 0 80 11t91.5 47.5t91.5 95.5
q-48 111 -48 253q-198 -13 -283 -79.5t-85 -167.5zM856 659h506q-3 83 -24.5 145t-56 96t-72 49.5t-79.5 15.5q-104 0 -181.5 -85.5t-92.5 -220.5z" />
    <glyph glyph-name="ccedilla" unicode="&#xe7;" horiz-adv-x="1046" 
d="M944 268l53 -24q-28 -65 -67 -114.5t-79.5 -79t-87.5 -48t-87.5 -25t-83.5 -6.5h-2l-109 -143q61 47 127 47q67 0 110.5 -39.5t43.5 -107.5q0 -55 -36.5 -101t-94 -75t-121 -46t-125.5 -22l-8 43q122 16 190 73.5t68 123.5q0 37 -22 63.5t-72 26.5q-42 0 -84 -29l-49 39
l110 151q-202 24 -314 170.5t-112 352.5q0 236 149.5 384t381.5 148q74 0 152 -19.5t137 -61.5t59 -95q0 -41 -26.5 -66.5t-59.5 -25.5q-42 0 -68.5 21t-40.5 51t-30 59.5t-50 50.5t-88 21q-51 0 -104 -28.5t-98.5 -80.5t-74 -136t-28.5 -185q0 -195 90.5 -320t247.5 -125
q202 0 303 178z" />
    <glyph glyph-name="egrave" unicode="&#xe8;" horiz-adv-x="1079" 
d="M1014 600h-713v-68q0 -193 90 -317.5t242 -124.5q219 0 332 201l53 -23q-61 -149 -173.5 -223t-254.5 -74q-155 0 -270 70.5t-172.5 189.5t-57.5 271q0 115 40 215t108 168.5t159 107.5t191 39q174 0 291 -115t135 -317zM584 963q-105 0 -183.5 -83.5t-93.5 -217.5h500
q-6 161 -69.5 231t-153.5 70zM526 1583l158 -418h-41l-346 418h229z" />
    <glyph glyph-name="eacute" unicode="&#xe9;" horiz-adv-x="1079" 
d="M1014 600h-713v-68q0 -193 90 -317.5t242 -124.5q219 0 332 201l53 -23q-61 -149 -173.5 -223t-254.5 -74q-155 0 -270 70.5t-172.5 189.5t-57.5 271q0 115 40 215t108 168.5t159 107.5t191 39q174 0 291 -115t135 -317zM584 963q-105 0 -183.5 -83.5t-93.5 -217.5h500
q-6 161 -69.5 231t-153.5 70zM471 1165l158 418h229l-346 -418h-41z" />
    <glyph glyph-name="ecircumflex" unicode="&#xea;" horiz-adv-x="1079" 
d="M1014 600h-713v-68q0 -193 90 -317.5t242 -124.5q219 0 332 201l53 -23q-61 -149 -173.5 -223t-254.5 -74q-155 0 -270 70.5t-172.5 189.5t-57.5 271q0 115 40 215t108 168.5t159 107.5t191 39q174 0 291 -115t135 -317zM584 963q-105 0 -183.5 -83.5t-93.5 -217.5h500
q-6 161 -69.5 231t-153.5 70zM266 1178l271 383h94l268 -381l-37 -29l-278 240l-281 -240z" />
    <glyph glyph-name="edieresis" unicode="&#xeb;" horiz-adv-x="1079" 
d="M1014 600h-713v-68q0 -193 90 -317.5t242 -124.5q219 0 332 201l53 -23q-61 -149 -173.5 -223t-254.5 -74q-155 0 -270 70.5t-172.5 189.5t-57.5 271q0 115 40 215t108 168.5t159 107.5t191 39q174 0 291 -115t135 -317zM584 963q-105 0 -183.5 -83.5t-93.5 -217.5h500
q-6 161 -69.5 231t-153.5 70zM352 1235q-59 0 -99 40.5t-40 100.5q0 59 40.5 99.5t98.5 40.5q60 0 101 -40.5t41 -99.5q0 -60 -41 -100.5t-101 -40.5zM788 1235q-59 0 -99 40.5t-40 100.5q0 59 40.5 99.5t98.5 40.5q60 0 101 -40.5t41 -99.5q0 -60 -41 -100.5t-101 -40.5z
" />
    <glyph glyph-name="igrave" unicode="&#xec;" horiz-adv-x="667" 
d="M244 473v358q0 39 -13 58t-49 26l-112 23v47l372 29v-541l4 -336q2 -39 14.5 -54t59.5 -22l94 -14v-47h-544v47l86 14q50 8 66 25t18 49q4 215 4 338zM328 1583l157 -418h-41l-346 418h230z" />
    <glyph glyph-name="iacute" unicode="&#xed;" horiz-adv-x="667" 
d="M244 473v358q0 39 -13 58t-49 26l-112 23v47l372 29v-541l4 -336q2 -39 14.5 -54t59.5 -22l94 -14v-47h-544v47l86 14q50 8 66 25t18 49q4 215 4 338zM147 1165l158 418h230l-347 -418h-41z" />
    <glyph glyph-name="icircumflex" unicode="&#xee;" horiz-adv-x="667" 
d="M244 473v358q0 39 -13 58t-49 26l-112 23v47l372 29v-541l4 -336q2 -39 14.5 -54t59.5 -22l94 -14v-47h-544v47l86 14q50 8 66 25t18 49q4 215 4 338zM-12 1178l270 383h94l269 -381l-37 -29l-279 240l-280 -240z" />
    <glyph glyph-name="idieresis" unicode="&#xef;" horiz-adv-x="667" 
d="M244 473v358q0 39 -13 58t-49 26l-112 23v47l372 29v-541l4 -336q2 -39 14.5 -54t59.5 -22l94 -14v-47h-544v47l86 14q50 8 66 25t18 49q4 215 4 338zM88 1235q-59 0 -99 40.5t-40 100.5q0 59 40.5 99.5t98.5 40.5q60 0 100.5 -40.5t40.5 -99.5q0 -60 -40.5 -100.5
t-100.5 -40.5zM524 1235q-59 0 -99 40.5t-40 100.5q0 59 40.5 99.5t98.5 40.5q60 0 101 -40.5t41 -99.5q0 -60 -41 -100.5t-101 -40.5z" />
    <glyph glyph-name="eth" unicode="&#xf0;" horiz-adv-x="1273" 
d="M344 1126l-68 88l265 222q-143 119 -359 213l29 63q213 -64 416 -205l262 222l65 -89l-237 -200q205 -164 329.5 -381t124.5 -461q0 -182 -60 -323t-178.5 -222.5t-279.5 -81.5q-115 0 -218 42t-175.5 113.5t-115 168.5t-42.5 203q0 114 33 208t83.5 152.5t115 98.5
t124 56.5t113.5 16.5q60 0 114 -16t92 -40.5t70 -57.5t51 -61.5t34 -59.5q-74 337 -307 567zM315 510q0 -209 95 -337t249 -128q139 0 223.5 128t84.5 316q0 120 -40 223t-120.5 168.5t-185.5 65.5q-134 0 -220 -125t-86 -311z" />
    <glyph glyph-name="ntilde" unicode="&#xf1;" horiz-adv-x="1316" 
d="M70 981l360 20l10 -208q117 237 355 237q154 0 236.5 -97.5t82.5 -295.5v-164l6 -338q2 -36 16.5 -50.5t67.5 -23.5l86 -14v-47h-549v47l90 14q51 9 65.5 23.5t16.5 50.5q2 197 2 338v127q0 73 -10.5 126.5t-34.5 95.5t-67.5 63.5t-106.5 21.5q-67 0 -136 -45.5
t-118 -138.5v-250l4 -336q2 -39 15.5 -54t60.5 -22l96 -14v-47h-546v47l86 14q50 8 65 25t17 49q4 215 4 338l-2 365q0 38 -12.5 51.5t-49.5 21.5l-110 23v47zM526 1513q48 0 100 -24.5t90 -54t88 -54t95 -24.5q83 0 145 96l35 -18q-43 -123 -93.5 -175.5t-135.5 -52.5
q-53 0 -106.5 24.5t-91 54.5t-85 54.5t-90.5 24.5q-83 0 -145 -96l-35 18q43 122 93.5 174.5t135.5 52.5z" />
    <glyph glyph-name="ograve" unicode="&#xf2;" horiz-adv-x="1239" 
d="M612 -29q-159 0 -280 78t-181.5 201t-60.5 268q0 110 44 206.5t117 163t169 104.5t198 38q157 0 279.5 -74.5t187 -198t64.5 -272.5q0 -217 -152.5 -365.5t-384.5 -148.5zM610 53q142 0 229 118.5t87 324.5q0 198 -83.5 325t-219.5 127q-140 0 -224 -120t-84 -326
q0 -122 35.5 -224t103.5 -163.5t156 -61.5zM592 1583l158 -418h-41l-347 418h230z" />
    <glyph glyph-name="oacute" unicode="&#xf3;" horiz-adv-x="1239" 
d="M612 -29q-159 0 -280 78t-181.5 201t-60.5 268q0 110 44 206.5t117 163t169 104.5t198 38q157 0 279.5 -74.5t187 -198t64.5 -272.5q0 -217 -152.5 -365.5t-384.5 -148.5zM610 53q142 0 229 118.5t87 324.5q0 198 -83.5 325t-219.5 127q-140 0 -224 -120t-84 -326
q0 -122 35.5 -224t103.5 -163.5t156 -61.5zM514 1165l158 418h229l-346 -418h-41z" />
    <glyph glyph-name="ocircumflex" unicode="&#xf4;" horiz-adv-x="1239" 
d="M612 -29q-159 0 -280 78t-181.5 201t-60.5 268q0 110 44 206.5t117 163t169 104.5t198 38q157 0 279.5 -74.5t187 -198t64.5 -272.5q0 -217 -152.5 -365.5t-384.5 -148.5zM610 53q142 0 229 118.5t87 324.5q0 198 -83.5 325t-219.5 127q-140 0 -224 -120t-84 -326
q0 -122 35.5 -224t103.5 -163.5t156 -61.5zM303 1178l270 383h95l268 -381l-37 -29l-278 240l-281 -240z" />
    <glyph glyph-name="otilde" unicode="&#xf5;" horiz-adv-x="1239" 
d="M612 -29q-159 0 -280 78t-181.5 201t-60.5 268q0 110 44 206.5t117 163t169 104.5t198 38q157 0 279.5 -74.5t187 -198t64.5 -272.5q0 -217 -152.5 -365.5t-384.5 -148.5zM610 53q142 0 229 118.5t87 324.5q0 198 -83.5 325t-219.5 127q-140 0 -224 -120t-84 -326
q0 -122 35.5 -224t103.5 -163.5t156 -61.5zM461 1513q48 0 100 -24.5t90 -54t88 -54t95 -24.5q83 0 145 96l35 -18q-43 -122 -94 -175t-136 -53q-44 0 -86.5 16.5t-76.5 39.5t-67 46t-70 39.5t-72 16.5q-84 0 -146 -96l-35 18q43 122 94 174.5t136 52.5z" />
    <glyph glyph-name="odieresis" unicode="&#xf6;" horiz-adv-x="1239" 
d="M612 -29q-159 0 -280 78t-181.5 201t-60.5 268q0 110 44 206.5t117 163t169 104.5t198 38q157 0 279.5 -74.5t187 -198t64.5 -272.5q0 -217 -152.5 -365.5t-384.5 -148.5zM610 53q142 0 229 118.5t87 324.5q0 198 -83.5 325t-219.5 127q-140 0 -224 -120t-84 -326
q0 -122 35.5 -224t103.5 -163.5t156 -61.5zM397 1235q-59 0 -99 40.5t-40 100.5q0 59 40.5 99.5t98.5 40.5q60 0 101 -40.5t41 -99.5q0 -60 -41 -100.5t-101 -40.5zM834 1235q-59 0 -99.5 40.5t-40.5 100.5q0 58 41 99t99 41q60 0 100.5 -40.5t40.5 -99.5
q0 -60 -40.5 -100.5t-100.5 -40.5z" />
    <glyph glyph-name="divide" unicode="&#xf7;" horiz-adv-x="1134" 
d="M102 471v96h930v-96h-930zM557 717q-63 0 -108.5 46.5t-45.5 113.5q0 63 45.5 108t108.5 45q67 0 113.5 -45t46.5 -108q0 -67 -46.5 -113.5t-113.5 -46.5zM557 16q-63 0 -108.5 46.5t-45.5 113.5q0 63 45.5 108.5t108.5 45.5q67 0 113.5 -45.5t46.5 -108.5
q0 -68 -46.5 -114t-113.5 -46z" />
    <glyph glyph-name="oslash" unicode="&#xf8;" horiz-adv-x="1239" 
d="M612 -29q-158 0 -282 78l-86 -121h-115l127 181q-81 76 -123.5 182.5t-42.5 226.5q0 110 44 206.5t117 163t169 104.5t198 38q131 0 244 -55l92 131h119l-129 -182q97 -75 151 -190.5t54 -248.5q0 -217 -152.5 -365.5t-384.5 -148.5zM610 53q142 0 229 118.5t87 324.5
q0 174 -70 301l-446 -633q83 -111 200 -111zM315 502q0 -139 43 -246l437 621q-74 71 -172 71q-140 0 -224 -120t-84 -326z" />
    <glyph glyph-name="ugrave" unicode="&#xf9;" horiz-adv-x="1241" 
d="M862 0l-10 233q-105 -262 -342 -262q-76 0 -133.5 24t-91.5 63t-55 95.5t-28 113t-7 124.5v424q0 39 -13 58t-49 26l-110 23v47l366 20v-575q0 -58 5 -103.5t18.5 -87.5t35.5 -69.5t58.5 -43.5t85.5 -16q79 0 149 54t105 174v493q0 39 -14 58t-50 26l-110 23v47l370 22
v-856q0 -36 15.5 -50.5t68.5 -23.5l86 -14v-47h-350zM559 1583l158 -418h-41l-346 418h229z" />
    <glyph glyph-name="uacute" unicode="&#xfa;" horiz-adv-x="1241" 
d="M862 0l-10 233q-105 -262 -342 -262q-76 0 -133.5 24t-91.5 63t-55 95.5t-28 113t-7 124.5v424q0 39 -13 58t-49 26l-110 23v47l366 20v-575q0 -58 5 -103.5t18.5 -87.5t35.5 -69.5t58.5 -43.5t85.5 -16q79 0 149 54t105 174v493q0 39 -14 58t-50 26l-110 23v47l370 22
v-856q0 -36 15.5 -50.5t68.5 -23.5l86 -14v-47h-350zM485 1165l158 418h229l-346 -418h-41z" />
    <glyph glyph-name="ucircumflex" unicode="&#xfb;" horiz-adv-x="1241" 
d="M862 0l-10 233q-105 -262 -342 -262q-76 0 -133.5 24t-91.5 63t-55 95.5t-28 113t-7 124.5v424q0 39 -13 58t-49 26l-110 23v47l366 20v-575q0 -58 5 -103.5t18.5 -87.5t35.5 -69.5t58.5 -43.5t85.5 -16q79 0 149 54t105 174v493q0 39 -14 58t-50 26l-110 23v47l370 22
v-856q0 -36 15.5 -50.5t68.5 -23.5l86 -14v-47h-350zM270 1178l271 383h94l268 -381l-37 -29l-278 240l-281 -240z" />
    <glyph glyph-name="udieresis" unicode="&#xfc;" horiz-adv-x="1241" 
d="M862 0l-10 233q-105 -262 -342 -262q-76 0 -133.5 24t-91.5 63t-55 95.5t-28 113t-7 124.5v424q0 39 -13 58t-49 26l-110 23v47l366 20v-575q0 -58 5 -103.5t18.5 -87.5t35.5 -69.5t58.5 -43.5t85.5 -16q79 0 149 54t105 174v493q0 39 -14 58t-50 26l-110 23v47l370 22
v-856q0 -36 15.5 -50.5t68.5 -23.5l86 -14v-47h-350zM365 1235q-59 0 -99.5 40.5t-40.5 100.5q0 58 40.5 99t99.5 41q60 0 100.5 -40.5t40.5 -99.5q0 -60 -40.5 -100.5t-100.5 -40.5zM801 1235q-59 0 -99 40.5t-40 100.5q0 59 40.5 99.5t98.5 40.5q60 0 100.5 -40.5
t40.5 -99.5q0 -60 -40.5 -100.5t-100.5 -40.5z" />
    <glyph glyph-name="yacute" unicode="&#xfd;" horiz-adv-x="1132" 
d="M899 696l-405 -1005q-75 -185 -146 -250.5t-188 -65.5q-29 0 -65.5 8.5t-74 25.5t-63 48.5t-25.5 71.5q0 34 26.5 63t68.5 29q31 0 55.5 -16.5t41 -40t31 -47t33 -40t39.5 -16.5q35 0 76.5 52t66 102.5t44.5 101.5l96 242l-340 893q-17 45 -48.5 63t-98.5 19v47h526v-47
q-89 0 -130.5 -21.5t-25.5 -70.5l217 -643l197 512q26 65 31.5 109t-9.5 68.5t-42.5 34.5t-71.5 11v47h420v-47q-39 -5 -58 -9.5t-45 -18t-44 -38t-40.5 -66.5t-48.5 -106zM510 1165l158 418h229l-346 -418h-41z" />
    <glyph glyph-name="thorn" unicode="&#xfe;" horiz-adv-x="1259" 
d="M406 856l-3 -739q64 -47 181 -47q90 0 161.5 37t114.5 98t65.5 135.5t22.5 155.5q0 198 -96.5 317t-226.5 119q-53 0 -114.5 -19.5t-104.5 -56.5zM35 1618l368 20v-733q113 125 299 125q205 0 334 -153t129 -390q0 -103 -35.5 -196.5t-98.5 -164.5t-158.5 -113
t-208.5 -42q-160 0 -258 90v-143l6 -381q2 -40 15 -55t60 -21l115 -14v-47h-567v47l86 14q50 8 66 25t18 49q4 272 4 385v1544q0 39 -14 58t-50 26l-110 23v47z" />
    <glyph glyph-name="ydieresis" unicode="&#xff;" horiz-adv-x="1132" 
d="M899 696l-405 -1005q-75 -185 -146 -250.5t-188 -65.5q-29 0 -65.5 8.5t-74 25.5t-63 48.5t-25.5 71.5q0 34 26.5 63t68.5 29q31 0 55.5 -16.5t41 -40t31 -47t33 -40t39.5 -16.5q35 0 76.5 52t66 102.5t44.5 101.5l96 242l-340 893q-17 45 -48.5 63t-98.5 19v47h526v-47
q-89 0 -130.5 -21.5t-25.5 -70.5l217 -643l197 512q26 65 31.5 109t-9.5 68.5t-42.5 34.5t-71.5 11v47h420v-47q-39 -5 -58 -9.5t-45 -18t-44 -38t-40.5 -66.5t-48.5 -106zM403 1235q-59 0 -99 40.5t-40 100.5q0 59 40.5 99.5t98.5 40.5q60 0 101 -40.5t41 -99.5
q0 -60 -41 -100.5t-101 -40.5zM840 1235q-59 0 -99.5 40.5t-40.5 100.5q0 58 41 99t99 41q60 0 100.5 -40.5t40.5 -99.5q0 -60 -40.5 -100.5t-100.5 -40.5z" />
    <glyph glyph-name="Amacron" unicode="&#x100;" horiz-adv-x="1601" 
d="M229 266l529 1358h51l616 -1472q36 -91 125 -99l72 -6v-47h-629v47l97 8q67 9 83.5 37t-6.5 80l-155 395h-559l-111 -291q-20 -54 -25 -93.5t0.5 -62.5t23.5 -37.5t37.5 -20.5t49.5 -9l61 -6v-47h-509v47l53 6q67 8 108.5 51t87.5 162zM729 1292l-223 -583h450zM457 1784
v96h663v-96h-663z" />
    <glyph glyph-name="amacron" unicode="&#x101;" horiz-adv-x="1073" 
d="M852 768l-6 -498q-2 -84 18 -130t72 -46q51 0 102 51l29 -24q-86 -144 -221 -144q-72 0 -121.5 40t-62.5 124q-110 -172 -302 -172q-122 0 -198 72t-76 180q0 83 40 144t114.5 98t174 54.5t226.5 17.5h14v237q0 93 -34 143t-121 50q-82 0 -124.5 -36t-35.5 -102
q7 -56 -15 -92.5t-77 -36.5q-38 0 -64 28t-26 69q0 101 107 167t255 66q146 0 239.5 -62.5t92.5 -197.5zM289 242q0 -80 43 -122t110 -42q59 0 121 30t94 91v290q-198 -13 -283 -79.5t-85 -167.5zM184 1296v97h664v-97h-664z" />
    <glyph glyph-name="Abreve" unicode="&#x102;" horiz-adv-x="1601" 
d="M229 266l529 1358h51l616 -1472q36 -91 125 -99l72 -6v-47h-629v47l97 8q67 9 83.5 37t-6.5 80l-155 395h-559l-111 -291q-20 -54 -25 -93.5t0.5 -62.5t23.5 -37.5t37.5 -20.5t49.5 -9l61 -6v-47h-509v47l53 6q67 8 108.5 51t87.5 162zM729 1292l-223 -583h450zM561 2021
q13 -118 80.5 -182.5t157.5 -64.5q94 0 159 64t78 183h97q-8 -81 -36.5 -142.5t-64.5 -95.5t-82 -55t-81.5 -27.5t-69.5 -6.5t-69.5 6t-81.5 27.5t-82 55t-64.5 95.5t-36.5 143h96z" />
    <glyph glyph-name="abreve" unicode="&#x103;" horiz-adv-x="1073" 
d="M852 768l-6 -498q-2 -84 18 -130t72 -46q51 0 102 51l29 -24q-86 -144 -221 -144q-72 0 -121.5 40t-62.5 124q-110 -172 -302 -172q-122 0 -198 72t-76 180q0 83 40 144t114.5 98t174 54.5t226.5 17.5h14v237q0 93 -34 143t-121 50q-82 0 -124.5 -36t-35.5 -102
q7 -56 -15 -92.5t-77 -36.5q-38 0 -64 28t-26 69q0 101 107 167t255 66q146 0 239.5 -62.5t92.5 -197.5zM289 242q0 -80 43 -122t110 -42q59 0 121 30t94 91v290q-198 -13 -283 -79.5t-85 -167.5zM297 1493q13 -118 80.5 -183t157.5 -65q94 0 159 64.5t78 183.5h96
q-8 -81 -36.5 -142.5t-64.5 -95.5t-81.5 -55.5t-81 -28t-69.5 -6.5t-69.5 6t-81.5 27t-82 55t-64.5 96t-36.5 144h96z" />
    <glyph glyph-name="Aogonek" unicode="&#x104;" horiz-adv-x="1601" 
d="M229 266l529 1358h51l616 -1472q36 -91 125 -99l72 -6v-47h-276q-72 -69 -115 -145.5t-43 -141.5q0 -69 40.5 -101t102.5 -32q37 0 84 14l12 -30q-93 -60 -192 -60q-84 0 -140.5 42.5t-56.5 129.5q0 90 69 166.5t196 157.5h-310v47l97 8q67 9 83.5 37t-6.5 80l-155 395
h-559l-111 -291q-20 -54 -25 -93.5t0.5 -62.5t23.5 -37.5t37.5 -20.5t49.5 -9l61 -6v-47h-509v47l53 6q67 8 108.5 51t87.5 162zM729 1292l-223 -583h450z" />
    <glyph glyph-name="aogonek" unicode="&#x105;" horiz-adv-x="1073" 
d="M979 -408l12 -30q-93 -60 -192 -60q-84 0 -140.5 42.5t-56.5 129.5q0 84 61 156.5t173 146.5q-69 3 -116 43t-58 121q-110 -172 -302 -172q-122 0 -198 72t-76 180q0 83 40 144t114.5 98t174 54.5t226.5 17.5h14v237q0 93 -34 143t-121 50q-82 0 -124.5 -36t-35.5 -102
q7 -56 -15 -92.5t-77 -36.5q-38 0 -64 28t-26 69q0 101 107 167t255 66q146 0 239.5 -62.5t92.5 -197.5l-6 -498q-2 -84 18 -130t72 -46q51 0 102 51l29 -24q-71 -118 -174 -139q-64 -66 -102.5 -138.5t-38.5 -132.5q0 -69 40.5 -101t102.5 -32q37 0 84 14zM289 242
q0 -80 43 -122t110 -42q59 0 121 30t94 91v290q-198 -13 -283 -79.5t-85 -167.5z" />
    <glyph glyph-name="Cacute" unicode="&#x106;" horiz-adv-x="1683" 
d="M1554 442h48l-62 -309q-122 -81 -278 -121.5t-293 -40.5q-204 0 -371.5 64.5t-276.5 175.5t-168 258.5t-59 314.5q0 181 67 336.5t181.5 262t270 167t329.5 60.5q53 0 107.5 -5t91.5 -9.5t99.5 -18.5t88 -20t103.5 -27t102 -27l37 -309h-43q-167 326 -590 326
q-92 0 -176.5 -26t-161.5 -84t-134 -142.5t-90.5 -210.5t-33.5 -279q0 -144 35.5 -264t96 -202.5t141.5 -140t170 -84t184 -26.5q61 0 118.5 8t128.5 32.5t130.5 65t115.5 111t92 164.5zM817 1694l158 417h229l-346 -417h-41z" />
    <glyph glyph-name="cacute" unicode="&#x107;" horiz-adv-x="1046" 
d="M944 268l53 -24q-28 -65 -67 -114.5t-79.5 -79t-87.5 -48t-87.5 -25t-83.5 -6.5q-158 0 -273 72.5t-171 190.5t-56 264q0 236 149.5 384t381.5 148q74 0 152 -19.5t137 -61.5t59 -95q0 -41 -26.5 -66.5t-59.5 -25.5q-42 0 -68.5 21t-40.5 51t-30 59.5t-50 50.5t-88 21
q-51 0 -104 -28.5t-98.5 -80.5t-74 -136t-28.5 -185q0 -195 90.5 -320t247.5 -125q202 0 303 178zM451 1165l157 418h230l-346 -418h-41z" />
    <glyph glyph-name="Ccircumflex" unicode="&#x108;" horiz-adv-x="1683" 
d="M1554 442h48l-62 -309q-122 -81 -278 -121.5t-293 -40.5q-204 0 -371.5 64.5t-276.5 175.5t-168 258.5t-59 314.5q0 181 67 336.5t181.5 262t270 167t329.5 60.5q53 0 107.5 -5t91.5 -9.5t99.5 -18.5t88 -20t103.5 -27t102 -27l37 -309h-43q-167 326 -590 326
q-92 0 -176.5 -26t-161.5 -84t-134 -142.5t-90.5 -210.5t-33.5 -279q0 -144 35.5 -264t96 -202.5t141.5 -140t170 -84t184 -26.5q61 0 118.5 8t128.5 32.5t130.5 65t115.5 111t92 164.5zM606 1706l271 383h94l268 -381l-37 -29l-278 240l-281 -240z" />
    <glyph glyph-name="ccircumflex" unicode="&#x109;" horiz-adv-x="1046" 
d="M944 268l53 -24q-28 -65 -67 -114.5t-79.5 -79t-87.5 -48t-87.5 -25t-83.5 -6.5q-158 0 -273 72.5t-171 190.5t-56 264q0 236 149.5 384t381.5 148q74 0 152 -19.5t137 -61.5t59 -95q0 -41 -26.5 -66.5t-59.5 -25.5q-42 0 -68.5 21t-40.5 51t-30 59.5t-50 50.5t-88 21
q-51 0 -104 -28.5t-98.5 -80.5t-74 -136t-28.5 -185q0 -195 90.5 -320t247.5 -125q202 0 303 178zM256 1178l270 383h95l268 -381l-37 -29l-279 240l-280 -240z" />
    <glyph glyph-name="Cdotaccent" unicode="&#x10a;" horiz-adv-x="1683" 
d="M1554 442h48l-62 -309q-122 -81 -278 -121.5t-293 -40.5q-204 0 -371.5 64.5t-276.5 175.5t-168 258.5t-59 314.5q0 181 67 336.5t181.5 262t270 167t329.5 60.5q53 0 107.5 -5t91.5 -9.5t99.5 -18.5t88 -20t103.5 -27t102 -27l37 -309h-43q-167 326 -590 326
q-92 0 -176.5 -26t-161.5 -84t-134 -142.5t-90.5 -210.5t-33.5 -279q0 -144 35.5 -264t96 -202.5t141.5 -140t170 -84t184 -26.5q61 0 118.5 8t128.5 32.5t130.5 65t115.5 111t92 164.5zM940 1712q-59 0 -99 40.5t-40 100.5q0 59 40.5 99.5t98.5 40.5q60 0 100.5 -40.5
t40.5 -99.5q0 -60 -40.5 -100.5t-100.5 -40.5z" />
    <glyph glyph-name="cdotaccent" unicode="&#x10b;" horiz-adv-x="1046" 
d="M944 268l53 -24q-28 -65 -67 -114.5t-79.5 -79t-87.5 -48t-87.5 -25t-83.5 -6.5q-158 0 -273 72.5t-171 190.5t-56 264q0 236 149.5 384t381.5 148q74 0 152 -19.5t137 -61.5t59 -95q0 -41 -26.5 -66.5t-59.5 -25.5q-42 0 -68.5 21t-40.5 51t-30 59.5t-50 50.5t-88 21
q-51 0 -104 -28.5t-98.5 -80.5t-74 -136t-28.5 -185q0 -195 90.5 -320t247.5 -125q202 0 303 178zM600 1266q-59 0 -99 40.5t-40 100.5q0 59 40.5 99t98.5 40q60 0 100.5 -40t40.5 -99q0 -60 -40.5 -100.5t-100.5 -40.5z" />
    <glyph glyph-name="Ccaron" unicode="&#x10c;" horiz-adv-x="1683" 
d="M1554 442h48l-62 -309q-122 -81 -278 -121.5t-293 -40.5q-204 0 -371.5 64.5t-276.5 175.5t-168 258.5t-59 314.5q0 181 67 336.5t181.5 262t270 167t329.5 60.5q53 0 107.5 -5t91.5 -9.5t99.5 -18.5t88 -20t103.5 -27t102 -27l37 -309h-43q-167 326 -590 326
q-92 0 -176.5 -26t-161.5 -84t-134 -142.5t-90.5 -210.5t-33.5 -279q0 -144 35.5 -264t96 -202.5t141.5 -140t170 -84t184 -26.5q61 0 118.5 8t128.5 32.5t130.5 65t115.5 111t92 164.5zM1247 2071l-270 -383h-94l-269 380l37 29l279 -248l280 248z" />
    <glyph glyph-name="ccaron" unicode="&#x10d;" horiz-adv-x="1046" 
d="M944 268l53 -24q-28 -65 -67 -114.5t-79.5 -79t-87.5 -48t-87.5 -25t-83.5 -6.5q-158 0 -273 72.5t-171 190.5t-56 264q0 236 149.5 384t381.5 148q74 0 152 -19.5t137 -61.5t59 -95q0 -41 -26.5 -66.5t-59.5 -25.5q-42 0 -68.5 21t-40.5 51t-30 59.5t-50 50.5t-88 21
q-51 0 -104 -28.5t-98.5 -80.5t-74 -136t-28.5 -185q0 -195 90.5 -320t247.5 -125q202 0 303 178zM907 1542l-270 -383h-94l-269 381l37 29l279 -248l280 248z" />
    <glyph glyph-name="Dcaron" unicode="&#x10e;" horiz-adv-x="1800" 
d="M547 1495v-938q0 -116 1 -229t1 -117q0 -38 7.5 -60.5t24 -39t54.5 -23.5t85.5 -9.5t131.5 -2.5q66 0 127.5 9.5t125.5 33.5t118.5 61t103 95.5t82.5 132.5t54 176.5t20 224.5q0 123 -23.5 224t-63 172t-98 125t-122 87t-142 53t-150 27.5t-153.5 7.5q-79 0 -184 -10z
M123 1536v47q92 -1 271 1.5t247 2.5q119 0 215 -6t203 -22t199.5 -49.5t164.5 -84.5q145 -101 224 -257t79 -363q0 -186 -62 -337.5t-174.5 -254t-271.5 -158t-350 -55.5h-745v47l100 14q53 8 78 29.5t25 73.5q0 16 1 155t1 238v487l-2 375q0 52 -25 73.5t-78 29.5z
M1133 2071l-271 -383h-94l-268 380l37 29l278 -248l281 248z" />
    <glyph glyph-name="dcaron" unicode="&#x10f;" horiz-adv-x="1388" 
d="M864 514v352q-78 64 -202 64q-151 0 -250 -119t-99 -303q0 -203 95 -318.5t233 -115.5t221 78zM688 1610l387 28q-12 -218 -12 -512v-469q0 -433 6 -503q3 -35 20.5 -54t55.5 -26l96 -21v-47l-360 -24l-15 124q-54 -69 -132 -102t-163 -33q-145 0 -254 72.5t-165 194
t-56 272.5q0 146 66.5 265.5t180 187t249.5 67.5q171 0 272 -112v249l-4 289q0 40 -12.5 58.5t-48.5 25.5l-111 23v47zM1186 1176l-19 36q125 81 125 148q0 22 -20 41t-43.5 31.5t-43.5 38t-20 59.5q0 41 30 67.5t73 26.5q66 0 103.5 -50.5t37.5 -117.5q0 -94 -66.5 -169
t-156.5 -111z" />
    <glyph glyph-name="Dcroat" unicode="&#x110;" horiz-adv-x="1800" 
d="M76 756v96h252v192l-2 375q0 52 -25 73.5t-78 29.5l-100 14v47q92 -1 271 1.5t247 2.5q119 0 215 -6t203 -22t199.5 -49.5t164.5 -84.5q145 -101 224 -257t79 -363q0 -186 -62 -337.5t-174.5 -254t-271.5 -158t-350 -55.5h-745v47l100 14q53 8 78 29.5t25 73.5
q0 16 1 155t1 238v199h-252zM547 1495v-643h313v-96h-313v-199q0 -116 1 -229t1 -117q0 -38 7.5 -60.5t24 -39t54.5 -23.5t85.5 -9.5t131.5 -2.5q66 0 127.5 9.5t125.5 33.5t118.5 61t103 95.5t82.5 132.5t54 176.5t20 224.5q0 123 -23.5 224t-63 172t-98 125t-122 87
t-142 53t-150 27.5t-153.5 7.5q-79 0 -184 -10z" />
    <glyph glyph-name="dcroat" unicode="&#x111;" horiz-adv-x="1263" 
d="M688 1610l387 28q-8 -132 -12 -327h174v-76h-174v-109v-469q0 -433 6 -503q3 -35 20.5 -54t55.5 -26l96 -21v-47l-360 -24l-15 124q-54 -69 -132 -102t-163 -33q-145 0 -254 72.5t-165 194t-56 272.5q0 146 66.5 265.5t180 187t249.5 67.5q171 0 272 -112v249v68h-377v76
h375l-2 145q0 40 -12.5 58.5t-48.5 25.5l-111 23v47zM864 514v352q-78 64 -202 64q-151 0 -250 -119t-99 -303q0 -203 95 -318.5t233 -115.5t221 78z" />
    <glyph glyph-name="Emacron" unicode="&#x112;" horiz-adv-x="1527" 
d="M123 1536v47h1204v-354h-49q-14 140 -85 198t-202 64q-220 10 -440 0q-2 -254 -2 -424v-193h301q133 0 183.5 37.5t62.5 155.5h49v-475h-49q-7 68 -22 107.5t-48 59t-69.5 24.5t-106.5 5h-301v-274l2 -303q0 -31 2 -51.5t9.5 -35t15 -21.5t26 -11t35 -5t49.5 -1
q245 0 377 6q143 7 208.5 76t78.5 199h49l4 -367h-1282v47l102 14q53 8 78 29.5t25 73.5q0 16 1 155t1 238v487l-2 375q0 52 -25 73.5t-78 29.5zM467 1784v96h663v-96h-663z" />
    <glyph glyph-name="emacron" unicode="&#x113;" horiz-adv-x="1079" 
d="M1014 600h-713v-68q0 -193 90 -317.5t242 -124.5q219 0 332 201l53 -23q-61 -149 -173.5 -223t-254.5 -74q-155 0 -270 70.5t-172.5 189.5t-57.5 271q0 115 40 215t108 168.5t159 107.5t191 39q174 0 291 -115t135 -317zM584 963q-105 0 -183.5 -83.5t-93.5 -217.5h500
q-6 161 -69.5 231t-153.5 70zM254 1296v97h664v-97h-664z" />
    <glyph glyph-name="Ebreve" unicode="&#x114;" horiz-adv-x="1527" 
d="M123 1536v47h1204v-354h-49q-14 140 -85 198t-202 64q-220 10 -440 0q-2 -254 -2 -424v-193h301q133 0 183.5 37.5t62.5 155.5h49v-475h-49q-7 68 -22 107.5t-48 59t-69.5 24.5t-106.5 5h-301v-274l2 -303q0 -31 2 -51.5t9.5 -35t15 -21.5t26 -11t35 -5t49.5 -1
q245 0 377 6q143 7 208.5 76t78.5 199h49l4 -367h-1282v47l102 14q53 8 78 29.5t25 73.5q0 16 1 155t1 238v487l-2 375q0 52 -25 73.5t-78 29.5zM582 2021q13 -118 80 -182.5t157 -64.5q94 0 159.5 64t78.5 183h96q-8 -81 -36.5 -142.5t-64.5 -95.5t-82 -55t-81.5 -27.5
t-69.5 -6.5t-69.5 6t-81.5 27.5t-82 55t-64.5 95.5t-36.5 143h97z" />
    <glyph glyph-name="ebreve" unicode="&#x115;" horiz-adv-x="1079" 
d="M1014 600h-713v-68q0 -193 90 -317.5t242 -124.5q219 0 332 201l53 -23q-61 -149 -173.5 -223t-254.5 -74q-155 0 -270 70.5t-172.5 189.5t-57.5 271q0 115 40 215t108 168.5t159 107.5t191 39q174 0 291 -115t135 -317zM584 963q-105 0 -183.5 -83.5t-93.5 -217.5h500
q-6 161 -69.5 231t-153.5 70zM348 1493q13 -118 80.5 -183t157.5 -65q94 0 159 64.5t78 183.5h97q-8 -81 -36.5 -142.5t-64.5 -95.5t-82 -55.5t-81.5 -28t-69.5 -6.5t-69.5 6t-81.5 27t-82 55t-64.5 96t-36.5 144h96z" />
    <glyph glyph-name="Edotaccent" unicode="&#x116;" horiz-adv-x="1527" 
d="M123 1536v47h1204v-354h-49q-14 140 -85 198t-202 64q-220 10 -440 0q-2 -254 -2 -424v-193h301q133 0 183.5 37.5t62.5 155.5h49v-475h-49q-7 68 -22 107.5t-48 59t-69.5 24.5t-106.5 5h-301v-274l2 -303q0 -31 2 -51.5t9.5 -35t15 -21.5t26 -11t35 -5t49.5 -1
q245 0 377 6q143 7 208.5 76t78.5 199h49l4 -367h-1282v47l102 14q53 8 78 29.5t25 73.5q0 16 1 155t1 238v487l-2 375q0 52 -25 73.5t-78 29.5zM805 1714q-59 0 -99 40.5t-40 100.5q0 59 40.5 99.5t98.5 40.5q60 0 100.5 -40.5t40.5 -99.5q0 -60 -40.5 -100.5t-100.5 -40.5
z" />
    <glyph glyph-name="edotaccent" unicode="&#x117;" horiz-adv-x="1079" 
d="M1014 600h-713v-68q0 -193 90 -317.5t242 -124.5q219 0 332 201l53 -23q-61 -149 -173.5 -223t-254.5 -74q-155 0 -270 70.5t-172.5 189.5t-57.5 271q0 115 40 215t108 168.5t159 107.5t191 39q174 0 291 -115t135 -317zM584 963q-105 0 -183.5 -83.5t-93.5 -217.5h500
q-6 161 -69.5 231t-153.5 70zM571 1266q-59 0 -99 40.5t-40 100.5q0 59 40 99t99 40q60 0 101 -40t41 -99q0 -60 -41 -100.5t-101 -40.5z" />
    <glyph glyph-name="Eogonek" unicode="&#x118;" horiz-adv-x="1527" 
d="M123 1536v47h1204v-354h-49q-14 140 -85 198t-202 64q-220 10 -440 0q-2 -254 -2 -424v-193h301q133 0 183.5 37.5t62.5 155.5h49v-475h-49q-7 68 -22 107.5t-48 59t-69.5 24.5t-106.5 5h-301v-274l2 -303q0 -31 2 -51.5t9.5 -35t15 -21.5t26 -11t35 -5t49.5 -1
q245 0 377 6q143 7 208.5 76t78.5 199h49l4 -367h-553q-72 -69 -115 -145.5t-43 -141.5q0 -69 41 -101t103 -32q37 0 84 14l12 -30q-93 -60 -193 -60q-84 0 -140 42.5t-56 129.5q0 91 68.5 167t195.5 157h-686v47l102 14q53 8 78 29.5t25 73.5q0 16 1 155t1 238v487l-2 375
q0 52 -25 73.5t-78 29.5z" />
    <glyph glyph-name="eogonek" unicode="&#x119;" horiz-adv-x="1079" 
d="M735 -408l13 -30q-93 -60 -193 -60q-84 0 -140.5 42.5t-56.5 129.5q0 83 58.5 153.5t165.5 143.5q-230 3 -361 151.5t-131 379.5q0 115 40 215t108 168.5t159 107.5t191 39q174 0 291 -115t135 -317h-713v-68q0 -193 90 -317.5t242 -124.5q219 0 332 201l53 -23
q-55 -136 -153.5 -209t-223.5 -86q-61 -64 -97 -133.5t-36 -128.5q0 -69 40.5 -101t102.5 -32q37 0 84 14zM584 963q-105 0 -183.5 -83.5t-93.5 -217.5h500q-6 161 -69.5 231t-153.5 70z" />
    <glyph glyph-name="Ecaron" unicode="&#x11a;" horiz-adv-x="1527" 
d="M123 1536v47h1204v-354h-49q-14 140 -85 198t-202 64q-220 10 -440 0q-2 -254 -2 -424v-193h301q133 0 183.5 37.5t62.5 155.5h49v-475h-49q-7 68 -22 107.5t-48 59t-69.5 24.5t-106.5 5h-301v-274l2 -303q0 -31 2 -51.5t9.5 -35t15 -21.5t26 -11t35 -5t49.5 -1
q245 0 377 6q143 7 208.5 76t78.5 199h49l4 -367h-1282v47l102 14q53 8 78 29.5t25 73.5q0 16 1 155t1 238v487l-2 375q0 52 -25 73.5t-78 29.5zM1130 2071l-270 -383h-94l-268 380l37 29l278 -248l281 248z" />
    <glyph glyph-name="ecaron" unicode="&#x11b;" horiz-adv-x="1079" 
d="M1014 600h-713v-68q0 -193 90 -317.5t242 -124.5q219 0 332 201l53 -23q-61 -149 -173.5 -223t-254.5 -74q-155 0 -270 70.5t-172.5 189.5t-57.5 271q0 115 40 215t108 168.5t159 107.5t191 39q174 0 291 -115t135 -317zM584 963q-105 0 -183.5 -83.5t-93.5 -217.5h500
q-6 161 -69.5 231t-153.5 70zM915 1542l-270 -383h-94l-268 381l36 29l279 -248l281 248z" />
    <glyph glyph-name="Gcircumflex" unicode="&#x11c;" horiz-adv-x="1806" 
d="M1665 625q-52 -8 -77 -29.5t-25 -73.5q-2 -191 -2 -377q-111 -81 -282 -127.5t-343 -46.5q-191 0 -351.5 66.5t-266.5 179.5t-165 262t-59 314q0 180 67.5 334t182 258t268 162.5t324.5 58.5q62 0 115.5 -4t123 -18.5t98.5 -21t124.5 -32t118.5 -31.5l36 -309h-43
q-164 326 -571 326q-94 0 -178 -23t-161.5 -77.5t-133.5 -135.5t-89.5 -206t-33.5 -281q0 -177 48.5 -319t132 -231.5t193 -136.5t234.5 -47q71 0 161.5 13.5t143.5 36.5q56 24 71 42t15 60l-2 311q0 53 -26.5 74t-89.5 31l-90 12v47h622v-47zM604 1706l270 383h95l268 -381
l-37 -29l-278 240l-281 -240z" />
    <glyph glyph-name="gcircumflex" unicode="&#x11d;" horiz-adv-x="1142" 
d="M541 1030q107 0 202 -53l414 33q12 -45 13.5 -76t-7 -46.5t-23.5 -22.5t-35.5 -5.5t-42.5 6.5t-46 11q-7 2 -11.5 3.5t-9.5 2.5l-186 49q66 -55 103.5 -130t37.5 -155q0 -167 -119.5 -268.5t-304.5 -99.5q-118 -4 -182.5 -45.5t-64.5 -90.5q0 -42 31 -63.5t110 -20.5
l264 4q426 6 426 -294q0 -180 -154.5 -286t-404.5 -106q-90 0 -174 17t-156 51.5t-115 93t-43 133.5q0 64 61.5 124t164.5 81q-80 18 -125 74t-45 119q0 32 12 63.5t39.5 66.5t84.5 62t136 39q-117 41 -192 141t-74 226q1 116 60 199.5t151.5 123t204.5 39.5zM680 -131
l-234 -4q-37 -1 -108 6q-49 -33 -79 -81.5t-30 -104.5q0 -60 27.5 -105.5t74 -71.5t102 -38.5t118.5 -12.5q74 0 141 11.5t129.5 36.5t99.5 73.5t37 114.5q0 90 -77 134t-201 42zM748 641q2 154 -48.5 242t-156.5 88q-212 0 -215 -303q-2 -150 48.5 -240t155.5 -90
q47 0 85 19t61.5 49t39.5 70.5t22.5 81t7.5 83.5zM254 1178l270 383h94l269 -381l-37 -29l-279 240l-280 -240z" />
    <glyph glyph-name="Gbreve" unicode="&#x11e;" horiz-adv-x="1806" 
d="M1665 625q-52 -8 -77 -29.5t-25 -73.5q-2 -191 -2 -377q-111 -81 -282 -127.5t-343 -46.5q-191 0 -351.5 66.5t-266.5 179.5t-165 262t-59 314q0 180 67.5 334t182 258t268 162.5t324.5 58.5q62 0 115.5 -4t123 -18.5t98.5 -21t124.5 -32t118.5 -31.5l36 -309h-43
q-164 326 -571 326q-94 0 -178 -23t-161.5 -77.5t-133.5 -135.5t-89.5 -206t-33.5 -281q0 -177 48.5 -319t132 -231.5t193 -136.5t234.5 -47q71 0 161.5 13.5t143.5 36.5q56 24 71 42t15 60l-2 311q0 53 -26.5 74t-89.5 31l-90 12v47h622v-47zM700 2021q13 -118 80.5 -182.5
t157.5 -64.5q94 0 159.5 64t78.5 183h96q-8 -81 -36.5 -142.5t-64.5 -95.5t-82 -55t-81.5 -27.5t-69.5 -6.5t-69.5 6t-81.5 27.5t-82 55t-64.5 95.5t-36.5 143h96z" />
    <glyph glyph-name="gbreve" unicode="&#x11f;" horiz-adv-x="1142" 
d="M541 1030q107 0 202 -53l414 33q12 -45 13.5 -76t-7 -46.5t-23.5 -22.5t-35.5 -5.5t-42.5 6.5t-46 11q-7 2 -11.5 3.5t-9.5 2.5l-186 49q66 -55 103.5 -130t37.5 -155q0 -167 -119.5 -268.5t-304.5 -99.5q-118 -4 -182.5 -45.5t-64.5 -90.5q0 -42 31 -63.5t110 -20.5
l264 4q426 6 426 -294q0 -180 -154.5 -286t-404.5 -106q-90 0 -174 17t-156 51.5t-115 93t-43 133.5q0 64 61.5 124t164.5 81q-80 18 -125 74t-45 119q0 32 12 63.5t39.5 66.5t84.5 62t136 39q-117 41 -192 141t-74 226q1 116 60 199.5t151.5 123t204.5 39.5zM680 -131
l-234 -4q-37 -1 -108 6q-49 -33 -79 -81.5t-30 -104.5q0 -60 27.5 -105.5t74 -71.5t102 -38.5t118.5 -12.5q74 0 141 11.5t129.5 36.5t99.5 73.5t37 114.5q0 90 -77 134t-201 42zM748 641q2 154 -48.5 242t-156.5 88q-212 0 -215 -303q-2 -150 48.5 -240t155.5 -90
q47 0 85 19t61.5 49t39.5 70.5t22.5 81t7.5 83.5zM332 1493q13 -118 80 -183t157 -65q94 0 159.5 64.5t78.5 183.5h96q-8 -81 -36.5 -142.5t-64.5 -95.5t-82 -55.5t-81.5 -28t-69.5 -6.5t-69 6t-81 27t-82 55t-64.5 96t-36.5 144h96z" />
    <glyph glyph-name="Gdotaccent" unicode="&#x120;" horiz-adv-x="1806" 
d="M1665 625q-52 -8 -77 -29.5t-25 -73.5q-2 -191 -2 -377q-111 -81 -282 -127.5t-343 -46.5q-191 0 -351.5 66.5t-266.5 179.5t-165 262t-59 314q0 180 67.5 334t182 258t268 162.5t324.5 58.5q62 0 115.5 -4t123 -18.5t98.5 -21t124.5 -32t118.5 -31.5l36 -309h-43
q-164 326 -571 326q-94 0 -178 -23t-161.5 -77.5t-133.5 -135.5t-89.5 -206t-33.5 -281q0 -177 48.5 -319t132 -231.5t193 -136.5t234.5 -47q71 0 161.5 13.5t143.5 36.5q56 24 71 42t15 60l-2 311q0 53 -26.5 74t-89.5 31l-90 12v47h622v-47zM922 1712q-59 0 -99.5 40.5
t-40.5 100.5q0 59 41 99.5t99 40.5q60 0 100.5 -40.5t40.5 -99.5q0 -60 -40.5 -100.5t-100.5 -40.5z" />
    <glyph glyph-name="gdotaccent" unicode="&#x121;" horiz-adv-x="1142" 
d="M541 1030q107 0 202 -53l414 33q12 -45 13.5 -76t-7 -46.5t-23.5 -22.5t-35.5 -5.5t-42.5 6.5t-46 11q-7 2 -11.5 3.5t-9.5 2.5l-186 49q66 -55 103.5 -130t37.5 -155q0 -167 -119.5 -268.5t-304.5 -99.5q-118 -4 -182.5 -45.5t-64.5 -90.5q0 -42 31 -63.5t110 -20.5
l264 4q426 6 426 -294q0 -180 -154.5 -286t-404.5 -106q-90 0 -174 17t-156 51.5t-115 93t-43 133.5q0 64 61.5 124t164.5 81q-80 18 -125 74t-45 119q0 32 12 63.5t39.5 66.5t84.5 62t136 39q-117 41 -192 141t-74 226q1 116 60 199.5t151.5 123t204.5 39.5zM680 -131
l-234 -4q-37 -1 -108 6q-49 -33 -79 -81.5t-30 -104.5q0 -60 27.5 -105.5t74 -71.5t102 -38.5t118.5 -12.5q74 0 141 11.5t129.5 36.5t99.5 73.5t37 114.5q0 90 -77 134t-201 42zM748 641q2 154 -48.5 242t-156.5 88q-212 0 -215 -303q-2 -150 48.5 -240t155.5 -90
q47 0 85 19t61.5 49t39.5 70.5t22.5 81t7.5 83.5zM541 1266q-59 0 -99.5 40.5t-40.5 100.5q0 58 40.5 98.5t99.5 40.5q60 0 100.5 -40t40.5 -99q0 -60 -40.5 -100.5t-100.5 -40.5z" />
    <glyph glyph-name="Gcommaaccent" unicode="&#x122;" horiz-adv-x="1806" 
d="M1665 625q-52 -8 -77 -29.5t-25 -73.5q-2 -191 -2 -377q-111 -81 -282 -127.5t-343 -46.5q-191 0 -351.5 66.5t-266.5 179.5t-165 262t-59 314q0 180 67.5 334t182 258t268 162.5t324.5 58.5q62 0 115.5 -4t123 -18.5t98.5 -21t124.5 -32t118.5 -31.5l36 -309h-43
q-164 326 -571 326q-94 0 -178 -23t-161.5 -77.5t-133.5 -135.5t-89.5 -206t-33.5 -281q0 -177 48.5 -319t132 -231.5t193 -136.5t234.5 -47q71 0 161.5 13.5t143.5 36.5q56 24 71 42t15 60l-2 311q0 53 -26.5 74t-89.5 31l-90 12v47h622v-47zM815 -524l-18 37
q125 81 125 147q0 22 -20 41t-43.5 31.5t-43.5 38t-20 59.5q0 41 29.5 67.5t72.5 26.5q66 0 103.5 -50.5t37.5 -117.5q0 -94 -66.5 -169t-156.5 -111z" />
    <glyph glyph-name="gcommaaccent" unicode="&#x123;" horiz-adv-x="1142" 
d="M717 1569l18 -37q-125 -81 -125 -148q0 -22 20 -41t43.5 -31.5t43.5 -38t20 -59.5q0 -41 -29.5 -67.5t-72.5 -26.5q-66 0 -103.5 50.5t-37.5 117.5q0 94 66.5 169.5t156.5 111.5zM541 1030q107 0 202 -53l414 33q12 -45 13.5 -76t-7 -46.5t-23.5 -22.5t-35.5 -5.5
t-42.5 6.5t-46 11q-7 2 -11.5 3.5t-9.5 2.5l-186 49q66 -55 103.5 -130t37.5 -155q0 -167 -119.5 -268.5t-304.5 -99.5q-118 -4 -182.5 -45.5t-64.5 -90.5q0 -42 31 -63.5t110 -20.5l264 4q426 6 426 -294q0 -180 -154.5 -286t-404.5 -106q-90 0 -174 17t-156 51.5t-115 93
t-43 133.5q0 64 61.5 124t164.5 81q-80 18 -125 74t-45 119q0 32 12 63.5t39.5 66.5t84.5 62t136 39q-117 41 -192 141t-74 226q1 116 60 199.5t151.5 123t204.5 39.5zM680 -131l-234 -4q-37 -1 -108 6q-49 -33 -79 -81.5t-30 -104.5q0 -60 27.5 -105.5t74 -71.5t102 -38.5
t118.5 -12.5q74 0 141 11.5t129.5 36.5t99.5 73.5t37 114.5q0 90 -77 134t-201 42zM748 641q2 154 -48.5 242t-156.5 88q-212 0 -215 -303q-2 -150 48.5 -240t155.5 -90q47 0 85 19t61.5 49t39.5 70.5t22.5 81t7.5 83.5z" />
    <glyph glyph-name="Hcircumflex" unicode="&#x124;" horiz-adv-x="1955" 
d="M1626 1044v-487l2 -393q0 -52 25 -73.5t78 -29.5l102 -14v-47h-633v47l103 14q52 8 77 29.5t25 73.5q0 16 1 155t1 238v234h-858v-234l2 -393q0 -52 25 -73.5t77 -29.5l103 -14v-47h-633v47l102 14q53 8 78 29.5t25 73.5q0 16 1 155t1 238v487l-2 375q0 52 -25 73.5
t-78 29.5l-102 14v47h633v-47l-103 -14q-52 -8 -77 -29.5t-25 -73.5q-2 -189 -2 -375v-167h858v167l-2 375q0 52 -25 73.5t-77 29.5l-103 14v47h633v-47l-102 -14q-53 -8 -78 -29.5t-25 -73.5q-2 -189 -2 -375zM666 1706l270 383h94l268 -381l-36 -29l-279 240l-281 -240z
" />
    <glyph glyph-name="hcircumflex" unicode="&#x125;" horiz-adv-x="1308" 
d="M512 1178l229 383h95l227 -381l-37 -29l-238 240l-239 -240zM424 1147v-359q54 113 149 177.5t211 64.5q324 0 324 -393v-164l6 -338q2 -36 16.5 -50.5t67.5 -23.5l86 -14v-47h-543v47l84 14q51 9 65.5 23.5t16.5 50.5q2 197 2 338v127q0 73 -10 126.5t-33.5 95.5
t-67 63.5t-106.5 21.5q-68 0 -145.5 -49t-120.5 -133v-252l2 -336q2 -39 15.5 -54t60.5 -22l94 -14v-47h-545v47l86 14q50 8 65 25t17 49q4 215 4 338v674v80t-0.5 69t-1 56t-1 45t-1 32t-0.5 20v7q0 40 -12.5 58.5t-48.5 25.5l-111 23v47l379 28q-4 -305 -4 -491z" />
    <glyph glyph-name="Hbar" unicode="&#x126;" horiz-adv-x="1955" 
d="M1626 1044v-487l2 -393q0 -52 25 -73.5t78 -29.5l102 -14v-47h-633v47l103 14q52 8 77 29.5t25 73.5q0 16 1 155t1 238v234h-858v-234l2 -393q0 -52 25 -73.5t77 -29.5l103 -14v-47h-633v47l102 14q53 8 78 29.5t25 73.5q0 16 1 155t1 238v487v74h-207v86h207l-2 215
q0 52 -25 73.5t-78 29.5l-102 14v47h633v-47l-103 -14q-52 -8 -77 -29.5t-25 -73.5q-2 -96 -2 -215h858l-2 215q0 52 -25 73.5t-77 29.5l-103 14v47h633v-47l-102 -14q-53 -8 -78 -29.5t-25 -73.5q-2 -96 -2 -215h207v-86h-207v-74zM1407 877v167v74h-858v-74v-167h858z" />
    <glyph glyph-name="hbar" unicode="&#x127;" horiz-adv-x="1308" 
d="M45 1231v76h178v51t-0.5 42t-1 29.5t-0.5 19.5v7q0 40 -12.5 58.5t-48.5 25.5l-111 23v47l379 28q-4 -169 -4 -331h268v-76h-268v-84v-359q54 113 149 177.5t211 64.5q324 0 324 -393v-164l6 -338q2 -36 16.5 -50.5t67.5 -23.5l86 -14v-47h-543v47l84 14q51 9 65.5 23.5
t16.5 50.5q2 197 2 338v127q0 73 -10 126.5t-33.5 95.5t-67 63.5t-106.5 21.5q-68 0 -145.5 -49t-120.5 -133v-252l2 -336q2 -39 15.5 -54t60.5 -22l94 -14v-47h-545v47l86 14q50 8 65 25t17 49q4 215 4 338v674v84h-180z" />
    <glyph glyph-name="Itilde" unicode="&#x128;" horiz-adv-x="878" 
d="M549 1044v-487l2 -393q0 -52 25 -73.5t77 -29.5l103 -14v-47h-633v47l102 14q53 8 78 29.5t25 73.5q0 16 1 155t1 238v487l-2 375q0 52 -25 73.5t-78 29.5l-102 14v47h633v-47l-103 -14q-52 -8 -77 -29.5t-25 -73.5q-2 -189 -2 -375zM266 2042q48 0 106.5 -24.5
t104 -54.5t102 -54.5t101.5 -24.5q84 0 145 96l35 -18q-45 -128 -95 -188t-134 -60q-52 0 -112 24.5t-105 54.5t-99.5 54.5t-97.5 24.5q-86 0 -145 -96l-35 18q45 128 95 188t134 60z" />
    <glyph glyph-name="itilde" unicode="&#x129;" horiz-adv-x="667" 
d="M199 1505q40 0 72 -14.5t54.5 -35.5t44 -41.5t52 -35t67.5 -14.5q84 0 146 96l35 -18q-43 -122 -94 -175t-136 -53q-44 0 -78 14.5t-56 35.5t-43 42t-49.5 35.5t-63.5 14.5q-84 0 -146 -96l-35 18q43 122 94 174.5t136 52.5zM244 473v358q0 39 -13 58t-49 26l-112 23v47
l372 29v-541l4 -336q2 -39 14.5 -54t59.5 -22l94 -14v-47h-544v47l86 14q50 8 66 25t18 49q4 215 4 338z" />
    <glyph glyph-name="Imacron" unicode="&#x12a;" horiz-adv-x="878" 
d="M106 1784v96h664v-96h-664zM549 1044v-487l2 -393q0 -52 25 -73.5t77 -29.5l103 -14v-47h-633v47l102 14q53 8 78 29.5t25 73.5q0 16 1 155t1 238v487l-2 375q0 52 -25 73.5t-78 29.5l-102 14v47h633v-47l-103 -14q-52 -8 -77 -29.5t-25 -73.5q-2 -189 -2 -375z" />
    <glyph glyph-name="imacron" unicode="&#x12b;" horiz-adv-x="667" 
d="M12 1294v99h596v-99h-596zM244 473v358q0 39 -13 58t-49 26l-112 23v47l372 29v-541l4 -336q2 -39 14.5 -54t59.5 -22l94 -14v-47h-544v47l86 14q50 8 66 25t18 49q4 215 4 338z" />
    <glyph glyph-name="Ibreve" unicode="&#x12c;" horiz-adv-x="878" 
d="M201 2021q13 -118 80 -182.5t157 -64.5q94 0 159.5 64t78.5 183h96q-8 -81 -36.5 -142.5t-64.5 -95.5t-82 -55t-81.5 -27.5t-69.5 -6.5t-69.5 6t-81.5 27.5t-82 55t-64.5 95.5t-36.5 143h97zM549 1044v-487l2 -393q0 -52 25 -73.5t77 -29.5l103 -14v-47h-633v47l102 14
q53 8 78 29.5t25 73.5q0 16 1 155t1 238v487l-2 375q0 52 -25 73.5t-78 29.5l-102 14v47h633v-47l-103 -14q-52 -8 -77 -29.5t-25 -73.5q-2 -189 -2 -375z" />
    <glyph glyph-name="ibreve" unicode="&#x12d;" horiz-adv-x="667" 
d="M111 1493q27 -248 196 -248q89 0 136 61.5t61 186.5h96q-8 -81 -32 -142.5t-54.5 -95.5t-70 -55.5t-71.5 -28t-65 -6.5q-34 0 -65.5 6t-71 27t-70 55t-54.5 96t-32 144h97zM244 473v358q0 39 -13 58t-49 26l-112 23v47l372 29v-541l4 -336q2 -39 14.5 -54t59.5 -22
l94 -14v-47h-544v47l86 14q50 8 66 25t18 49q4 215 4 338z" />
    <glyph glyph-name="Iogonek" unicode="&#x12e;" horiz-adv-x="878" 
d="M549 1044v-487l2 -393q0 -52 25 -73.5t77 -29.5l103 -14v-47h-230q-72 -69 -114.5 -145.5t-42.5 -141.5q0 -69 40.5 -101t102.5 -32q37 0 84 14l12 -30q-93 -60 -192 -60q-84 0 -140.5 42.5t-56.5 129.5q0 91 68.5 167t195.5 157h-360v47l102 14q53 8 78 29.5t25 73.5
q0 16 1 155t1 238v487l-2 375q0 52 -25 73.5t-78 29.5l-102 14v47h633v-47l-103 -14q-52 -8 -77 -29.5t-25 -73.5q-2 -189 -2 -375z" />
    <glyph glyph-name="iogonek" unicode="&#x12f;" horiz-adv-x="667" 
d="M500 -408l12 -30q-93 -60 -193 -60q-84 0 -140 42.5t-56 129.5q0 91 69.5 167t198.5 159h-321v47l86 14q50 8 66 25t18 49q4 215 4 338v358q0 39 -13 58t-49 26l-112 23v47l372 29v-541l4 -336q2 -39 14.5 -54t59.5 -22l94 -14v-47h-182q-72 -69 -116 -146.5t-44 -142.5
q0 -69 41 -101t103 -32q37 0 84 14zM317 1276q-59 0 -99 40.5t-40 100.5q0 59 40 99t99 40q60 0 101 -40t41 -99q0 -60 -41 -100.5t-101 -40.5z" />
    <glyph glyph-name="Idotaccent" unicode="&#x130;" horiz-adv-x="878" 
d="M549 1044v-487l2 -393q0 -52 25 -73.5t77 -29.5l103 -14v-47h-633v47l102 14q53 8 78 29.5t25 73.5q0 16 1 155t1 238v487l-2 375q0 52 -25 73.5t-78 29.5l-102 14v47h633v-47l-103 -14q-52 -8 -77 -29.5t-25 -73.5q-2 -189 -2 -375zM444 1712q-59 0 -99 40.5t-40 100.5
q0 59 40.5 99.5t98.5 40.5q60 0 101 -40.5t41 -99.5q0 -60 -41 -100.5t-101 -40.5z" />
    <glyph glyph-name="dotlessi" unicode="&#x131;" horiz-adv-x="667" 
d="M244 473v358q0 39 -13 58t-49 26l-112 23v47l372 29v-541l4 -336q2 -39 14.5 -54t59.5 -22l94 -14v-47h-544v47l86 14q50 8 66 25t18 49q4 215 4 338z" />
    <glyph glyph-name="Jcircumflex" unicode="&#x134;" horiz-adv-x="966" 
d="M492 1044l-3 375q0 53 -29.5 74.5t-105.5 30.5l-98 12v47h662v-47l-103 -14q-52 -8 -77 -29.5t-25 -73.5q-2 -189 -2 -375v-389q0 -66 -1 -114.5t-4 -106.5t-9.5 -99.5t-16.5 -88.5t-25.5 -80t-36 -66.5t-48.5 -55t-63 -39.5t-79.5 -26t-97.5 -8q-103 0 -194 53.5
t-91 135.5q0 46 28 80t81 34q41 0 67.5 -19.5t37.5 -48t19.5 -62.5t14.5 -62.5t21.5 -48t41.5 -19.5q71 0 103.5 149t32.5 492v389zM262 1706l270 383h95l268 -381l-37 -29l-278 240l-281 -240z" />
    <glyph glyph-name="jcircumflex" unicode="&#x135;" horiz-adv-x="571" 
d="M209 631l-2 194q0 39 -13 58t-49 26l-112 23v47l377 29q-2 -199 -2 -377v-613q0 -88 -5.5 -148t-25 -132t-55.5 -128t-100 -116t-156 -115l-25 39q48 50 80.5 104.5t49.5 100.5t26 112.5t10.5 112.5t1.5 129v654zM-45 1178l270 383h94l269 -381l-37 -29l-279 240
l-280 -240z" />
    <glyph glyph-name="Kcommaaccent" unicode="&#x136;" horiz-adv-x="1603" 
d="M549 1044v-235l459 471q145 150 151 203q5 36 -46 47q-27 6 -73 6v47h506v-47l-33 -2q-51 -3 -109 -30t-116 -74t-95.5 -81.5t-84.5 -82.5l-350 -367l618 -729q30 -35 64.5 -59.5t72 -37t63.5 -17.5t62 -9v-47h-649v47l76 8q42 4 60 13.5t14 31.5t-37 60l-553 649v-252
l2 -393q0 -52 25 -73.5t77 -29.5l103 -14v-47h-633v47l102 14q53 8 78 29.5t25 73.5q0 16 1 155t1 238v487l-2 375q0 52 -25 73.5t-78 29.5l-102 14v47h633v-47l-103 -14q-52 -8 -77 -29.5t-25 -73.5q-2 -189 -2 -375zM721 -524l-19 37q125 81 125 147q0 22 -20 41
t-43.5 31.5t-43.5 38t-20 59.5q0 41 30 67.5t73 26.5q66 0 103.5 -50.5t37.5 -117.5q0 -94 -66.5 -169t-156.5 -111z" />
    <glyph glyph-name="kcommaaccent" unicode="&#x137;" horiz-adv-x="1226" 
d="M225 1147v70.5t-0.5 65t-0.5 57v48t-0.5 36t-0.5 24.5v8q0 40 -12.5 58.5t-48.5 25.5l-113 23v47l379 28q-4 -276 -4 -491v-633l283 258q82 76 62 119t-124 43v47h492v-47q-93 -6 -153 -37t-132 -96l-250 -226l406 -428q28 -31 54 -50.5t57 -29.5t49 -13.5t59 -8.5v-45
h-541v45l148 31l-410 438v-41l4 -336q2 -39 15.5 -54t60.5 -22l94 -14v-47h-547v47l86 14q50 8 66 25t18 49q4 215 4 338v674zM514 -524l-18 37q125 81 125 147q0 22 -20 41t-43.5 31.5t-43.5 38t-20 59.5q0 41 29.5 67.5t72.5 26.5q66 0 103.5 -50.5t37.5 -117.5
q0 -94 -66.5 -169t-156.5 -111z" />
    <glyph glyph-name="Lacute" unicode="&#x139;" horiz-adv-x="1425" 
d="M330 557v487l-2 375q0 52 -25 73.5t-78 29.5l-102 14v47h659v-47l-112 -12q-64 -8 -91.5 -30t-27.5 -75q-2 -182 -2 -352v-553l2 -303q0 -31 2 -51.5t9.5 -35t15 -21.5t26 -11t35 -5t49.5 -1q224 0 356 6q143 7 208.5 76t78.5 199h49l4 -367h-1261v47l102 14
q53 8 78 29.5t25 73.5q0 16 1 155t1 238zM416 1694l157 417h230l-346 -417h-41z" />
    <glyph glyph-name="lacute" unicode="&#x13a;" horiz-adv-x="608" 
d="M211 1147v70.5t-0.5 65t-0.5 57v48t-0.5 36t-0.5 24.5v8q0 39 -13 58t-49 26l-112 23v47l379 28q-4 -276 -4 -491v-674l4 -336q2 -39 15 -54t60 -22l95 -14v-47h-547v47l86 14q50 8 66 25t18 49q4 215 4 338v674zM156 1675l157 418h230l-346 -418h-41z" />
    <glyph glyph-name="Lcommaaccent" unicode="&#x13b;" horiz-adv-x="1425" 
d="M330 557v487l-2 375q0 52 -25 73.5t-78 29.5l-102 14v47h659v-47l-112 -12q-64 -8 -91.5 -30t-27.5 -75q-2 -182 -2 -352v-553l2 -303q0 -31 2 -51.5t9.5 -35t15 -21.5t26 -11t35 -5t49.5 -1q224 0 356 6q143 7 208.5 76t78.5 199h49l4 -367h-1261v47l102 14
q53 8 78 29.5t25 73.5q0 16 1 155t1 238zM698 -524l-18 37q125 81 125 147q0 22 -20 41t-43.5 31.5t-43.5 38t-20 59.5q0 41 29.5 67.5t72.5 26.5q66 0 104 -50.5t38 -117.5q0 -94 -67 -169t-157 -111z" />
    <glyph glyph-name="lcommaaccent" unicode="&#x13c;" horiz-adv-x="608" 
d="M211 1147v70.5t-0.5 65t-0.5 57v48t-0.5 36t-0.5 24.5v8q0 39 -13 58t-49 26l-112 23v47l379 28q-4 -276 -4 -491v-674l4 -336q2 -39 15 -54t60 -22l95 -14v-47h-547v47l86 14q50 8 66 25t18 49q4 215 4 338v674zM209 -524l-19 37q125 81 125 147q0 22 -20 41t-43.5 31.5
t-43.5 38t-20 59.5q0 41 30 67.5t73 26.5q66 0 103.5 -50.5t37.5 -117.5q0 -94 -66.5 -169t-156.5 -111z" />
    <glyph glyph-name="Lcaron" unicode="&#x13d;" horiz-adv-x="1425" 
d="M330 557v487l-2 375q0 52 -25 73.5t-78 29.5l-102 14v47h659v-47l-112 -12q-64 -8 -91.5 -30t-27.5 -75q-2 -182 -2 -352v-553l2 -303q0 -31 2 -51.5t9.5 -35t15 -21.5t26 -11t35 -5t49.5 -1q224 0 356 6q143 7 208.5 76t78.5 199h49l4 -367h-1261v47l102 14
q53 8 78 29.5t25 73.5q0 16 1 155t1 238zM932 1176l-19 36q125 81 125 148q0 22 -20 41t-43.5 31.5t-43.5 38t-20 59.5q0 41 30 67.5t73 26.5q66 0 103.5 -50.5t37.5 -117.5q0 -94 -66.5 -169t-156.5 -111z" />
    <glyph glyph-name="lcaron" unicode="&#x13e;" horiz-adv-x="735" 
d="M211 1147v70.5t-0.5 65t-0.5 57v48t-0.5 36t-0.5 24.5v8q0 39 -13 58t-49 26l-112 23v47l379 28q-4 -276 -4 -491v-674l4 -336q2 -39 15 -54t60 -22l95 -14v-47h-547v47l86 14q50 8 66 25t18 49q4 215 4 338v674zM532 1176l-18 36q125 81 125 148q0 22 -20 41t-43.5 31.5
t-43.5 38t-20 59.5q0 41 29.5 67.5t72.5 26.5q66 0 104 -50.5t38 -117.5q0 -94 -67 -169t-157 -111z" />
    <glyph glyph-name="Ldot" unicode="&#x13f;" horiz-adv-x="1425" 
d="M330 557v487l-2 375q0 52 -25 73.5t-78 29.5l-102 14v47h659v-47l-112 -12q-64 -8 -91.5 -30t-27.5 -75q-2 -182 -2 -352v-553l2 -303q0 -31 2 -51.5t9.5 -35t15 -21.5t26 -11t35 -5t49.5 -1q224 0 356 6q143 7 208.5 76t78.5 199h49l4 -367h-1261v47l102 14
q53 8 78 29.5t25 73.5q0 16 1 155t1 238zM1114 651q-59 0 -99 41t-40 101q0 59 40.5 99t98.5 40q60 0 100.5 -40t40.5 -99q0 -60 -40.5 -101t-100.5 -41z" />
    <glyph glyph-name="ldot" unicode="&#x140;" horiz-adv-x="608" 
d="M211 1147v70.5t-0.5 65t-0.5 57v48t-0.5 36t-0.5 24.5v8q0 39 -13 58t-49 26l-112 23v47l379 28q-4 -276 -4 -491v-674l4 -336q2 -39 15 -54t60 -22l95 -14v-47h-547v47l86 14q50 8 66 25t18 49q4 215 4 338v674zM623 651q-59 0 -99.5 41t-40.5 101q0 58 40.5 98.5
t99.5 40.5q60 0 100.5 -40t40.5 -99q0 -60 -40.5 -101t-100.5 -41z" />
    <glyph glyph-name="Lslash" unicode="&#x141;" horiz-adv-x="1425" 
d="M330 557v154l-191 -111l-55 96l246 142v206l-2 375q0 52 -25 73.5t-78 29.5l-102 14v47h659v-47l-112 -12q-64 -8 -91.5 -30t-27.5 -75q-2 -182 -2 -352v-102l225 131l53 -97l-278 -161v-324l2 -303q0 -31 2 -51.5t9.5 -35t15 -21.5t26 -11t35 -5t49.5 -1q224 0 356 6
q143 7 208.5 76t78.5 199h49l4 -367h-1261v47l102 14q53 8 78 29.5t25 73.5q0 16 1 155t1 238z" />
    <glyph glyph-name="lslash" unicode="&#x142;" horiz-adv-x="618" 
d="M211 1147v70.5t-0.5 65t-0.5 57v48t-0.5 36t-0.5 24.5v8q0 39 -13 58t-49 26l-112 23v47l379 28q-4 -276 -4 -491v-174l192 123l53 -97l-245 -157v-369l4 -336q2 -39 15 -54t60 -22l95 -14v-47h-547v47l86 14q50 8 66 25t18 49q4 215 4 338v242l-178 -115l-56 96l234 150
v301z" />
    <glyph glyph-name="Nacute" unicode="&#x143;" horiz-adv-x="1867" 
d="M330 582v800l-25 29q-101 118 -182 125v47h352l1026 -1212v633l-4 296q-1 45 -3.5 71.5t-15 62t-35 55t-66 33.5t-105.5 14v47h559v-47q-61 0 -104 -13.5t-66 -32.5t-35.5 -53t-15.5 -62.5t-4 -74.5q-4 -158 -4 -299v-1030h-56l-1116 1295v-686l4 -297q1 -45 3.5 -71.5
t15 -62t35 -55t66 -33.5t105.5 -14v-47h-559v47q44 0 78.5 7t58 17.5t40.5 29t26 36t14 44.5t6.5 48.5t2.5 53.5q4 172 4 299zM854 1694l158 417h229l-346 -417h-41z" />
    <glyph glyph-name="nacute" unicode="&#x144;" horiz-adv-x="1316" 
d="M70 981l360 20l10 -208q117 237 355 237q154 0 236.5 -97.5t82.5 -295.5v-164l6 -338q2 -36 16.5 -50.5t67.5 -23.5l86 -14v-47h-549v47l90 14q51 9 65.5 23.5t16.5 50.5q2 197 2 338v127q0 73 -10.5 126.5t-34.5 95.5t-67.5 63.5t-106.5 21.5q-67 0 -136 -45.5
t-118 -138.5v-250l4 -336q2 -39 15.5 -54t60.5 -22l96 -14v-47h-546v47l86 14q50 8 65 25t17 49q4 215 4 338l-2 365q0 38 -12.5 51.5t-49.5 21.5l-110 23v47zM582 1165l157 418h230l-346 -418h-41z" />
    <glyph glyph-name="Ncommaaccent" unicode="&#x145;" horiz-adv-x="1867" 
d="M330 582v800l-25 29q-101 118 -182 125v47h352l1026 -1212v633l-4 296q-1 45 -3.5 71.5t-15 62t-35 55t-66 33.5t-105.5 14v47h559v-47q-61 0 -104 -13.5t-66 -32.5t-35.5 -53t-15.5 -62.5t-4 -74.5q-4 -158 -4 -299v-1030h-56l-1116 1295v-686l4 -297q1 -45 3.5 -71.5
t15 -62t35 -55t66 -33.5t105.5 -14v-47h-559v47q44 0 78.5 7t58 17.5t40.5 29t26 36t14 44.5t6.5 48.5t2.5 53.5q4 172 4 299zM870 -524l-18 37q125 81 125 147q0 22 -20 41t-43.5 31.5t-43.5 38t-20 59.5q0 41 29.5 67.5t72.5 26.5q66 0 104 -50.5t38 -117.5
q0 -94 -67 -169t-157 -111z" />
    <glyph glyph-name="ncommaaccent" unicode="&#x146;" horiz-adv-x="1316" 
d="M70 981l360 20l10 -208q117 237 355 237q154 0 236.5 -97.5t82.5 -295.5v-164l6 -338q2 -36 16.5 -50.5t67.5 -23.5l86 -14v-47h-549v47l90 14q51 9 65.5 23.5t16.5 50.5q2 197 2 338v127q0 73 -10.5 126.5t-34.5 95.5t-67.5 63.5t-106.5 21.5q-67 0 -136 -45.5
t-118 -138.5v-250l4 -336q2 -39 15.5 -54t60.5 -22l96 -14v-47h-546v47l86 14q50 8 65 25t17 49q4 215 4 338l-2 365q0 38 -12.5 51.5t-49.5 21.5l-110 23v47zM592 -524l-19 37q125 81 125 147q0 22 -20 41t-43.5 31.5t-43.5 38t-20 59.5q0 41 30 67.5t73 26.5
q66 0 103.5 -50.5t37.5 -117.5q0 -94 -66.5 -169t-156.5 -111z" />
    <glyph glyph-name="Ncaron" unicode="&#x147;" horiz-adv-x="1867" 
d="M330 582v800l-25 29q-101 118 -182 125v47h352l1026 -1212v633l-4 296q-1 45 -3.5 71.5t-15 62t-35 55t-66 33.5t-105.5 14v47h559v-47q-61 0 -104 -13.5t-66 -32.5t-35.5 -53t-15.5 -62.5t-4 -74.5q-4 -158 -4 -299v-1030h-56l-1116 1295v-686l4 -297q1 -45 3.5 -71.5
t15 -62t35 -55t66 -33.5t105.5 -14v-47h-559v47q44 0 78.5 7t58 17.5t40.5 29t26 36t14 44.5t6.5 48.5t2.5 53.5q4 172 4 299zM1243 2071l-270 -383h-94l-269 380l37 29l279 -248l280 248z" />
    <glyph glyph-name="ncaron" unicode="&#x148;" horiz-adv-x="1316" 
d="M70 981l360 20l10 -208q117 237 355 237q154 0 236.5 -97.5t82.5 -295.5v-164l6 -338q2 -36 16.5 -50.5t67.5 -23.5l86 -14v-47h-549v47l90 14q51 9 65.5 23.5t16.5 50.5q2 197 2 338v127q0 73 -10.5 126.5t-34.5 95.5t-67.5 63.5t-106.5 21.5q-67 0 -136 -45.5
t-118 -138.5v-250l4 -336q2 -39 15.5 -54t60.5 -22l96 -14v-47h-546v47l86 14q50 8 65 25t17 49q4 215 4 338l-2 365q0 38 -12.5 51.5t-49.5 21.5l-110 23v47zM975 1542l-270 -383h-95l-268 381l37 29l278 -248l281 248z" />
    <glyph glyph-name="Eng" unicode="&#x14a;" horiz-adv-x="1867" 
d="M1501 371v633l-4 296q-1 45 -3.5 71.5t-15 62t-35 55t-66 33.5t-105.5 14v47h559v-47q-61 0 -104 -13.5t-66 -32.5t-35.5 -53t-15.5 -62.5t-4 -74.5q-4 -158 -4 -299v-882q0 -86 -5.5 -146t-25.5 -131.5t-56 -127.5t-100 -116.5t-155 -115.5l-25 39q61 64 99.5 127.5
t57 135t25 137.5t6.5 159v33l-993 1153v-686l4 -297q1 -45 3.5 -71.5t15 -62t35 -55t66 -33.5t105.5 -14v-47h-559v47q44 0 78.5 7t58 17.5t40.5 29t26 36t14 44.5t6.5 48.5t2.5 53.5q4 172 4 299v800l-25 29q-101 118 -182 125v47h352z" />
    <glyph glyph-name="eng" unicode="&#x14b;" horiz-adv-x="1257" 
d="M1114 637v-475q0 -72 -3.5 -123.5t-15 -112.5t-34.5 -109.5t-59.5 -100t-93.5 -99.5t-134 -94l-24 39q35 37 61.5 75.5t44 71t29 77.5t17.5 75t9 83.5t3.5 83t0.5 93.5v479q0 73 -10.5 126.5t-34.5 95.5t-67.5 63.5t-106.5 21.5q-69 0 -137 -43.5t-117 -138.5v-252
l4 -336q2 -39 15.5 -54t60.5 -22l94 -14v-47h-544v47l86 14q50 8 65 25t17 49q4 215 4 338l-2 371q0 38 -12.5 52t-49.5 22l-110 22v47l360 21l10 -220q117 242 353 242q155 0 238 -97t83 -296z" />
    <glyph glyph-name="Omacron" unicode="&#x14c;" horiz-adv-x="1810" 
d="M905 1524q-93 0 -175 -24.5t-155.5 -80.5t-126.5 -140t-83.5 -210t-30.5 -283t31 -282t83.5 -207.5t126 -137.5t155.5 -78.5t175 -23.5t175 23.5t156 78.5t126.5 137.5t83.5 207.5t31 282q0 195 -46.5 341.5t-127.5 231t-180.5 125t-217.5 40.5zM905 -29
q-170 0 -320.5 60t-260.5 166t-174 260.5t-64 335.5q0 240 110 428t296 288.5t413 100.5q135 0 259.5 -38.5t225.5 -112t176.5 -174t116.5 -230.5t41 -275q0 -181 -64 -333.5t-174 -256t-260 -161.5t-321 -58zM578 1784v96h663v-96h-663z" />
    <glyph glyph-name="omacron" unicode="&#x14d;" horiz-adv-x="1239" 
d="M612 -29q-159 0 -280 78t-181.5 201t-60.5 268q0 110 44 206.5t117 163t169 104.5t198 38q157 0 279.5 -74.5t187 -198t64.5 -272.5q0 -217 -152.5 -365.5t-384.5 -148.5zM610 53q142 0 229 118.5t87 324.5q0 198 -83.5 325t-219.5 127q-140 0 -224 -120t-84 -326
q0 -122 35.5 -224t103.5 -163.5t156 -61.5zM295 1296v97h663v-97h-663z" />
    <glyph glyph-name="Obreve" unicode="&#x14e;" horiz-adv-x="1810" 
d="M905 1524q-93 0 -175 -24.5t-155.5 -80.5t-126.5 -140t-83.5 -210t-30.5 -283t31 -282t83.5 -207.5t126 -137.5t155.5 -78.5t175 -23.5t175 23.5t156 78.5t126.5 137.5t83.5 207.5t31 282q0 195 -46.5 341.5t-127.5 231t-180.5 125t-217.5 40.5zM905 -29
q-170 0 -320.5 60t-260.5 166t-174 260.5t-64 335.5q0 240 110 428t296 288.5t413 100.5q135 0 259.5 -38.5t225.5 -112t176.5 -174t116.5 -230.5t41 -275q0 -181 -64 -333.5t-174 -256t-260 -161.5t-321 -58zM666 2021q13 -118 80 -182.5t157 -64.5q94 0 159.5 64t78.5 183
h96q-8 -81 -36.5 -142.5t-64.5 -95.5t-82 -55t-81.5 -27.5t-69.5 -6.5t-69.5 6t-81.5 27.5t-82 55t-64.5 95.5t-36.5 143h97z" />
    <glyph glyph-name="obreve" unicode="&#x14f;" horiz-adv-x="1239" 
d="M612 -29q-159 0 -280 78t-181.5 201t-60.5 268q0 110 44 206.5t117 163t169 104.5t198 38q157 0 279.5 -74.5t187 -198t64.5 -272.5q0 -217 -152.5 -365.5t-384.5 -148.5zM610 53q142 0 229 118.5t87 324.5q0 198 -83.5 325t-219.5 127q-140 0 -224 -120t-84 -326
q0 -122 35.5 -224t103.5 -163.5t156 -61.5zM379 1493q13 -118 80 -183t157 -65q94 0 159.5 64.5t78.5 183.5h96q-8 -81 -36.5 -142.5t-64.5 -95.5t-82 -55.5t-81.5 -28t-69.5 -6.5t-69 6t-81 27t-82 55t-64.5 96t-36.5 144h96z" />
    <glyph glyph-name="Ohungarumlaut" unicode="&#x150;" horiz-adv-x="1810" 
d="M905 1524q-93 0 -175 -24.5t-155.5 -80.5t-126.5 -140t-83.5 -210t-30.5 -283t31 -282t83.5 -207.5t126 -137.5t155.5 -78.5t175 -23.5t175 23.5t156 78.5t126.5 137.5t83.5 207.5t31 282q0 195 -46.5 341.5t-127.5 231t-180.5 125t-217.5 40.5zM905 -29
q-170 0 -320.5 60t-260.5 166t-174 260.5t-64 335.5q0 240 110 428t296 288.5t413 100.5q135 0 259.5 -38.5t225.5 -112t176.5 -174t116.5 -230.5t41 -275q0 -181 -64 -333.5t-174 -256t-260 -161.5t-321 -58zM649 1694l158 417h229l-346 -417h-41zM971 1694l157 417h230
l-346 -417h-41z" />
    <glyph glyph-name="ohungarumlaut" unicode="&#x151;" horiz-adv-x="1239" 
d="M612 -29q-159 0 -280 78t-181.5 201t-60.5 268q0 110 44 206.5t117 163t169 104.5t198 38q157 0 279.5 -74.5t187 -198t64.5 -272.5q0 -217 -152.5 -365.5t-384.5 -148.5zM610 53q142 0 229 118.5t87 324.5q0 198 -83.5 325t-219.5 127q-140 0 -224 -120t-84 -326
q0 -122 35.5 -224t103.5 -163.5t156 -61.5zM369 1165l157 418h230l-346 -418h-41zM690 1165l158 418h229l-346 -418h-41z" />
    <glyph glyph-name="OE" unicode="&#x152;" horiz-adv-x="2222" 
d="M899 0h-2q-171 0 -319.5 55.5t-257.5 156t-171.5 250.5t-62.5 331t62.5 330.5t171.5 249.5t257.5 155t319.5 55h2h1190l-6 -354h-49q-14 141 -86 200.5t-201 59.5h-447q170 -88 276 -247t126 -368h65q133 0 183.5 37.5t62.5 155.5h49v-465h-49q-4 39 -11.5 67.5t-16 49
t-26 33.5t-32 20.5t-44 10.5t-52 4t-64.5 1h-59v-8q0 -241 -106 -418t-293 -270h452q141 0 207.5 71.5t79.5 203.5h49l2 -367h-1200zM899 1497h-2q-94 0 -175.5 -21.5t-155.5 -74t-126 -132t-83 -203t-31 -280.5t31 -279.5t83 -200.5t126.5 -128.5t155 -71t175.5 -20.5h2
q0 91 1 225t1 203zM1468 786v2h-348v-274q0 -85 1 -231.5t1 -159.5q346 129 346 663zM1122 1458q0 -16 -1 -158t-1 -223v-203h344q-14 241 -105 384.5t-237 199.5z" />
    <glyph glyph-name="oe" unicode="&#x153;" horiz-adv-x="1923" 
d="M612 -29q-159 0 -280 78t-181.5 201t-60.5 268q0 110 44 206.5t117 163t169 104.5t198 38q142 0 247 -60t167 -167q59 107 160 167t227 60q177 0 296.5 -115t137.5 -317h-714v-66q0 -192 92.5 -317t245.5 -125q215 0 327 201l54 -23q-61 -149 -173 -223t-251 -74
q-282 0 -402 219q-65 -103 -172 -161t-248 -58zM610 49q142 0 229 120.5t87 326.5q0 198 -83.5 327t-219.5 129q-140 0 -224 -122t-84 -328q0 -189 82 -321t213 -132zM1419 965q-104 0 -181.5 -85.5t-92.5 -220.5h506q-3 83 -24.5 145t-56 96t-72 49.5t-79.5 15.5z" />
    <glyph glyph-name="Racute" unicode="&#x154;" horiz-adv-x="1634" 
d="M549 1503v-690h121q430 0 430 371q0 81 -25.5 141.5t-65.5 95.5t-98.5 56t-114.5 27.5t-124 6.5q-60 0 -123 -8zM123 1536v47q95 -2 305 1t285 3q66 0 123.5 -4t121.5 -15t116 -29t100.5 -48.5t81 -71t52 -99t19.5 -130.5t-30.5 -141t-86.5 -126t-144 -94t-194 -41
q159 -17 251 -95t145 -240q28 -85 49.5 -140.5t47.5 -106t51.5 -78.5t60 -48.5t75 -27.5t95.5 -5l8 -31q-56 -26 -102 -35.5t-109 -9.5q-81 0 -146.5 31.5t-113 92t-81.5 134t-61 170.5q-26 93 -64.5 159.5t-81 104.5t-102 59t-114.5 27.5t-131 6.5v-199l4 -393
q0 -54 25 -74t98 -29l123 -14v-47h-676v47l102 14q53 8 78 29.5t25 73.5q2 99 2 393v487q0 96 -1 222t-1 153q0 52 -25 73.5t-78 29.5zM643 1694l158 417h229l-346 -417h-41z" />
    <glyph glyph-name="racute" unicode="&#x155;" horiz-adv-x="886" 
d="M68 979l358 20l4 -284q34 136 117 225.5t194 89.5q64 0 105 -34t41 -89q0 -44 -30.5 -72t-70.5 -28q-29 0 -56 14.5t-43 31.5t-32 31.5t-26 14.5q-40 0 -99.5 -69.5t-91.5 -165.5v-195l4 -332q2 -39 15.5 -54.5t60.5 -21.5l115 -14v-47h-567v47l86 14q50 8 66 25t18 49
q4 211 4 334v356q0 39 -13 58t-49 26l-110 23v47zM301 1165l158 418h229l-346 -418h-41z" />
    <glyph glyph-name="Rcommaaccent" unicode="&#x156;" horiz-adv-x="1634" 
d="M549 1503v-690h121q430 0 430 371q0 81 -25.5 141.5t-65.5 95.5t-98.5 56t-114.5 27.5t-124 6.5q-60 0 -123 -8zM123 1536v47q95 -2 305 1t285 3q66 0 123.5 -4t121.5 -15t116 -29t100.5 -48.5t81 -71t52 -99t19.5 -130.5t-30.5 -141t-86.5 -126t-144 -94t-194 -41
q159 -17 251 -95t145 -240q28 -85 49.5 -140.5t47.5 -106t51.5 -78.5t60 -48.5t75 -27.5t95.5 -5l8 -31q-56 -26 -102 -35.5t-109 -9.5q-81 0 -146.5 31.5t-113 92t-81.5 134t-61 170.5q-26 93 -64.5 159.5t-81 104.5t-102 59t-114.5 27.5t-131 6.5v-199l4 -393
q0 -54 25 -74t98 -29l123 -14v-47h-676v47l102 14q53 8 78 29.5t25 73.5q2 99 2 393v487q0 96 -1 222t-1 153q0 52 -25 73.5t-78 29.5zM780 -524l-18 37q125 81 125 147q0 22 -20 41t-43.5 31.5t-43.5 38t-20 59.5q0 41 29.5 67.5t72.5 26.5q66 0 104 -50.5t38 -117.5
q0 -94 -67 -169t-157 -111z" />
    <glyph glyph-name="rcommaaccent" unicode="&#x157;" horiz-adv-x="886" 
d="M68 979l358 20l4 -284q34 136 117 225.5t194 89.5q64 0 105 -34t41 -89q0 -44 -30.5 -72t-70.5 -28q-29 0 -56 14.5t-43 31.5t-32 31.5t-26 14.5q-40 0 -99.5 -69.5t-91.5 -165.5v-195l4 -332q2 -39 15.5 -54.5t60.5 -21.5l115 -14v-47h-567v47l86 14q50 8 66 25t18 49
q4 211 4 334v356q0 39 -13 58t-49 26l-110 23v47zM254 -524l-18 37q124 80 124 147q0 22 -20 41t-43.5 31.5t-43.5 38t-20 59.5q0 41 30 67.5t73 26.5q66 0 103.5 -50.5t37.5 -117.5q0 -94 -66.5 -169t-156.5 -111z" />
    <glyph glyph-name="Rcaron" unicode="&#x158;" horiz-adv-x="1634" 
d="M549 1503v-690h121q430 0 430 371q0 81 -25.5 141.5t-65.5 95.5t-98.5 56t-114.5 27.5t-124 6.5q-60 0 -123 -8zM123 1536v47q95 -2 305 1t285 3q66 0 123.5 -4t121.5 -15t116 -29t100.5 -48.5t81 -71t52 -99t19.5 -130.5t-30.5 -141t-86.5 -126t-144 -94t-194 -41
q159 -17 251 -95t145 -240q28 -85 49.5 -140.5t47.5 -106t51.5 -78.5t60 -48.5t75 -27.5t95.5 -5l8 -31q-56 -26 -102 -35.5t-109 -9.5q-81 0 -146.5 31.5t-113 92t-81.5 134t-61 170.5q-26 93 -64.5 159.5t-81 104.5t-102 59t-114.5 27.5t-131 6.5v-199l4 -393
q0 -54 25 -74t98 -29l123 -14v-47h-676v47l102 14q53 8 78 29.5t25 73.5q2 99 2 393v487q0 96 -1 222t-1 153q0 52 -25 73.5t-78 29.5zM1073 2071l-270 -383h-94l-269 380l37 29l279 -248l280 248z" />
    <glyph glyph-name="rcaron" unicode="&#x159;" horiz-adv-x="886" 
d="M68 979l358 20l4 -284q34 136 117 225.5t194 89.5q64 0 105 -34t41 -89q0 -44 -30.5 -72t-70.5 -28q-29 0 -56 14.5t-43 31.5t-32 31.5t-26 14.5q-40 0 -99.5 -69.5t-91.5 -165.5v-195l4 -332q2 -39 15.5 -54.5t60.5 -21.5l115 -14v-47h-567v47l86 14q50 8 66 25t18 49
q4 211 4 334v356q0 39 -13 58t-49 26l-110 23v47zM760 1542l-271 -383h-94l-268 381l37 29l278 -248l281 248z" />
    <glyph glyph-name="Sacute" unicode="&#x15a;" horiz-adv-x="1370" 
d="M1047 340q0 242 -314 348l-235 80q-170 58 -250 170.5t-80 251.5q0 128 72 225t187 146t253 49q133 0 236.5 -31t209.5 -84l25 -283h-49q-62 155 -173 233.5t-245 78.5q-147 0 -233 -68t-86 -180q0 -103 59 -177.5t197 -121.5l184 -64q37 -13 53.5 -19t58.5 -23t66 -30
t63.5 -37.5t63.5 -47.5t53 -57t45 -69.5t27.5 -81.5t11.5 -97q0 -213 -155.5 -346.5t-405.5 -133.5q-156 0 -295.5 35.5t-236.5 102.5l-11 313h43q33 -91 75 -157t88 -105.5t105 -62.5t116 -30.5t132 -7.5q166 0 255.5 79t89.5 202zM561 1694l158 417h229l-346 -417h-41z
" />
    <glyph glyph-name="sacute" unicode="&#x15b;" horiz-adv-x="942" 
d="M840 291q0 -150 -104.5 -235t-264.5 -85q-66 0 -140.5 22.5t-127.5 78.5l-58 -99h-39v389h56q28 -150 106.5 -226.5t182.5 -76.5q43 0 79.5 8.5t67.5 27t48.5 52t17.5 80.5q0 79 -56.5 130t-148.5 75l-103 27q-125 33 -184 109t-59 169q0 134 101 210.5t245 76.5
q63 0 128 -16.5t105 -55.5l62 70h34v-352h-51q-18 137 -88.5 204.5t-177.5 67.5q-79 0 -135.5 -39.5t-56.5 -107.5q0 -77 46 -113.5t134 -60.5l98 -27q133 -36 208 -106.5t75 -196.5zM377 1165l158 418h229l-346 -418h-41z" />
    <glyph glyph-name="Scircumflex" unicode="&#x15c;" horiz-adv-x="1370" 
d="M1047 340q0 242 -314 348l-235 80q-170 58 -250 170.5t-80 251.5q0 128 72 225t187 146t253 49q133 0 236.5 -31t209.5 -84l25 -283h-49q-62 155 -173 233.5t-245 78.5q-147 0 -233 -68t-86 -180q0 -103 59 -177.5t197 -121.5l184 -64q37 -13 53.5 -19t58.5 -23t66 -30
t63.5 -37.5t63.5 -47.5t53 -57t45 -69.5t27.5 -81.5t11.5 -97q0 -213 -155.5 -346.5t-405.5 -133.5q-156 0 -295.5 35.5t-236.5 102.5l-11 313h43q33 -91 75 -157t88 -105.5t105 -62.5t116 -30.5t132 -7.5q166 0 255.5 79t89.5 202zM358 1706l271 383h94l268 -381l-37 -29
l-278 240l-281 -240z" />
    <glyph glyph-name="scircumflex" unicode="&#x15d;" horiz-adv-x="942" 
d="M840 291q0 -150 -104.5 -235t-264.5 -85q-66 0 -140.5 22.5t-127.5 78.5l-58 -99h-39v389h56q28 -150 106.5 -226.5t182.5 -76.5q43 0 79.5 8.5t67.5 27t48.5 52t17.5 80.5q0 79 -56.5 130t-148.5 75l-103 27q-125 33 -184 109t-59 169q0 134 101 210.5t245 76.5
q63 0 128 -16.5t105 -55.5l62 70h34v-352h-51q-18 137 -88.5 204.5t-177.5 67.5q-79 0 -135.5 -39.5t-56.5 -107.5q0 -77 46 -113.5t134 -60.5l98 -27q133 -36 208 -106.5t75 -196.5zM154 1178l270 383h94l268 -381l-36 -29l-279 240l-281 -240z" />
    <glyph glyph-name="Scedilla" unicode="&#x15e;" horiz-adv-x="1370" 
d="M532 -176l109 147q-302 10 -487 138l-11 313h43q33 -91 75 -157t88 -105.5t105 -62.5t116 -30.5t132 -7.5q166 0 255.5 79t89.5 202q0 242 -314 348l-235 80q-170 58 -250 170.5t-80 251.5q0 128 72 225t187 146t253 49q133 0 236.5 -31t209.5 -84l25 -283h-49
q-62 155 -173 233.5t-245 78.5q-147 0 -233 -68t-86 -180q0 -103 59 -177.5t197 -121.5l184 -64q37 -13 53.5 -19t58.5 -23t66 -30t63.5 -37.5t63.5 -47.5t53 -57t45 -69.5t27.5 -81.5t11.5 -97q0 -206 -147 -338.5t-385 -141.5l-109 -143q61 47 127 47q67 0 110.5 -39.5
t43.5 -107.5q0 -55 -36.5 -101t-94 -75.5t-121 -46.5t-125.5 -21l-8 43q122 16 190 73.5t68 123.5q0 37 -22 63.5t-72 26.5q-42 0 -84 -29z" />
    <glyph glyph-name="scedilla" unicode="&#x15f;" horiz-adv-x="942" 
d="M840 291q0 -144 -95.5 -228t-246.5 -90l-109 -145q61 47 127 47q67 0 110.5 -39.5t43.5 -107.5q0 -55 -36.5 -101t-94 -75t-121 -46t-125.5 -22l-8 43q122 16 190 73.5t68 123.5q0 37 -22 63.5t-72 26.5q-42 0 -84 -29l-50 39l109 149q-145 17 -221 99l-58 -99h-39v389
h56q28 -150 106.5 -226.5t182.5 -76.5q43 0 79.5 8.5t67.5 27t48.5 52t17.5 80.5q0 79 -56.5 130t-148.5 75l-103 27q-125 33 -184 109t-59 169q0 134 101 210.5t245 76.5q63 0 128 -16.5t105 -55.5l62 70h34v-352h-51q-18 137 -88.5 204.5t-177.5 67.5q-79 0 -135.5 -39.5
t-56.5 -107.5q0 -77 46 -113.5t134 -60.5l98 -27q133 -36 208 -106.5t75 -196.5z" />
    <glyph glyph-name="Scaron" unicode="&#x160;" horiz-adv-x="1370" 
d="M1047 340q0 242 -314 348l-235 80q-170 58 -250 170.5t-80 251.5q0 128 72 225t187 146t253 49q133 0 236.5 -31t209.5 -84l25 -283h-49q-62 155 -173 233.5t-245 78.5q-147 0 -233 -68t-86 -180q0 -103 59 -177.5t197 -121.5l184 -64q37 -13 53.5 -19t58.5 -23t66 -30
t63.5 -37.5t63.5 -47.5t53 -57t45 -69.5t27.5 -81.5t11.5 -97q0 -213 -155.5 -346.5t-405.5 -133.5q-156 0 -295.5 35.5t-236.5 102.5l-11 313h43q33 -91 75 -157t88 -105.5t105 -62.5t116 -30.5t132 -7.5q166 0 255.5 79t89.5 202zM1012 2071l-271 -383h-94l-268 380l37 29
l278 -248l281 248z" />
    <glyph glyph-name="scaron" unicode="&#x161;" horiz-adv-x="942" 
d="M840 291q0 -150 -104.5 -235t-264.5 -85q-66 0 -140.5 22.5t-127.5 78.5l-58 -99h-39v389h56q28 -150 106.5 -226.5t182.5 -76.5q43 0 79.5 8.5t67.5 27t48.5 52t17.5 80.5q0 79 -56.5 130t-148.5 75l-103 27q-125 33 -184 109t-59 169q0 134 101 210.5t245 76.5
q63 0 128 -16.5t105 -55.5l62 70h34v-352h-51q-18 137 -88.5 204.5t-177.5 67.5q-79 0 -135.5 -39.5t-56.5 -107.5q0 -77 46 -113.5t134 -60.5l98 -27q133 -36 208 -106.5t75 -196.5zM786 1542l-270 -383h-94l-268 381l36 29l279 -248l281 248z" />
    <glyph glyph-name="uni0162" unicode="&#x162;" horiz-adv-x="1456" 
d="M842 557l2 -393q0 -54 29.5 -76.5t101.5 -30.5l115 -10v-47h-715v47l108 10q76 8 107 30.5t31 76.5q0 27 1 161.5t1 231.5v467q0 124 -1 297t-1 174h-230q-172 0 -248 -68.5t-92 -218.5h-49l21 375h1433l-6 -375h-47q-8 77 -24.5 127t-52.5 88t-96 55t-151 17h-235
q0 -7 -1 -188.5t-1 -282.5v-467zM645 -524l-18 37q125 81 125 147q0 22 -20 41t-43.5 31.5t-43.5 38t-20 59.5q0 41 29.5 67.5t72.5 26.5q66 0 103.5 -50.5t37.5 -117.5q0 -94 -66.5 -169t-156.5 -111z" />
    <glyph glyph-name="uni0163" unicode="&#x163;" horiz-adv-x="743" 
d="M360 1245h41v-272h291v-76h-291v-301l2 -352q0 -168 136 -168q39 0 87 20t85 51l26 -28q-125 -148 -291 -148q-107 0 -175 60.5t-68 181.5v684l-158 12v64h170zM336 -524l-19 37q125 81 125 147q0 22 -20 41t-43.5 31.5t-43.5 38t-20 59.5q0 41 30 67.5t73 26.5
q66 0 103.5 -50.5t37.5 -117.5q0 -94 -66.5 -169t-156.5 -111z" />
    <glyph glyph-name="Tcaron" unicode="&#x164;" horiz-adv-x="1456" 
d="M842 557l2 -393q0 -54 29.5 -76.5t101.5 -30.5l115 -10v-47h-715v47l108 10q76 8 107 30.5t31 76.5q0 27 1 161.5t1 231.5v467q0 124 -1 297t-1 174h-230q-172 0 -248 -68.5t-92 -218.5h-49l21 375h1433l-6 -375h-47q-8 77 -24.5 127t-52.5 88t-96 55t-151 17h-235
q0 -7 -1 -188.5t-1 -282.5v-467zM1049 2071l-271 -383h-94l-268 380l37 29l278 -248l281 248z" />
    <glyph glyph-name="tcaron" unicode="&#x165;" horiz-adv-x="755" 
d="M360 1245h41v-272h291v-76h-291v-301l2 -352q0 -168 136 -168q39 0 87 20t85 51l26 -28q-125 -148 -291 -148q-107 0 -175 60.5t-68 181.5v684l-158 12v64h170zM532 1176l-18 36q125 81 125 148q0 22 -20 41t-43.5 31.5t-43.5 38t-20 59.5q0 41 29.5 67.5t72.5 26.5
q66 0 104 -50.5t38 -117.5q0 -94 -67 -169t-157 -111z" />
    <glyph glyph-name="Tbar" unicode="&#x166;" horiz-adv-x="1456" 
d="M307 758v96h316v170q0 124 -1 297t-1 174h-230q-172 0 -248 -68.5t-92 -218.5h-49l21 375h1433l-6 -375h-47q-8 77 -24.5 127t-52.5 88t-96 55t-151 17h-235q0 -7 -1 -188.5t-1 -282.5v-170h313v-96h-313v-201l2 -393q0 -54 29.5 -76.5t101.5 -30.5l115 -10v-47h-715v47
l108 10q76 8 107 30.5t31 76.5q0 27 1 161.5t1 231.5v201h-316z" />
    <glyph glyph-name="tbar" unicode="&#x167;" horiz-adv-x="743" 
d="M360 1245h41v-272h291v-76h-291v-207h291v-76h-291v-18l2 -352q0 -168 136 -168q39 0 87 20t85 51l26 -28q-125 -148 -291 -148q-107 0 -175 60.5t-68 181.5v401h-158v76h158v207l-158 12v64h170z" />
    <glyph glyph-name="Utilde" unicode="&#x168;" horiz-adv-x="1792" 
d="M272 1024l-2 395q0 52 -25 73.5t-77 29.5l-102 14v47h632v-47l-102 -14q-52 -8 -77 -29.5t-25 -73.5q-2 -209 -2 -395v-350q0 -136 23 -239.5t74 -183t139 -120.5t212 -41q469 0 469 578v336l-4 296q-1 44 -4 71.5t-15.5 62t-35.5 54.5t-66 34t-104 14v47h563v-47
q-60 0 -102.5 -13t-65.5 -32.5t-36 -53.5t-16.5 -63t-4.5 -74q-5 -158 -5 -299v-342q0 -336 -154 -512t-458 -176q-318 0 -473.5 173.5t-155.5 519.5v360zM719 2042q48 0 106.5 -24.5t104 -54.5t102 -54.5t101.5 -24.5q84 0 145 96l35 -18q-45 -128 -95.5 -188t-134.5 -60
q-43 0 -89.5 16.5t-87 39.5t-79.5 46t-80.5 39.5t-76.5 16.5q-87 0 -146 -96l-35 18q45 128 95.5 188t134.5 60z" />
    <glyph glyph-name="utilde" unicode="&#x169;" horiz-adv-x="1241" 
d="M862 0l-10 233q-105 -262 -342 -262q-76 0 -133.5 24t-91.5 63t-55 95.5t-28 113t-7 124.5v424q0 39 -13 58t-49 26l-110 23v47l366 20v-575q0 -58 5 -103.5t18.5 -87.5t35.5 -69.5t58.5 -43.5t85.5 -16q79 0 149 54t105 174v493q0 39 -14 58t-50 26l-110 23v47l370 22
v-856q0 -36 15.5 -50.5t68.5 -23.5l86 -14v-47h-350zM430 1513q48 0 100 -24.5t90 -54t88 -54t95 -24.5q83 0 145 96l35 -18q-43 -123 -93.5 -175.5t-135.5 -52.5q-53 0 -106.5 24.5t-91 54.5t-85 54.5t-90.5 24.5q-83 0 -145 -96l-35 18q43 122 93.5 174.5t135.5 52.5z" />
    <glyph glyph-name="Umacron" unicode="&#x16a;" horiz-adv-x="1792" 
d="M272 1024l-2 395q0 52 -25 73.5t-77 29.5l-102 14v47h632v-47l-102 -14q-52 -8 -77 -29.5t-25 -73.5q-2 -209 -2 -395v-350q0 -136 23 -239.5t74 -183t139 -120.5t212 -41q469 0 469 578v336l-4 296q-1 44 -4 71.5t-15.5 62t-35.5 54.5t-66 34t-104 14v47h563v-47
q-60 0 -102.5 -13t-65.5 -32.5t-36 -53.5t-16.5 -63t-4.5 -74q-5 -158 -5 -299v-342q0 -336 -154 -512t-458 -176q-318 0 -473.5 173.5t-155.5 519.5v360zM606 1784v96h664v-96h-664z" />
    <glyph glyph-name="umacron" unicode="&#x16b;" horiz-adv-x="1241" 
d="M862 0l-10 233q-105 -262 -342 -262q-76 0 -133.5 24t-91.5 63t-55 95.5t-28 113t-7 124.5v424q0 39 -13 58t-49 26l-110 23v47l366 20v-575q0 -58 5 -103.5t18.5 -87.5t35.5 -69.5t58.5 -43.5t85.5 -16q79 0 149 54t105 174v493q0 39 -14 58t-50 26l-110 23v47l370 22
v-856q0 -36 15.5 -50.5t68.5 -23.5l86 -14v-47h-350zM285 1296v97h663v-97h-663z" />
    <glyph glyph-name="Ubreve" unicode="&#x16c;" horiz-adv-x="1792" 
d="M272 1024l-2 395q0 52 -25 73.5t-77 29.5l-102 14v47h632v-47l-102 -14q-52 -8 -77 -29.5t-25 -73.5q-2 -209 -2 -395v-350q0 -136 23 -239.5t74 -183t139 -120.5t212 -41q469 0 469 578v336l-4 296q-1 44 -4 71.5t-15.5 62t-35.5 54.5t-66 34t-104 14v47h563v-47
q-60 0 -102.5 -13t-65.5 -32.5t-36 -53.5t-16.5 -63t-4.5 -74q-5 -158 -5 -299v-342q0 -336 -154 -512t-458 -176q-318 0 -473.5 173.5t-155.5 519.5v360zM690 2021q13 -118 80.5 -182.5t157.5 -64.5q94 0 159 64t78 183h97q-8 -81 -36.5 -142.5t-64.5 -95.5t-82 -55
t-81.5 -27.5t-69.5 -6.5t-69.5 6t-81.5 27.5t-82 55t-64.5 95.5t-36.5 143h96z" />
    <glyph glyph-name="ubreve" unicode="&#x16d;" horiz-adv-x="1241" 
d="M862 0l-10 233q-105 -262 -342 -262q-76 0 -133.5 24t-91.5 63t-55 95.5t-28 113t-7 124.5v424q0 39 -13 58t-49 26l-110 23v47l366 20v-575q0 -58 5 -103.5t18.5 -87.5t35.5 -69.5t58.5 -43.5t85.5 -16q79 0 149 54t105 174v493q0 39 -14 58t-50 26l-110 23v47l370 22
v-856q0 -36 15.5 -50.5t68.5 -23.5l86 -14v-47h-350zM377 1493q13 -118 80 -183t157 -65q94 0 159.5 64.5t78.5 183.5h96q-8 -81 -36.5 -142.5t-64.5 -95.5t-82 -55.5t-81.5 -28t-69.5 -6.5t-69 6t-81 27t-82 55t-64.5 96t-36.5 144h96z" />
    <glyph glyph-name="Uring" unicode="&#x16e;" horiz-adv-x="1792" 
d="M272 1024l-2 395q0 52 -25 73.5t-77 29.5l-102 14v47h632v-47l-102 -14q-52 -8 -77 -29.5t-25 -73.5q-2 -209 -2 -395v-350q0 -136 23 -239.5t74 -183t139 -120.5t212 -41q469 0 469 578v336l-4 296q-1 44 -4 71.5t-15.5 62t-35.5 54.5t-66 34t-104 14v47h563v-47
q-60 0 -102.5 -13t-65.5 -32.5t-36 -53.5t-16.5 -63t-4.5 -74q-5 -158 -5 -299v-342q0 -336 -154 -512t-458 -176q-318 0 -473.5 173.5t-155.5 519.5v360zM895 2075q87 0 148 -58.5t61 -142.5t-61 -142.5t-148 -58.5t-148 58.5t-61 142.5t61 142.5t148 58.5zM895 1749
q60 0 91.5 34t31.5 91q0 58 -34.5 91.5t-88.5 33.5q-57 0 -89 -34t-32 -91t32 -91t89 -34z" />
    <glyph glyph-name="uring" unicode="&#x16f;" horiz-adv-x="1241" 
d="M862 0l-10 233q-105 -262 -342 -262q-76 0 -133.5 24t-91.5 63t-55 95.5t-28 113t-7 124.5v424q0 39 -13 58t-49 26l-110 23v47l366 20v-575q0 -58 5 -103.5t18.5 -87.5t35.5 -69.5t58.5 -43.5t85.5 -16q79 0 149 54t105 174v493q0 39 -14 58t-50 26l-110 23v47l370 22
v-856q0 -36 15.5 -50.5t68.5 -23.5l86 -14v-47h-350zM600 1546q87 0 148 -58t61 -142t-61 -142.5t-148 -58.5t-148 58.5t-61 142.5t61 142t148 58zM600 1221q60 0 91.5 34t31.5 91q0 58 -34.5 91t-88.5 33q-56 0 -88.5 -34t-32.5 -90t32.5 -90.5t88.5 -34.5z" />
    <glyph glyph-name="Uhungarumlaut" unicode="&#x170;" horiz-adv-x="1792" 
d="M272 1024l-2 395q0 52 -25 73.5t-77 29.5l-102 14v47h632v-47l-102 -14q-52 -8 -77 -29.5t-25 -73.5q-2 -209 -2 -395v-350q0 -136 23 -239.5t74 -183t139 -120.5t212 -41q469 0 469 578v336l-4 296q-1 44 -4 71.5t-15.5 62t-35.5 54.5t-66 34t-104 14v47h563v-47
q-60 0 -102.5 -13t-65.5 -32.5t-36 -53.5t-16.5 -63t-4.5 -74q-5 -158 -5 -299v-342q0 -336 -154 -512t-458 -176q-318 0 -473.5 173.5t-155.5 519.5v360zM670 1694l157 417h230l-346 -417h-41zM991 1694l158 417h229l-346 -417h-41z" />
    <glyph glyph-name="uhungarumlaut" unicode="&#x171;" horiz-adv-x="1241" 
d="M862 0l-10 233q-105 -262 -342 -262q-76 0 -133.5 24t-91.5 63t-55 95.5t-28 113t-7 124.5v424q0 39 -13 58t-49 26l-110 23v47l366 20v-575q0 -58 5 -103.5t18.5 -87.5t35.5 -69.5t58.5 -43.5t85.5 -16q79 0 149 54t105 174v493q0 39 -14 58t-50 26l-110 23v47l370 22
v-856q0 -36 15.5 -50.5t68.5 -23.5l86 -14v-47h-350zM358 1165l158 418h229l-346 -418h-41zM680 1165l158 418h229l-346 -418h-41z" />
    <glyph glyph-name="Uogonek" unicode="&#x172;" horiz-adv-x="1792" 
d="M272 1024l-2 395q0 52 -25 73.5t-77 29.5l-102 14v47h632v-47l-102 -14q-52 -8 -77 -29.5t-25 -73.5q-2 -209 -2 -395v-350q0 -136 23 -239.5t74 -183t139 -120.5t212 -41q469 0 469 578v336l-4 296q-1 44 -4 71.5t-15.5 62t-35.5 54.5t-66 34t-104 14v47h563v-47
q-60 0 -102.5 -13t-65.5 -32.5t-36 -53.5t-16.5 -63t-4.5 -74q-5 -158 -5 -299v-342q0 -320 -140 -494.5t-417 -191.5q-131 -138 -131 -260q0 -69 41 -101t103 -32q37 0 84 14l12 -30q-93 -60 -193 -60q-84 0 -140 42.5t-56 129.5q0 83 57 153t164 142q-316 1 -470.5 174
t-154.5 519v360z" />
    <glyph glyph-name="uogonek" unicode="&#x173;" horiz-adv-x="1241" 
d="M971 -408l12 -30q-93 -60 -192 -60q-84 0 -140.5 42.5t-56.5 129.5q0 91 69.5 167t198.5 159l-10 233q-105 -262 -342 -262q-76 0 -133.5 24t-91.5 63t-55 95.5t-28 113t-7 124.5v424q0 39 -13 58t-49 26l-110 23v47l366 20v-575q0 -58 5 -103.5t18.5 -87.5t35.5 -69.5
t58.5 -43.5t85.5 -16q79 0 149 54t105 174v493q0 39 -14 58t-50 26l-110 23v47l370 22v-856q0 -36 15.5 -50.5t68.5 -23.5l86 -14v-47h-309q-72 -69 -116 -146.5t-44 -142.5q0 -69 41 -101t103 -32q37 0 84 14z" />
    <glyph glyph-name="Wcircumflex" unicode="&#x174;" horiz-adv-x="2168" 
d="M1298 1528q-65 -6 -81.5 -34.5t0.5 -82.5q24 -121 73 -287l230 -782l282 965q20 69 23 113t-13 66.5t-37 31t-59 12.5l-61 6v47h514v-47l-53 -6q-72 -8 -116 -50.5t-81 -162.5l-418 -1346h-63l-357 1110l-338 -1110h-69l-357 1110q-83 268 -120 351q-20 44 -48 69t-77 29
l-72 6v47h608v-47l-76 -8q-65 -7 -81.5 -35t0.5 -82q42 -174 75 -287l232 -786l274 897l-69 197q-30 87 -125 98l-52 6v47h609v-47zM764 1706l270 383h94l269 -381l-37 -29l-279 240l-280 -240z" />
    <glyph glyph-name="wcircumflex" unicode="&#x175;" horiz-adv-x="1701" 
d="M991 842l197 -617l205 533q27 65 19.5 103.5t-38 55t-88.5 17.5v47h416v-47q-37 -5 -57.5 -9t-44 -14t-38.5 -26t-31 -42.5t-32 -66.5l-323 -817h-72l-260 668l-289 -668h-68l-340 893q-17 45 -48.5 63t-98.5 19v47h526v-47q-89 0 -131 -21.5t-24 -70.5l217 -617l221 523
l-37 104q-15 44 -47.5 62.5t-99.5 19.5v47h526v-47q-90 0 -133 -21t-27 -71zM575 1178l271 383h94l268 -381l-37 -29l-278 240l-281 -240z" />
    <glyph glyph-name="Ycircumflex" unicode="&#x176;" horiz-adv-x="1513" 
d="M492 57q74 8 100 30t26 77q0 28 1.5 152t1.5 221v176l-424 719q-13 22 -23.5 35t-31.5 29.5t-56.5 26t-85.5 13.5v47h629v-47l-97 -8q-136 -12 -77 -117l348 -608l313 504q32 52 46.5 90.5t13.5 61.5t-17.5 38.5t-38.5 22t-57 10.5l-59 6v47h509v-47l-55 -6
q-63 -7 -109 -51t-120 -162l-389 -608v-172l2 -373q0 -55 25.5 -77t95.5 -30l114 -10v-47h-694v47zM440 1706l271 383h94l268 -381l-37 -29l-278 240l-281 -240z" />
    <glyph glyph-name="ycircumflex" unicode="&#x177;" horiz-adv-x="1132" 
d="M899 696l-405 -1005q-75 -185 -146 -250.5t-188 -65.5q-29 0 -65.5 8.5t-74 25.5t-63 48.5t-25.5 71.5q0 34 26.5 63t68.5 29q31 0 55.5 -16.5t41 -40t31 -47t33 -40t39.5 -16.5q35 0 76.5 52t66 102.5t44.5 101.5l96 242l-340 893q-17 45 -48.5 63t-98.5 19v47h526v-47
q-89 0 -130.5 -21.5t-25.5 -70.5l217 -643l197 512q26 65 31.5 109t-9.5 68.5t-42.5 34.5t-71.5 11v47h420v-47q-39 -5 -58 -9.5t-45 -18t-44 -38t-40.5 -66.5t-48.5 -106zM305 1178l270 383h95l268 -381l-37 -29l-278 240l-281 -240z" />
    <glyph glyph-name="Ydieresis" unicode="&#x178;" horiz-adv-x="1513" 
d="M492 57q74 8 100 30t26 77q0 28 1.5 152t1.5 221v176l-424 719q-13 22 -23.5 35t-31.5 29.5t-56.5 26t-85.5 13.5v47h629v-47l-97 -8q-136 -12 -77 -117l348 -608l313 504q32 52 46.5 90.5t13.5 61.5t-17.5 38.5t-38.5 22t-57 10.5l-59 6v47h509v-47l-55 -6
q-63 -7 -109 -51t-120 -162l-389 -608v-172l2 -373q0 -55 25.5 -77t95.5 -30l114 -10v-47h-694v47zM508 1722q-59 0 -99 41t-40 101q0 58 40.5 98.5t98.5 40.5q60 0 100.5 -40t40.5 -99q0 -60 -40.5 -101t-100.5 -41zM1047 1722q-59 0 -99.5 41t-40.5 101q0 58 40.5 98.5
t99.5 40.5q60 0 100.5 -40t40.5 -99q0 -60 -40.5 -101t-100.5 -41z" />
    <glyph glyph-name="Zacute" unicode="&#x179;" horiz-adv-x="1413" 
d="M61 20l1002 1475q-191 9 -424 -2q-190 -9 -287 -88.5t-110 -206.5h-47q34 311 34 385h1102l21 -29l-998 -1468q97 -4 297 -4t297 4q175 9 254.5 85.5t95.5 229.5h48l4 -401h-1276zM612 1694l158 417h229l-346 -417h-41z" />
    <glyph glyph-name="zacute" unicode="&#x17a;" horiz-adv-x="983" 
d="M115 676l18 301h764l12 -27l-620 -891h84q87 0 146 3.5t115.5 13.5t91.5 28t64.5 48t46 72.5t25.5 101.5h47v-326h-854l-12 20l616 883h-90q-145 0 -226.5 -21.5t-122 -69t-56.5 -136.5h-49zM418 1165l157 418h230l-346 -418h-41z" />
    <glyph glyph-name="Zdotaccent" unicode="&#x17b;" horiz-adv-x="1413" 
d="M61 20l1002 1475q-191 9 -424 -2q-190 -9 -287 -88.5t-110 -206.5h-47q34 311 34 385h1102l21 -29l-998 -1468q97 -4 297 -4t297 4q175 9 254.5 85.5t95.5 229.5h48l4 -401h-1276zM774 1712q-59 0 -99 40.5t-40 100.5q0 59 40.5 99.5t98.5 40.5q60 0 100.5 -40.5
t40.5 -99.5q0 -60 -40.5 -100.5t-100.5 -40.5z" />
    <glyph glyph-name="zdotaccent" unicode="&#x17c;" horiz-adv-x="983" 
d="M115 676l18 301h764l12 -27l-620 -891h84q87 0 146 3.5t115.5 13.5t91.5 28t64.5 48t46 72.5t25.5 101.5h47v-326h-854l-12 20l616 883h-90q-145 0 -226.5 -21.5t-122 -69t-56.5 -136.5h-49zM543 1266q-59 0 -99.5 40.5t-40.5 100.5q0 58 40.5 98.5t99.5 40.5
q60 0 100.5 -40t40.5 -99q0 -60 -40.5 -100.5t-100.5 -40.5z" />
    <glyph glyph-name="Zcaron" unicode="&#x17d;" horiz-adv-x="1413" 
d="M61 20l1002 1475q-191 9 -424 -2q-190 -9 -287 -88.5t-110 -206.5h-47q34 311 34 385h1102l21 -29l-998 -1468q97 -4 297 -4t297 4q175 9 254.5 85.5t95.5 229.5h48l4 -401h-1276zM1085 2071l-270 -383h-94l-268 380l36 29l279 -248l281 248z" />
    <glyph glyph-name="zcaron" unicode="&#x17e;" horiz-adv-x="983" 
d="M115 676l18 301h764l12 -27l-620 -891h84q87 0 146 3.5t115.5 13.5t91.5 28t64.5 48t46 72.5t25.5 101.5h47v-326h-854l-12 20l616 883h-90q-145 0 -226.5 -21.5t-122 -69t-56.5 -136.5h-49zM848 1542l-270 -383h-95l-268 381l37 29l278 -248l281 248z" />
    <glyph glyph-name="uni018F" unicode="&#x18f;" horiz-adv-x="1609" 
d="M780 -27q-135 0 -254 42.5t-211.5 122.5t-152.5 204.5t-74 280.5h1192q4 41 4 120q0 148 -36 275.5t-105 224.5t-177.5 152t-244.5 55q-80 0 -150 -14t-145 -48.5t-144 -102t-124 -165.5l-64 29q62 154 172 260.5t237 154.5t267 48q181 0 325.5 -62.5t237.5 -173
t142 -260t49 -325.5q0 -179 -58 -332.5t-158 -259.5t-236.5 -166t-291.5 -60zM807 55q180 0 306 135.5t157 362.5h-930q11 -126 56 -224t110.5 -156.5t142 -88t158.5 -29.5z" />
    <glyph glyph-name="Scommaaccent" unicode="&#x218;" horiz-adv-x="1370" 
d="M1047 340q0 242 -314 348l-235 80q-170 58 -250 170.5t-80 251.5q0 128 72 225t187 146t253 49q133 0 236.5 -31t209.5 -84l25 -283h-49q-62 155 -173 233.5t-245 78.5q-147 0 -233 -68t-86 -180q0 -103 59 -177.5t197 -121.5l184 -64q37 -13 53.5 -19t58.5 -23t66 -30
t63.5 -37.5t63.5 -47.5t53 -57t45 -69.5t27.5 -81.5t11.5 -97q0 -213 -155.5 -346.5t-405.5 -133.5q-156 0 -295.5 35.5t-236.5 102.5l-11 313h43q33 -91 75 -157t88 -105.5t105 -62.5t116 -30.5t132 -7.5q166 0 255.5 79t89.5 202zM604 -524l-18 37q125 81 125 147
q0 22 -20 41t-43.5 31.5t-43.5 38t-20 59.5q0 41 29.5 67.5t72.5 26.5q66 0 103.5 -50.5t37.5 -117.5q0 -94 -66.5 -169t-156.5 -111z" />
    <glyph glyph-name="scommaaccent" unicode="&#x219;" horiz-adv-x="942" 
d="M840 291q0 -150 -104.5 -235t-264.5 -85q-66 0 -140.5 22.5t-127.5 78.5l-58 -99h-39v389h56q28 -150 106.5 -226.5t182.5 -76.5q43 0 79.5 8.5t67.5 27t48.5 52t17.5 80.5q0 79 -56.5 130t-148.5 75l-103 27q-125 33 -184 109t-59 169q0 134 101 210.5t245 76.5
q63 0 128 -16.5t105 -55.5l62 70h34v-352h-51q-18 137 -88.5 204.5t-177.5 67.5q-79 0 -135.5 -39.5t-56.5 -107.5q0 -77 46 -113.5t134 -60.5l98 -27q133 -36 208 -106.5t75 -196.5zM379 -524l-19 37q125 81 125 147q0 22 -20 41t-43.5 31.5t-43.5 38t-20 59.5
q0 41 30 67.5t73 26.5q66 0 103.5 -50.5t37.5 -117.5q0 -94 -66.5 -169t-156.5 -111z" />
    <glyph glyph-name="Tcommaaccent" unicode="&#x21a;" horiz-adv-x="1456" 
d="M842 557l2 -393q0 -54 29.5 -76.5t101.5 -30.5l115 -10v-47h-715v47l108 10q76 8 107 30.5t31 76.5q0 27 1 161.5t1 231.5v467q0 124 -1 297t-1 174h-230q-172 0 -248 -68.5t-92 -218.5h-49l21 375h1433l-6 -375h-47q-8 77 -24.5 127t-52.5 88t-96 55t-151 17h-235
q0 -7 -1 -188.5t-1 -282.5v-467zM645 -524l-18 37q125 81 125 147q0 22 -20 41t-43.5 31.5t-43.5 38t-20 59.5q0 41 29.5 67.5t72.5 26.5q66 0 103.5 -50.5t37.5 -117.5q0 -94 -66.5 -169t-156.5 -111z" />
    <glyph glyph-name="tcommaaccent" unicode="&#x21b;" horiz-adv-x="743" 
d="M360 1245h41v-272h291v-76h-291v-301l2 -352q0 -168 136 -168q39 0 87 20t85 51l26 -28q-125 -148 -291 -148q-107 0 -175 60.5t-68 181.5v684l-158 12v64h170zM336 -524l-19 37q125 81 125 147q0 22 -20 41t-43.5 31.5t-43.5 38t-20 59.5q0 41 30 67.5t73 26.5
q66 0 103.5 -50.5t37.5 -117.5q0 -94 -66.5 -169t-156.5 -111z" />
    <glyph glyph-name="uni0232" unicode="&#x232;" horiz-adv-x="1513" 
d="M492 57q74 8 100 30t26 77q0 28 1.5 152t1.5 221v176l-424 719q-13 22 -23.5 35t-31.5 29.5t-56.5 26t-85.5 13.5v47h629v-47l-97 -8q-136 -12 -77 -117l348 -608l313 504q32 52 46.5 90.5t13.5 61.5t-17.5 38.5t-38.5 22t-57 10.5l-59 6v47h509v-47l-55 -6
q-63 -7 -109 -51t-120 -162l-389 -608v-172l2 -373q0 -55 25.5 -77t95.5 -30l114 -10v-47h-694v47zM449 1784v96h663v-96h-663z" />
    <glyph glyph-name="uni0233" unicode="&#x233;" horiz-adv-x="1132" 
d="M899 696l-405 -1005q-75 -185 -146 -250.5t-188 -65.5q-29 0 -65.5 8.5t-74 25.5t-63 48.5t-25.5 71.5q0 34 26.5 63t68.5 29q31 0 55.5 -16.5t41 -40t31 -47t33 -40t39.5 -16.5q35 0 76.5 52t66 102.5t44.5 101.5l96 242l-340 893q-17 45 -48.5 63t-98.5 19v47h526v-47
q-89 0 -130.5 -21.5t-25.5 -70.5l217 -643l197 512q26 65 31.5 109t-9.5 68.5t-42.5 34.5t-71.5 11v47h420v-47q-39 -5 -58 -9.5t-45 -18t-44 -38t-40.5 -66.5t-48.5 -106zM266 1296v97h664v-97h-664z" />
    <glyph glyph-name="dotlessj" unicode="&#x237;" horiz-adv-x="571" 
d="M209 631l-2 194q0 39 -13 58t-49 26l-112 23v47l377 29q-2 -199 -2 -377v-613q0 -88 -5.5 -148t-25 -132t-55.5 -128t-100 -116t-156 -115l-25 39q48 50 80.5 104.5t49.5 100.5t26 112.5t10.5 112.5t1.5 129v654z" />
    <glyph glyph-name="uni0259" unicode="&#x259;" horiz-adv-x="1083" 
d="M500 -27q-177 0 -296.5 115.5t-137.5 317.5h716q2 23 2 65q0 192 -94.5 317t-247.5 125q-216 0 -327 -200l-54 22q60 147 181.5 222t263.5 75q155 0 267 -70.5t166 -188.5t54 -271q0 -115 -39.5 -215t-106.5 -168t-157 -107t-190 -39zM500 39q105 0 184 84.5t92 220.5
h-508q3 -83 24.5 -145t56 -95.5t72 -49t79.5 -15.5z" />
    <glyph glyph-name="circumflex" unicode="&#x2c6;" horiz-adv-x="700" 
d="M27 1178l270 383h94l268 -381l-36 -29l-279 240l-281 -240z" />
    <glyph glyph-name="caron" unicode="&#x2c7;" horiz-adv-x="700" 
d="M662 1542l-271 -383h-94l-268 381l37 29l278 -248l281 248z" />
    <glyph glyph-name="breve" unicode="&#x2d8;" horiz-adv-x="944" 
d="M233 1493q13 -118 80.5 -183t157.5 -65q94 0 159.5 64.5t78.5 183.5h96q-8 -81 -36.5 -142.5t-64.5 -95.5t-82 -55.5t-81.5 -28t-69.5 -6.5t-69.5 6t-81.5 27t-82 55t-64.5 96t-36.5 144h96z" />
    <glyph glyph-name="dotaccent" unicode="&#x2d9;" horiz-adv-x="495" 
d="M254 1266q-59 0 -99 40.5t-40 100.5q0 59 40.5 99t98.5 40q60 0 100.5 -40t40.5 -99q0 -60 -40.5 -100.5t-100.5 -40.5z" />
    <glyph glyph-name="ring" unicode="&#x2da;" horiz-adv-x="622" 
d="M311 1546q87 0 148 -58t61 -142t-61 -142.5t-148 -58.5t-148 58.5t-61 142.5t61 142t148 58zM311 1221q60 0 91.5 34t31.5 91q0 58 -34.5 91t-88.5 33q-56 0 -88.5 -34t-32.5 -90t32.5 -90.5t88.5 -34.5z" />
    <glyph glyph-name="ogonek" unicode="&#x2db;" 
d="M817 -408l12 -30q-93 -60 -192 -60q-84 0 -140.5 42.5t-56.5 129.5q0 90 69.5 166.5t199.5 159.5h41q-72 -69 -116 -146.5t-44 -142.5q0 -69 40.5 -101t102.5 -32q37 0 84 14z" />
    <glyph glyph-name="tilde" unicode="&#x2dc;" horiz-adv-x="968" 
d="M311 1513q48 0 100 -24.5t90 -54t88 -54t95 -24.5q83 0 145 96l35 -18q-43 -123 -93.5 -175.5t-135.5 -52.5q-53 0 -106.5 24.5t-91 54.5t-85 54.5t-90.5 24.5q-83 0 -145 -96l-35 18q43 122 93.5 174.5t135.5 52.5z" />
    <glyph glyph-name="hungarumlaut" unicode="&#x2dd;" horiz-adv-x="804" 
d="M45 1165l158 418h229l-346 -418h-41zM367 1165l157 418h230l-346 -418h-41z" />
    <glyph glyph-name="pi" unicode="&#x3c0;" horiz-adv-x="1470" 
d="M143 877v96h1184v-96h-178v-877h-105v877h-618v-877h-104v877h-179z" />
    <glyph glyph-name="Wgrave" unicode="&#x1e80;" horiz-adv-x="2168" 
d="M1298 1528q-65 -6 -81.5 -34.5t0.5 -82.5q24 -121 73 -287l230 -782l282 965q20 69 23 113t-13 66.5t-37 31t-59 12.5l-61 6v47h514v-47l-53 -6q-72 -8 -116 -50.5t-81 -162.5l-418 -1346h-63l-357 1110l-338 -1110h-69l-357 1110q-83 268 -120 351q-20 44 -48 69t-77 29
l-72 6v47h608v-47l-76 -8q-65 -7 -81.5 -35t0.5 -82q42 -174 75 -287l232 -786l274 897l-69 197q-30 87 -125 98l-52 6v47h609v-47zM961 2111l157 -417h-41l-346 417h230z" />
    <glyph glyph-name="wgrave" unicode="&#x1e81;" horiz-adv-x="1701" 
d="M991 842l197 -617l205 533q27 65 19.5 103.5t-38 55t-88.5 17.5v47h416v-47q-37 -5 -57.5 -9t-44 -14t-38.5 -26t-31 -42.5t-32 -66.5l-323 -817h-72l-260 668l-289 -668h-68l-340 893q-17 45 -48.5 63t-98.5 19v47h526v-47q-89 0 -131 -21.5t-24 -70.5l217 -617l221 523
l-37 104q-15 44 -47.5 62.5t-99.5 19.5v47h526v-47q-90 0 -133 -21t-27 -71zM819 1583l158 -418h-41l-346 418h229z" />
    <glyph glyph-name="Wacute" unicode="&#x1e82;" horiz-adv-x="2168" 
d="M1298 1528q-65 -6 -81.5 -34.5t0.5 -82.5q24 -121 73 -287l230 -782l282 965q20 69 23 113t-13 66.5t-37 31t-59 12.5l-61 6v47h514v-47l-53 -6q-72 -8 -116 -50.5t-81 -162.5l-418 -1346h-63l-357 1110l-338 -1110h-69l-357 1110q-83 268 -120 351q-20 44 -48 69t-77 29
l-72 6v47h608v-47l-76 -8q-65 -7 -81.5 -35t0.5 -82q42 -174 75 -287l232 -786l274 897l-69 197q-30 87 -125 98l-52 6v47h609v-47zM973 1694l157 417h230l-346 -417h-41z" />
    <glyph glyph-name="wacute" unicode="&#x1e83;" horiz-adv-x="1701" 
d="M991 842l197 -617l205 533q27 65 19.5 103.5t-38 55t-88.5 17.5v47h416v-47q-37 -5 -57.5 -9t-44 -14t-38.5 -26t-31 -42.5t-32 -66.5l-323 -817h-72l-260 668l-289 -668h-68l-340 893q-17 45 -48.5 63t-98.5 19v47h526v-47q-89 0 -131 -21.5t-24 -70.5l217 -617l221 523
l-37 104q-15 44 -47.5 62.5t-99.5 19.5v47h526v-47q-90 0 -133 -21t-27 -71zM748 1165l157 418h230l-347 -418h-40z" />
    <glyph glyph-name="Wdieresis" unicode="&#x1e84;" horiz-adv-x="2168" 
d="M1298 1528q-65 -6 -81.5 -34.5t0.5 -82.5q24 -121 73 -287l230 -782l282 965q20 69 23 113t-13 66.5t-37 31t-59 12.5l-61 6v47h514v-47l-53 -6q-72 -8 -116 -50.5t-81 -162.5l-418 -1346h-63l-357 1110l-338 -1110h-69l-357 1110q-83 268 -120 351q-20 44 -48 69t-77 29
l-72 6v47h608v-47l-76 -8q-65 -7 -81.5 -35t0.5 -82q42 -174 75 -287l232 -786l274 897l-69 197q-30 87 -125 98l-52 6v47h609v-47zM811 1722q-59 0 -99 41t-40 101q0 58 40 98.5t99 40.5q60 0 100.5 -40t40.5 -99q0 -60 -40.5 -101t-100.5 -41zM1350 1722q-59 0 -99.5 41
t-40.5 101q0 58 40.5 98.5t99.5 40.5q60 0 100.5 -40t40.5 -99q0 -60 -40.5 -101t-100.5 -41z" />
    <glyph glyph-name="wdieresis" unicode="&#x1e85;" horiz-adv-x="1701" 
d="M991 842l197 -617l205 533q27 65 19.5 103.5t-38 55t-88.5 17.5v47h416v-47q-37 -5 -57.5 -9t-44 -14t-38.5 -26t-31 -42.5t-32 -66.5l-323 -817h-72l-260 668l-289 -668h-68l-340 893q-17 45 -48.5 63t-98.5 19v47h526v-47q-89 0 -131 -21.5t-24 -70.5l217 -617l221 523
l-37 104q-15 44 -47.5 62.5t-99.5 19.5v47h526v-47q-90 0 -133 -21t-27 -71zM633 1235q-59 0 -99 40.5t-40 100.5q0 59 40.5 99.5t98.5 40.5q60 0 100.5 -40.5t40.5 -99.5q0 -60 -40.5 -100.5t-100.5 -40.5zM1069 1235q-59 0 -99 40.5t-40 100.5q0 59 40.5 99.5t98.5 40.5
q60 0 100.5 -40.5t40.5 -99.5q0 -60 -40.5 -100.5t-100.5 -40.5z" />
    <glyph glyph-name="uni1ECA" unicode="&#x1eca;" horiz-adv-x="878" 
d="M549 1044v-487l2 -393q0 -52 25 -73.5t77 -29.5l103 -14v-47h-633v47l102 14q53 8 78 29.5t25 73.5q0 16 1 155t1 238v487l-2 375q0 52 -25 73.5t-78 29.5l-102 14v47h633v-47l-103 -14q-52 -8 -77 -29.5t-25 -73.5q-2 -189 -2 -375zM432 -438q-50 0 -85.5 35.5
t-35.5 87.5q0 49 35.5 84.5t85.5 35.5q52 0 87.5 -35t35.5 -85q0 -53 -35.5 -88t-87.5 -35z" />
    <glyph glyph-name="uni1ECB" unicode="&#x1ecb;" horiz-adv-x="667" 
d="M244 473v358q0 39 -13 58t-49 26l-112 23v47l372 29v-541l4 -336q2 -39 14.5 -54t59.5 -22l94 -14v-47h-544v47l86 14q50 8 66 25t18 49q4 215 4 338zM334 1276q-59 0 -99 40.5t-40 100.5q0 59 40.5 99t98.5 40q60 0 100.5 -40t40.5 -99q0 -60 -40.5 -100.5t-100.5 -40.5
zM334 -438q-50 0 -85.5 35.5t-35.5 87.5q0 49 35.5 84.5t85.5 35.5q52 0 87.5 -35t35.5 -85q0 -53 -35.5 -88t-87.5 -35z" />
    <glyph glyph-name="uni1ECC" unicode="&#x1ecc;" horiz-adv-x="1810" 
d="M905 1524q-93 0 -175 -24.5t-155.5 -80.5t-126.5 -140t-83.5 -210t-30.5 -283t31 -282t83.5 -207.5t126 -137.5t155.5 -78.5t175 -23.5t175 23.5t156 78.5t126.5 137.5t83.5 207.5t31 282q0 195 -46.5 341.5t-127.5 231t-180.5 125t-217.5 40.5zM905 -29
q-170 0 -320.5 60t-260.5 166t-174 260.5t-64 335.5q0 240 110 428t296 288.5t413 100.5q135 0 259.5 -38.5t225.5 -112t176.5 -174t116.5 -230.5t41 -275q0 -181 -64 -333.5t-174 -256t-260 -161.5t-321 -58zM893 -438q-50 0 -85.5 35.5t-35.5 87.5q0 49 35.5 84.5
t85.5 35.5q52 0 87.5 -35t35.5 -85q0 -53 -35 -88t-88 -35z" />
    <glyph glyph-name="uni1ECD" unicode="&#x1ecd;" horiz-adv-x="1239" 
d="M612 -29q-159 0 -280 78t-181.5 201t-60.5 268q0 110 44 206.5t117 163t169 104.5t198 38q157 0 279.5 -74.5t187 -198t64.5 -272.5q0 -217 -152.5 -365.5t-384.5 -148.5zM610 53q142 0 229 118.5t87 324.5q0 198 -83.5 325t-219.5 127q-140 0 -224 -120t-84 -326
q0 -122 35.5 -224t103.5 -163.5t156 -61.5zM612 -438q-50 0 -85 35.5t-35 87.5q0 49 35 84.5t85 35.5q52 0 87.5 -35t35.5 -85q0 -53 -35.5 -88t-87.5 -35z" />
    <glyph glyph-name="uni1EE4" unicode="&#x1ee4;" horiz-adv-x="1792" 
d="M272 1024l-2 395q0 52 -25 73.5t-77 29.5l-102 14v47h632v-47l-102 -14q-52 -8 -77 -29.5t-25 -73.5q-2 -209 -2 -395v-350q0 -136 23 -239.5t74 -183t139 -120.5t212 -41q469 0 469 578v336l-4 296q-1 44 -4 71.5t-15.5 62t-35.5 54.5t-66 34t-104 14v47h563v-47
q-60 0 -102.5 -13t-65.5 -32.5t-36 -53.5t-16.5 -63t-4.5 -74q-5 -158 -5 -299v-342q0 -336 -154 -512t-458 -176q-318 0 -473.5 173.5t-155.5 519.5v360zM918 -438q-50 0 -85.5 35.5t-35.5 87.5q0 49 35.5 84.5t85.5 35.5q52 0 87 -35t35 -85q0 -53 -35 -88t-87 -35z" />
    <glyph glyph-name="uni1EE5" unicode="&#x1ee5;" horiz-adv-x="1241" 
d="M862 0l-10 233q-105 -262 -342 -262q-76 0 -133.5 24t-91.5 63t-55 95.5t-28 113t-7 124.5v424q0 39 -13 58t-49 26l-110 23v47l366 20v-575q0 -58 5 -103.5t18.5 -87.5t35.5 -69.5t58.5 -43.5t85.5 -16q79 0 149 54t105 174v493q0 39 -14 58t-50 26l-110 23v47l370 22
v-856q0 -36 15.5 -50.5t68.5 -23.5l86 -14v-47h-350zM592 -438q-50 0 -85.5 35.5t-35.5 87.5q0 49 35.5 84.5t85.5 35.5q52 0 87.5 -35t35.5 -85q0 -53 -35.5 -88t-87.5 -35z" />
    <glyph glyph-name="Ygrave" unicode="&#x1ef2;" horiz-adv-x="1513" 
d="M492 57q74 8 100 30t26 77q0 28 1.5 152t1.5 221v176l-424 719q-13 22 -23.5 35t-31.5 29.5t-56.5 26t-85.5 13.5v47h629v-47l-97 -8q-136 -12 -77 -117l348 -608l313 504q32 52 46.5 90.5t13.5 61.5t-17.5 38.5t-38.5 22t-57 10.5l-59 6v47h509v-47l-55 -6
q-63 -7 -109 -51t-120 -162l-389 -608v-172l2 -373q0 -55 25.5 -77t95.5 -30l114 -10v-47h-694v47zM698 2111l158 -417h-41l-346 417h229z" />
    <glyph glyph-name="ygrave" unicode="&#x1ef3;" horiz-adv-x="1132" 
d="M899 696l-405 -1005q-75 -185 -146 -250.5t-188 -65.5q-29 0 -65.5 8.5t-74 25.5t-63 48.5t-25.5 71.5q0 34 26.5 63t68.5 29q31 0 55.5 -16.5t41 -40t31 -47t33 -40t39.5 -16.5q35 0 76.5 52t66 102.5t44.5 101.5l96 242l-340 893q-17 45 -48.5 63t-98.5 19v47h526v-47
q-89 0 -130.5 -21.5t-25.5 -70.5l217 -643l197 512q26 65 31.5 109t-9.5 68.5t-42.5 34.5t-71.5 11v47h420v-47q-39 -5 -58 -9.5t-45 -18t-44 -38t-40.5 -66.5t-48.5 -106zM537 1583l157 -418h-41l-346 418h230z" />
    <glyph glyph-name="endash" unicode="&#x2013;" horiz-adv-x="1052" 
d="M102 471v96h848v-96h-848z" />
    <glyph glyph-name="emdash" unicode="&#x2014;" horiz-adv-x="1558" 
d="M102 469v98h1354v-98h-1354z" />
    <glyph glyph-name="quoteleft" unicode="&#x2018;" horiz-adv-x="358" 
d="M299 1622l23 -45q-61 -36 -106.5 -83.5t-45.5 -96.5q0 -24 16 -43.5t39 -34t46 -30.5t39 -42t16 -59q0 -50 -37 -83.5t-90 -33.5q-82 0 -128 62.5t-46 146.5q0 114 81.5 204.5t192.5 137.5z" />
    <glyph glyph-name="quoteright" unicode="&#x2019;" horiz-adv-x="350" 
d="M53 1073l-22 45q61 36 106 83.5t45 96.5q0 24 -16 43.5t-38.5 34t-45.5 30.5t-39 42t-16 59q0 50 37 83.5t90 33.5q82 0 128 -62.5t46 -146.5q0 -59 -24 -114.5t-64.5 -98t-87.5 -75t-99 -54.5z" />
    <glyph glyph-name="quotesinglbase" unicode="&#x201a;" horiz-adv-x="526" 
d="M150 -266l-23 45q61 36 106.5 83.5t45.5 96.5q0 24 -16 43.5t-39 34t-46 30.5t-39 42t-16 59q0 50 37 83.5t90 33.5q82 0 128 -62.5t46 -146.5q0 -114 -81.5 -204.5t-192.5 -137.5z" />
    <glyph glyph-name="quotedblleft" unicode="&#x201c;" horiz-adv-x="794" 
d="M672 1622l22 -45q-61 -36 -106 -83.5t-45 -96.5q0 -24 16 -43.5t38.5 -34t45.5 -30.5t39 -42t16 -59q0 -50 -37 -83.5t-90 -33.5q-82 0 -128 62.5t-46 146.5q0 59 24 114.5t64.5 98t87.5 75t99 54.5zM299 1622l23 -45q-61 -36 -106.5 -83.5t-45.5 -96.5q0 -24 16 -43.5
t39 -34t46 -30.5t39 -42t16 -59q0 -50 -37 -83.5t-90 -33.5q-82 0 -128 62.5t-46 146.5q0 114 81.5 204.5t192.5 137.5z" />
    <glyph glyph-name="quotedblright" unicode="&#x201d;" horiz-adv-x="792" 
d="M422 1069l-23 45q61 36 106.5 83.5t45.5 96.5q0 24 -16 43.5t-39 34t-46 30.5t-39 42t-16 59q0 50 37 83.5t90 33.5q82 0 128 -62.5t46 -146.5q0 -114 -81.5 -204.5t-192.5 -137.5zM49 1069l-22 45q61 36 106 83.5t45 96.5q0 24 -16 43.5t-38.5 34t-45.5 30.5t-39 42
t-16 59q0 50 37 83.5t90 33.5q82 0 128 -62.5t46 -146.5q0 -59 -24 -114.5t-64.5 -98t-87.5 -75t-99 -54.5z" />
    <glyph glyph-name="quotedblbase" unicode="&#x201e;" horiz-adv-x="921" 
d="M522 -266l-22 45q61 36 106 83.5t45 96.5q0 24 -16 43.5t-38.5 34t-45.5 30.5t-39 42t-16 59q0 50 37 83.5t90 33.5q82 0 128 -62.5t46 -146.5q0 -59 -24 -114.5t-64.5 -98t-87.5 -75t-99 -54.5zM150 -266l-23 45q61 36 106.5 83.5t45.5 96.5q0 24 -16 43.5t-39 34
t-46 30.5t-39 42t-16 59q0 50 37 83.5t90 33.5q82 0 128 -62.5t46 -146.5q0 -114 -81.5 -204.5t-192.5 -137.5z" />
    <glyph glyph-name="dagger" unicode="&#x2020;" horiz-adv-x="1357" 
d="M625 1579h104v-606h557v-96h-557v-1133h-104v1133h-557v96h557v606z" />
    <glyph glyph-name="daggerdbl" unicode="&#x2021;" horiz-adv-x="1357" 
d="M625 1579h104v-545h557v-96h-557v-565h557v-97h-557v-532h-104v532h-557v97h557v565h-557v96h557v545z" />
    <glyph glyph-name="bullet" unicode="&#x2022;" horiz-adv-x="872" 
d="M430 190q-136 0 -232 98t-96 242q0 135 96.5 231.5t231.5 96.5q144 0 242 -96t98 -232q0 -145 -97.5 -242.5t-242.5 -97.5z" />
    <glyph glyph-name="ellipsis" unicode="&#x2026;" horiz-adv-x="1480" 
d="M1198 -29q-63 0 -108.5 46.5t-45.5 113.5q0 63 45.5 108.5t108.5 45.5q67 0 113.5 -45.5t46.5 -108.5q0 -67 -46 -113.5t-114 -46.5zM737 -29q-63 0 -108 46.5t-45 113.5q0 63 45 108.5t108 45.5q67 0 113.5 -45.5t46.5 -108.5q0 -67 -46.5 -113.5t-113.5 -46.5zM276 -29
q-63 0 -108 46.5t-45 113.5q0 63 45 108.5t108 45.5q67 0 113.5 -45.5t46.5 -108.5q0 -67 -46 -113.5t-114 -46.5z" />
    <glyph glyph-name="perthousand" unicode="&#x2030;" horiz-adv-x="2682" 
d="M2478 342q0 121 -75 203t-191 82t-191 -82t-75 -203q0 -117 71.5 -200t194.5 -83t194.5 83t71.5 200zM1843 342q0 159 101 265t268 106q166 0 267 -106t101 -265q0 -157 -105 -264t-263 -107q-159 0 -264 107t-105 264zM1538 1618l-1075 -1618h-111l1071 1618h115z
M739 1161q0 121 -75 203t-191 82t-191 -82t-75 -203q0 -117 71.5 -199.5t194.5 -82.5t194.5 82.5t71.5 199.5zM104 1161q0 159 101 265t268 106t268 -106t101 -265q0 -156 -105 -263t-264 -107t-264 107t-105 263zM1642 342q0 121 -75 203t-191 82t-191 -82t-75 -203
q0 -117 71.5 -200t194.5 -83t194.5 83t71.5 200zM1008 342q0 159 101 265t267 106q167 0 268 -106t101 -265q0 -157 -105 -264t-264 -107q-158 0 -263 107t-105 264z" />
    <glyph glyph-name="guilsinglleft" unicode="&#x2039;" horiz-adv-x="563" 
d="M432 70l-387 434l387 428h60l-246 -430l246 -432h-60z" />
    <glyph glyph-name="guilsinglright" unicode="&#x203a;" horiz-adv-x="563" 
d="M522 502l-389 -432h-59l245 432l-245 430h59z" />
    <glyph glyph-name="fraction" unicode="&#x2044;" horiz-adv-x="1187" 
d="M1188 1618l-1075 -1618h-111l1071 1618h115z" />
    <glyph glyph-name="Euro" unicode="&#x20ac;" horiz-adv-x="1603" 
d="M20 907l21 97h195q57 279 252.5 447.5t461.5 168.5q133 0 240 -23t252 -84l33 -307h-48q-42 99 -96.5 166t-118.5 100t-124.5 45.5t-135.5 12.5q-92 0 -171.5 -31t-146 -93t-113 -164.5t-66.5 -237.5h618l-20 -97h-609q-4 -78 -4 -121q0 -71 6 -133h627l-20 -96h-592
q49 -243 189 -369.5t321 -126.5q58 0 107.5 8t106 31.5t102.5 62.5t89.5 105.5t75.5 155.5h49l-49 -307q-86 -71 -219 -108.5t-262 -37.5q-148 0 -273 44.5t-215 124t-151.5 185t-91.5 232.5h-220l21 96h182q-8 60 -8 140q0 59 6 114h-201z" />
    <glyph glyph-name="trademark" unicode="&#x2122;" horiz-adv-x="2285" 
d="M612 1010l2 -205q0 -30 17.5 -45.5t56.5 -20.5l64 -6v-37h-449v37l68 6q41 5 59.5 20t18.5 46q0 16 1 83.5t1 121.5v239q0 70 -1 172t-1 103h-130q-92 0 -130 -41.5t-48 -128.5h-39l13 229h841l-2 -229h-39q-10 91 -42.5 130.5t-127.5 39.5h-131q0 -4 -1 -111t-1 -164
v-239zM2120 741l63 -8v-37h-397v37l57 8q61 10 58 68q-5 74 -9 195l-28 450l-291 -768h-21l-321 789l-23 -484l-8 -170q-2 -39 10 -56.5t47 -23.5l64 -8v-37h-328v37l64 8q35 6 50.5 24.5t18.5 55.5q13 113 15 172l22 492q3 60 -55 67l-68 4v27h330l244 -620l231 620h301
v-27l-67 -4q-59 -7 -56 -71l25 -475l14 -197q3 -59 58 -68z" />
    <glyph glyph-name="Omega" unicode="&#x2126;" horiz-adv-x="1826" 
d="M1102 0v94q77 25 148 64.5t139.5 101.5t118.5 138t81 180t31 221q0 126 -30.5 235.5t-83.5 188.5t-122 140.5t-149 99t-161 56.5t-161 19q-97 0 -195 -26.5t-191 -84.5t-165 -140.5t-115.5 -205t-43.5 -268.5q0 -120 30.5 -226t81 -183t119.5 -139.5t140.5 -102.5
t150.5 -66v-96h-664v96h484q-192 92 -317.5 286t-125.5 423q0 241 107.5 430.5t292 292t411.5 102.5q170 0 319.5 -62t257.5 -171.5t171 -266t63 -337.5q0 -227 -123.5 -416.5t-314.5 -280.5h483v-96h-667z" />
    <glyph glyph-name="partialdiff" unicode="&#x2202;" horiz-adv-x="1161" 
d="M82 500q0 120 40.5 221.5t107.5 168t152.5 103.5t176.5 37q155 0 266.5 -92t159.5 -283q-15 164 -80 311t-172 261q-173 182 -432 264l35 94q209 -64 362 -189.5t248 -289.5q133 -232 133 -516q0 -96 -19 -185t-59.5 -168.5t-99.5 -138t-144.5 -93t-187.5 -34.5
q-113 0 -206.5 44t-154 118.5t-93.5 169t-33 197.5zM961 481q0 84 -25.5 163t-73 143.5t-124 103.5t-171.5 39q-73 0 -139 -29t-117 -82t-81.5 -135t-30.5 -180t30.5 -181t82 -137t118 -84t139.5 -30q96 0 172.5 34t123.5 92t71.5 130.5t24.5 152.5z" />
    <glyph glyph-name="Delta" unicode="&#x2206;" horiz-adv-x="1236" 
d="M616 1204l621 -1204h-1237zM618 995l-460 -899h921z" />
    <glyph glyph-name="product" unicode="&#x220f;" horiz-adv-x="1736" 
d="M143 1487v96h1450v-96h-178v-1667h178v-96h-460v96h178v1667h-885v-1667h178v-96h-461v96h179v1667h-179z" />
    <glyph glyph-name="summation" unicode="&#x2211;" horiz-adv-x="1441" 
d="M596 793l-541 790h1223v-471h-104v375h-920l469 -694l-504 -697h975v375h104v-471h-1278z" />
    <glyph glyph-name="minus" unicode="&#x2212;" horiz-adv-x="1134" 
d="M102 471v96h930v-96h-930z" />
    <glyph glyph-name="radical" unicode="&#x221a;" horiz-adv-x="1415" 
d="M41 715v96h330l241 -645l504 1642h504v-96h-424l-582 -1827l-319 830h-254z" />
    <glyph glyph-name="infinity" unicode="&#x221e;" horiz-adv-x="1611" 
d="M809 559q86 110 174 160.5t197 50.5q146 0 237.5 -82.5t91.5 -212.5q0 -132 -89 -214.5t-236 -82.5q-202 0 -375 223q-181 -221 -381 -221q-147 0 -236.5 82.5t-89.5 212.5t91.5 212.5t238.5 82.5q105 0 191.5 -48t185.5 -163zM745 475q-77 99 -147 149t-156 50
q-106 0 -167.5 -53t-61.5 -146q0 -86 60 -142.5t163 -56.5q85 0 158.5 47.5t150.5 151.5zM1399 475q0 87 -62 143t-172 56q-79 0 -146.5 -45t-146.5 -148q76 -103 150 -154t162 -51q95 0 155 55.5t60 143.5z" />
    <glyph glyph-name="integral" unicode="&#x222b;" horiz-adv-x="546" 
d="M225 -379v1751q0 45 5 78.5t21 67t44 54t76 33.5t114 13h21v-94q-106 0 -145 -30t-39 -122v-1751q0 -45 -5 -78.5t-21.5 -67t-44.5 -54t-76 -33.5t-114 -13h-20v95q107 0 145.5 29.5t38.5 121.5z" />
    <glyph glyph-name="approxequal" unicode="&#x2248;" horiz-adv-x="1349" 
d="M98 240q38 115 111 172t166 57q57 0 123 -21t126 -50.5t119.5 -59.5t120 -51t109.5 -21q63 0 109.5 37.5t84.5 128.5l84 -35q-38 -114 -110.5 -170.5t-165.5 -56.5q-71 0 -158.5 31.5t-155.5 69t-147 69t-137 31.5q-63 0 -110.5 -38.5t-84.5 -129.5zM98 608
q38 115 111 172.5t166 57.5q57 0 123 -21t126 -51t119.5 -59.5t120 -50.5t109.5 -21q63 0 109.5 37.5t84.5 128.5l84 -35q-38 -114 -110.5 -170.5t-165.5 -56.5q-71 0 -158.5 31.5t-155.5 68.5t-147 68.5t-137 31.5q-63 0 -110.5 -38.5t-84.5 -129.5z" />
    <glyph glyph-name="notequal" unicode="&#x2260;" horiz-adv-x="1134" 
d="M102 655v97h506l101 252h102l-100 -252h321v-97h-360l-109 -272h469v-96h-508l-114 -287h-103l115 287h-320v96h359l108 272h-467z" />
    <glyph glyph-name="lessequal" unicode="&#x2264;" horiz-adv-x="1239" 
d="M102 573v97l1035 360v-110l-914 -297l914 -330v-115zM125 0v98h1012v-98h-1012z" />
    <glyph glyph-name="greaterequal" unicode="&#x2265;" horiz-adv-x="1241" 
d="M1139 670v-97l-1035 -395v115l914 330l-914 297v110zM1116 98v-98h-1012v98h1012z" />
    <glyph glyph-name="lozenge" unicode="&#x25ca;" horiz-adv-x="1153" 
d="M569 -102l-508 870l508 889l523 -889zM977 768l-408 694l-393 -694l393 -682z" />
    <glyph glyph-name="fi" unicode="&#xfb01;" horiz-adv-x="1345" 
d="M444 514l5 -377q2 -40 14 -54.5t59 -21.5l94 -14v-47h-544v47l86 14q50 8 66 25t18 49q4 234 4 379v383l-166 16v60h166v114q0 127 33 227t83 159.5t116.5 98t127 52.5t121.5 14q64 0 125.5 -12t114.5 -34.5t85.5 -60t32.5 -83.5q0 -56 -30.5 -83.5t-77.5 -27.5
q-46 0 -74 25t-41.5 60.5t-27.5 71t-42.5 60.5t-74.5 25q-128 0 -200.5 -113.5t-72.5 -337.5v-155h242v-76h-242v-383zM1120 391l4 -254q2 -39 14.5 -54t59.5 -22l94 -14v-47h-544v47l86 14q50 8 66 25t18 49q4 111 4 256v240l-2 200q-2 32 -14.5 48t-47.5 22l-104 17v55
l368 33l-2 -375v-240z" />
    <glyph glyph-name="fl" unicode="&#xfb02;" horiz-adv-x="1320" 
d="M1124 514l4 -377q2 -39 14.5 -54t59.5 -22l94 -14v-47h-544v47l86 14q50 8 66 25t18 49q4 234 4 379v879q-40 1 -69 19t-47.5 44t-37 51.5t-49 43.5t-72.5 18q-61 0 -103 -35.5t-63.5 -101t-30 -138t-8.5 -166.5v-155h332v-76h-332v-383l3 -377q2 -40 14 -54.5t59 -21.5
l94 -14v-47h-544v47l86 14q50 8 66 25t18 49q6 234 6 379v383l-156 16v60h156v114q0 254 118.5 402.5t319.5 148.5q148 0 254 -34l186 18q0 -51 -1 -232t-1 -264v-612z" />
    <glyph glyph-name="uniFB06" unicode="&#xfb06;" horiz-adv-x="1626" 
d="M133 741q0 134 101 210.5t245 76.5q152 0 279 -84q-105 122 -151 210t-46 185q0 127 93.5 213t269.5 86q356 0 356 -338v-327h291v-76h-291v-301l2 -352q0 -168 135 -168q39 0 87 20t85 51l27 -28q-125 -148 -291 -148q-107 0 -175.5 60.5t-68.5 181.5v684l-137 21v55
h137v295q0 87 -15.5 146t-44.5 88.5t-62 41.5t-78 12q-111 0 -172.5 -66t-61.5 -181q0 -91 46 -189t116 -172v-260h-51q-14 136 -85.5 201t-180.5 65q-77 0 -135 -43t-58 -112q0 -41 13.5 -70.5t41 -48.5t55 -30t70.5 -23l99 -27q282 -76 282 -309q0 -150 -104 -235
t-264 -85q-66 0 -141 22.5t-128 78.5l-57 -99h-39v371h55q25 -148 103.5 -217.5t185.5 -69.5q92 0 152.5 40t60.5 130q0 149 -205 203l-102 27q-125 33 -184.5 111.5t-59.5 172.5z" />
    <glyph glyph-name="A.sc" horiz-adv-x="1159" 
d="M776 145l-67 185h-377l-51 -148q-10 -28 -12.5 -49t4 -34t13.5 -22t24.5 -13.5t28 -6.5t33 -4.5l31.5 -3.5v-49h-403v51q89 6 130.5 37t74.5 123l334 934h59l406 -1006q13 -32 34 -51t37 -23.5t44.5 -8.5t39.5 -7v-49h-502v49q71 6 100.5 17t30 30.5t-11.5 48.5zM516 856
l-147 -422h301z" />
    <glyph glyph-name="Aacute.sc" horiz-adv-x="1159" 
d="M776 145l-67 185h-377l-51 -148q-10 -28 -12.5 -49t4 -34t13.5 -22t24.5 -13.5t28 -6.5t33 -4.5l31.5 -3.5v-49h-403v51q89 6 130.5 37t74.5 123l334 934h59l406 -1006q13 -32 34 -51t37 -23.5t44.5 -8.5t39.5 -7v-49h-502v49q71 6 100.5 17t30 30.5t-11.5 48.5zM516 856
l-147 -422h301zM426 1165l158 418h229l-346 -418h-41z" />
    <glyph glyph-name="Acircumflex.sc" horiz-adv-x="1159" 
d="M776 145l-67 185h-377l-51 -148q-10 -28 -12.5 -49t4 -34t13.5 -22t24.5 -13.5t28 -6.5t33 -4.5l31.5 -3.5v-49h-403v51q89 6 130.5 37t74.5 123l334 934h59l406 -1006q13 -32 34 -51t37 -23.5t44.5 -8.5t39.5 -7v-49h-502v49q71 6 100.5 17t30 30.5t-11.5 48.5zM516 856
l-147 -422h301zM260 1178l270 383h95l268 -381l-37 -29l-278 240l-281 -240z" />
    <glyph glyph-name="Adieresis.sc" horiz-adv-x="1159" 
d="M776 145l-67 185h-377l-51 -148q-10 -28 -12.5 -49t4 -34t13.5 -22t24.5 -13.5t28 -6.5t33 -4.5l31.5 -3.5v-49h-403v51q89 6 130.5 37t74.5 123l334 934h59l406 -1006q13 -32 34 -51t37 -23.5t44.5 -8.5t39.5 -7v-49h-502v49q71 6 100.5 17t30 30.5t-11.5 48.5zM516 856
l-147 -422h301zM360 1235q-59 0 -99 40.5t-40 100.5q0 59 40.5 99.5t98.5 40.5q60 0 101 -40.5t41 -99.5q0 -60 -41 -100.5t-101 -40.5zM797 1235q-59 0 -99.5 40.5t-40.5 100.5q0 58 40.5 99t99.5 41q60 0 100.5 -40.5t40.5 -99.5q0 -60 -40.5 -100.5t-100.5 -40.5z" />
    <glyph glyph-name="Agrave.sc" horiz-adv-x="1159" 
d="M776 145l-67 185h-377l-51 -148q-10 -28 -12.5 -49t4 -34t13.5 -22t24.5 -13.5t28 -6.5t33 -4.5l31.5 -3.5v-49h-403v51q89 6 130.5 37t74.5 123l334 934h59l406 -1006q13 -32 34 -51t37 -23.5t44.5 -8.5t39.5 -7v-49h-502v49q71 6 100.5 17t30 30.5t-11.5 48.5zM516 856
l-147 -422h301zM573 1583l158 -418h-41l-346 418h229z" />
    <glyph glyph-name="Aring.sc" horiz-adv-x="1159" 
d="M569 1546q87 0 148 -58t61 -142q0 -83 -58 -140.5t-142 -60.5h20l406 -1006q13 -32 34 -51t37 -23.5t44.5 -8.5t39.5 -7v-49h-502v49q71 6 100.5 17t30 30.5t-11.5 48.5l-67 185h-377l-51 -148q-10 -28 -12.5 -49t4 -34t13.5 -22t24.5 -13.5t28 -6.5t33 -4.5l31.5 -3.5
v-49h-403v51q89 6 130.5 37t74.5 123l334 934h22q-84 3 -142.5 60.5t-58.5 140.5q0 84 61 142t148 58zM516 856l-147 -422h301zM569 1221q60 0 91.5 34t31.5 91q0 58 -34.5 91t-88.5 33q-56 0 -88 -34t-32 -90t32 -90.5t88 -34.5z" />
    <glyph glyph-name="Atilde.sc" horiz-adv-x="1159" 
d="M776 145l-67 185h-377l-51 -148q-10 -28 -12.5 -49t4 -34t13.5 -22t24.5 -13.5t28 -6.5t33 -4.5l31.5 -3.5v-49h-403v51q89 6 130.5 37t74.5 123l334 934h59l406 -1006q13 -32 34 -51t37 -23.5t44.5 -8.5t39.5 -7v-49h-502v49q71 6 100.5 17t30 30.5t-11.5 48.5zM516 856
l-147 -422h301zM418 1513q48 0 100 -24.5t90 -54t88 -54t95 -24.5q83 0 145 96l35 -18q-43 -122 -94 -175t-136 -53q-44 0 -86.5 16.5t-76.5 39.5t-67 46t-70 39.5t-72 16.5q-84 0 -146 -96l-35 18q43 122 94 174.5t136 52.5z" />
    <glyph glyph-name="B.sc" horiz-adv-x="1171" 
d="M477 539v-168l2 -232q0 -78 158 -78q107 0 169 59.5t62 178.5q0 110 -66 175t-188 65h-137zM477 1028v-438h92q240 0 240 219q0 105 -60 164t-163 59q-84 0 -109 -4zM276 381v332l-4 243q0 31 -17 48.5t-67 25.5l-86 14v48q140 0 314.5 2t234.5 2q165 0 268 -62.5
t103 -187.5q0 -93 -68.5 -167.5t-162.5 -92.5q131 -4 215 -84t84 -191q0 -147 -100 -229t-302 -82h-586v47l86 14q50 8 67 25.5t17 48.5q4 101 4 246z" />
    <glyph glyph-name="C.sc" horiz-adv-x="1216" 
d="M1176 358l-37 -268q-61 -55 -190.5 -87t-250.5 -32q-113 0 -209.5 30.5t-167 84t-120.5 125.5t-74.5 156.5t-24.5 175.5q0 167 78.5 300t217 207t311.5 74q76 0 155.5 -12t132 -25.5t140.5 -39.5l20 -271h-39q-54 137 -162.5 204t-234.5 67q-77 0 -145.5 -31t-124 -91.5
t-88.5 -159.5t-33 -224q0 -118 34.5 -214t91 -154.5t124 -90t137.5 -31.5q65 0 125 16t117.5 50.5t103.5 96t72 144.5h41z" />
    <glyph glyph-name="Ccedilla.sc" horiz-adv-x="1216" 
d="M1176 358l-37 -268q-56 -52 -173 -83t-237 -36l-108 -143q61 47 127 47q67 0 110 -39t43 -108q0 -55 -36.5 -101t-94 -75t-121 -46t-125.5 -22l-8 43q122 16 190 73.5t68 123.5q0 37 -22 63.5t-72 26.5q-42 0 -84 -29l-49 39l108 149q-131 7 -237 55.5t-174.5 126.5
t-105 177.5t-36.5 210.5q0 167 78.5 300t217 207t311.5 74q76 0 155.5 -12t132 -25.5t140.5 -39.5l20 -271h-39q-54 137 -162.5 204t-234.5 67q-77 0 -145.5 -31t-124 -91.5t-88.5 -159.5t-33 -224q0 -118 34.5 -214t91 -154.5t124 -90t137.5 -31.5q65 0 125 16t117.5 50.5
t103.5 96t72 144.5h41z" />
    <glyph glyph-name="D.sc" horiz-adv-x="1376" 
d="M479 1018v-641l2 -197q0 -36 13.5 -58.5t44 -33t62 -13.5t85.5 -3q57 0 108 14.5t99 49.5t82 89.5t55 140.5t21 195q0 111 -25 194t-65 133t-99 81t-118.5 42t-131.5 11q-92 0 -133 -4zM102 1044v48q93 0 278.5 2t256.5 2q306 0 471.5 -139t165.5 -398
q0 -256 -162.5 -407.5t-449.5 -151.5h-560v47l86 14q50 8 67 25.5t17 48.5q4 101 4 246v332l-4 243q0 31 -17 48.5t-67 25.5z" />
    <glyph glyph-name="E.sc" horiz-adv-x="1153" 
d="M102 1092h897v-273h-41q-9 95 -75 147t-172 52h-232v-410h162q140 0 156 168h39v-414h-41q-17 173 -154 173h-162v-189l2 -162q0 -62 25.5 -87t97.5 -25h182q105 0 159.5 62t64.5 153h39l2 -287h-949v47l86 14q50 8 67 25.5t17 48.5q4 101 4 246v332l-4 243
q0 31 -17 48.5t-67 25.5l-86 14v48z" />
    <glyph glyph-name="Eacute.sc" horiz-adv-x="1153" 
d="M487 1165l158 418h229l-346 -418h-41zM102 1092h897v-273h-41q-9 95 -75 147t-172 52h-232v-410h162q140 0 156 168h39v-414h-41q-17 173 -154 173h-162v-189l2 -162q0 -62 25.5 -87t97.5 -25h182q105 0 159.5 62t64.5 153h39l2 -287h-949v47l86 14q50 8 67 25.5t17 48.5
q4 101 4 246v332l-4 243q0 31 -17 48.5t-67 25.5l-86 14v48z" />
    <glyph glyph-name="Ecircumflex.sc" horiz-adv-x="1153" 
d="M260 1178l270 383h95l268 -381l-37 -29l-278 240l-281 -240zM102 1092h897v-273h-41q-9 95 -75 147t-172 52h-232v-410h162q140 0 156 168h39v-414h-41q-17 173 -154 173h-162v-189l2 -162q0 -62 25.5 -87t97.5 -25h182q105 0 159.5 62t64.5 153h39l2 -287h-949v47l86 14
q50 8 67 25.5t17 48.5q4 101 4 246v332l-4 243q0 31 -17 48.5t-67 25.5l-86 14v48z" />
    <glyph glyph-name="Edieresis.sc" horiz-adv-x="1153" 
d="M369 1235q-59 0 -99.5 40.5t-40.5 100.5q0 58 40.5 99t99.5 41q60 0 100.5 -40.5t40.5 -99.5q0 -60 -40.5 -100.5t-100.5 -40.5zM805 1235q-59 0 -99 40.5t-40 100.5q0 59 40.5 99.5t98.5 40.5q60 0 100.5 -40.5t40.5 -99.5q0 -60 -40.5 -100.5t-100.5 -40.5zM102 1092
h897v-273h-41q-9 95 -75 147t-172 52h-232v-410h162q140 0 156 168h39v-414h-41q-17 173 -154 173h-162v-189l2 -162q0 -62 25.5 -87t97.5 -25h182q105 0 159.5 62t64.5 153h39l2 -287h-949v47l86 14q50 8 67 25.5t17 48.5q4 101 4 246v332l-4 243q0 31 -17 48.5t-67 25.5
l-86 14v48z" />
    <glyph glyph-name="Egrave.sc" horiz-adv-x="1153" 
d="M551 1583l158 -418h-41l-346 418h229zM102 1092h897v-273h-41q-9 95 -75 147t-172 52h-232v-410h162q140 0 156 168h39v-414h-41q-17 173 -154 173h-162v-189l2 -162q0 -62 25.5 -87t97.5 -25h182q105 0 159.5 62t64.5 153h39l2 -287h-949v47l86 14q50 8 67 25.5t17 48.5
q4 101 4 246v332l-4 243q0 31 -17 48.5t-67 25.5l-86 14v48z" />
    <glyph glyph-name="F.sc" horiz-adv-x="1075" 
d="M102 1092h912v-273h-41q-9 95 -75.5 146t-172.5 51h-244l-2 -271v-135h162q71 0 108 42.5t46 127.5h41v-413h-41q-17 170 -154 170h-162v-191l2 -192q0 -56 26 -77t97 -30l68 -8v-39h-570v47l86 14q50 8 67 25.5t17 48.5q4 101 4 246v332l-4 243q0 31 -17 48.5t-67 25.5
l-86 14v48z" />
    <glyph glyph-name="G.sc" horiz-adv-x="1273" 
d="M762 469h471v-39q-57 -9 -71.5 -28t-14.5 -87v-217q-66 -62 -192.5 -94.5t-254.5 -32.5q-142 0 -257.5 46.5t-189 126t-112.5 182t-39 217.5q0 164 76.5 297t213.5 208.5t308 75.5q167 0 396 -75l24 -271h-43q-27 73 -71.5 127.5t-95.5 84.5t-101 44.5t-98 14.5
q-73 0 -140 -30.5t-121.5 -90.5t-87 -160.5t-32.5 -228.5q0 -117 31.5 -211.5t85.5 -154t122 -91t144 -31.5q106 0 172 27q28 11 35.5 23.5t7.5 39.5v174q0 54 -24 77.5t-73 29.5l-69 8v39z" />
    <glyph glyph-name="H.sc" horiz-adv-x="1468" 
d="M1194 721v-344l2 -240q2 -39 14.5 -54t59.5 -22l94 -14v-47h-547v47l86 14q50 8 66 25t18 49q4 113 4 242v164h-512v-164l2 -240q2 -39 14.5 -54t59.5 -22l94 -14v-47h-547v47l86 14q50 8 66 25t18 49q4 113 4 242v344l-4 233q-2 40 -14 54.5t-59 21.5l-95 14v48h547v-48
l-86 -14q-50 -8 -66 -25t-18 -49q-2 -92 -2 -235v-107h512v107l-4 233q-2 39 -14.5 54t-59.5 22l-94 14v48h547v-48l-86 -14q-50 -8 -66 -25t-18 -49q-2 -92 -2 -235z" />
    <glyph glyph-name="I.sc" horiz-adv-x="753" 
d="M479 721v-344l2 -240q2 -39 14.5 -54t59.5 -22l94 -14v-47h-547v47l86 14q50 8 66 25t18 49q4 113 4 242v344l-4 233q-2 40 -14 54.5t-59 21.5l-95 14v48h547v-48l-86 -14q-50 -8 -66 -25t-18 -49q-2 -92 -2 -235z" />
    <glyph glyph-name="Iacute.sc" horiz-adv-x="753" 
d="M203 1165l157 418h230l-346 -418h-41zM479 721v-344l2 -240q2 -39 14.5 -54t59.5 -22l94 -14v-47h-547v47l86 14q50 8 66 25t18 49q4 113 4 242v344l-4 233q-2 40 -14 54.5t-59 21.5l-95 14v48h547v-48l-86 -14q-50 -8 -66 -25t-18 -49q-2 -92 -2 -235z" />
    <glyph glyph-name="Icircumflex.sc" horiz-adv-x="753" 
d="M59 1178l271 383h94l268 -381l-37 -29l-278 240l-281 -240zM479 721v-344l2 -240q2 -39 14.5 -54t59.5 -22l94 -14v-47h-547v47l86 14q50 8 66 25t18 49q4 113 4 242v344l-4 233q-2 40 -14 54.5t-59 21.5l-95 14v48h547v-48l-86 -14q-50 -8 -66 -25t-18 -49
q-2 -92 -2 -235z" />
    <glyph glyph-name="Idieresis.sc" horiz-adv-x="753" 
d="M158 1235q-59 0 -99.5 40.5t-40.5 100.5q0 58 41 99t99 41q60 0 100.5 -40.5t40.5 -99.5q0 -60 -40.5 -100.5t-100.5 -40.5zM594 1235q-59 0 -99 40.5t-40 100.5q0 59 40.5 99.5t98.5 40.5q60 0 100.5 -40.5t40.5 -99.5q0 -60 -40.5 -100.5t-100.5 -40.5zM479 721v-344
l2 -240q2 -39 14.5 -54t59.5 -22l94 -14v-47h-547v47l86 14q50 8 66 25t18 49q4 113 4 242v344l-4 233q-2 40 -14 54.5t-59 21.5l-95 14v48h547v-48l-86 -14q-50 -8 -66 -25t-18 -49q-2 -92 -2 -235z" />
    <glyph glyph-name="Igrave.sc" horiz-adv-x="753" 
d="M389 1583l158 -418h-41l-346 418h229zM479 721v-344l2 -240q2 -39 14.5 -54t59.5 -22l94 -14v-47h-547v47l86 14q50 8 66 25t18 49q4 113 4 242v344l-4 233q-2 40 -14 54.5t-59 21.5l-95 14v48h547v-48l-86 -14q-50 -8 -66 -25t-18 -49q-2 -92 -2 -235z" />
    <glyph glyph-name="J.sc" horiz-adv-x="772" 
d="M354 698l-2 256q-2 40 -14 55t-59 21l-105 14v48h557v-48l-86 -14q-50 -8 -66 -25t-18 -49q-4 -39 -4 -258v-217q0 -99 -6.5 -171t-25.5 -139.5t-51.5 -109t-86 -66t-127.5 -24.5q-59 0 -113 13.5t-94.5 46.5t-40.5 80q0 37 25.5 62.5t68.5 25.5q61 0 93 -62l49 -86
q13 -28 41 -28q43 0 54 99.5t11 358.5v217z" />
    <glyph glyph-name="K.sc" horiz-adv-x="1282" 
d="M479 721v-189l291 328q45 50 65.5 86.5t20.5 56.5t-17.5 32t-38 15t-50.5 3v39h426v-41q-50 0 -112.5 -33.5t-98.5 -63.5t-52 -49l-258 -276l373 -449q108 -130 223 -141v-39h-510v39q33 0 53.5 4t32.5 14t6 29.5t-30 48.5l-324 393v-151l2 -240q2 -39 14.5 -54t59.5 -22
l94 -14v-47h-547v47l86 14q50 8 66 25t18 49q4 113 4 242v344l-4 233q-2 40 -14 54.5t-59 21.5l-95 14v48h547v-48l-86 -14q-50 -8 -66 -25t-18 -49q-2 -92 -2 -235z" />
    <glyph glyph-name="L.sc" horiz-adv-x="1062" 
d="M197 61q47 7 60 22t13 54q4 154 4 240v344l-4 233q0 39 -13 54t-60 22l-95 14v48h547v-48l-86 -14q-50 -8 -66 -25t-18 -49q-2 -98 -2 -211v-399l2 -158q0 -64 26 -90t97 -26h176q55 0 96.5 18t66.5 50t39 68.5t19 78.5h41l2 -287h-940v47z" />
    <glyph glyph-name="M.sc" horiz-adv-x="1568" 
d="M231 250l37 704q2 38 -11.5 53.5t-61.5 22.5l-95 14v48h379l326 -824l317 824h365v-48l-94 -14q-48 -7 -62 -22.5t-12 -53.5l31 -583l14 -234q2 -39 14.5 -54t59.5 -22l94 -14v-47h-547v47l86 14q51 8 68.5 26t15.5 48l-33 725l-336 -860h-90l-348 860l-24 -606
q-3 -69 1 -105.5t23.5 -61t52.5 -31.5t95 -7v-49h-465v49q58 0 91 7t58 28.5t36 60.5t15 105z" />
    <glyph glyph-name="N.sc" horiz-adv-x="1409" 
d="M1110 -29l-735 852v-569q0 -129 34 -167t152 -38v-49h-469v49q58 0 91 7t57.5 28.5t33.5 60.5t9 105v680q-50 58 -89 84t-90 26v52h328l664 -768v514q0 129 -34.5 166.5t-152.5 37.5v50h469v-50q-58 0 -91 -6.5t-57 -28t-33 -60.5t-9 -105v-871h-78z" />
    <glyph glyph-name="Ntilde.sc" horiz-adv-x="1409" 
d="M573 1513q48 0 100 -24.5t90 -54t88 -54t95 -24.5q84 0 146 96l34 -18q-43 -123 -93.5 -175.5t-135.5 -52.5q-53 0 -106.5 24.5t-91 54.5t-85 54.5t-90.5 24.5q-83 0 -145 -96l-35 18q43 122 93.5 174.5t135.5 52.5zM1110 -29l-735 852v-569q0 -129 34 -167t152 -38v-49
h-469v49q58 0 91 7t57.5 28.5t33.5 60.5t9 105v680q-50 58 -89 84t-90 26v52h328l664 -768v514q0 129 -34.5 166.5t-152.5 37.5v50h469v-50q-58 0 -91 -6.5t-57 -28t-33 -60.5t-9 -105v-871h-78z" />
    <glyph glyph-name="O.sc" horiz-adv-x="1363" 
d="M682 1049q-156 0 -253 -124.5t-97 -377.5q0 -251 97 -374.5t253 -123.5q73 0 135 29t111 87.5t76.5 156t27.5 225.5q0 129 -27.5 227.5t-76.5 157t-111 88t-135 29.5zM682 -29q-118 0 -225 44t-185 120t-124 184.5t-46 231.5q0 164 78.5 296t210.5 204.5t291 72.5
q157 0 290 -74.5t211.5 -208t78.5 -296.5q0 -165 -79 -297.5t-211 -204.5t-290 -72z" />
    <glyph glyph-name="Oacute.sc" horiz-adv-x="1363" 
d="M549 1165l158 418h229l-346 -418h-41zM682 1049q-156 0 -253 -124.5t-97 -377.5q0 -251 97 -374.5t253 -123.5q73 0 135 29t111 87.5t76.5 156t27.5 225.5q0 129 -27.5 227.5t-76.5 157t-111 88t-135 29.5zM682 -29q-118 0 -225 44t-185 120t-124 184.5t-46 231.5
q0 164 78.5 296t210.5 204.5t291 72.5q157 0 290 -74.5t211.5 -208t78.5 -296.5q0 -165 -79 -297.5t-211 -204.5t-290 -72z" />
    <glyph glyph-name="Ocircumflex.sc" horiz-adv-x="1363" 
d="M365 1178l270 383h94l268 -381l-36 -29l-279 240l-281 -240zM682 1049q-156 0 -253 -124.5t-97 -377.5q0 -251 97 -374.5t253 -123.5q73 0 135 29t111 87.5t76.5 156t27.5 225.5q0 129 -27.5 227.5t-76.5 157t-111 88t-135 29.5zM682 -29q-118 0 -225 44t-185 120
t-124 184.5t-46 231.5q0 164 78.5 296t210.5 204.5t291 72.5q157 0 290 -74.5t211.5 -208t78.5 -296.5q0 -165 -79 -297.5t-211 -204.5t-290 -72z" />
    <glyph glyph-name="Odieresis.sc" horiz-adv-x="1363" 
d="M463 1235q-59 0 -99 40.5t-40 100.5q0 59 40.5 99.5t98.5 40.5q60 0 100.5 -40.5t40.5 -99.5q0 -60 -40.5 -100.5t-100.5 -40.5zM899 1235q-59 0 -99 40.5t-40 100.5q0 59 40.5 99.5t98.5 40.5q60 0 100.5 -40.5t40.5 -99.5q0 -60 -40.5 -100.5t-100.5 -40.5zM682 1049
q-156 0 -253 -124.5t-97 -377.5q0 -251 97 -374.5t253 -123.5q73 0 135 29t111 87.5t76.5 156t27.5 225.5q0 129 -27.5 227.5t-76.5 157t-111 88t-135 29.5zM682 -29q-118 0 -225 44t-185 120t-124 184.5t-46 231.5q0 164 78.5 296t210.5 204.5t291 72.5q157 0 290 -74.5
t211.5 -208t78.5 -296.5q0 -165 -79 -297.5t-211 -204.5t-290 -72z" />
    <glyph glyph-name="Ograve.sc" horiz-adv-x="1363" 
d="M655 1583l158 -418h-41l-346 418h229zM682 1049q-156 0 -253 -124.5t-97 -377.5q0 -251 97 -374.5t253 -123.5q73 0 135 29t111 87.5t76.5 156t27.5 225.5q0 129 -27.5 227.5t-76.5 157t-111 88t-135 29.5zM682 -29q-118 0 -225 44t-185 120t-124 184.5t-46 231.5
q0 164 78.5 296t210.5 204.5t291 72.5q157 0 290 -74.5t211.5 -208t78.5 -296.5q0 -165 -79 -297.5t-211 -204.5t-290 -72z" />
    <glyph glyph-name="Otilde.sc" horiz-adv-x="1363" 
d="M520 1513q48 0 100 -24.5t90 -54t88 -54t95 -24.5q83 0 145 96l35 -18q-43 -123 -93.5 -175.5t-135.5 -52.5q-53 0 -106.5 24.5t-91 54.5t-85 54.5t-90.5 24.5q-83 0 -145 -96l-35 18q43 122 93.5 174.5t135.5 52.5zM682 1049q-156 0 -253 -124.5t-97 -377.5
q0 -251 97 -374.5t253 -123.5q73 0 135 29t111 87.5t76.5 156t27.5 225.5q0 129 -27.5 227.5t-76.5 157t-111 88t-135 29.5zM682 -29q-118 0 -225 44t-185 120t-124 184.5t-46 231.5q0 164 78.5 296t210.5 204.5t291 72.5q157 0 290 -74.5t211.5 -208t78.5 -296.5
q0 -165 -79 -297.5t-211 -204.5t-290 -72z" />
    <glyph glyph-name="P.sc" horiz-adv-x="1105" 
d="M479 1020v-498q52 -12 107 -12q57 0 105 15.5t87 47t61.5 87t22.5 128.5q0 68 -21 116.5t-58 74t-78.5 36.5t-92.5 11q-84 0 -133 -6zM674 0h-572v47l86 14q50 8 67 25.5t17 48.5q4 101 4 246v332l-4 243q0 31 -17 48.5t-67 25.5l-86 14v48q79 0 252.5 2t251.5 2
q72 0 131 -6t122.5 -25.5t106.5 -52t71 -89t28 -132.5q0 -84 -34 -152.5t-91.5 -111t-128.5 -65t-149 -22.5q-101 0 -183 33v-74l4 -264q0 -57 105 -74l86 -14v-47z" />
    <glyph glyph-name="Q.sc" horiz-adv-x="1363" 
d="M682 -29q-118 0 -225 44t-185 120t-124 184.5t-46 231.5q0 164 78.5 296t210.5 204.5t291 72.5q157 0 290 -74.5t211.5 -208t78.5 -296.5q0 -159 -72.5 -286.5t-196.5 -201.5l148 -262l-21 -20l-358 202q-40 -6 -80 -6zM682 1049q-156 0 -253 -124.5t-97 -377.5
q0 -251 97 -374.5t253 -123.5q73 0 135 29t111 87.5t76.5 156t27.5 225.5q0 129 -27.5 227.5t-76.5 157t-111 88t-135 29.5z" />
    <glyph glyph-name="R.sc" horiz-adv-x="1261" 
d="M649 0h-547v47l86 14q50 8 67 25.5t17 48.5q4 101 4 246v332l-4 243q0 31 -17 48.5t-67 25.5l-86 14v48q83 0 241 2t241 2q80 0 149 -12.5t134 -41.5t103 -85.5t38 -135.5q0 -100 -70 -183.5t-188 -107.5q92 -10 153 -66t86 -149l25 -82q31 -107 79.5 -152.5t137.5 -35.5
l10 -45q-89 -29 -170 -29q-218 0 -287 289q-18 72 -42 116.5t-63.5 69.5t-85 34.5t-118.5 11.5v-357q0 -31 17 -48.5t67 -25.5l90 -14v-47zM475 1024v-483q79 -3 138.5 11t94 38.5t56 62t28.5 73.5t7 79q0 60 -21 104t-58 69t-81 36.5t-96 11.5q-54 0 -68 -2z" />
    <glyph glyph-name="S.sc" horiz-adv-x="993" 
d="M709 242q0 154 -191 221l-112 39q-153 52 -216 130t-63 197q0 132 106 213.5t267 81.5q170 0 311 -69l14 -219h-49q-70 213 -264 213q-98 0 -154.5 -46.5t-56.5 -115.5q0 -67 43 -117.5t119 -77.5l139 -49q65 -22 109 -44.5t89 -60.5t68 -95.5t23 -133.5
q0 -150 -117 -244t-305 -94q-206 0 -354 90v234h39q49 -138 125.5 -191t183.5 -53q114 0 180 53.5t66 137.5z" />
    <glyph glyph-name="Scaron.sc" horiz-adv-x="993" 
d="M709 242q0 154 -191 221l-112 39q-153 52 -216 130t-63 197q0 132 106 213.5t267 81.5q170 0 311 -69l14 -219h-49q-70 213 -264 213q-98 0 -154.5 -46.5t-56.5 -115.5q0 -67 43 -117.5t119 -77.5l139 -49q65 -22 109 -44.5t89 -60.5t68 -95.5t23 -133.5
q0 -150 -117 -244t-305 -94q-206 0 -354 90v234h39q49 -138 125.5 -191t183.5 -53q114 0 180 53.5t66 137.5zM813 1542l-270 -383h-94l-269 381l37 29l279 -248l280 248z" />
    <glyph glyph-name="T.sc" horiz-adv-x="1144" 
d="M383 61q50 8 67 25.5t17 48.5q4 136 4 242v639h-131q-120 0 -176 -59.5t-66 -165.5h-47v301h1043v-301h-50q-17 225 -241 225h-129v-639l2 -240q0 -39 13.5 -54t60.5 -22l94 -14v-47h-547v47z" />
    <glyph glyph-name="U.sc" horiz-adv-x="1359" 
d="M1032 442v334q0 70 -7 115t-26.5 81.5t-57 53t-95.5 16.5v50h469v-50q-104 0 -147.5 -63.5t-43.5 -198.5v-350q0 -217 -122 -338t-332 -121q-214 0 -327.5 113.5t-113.5 331.5v538q0 39 -13 54t-60 22l-95 14v48h547v-48l-86 -14q-50 -8 -66 -25t-18 -49q-2 -381 -2 -553
q0 -167 66 -243t229 -76q143 0 222 91t79 267z" />
    <glyph glyph-name="Uacute.sc" horiz-adv-x="1359" 
d="M567 1165l158 418h229l-346 -418h-41zM1032 442v334q0 70 -7 115t-26.5 81.5t-57 53t-95.5 16.5v50h469v-50q-104 0 -147.5 -63.5t-43.5 -198.5v-350q0 -217 -122 -338t-332 -121q-214 0 -327.5 113.5t-113.5 331.5v538q0 39 -13 54t-60 22l-95 14v48h547v-48l-86 -14
q-50 -8 -66 -25t-18 -49q-2 -381 -2 -553q0 -167 66 -243t229 -76q143 0 222 91t79 267z" />
    <glyph glyph-name="Ucircumflex.sc" horiz-adv-x="1359" 
d="M362 1178l271 383h94l268 -381l-37 -29l-278 240l-281 -240zM1032 442v334q0 70 -7 115t-26.5 81.5t-57 53t-95.5 16.5v50h469v-50q-104 0 -147.5 -63.5t-43.5 -198.5v-350q0 -217 -122 -338t-332 -121q-214 0 -327.5 113.5t-113.5 331.5v538q0 39 -13 54t-60 22l-95 14
v48h547v-48l-86 -14q-50 -8 -66 -25t-18 -49q-2 -381 -2 -553q0 -167 66 -243t229 -76q143 0 222 91t79 267z" />
    <glyph glyph-name="Udieresis.sc" horiz-adv-x="1359" 
d="M481 1235q-59 0 -99 40.5t-40 100.5q0 59 40.5 99.5t98.5 40.5q60 0 101 -40.5t41 -99.5q0 -60 -41 -100.5t-101 -40.5zM918 1235q-59 0 -99.5 40.5t-40.5 100.5q0 58 41 99t99 41q60 0 100.5 -40.5t40.5 -99.5q0 -60 -40.5 -100.5t-100.5 -40.5zM1032 442v334
q0 70 -7 115t-26.5 81.5t-57 53t-95.5 16.5v50h469v-50q-104 0 -147.5 -63.5t-43.5 -198.5v-350q0 -217 -122 -338t-332 -121q-214 0 -327.5 113.5t-113.5 331.5v538q0 39 -13 54t-60 22l-95 14v48h547v-48l-86 -14q-50 -8 -66 -25t-18 -49q-2 -381 -2 -553q0 -167 66 -243
t229 -76q143 0 222 91t79 267z" />
    <glyph glyph-name="Ugrave.sc" horiz-adv-x="1359" 
d="M653 1583l158 -418h-41l-346 418h229zM1032 442v334q0 70 -7 115t-26.5 81.5t-57 53t-95.5 16.5v50h469v-50q-104 0 -147.5 -63.5t-43.5 -198.5v-350q0 -217 -122 -338t-332 -121q-214 0 -327.5 113.5t-113.5 331.5v538q0 39 -13 54t-60 22l-95 14v48h547v-48l-86 -14
q-50 -8 -66 -25t-18 -49q-2 -381 -2 -553q0 -167 66 -243t229 -76q143 0 222 91t79 267z" />
    <glyph glyph-name="V.sc" horiz-adv-x="1148" 
d="M641 254l201 571q12 35 18 63.5t8 49t-4 37.5t-10 27t-18.5 18t-20 11.5t-24.5 6t-23 3t-23 1.5v50h418v-52q-47 -3 -74 -11.5t-55.5 -34.5t-52.5 -73.5t-53 -129.5l-299 -820h-94l-379 981q-13 32 -34 51t-37.5 23.5t-45 8.5t-39.5 7v50h502v-50q-54 -4 -83.5 -11
t-40 -20t-9 -26t11.5 -39z" />
    <glyph glyph-name="W.sc" horiz-adv-x="1591" 
d="M1128 279l150 546q17 59 20.5 100t-2 63.5t-24.5 34.5t-38 15t-52 4v50h420v-52q-49 -3 -77 -11t-58 -33t-53.5 -74t-47.5 -131l-242 -820h-100l-238 738l-223 -738h-100l-307 981q-13 32 -34 51t-37.5 23.5t-45 8.5t-39.5 7v50h502v-50q-71 -6 -99.5 -16.5t-29.5 -30
t8 -49.5l188 -680l170 588l-30 98q-13 32 -34 51t-37.5 23.5t-45 8.5t-39.5 7v50h502v-50q-54 -4 -83 -10.5t-38.5 -20t-8.5 -25.5t9 -40z" />
    <glyph glyph-name="X.sc" horiz-adv-x="1153" 
d="M305 285l182 237l-288 430q-16 24 -31.5 40t-33.5 24.5t-29 12.5t-32.5 7.5t-29.5 5.5v50h510v-50q-54 -4 -84.5 -11t-41 -19t-7.5 -26.5t18 -35.5l174 -262l119 156q30 40 48 72t25 52.5t3 35t-11 22t-23.5 11.5t-27.5 4.5t-30 0.5v50h403v-52q-86 -6 -143 -50
t-162 -183l-149 -195l319 -473q19 -29 44 -47t41 -23.5t46 -11.5t39 -8v-49h-524v49q54 4 84 11.5t40.5 20t7 26t-17.5 36.5l-204 303l-152 -198q-31 -41 -49 -72.5t-25.5 -52.5t-4 -35.5t10.5 -22t24 -11.5t29.5 -4.5t33.5 -0.5v-49h-406v51q83 6 137.5 49.5t167.5 184.5z
" />
    <glyph glyph-name="Y.sc" horiz-adv-x="1040" 
d="M612 479l4 -342q0 -38 14 -53.5t62 -22.5l94 -14v-47h-546v47l86 14q50 8 67 25.5t17 48.5l4 342l-258 475q-13 26 -28.5 42.5t-33 24.5t-30.5 11.5t-33.5 6.5t-30.5 5v50h512v-50q-54 -4 -84.5 -11t-42 -19.5t-9.5 -27.5t15 -38l195 -371l145 250q124 212 -65 217v50
h374v-52q-68 -1 -116 -61t-205 -324z" />
    <glyph glyph-name="Yacute.sc" horiz-adv-x="1040" 
d="M467 1165l158 418h229l-346 -418h-41zM612 479l4 -342q0 -38 14 -53.5t62 -22.5l94 -14v-47h-546v47l86 14q50 8 67 25.5t17 48.5l4 342l-258 475q-13 26 -28.5 42.5t-33 24.5t-30.5 11.5t-33.5 6.5t-30.5 5v50h512v-50q-54 -4 -84.5 -11t-42 -19.5t-9.5 -27.5t15 -38
l195 -371l145 250q124 212 -65 217v50h374v-52q-68 -1 -116 -61t-205 -324z" />
    <glyph glyph-name="Ydieresis.sc" horiz-adv-x="1040" 
d="M344 1235q-59 0 -99 40.5t-40 100.5q0 59 40.5 99.5t98.5 40.5q60 0 100.5 -40.5t40.5 -99.5q0 -60 -40.5 -100.5t-100.5 -40.5zM780 1235q-59 0 -99 40.5t-40 100.5q0 59 40.5 99.5t98.5 40.5q60 0 101 -40.5t41 -99.5q0 -60 -41 -100.5t-101 -40.5zM612 479l4 -342
q0 -38 14 -53.5t62 -22.5l94 -14v-47h-546v47l86 14q50 8 67 25.5t17 48.5l4 342l-258 475q-13 26 -28.5 42.5t-33 24.5t-30.5 11.5t-33.5 6.5t-30.5 5v50h512v-50q-54 -4 -84.5 -11t-42 -19.5t-9.5 -27.5t15 -38l195 -371l145 250q124 212 -65 217v50h374v-52
q-68 -1 -116 -61t-205 -324z" />
    <glyph glyph-name="Z.sc" horiz-adv-x="944" 
d="M10 16l649 1000h-172q-92 0 -154.5 -16t-98 -49.5t-52 -74t-22.5 -100.5h-49l12 316h790l11 -19l-650 -1001h312q78 0 133 22.5t84.5 62.5t43.5 81t19 92h49v-330h-895z" />
    <glyph glyph-name="Zcaron.sc" horiz-adv-x="944" 
d="M10 16l649 1000h-172q-92 0 -154.5 -16t-98 -49.5t-52 -74t-22.5 -100.5h-49l12 316h790l11 -19l-650 -1001h312q78 0 133 22.5t84.5 62.5t43.5 81t19 92h49v-330h-895zM868 1542l-270 -383h-94l-268 381l36 29l279 -248l280 248z" />
    <glyph glyph-name="acute.case" 
d="M317 1694l158 417h230l-347 -417h-41z" />
    <glyph glyph-name="breve.case" 
d="M274 2021q13 -118 80.5 -182.5t157.5 -64.5q94 0 159.5 64t78.5 183h96q-8 -81 -36.5 -142.5t-64.5 -95.5t-82 -55t-81.5 -27.5t-69.5 -6.5t-69.5 6t-81.5 27.5t-82 55t-64.5 95.5t-36.5 143h96z" />
    <glyph glyph-name="c_t" horiz-adv-x="1728" 
d="M885 762q-36 0 -60.5 15t-36.5 37t-26.5 48.5t-29.5 48.5t-46.5 37t-77.5 15q-41 0 -83 -17t-82 -53t-71 -85.5t-50 -120.5t-19 -152q0 -195 90.5 -320t247.5 -125q198 0 299 178l53 -24q-34 -80 -83 -136.5t-104.5 -85t-106 -40t-105.5 -11.5q-158 0 -273.5 72.5
t-172 190.5t-56.5 264q0 236 149.5 384t381.5 148q111 0 206 -39q-79 85 -120 168.5t-41 179.5q0 127 93 213t269 86q356 0 356 -338v-327h291v-76h-291v-301l3 -352q0 -168 135 -168q39 0 87 20t85 51l26 -28q-125 -148 -290 -148q-107 0 -175.5 60.5t-68.5 181.5v684
l-137 21v55h137v295q0 70 -10.5 122t-28.5 83.5t-44.5 50.5t-54.5 25.5t-63 6.5q-111 0 -172 -66t-61 -181q0 -91 45.5 -189.5t115.5 -171.5q19 -19 28 -29t18.5 -28.5t9.5 -36.5q0 -41 -26.5 -66.5t-59.5 -25.5z" />
    <glyph glyph-name="caron.case" 
d="M827 2071l-270 -383h-94l-268 380l36 29l279 -248l281 248z" />
    <glyph glyph-name="cedilla.case" 
d="M350 -176l129 176h76l-131 -172q61 47 127 47q67 0 110.5 -39.5t43.5 -107.5q0 -55 -36.5 -101t-94 -75.5t-121 -46.5t-125.5 -21l-9 43q122 16 190.5 73.5t68.5 123.5q0 37 -22 63.5t-73 26.5q-42 0 -84 -29z" />
    <glyph glyph-name="circumflex.case" 
d="M195 1706l270 383h94l268 -381l-36 -29l-279 240l-281 -240z" />
    <glyph glyph-name="commaaccent" horiz-adv-x="387" 
d="M92 -524l-18 37q125 81 125 147q0 22 -20 41t-43.5 31.5t-43.5 38t-20 59.5q0 41 29.5 67.5t72.5 26.5q66 0 103.5 -50.5t37.5 -117.5q0 -94 -66.5 -169t-156.5 -111z" />
    <glyph glyph-name="dieresis.case" 
d="M242 1722q-59 0 -99.5 41t-40.5 101q0 58 40.5 98.5t99.5 40.5q60 0 100.5 -40t40.5 -99q0 -60 -40.5 -101t-100.5 -41zM780 1722q-59 0 -99 41t-40 101q0 58 40.5 98.5t98.5 40.5q60 0 101 -40t41 -99q0 -60 -41 -101t-101 -41z" />
    <glyph glyph-name="dot" horiz-adv-x="387" 
d="M193 1276q-59 0 -99.5 40.5t-40.5 100.5q0 58 40.5 98.5t99.5 40.5q60 0 100.5 -40t40.5 -99q0 -60 -40.5 -100.5t-100.5 -40.5z" />
    <glyph glyph-name="dotaccent.case" 
d="M512 1712q-59 0 -99 40.5t-40 100.5q0 59 40.5 99.5t98.5 40.5q60 0 100.5 -40.5t40.5 -99.5q0 -60 -40.5 -100.5t-100.5 -40.5z" />
    </font>
</defs>
</svg>
