<?xml version="1.0" standalone="no"?>
<!DOCTYPE svg PUBLIC "-//W3C//DTD SVG 1.1//EN" "http://www.w3.org/Graphics/SVG/1.1/DTD/svg11.dtd" >
<svg xmlns="http://www.w3.org/2000/svg" xmlns:xlink="http://www.w3.org/1999/xlink" version="1.1">
<metadata>
Created by FontForge 20170731 at Fri Jul 29 13:45:15 2022
 By Aleksey,,,
Copyright (c) 2014 Swiss Typefaces. All rights reserved.
</metadata>
<defs>
<font id="RomainHeadline-BoldItalic" horiz-adv-x="1134" >
  <font-face 
    font-family="Romain Headline"
    font-weight="700"
    font-style="italic"
    font-stretch="normal"
    units-per-em="2048"
    panose-1="2 2 8 0 0 0 0 0 0 0"
    ascent="1638"
    descent="-410"
    x-height="985"
    cap-height="1673"
    bbox="-614 -731 2642 2259"
    underline-thickness="61"
    underline-position="-367"
    slope="-9"
    unicode-range="U+000D-FB06"
  />
<missing-glyph horiz-adv-x="1427" 
d="M205 0v1612h1018v-1612h-1018zM229 1591v-1571h969v1571h-969z" />
    <glyph glyph-name="f_f" unicode="ff" horiz-adv-x="1708" 
d="M1714 1649q-64 0 -126 -112.5t-101 -358.5l-31 -193h367l-13 -53h-362l-160 -1000q-20 -123 -66.5 -221t-105.5 -159.5t-130.5 -102.5t-137.5 -57.5t-131 -16.5q-82 0 -162.5 20.5t-140.5 66.5t-60 108q0 51 34.5 88t100.5 37q49 0 83.5 -29t52.5 -70t32.5 -82.5
t32.5 -70.5t43 -29q69 0 131.5 111.5t102.5 359.5l166 1047h-539l-160 -1000q-20 -123 -66.5 -221t-105.5 -159.5t-130.5 -102.5t-137.5 -57.5t-131 -16.5q-82 0 -162.5 20.5t-140.5 66.5t-60 108q0 51 34.5 88t100.5 37q49 0 83.5 -29t52.5 -70t32.5 -82.5t32.5 -70.5
t43 -29q69 0 131.5 111.5t102.5 359.5l166 1047h-234l14 53h228l24 145q20 123 67 221.5t106 160t131.5 102.5t139.5 57.5t132 16.5q82 0 161 -19.5t138 -64.5t59 -107q0 -51 -31 -86t-96 -35q-49 0 -84 28t-54 68t-35 80.5t-36.5 68.5t-48.5 28q-64 0 -126 -112.5
t-101 -358.5l-31 -193h539l24 145q20 123 67 221.5t106 160t131.5 102.5t139.5 57.5t132 16.5q82 0 161 -19.5t138 -64.5t59 -107q0 -51 -31 -86t-96 -35q-49 0 -84 28t-54 68t-35 80.5t-36.5 68.5t-48.5 28z" />
    <glyph glyph-name="f_f_i" unicode="ffi" horiz-adv-x="1914" 
d="M45 932l14 53h228l12 68q20 123 66.5 221t106 159.5t131.5 102.5t139 57.5t132 16.5q70 0 143 -16.5t126 -47.5q83 72 179.5 107t186.5 35q61 0 123 -12t118 -35t91 -63.5t35 -92.5q0 -55 -34.5 -95t-100.5 -40q-49 0 -84 31t-54 75t-35 87.5t-36.5 74.5t-48.5 31
q-30 0 -60 -24.5t-61 -76.5t-59 -147t-48 -223l-30 -193h608l-150 -754q-10 -51 -10 -81t8 -41t23 -11q25 0 66.5 32t78.5 77l31 -23q-34 -49 -49.5 -70t-46 -55.5t-54.5 -49t-60 -26.5t-77 -12q-137 0 -189 90t-15 285l114 586h-286l-127 -817q-14 -88 -32.5 -169t-46 -168
t-64.5 -157t-82.5 -126.5t-105.5 -88t-128 -31.5q-61 0 -118.5 20.5t-99.5 66.5t-42 108q0 50 28 85.5t80 35.5q49 0 75.5 -28.5t33.5 -69.5t10 -81.5t13.5 -69t35.5 -28.5q37 0 53 75.5t32.5 266t35.5 312.5l135 864h-309l-160 -1000q-20 -123 -66.5 -221t-105.5 -159.5
t-130.5 -102.5t-137.5 -57.5t-131 -16.5q-82 0 -162.5 20.5t-140.5 66.5t-60 108q0 51 34.5 88t100.5 37q49 0 83.5 -29t52.5 -70t32.5 -82.5t32.5 -70.5t43 -29q69 0 131.5 111.5t102.5 359.5l166 1047h-234zM911 985l23 145q17 122 63 218q-25 30 -49 90t-46 96.5
t-54 36.5q-64 0 -126 -112.5t-101 -358.5l-19 -115h309z" />
    <glyph glyph-name="f_f_l" unicode="ffl" horiz-adv-x="1982" 
d="M45 932l14 53h228l12 68q20 123 66.5 221t106 159.5t131.5 102.5t139 57.5t132 16.5q161 0 271 -64q83 72 179.5 107t186.5 35q87 0 158 -15h283l-238 -1442q-11 -78 -5.5 -105.5t28.5 -27.5q27 0 79.5 33.5t86.5 75.5l30 -23q-72 -104 -143.5 -158.5t-169.5 -54.5
q-139 0 -186.5 84.5t-12.5 290.5l187 1106q-28 23 -46.5 59.5t-24.5 65.5t-18.5 50.5t-33.5 21.5q-64 0 -126.5 -112.5t-101.5 -358.5l-30 -193h243l-12 -53h-239l-129 -817q-14 -88 -32.5 -169t-46 -168t-64.5 -157t-82.5 -126.5t-105.5 -88t-128 -31.5q-61 0 -118.5 20.5
t-99.5 66.5t-42 108q0 50 28 85.5t80 35.5q49 0 75.5 -28.5t33.5 -69.5t10 -81.5t13.5 -69t35.5 -28.5q37 0 53 76t32 264.5t36 313.5l135 864h-309l-160 -1000q-20 -123 -66.5 -221t-105.5 -159.5t-130.5 -102.5t-137.5 -57.5t-131 -16.5q-82 0 -162.5 20.5t-140.5 66.5
t-60 108q0 51 34.5 88t100.5 37q49 0 83.5 -29t52.5 -70t32.5 -82.5t32.5 -70.5t43 -29q69 0 131.5 111.5t102.5 359.5l166 1047h-234zM848 1571q-64 0 -126 -112.5t-101 -358.5l-19 -115h309l25 145q18 121 63 216q-22 25 -42 67.5t-31.5 75t-32 57.5t-45.5 25z" />
    <glyph glyph-name="f_i" unicode="fi" horiz-adv-x="1292" 
d="M1210 985l-149 -754q-10 -51 -10 -80.5t7.5 -41t22.5 -11.5q25 0 67 32t79 77l30 -23q-35 -50 -49.5 -70.5t-45.5 -55t-54.5 -49t-59.5 -26.5t-77 -12q-137 0 -189.5 90t-15.5 285l115 586h-287l-160 -1000q-20 -123 -66.5 -221t-105.5 -159.5t-130.5 -102.5
t-137.5 -57.5t-131 -16.5q-82 0 -162.5 20.5t-140.5 66.5t-60 108q0 51 34.5 88t100.5 37q49 0 83.5 -29t52.5 -70t32.5 -82.5t32.5 -70.5t43 -29q69 0 131.5 111.5t102.5 359.5l166 1047h-234l14 53h228l24 145q20 123 67 221.5t106 160t131.5 102.5t139.5 57.5t132 16.5
q61 0 122.5 -12t117.5 -35t91 -63.5t35 -92.5q0 -55 -34.5 -95t-100.5 -40q-49 0 -84 31t-54 75t-35 87.5t-36.5 74.5t-48.5 31q-64 0 -126 -112.5t-101 -358.5l-31 -193h608z" />
    <glyph glyph-name="f_l" unicode="fl" horiz-adv-x="1357" 
d="M797 346l186 1106q-28 23 -46.5 59.5t-24.5 65.5t-18.5 50.5t-33.5 21.5q-64 0 -126 -112.5t-101 -358.5l-31 -193h264l-12 -53h-260l-160 -1000q-20 -123 -66.5 -221t-105.5 -159.5t-130.5 -102.5t-137.5 -57.5t-131 -16.5q-82 0 -162.5 20.5t-140.5 66.5t-60 108
q0 51 34.5 88t100.5 37q49 0 83.5 -29t52.5 -70t32.5 -82.5t32.5 -70.5t43 -29q69 0 131.5 111.5t102.5 359.5l166 1047h-234l14 53h228l24 145q20 123 67 221.5t106 160t131.5 102.5t139.5 57.5t132 16.5q87 0 157 -15h283l-237 -1442q-11 -78 -6 -105.5t28 -27.5
q27 0 79.5 33.5t86.5 75.5l31 -23q-72 -104 -144 -158.5t-170 -54.5q-139 0 -186 84.5t-12 290.5z" />
    <glyph glyph-name=".notdef" horiz-adv-x="1427" 
d="M205 0v1612h1018v-1612h-1018zM229 1591v-1571h969v1571h-969z" />
    <glyph glyph-name=".null" horiz-adv-x="0" 
 />
    <glyph glyph-name="nonmarkingreturn" horiz-adv-x="682" 
 />
    <glyph glyph-name="NULL" horiz-adv-x="389" 
 />
    <glyph glyph-name="NULL" horiz-adv-x="389" 
 />
    <glyph glyph-name="CR" unicode="&#xd;" horiz-adv-x="389" 
 />
    <glyph glyph-name="space" unicode=" " horiz-adv-x="389" 
 />
    <glyph glyph-name="exclam" unicode="!" horiz-adv-x="606" 
d="M246 1671q166 62 368 0q-41 -203 -89.5 -382t-84.5 -285t-96 -275t-96 -278h-25q1 116 -1 366.5t2.5 440.5t21.5 413zM16 172q0 83 59 142t142 59t142 -59t59 -142t-59 -142t-142 -59t-142 59t-59 142z" />
    <glyph glyph-name="quotedbl" unicode="&#x22;" horiz-adv-x="733" 
d="M455 1147v450h252l-164 -450h-88zM117 1147v450h252l-164 -450h-88z" />
    <glyph glyph-name="numbersign" unicode="#" horiz-adv-x="1732" 
d="M250 1010l41 96h368l201 500h105l-201 -500h448l201 500h105l-201 -500h354l-41 -96h-352l-193 -478h398l-41 -96h-395l-175 -436h-104l174 436h-448l-175 -436h-104l174 436h-328l41 96h326l193 478h-371zM725 1010l-193 -478h449l193 478h-449z" />
    <glyph glyph-name="dollar" unicode="$" horiz-adv-x="1263" 
d="M1214 1585l-65 -442h-23q-6 221 -87.5 353t-233.5 142l-92 -579l92 -58q60 -38 102 -68.5t97 -81t89 -98.5t58.5 -115t24.5 -138q0 -162 -87.5 -282.5t-229.5 -181.5t-318 -65l-29 -182h-86l29 184q-221 11 -443 121l72 422h22q0 -113 33.5 -205t87.5 -148t115 -87
t123 -37l110 688l-155 104q-132 87 -191 188.5t-59 244.5q0 135 77.5 234t201.5 149t282 57l29 184h86l-31 -184q100 -5 206.5 -36.5t192.5 -82.5zM836 348q0 188 -185 326l-100 -633q133 14 209 89.5t76 217.5zM479 1382q0 -93 39.5 -158.5t116.5 -117.5l84 528
q-118 -17 -179 -86t-61 -166z" />
    <glyph glyph-name="percent" unicode="%" horiz-adv-x="1839" 
d="M1665 1618l-1331 -1618h-111l1327 1618h115zM471 879q130 0 207.5 96t77.5 227q0 107 -59.5 175.5t-170.5 68.5q-121 0 -203.5 -92.5t-82.5 -229.5q0 -105 57 -175t174 -70zM467 788q-158 0 -243 91t-85 229q0 186 111.5 306t284.5 120q160 0 242.5 -88t82.5 -223
q0 -113 -49.5 -212t-141 -161t-202.5 -62zM1307 61q130 0 207 96.5t77 227.5q0 107 -59 175.5t-170 68.5q-121 0 -204 -92.5t-83 -229.5q0 -105 57.5 -175.5t174.5 -70.5zM1303 -29q-158 0 -243 91t-85 229q0 186 111 306t284 120q160 0 243 -88t83 -223q0 -113 -49.5 -212
t-141 -161t-202.5 -62z" />
    <glyph glyph-name="ampersand" unicode="&#x26;" horiz-adv-x="1800" 
d="M41 397q0 191 155.5 328.5t446.5 200.5l-12 18q-66 91 -104 195.5t-38 199.5q0 159 133.5 263t356.5 104q188 0 300 -70.5t112 -191.5q0 -116 -113.5 -212t-312.5 -165l274 -377q38 82 82 144t84.5 99t83.5 60t78 31t71 8q64 0 103 -27.5t39 -78.5q0 -63 -40 -98
t-112 -35q-23 0 -72.5 7t-70.5 7q-66 0 -119 -32t-104 -116l184 -251q98 -135 98 -254q0 -259 -471 -402l-8 35q76 30 116 95t40 145q0 114 -68 204l-63 86q-210 -346 -555 -346q-105 0 -190 25t-140.5 66.5t-93.5 97t-54 115t-16 122.5zM688 117q229 0 379 231l-399 545
q-260 -180 -260 -451q0 -137 76.5 -231t203.5 -94zM940 1100l8 -13q63 30 120 99.5t90.5 154t33.5 158.5q0 76 -41 122t-127 46q-58 0 -103 -44.5t-66 -109t-21 -133.5q0 -138 106 -280z" />
    <glyph glyph-name="quotesingle" unicode="'" horiz-adv-x="395" 
d="M117 1147v450h252l-164 -450h-88z" />
    <glyph glyph-name="parenleft" unicode="(" horiz-adv-x="770" 
d="M739 1604h113q-6 -3 -14 -11t-11 -10q-286 -252 -436.5 -594.5t-150.5 -705.5q0 -259 72.5 -494.5t215.5 -388.5h-114q-136 149 -209.5 382.5t-73.5 493.5q0 382 162 737.5t446 590.5z" />
    <glyph glyph-name="parenright" unicode=")" horiz-adv-x="671" 
d="M-74 -600h-116q296 261 456 608.5t160 714.5q0 258 -73.5 492.5t-217.5 388.5h115q138 -149 211.5 -382t73.5 -493q0 -379 -163.5 -736t-445.5 -593z" />
    <glyph glyph-name="asterisk" unicode="*" horiz-adv-x="753" 
d="M471 1606l-39 -252l238 133l41 -80l-244 -129l205 -123l-56 -86l-198 129l-41 -256h-96l38 250l-237 -131l-41 80l244 127l-205 125l57 86l197 -131l41 258h96z" />
    <glyph glyph-name="plus" unicode="+" 
d="M590 999h104l-69 -432h434l-15 -96h-434l-69 -436h-105l70 436h-432l14 96h432z" />
    <glyph glyph-name="comma" unicode="," horiz-adv-x="538" 
d="M477 174q0 -141 -110.5 -273t-266.5 -184l-6 15q57 35 103 111t47 139q-74 9 -123 63t-49 129q0 84 59 141.5t143 57.5q88 0 145.5 -58t57.5 -141z" />
    <glyph glyph-name="hyphen" unicode="-" horiz-adv-x="806" 
d="M94 471l15 96h602l-15 -96h-602z" />
    <glyph glyph-name="period" unicode="." horiz-adv-x="518" 
d="M57 172q0 83 59 142t142 59t142 -59t59 -142t-59 -142t-142 -59t-142 59t-59 142z" />
    <glyph glyph-name="slash" unicode="/" horiz-adv-x="790" 
d="M928 1669l-963 -1737h-106l962 1737h107z" />
    <glyph glyph-name="zero" unicode="0" horiz-adv-x="1413" 
d="M379 481q0 -230 66 -344t171 -114q73 0 140 66.5t114.5 172.5t83.5 235t54 257t18 235q0 234 -63 353.5t-162 119.5q-76 0 -145 -68t-118 -176t-86 -239.5t-55 -260.5t-18 -237zM51 647q0 187 57 349t154 275t231 177.5t285 64.5q280 0 430 -181.5t150 -487.5
q0 -189 -53.5 -351t-148.5 -277t-232 -180t-299 -65q-255 0 -414.5 186t-159.5 490z" />
    <glyph glyph-name="one" unicode="1" horiz-adv-x="892" 
d="M223 229l168 1061q-110 0 -262 35l4 25q133 18 297.5 61.5t274.5 101.5h32l-202 -1280q-14 -71 -2 -113.5t60.5 -59.5t156.5 -17l-7 -43h-798l6 43q68 0 112 6t73 16.5t45.5 35t25 52t16.5 76.5z" />
    <glyph glyph-name="two" unicode="2" horiz-adv-x="1323" 
d="M-117 0l-2 4q65 53 165.5 131t176 136.5t170.5 137t164 142.5t139.5 143.5t114.5 150.5t72 151.5t28 158.5q0 109 -66 167t-169 58q-141 0 -243.5 -85t-135.5 -226h-33q18 123 87.5 223t188.5 160.5t267 60.5q215 0 336 -86t121 -231q0 -75 -31 -151.5t-68 -135.5
t-124 -135.5t-141.5 -121t-180.5 -124.5t-181.5 -112.5t-201.5 -117.5q-77 -45 -115 -67h467q70 0 119.5 4t109 20t102 44.5t82.5 80t66 124.5h33l-80 -504h-1237z" />
    <glyph glyph-name="three" unicode="3" horiz-adv-x="1220" 
d="M610 1389q-90 0 -177.5 -46t-149.5 -151l-31 12q44 87 105 149t132 96t141.5 49t147.5 15q173 0 268 -64t95 -167q0 -141 -122.5 -233t-359.5 -150q90 -8 165 -35t125 -66.5t85 -90t50.5 -104t15.5 -109.5q0 -112 -41.5 -206.5t-122.5 -165.5t-209.5 -111t-292.5 -40
q-113 0 -215.5 36t-164.5 95.5t-62 124.5q0 64 33.5 95.5t89.5 31.5q28 0 50.5 -11t35.5 -25t24 -39.5t16 -42t11 -43.5q42 -177 186 -177q102 0 177 59t111 156t36 218q0 130 -73 212t-183 82q-104 0 -209 -45l6 39q222 92 363 223.5t141 258.5q0 77 -47 123.5t-150 46.5z
" />
    <glyph glyph-name="four" unicode="4" horiz-adv-x="1449" 
d="M973 393l-27 -160q-15 -71 -5.5 -113.5t56.5 -59.5t154 -17l-8 -43h-801l8 43q86 0 136 7.5t81.5 31t44.5 55.5t23 92l27 164h-699l-2 8l1161 1155h35l-151 -948h149q49 0 83.5 13t61.5 44.5t46 71t40 103.5h31l-69 -447h-375zM248 608h446l84 525z" />
    <glyph glyph-name="five" unicode="5" horiz-adv-x="1255" 
d="M1249 1575l-106 -369h-785l-125 -360q75 68 194 100.5t216 32.5q116 0 208 -34t149 -92.5t86.5 -133t29.5 -158.5q0 -174 -89.5 -309t-245 -208t-349.5 -73q-125 0 -235.5 39.5t-177 108t-66.5 147.5q0 63 36.5 98t90.5 35q30 0 54 -13t38 -30.5t26 -46t17.5 -48
t11.5 -48.5q22 -93 68 -141.5t137 -48.5q139 0 238.5 123t99.5 339q0 132 -76 220t-200 88q-85 0 -186 -35.5t-171 -108.5l-41 4l283 822h680q56 0 93 22.5t67 77.5h30z" />
    <glyph glyph-name="six" unicode="6" horiz-adv-x="1388" 
d="M1260 1589l10 -30q-294 -118 -488 -297.5t-309 -436.5q72 81 166 124.5t190 43.5q200 0 304 -117t104 -323q0 -124 -46 -231t-128.5 -184.5t-202 -122t-260.5 -44.5q-252 0 -397.5 152.5t-145.5 402.5q0 148 62 287t171.5 254.5t261.5 215.5t330 176t378 130zM709 891
q-132 0 -248 -105q-39 -82 -66.5 -202t-27.5 -222q0 -152 54.5 -241.5t172.5 -89.5q77 0 138 47t98 126.5t56 177.5t19 208q0 129 -49 215t-147 86z" />
    <glyph glyph-name="seven" unicode="7" horiz-adv-x="1155" 
d="M-88 -49l1098 1255h-514q-133 0 -206 -42t-110 -152h-20l73 463h1043l-1165 -1659z" />
    <glyph glyph-name="eight" unicode="8" horiz-adv-x="1329" 
d="M549 1243q-8 -33 -3 -66.5t11.5 -59.5t24 -53t34.5 -47.5t43 -43t48.5 -39.5t52.5 -37q77 37 128.5 126.5t67.5 188.5q9 45 3 89.5t-22.5 79t-54 56t-91.5 21.5q-38 0 -74 -10t-71.5 -33t-61 -67t-35.5 -105zM684 592l-147 96q-169 -108 -205 -344q-13 -76 4 -146
t72.5 -119.5t140.5 -49.5q119 0 195.5 66.5t95.5 183.5q13 96 -19 170t-137 143zM37 334q23 143 140 230.5t337 140.5l-49 36q-128 95 -185 206t-38 227q10 68 50.5 128t108 108.5t170.5 77t228 28.5q229 0 348.5 -74.5t99.5 -198.5q-15 -100 -136.5 -204.5t-319.5 -159.5
q83 -58 98 -66q167 -106 233.5 -202t46.5 -220q-13 -82 -60 -156t-124.5 -133.5t-195.5 -95t-259 -35.5q-161 0 -277.5 41.5t-175 124.5t-40.5 197z" />
    <glyph glyph-name="nine" unicode="9" horiz-adv-x="1366" 
d="M68 -104l-11 30q294 118 488 297t309 436q-72 -81 -166 -124t-190 -43q-184 0 -296 120t-112 320q0 165 78.5 297t224.5 208t334 76q252 0 397.5 -152.5t145.5 -402.5q0 -184 -94.5 -352.5t-260.5 -302t-380.5 -236.5t-466.5 -171zM618 594q133 0 248 104
q40 82 67.5 202.5t27.5 221.5q0 152 -55 242t-173 90q-77 0 -138 -47t-98 -126.5t-56 -177.5t-19 -208q0 -129 49 -215t147 -86z" />
    <glyph glyph-name="colon" unicode=":" horiz-adv-x="600" 
d="M178 834q0 83 59 141.5t142 58.5t142 -58.5t59 -141.5t-59 -142t-142 -59t-142 59t-59 142zM57 172q0 83 59 142t142 59t142 -59t59 -142t-59 -142t-142 -59t-142 59t-59 142z" />
    <glyph glyph-name="semicolon" unicode=";" horiz-adv-x="538" 
d="M178 834q0 83 59 141.5t142 58.5t142 -58.5t59 -141.5t-59 -142t-142 -59t-142 59t-59 142zM477 174q0 -141 -110.5 -273t-266.5 -184l-6 15q57 35 103 111t47 139q-74 9 -123 63t-49 129q0 84 59 141.5t143 57.5q88 0 145.5 -58t57.5 -141z" />
    <glyph glyph-name="less" unicode="&#x3c;" horiz-adv-x="1136" 
d="M96 471l17 96l1106 463l-17 -117l-977 -399l846 -432l-18 -109z" />
    <glyph glyph-name="equal" unicode="=" 
d="M63 287l17 96h930l-17 -96h-930zM123 655l14 97h930l-14 -97h-930z" />
    <glyph glyph-name="greater" unicode="&#x3e;" horiz-adv-x="1136" 
d="M1044 567l-16 -96l-1110 -498l19 119l978 432l-849 398l16 108z" />
    <glyph glyph-name="question" unicode="?" horiz-adv-x="849" 
d="M532 1667q-43 0 -75 -30t-53.5 -72.5t-43.5 -84.5t-59 -72t-88 -30q-52 0 -82.5 31t-30.5 74q0 55 41.5 99.5t108 70.5t141 39.5t148.5 13.5q175 0 268.5 -73t93.5 -199q0 -73 -34.5 -146t-88.5 -135.5t-119.5 -127t-129 -132.5t-115 -139t-80 -159t-21.5 -181l-14 -8
q-74 46 -111.5 117t-37.5 155q0 57 25.5 117.5t65.5 116t89 113.5t98 118.5t89 121.5t65.5 133t25.5 144q0 55 -18.5 90t-57.5 35zM78 172q0 83 59 142t142 59t141.5 -59t58.5 -142t-58.5 -142t-141.5 -59t-142 59t-59 142z" />
    <glyph glyph-name="at" unicode="@" horiz-adv-x="2021" 
d="M1335 270q-93 0 -154.5 25.5t-89 71t-36 108t3.5 135.5q-79 -143 -160 -196.5t-176 -53.5q-88 0 -149.5 47.5t-88 117t-26.5 151.5q0 125 47.5 241t125.5 199.5t180.5 133.5t209.5 50q91 0 164 -40l16 57h287l-105 -563q-8 -45 -24 -121q-34 -146 -26.5 -199t81.5 -53
q80 0 156.5 45t135 122t94.5 188t36 233q0 194 -90.5 342t-253 227.5t-373.5 79.5q-119 0 -235 -31t-219 -87t-190.5 -138t-151 -181.5t-99 -220.5t-35.5 -251q0 -309 204 -503t532 -194q100 0 241 29l13 -80q-137 -35 -289 -35q-171 0 -321 57.5t-257.5 158t-169 243
t-61.5 307.5q0 175 55 333t154 281t231.5 213.5t293.5 138.5t333 48q123 0 239 -29t216.5 -89t176 -143.5t118.5 -200t43 -251.5q0 -194 -79.5 -360t-220 -264.5t-307.5 -98.5zM1067 672q0 4 2 8l74 389q2 99 -26 146t-89 47q-54 0 -103 -59.5t-80.5 -150t-50 -192.5
t-18.5 -190q0 -74 22 -115t62 -41q30 0 55.5 8.5t66.5 45.5t85 104z" />
    <glyph glyph-name="A" unicode="A" horiz-adv-x="1581" 
d="M225 360l754 1387h22l338 -1561q18 -81 64.5 -112t136.5 -31l-6 -43h-715l6 43q24 0 43 1t39 5t33 10t26.5 16t18.5 24.5t8.5 34.5t-2.5 46l-65 357h-514l-107 -197q-41 -76 -56.5 -131.5t-10 -86.5t29.5 -49.5t52.5 -24t68.5 -5.5l-6 -43h-498l6 43q40 0 65 4.5t56 21.5
t60 51.5t66.5 92.5t86.5 147zM797 1249l-310 -571h414z" />
    <glyph glyph-name="B" unicode="B" horiz-adv-x="1560" 
d="M641 842l-106 -672q-5 -32 -6.5 -45.5t0.5 -30.5t8 -21.5t22.5 -10.5t36.5 -6.5t57 -0.5q198 0 313 117.5t115 327.5q0 69 -21.5 127.5t-68 108t-131 78t-198.5 28.5h-21zM764 1614l-117 -733h6q97 0 175.5 26.5t130 70.5t86.5 104t50 124.5t15 134.5q0 273 -309 273h-37
zM252 1673h573q631 0 631 -350q0 -69 -28.5 -133t-76 -113t-110 -88.5t-131 -65t-137.5 -36.5q214 -17 333 -121.5t119 -269.5q0 -115 -43 -204t-112 -143t-166 -88.5t-195 -47.5t-209 -13h-710l6 39q106 0 149 27t52 90l215 1362q9 63 -24.5 89.5t-141.5 26.5z" />
    <glyph glyph-name="C" unicode="C" horiz-adv-x="1736" 
d="M909 39q230 0 385.5 116t270.5 375h28l-67 -415q-171 -86 -295 -115t-299 -29q-189 0 -348.5 62.5t-269 171.5t-171 261t-61.5 327q0 205 74 378t201 290t298 182t365 65q173 0 342 -46.5t313 -125.5l-41 -391h-26q-42 220 -185.5 358.5t-345.5 138.5q-102 0 -193.5 -41
t-161.5 -112t-126.5 -167t-93 -207t-55.5 -230t-19 -238q0 -295 132 -451.5t349 -156.5z" />
    <glyph glyph-name="D" unicode="D" horiz-adv-x="1863" 
d="M754 1612l-222 -1399q-14 -88 -9 -109q8 -32 60 -40q36 -5 124 -5q146 0 281 68t238.5 188.5t165.5 300t62 388.5q0 132 -34.5 237.5t-92.5 173.5t-139 113.5t-169 64.5t-188 19h-77zM244 1673h622q457 0 696.5 -190t239.5 -520q0 -213 -75 -392t-210.5 -305t-333 -196
t-435.5 -70h-766l6 39h61q64 0 97 28t42 89l215 1362q9 61 -14.5 88.5t-87.5 27.5h-63z" />
    <glyph glyph-name="E" unicode="E" horiz-adv-x="1529" 
d="M252 1673h1237l-59 -469h-31q-3 239 -174 334q-55 31 -136.5 45t-222.5 14h-106l-109 -692h180q44 0 78.5 5t73 21t68.5 43t58 72.5t48 108.5h29l-90 -594h-29q-1 74 -22.5 129.5t-58 85.5t-78.5 44t-89 14h-180l-102 -646q-10 -68 10.5 -90t85.5 -22h188q192 0 324 94
t188 279h31l-66 -449h-1308l6 39q106 0 149 27t52 90l215 1362q9 63 -24.5 89.5t-141.5 26.5z" />
    <glyph glyph-name="F" unicode="F" horiz-adv-x="1400" 
d="M651 905h180q44 0 78.5 5t73 21t68.5 43t58 72.5t48 108.5h29l-90 -594h-29q-1 74 -22.5 129.5t-58 85.5t-78.5 44t-89 14h-180l-107 -676q-9 -62 37 -89.5t170 -27.5l-6 -41h-743l6 39q106 0 149 27t52 90l215 1362q9 63 -24.5 89.5t-141.5 26.5l6 39h1257l-67 -469h-31
q-3 220 -139 316q-57 39 -144 58t-237 19h-131z" />
    <glyph glyph-name="G" unicode="G" horiz-adv-x="1878" 
d="M911 -29q-251 0 -440.5 107.5t-289 293t-99.5 421.5q0 205 74 378t201 290t298 182t365 65q173 0 342 -46.5t313 -125.5l-41 -391h-26q-42 220 -185.5 358.5t-345.5 138.5q-102 0 -193.5 -41t-161.5 -112t-126.5 -167t-93 -207t-55.5 -230t-19 -238q0 -298 123 -453
t338 -155q56 0 96.5 3t95.5 18t92.5 41t69.5 76.5t43 121.5l45 295q6 33 -14 51.5t-55 18.5h-103l6 43h641l-6 -43h-59q-35 0 -61.5 -18.5t-32.5 -51.5l-43 -277q-16 -102 -119 -182.5t-254.5 -122t-319.5 -41.5z" />
    <glyph glyph-name="H" unicode="H" horiz-adv-x="1959" 
d="M1233 156l106 678h-700l-107 -678q-6 -42 4.5 -66.5t49 -37.5t112.5 -13l-6 -39h-702l6 39q106 0 149 27t52 90l215 1362q9 63 -24.5 89.5t-141.5 26.5l6 39h704l-6 -39q-108 0 -150.5 -26.5t-51.5 -89.5l-95 -598h701l94 598q9 63 -24.5 89.5t-141.5 26.5l6 39h705
l-6 -39q-108 0 -151 -26.5t-52 -89.5l-215 -1362q-6 -42 4.5 -66.5t49 -37.5t112.5 -13l-6 -39h-705l6 39q108 0 151 27t52 90z" />
    <glyph glyph-name="I" unicode="I" horiz-adv-x="923" 
d="M197 156l215 1362q9 63 -24.5 89.5t-141.5 26.5l6 39h704l-6 -39q-108 0 -150.5 -26.5t-51.5 -89.5l-216 -1362q-6 -42 4.5 -66.5t49 -37.5t112.5 -13l-6 -39h-702l6 39q106 0 149 27t52 90z" />
    <glyph glyph-name="J" unicode="J" horiz-adv-x="1058" 
d="M952 1518l-145 -908q-12 -76 -24 -134t-33.5 -128t-48 -121t-68 -102t-92 -82.5t-121.5 -51.5t-156 -20q-176 0 -274.5 59t-98.5 150q0 67 42.5 103t105.5 36q55 0 92 -32t55 -77.5t30.5 -90.5t28.5 -77t40 -32q57 0 93 125.5t93 474.5l145 908q6 42 -4.5 66t-48.5 37
t-112 13l6 39h704l-6 -39q-108 0 -151 -26.5t-52 -89.5z" />
    <glyph glyph-name="K" unicode="K" horiz-adv-x="1695" 
d="M154 156l215 1362q9 63 -24.5 89.5t-141.5 26.5l6 39h704l-6 -39q-108 0 -150.5 -26.5t-51.5 -89.5l-109 -687l543 531q193 189 137 243q-26 24 -105 25l7 43h600l-6 -43q-99 0 -219.5 -47.5t-215.5 -138.5l-458 -438l493 -793q35 -57 76 -93.5t84.5 -52t75.5 -20
t73 -4.5l-6 -43q-123 -27 -219 -27q-167 0 -305 66t-219 205l-338 581l-105 -669q-6 -42 4.5 -66.5t49 -37.5t112.5 -13l-6 -39h-702l6 39q106 0 149 27t52 90z" />
    <glyph glyph-name="L" unicode="L" horiz-adv-x="1458" 
d="M1311 0h-1331l6 39q106 0 148.5 27t51.5 90l215 1362q6 42 -4.5 66t-48.5 37t-112 13l6 39h745l-6 -39q-125 0 -180 -27.5t-64 -88.5l-211 -1330q-10 -68 11 -90t86 -22h211q192 0 324 94t188 279h30z" />
    <glyph glyph-name="M" unicode="M" horiz-adv-x="2236" 
d="M248 272l241 1176q21 97 -27.5 138.5t-152.5 41.5l6 45h504l318 -1196l602 1196h508l-6 -45q-36 0 -69.5 -7t-68 -23.5t-57.5 -49.5t-29 -80l-155 -1312q-8 -61 15.5 -89t86.5 -28h64l-7 -39h-704l6 39h63q128 0 140 117l141 1183l-706 -1368h-43l-369 1329l-209 -1028
q-26 -122 20 -177.5t164 -55.5l-6 -39h-541l7 39q116 0 176.5 55t87.5 178z" />
    <glyph glyph-name="N" unicode="N" horiz-adv-x="1818" 
d="M1423 -29h-69l-858 1387l-168 -1059q-42 -260 180 -260l-6 -39h-539l6 39q114 0 181 67.5t88 192.5l180 1145q13 82 -31 129.5t-131 52.5l-41 2l6 45h492l712 -1171l131 884q37 248 -182 248l6 39h541l-6 -39q-115 0 -182 -65.5t-86 -182.5z" />
    <glyph glyph-name="O" unicode="O" horiz-adv-x="1918" 
d="M1028 1642q-87 0 -168.5 -41t-146.5 -112t-119 -167.5t-90 -206.5t-56 -230t-20 -238q0 -298 123 -453t338 -155q128 0 240.5 81t191.5 218t124.5 322t45.5 389q0 291 -124.5 442t-338.5 151zM1012 1708q252 0 440.5 -104.5t286.5 -288.5t98 -422q0 -204 -72.5 -378
t-197 -292.5t-294.5 -185t-362 -66.5q-251 0 -440.5 107.5t-289 293t-99.5 421.5q0 205 72.5 378t198 290t296 182t363.5 65z" />
    <glyph glyph-name="P" unicode="P" horiz-adv-x="1445" 
d="M762 1610l-129 -822q43 -6 82 -6q199 0 321.5 129.5t122.5 354.5q0 178 -97.5 261t-287.5 83h-12zM252 1673h555q151 0 274.5 -22.5t222 -70t153 -129t54.5 -191.5q0 -129 -56.5 -232t-150.5 -166.5t-209.5 -97t-240.5 -33.5q-114 0 -227 25l-95 -600q-10 -64 27.5 -90.5
t159.5 -26.5l-6 -39h-723l6 39q106 0 149 27t52 90l215 1362q9 63 -24.5 89.5t-141.5 26.5z" />
    <glyph glyph-name="Q" unicode="Q" horiz-adv-x="1918" 
d="M1012 1708q190 0 345 -57.5t260.5 -161t162.5 -251t57 -325.5q0 -278 -127.5 -495.5t-345.5 -335.5l154 -420l-11 -10l-585 319h-11q-189 0 -345 59t-262 164.5t-164 253.5t-58 324q0 205 72.5 381t198 297t296 189.5t363.5 68.5zM1028 1642q-104 0 -199.5 -60
t-167 -161.5t-125 -231.5t-81 -275t-27.5 -287q0 -296 122 -442t339 -146q170 0 309 143t216 378.5t77 508.5q0 289 -123.5 431t-339.5 142z" />
    <glyph glyph-name="R" unicode="R" horiz-adv-x="1669" 
d="M762 1612l-119 -762h16q141 0 251 46.5t176.5 145t66.5 236.5q0 96 -27.5 163t-80 103.5t-117.5 52t-152 15.5h-14zM252 1673h524q352 0 539.5 -98.5t187.5 -288.5q0 -187 -157 -305.5t-431 -146.5q193 -3 285 -101t123 -295q25 -157 63 -239.5t102.5 -121t180.5 -52.5
l-4 -27q-113 -27 -240 -27q-208 0 -324 118.5t-140 330.5q-21 201 -98 285.5t-230 89.5l-101 -639q-6 -42 4.5 -66.5t49 -37.5t112.5 -13l-6 -39h-702l6 39q106 0 149 27t52 90l215 1362q9 63 -24.5 89.5t-141.5 26.5z" />
    <glyph glyph-name="S" unicode="S" horiz-adv-x="1345" 
d="M1243 1585l-65 -442h-23q-6 229 -93.5 362t-250.5 133q-148 0 -225.5 -73t-77.5 -183q0 -98 45 -166t133 -122l148 -93q60 -38 102 -68.5t97 -80.5t89 -99t58 -115.5t24 -137.5q0 -125 -52.5 -226.5t-143 -167t-209.5 -100.5t-254 -35q-255 0 -504 123l72 422h22
q0 -96 24.5 -177.5t63.5 -135.5t90 -92t103 -55t102 -17q158 0 252 76t94 233q0 103 -57 193t-160 157l-198 133q-132 87 -191 188.5t-59 244.5q0 107 49 192.5t133.5 139t193.5 82t234 28.5q105 0 222.5 -33t211.5 -88z" />
    <glyph glyph-name="T" unicode="T" horiz-adv-x="1527" 
d="M172 1673h1487l-80 -469h-31q-3 191 -106.5 292t-335.5 101h-55l-228 -1441q-10 -64 27.5 -90.5t159.5 -26.5l-6 -39h-746l6 39q122 0 167.5 26.5t55.5 90.5l228 1441h-51q-81 0 -147.5 -10t-116 -27t-90 -45.5t-69 -58.5t-52.5 -73.5t-40 -83.5t-34 -95h-37z" />
    <glyph glyph-name="U" unicode="U" horiz-adv-x="1761" 
d="M1606 1356l-113 -705q-25 -162 -78 -284.5t-139.5 -212.5t-214.5 -136.5t-295 -46.5q-326 0 -468 172t-91 488l139 887q9 63 -24.5 89.5t-141.5 26.5l6 39h705l-6 -39q-108 0 -151 -26.5t-52 -89.5l-143 -904q-40 -255 44.5 -393.5t284.5 -138.5q447 0 537 573l111 701
q22 140 -21.5 209t-157.5 69l6 39h541l-6 -39q-227 0 -272 -278z" />
    <glyph glyph-name="V" unicode="V" horiz-adv-x="1675" 
d="M1448 1313l-735 -1362h-27l-352 1573q-14 60 -48 83t-118 23l6 43h674l-6 -43q-82 0 -122.5 -15.5t-33.5 -53.5l217 -1106l459 878q40 76 55 132t9.5 87t-29 49t-51.5 23.5t-68 5.5l6 43h506l-6 -43q-50 0 -80.5 -8t-70.5 -39t-82.5 -95.5t-102.5 -174.5z" />
    <glyph glyph-name="W" unicode="W" horiz-adv-x="2512" 
d="M2300 1311l-703 -1362h-26l-262 1239l-637 -1237h-27l-332 1573q-12 60 -47 83t-119 23l7 43h673l-6 -43q-82 0 -122 -15.5t-33 -53.5l194 -1074l422 832l-43 203q-12 60 -46.5 83t-119.5 23l6 43h674l-6 -43q-82 0 -122.5 -15.5t-33.5 -53.5l199 -1070l424 842
q39 77 53.5 133t9.5 87t-28.5 49t-50.5 23t-68 5l6 43h506l-6 -43q-41 0 -65.5 -4t-57.5 -21t-62 -50.5t-67 -93t-84 -148.5z" />
    <glyph glyph-name="X" unicode="X" horiz-adv-x="1738" 
d="M283 317l444 467l-358 740q-20 41 -34 59.5t-49.5 32.5t-95.5 14l7 43h700l-6 -43q-82 0 -131 -19t-35 -50l250 -514l313 329q56 59 83.5 104.5t29 73t-16.5 45.5t-46 24.5t-66 6.5l6 43h530l-6 -43q-64 0 -113 -17.5t-123.5 -77.5t-187.5 -179l-366 -385l401 -821
q13 -27 20 -39t21.5 -28.5t30.5 -23t42.5 -11.5t63.5 -5l-6 -43h-700l6 43q81 0 130 19.5t34 50.5l-291 596l-391 -412q-56 -58 -81.5 -104t-23.5 -73.5t22.5 -45.5t50.5 -24.5t69 -6.5l-7 -43h-548l6 43q64 0 112.5 17.5t122.5 77.5t187 179z" />
    <glyph glyph-name="Y" unicode="Y" horiz-adv-x="1531" 
d="M465 156l88 563h2l-262 805q-20 60 -53 83t-115 23l6 43h670l-6 -43q-83 0 -125 -16t-31 -53l227 -748l351 520q51 74 76 127t28.5 85.5t-16 51.5t-51.5 26t-83 7l7 43h505l-6 -43q-49 0 -81.5 -8.5t-75.5 -38.5t-91.5 -89t-117.5 -159l-422 -616l-88 -563
q-6 -42 4.5 -66.5t49 -37.5t112.5 -13l-6 -39h-705l6 39q108 0 151 27t52 90z" />
    <glyph glyph-name="Z" unicode="Z" horiz-adv-x="1421" 
d="M-90 0l1177 1595h-174q-101 0 -185 -11t-146.5 -29t-114.5 -48t-87 -59.5t-67 -73.5t-52 -80.5t-44 -87.5h-27l125 467h1192l-1169 -1599h334q123 0 217 20t158 53.5t115 91t83.5 118t65.5 149.5h24l-88 -506h-1337z" />
    <glyph glyph-name="bracketleft" unicode="[" horiz-adv-x="600" 
d="M23 -475l317 2015h418l-13 -86h-319l-293 -1843h320l-13 -86h-417z" />
    <glyph glyph-name="backslash" unicode="\" horiz-adv-x="790" 
d="M549 -68l-412 1737h103l411 -1737h-102z" />
    <glyph glyph-name="bracketright" unicode="]" horiz-adv-x="600" 
d="M575 1540l-317 -2015h-416l13 86h317l293 1843h-320l13 86h417z" />
    <glyph glyph-name="asciicircum" unicode="^" horiz-adv-x="1097" 
d="M549 1606h96l283 -850h-111l-235 729l-430 -729h-117z" />
    <glyph glyph-name="underscore" unicode="_" horiz-adv-x="1599" 
d="M115 -98l14 98h1354l-15 -98h-1353z" />
    <glyph glyph-name="grave" unicode="`" horiz-adv-x="407" 
d="M328 1118l-244 479h334l-70 -479h-20z" />
    <glyph glyph-name="a" unicode="a" horiz-adv-x="1249" 
d="M1139 1030l-152 -799q-25 -133 17 -133q64 0 170 129l34 -26q-73 -106 -157.5 -168t-194.5 -62q-104 0 -149 72t-31 188q-136 -260 -350 -260q-67 0 -119 20.5t-82.5 52t-50 76t-26.5 86.5t-7 89q0 147 58.5 283t150.5 230t206 150t224 56q74 0 147 -37l13 53h299z
M479 115q96 0 207 174l105 545q-15 137 -113 137q-75 0 -150.5 -110.5t-120.5 -263.5t-45 -280q0 -92 29 -147t88 -55z" />
    <glyph glyph-name="b" unicode="b" horiz-adv-x="1146" 
d="M598 1673l-145 -911q69 136 160 203t188 67q78 0 139.5 -30t96 -78.5t52 -103t17.5 -111.5q0 -113 -40 -225.5t-106.5 -202.5t-149 -160t-172.5 -108.5t-171 -39.5q-92 0 -166.5 21t-133 66.5t-83 127.5t-6.5 193l188 1137q6 28 2.5 49.5t-18 36.5t-50 22.5t-94.5 7.5
l7 39h485zM674 893q-50 0 -111.5 -46t-122.5 -161l-53 -334q-23 -146 9 -239t104 -93q57 0 105.5 48.5t80 121t54 159t32.5 161.5t10 129q0 254 -108 254z" />
    <glyph glyph-name="c" unicode="c" horiz-adv-x="913" 
d="M811 346l33 -16q-90 -190 -214 -274.5t-284 -84.5q-133 0 -219 88t-86 260q0 92 28 191.5t83.5 191.5t129.5 165.5t174 118t208 44.5q112 0 180.5 -49t68.5 -121q0 -47 -28 -82t-88 -35q-49 0 -77.5 25t-38 60.5t-15.5 71t-19.5 60.5t-40.5 25q-62 0 -118.5 -100.5
t-87.5 -242.5t-31 -275q0 -252 125 -252q45 0 93 18.5t109.5 73t114.5 139.5z" />
    <glyph glyph-name="d" unicode="d" horiz-adv-x="1257" 
d="M682 1030q61 0 129 -29l84 517q6 28 2.5 49.5t-18 36.5t-50 22.5t-94.5 7.5l6 39h486l-226 -1442q-11 -78 -6 -105.5t27 -27.5q27 0 79.5 33.5t86.5 75.5l31 -23q-65 -101 -145 -157t-191 -56q-108 0 -155.5 69.5t-41.5 184.5q-139 -254 -358 -254q-67 0 -119 21.5
t-82.5 55t-50 79.5t-26.5 89.5t-7 90.5q0 118 38 230.5t102.5 200t146 154.5t173 102.5t179.5 35.5zM481 115q101 0 213 164l90 559q-9 72 -37.5 110.5t-66.5 38.5q-76 0 -150.5 -101t-119.5 -254.5t-45 -301.5q0 -95 29 -155t87 -60z" />
    <glyph glyph-name="e" unicode="e" horiz-adv-x="940" 
d="M41 319q0 137 52 268.5t137.5 228t200 155.5t233.5 59q62 0 110.5 -10.5t77 -26.5t47 -38t25 -41.5t6.5 -39.5q0 -40 -15 -77t-36 -64.5t-61 -56t-72 -47t-88.5 -42.5t-91 -36.5t-98 -35.5t-93.5 -34q-6 -59 -6 -114q0 -252 125 -252q69 0 156 60.5t165 186.5l33 -16
q-178 -375 -502 -375q-133 0 -219 88t-86 260zM457 819q-58 -138 -80 -313q156 85 219 167.5t63 176.5q0 135 -55 135q-38 0 -77 -46.5t-70 -119.5z" />
    <glyph glyph-name="f" unicode="f" horiz-adv-x="854" 
d="M860 1649q-64 0 -126 -112.5t-101 -358.5l-31 -193h367l-13 -53h-362l-160 -1000q-20 -123 -66.5 -221t-105.5 -159.5t-130.5 -102.5t-137.5 -57.5t-131 -16.5q-82 0 -162.5 20.5t-140.5 66.5t-60 108q0 51 34.5 88t100.5 37q49 0 83.5 -29t52.5 -70t32.5 -82.5
t32.5 -70.5t43 -29q69 0 131.5 111.5t102.5 359.5l166 1047h-234l14 53h228l24 145q20 123 67 221.5t106 160t131.5 102.5t139.5 57.5t132 16.5q82 0 161 -19.5t138 -64.5t59 -107q0 -51 -31 -86t-96 -35q-49 0 -84 28t-54 68t-35 80.5t-36.5 68.5t-48.5 28z" />
    <glyph glyph-name="g" unicode="g" horiz-adv-x="1200" 
d="M653 1030q100 0 189 -29h450l-8 -61h-326q105 -81 105 -211q0 -173 -144.5 -288t-373.5 -115q-46 0 -66 4q-60 -12 -95.5 -45t-41.5 -76q-7 -43 17 -73t90 -30h143q56 0 100.5 -2t95.5 -8t90 -16.5t76.5 -28.5t61.5 -42.5t38.5 -60.5t14.5 -81q0 -110 -64 -202.5
t-165 -150t-219 -89t-234 -31.5q-243 0 -374.5 83.5t-112.5 207.5q7 47 38 82t85 59t110.5 39.5t136.5 30.5q-202 27 -202 190q0 85 92.5 161t247.5 97q-130 30 -201.5 107.5t-71.5 181.5q0 168 147.5 282.5t370.5 114.5zM537 -111h-222q-85 -32 -126 -80t-54 -131
q-17 -115 61.5 -174t194.5 -59q45 0 87.5 5t90.5 16t87.5 32.5t72.5 52t51.5 77t18.5 104.5q0 79 -72.5 118t-189.5 39zM647 991q-55 0 -99.5 -43t-69 -108t-37.5 -132t-13 -126q0 -92 28.5 -154.5t94.5 -62.5q57 0 102 44t69.5 111t37 135t12.5 127q0 57 -10 101t-39.5 76
t-75.5 32z" />
    <glyph glyph-name="h" unicode="h" horiz-adv-x="1241" 
d="M154 1673h489l-156 -997q60 174 158 264t217 90q43 0 76.5 -9.5t56.5 -23.5t38.5 -39.5t24.5 -48t11 -60.5t2 -64.5t-6 -71.5t-10 -71t-13 -73l-61 -338q-23 -133 27 -133q27 0 79.5 33.5t86.5 75.5l30 -23q-72 -104 -143.5 -158.5t-169.5 -54.5q-139 0 -186.5 84.5
t-12.5 290.5l41 227q5 34 7.5 51.5t7 60.5t3.5 69.5t-5 57.5t-16 46.5t-32 15.5q-45 0 -104 -69.5t-115 -192.5l-98 -612h-311l237 1518q6 28 2.5 49.5t-18 36.5t-50 22.5t-94.5 7.5z" />
    <glyph glyph-name="i" unicode="i" horiz-adv-x="692" 
d="M532 723l-96 -492q-10 -51 -10 -81t8 -41t23 -11q25 0 66.5 32t78.5 77l31 -23q-34 -49 -49.5 -70t-46 -55.5t-54.5 -49t-60 -26.5t-77 -12q-137 0 -190.5 90.5t-14.5 284.5l86 426q13 66 10 92.5t-22 26.5q-24 0 -67.5 -18.5t-94.5 -59.5l-22 29q91 100 191 144t165 44
q104 0 141 -71t4 -236zM256 1473q0 83 59 141.5t142 58.5t141.5 -58.5t58.5 -141.5t-58.5 -142t-141.5 -59t-142 59t-59 142z" />
    <glyph glyph-name="j" unicode="j" horiz-adv-x="651" 
d="M555 723l-96 -530q-24 -130 -53.5 -223.5t-74 -176.5t-113 -152t-159.5 -134t-223 -138l-16 23q125 116 196 294t136 533l100 553q12 66 8.5 92.5t-22.5 26.5q-24 0 -67.5 -18.5t-94.5 -59.5l-23 29q91 100 191.5 144t165.5 44q103 0 139 -70t6 -237zM287 1473
q0 83 58.5 141.5t141.5 58.5t142 -58.5t59 -141.5t-59 -142t-142 -59t-141.5 59t-58.5 142z" />
    <glyph glyph-name="k" unicode="k" horiz-adv-x="1165" 
d="M385 0h-311l243 1518q6 28 3 49.5t-18 36.5t-50 22.5t-94 7.5l6 39h489l-176 -1095h31q142 0 213.5 73t71.5 203q0 176 139 176q48 0 76 -29.5t28 -87.5q0 -95 -120 -203t-279 -141q63 -9 110.5 -28.5t77 -44t50.5 -60t32 -69t19 -78.5l6 -35q38 -224 250 -207l4 -31
q-147 -47 -230 -47q-146 0 -222 57t-109 203l-11 47q-4 19 -12 58t-12.5 59.5t-15.5 50.5t-23 46.5t-32.5 31t-47.5 19.5z" />
    <glyph glyph-name="l" unicode="l" horiz-adv-x="647" 
d="M86 346l195 1172q6 28 2.5 49.5t-18 36.5t-50 22.5t-94.5 7.5l6 39h489l-237 -1442q-11 -78 -6 -105.5t28 -27.5q27 0 79.5 33.5t86.5 75.5l31 -23q-72 -104 -143.5 -158.5t-169.5 -54.5q-139 0 -185.5 84.5t-13.5 290.5z" />
    <glyph glyph-name="m" unicode="m" horiz-adv-x="1853" 
d="M1087 569l-83 -569h-312l84 573q45 301 -37 301q-45 0 -104 -69.5t-115 -192.5l-98 -612h-311l122 772q19 119 -18 119q-24 0 -67.5 -18.5t-94.5 -59.5l-22 29q91 100 191 144t165 44q53 0 85 -15t53.5 -54.5t20 -108t-17.5 -176.5q60 174 158 264t217 90
q77 0 124.5 -28.5t64.5 -75.5t20.5 -108.5t-8.5 -127.5q62 167 158 253.5t213 86.5q43 0 76.5 -9.5t57 -23.5t39 -39.5t24.5 -48.5t11.5 -60t2 -64.5t-6 -71.5t-10 -71t-12.5 -73l-62 -338q-23 -133 25 -133q27 0 79.5 33.5t86.5 75.5l31 -23q-72 -104 -144 -158.5
t-170 -54.5q-139 0 -186.5 85t-11.5 290l41 227q5 26 8 51t7 62.5t3.5 68t-4.5 59t-16.5 44.5t-32.5 16q-45 0 -102.5 -67t-112.5 -186z" />
    <glyph glyph-name="n" unicode="n" horiz-adv-x="1282" 
d="M53 813l-22 29q91 100 191 144t165 44q53 0 85 -15t53.5 -54.5t20 -108t-17.5 -176.5q60 174 158 264t217 90q63 0 107 -16t64.5 -58t32 -72t6 -101.5t-9.5 -100.5t-18 -111v-2l-57 -338q-12 -78 -7 -105.5t28 -27.5q27 0 79 33.5t86 75.5l31 -23q-72 -104 -143.5 -158.5
t-169.5 -54.5q-139 0 -187 85t-12 290l41 227q5 26 8 51t7 62.5t3.5 68t-4.5 59t-16.5 44.5t-32.5 16q-45 0 -104 -69.5t-115 -192.5l-98 -612h-311l125 772q19 119 -21 119q-24 0 -67.5 -18.5t-94.5 -59.5z" />
    <glyph glyph-name="o" unicode="o" 
d="M41 311q0 113 40 223.5t107.5 198t152 155.5t179 105t182.5 37q107 0 186.5 -30t122.5 -81t63 -108t20 -121q0 -95 -28.5 -188.5t-76.5 -171.5t-113.5 -145.5t-138.5 -114t-151.5 -73t-151.5 -26.5q-87 0 -156 20t-112.5 53t-72.5 78.5t-40.5 91.5t-11.5 97zM375 365
q0 -75 4.5 -130.5t15.5 -108t35 -80.5t59 -28q57 0 105 48t78 119.5t51.5 158.5t30 161.5t8.5 131.5q0 74 -4.5 130t-17 106.5t-36.5 78t-59 27.5q-57 0 -105 -47.5t-77.5 -118.5t-50 -157t-29 -160t-8.5 -131z" />
    <glyph glyph-name="p" unicode="p" horiz-adv-x="1263" 
d="M59 -451l193 1223q10 66 6.5 92.5t-22.5 26.5q-24 0 -67.5 -18.5t-94.5 -59.5l-23 29q91 100 191.5 144t165.5 44q96 0 131.5 -59t17.5 -221q73 151 170 216.5t191 65.5q78 0 139.5 -30t96 -78.5t52 -103t17.5 -111.5q0 -113 -40.5 -226t-108 -203t-150 -161t-170 -109.5
t-164.5 -38.5q-84 0 -146 35l-71 -457q-9 -57 22 -83.5t142 -26.5l-7 -39h-653l6 39q67 0 105.5 15t51.5 36.5t19 58.5zM616 20q56 0 104.5 48t80.5 120t55 158t33 161.5t10 131.5q0 254 -108 254q-17 0 -42 -10t-58 -32.5t-71.5 -69.5t-72.5 -111l-76 -486
q20 -79 62 -121.5t83 -42.5z" />
    <glyph glyph-name="q" unicode="q" horiz-adv-x="1202" 
d="M1141 1030l-242 -1481q-4 -33 -4 -57.5t33.5 -38.5t109.5 -14l-6 -39h-653l6 39q184 0 201 110l112 684q-72 -131 -168 -196.5t-204 -65.5q-67 0 -119 20.5t-82.5 52t-50 76t-26.5 86.5t-7 89q0 147 58.5 283t150.5 230t206 150t224 56q78 0 156 -41l16 57h289zM479 115
q115 0 228 174l81 495q-1 105 -30 146t-80 41q-75 0 -150.5 -110.5t-120.5 -263.5t-45 -280q0 -92 29 -147t88 -55z" />
    <glyph glyph-name="r" unicode="r" horiz-adv-x="935" 
d="M506 528l-84 -528h-311l120 772q10 66 6.5 92.5t-22.5 26.5q-24 0 -67.5 -18.5t-94.5 -59.5l-22 29q91 100 191 144t165 44q102 0 134.5 -90t-1.5 -305q38 111 82 191.5t79 120.5t74 62.5t60 26.5t45 4q37 0 62.5 -12.5t36 -32.5t14.5 -36.5t4 -34.5q0 -135 -139 -160
q-13 -2 -47.5 -3t-60 -3t-62 -15t-64 -35.5t-54.5 -68.5t-44 -111z" />
    <glyph glyph-name="s" unicode="s" horiz-adv-x="952" 
d="M535 666l69 -58q113 -92 168 -166.5t55 -150.5q0 -82 -39 -146t-100.5 -100.5t-130 -55t-135.5 -18.5q-88 0 -167.5 19t-136.5 63.5t-57 106.5q0 55 35.5 89t98.5 34q50 0 85.5 -28t54 -67.5t34 -79.5t36 -68t48.5 -28q47 0 79.5 37.5t32.5 110.5q0 37 -8.5 66.5
t-32 59.5t-47 52t-69.5 61l-95 80q-170 146 -170 291q0 84 55.5 144.5t140.5 88t187 27.5q47 0 102.5 -9t111.5 -27t93 -51t37 -75q0 -45 -28.5 -81.5t-81.5 -36.5q-42 0 -73 17.5t-48 43.5t-33.5 56.5t-30 56.5t-37.5 43.5t-55 17.5q-36 0 -60 -33.5t-24 -81.5
q0 -94 136 -204z" />
    <glyph glyph-name="t" unicode="t" horiz-adv-x="780" 
d="M141 299l103 633l-152 16l6 37h178l316 297h22l-51 -297h295l-8 -53h-295l-113 -701q-11 -78 -6 -105.5t27 -27.5q33 0 85 27t101 82l31 -23q-72 -104 -143.5 -158.5t-169.5 -54.5q-140 0 -197.5 79t-28.5 249z" />
    <glyph glyph-name="u" unicode="u" horiz-adv-x="1280" 
d="M725 328q-60 -174 -158 -264.5t-217 -90.5q-63 0 -106.5 17t-64 55.5t-31 73t-6.5 98.5t9 101t18 110q1 4 1 6l59 338q12 66 8.5 92.5t-22.5 26.5q-24 0 -67.5 -18.5t-94.5 -59.5l-22 29q91 100 191 144t165 44q53 0 85.5 -15t52.5 -54t19.5 -109t-20.5 -176l-45 -246
q-5 -26 -8 -51t-7 -62.5t-3.5 -68t4.5 -59t16.5 -44.5t32.5 -16q45 0 104 69.5t115 192.5l107 613h311l-133 -773q-23 -133 29 -133q27 0 79 33.5t86 75.5l31 -23q-72 -104 -143.5 -158.5t-169.5 -54.5q-51 0 -88 10t-66.5 34.5t-42.5 65.5t-17.5 102t9.5 145z" />
    <glyph glyph-name="v" unicode="v" horiz-adv-x="1009" 
d="M244 -70l-13 13q11 58 12 211.5t-8 321.5t-40 296.5t-78 128.5q-26 0 -53 -24.5t-62 -96.5l-33 17q26 73 60.5 121.5t74 71.5t74.5 31.5t76 8.5q65 0 115 -28t82 -74.5t52 -117.5t28.5 -144.5t9 -169t-4.5 -178t-14 -183.5q248 207 293 391q8 35 8 66t-5 52.5t-18.5 45
t-24.5 37.5t-30 35q-47 56 -57 118t26.5 106t112.5 44q142 0 142 -209q0 -126 -51.5 -261.5t-143 -257.5t-230 -222t-300.5 -150z" />
    <glyph glyph-name="w" unicode="w" horiz-adv-x="1632" 
d="M1163 383l217 346q31 50 48 79t29 56.5t10.5 41t-13 24t-33.5 13.5t-59 3l4 39h389l-4 -39q-88 0 -150 -45.5t-133 -155.5l-507 -788h-41l-117 735l-469 -735h-39l-133 881q-6 33 -12 50t-21 32t-40.5 20.5t-68.5 5.5l5 39h577l-4 -39q-63 0 -91 -17t-24 -55l52 -499
l260 407l-9 56q-8 61 -27.5 84.5t-72.5 23.5l4 39h557l-4 -39q-76 0 -108 -17t-27 -55z" />
    <glyph glyph-name="x" unicode="x" horiz-adv-x="1148" 
d="M268 219l197 230l-100 296q-39 116 -53 136q-11 14 -23 14q-45 0 -94 -147l-45 16q22 79 53 133.5t67.5 82t72.5 39t79 11.5q98 0 148.5 -54.5t105.5 -221.5l14 -43l162 190q53 62 106.5 95.5t92.5 33.5q69 0 69 -94q0 -48 -23 -102t-59 -95l-30 13q26 62 34 107t2 63
t-20 18q-40 0 -174 -158l-133 -153l125 -371q26 -77 45 -106t49 -29q26 0 58 36.5t55 106.5l36 -16q-43 -154 -112.5 -216.5t-165.5 -62.5t-157 54t-107 192l-51 150l-228 -267q-54 -62 -106 -95.5t-90 -33.5q-33 0 -51.5 24.5t-18.5 70.5q0 48 23 101.5t59 94.5l31 -12
q-26 -62 -34 -107t-2.5 -63.5t19.5 -18.5q40 0 174 158z" />
    <glyph glyph-name="y" unicode="y" horiz-adv-x="1132" 
d="M293 1030q81 0 143 -46t100 -128t57.5 -193.5t19 -242.5t-18.5 -275q255 277 293 396q15 62 9.5 97.5t-26 69t-43 56.5t-40 60.5t-17.5 80.5q0 56 35 90.5t104 34.5q142 0 142 -209q0 -81 -32 -171.5t-77.5 -168.5t-122.5 -175.5t-140 -167t-157 -167.5
q-568 -596 -880 -596q-116 0 -186 53t-70 136q0 42 33 74t92 32q36 0 65.5 -20.5t49 -49.5t37 -58t39 -49.5t46.5 -20.5q65 0 222.5 112.5t344.5 284.5q13 108 13.5 245.5t-11.5 274.5t-34.5 253t-59.5 188.5t-82 72.5q-26 0 -53.5 -25.5t-62.5 -97.5l-33 17q82 233 301 233
z" />
    <glyph glyph-name="z" unicode="z" horiz-adv-x="989" 
d="M1081 967l-802 -686h456l127 151h49l-174 -432h-852l-8 18l793 687h-406l-127 -152h-49l174 432h811z" />
    <glyph glyph-name="braceleft" unicode="{" horiz-adv-x="638" 
d="M31 483l4 37q77 10 137.5 55t96 111t53.5 140.5t18 150.5q0 41 -12.5 119t-12.5 118q0 89 24 161t74.5 127.5t134.5 85.5t197 30h60l-14 -92h-60q-307 0 -307 -291q0 -43 10 -127.5t10 -128.5q0 -314 -237 -477q121 -102 121 -281q0 -153 -95 -356q-65 -133 -65 -225
q0 -175 238 -175h59l-14 -92h-60q-332 0 -332 248q0 120 88 299q74 152 74 295q0 110 -46 182.5t-144 85.5z" />
    <glyph glyph-name="bar" unicode="|" horiz-adv-x="546" 
d="M96 0l256 1618h97l-256 -1618h-97z" />
    <glyph glyph-name="braceright" unicode="}" horiz-adv-x="606" 
d="M608 520l-4 -37q-77 -10 -137.5 -57t-96 -115t-53.5 -144t-18 -153q0 -41 11.5 -119t11.5 -118q0 -187 -104.5 -295.5t-323.5 -108.5h-60l14 92h60q305 0 305 291q0 43 -10 127.5t-10 128.5q0 323 239 490q-123 103 -123 272q0 147 94 352q66 135 66 226q0 174 -238 174
h-59l14 92h60q170 0 251 -67t81 -185q0 -117 -89 -295q-73 -146 -73 -291q0 -107 46.5 -177t145.5 -83z" />
    <glyph glyph-name="asciitilde" unicode="~" horiz-adv-x="1349" 
d="M397 653q57 0 119.5 -21t118 -50.5t110 -59t112 -50.5t106.5 -21q63 0 116 37.5t105 127.5l84 -34q-56 -117 -139.5 -172.5t-178.5 -55.5q-71 0 -153.5 31.5t-144.5 69t-136.5 69t-132.5 31.5q-63 0 -116 -38t-105 -130l-82 39q53 114 137.5 170.5t179.5 56.5z" />
    <glyph glyph-name="uni00A0" unicode="&#xa0;" horiz-adv-x="389" 
 />
    <glyph glyph-name="exclamdown" unicode="&#xa1;" horiz-adv-x="606" 
d="M385 -670q-193 -62 -369 0q53 262 106.5 449.5t142 433.5t118.5 338h25q-1 -116 1 -367t-2.5 -441t-21.5 -413zM213 829q0 83 59 142t142 59t141.5 -59t58.5 -142t-58.5 -141.5t-141.5 -58.5t-142 58.5t-59 141.5z" />
    <glyph glyph-name="cent" unicode="&#xa2;" horiz-adv-x="913" 
d="M811 346l33 -16q-134 -283 -363 -342l-30 -199h-84l28 184q-8 0 -24.5 -1t-24.5 -1q-133 0 -219 88t-86 260q0 105 37.5 218t103 212t165.5 173t214 98l33 207h84l-31 -199q2 0 8 1t9 1q112 0 180.5 -49t68.5 -121q0 -47 -28 -82t-88 -35q-43 0 -70 19t-38.5 48.5
t-17.5 60t-13.5 60t-20.5 42.5l-135 -858q71 4 153 57.5t156 173.5zM369 367q0 -168 53 -224l131 822q-77 -56 -130.5 -239t-53.5 -359z" />
    <glyph glyph-name="sterling" unicode="&#xa3;" horiz-adv-x="1296" 
d="M53 872l8 58h226q8 114 25 206t48 182.5t80.5 157t118.5 118t167.5 78t221.5 26.5q57 0 115.5 -11t111.5 -32t86 -58t33 -84q0 -57 -34.5 -96t-94.5 -39q-55 0 -88 29t-47 70t-24.5 82.5t-31 70.5t-56.5 29q-50 0 -91 -24.5t-68 -65t-48 -96.5t-32.5 -116t-19.5 -127
t-12 -125t-7 -115q0 -14 -0.5 -21.5t-1 -18.5t-1.5 -20h428l-8 -58h-426q0 -4 -1 -10.5t-1 -9.5q-34 -219 -179.5 -432t-338.5 -344q397 268 544 268q52 0 98.5 -15t78 -35.5t62.5 -42.5t59 -35t59.5 -14.5t71 20.5t87.5 69l23 -17q-84 -152 -179.5 -226.5t-185.5 -74.5
q-53 0 -93.5 10t-69.5 24.5t-59.5 28.5t-80.5 24t-116 10q-65 0 -138 -17t-124.5 -34.5t-131 -27.5t-157.5 5l6 35q63 -12 118.5 11.5t96 72.5t74 120t55.5 149t38.5 165t24.5 162.5t11 146.5v14h-230z" />
    <glyph glyph-name="yen" unicode="&#xa5;" horiz-adv-x="1531" 
d="M201 711l10 73h321l-239 740q-20 60 -53 83t-115 23l6 43h670l-6 -43q-83 0 -125 -16t-31 -53l227 -748l351 520q51 74 76 127t28.5 85.5t-16 51.5t-51.5 26t-83 7l7 43h505l-6 -43q-49 0 -81.5 -8.5t-75.5 -38.5t-91.5 -89t-117.5 -159l-377 -551h309l-10 -73h-346
l-35 -219h346l-12 -74h-344l-41 -262q-6 -42 4.5 -66.5t49 -37.5t112.5 -13l-6 -39h-705l6 39q108 0 151 27t52 90l41 262h-352l12 74h350l35 219h-350z" />
    <glyph glyph-name="brokenbar" unicode="&#xa6;" horiz-adv-x="546" 
d="M258 721l141 897h97l-142 -897h-96zM49 -598l141 897h97l-142 -897h-96z" />
    <glyph glyph-name="section" unicode="&#xa7;" horiz-adv-x="1353" 
d="M836 1706q57 0 129.5 -14t145.5 -40t122 -71.5t49 -101.5t-35 -91.5t-92 -35.5q-42 0 -73.5 23t-48 57.5t-36 75t-39 75t-56.5 57.5t-87 23q-101 0 -175.5 -73t-74.5 -189q0 -157 164 -225l199 -86q311 -135 311 -377q0 -158 -101.5 -269.5t-275.5 -177.5
q250 -133 250 -344q0 -141 -81 -259t-227 -188.5t-325 -70.5q-83 0 -167 15t-157 43t-119 75t-46 105q0 49 35.5 87t95.5 38q49 0 85.5 -33t61 -80t50.5 -94t67.5 -80t97.5 -33q133 0 225.5 97t92.5 216q0 160 -211 250l-168 70q-295 127 -295 366q0 151 101 265t294 168
q-121 54 -184.5 151.5t-63.5 212.5q0 139 76.5 245.5t204 162t281.5 55.5zM408 604q0 -141 186 -221l172 -72q69 -30 78 -35q48 50 78 119t30 133q0 53 -20 97.5t-56.5 76.5t-71.5 52.5t-81 40.5l-182 75q-62 -58 -97.5 -128t-35.5 -138z" />
    <glyph glyph-name="dieresis" unicode="&#xa8;" horiz-adv-x="942" 
d="M41 1366q0 76 53.5 130t130.5 54t131 -54t54 -130t-54 -130t-131 -54t-130.5 54t-53.5 130zM532 1366q0 76 54 130t131 54t130.5 -54t53.5 -130t-53.5 -130t-130.5 -54t-131 54t-54 130z" />
    <glyph glyph-name="copyright" unicode="&#xa9;" horiz-adv-x="1832" 
d="M102 784q0 222 109 409.5t296 296.5t408 109q166 0 317 -64.5t260.5 -173.5t174 -260t64.5 -317q0 -165 -64.5 -316t-174 -259.5t-260.5 -173t-317 -64.5q-221 0 -408 109t-296 296t-109 408zM193 784q0 -149 56.5 -284.5t153 -233.5t230.5 -156.5t282 -58.5
q149 0 283.5 58t230.5 156.5t152.5 234t56.5 284.5q0 200 -95.5 369.5t-262 268t-365.5 98.5q-148 0 -282 -58.5t-230.5 -157t-153 -234.5t-56.5 -286zM1292 961h-35q-16 74 -44 132t-60 93.5t-70 58.5t-71.5 32t-65.5 9q-112 0 -176.5 -128.5t-64.5 -360.5
q0 -224 63 -347.5t188 -123.5q31 0 62.5 7.5t68.5 29t68 55t59 92.5t43 135h35v-270q-145 -82 -354 -82q-109 0 -197 28t-147.5 75.5t-99.5 113t-58 138t-18 153.5q0 236 139 376t373 140q79 0 179 -19.5t183 -60.5v-276z" />
    <glyph glyph-name="ordfeminine" unicode="&#xaa;" horiz-adv-x="886" 
d="M840 1536l-107 -549q-8 -44 -6 -68t18 -24q45 0 117 90l25 -20q-47 -68 -116.5 -113t-147.5 -45q-70 0 -102 49t-23 127q-93 -176 -242 -176q-57 0 -97.5 20.5t-60.5 55t-28.5 70.5t-8.5 77q0 101 40.5 194.5t104 158.5t142 104t154.5 39q45 0 100 -25l8 35h230zM362 905
q67 0 142 117l74 371q-8 102 -78 102q-44 0 -91 -82t-76.5 -192.5t-29.5 -196.5q0 -119 59 -119z" />
    <glyph glyph-name="guillemotleft" unicode="&#xab;" horiz-adv-x="978" 
d="M825 70l-409 430l545 432h24l-313 -434l176 -428h-23zM449 70l-410 430l545 432h24l-313 -434l176 -428h-22z" />
    <glyph glyph-name="logicalnot" unicode="&#xac;" horiz-adv-x="1196" 
d="M109 438l14 97h971l-15 -97h-2l-67 -436h-105l68 436h-864z" />
    <glyph glyph-name="uni00AD" unicode="&#xad;" horiz-adv-x="806" 
d="M94 471l15 96h602l-15 -96h-602z" />
    <glyph glyph-name="registered" unicode="&#xae;" horiz-adv-x="1832" 
d="M102 784q0 222 109 409.5t296 296.5t408 109q166 0 317 -64.5t260.5 -173.5t174 -260t64.5 -317q0 -165 -64.5 -316t-174 -259.5t-260.5 -173t-317 -64.5q-221 0 -408 109t-296 296t-109 408zM193 784q0 -149 56.5 -284.5t153 -233.5t230.5 -156.5t282 -58.5
q149 0 283.5 58t230.5 156.5t152.5 234t56.5 284.5q0 200 -95.5 369.5t-262 268t-365.5 98.5q-148 0 -282 -58.5t-230.5 -157t-153 -234.5t-56.5 -286zM479 1278h373q76 0 133.5 -5t112.5 -19.5t90 -38.5t56.5 -64t21.5 -94q0 -103 -87.5 -168.5t-240.5 -75.5
q120 -3 196.5 -51t104.5 -154l8 -22q33 -130 70.5 -172t126.5 -54v-20q-88 -18 -184 -18q-124 0 -191 63t-98 188l-15 56q-10 38 -13 48.5t-12 37.5t-15 35t-17.5 21.5t-25.5 18t-33 5.5v-334q0 -50 19 -70t85 -20v-33h-465v33q66 0 85.5 20t19.5 70v696q0 48 -19.5 67
t-85.5 19v35zM840 1255v-440q80 5 119.5 52.5t39.5 168.5q0 113 -39 164.5t-120 54.5z" />
    <glyph glyph-name="macron" unicode="&#xaf;" horiz-adv-x="827" 
d="M53 1288l15 96h704l-14 -96h-705z" />
    <glyph glyph-name="degree" unicode="&#xb0;" horiz-adv-x="708" 
d="M61 1413q0 121 84.5 206t206.5 85t208.5 -85t86.5 -206t-86.5 -206t-208.5 -85t-206.5 85t-84.5 206zM164 1413q0 -80 51.5 -138t136.5 -58q87 0 140 56t53 140q0 86 -55.5 141.5t-137.5 55.5q-75 0 -131.5 -55.5t-56.5 -141.5z" />
    <glyph glyph-name="plusminus" unicode="&#xb1;" 
d="M590 973h104l-57 -344h434l-14 -97h-434l-58 -354h-104l57 354h-432l14 97h432zM2 0l14 96h971l-14 -96h-971z" />
    <glyph glyph-name="twosuperior" unicode="&#xb2;" horiz-adv-x="901" 
d="M764 879h-795q189 124 265 184q252 198 253 350q0 52 -20.5 76t-65.5 24q-88 0 -204 -94l-15 11q72 82 172.5 124.5t210.5 42.5q121 0 182.5 -43.5t61.5 -103.5q0 -49 -23.5 -91t-66 -77t-105.5 -69t-138.5 -67.5t-167.5 -71.5q-15 -6 -23 -9h256q39 0 57 0.5t45.5 2.5
t40 7.5t30 15t28 24.5t23 36t23.5 51h27z" />
    <glyph glyph-name="threesuperior" unicode="&#xb3;" horiz-adv-x="798" 
d="M184 1059l2 14q303 139 303 352q0 44 -20.5 69.5t-58.5 25.5q-46 0 -85 -20.5t-85 -65.5l-15 12q111 151 326 151q108 0 171.5 -45.5t63.5 -121.5q0 -62 -59.5 -124.5t-151.5 -105t-186 -49.5q167 -16 244.5 -84t77.5 -162q0 -65 -30.5 -129.5t-87 -119.5t-149.5 -89.5
t-206 -34.5q-221 0 -295 138l20 14q73 -90 199 -90q98 0 172 82.5t74 202.5q0 81 -54 130.5t-170 49.5z" />
    <glyph glyph-name="acute" unicode="&#xb4;" horiz-adv-x="407" 
d="M555 1597l-547 -479h-18l211 479h354z" />
    <glyph glyph-name="mu" unicode="&#xb5;" horiz-adv-x="1163" 
d="M311 973h105l-99 -637q-18 -112 43 -186t181 -74q88 0 172.5 56.5t142.5 154.5l105 686h104l-152 -973h-100l27 160q-63 -92 -145.5 -140.5t-174.5 -48.5q-69 0 -137 32t-102 101l-88 -563h-105z" />
    <glyph glyph-name="paragraph" unicode="&#xb6;" horiz-adv-x="1146" 
d="M1159 1511h-172l-278 -1751h-97l279 1751h-158l-278 -1751h-97l164 1031q-186 0 -297.5 111.5t-83.5 293.5q10 60 32.5 115t68 109.5t107.5 94.5t157 64.5t211 24.5h457z" />
    <glyph glyph-name="periodcentered" unicode="&#xb7;" horiz-adv-x="606" 
d="M102 528q0 83 59 142t142 59t142 -59t59 -142t-59 -141.5t-142 -58.5t-142 58.5t-59 141.5z" />
    <glyph glyph-name="cedilla" unicode="&#xb8;" horiz-adv-x="493" 
d="M238 -8h61l-133 -160q68 45 139 45q57 0 93 -30.5t36 -82.5q0 -65 -43 -119.5t-108 -87t-133.5 -50t-126.5 -17.5v12q70 12 127 56t84.5 94.5t27.5 93.5q0 59 -53 59q-22 0 -62 -16l-43 39z" />
    <glyph glyph-name="onesuperior" unicode="&#xb9;" horiz-adv-x="655" 
d="M141 1022l66 424q3 28 2 50t-24.5 35t-73.5 13l6 35h532l-6 -35q-72 0 -97 -24t-32 -74l-68 -428q-9 -58 7.5 -83.5t89.5 -25.5l-6 -35h-533l6 35q39 0 63.5 7t38 24t19.5 34.5t10 47.5z" />
    <glyph glyph-name="ordmasculine" unicode="&#xba;" horiz-adv-x="862" 
d="M61 1034q0 98 43.5 192.5t110.5 162t150 108.5t161 41q75 0 130.5 -21t86 -56.5t44.5 -76t14 -86.5q0 -98 -43 -192.5t-110 -161.5t-149.5 -108t-160.5 -41q-76 0 -132.5 20.5t-86.5 56t-44 76t-14 86.5zM315 1071q0 -244 62 -244q42 0 77 50t54 123t29 142t10 120
q0 241 -62 241q-42 0 -76.5 -49.5t-53.5 -122t-29.5 -141.5t-10.5 -119z" />
    <glyph glyph-name="guillemotright" unicode="&#xbb;" horiz-adv-x="978" 
d="M934 500l-543 -430h-22l313 436l-178 426h24zM559 500l-543 -430h-22l313 436l-178 426h25z" />
    <glyph glyph-name="onequarter" unicode="&#xbc;" horiz-adv-x="1734" 
d="M1538 1673l-1374 -1673h-109l1370 1673h113zM1294 311l-28 -176q-8 -56 11 -78t93 -22l-4 -35h-514l4 35q75 0 102 22.5t35 79.5l29 174h-371l766 740l-94 -594h23q47 0 80.5 13.5t55 42.5t32.5 52.5t25 64.5l3 9h31l-51 -328h-228zM868 457h185l34 215zM182 1022l66 424
q3 28 2 50t-24.5 35t-73.5 13l6 35h532l-6 -35q-72 0 -97 -24t-32 -74l-68 -428q-9 -58 7.5 -83.5t89.5 -25.5l-6 -35h-533l6 35q39 0 63.5 7t38 24t19.5 34.5t10 47.5z" />
    <glyph glyph-name="onehalf" unicode="&#xbd;" horiz-adv-x="1593" 
d="M1544 1673l-1380 -1673h-109l1377 1673h112zM182 1022l66 424q3 28 2 50t-24.5 35t-73.5 13l6 35h532l-6 -35q-72 0 -97 -24t-32 -74l-68 -428q-9 -58 7.5 -83.5t89.5 -25.5l-6 -35h-533l6 35q39 0 63.5 7t38 24t19.5 34.5t10 47.5zM1362 -2h-795q189 124 265 184
q253 198 253 350q0 52 -20.5 76.5t-65.5 24.5q-88 0 -204 -94l-15 10q72 82 173 125t210 43q121 0 182.5 -43.5t61.5 -104.5q0 -49 -23.5 -91t-66 -77t-105.5 -69t-138.5 -67.5t-167.5 -71.5q-15 -6 -23 -9h256q45 0 66 0.5t50 4.5t43 12.5t32 24t30.5 38.5t25.5 58h27z" />
    <glyph glyph-name="threequarters" unicode="&#xbe;" horiz-adv-x="1902" 
d="M1708 1673l-1376 -1673h-105l1372 1673h109zM1466 311l-28 -176q-4 -24 -4 -35q0 -35 23.5 -50t84.5 -15l-4 -35h-514l4 35q75 0 102 22.5t35 79.5l29 174h-371l766 740l-94 -594h23q47 0 80.5 13.5t55 42.5t32.5 52.5t25 64.5l3 9h31l-51 -328h-228zM1038 457h187
l32 217zM143 1059l2 14q304 140 304 352q0 43 -21 69t-59 26q-46 0 -85 -20.5t-85 -65.5l-15 12q111 151 326 151q108 0 171.5 -45.5t63.5 -121.5q0 -62 -59.5 -124.5t-151.5 -105t-186 -49.5q167 -16 244.5 -84t77.5 -162q0 -65 -30.5 -129.5t-87 -119.5t-149.5 -89.5
t-206 -34.5q-221 0 -295 138l20 14q73 -90 199 -90q98 0 172 82.5t74 202.5q0 81 -54 130.5t-170 49.5z" />
    <glyph glyph-name="questiondown" unicode="&#xbf;" horiz-adv-x="849" 
d="M446 -666q43 0 75.5 30t53.5 72t43.5 84.5t59.5 72.5t88 30q52 0 82.5 -30.5t30.5 -73.5q0 -55 -41.5 -99.5t-108 -70.5t-141 -40t-148.5 -14q-175 0 -268.5 73.5t-93.5 199.5q0 73 34.5 146t88.5 135.5t119.5 127t129 132.5t115 139t80 159t21.5 181l14 8
q74 -46 111.5 -117t37.5 -155q0 -57 -25.5 -118t-65.5 -116t-89 -113t-98 -118.5t-89 -122t-65.5 -133.5t-25.5 -144q0 -56 18 -90.5t57 -34.5zM500 829q0 83 58.5 142t141.5 59t142 -59t59 -142t-59 -141.5t-142 -58.5t-141.5 58.5t-58.5 141.5z" />
    <glyph glyph-name="Agrave" unicode="&#xc0;" horiz-adv-x="1581" 
d="M225 360l754 1387h22l338 -1561q18 -81 64.5 -112t136.5 -31l-6 -43h-715l6 43q24 0 43 1t39 5t33 10t26.5 16t18.5 24.5t8.5 34.5t-2.5 46l-65 357h-514l-107 -197q-41 -76 -56.5 -131.5t-10 -86.5t29.5 -49.5t52.5 -24t68.5 -5.5l-6 -43h-498l6 43q40 0 65 4.5t56 21.5
t60 51.5t66.5 92.5t86.5 147zM797 1249l-310 -571h414zM1051 1745l-244 479h334l-70 -479h-20z" />
    <glyph glyph-name="Aacute" unicode="&#xc1;" horiz-adv-x="1581" 
d="M225 360l754 1387h22l338 -1561q18 -81 64.5 -112t136.5 -31l-6 -43h-715l6 43q24 0 43 1t39 5t33 10t26.5 16t18.5 24.5t8.5 34.5t-2.5 46l-65 357h-514l-107 -197q-41 -76 -56.5 -131.5t-10 -86.5t29.5 -49.5t52.5 -24t68.5 -5.5l-6 -43h-498l6 43q40 0 65 4.5t56 21.5
t60 51.5t66.5 92.5t86.5 147zM797 1249l-310 -571h414zM1337 2224l-546 -479h-19l211 479h354z" />
    <glyph glyph-name="Acircumflex" unicode="&#xc2;" horiz-adv-x="1581" 
d="M225 360l754 1387h22l338 -1561q18 -81 64.5 -112t136.5 -31l-6 -43h-715l6 43q24 0 43 1t39 5t33 10t26.5 16t18.5 24.5t8.5 34.5t-2.5 46l-65 357h-514l-107 -197q-41 -76 -56.5 -131.5t-10 -86.5t29.5 -49.5t52.5 -24t68.5 -5.5l-6 -43h-498l6 43q40 0 65 4.5t56 21.5
t60 51.5t66.5 92.5t86.5 147zM797 1249l-310 -571h414zM1008 1970l-381 -225h-21l447 512l286 -512h-20z" />
    <glyph glyph-name="Atilde" unicode="&#xc3;" horiz-adv-x="1581" 
d="M1315 2128l110 117l13 -9l-152 -350h-508l-110 -117l-13 9l152 350h508zM225 360l754 1387h22l338 -1561q18 -81 64.5 -112t136.5 -31l-6 -43h-715l6 43q24 0 43 1t39 5t33 10t26.5 16t18.5 24.5t8.5 34.5t-2.5 46l-65 357h-514l-107 -197q-41 -76 -56.5 -131.5
t-10 -86.5t29.5 -49.5t52.5 -24t68.5 -5.5l-6 -43h-498l6 43q40 0 65 4.5t56 21.5t60 51.5t66.5 92.5t86.5 147zM797 1249l-310 -571h414z" />
    <glyph glyph-name="Adieresis" unicode="&#xc4;" horiz-adv-x="1581" 
d="M606 1993q0 76 54 130t131 54t130.5 -53.5t53.5 -130.5t-54 -131t-130 -54q-77 0 -131 54t-54 131zM1098 1993q0 77 54 130.5t130 53.5t130 -53.5t54 -130.5t-54 -131t-130 -54t-130 54t-54 131zM225 360l754 1387h22l338 -1561q18 -81 64.5 -112t136.5 -31l-6 -43h-715
l6 43q24 0 43 1t39 5t33 10t26.5 16t18.5 24.5t8.5 34.5t-2.5 46l-65 357h-514l-107 -197q-41 -76 -56.5 -131.5t-10 -86.5t29.5 -49.5t52.5 -24t68.5 -5.5l-6 -43h-498l6 43q40 0 65 4.5t56 21.5t60 51.5t66.5 92.5t86.5 147zM797 1249l-310 -571h414z" />
    <glyph glyph-name="Aring" unicode="&#xc5;" horiz-adv-x="1581" 
d="M225 360l754 1387h22l338 -1561q18 -81 64.5 -112t136.5 -31l-6 -43h-715l6 43q24 0 43 1t39 5t33 10t26.5 16t18.5 24.5t8.5 34.5t-2.5 46l-65 357h-514l-107 -197q-41 -76 -56.5 -131.5t-10 -86.5t29.5 -49.5t52.5 -24t68.5 -5.5l-6 -43h-498l6 43q40 0 65 4.5t56 21.5
t60 51.5t66.5 92.5t86.5 147zM797 1249l-310 -571h414zM1040 2226q78 0 132.5 -53t54.5 -127q0 -95 -70 -158t-164 -63q-82 0 -135 51t-53 127q0 92 68.5 157.5t166.5 65.5zM1030 2159q-63 0 -104 -44t-41 -108q0 -47 31 -81t81 -34q71 0 111.5 41.5t40.5 106.5
q0 50 -35.5 84.5t-83.5 34.5z" />
    <glyph glyph-name="AE" unicode="&#xc6;" horiz-adv-x="2557" 
d="M1337 1673h1237l-59 -469h-31q-6 393 -456 393h-183l-108 -692h180q44 0 78.5 5t73 21t68.5 43t58 72.5t48 108.5h28l-90 -594h-29q-1 74 -22.5 129.5t-57.5 85.5t-78 44t-89 14h-181l-102 -646q-10 -68 10.5 -90t85.5 -22h189q192 0 324 94t188 279h30l-65 -449h-1309
l6 39q106 0 149 27t52 90l107 675q-18 3 -37 3h-406l-477 -494q-54 -56 -87 -95t-56 -74.5t-23.5 -57.5t16.5 -39t57 -24t105 -7l-6 -43h-590l6 43q133 11 215 69.5t301 282.5l13 13l1075 1101l2 9q9 63 -24.5 89.5t-141.5 26.5zM1364 905h37l74 475l-459 -475h348z" />
    <glyph glyph-name="Ccedilla" unicode="&#xc7;" horiz-adv-x="1736" 
d="M909 39q230 0 385.5 116t270.5 375h28l-67 -415q-171 -86 -295 -115t-299 -29h-10l-117 -139q68 45 139 45q57 0 93 -30.5t36 -82.5q0 -65 -43 -119.5t-108 -87t-133.5 -50t-126.5 -17.5v12q70 12 127 56t84.5 94.5t27.5 93.5q0 59 -53 59q-22 0 -62 -16l-43 39l119 147
q-233 14 -411 123.5t-273.5 290t-95.5 404.5q0 205 74 378t201 290t298 182t365 65q173 0 342 -46.5t313 -125.5l-41 -391h-26q-42 220 -185.5 358.5t-345.5 138.5q-102 0 -193.5 -41t-161.5 -112t-126.5 -167t-93 -207t-55.5 -230t-19 -238q0 -295 132 -451.5t349 -156.5z
" />
    <glyph glyph-name="Egrave" unicode="&#xc8;" horiz-adv-x="1529" 
d="M252 1673h1237l-59 -469h-31q-3 239 -174 334q-55 31 -136.5 45t-222.5 14h-106l-109 -692h180q44 0 78.5 5t73 21t68.5 43t58 72.5t48 108.5h29l-90 -594h-29q-1 74 -22.5 129.5t-58 85.5t-78.5 44t-89 14h-180l-102 -646q-10 -68 10.5 -90t85.5 -22h188q192 0 324 94
t188 279h31l-66 -449h-1308l6 39q106 0 149 27t52 90l215 1362q9 63 -24.5 89.5t-141.5 26.5zM965 1745l-244 479h334l-70 -479h-20z" />
    <glyph glyph-name="Eacute" unicode="&#xc9;" horiz-adv-x="1529" 
d="M252 1673h1237l-59 -469h-31q-3 239 -174 334q-55 31 -136.5 45t-222.5 14h-106l-109 -692h180q44 0 78.5 5t73 21t68.5 43t58 72.5t48 108.5h29l-90 -594h-29q-1 74 -22.5 129.5t-58 85.5t-78.5 44t-89 14h-180l-102 -646q-10 -68 10.5 -90t85.5 -22h188q192 0 324 94
t188 279h31l-66 -449h-1308l6 39q106 0 149 27t52 90l215 1362q9 63 -24.5 89.5t-141.5 26.5zM1372 2224l-547 -479h-18l211 479h354z" />
    <glyph glyph-name="Ecircumflex" unicode="&#xca;" horiz-adv-x="1529" 
d="M252 1673h1237l-59 -469h-31q-3 239 -174 334q-55 31 -136.5 45t-222.5 14h-106l-109 -692h180q44 0 78.5 5t73 21t68.5 43t58 72.5t48 108.5h29l-90 -594h-29q-1 74 -22.5 129.5t-58 85.5t-78.5 44t-89 14h-180l-102 -646q-10 -68 10.5 -90t85.5 -22h188q192 0 324 94
t188 279h31l-66 -449h-1308l6 39q106 0 149 27t52 90l215 1362q9 63 -24.5 89.5t-141.5 26.5zM981 1970l-381 -225h-20l446 512l287 -512h-21z" />
    <glyph glyph-name="Edieresis" unicode="&#xcb;" horiz-adv-x="1529" 
d="M252 1673h1237l-59 -469h-31q-3 239 -174 334q-55 31 -136.5 45t-222.5 14h-106l-109 -692h180q44 0 78.5 5t73 21t68.5 43t58 72.5t48 108.5h29l-90 -594h-29q-1 74 -22.5 129.5t-58 85.5t-78.5 44t-89 14h-180l-102 -646q-10 -68 10.5 -90t85.5 -22h188q192 0 324 94
t188 279h31l-66 -449h-1308l6 39q106 0 149 27t52 90l215 1362q9 63 -24.5 89.5t-141.5 26.5zM444 1993q0 76 54 130t131 54t130.5 -53.5t53.5 -130.5t-54 -131t-130 -54q-77 0 -131 54t-54 131zM1100 1993q0 77 54 130.5t130 53.5t130 -53.5t54 -130.5t-54 -131t-130 -54
t-130 54t-54 131z" />
    <glyph glyph-name="Igrave" unicode="&#xcc;" horiz-adv-x="923" 
d="M197 156l215 1362q9 63 -24.5 89.5t-141.5 26.5l6 39h704l-6 -39q-108 0 -150.5 -26.5t-51.5 -89.5l-216 -1362q-6 -42 4.5 -66.5t49 -37.5t112.5 -13l-6 -39h-702l6 39q106 0 149 27t52 90zM702 1745l-243 479h334l-70 -479h-21z" />
    <glyph glyph-name="Iacute" unicode="&#xcd;" horiz-adv-x="923" 
d="M197 156l215 1362q9 63 -24.5 89.5t-141.5 26.5l6 39h704l-6 -39q-108 0 -150.5 -26.5t-51.5 -89.5l-216 -1362q-6 -42 4.5 -66.5t49 -37.5t112.5 -13l-6 -39h-702l6 39q106 0 149 27t52 90zM971 2224l-547 -479h-18l210 479h355z" />
    <glyph glyph-name="Icircumflex" unicode="&#xce;" horiz-adv-x="923" 
d="M197 156l215 1362q9 63 -24.5 89.5t-141.5 26.5l6 39h704l-6 -39q-108 0 -150.5 -26.5t-51.5 -89.5l-216 -1362q-6 -42 4.5 -66.5t49 -37.5t112.5 -13l-6 -39h-702l6 39q106 0 149 27t52 90zM629 1970l-381 -225h-21l447 512l287 -512h-21z" />
    <glyph glyph-name="Idieresis" unicode="&#xcf;" horiz-adv-x="923" 
d="M213 1991q0 77 53.5 130.5t130.5 53.5t131 -54t54 -130q0 -77 -54 -131t-131 -54q-76 0 -130 54t-54 131zM705 1991q0 77 53.5 130.5t130.5 53.5t130.5 -53.5t53.5 -130.5t-54 -131t-130 -54t-130 54t-54 131zM197 156l215 1362q9 63 -24.5 89.5t-141.5 26.5l6 39h704
l-6 -39q-108 0 -150.5 -26.5t-51.5 -89.5l-216 -1362q-6 -42 4.5 -66.5t49 -37.5t112.5 -13l-6 -39h-702l6 39q106 0 149 27t52 90z" />
    <glyph glyph-name="Eth" unicode="&#xd0;" horiz-adv-x="1863" 
d="M18 815l11 86h276l98 617q9 61 -14.5 88.5t-87.5 27.5h-63l6 39h622q457 0 696.5 -190t239.5 -520q0 -213 -75 -392t-210.5 -305t-333 -196t-435.5 -70h-766l6 39h61q64 0 97 28t42 89l105 659h-275zM754 1612l-113 -711h317l-12 -86h-319l-95 -602q-14 -88 -9 -109
q8 -32 60 -40q36 -5 124 -5q146 0 281 68t238.5 188.5t165.5 300t62 388.5q0 132 -34.5 237.5t-92.5 173.5t-139 113.5t-169 64.5t-188 19h-77z" />
    <glyph glyph-name="Ntilde" unicode="&#xd1;" horiz-adv-x="1818" 
d="M1423 -29h-69l-858 1387l-168 -1059q-42 -260 180 -260l-6 -39h-539l6 39q114 0 181 67.5t88 192.5l180 1145q13 82 -31 129.5t-131 52.5l-41 2l6 45h492l712 -1171l131 884q37 248 -182 248l6 39h541l-6 -39q-115 0 -182 -65.5t-86 -182.5zM1499 2128l111 117l12 -9
l-152 -350h-692l-110 -117l-13 9l152 350h692z" />
    <glyph glyph-name="Ograve" unicode="&#xd2;" horiz-adv-x="1918" 
d="M1028 1642q-87 0 -168.5 -41t-146.5 -112t-119 -167.5t-90 -206.5t-56 -230t-20 -238q0 -298 123 -453t338 -155q128 0 240.5 81t191.5 218t124.5 322t45.5 389q0 291 -124.5 442t-338.5 151zM1012 1708q252 0 440.5 -104.5t286.5 -288.5t98 -422q0 -204 -72.5 -378
t-197 -292.5t-294.5 -185t-362 -66.5q-251 0 -440.5 107.5t-289 293t-99.5 421.5q0 205 72.5 378t198 290t296 182t363.5 65zM1180 1745l-244 479h334l-70 -479h-20z" />
    <glyph glyph-name="Oacute" unicode="&#xd3;" horiz-adv-x="1918" 
d="M1028 1642q-87 0 -168.5 -41t-146.5 -112t-119 -167.5t-90 -206.5t-56 -230t-20 -238q0 -298 123 -453t338 -155q128 0 240.5 81t191.5 218t124.5 322t45.5 389q0 291 -124.5 442t-338.5 151zM1012 1708q252 0 440.5 -104.5t286.5 -288.5t98 -422q0 -204 -72.5 -378
t-197 -292.5t-294.5 -185t-362 -66.5q-251 0 -440.5 107.5t-289 293t-99.5 421.5q0 205 72.5 378t198 290t296 182t363.5 65zM1528 2224l-547 -479h-18l211 479h354z" />
    <glyph glyph-name="Ocircumflex" unicode="&#xd4;" horiz-adv-x="1918" 
d="M1028 1642q-87 0 -168.5 -41t-146.5 -112t-119 -167.5t-90 -206.5t-56 -230t-20 -238q0 -298 123 -453t338 -155q128 0 240.5 81t191.5 218t124.5 322t45.5 389q0 291 -124.5 442t-338.5 151zM1012 1708q252 0 440.5 -104.5t286.5 -288.5t98 -422q0 -204 -72.5 -378
t-197 -292.5t-294.5 -185t-362 -66.5q-251 0 -440.5 107.5t-289 293t-99.5 421.5q0 205 72.5 378t198 290t296 182t363.5 65zM1141 1970l-381 -225h-21l447 512l287 -512h-21z" />
    <glyph glyph-name="Otilde" unicode="&#xd5;" horiz-adv-x="1918" 
d="M1540 2128l111 117l12 -9l-152 -350h-692l-110 -117l-13 9l152 350h692zM1028 1642q-87 0 -168.5 -41t-146.5 -112t-119 -167.5t-90 -206.5t-56 -230t-20 -238q0 -298 123 -453t338 -155q128 0 240.5 81t191.5 218t124.5 322t45.5 389q0 291 -124.5 442t-338.5 151z
M1012 1708q252 0 440.5 -104.5t286.5 -288.5t98 -422q0 -204 -72.5 -378t-197 -292.5t-294.5 -185t-362 -66.5q-251 0 -440.5 107.5t-289 293t-99.5 421.5q0 205 72.5 378t198 290t296 182t363.5 65z" />
    <glyph glyph-name="Odieresis" unicode="&#xd6;" horiz-adv-x="1918" 
d="M1028 1642q-87 0 -168.5 -41t-146.5 -112t-119 -167.5t-90 -206.5t-56 -230t-20 -238q0 -298 123 -453t338 -155q128 0 240.5 81t191.5 218t124.5 322t45.5 389q0 291 -124.5 442t-338.5 151zM1012 1708q252 0 440.5 -104.5t286.5 -288.5t98 -422q0 -204 -72.5 -378
t-197 -292.5t-294.5 -185t-362 -66.5q-251 0 -440.5 107.5t-289 293t-99.5 421.5q0 205 72.5 378t198 290t296 182t363.5 65zM627 1993q0 77 53.5 130.5t130.5 53.5t130.5 -53.5t53.5 -130.5t-54 -131t-130 -54t-130 54t-54 131zM1282 1993q0 77 54 130.5t130 53.5
q77 0 131 -54t54 -130q0 -77 -54.5 -131t-130.5 -54t-130 54t-54 131z" />
    <glyph glyph-name="multiply" unicode="&#xd7;" horiz-adv-x="1089" 
d="M985 965l59 -72l-432 -373l314 -373l-80 -67l-314 371l-428 -371l-57 72l426 370l-313 375l80 70l313 -377z" />
    <glyph glyph-name="Oslash" unicode="&#xd8;" horiz-adv-x="1918" 
d="M1012 1708q331 0 547 -176l165 172h119l-223 -229q105 -108 161 -257t56 -325q0 -204 -72.5 -378t-197 -292.5t-294.5 -185t-362 -66.5q-345 0 -563 193l-160 -164h-114l215 221q-100 109 -153.5 256t-53.5 316q0 205 72.5 378t198 290t296 182t363.5 65zM1491 1049
q0 136 -33 258l-971 -1000q55 -132 158.5 -200t243.5 -68q128 0 240.5 81t191.5 218t124.5 322t45.5 389zM1028 1642q-87 0 -168.5 -41t-146.5 -112t-119 -167.5t-90 -206.5t-56 -230t-20 -238q0 -148 29 -252l968 1000q-58 123 -159.5 185t-237.5 62z" />
    <glyph glyph-name="Ugrave" unicode="&#xd9;" horiz-adv-x="1761" 
d="M1606 1356l-113 -705q-25 -162 -78 -284.5t-139.5 -212.5t-214.5 -136.5t-295 -46.5q-326 0 -468 172t-91 488l139 887q9 63 -24.5 89.5t-141.5 26.5l6 39h705l-6 -39q-108 0 -151 -26.5t-52 -89.5l-143 -904q-40 -255 44.5 -393.5t284.5 -138.5q447 0 537 573l111 701
q22 140 -21.5 209t-157.5 69l6 39h541l-6 -39q-227 0 -272 -278zM1143 1745l-244 479h334l-70 -479h-20z" />
    <glyph glyph-name="Uacute" unicode="&#xda;" horiz-adv-x="1761" 
d="M1606 1356l-113 -705q-25 -162 -78 -284.5t-139.5 -212.5t-214.5 -136.5t-295 -46.5q-326 0 -468 172t-91 488l139 887q9 63 -24.5 89.5t-141.5 26.5l6 39h705l-6 -39q-108 0 -151 -26.5t-52 -89.5l-143 -904q-40 -255 44.5 -393.5t284.5 -138.5q447 0 537 573l111 701
q22 140 -21.5 209t-157.5 69l6 39h541l-6 -39q-227 0 -272 -278zM1573 2224l-547 -479h-18l211 479h354z" />
    <glyph glyph-name="Ucircumflex" unicode="&#xdb;" horiz-adv-x="1761" 
d="M1606 1356l-113 -705q-25 -162 -78 -284.5t-139.5 -212.5t-214.5 -136.5t-295 -46.5q-326 0 -468 172t-91 488l139 887q9 63 -24.5 89.5t-141.5 26.5l6 39h705l-6 -39q-108 0 -151 -26.5t-52 -89.5l-143 -904q-40 -255 44.5 -393.5t284.5 -138.5q447 0 537 573l111 701
q22 140 -21.5 209t-157.5 69l6 39h541l-6 -39q-227 0 -272 -278zM1141 1970l-381 -225h-21l447 512l287 -512h-21z" />
    <glyph glyph-name="Udieresis" unicode="&#xdc;" horiz-adv-x="1761" 
d="M1606 1356l-113 -705q-25 -162 -78 -284.5t-139.5 -212.5t-214.5 -136.5t-295 -46.5q-326 0 -468 172t-91 488l139 887q9 63 -24.5 89.5t-141.5 26.5l6 39h705l-6 -39q-108 0 -151 -26.5t-52 -89.5l-143 -904q-40 -255 44.5 -393.5t284.5 -138.5q447 0 537 573l111 701
q22 140 -21.5 209t-157.5 69l6 39h541l-6 -39q-227 0 -272 -278zM627 1993q0 77 53.5 130.5t130.5 53.5t130.5 -53.5t53.5 -130.5t-54 -131t-130 -54t-130 54t-54 131zM1282 1993q0 77 54 130.5t130 53.5q77 0 131 -54t54 -130q0 -77 -54.5 -131t-130.5 -54t-130 54t-54 131
z" />
    <glyph glyph-name="Yacute" unicode="&#xdd;" horiz-adv-x="1531" 
d="M465 156l88 563h2l-262 805q-20 60 -53 83t-115 23l6 43h670l-6 -43q-83 0 -125 -16t-31 -53l227 -748l351 520q51 74 76 127t28.5 85.5t-16 51.5t-51.5 26t-83 7l7 43h505l-6 -43q-49 0 -81.5 -8.5t-75.5 -38.5t-91.5 -89t-117.5 -159l-422 -616l-88 -563
q-6 -42 4.5 -66.5t49 -37.5t112.5 -13l-6 -39h-705l6 39q108 0 151 27t52 90zM1458 2224l-547 -479h-18l211 479h354z" />
    <glyph glyph-name="Thorn" unicode="&#xde;" horiz-adv-x="1437" 
d="M709 1518l-25 -152h86q140 0 258 -22.5t216 -70t154 -131.5t56 -196q0 -116 -41 -206.5t-108.5 -148t-161 -94.5t-191.5 -52t-207 -15q-101 0 -206 19q-47 -303 -47 -322q0 -46 41 -67t147 -21l-6 -39h-723l6 39q106 0 149 27t52 90q217 1372 217 1390q0 46 -37 67
t-131 21l6 39h727l-6 -39q-111 0 -163.5 -27.5t-61.5 -88.5zM750 1303h-76l-129 -822q20 -2 61 -2q239 0 368.5 121t129.5 363q0 161 -95.5 250.5t-258.5 89.5z" />
    <glyph glyph-name="germandbls" unicode="&#xdf;" horiz-adv-x="1421" 
d="M-162 -625q-82 0 -162.5 20.5t-140 66.5t-59.5 108q0 51 34.5 88t100.5 37q49 0 83.5 -29t53 -70t33 -82.5t34 -70.5t46.5 -29q64 0 126 112.5t101 358.5l199 1245q40 254 204.5 408t391.5 154q113 0 210.5 -22.5t160.5 -69t63 -107.5q0 -57 -25 -101t-64.5 -71.5
t-87.5 -49.5t-95.5 -41t-87 -39.5t-64.5 -51t-25 -70.5q0 -39 21.5 -84t55 -84.5t62.5 -68.5t56 -50l61 -49q215 -172 215 -350q0 -77 -34.5 -149.5t-98 -131.5t-164 -95t-221.5 -36q-76 0 -143 17.5t-116.5 62t-49.5 109.5q0 55 33 91t88 36q53 0 85 -28t44 -68.5
t20.5 -80.5t26 -68t49.5 -28q67 0 114.5 75t47.5 167q0 134 -131 238l-70 57q-155 128 -155 287q0 58 20 110t51.5 91.5t70 77.5t77 77.5t70 82t51.5 99.5t20 123q0 61 -45.5 102t-116.5 41q-39 0 -74 -23.5t-69 -75.5t-62.5 -144.5t-48.5 -220.5l-198 -1246
q-20 -123 -66.5 -221t-105.5 -159.5t-131 -102.5t-138 -57.5t-131 -16.5z" />
    <glyph glyph-name="agrave" unicode="&#xe0;" horiz-adv-x="1249" 
d="M1139 1030l-152 -799q-25 -133 17 -133q64 0 170 129l34 -26q-73 -106 -157.5 -168t-194.5 -62q-104 0 -149 72t-31 188q-136 -260 -350 -260q-67 0 -119 20.5t-82.5 52t-50 76t-26.5 86.5t-7 89q0 147 58.5 283t150.5 230t206 150t224 56q74 0 147 -37l13 53h299z
M479 115q96 0 207 174l105 545q-15 137 -113 137q-75 0 -150.5 -110.5t-120.5 -263.5t-45 -280q0 -92 29 -147t88 -55zM803 1118l-244 479h334l-70 -479h-20z" />
    <glyph glyph-name="aacute" unicode="&#xe1;" horiz-adv-x="1249" 
d="M1139 1030l-152 -799q-25 -133 17 -133q64 0 170 129l34 -26q-73 -106 -157.5 -168t-194.5 -62q-104 0 -149 72t-31 188q-136 -260 -350 -260q-67 0 -119 20.5t-82.5 52t-50 76t-26.5 86.5t-7 89q0 147 58.5 283t150.5 230t206 150t224 56q74 0 147 -37l13 53h299z
M479 115q96 0 207 174l105 545q-15 137 -113 137q-75 0 -150.5 -110.5t-120.5 -263.5t-45 -280q0 -92 29 -147t88 -55zM1196 1597l-547 -479h-18l211 479h354z" />
    <glyph glyph-name="acircumflex" unicode="&#xe2;" horiz-adv-x="1249" 
d="M1139 1030l-152 -799q-25 -133 17 -133q64 0 170 129l34 -26q-73 -106 -157.5 -168t-194.5 -62q-104 0 -149 72t-31 188q-136 -260 -350 -260q-67 0 -119 20.5t-82.5 52t-50 76t-26.5 86.5t-7 89q0 147 58.5 283t150.5 230t206 150t224 56q74 0 147 -37l13 53h299z
M479 115q96 0 207 174l105 545q-15 137 -113 137q-75 0 -150.5 -110.5t-120.5 -263.5t-45 -280q0 -92 29 -147t88 -55zM803 1343l-381 -225h-21l447 512l287 -512h-21z" />
    <glyph glyph-name="atilde" unicode="&#xe3;" horiz-adv-x="1249" 
d="M1139 1030l-152 -799q-25 -133 17 -133q64 0 170 129l34 -26q-73 -106 -157.5 -168t-194.5 -62q-104 0 -149 72t-31 188q-136 -260 -350 -260q-67 0 -119 20.5t-82.5 52t-50 76t-26.5 86.5t-7 89q0 147 58.5 283t150.5 230t206 150t224 56q74 0 147 -37l13 53h299z
M479 115q96 0 207 174l105 545q-15 137 -113 137q-75 0 -150.5 -110.5t-120.5 -263.5t-45 -280q0 -92 29 -147t88 -55zM1106 1491l111 117l14 -9l-152 -339h-528l-111 -117l-12 8l150 340h528z" />
    <glyph glyph-name="adieresis" unicode="&#xe4;" horiz-adv-x="1249" 
d="M1139 1030l-152 -799q-25 -133 17 -133q64 0 170 129l34 -26q-73 -106 -157.5 -168t-194.5 -62q-104 0 -149 72t-31 188q-136 -260 -350 -260q-67 0 -119 20.5t-82.5 52t-50 76t-26.5 86.5t-7 89q0 147 58.5 283t150.5 230t206 150t224 56q74 0 147 -37l13 53h299z
M479 115q96 0 207 174l105 545q-15 137 -113 137q-75 0 -150.5 -110.5t-120.5 -263.5t-45 -280q0 -92 29 -147t88 -55zM358 1366q0 76 54 130t131 54t130.5 -54t53.5 -130t-53.5 -130t-130.5 -54t-131 54t-54 130zM850 1366q0 76 54 130t130 54q77 0 131 -54t54 -130
t-54 -130t-131 -54q-76 0 -130 54t-54 130z" />
    <glyph glyph-name="aring" unicode="&#xe5;" horiz-adv-x="1249" 
d="M1139 1030l-152 -799q-25 -133 17 -133q64 0 170 129l34 -26q-73 -106 -157.5 -168t-194.5 -62q-104 0 -149 72t-31 188q-136 -260 -350 -260q-67 0 -119 20.5t-82.5 52t-50 76t-26.5 86.5t-7 89q0 147 58.5 283t150.5 230t206 150t224 56q74 0 147 -37l13 53h299z
M479 115q96 0 207 174l105 545q-15 137 -113 137q-75 0 -150.5 -110.5t-120.5 -263.5t-45 -280q0 -92 29 -147t88 -55zM848 1599q78 0 132 -53t54 -127q0 -96 -69.5 -158.5t-163.5 -62.5q-82 0 -135.5 51t-53.5 127q0 92 69 157.5t167 65.5zM838 1532q-64 0 -105 -44
t-41 -108q0 -47 31.5 -80.5t81.5 -33.5q71 0 111 41t40 106q0 50 -35 84.5t-83 34.5z" />
    <glyph glyph-name="ae" unicode="&#xe6;" horiz-adv-x="1593" 
d="M680 1014q22 0 48.5 -4.5t67.5 -17t81 -43.5t67 -77q181 158 373 158q62 0 110.5 -10.5t77 -26.5t47 -38t25 -41.5t6.5 -39.5q0 -41 -15 -78t-38 -65.5t-62.5 -56.5t-75.5 -47.5t-90.5 -42.5t-94 -37.5t-100 -36.5t-95.5 -35q-8 -49 -8 -108q0 -130 39.5 -191t101.5 -61
q69 0 156 60.5t165 186.5l33 -16q-178 -375 -502 -375q-120 0 -198 77.5t-90 225.5q-75 -163 -169.5 -233t-213.5 -70q-67 0 -119 20.5t-82.5 52t-50 76t-26.5 86.5t-7 89q0 147 58.5 283t150.5 230t206 150t224 56zM479 115q18 0 38.5 7.5t49.5 27.5t66 64t74 108
q0 80 34 251l50 261q-15 137 -113 137q-75 0 -150.5 -110.5t-120.5 -263.5t-45 -280q0 -92 29 -147t88 -55zM1110 819q-69 -164 -94 -321q164 88 230.5 172t66.5 180q0 135 -56 135q-38 0 -77 -46.5t-70 -119.5z" />
    <glyph glyph-name="ccedilla" unicode="&#xe7;" horiz-adv-x="913" 
d="M811 346l33 -16q-165 -347 -473 -357l-117 -141q68 45 139 45q57 0 93 -30.5t36 -82.5q0 -65 -43 -119.5t-108 -87t-133.5 -50t-126.5 -17.5v12q70 12 127 56t84.5 94.5t27.5 93.5q0 59 -53 59q-21 0 -61 -16l-43 39l116 145q-120 11 -194 98t-74 248q0 92 28 191.5
t83.5 191.5t129.5 165.5t174 118t208 44.5q112 0 180.5 -49t68.5 -121q0 -47 -28 -82t-88 -35q-49 0 -77.5 25t-38 60.5t-15.5 71t-19.5 60.5t-40.5 25q-62 0 -118.5 -100.5t-87.5 -242.5t-31 -275q0 -252 125 -252q45 0 93 18.5t109.5 73t114.5 139.5z" />
    <glyph glyph-name="egrave" unicode="&#xe8;" horiz-adv-x="940" 
d="M41 319q0 137 52 268.5t137.5 228t200 155.5t233.5 59q62 0 110.5 -10.5t77 -26.5t47 -38t25 -41.5t6.5 -39.5q0 -40 -15 -77t-36 -64.5t-61 -56t-72 -47t-88.5 -42.5t-91 -36.5t-98 -35.5t-93.5 -34q-6 -59 -6 -114q0 -252 125 -252q69 0 156 60.5t165 186.5l33 -16
q-178 -375 -502 -375q-133 0 -219 88t-86 260zM457 819q-58 -138 -80 -313q156 85 219 167.5t63 176.5q0 135 -55 135q-38 0 -77 -46.5t-70 -119.5zM659 1118l-243 479h334l-70 -479h-21z" />
    <glyph glyph-name="eacute" unicode="&#xe9;" horiz-adv-x="940" 
d="M41 319q0 137 52 268.5t137.5 228t200 155.5t233.5 59q62 0 110.5 -10.5t77 -26.5t47 -38t25 -41.5t6.5 -39.5q0 -40 -15 -77t-36 -64.5t-61 -56t-72 -47t-88.5 -42.5t-91 -36.5t-98 -35.5t-93.5 -34q-6 -59 -6 -114q0 -252 125 -252q69 0 156 60.5t165 186.5l33 -16
q-178 -375 -502 -375q-133 0 -219 88t-86 260zM457 819q-58 -138 -80 -313q156 85 219 167.5t63 176.5q0 135 -55 135q-38 0 -77 -46.5t-70 -119.5zM1055 1597l-547 -479h-19l211 479h355z" />
    <glyph glyph-name="ecircumflex" unicode="&#xea;" horiz-adv-x="940" 
d="M41 319q0 137 52 268.5t137.5 228t200 155.5t233.5 59q62 0 110.5 -10.5t77 -26.5t47 -38t25 -41.5t6.5 -39.5q0 -40 -15 -77t-36 -64.5t-61 -56t-72 -47t-88.5 -42.5t-91 -36.5t-98 -35.5t-93.5 -34q-6 -59 -6 -114q0 -252 125 -252q69 0 156 60.5t165 186.5l33 -16
q-178 -375 -502 -375q-133 0 -219 88t-86 260zM457 819q-58 -138 -80 -313q156 85 219 167.5t63 176.5q0 135 -55 135q-38 0 -77 -46.5t-70 -119.5zM647 1343l-381 -225h-20l446 512l287 -512h-21z" />
    <glyph glyph-name="edieresis" unicode="&#xeb;" horiz-adv-x="940" 
d="M41 319q0 137 52 268.5t137.5 228t200 155.5t233.5 59q62 0 110.5 -10.5t77 -26.5t47 -38t25 -41.5t6.5 -39.5q0 -40 -15 -77t-36 -64.5t-61 -56t-72 -47t-88.5 -42.5t-91 -36.5t-98 -35.5t-93.5 -34q-6 -59 -6 -114q0 -252 125 -252q69 0 156 60.5t165 186.5l33 -16
q-178 -375 -502 -375q-133 0 -219 88t-86 260zM457 819q-58 -138 -80 -313q156 85 219 167.5t63 176.5q0 135 -55 135q-38 0 -77 -46.5t-70 -119.5zM225 1366q0 76 54 130t131 54q76 0 130 -54t54 -130t-54 -130t-130 -54q-77 0 -131 54t-54 130zM717 1366q0 76 53.5 130
t130.5 54t130.5 -54t53.5 -130t-53.5 -130t-130.5 -54t-130.5 54t-53.5 130z" />
    <glyph glyph-name="igrave" unicode="&#xec;" horiz-adv-x="692" 
d="M532 723l-96 -492q-10 -51 -10 -81t8 -41t23 -11q25 0 66.5 32t78.5 77l31 -23q-34 -49 -49.5 -70t-46 -55.5t-54.5 -49t-60 -26.5t-77 -12q-137 0 -190.5 90.5t-14.5 284.5l86 426q13 66 10 92.5t-22 26.5q-24 0 -67.5 -18.5t-94.5 -59.5l-22 29q91 100 191 144t165 44
q104 0 141 -71t4 -236zM483 1118l-243 479h333l-69 -479h-21z" />
    <glyph glyph-name="iacute" unicode="&#xed;" horiz-adv-x="692" 
d="M532 723l-96 -492q-10 -51 -10 -81t8 -41t23 -11q25 0 66.5 32t78.5 77l31 -23q-34 -49 -49.5 -70t-46 -55.5t-54.5 -49t-60 -26.5t-77 -12q-137 0 -190.5 90.5t-14.5 284.5l86 426q13 66 10 92.5t-22 26.5q-24 0 -67.5 -18.5t-94.5 -59.5l-22 29q91 100 191 144t165 44
q104 0 141 -71t4 -236zM733 1597l-547 -479h-18l211 479h354z" />
    <glyph glyph-name="icircumflex" unicode="&#xee;" horiz-adv-x="692" 
d="M532 723l-96 -492q-10 -51 -10 -81t8 -41t23 -11q25 0 66.5 32t78.5 77l31 -23q-34 -49 -49.5 -70t-46 -55.5t-54.5 -49t-60 -26.5t-77 -12q-137 0 -190.5 90.5t-14.5 284.5l86 426q13 66 10 92.5t-22 26.5q-24 0 -67.5 -18.5t-94.5 -59.5l-22 29q91 100 191 144t165 44
q104 0 141 -71t4 -236zM422 1343l-381 -225h-21l447 512l287 -512h-21z" />
    <glyph glyph-name="idieresis" unicode="&#xef;" horiz-adv-x="692" 
d="M532 723l-96 -492q-10 -51 -10 -81t8 -41t23 -11q25 0 66.5 32t78.5 77l31 -23q-34 -49 -49.5 -70t-46 -55.5t-54.5 -49t-60 -26.5t-77 -12q-137 0 -190.5 90.5t-14.5 284.5l86 426q13 66 10 92.5t-22 26.5q-24 0 -67.5 -18.5t-94.5 -59.5l-22 29q91 100 191 144t165 44
q104 0 141 -71t4 -236zM-35 1366q0 76 54 130t131 54q76 0 130 -54t54 -130t-54 -130t-130 -54q-77 0 -131 54t-54 130zM457 1366q0 76 53.5 130t130.5 54t130.5 -54t53.5 -130t-53.5 -130t-130.5 -54t-130.5 54t-53.5 130z" />
    <glyph glyph-name="eth" unicode="&#xf0;" horiz-adv-x="1232" 
d="M373 1165l-51 66l274 237q-132 155 -303 234l18 31q201 -67 375 -187l244 211l51 -63l-225 -197q195 -151 306.5 -350t111.5 -420q0 -204 -83.5 -377t-233.5 -276t-333 -103q-135 0 -243.5 40.5t-175.5 109.5t-102.5 156t-35.5 184q0 117 35.5 215t92.5 162.5t131.5 110
t151 65.5t152.5 20q97 0 180.5 -43.5t129.5 -124.5q-46 321 -195 537zM604 932q-82 0 -144 -48.5t-97 -130t-51.5 -175t-16.5 -195.5q0 -151 54 -251.5t157 -100.5q73 0 132.5 53t96 133t62 181t35.5 191t10 169q0 49 -2 69q-76 105 -236 105z" />
    <glyph glyph-name="ntilde" unicode="&#xf1;" horiz-adv-x="1282" 
d="M53 813l-22 29q91 100 191 144t165 44q53 0 85 -15t53.5 -54.5t20 -108t-17.5 -176.5q60 174 158 264t217 90q63 0 107 -16t64.5 -58t32 -72t6 -101.5t-9.5 -100.5t-18 -111v-2l-57 -338q-12 -78 -7 -105.5t28 -27.5q27 0 79 33.5t86 75.5l31 -23q-72 -104 -143.5 -158.5
t-169.5 -54.5q-139 0 -187 85t-12 290l41 227q5 26 8 51t7 62.5t3.5 68t-4.5 59t-16.5 44.5t-32.5 16q-45 0 -104 -69.5t-115 -192.5l-98 -612h-311l125 772q19 119 -21 119q-24 0 -67.5 -18.5t-94.5 -59.5zM1001 1491l111 117l14 -9l-151 -339h-529l-110 -117l-12 8
l149 340h528z" />
    <glyph glyph-name="ograve" unicode="&#xf2;" 
d="M41 311q0 113 40 223.5t107.5 198t152 155.5t179 105t182.5 37q107 0 186.5 -30t122.5 -81t63 -108t20 -121q0 -95 -28.5 -188.5t-76.5 -171.5t-113.5 -145.5t-138.5 -114t-151.5 -73t-151.5 -26.5q-87 0 -156 20t-112.5 53t-72.5 78.5t-40.5 91.5t-11.5 97zM375 365
q0 -75 4.5 -130.5t15.5 -108t35 -80.5t59 -28q57 0 105 48t78 119.5t51.5 158.5t30 161.5t8.5 131.5q0 74 -4.5 130t-17 106.5t-36.5 78t-59 27.5q-57 0 -105 -47.5t-77.5 -118.5t-50 -157t-29 -160t-8.5 -131zM684 1118l-244 479h334l-69 -479h-21z" />
    <glyph glyph-name="oacute" unicode="&#xf3;" 
d="M41 311q0 113 40 223.5t107.5 198t152 155.5t179 105t182.5 37q107 0 186.5 -30t122.5 -81t63 -108t20 -121q0 -95 -28.5 -188.5t-76.5 -171.5t-113.5 -145.5t-138.5 -114t-151.5 -73t-151.5 -26.5q-87 0 -156 20t-112.5 53t-72.5 78.5t-40.5 91.5t-11.5 97zM375 365
q0 -75 4.5 -130.5t15.5 -108t35 -80.5t59 -28q57 0 105 48t78 119.5t51.5 158.5t30 161.5t8.5 131.5q0 74 -4.5 130t-17 106.5t-36.5 78t-59 27.5q-57 0 -105 -47.5t-77.5 -118.5t-50 -157t-29 -160t-8.5 -131zM1014 1597l-547 -479h-18l210 479h355z" />
    <glyph glyph-name="ocircumflex" unicode="&#xf4;" 
d="M41 311q0 113 40 223.5t107.5 198t152 155.5t179 105t182.5 37q107 0 186.5 -30t122.5 -81t63 -108t20 -121q0 -95 -28.5 -188.5t-76.5 -171.5t-113.5 -145.5t-138.5 -114t-151.5 -73t-151.5 -26.5q-87 0 -156 20t-112.5 53t-72.5 78.5t-40.5 91.5t-11.5 97zM375 365
q0 -75 4.5 -130.5t15.5 -108t35 -80.5t59 -28q57 0 105 48t78 119.5t51.5 158.5t30 161.5t8.5 131.5q0 74 -4.5 130t-17 106.5t-36.5 78t-59 27.5q-57 0 -105 -47.5t-77.5 -118.5t-50 -157t-29 -160t-8.5 -131zM698 1343l-381 -225h-20l446 512l287 -512h-20z" />
    <glyph glyph-name="otilde" unicode="&#xf5;" 
d="M41 311q0 113 40 223.5t107.5 198t152 155.5t179 105t182.5 37q107 0 186.5 -30t122.5 -81t63 -108t20 -121q0 -95 -28.5 -188.5t-76.5 -171.5t-113.5 -145.5t-138.5 -114t-151.5 -73t-151.5 -26.5q-87 0 -156 20t-112.5 53t-72.5 78.5t-40.5 91.5t-11.5 97zM375 365
q0 -75 4.5 -130.5t15.5 -108t35 -80.5t59 -28q57 0 105 48t78 119.5t51.5 158.5t30 161.5t8.5 131.5q0 74 -4.5 130t-17 106.5t-36.5 78t-59 27.5q-57 0 -105 -47.5t-77.5 -118.5t-50 -157t-29 -160t-8.5 -131zM997 1491l111 117l14 -9l-151 -339h-529l-110 -117l-13 8
l150 340h528z" />
    <glyph glyph-name="odieresis" unicode="&#xf6;" 
d="M41 311q0 113 40 223.5t107.5 198t152 155.5t179 105t182.5 37q107 0 186.5 -30t122.5 -81t63 -108t20 -121q0 -95 -28.5 -188.5t-76.5 -171.5t-113.5 -145.5t-138.5 -114t-151.5 -73t-151.5 -26.5q-87 0 -156 20t-112.5 53t-72.5 78.5t-40.5 91.5t-11.5 97zM375 365
q0 -75 4.5 -130.5t15.5 -108t35 -80.5t59 -28q57 0 105 48t78 119.5t51.5 158.5t30 161.5t8.5 131.5q0 74 -4.5 130t-17 106.5t-36.5 78t-59 27.5q-57 0 -105 -47.5t-77.5 -118.5t-50 -157t-29 -160t-8.5 -131zM281 1366q0 76 53.5 130t130.5 54t130.5 -54t53.5 -130
t-53.5 -130t-130.5 -54t-130.5 54t-53.5 130zM772 1366q0 76 54 130t130 54q77 0 131 -54t54 -130t-54 -130t-131 -54q-76 0 -130 54t-54 130z" />
    <glyph glyph-name="divide" unicode="&#xf7;" 
d="M94 457l15 96h929l-14 -96h-930zM422 829q0 83 59 142t142 59t141.5 -59t58.5 -142t-58.5 -141.5t-141.5 -58.5t-142 58.5t-59 141.5zM311 172q0 83 59 142t142 59t142 -59t59 -142t-59 -142t-142 -59t-142 59t-59 142z" />
    <glyph glyph-name="oslash" unicode="&#xf8;" 
d="M41 311q0 125 49 246.5t128.5 213.5t179.5 157.5t202 89.5l31 190h86l-29 -180q2 0 7 1t7 1q107 0 186.5 -30t122.5 -81t63 -108t20 -121q0 -127 -50.5 -250.5t-132 -215.5t-183.5 -156.5t-206 -85.5l-28 -193h-86l28 182h-2q-87 0 -156 20t-112.5 53t-72.5 78.5
t-40.5 91.5t-11.5 97zM762 637q0 289 -82 334l-150 -946q60 19 107.5 94.5t73 173t38.5 187t13 157.5zM375 365q0 -282 69 -332l148 936q-56 -25 -100.5 -100.5t-68.5 -170t-36 -181t-12 -152.5z" />
    <glyph glyph-name="ugrave" unicode="&#xf9;" horiz-adv-x="1280" 
d="M725 328q-60 -174 -158 -264.5t-217 -90.5q-63 0 -106.5 17t-64 55.5t-31 73t-6.5 98.5t9 101t18 110q1 4 1 6l59 338q12 66 8.5 92.5t-22.5 26.5q-24 0 -67.5 -18.5t-94.5 -59.5l-22 29q91 100 191 144t165 44q53 0 85.5 -15t52.5 -54t19.5 -109t-20.5 -176l-45 -246
q-5 -26 -8 -51t-7 -62.5t-3.5 -68t4.5 -59t16.5 -44.5t32.5 -16q45 0 104 69.5t115 192.5l107 613h311l-133 -773q-23 -133 29 -133q27 0 79 33.5t86 75.5l31 -23q-72 -104 -143.5 -158.5t-169.5 -54.5q-51 0 -88 10t-66.5 34.5t-42.5 65.5t-17.5 102t9.5 145zM696 1118
l-243 479h333l-69 -479h-21z" />
    <glyph glyph-name="uacute" unicode="&#xfa;" horiz-adv-x="1280" 
d="M725 328q-60 -174 -158 -264.5t-217 -90.5q-63 0 -106.5 17t-64 55.5t-31 73t-6.5 98.5t9 101t18 110q1 4 1 6l59 338q12 66 8.5 92.5t-22.5 26.5q-24 0 -67.5 -18.5t-94.5 -59.5l-22 29q91 100 191 144t165 44q53 0 85.5 -15t52.5 -54t19.5 -109t-20.5 -176l-45 -246
q-5 -26 -8 -51t-7 -62.5t-3.5 -68t4.5 -59t16.5 -44.5t32.5 -16q45 0 104 69.5t115 192.5l107 613h311l-133 -773q-23 -133 29 -133q27 0 79 33.5t86 75.5l31 -23q-72 -104 -143.5 -158.5t-169.5 -54.5q-51 0 -88 10t-66.5 34.5t-42.5 65.5t-17.5 102t9.5 145zM1147 1597
l-547 -479h-18l211 479h354z" />
    <glyph glyph-name="ucircumflex" unicode="&#xfb;" horiz-adv-x="1280" 
d="M725 328q-60 -174 -158 -264.5t-217 -90.5q-63 0 -106.5 17t-64 55.5t-31 73t-6.5 98.5t9 101t18 110q1 4 1 6l59 338q12 66 8.5 92.5t-22.5 26.5q-24 0 -67.5 -18.5t-94.5 -59.5l-22 29q91 100 191 144t165 44q53 0 85.5 -15t52.5 -54t19.5 -109t-20.5 -176l-45 -246
q-5 -26 -8 -51t-7 -62.5t-3.5 -68t4.5 -59t16.5 -44.5t32.5 -16q45 0 104 69.5t115 192.5l107 613h311l-133 -773q-23 -133 29 -133q27 0 79 33.5t86 75.5l31 -23q-72 -104 -143.5 -158.5t-169.5 -54.5q-51 0 -88 10t-66.5 34.5t-42.5 65.5t-17.5 102t9.5 145zM756 1343
l-381 -225h-21l447 512l286 -512h-20z" />
    <glyph glyph-name="udieresis" unicode="&#xfc;" horiz-adv-x="1280" 
d="M725 328q-60 -174 -158 -264.5t-217 -90.5q-63 0 -106.5 17t-64 55.5t-31 73t-6.5 98.5t9 101t18 110q1 4 1 6l59 338q12 66 8.5 92.5t-22.5 26.5q-24 0 -67.5 -18.5t-94.5 -59.5l-22 29q91 100 191 144t165 44q53 0 85.5 -15t52.5 -54t19.5 -109t-20.5 -176l-45 -246
q-5 -26 -8 -51t-7 -62.5t-3.5 -68t4.5 -59t16.5 -44.5t32.5 -16q45 0 104 69.5t115 192.5l107 613h311l-133 -773q-23 -133 29 -133q27 0 79 33.5t86 75.5l31 -23q-72 -104 -143.5 -158.5t-169.5 -54.5q-51 0 -88 10t-66.5 34.5t-42.5 65.5t-17.5 102t9.5 145zM311 1366
q0 76 54 130t131 54q76 0 130 -54t54 -130t-54 -130t-130 -54q-77 0 -131 54t-54 130zM803 1366q0 76 53.5 130t130.5 54t130.5 -54t53.5 -130t-53.5 -130t-130.5 -54t-130.5 54t-53.5 130z" />
    <glyph glyph-name="yacute" unicode="&#xfd;" horiz-adv-x="1132" 
d="M293 1030q81 0 143 -46t100 -128t57.5 -193.5t19 -242.5t-18.5 -275q255 277 293 396q15 62 9.5 97.5t-26 69t-43 56.5t-40 60.5t-17.5 80.5q0 56 35 90.5t104 34.5q142 0 142 -209q0 -81 -32 -171.5t-77.5 -168.5t-122.5 -175.5t-140 -167t-157 -167.5
q-568 -596 -880 -596q-116 0 -186 53t-70 136q0 42 33 74t92 32q36 0 65.5 -20.5t49 -49.5t37 -58t39 -49.5t46.5 -20.5q65 0 222.5 112.5t344.5 284.5q13 108 13.5 245.5t-11.5 274.5t-34.5 253t-59.5 188.5t-82 72.5q-26 0 -53.5 -25.5t-62.5 -97.5l-33 17q82 233 301 233
zM1073 1597l-547 -479h-18l211 479h354z" />
    <glyph glyph-name="thorn" unicode="&#xfe;" horiz-adv-x="1263" 
d="M211 1673h487l-143 -928q73 153 170.5 220t192.5 67q78 0 139.5 -30t96 -78.5t52 -103t17.5 -111.5q0 -113 -40.5 -226t-108 -203t-150 -161t-170 -109.5t-164.5 -38.5q-82 0 -148 37l-69 -459q-9 -57 22 -83.5t142 -26.5l-7 -39h-653l6 39q67 0 105.5 15t51.5 36.5
t19 58.5l306 1969q6 28 2.5 49.5t-18 36.5t-50 22.5t-94.5 7.5zM616 20q56 0 104.5 48t80.5 120t55 158t33 161.5t10 131.5q0 254 -108 254q-18 0 -43.5 -10t-59 -33.5t-72.5 -72t-73 -115.5l-72 -474q19 -81 61 -124.5t84 -43.5z" />
    <glyph glyph-name="ydieresis" unicode="&#xff;" horiz-adv-x="1132" 
d="M293 1030q81 0 143 -46t100 -128t57.5 -193.5t19 -242.5t-18.5 -275q255 277 293 396q15 62 9.5 97.5t-26 69t-43 56.5t-40 60.5t-17.5 80.5q0 56 35 90.5t104 34.5q142 0 142 -209q0 -81 -32 -171.5t-77.5 -168.5t-122.5 -175.5t-140 -167t-157 -167.5
q-568 -596 -880 -596q-116 0 -186 53t-70 136q0 42 33 74t92 32q36 0 65.5 -20.5t49 -49.5t37 -58t39 -49.5t46.5 -20.5q65 0 222.5 112.5t344.5 284.5q13 108 13.5 245.5t-11.5 274.5t-34.5 253t-59.5 188.5t-82 72.5q-26 0 -53.5 -25.5t-62.5 -97.5l-33 17q82 233 301 233
zM201 1366q0 76 53.5 130t130.5 54t130.5 -54t53.5 -130t-53.5 -130t-130.5 -54t-130.5 54t-53.5 130zM692 1366q0 76 54 130t131 54t130.5 -54t53.5 -130t-53.5 -130t-130.5 -54t-131 54t-54 130z" />
    <glyph glyph-name="Amacron" unicode="&#x100;" horiz-adv-x="1581" 
d="M225 360l754 1387h22l338 -1561q18 -81 64.5 -112t136.5 -31l-6 -43h-715l6 43q24 0 43 1t39 5t33 10t26.5 16t18.5 24.5t8.5 34.5t-2.5 46l-65 357h-514l-107 -197q-41 -76 -56.5 -131.5t-10 -86.5t29.5 -49.5t52.5 -24t68.5 -5.5l-6 -43h-498l6 43q40 0 65 4.5t56 21.5
t60 51.5t66.5 92.5t86.5 147zM797 1249l-310 -571h414zM635 1886l14 96h705l-15 -96h-704z" />
    <glyph glyph-name="amacron" unicode="&#x101;" horiz-adv-x="1249" 
d="M1139 1030l-152 -799q-25 -133 17 -133q64 0 170 129l34 -26q-73 -106 -157.5 -168t-194.5 -62q-104 0 -149 72t-31 188q-136 -260 -350 -260q-67 0 -119 20.5t-82.5 52t-50 76t-26.5 86.5t-7 89q0 147 58.5 283t150.5 230t206 150t224 56q74 0 147 -37l13 53h299z
M479 115q96 0 207 174l105 545q-15 137 -113 137q-75 0 -150.5 -110.5t-120.5 -263.5t-45 -280q0 -92 29 -147t88 -55zM483 1288l15 96h704l-14 -96h-705z" />
    <glyph glyph-name="Abreve" unicode="&#x102;" horiz-adv-x="1581" 
d="M225 360l754 1387h22l338 -1561q18 -81 64.5 -112t136.5 -31l-6 -43h-715l6 43q24 0 43 1t39 5t33 10t26.5 16t18.5 24.5t8.5 34.5t-2.5 46l-65 357h-514l-107 -197q-41 -76 -56.5 -131.5t-10 -86.5t29.5 -49.5t52.5 -24t68.5 -5.5l-6 -43h-498l6 43q40 0 65 4.5t56 21.5
t60 51.5t66.5 92.5t86.5 147zM797 1249l-310 -571h414zM1292 2140h90q-19 -82 -54.5 -144t-73.5 -96t-84.5 -55t-82.5 -27t-73 -6q-35 0 -70.5 6t-81.5 27t-80 55t-56 96t-19 144h92q3 -118 63 -178.5t168 -60.5q96 0 163 60.5t99 178.5z" />
    <glyph glyph-name="abreve" unicode="&#x103;" horiz-adv-x="1249" 
d="M1139 1030l-152 -799q-25 -133 17 -133q64 0 170 129l34 -26q-73 -106 -157.5 -168t-194.5 -62q-104 0 -149 72t-31 188q-136 -260 -350 -260q-67 0 -119 20.5t-82.5 52t-50 76t-26.5 86.5t-7 89q0 147 58.5 283t150.5 230t206 150t224 56q74 0 147 -37l13 53h299z
M479 115q96 0 207 174l105 545q-15 137 -113 137q-75 0 -150.5 -110.5t-120.5 -263.5t-45 -280q0 -92 29 -147t88 -55zM1102 1513h90q-19 -82 -54.5 -144t-73.5 -95.5t-85 -54.5t-83 -27t-73 -6q-35 0 -70.5 6t-82 27t-80 54.5t-55.5 95.5t-19 144h92q3 -118 63.5 -178.5
t168.5 -60.5q96 0 163 60.5t99 178.5z" />
    <glyph glyph-name="Aogonek" unicode="&#x104;" horiz-adv-x="1581" 
d="M1264 -420l4 -16q-104 -60 -199 -60q-76 0 -129 36t-53 106q0 56 25.5 106.5t76.5 94t107.5 78.5t136.5 75h-414l6 43q24 0 43 1t39 5t33 10t26.5 16t18.5 24.5t8.5 34.5t-2.5 46l-65 357h-514l-107 -197q-41 -76 -56.5 -131.5t-10 -86.5t29.5 -49.5t52.5 -24t68.5 -5.5
l-6 -43h-498l6 43q40 0 65 4.5t56 21.5t60 51.5t66.5 92.5t86.5 147l754 1387h22l338 -1561q18 -81 64.5 -112t136.5 -31l-6 -43h-281q-69 -49 -125.5 -135.5t-56.5 -165.5q0 -58 32.5 -94.5t90.5 -36.5q36 0 70 12zM797 1249l-310 -571h414z" />
    <glyph glyph-name="aogonek" unicode="&#x105;" horiz-adv-x="1249" 
d="M936 -422l4 -16q-104 -60 -199 -60q-76 0 -129 36t-53 106q0 98 76 174.5t219 152.5q-103 1 -147.5 72.5t-30.5 187.5q-136 -260 -350 -260q-67 0 -119 20.5t-82.5 52t-50 76t-26.5 86.5t-7 89q0 147 58.5 283t150.5 230t206 150t224 56q74 0 147 -37l13 53h299
l-152 -799q-25 -133 17 -133q64 0 170 129l34 -26q-68 -97 -142.5 -157t-170.5 -71q-62 -54 -107 -130.5t-45 -145.5q0 -58 32.5 -94.5t90.5 -36.5q35 0 70 12zM479 115q96 0 207 174l105 545q-15 137 -113 137q-75 0 -150.5 -110.5t-120.5 -263.5t-45 -280q0 -92 29 -147
t88 -55z" />
    <glyph glyph-name="Cacute" unicode="&#x106;" horiz-adv-x="1736" 
d="M909 39q230 0 385.5 116t270.5 375h28l-67 -415q-171 -86 -295 -115t-299 -29q-189 0 -348.5 62.5t-269 171.5t-171 261t-61.5 327q0 205 74 378t201 290t298 182t365 65q173 0 342 -46.5t313 -125.5l-41 -391h-26q-42 220 -185.5 358.5t-345.5 138.5q-102 0 -193.5 -41
t-161.5 -112t-126.5 -167t-93 -207t-55.5 -230t-19 -238q0 -295 132 -451.5t349 -156.5zM1522 2224l-547 -479h-19l211 479h355z" />
    <glyph glyph-name="cacute" unicode="&#x107;" horiz-adv-x="913" 
d="M811 346l33 -16q-90 -190 -214 -274.5t-284 -84.5q-133 0 -219 88t-86 260q0 92 28 191.5t83.5 191.5t129.5 165.5t174 118t208 44.5q112 0 180.5 -49t68.5 -121q0 -47 -28 -82t-88 -35q-49 0 -77.5 25t-38 60.5t-15.5 71t-19.5 60.5t-40.5 25q-62 0 -118.5 -100.5
t-87.5 -242.5t-31 -275q0 -252 125 -252q45 0 93 18.5t109.5 73t114.5 139.5zM1087 1597l-546 -479h-19l211 479h354z" />
    <glyph glyph-name="Ccircumflex" unicode="&#x108;" horiz-adv-x="1736" 
d="M909 39q230 0 385.5 116t270.5 375h28l-67 -415q-171 -86 -295 -115t-299 -29q-189 0 -348.5 62.5t-269 171.5t-171 261t-61.5 327q0 205 74 378t201 290t298 182t365 65q173 0 342 -46.5t313 -125.5l-41 -391h-26q-42 220 -185.5 358.5t-345.5 138.5q-102 0 -193.5 -41
t-161.5 -112t-126.5 -167t-93 -207t-55.5 -230t-19 -238q0 -295 132 -451.5t349 -156.5zM1126 1970l-381 -225h-20l446 512l287 -512h-20z" />
    <glyph glyph-name="ccircumflex" unicode="&#x109;" horiz-adv-x="913" 
d="M811 346l33 -16q-90 -190 -214 -274.5t-284 -84.5q-133 0 -219 88t-86 260q0 92 28 191.5t83.5 191.5t129.5 165.5t174 118t208 44.5q112 0 180.5 -49t68.5 -121q0 -47 -28 -82t-88 -35q-49 0 -77.5 25t-38 60.5t-15.5 71t-19.5 60.5t-40.5 25q-62 0 -118.5 -100.5
t-87.5 -242.5t-31 -275q0 -252 125 -252q45 0 93 18.5t109.5 73t114.5 139.5zM670 1343l-381 -225h-21l447 512l286 -512h-20z" />
    <glyph glyph-name="Cdotaccent" unicode="&#x10a;" horiz-adv-x="1736" 
d="M909 39q230 0 385.5 116t270.5 375h28l-67 -415q-171 -86 -295 -115t-299 -29q-189 0 -348.5 62.5t-269 171.5t-171 261t-61.5 327q0 205 74 378t201 290t298 182t365 65q173 0 342 -46.5t313 -125.5l-41 -391h-26q-42 220 -185.5 358.5t-345.5 138.5q-102 0 -193.5 -41
t-161.5 -112t-126.5 -167t-93 -207t-55.5 -230t-19 -238q0 -295 132 -451.5t349 -156.5zM942 1993q0 77 54 130.5t130 53.5q77 0 131 -54t54 -130q0 -77 -54.5 -131t-130.5 -54t-130 54t-54 131z" />
    <glyph glyph-name="cdotaccent" unicode="&#x10b;" horiz-adv-x="913" 
d="M811 346l33 -16q-90 -190 -214 -274.5t-284 -84.5q-133 0 -219 88t-86 260q0 92 28 191.5t83.5 191.5t129.5 165.5t174 118t208 44.5q112 0 180.5 -49t68.5 -121q0 -47 -28 -82t-88 -35q-49 0 -77.5 25t-38 60.5t-15.5 71t-19.5 60.5t-40.5 25q-62 0 -118.5 -100.5
t-87.5 -242.5t-31 -275q0 -252 125 -252q45 0 93 18.5t109.5 73t114.5 139.5zM492 1366q0 76 54 130t130 54t130 -54t54 -130t-54 -130t-130 -54t-130 54t-54 130z" />
    <glyph glyph-name="Ccaron" unicode="&#x10c;" horiz-adv-x="1736" 
d="M909 39q230 0 385.5 116t270.5 375h28l-67 -415q-171 -86 -295 -115t-299 -29q-189 0 -348.5 62.5t-269 171.5t-171 261t-61.5 327q0 205 74 378t201 290t298 182t365 65q173 0 342 -46.5t313 -125.5l-41 -391h-26q-42 220 -185.5 358.5t-345.5 138.5q-102 0 -193.5 -41
t-161.5 -112t-126.5 -167t-93 -207t-55.5 -230t-19 -238q0 -295 132 -451.5t349 -156.5zM1161 2034l381 225h21l-447 -512l-287 512h21z" />
    <glyph glyph-name="ccaron" unicode="&#x10d;" horiz-adv-x="913" 
d="M811 346l33 -16q-90 -190 -214 -274.5t-284 -84.5q-133 0 -219 88t-86 260q0 92 28 191.5t83.5 191.5t129.5 165.5t174 118t208 44.5q112 0 180.5 -49t68.5 -121q0 -47 -28 -82t-88 -35q-49 0 -77.5 25t-38 60.5t-15.5 71t-19.5 60.5t-40.5 25q-62 0 -118.5 -100.5
t-87.5 -242.5t-31 -275q0 -252 125 -252q45 0 93 18.5t109.5 73t114.5 139.5zM680 1405l381 225h20l-446 -512l-287 512h21z" />
    <glyph glyph-name="Dcaron" unicode="&#x10e;" horiz-adv-x="1863" 
d="M754 1612l-222 -1399q-14 -88 -9 -109q8 -32 60 -40q36 -5 124 -5q146 0 281 68t238.5 188.5t165.5 300t62 388.5q0 132 -34.5 237.5t-92.5 173.5t-139 113.5t-169 64.5t-188 19h-77zM244 1673h622q457 0 696.5 -190t239.5 -520q0 -213 -75 -392t-210.5 -305t-333 -196
t-435.5 -70h-766l6 39h61q64 0 97 28t42 89l215 1362q9 61 -14.5 88.5t-87.5 27.5h-63zM1028 2034l381 225h21l-447 -512l-287 512h21z" />
    <glyph glyph-name="dcaron" unicode="&#x10f;" horiz-adv-x="1447" 
d="M682 1030q61 0 129 -29l84 517q6 28 2.5 49.5t-18 36.5t-50 22.5t-94.5 7.5l6 39h486l-226 -1442q-11 -78 -6 -105.5t27 -27.5q27 0 79.5 33.5t86.5 75.5l31 -23q-65 -101 -145 -157t-191 -56q-108 0 -155.5 69.5t-41.5 184.5q-139 -254 -358 -254q-67 0 -119 21.5
t-82.5 55t-50 79.5t-26.5 89.5t-7 90.5q0 118 38 230.5t102.5 200t146 154.5t173 102.5t179.5 35.5zM481 115q101 0 213 164l90 559q-9 72 -37.5 110.5t-66.5 38.5q-76 0 -150.5 -101t-119.5 -254.5t-45 -301.5q0 -95 29 -155t87 -60zM1280 1085l-6 11q45 31 85.5 100
t49.5 125q-65 0 -103 43.5t-38 105.5q0 79 52.5 132t129.5 53q70 0 116 -45t46 -113q0 -116 -96 -233.5t-236 -178.5z" />
    <glyph glyph-name="Dcroat" unicode="&#x110;" horiz-adv-x="1863" 
d="M18 815l11 86h276l98 617q9 61 -14.5 88.5t-87.5 27.5h-63l6 39h622q457 0 696.5 -190t239.5 -520q0 -213 -75 -392t-210.5 -305t-333 -196t-435.5 -70h-766l6 39h61q64 0 97 28t42 89l105 659h-275zM754 1612l-113 -711h317l-12 -86h-319l-95 -602q-14 -88 -9 -109
q8 -32 60 -40q36 -5 124 -5q146 0 281 68t238.5 188.5t165.5 300t62 388.5q0 132 -34.5 237.5t-92.5 173.5t-139 113.5t-169 64.5t-188 19h-77z" />
    <glyph glyph-name="dcroat" unicode="&#x111;" horiz-adv-x="1257" 
d="M477 1266l10 53h375l33 199q6 28 2.5 49.5t-18 36.5t-50 22.5t-94.5 7.5l6 39h486l-56 -354h207l-10 -53h-205l-162 -1035q-11 -78 -6 -105.5t27 -27.5q27 0 79.5 33.5t86.5 75.5l31 -23q-65 -101 -145 -157t-191 -56q-108 0 -155.5 69.5t-41.5 184.5
q-139 -254 -358 -254q-67 0 -119 21.5t-82.5 55t-50 79.5t-26.5 89.5t-7 90.5q0 118 38 230.5t102.5 200t146 154.5t173 102.5t179.5 35.5q61 0 129 -29l43 265h-377zM481 115q101 0 213 164l90 559q-9 72 -37.5 110.5t-66.5 38.5q-76 0 -150.5 -101t-119.5 -254.5
t-45 -301.5q0 -95 29 -155t87 -60z" />
    <glyph glyph-name="Emacron" unicode="&#x112;" horiz-adv-x="1529" 
d="M252 1673h1237l-59 -469h-31q-3 239 -174 334q-55 31 -136.5 45t-222.5 14h-106l-109 -692h180q44 0 78.5 5t73 21t68.5 43t58 72.5t48 108.5h29l-90 -594h-29q-1 74 -22.5 129.5t-58 85.5t-78.5 44t-89 14h-180l-102 -646q-10 -68 10.5 -90t85.5 -22h188q192 0 324 94
t188 279h31l-66 -449h-1308l6 39q106 0 149 27t52 90l215 1362q9 63 -24.5 89.5t-141.5 26.5zM616 1886l15 96h704l-14 -96h-705z" />
    <glyph glyph-name="emacron" unicode="&#x113;" horiz-adv-x="940" 
d="M41 319q0 137 52 268.5t137.5 228t200 155.5t233.5 59q62 0 110.5 -10.5t77 -26.5t47 -38t25 -41.5t6.5 -39.5q0 -40 -15 -77t-36 -64.5t-61 -56t-72 -47t-88.5 -42.5t-91 -36.5t-98 -35.5t-93.5 -34q-6 -59 -6 -114q0 -252 125 -252q69 0 156 60.5t165 186.5l33 -16
q-178 -375 -502 -375q-133 0 -219 88t-86 260zM457 819q-58 -138 -80 -313q156 85 219 167.5t63 176.5q0 135 -55 135q-38 0 -77 -46.5t-70 -119.5zM279 1288l14 96h704l-14 -96h-704z" />
    <glyph glyph-name="Ebreve" unicode="&#x114;" horiz-adv-x="1529" 
d="M252 1673h1237l-59 -469h-31q-3 239 -174 334q-55 31 -136.5 45t-222.5 14h-106l-109 -692h180q44 0 78.5 5t73 21t68.5 43t58 72.5t48 108.5h29l-90 -594h-29q-1 74 -22.5 129.5t-58 85.5t-78.5 44t-89 14h-180l-102 -646q-10 -68 10.5 -90t85.5 -22h188q192 0 324 94
t188 279h31l-66 -449h-1308l6 39q106 0 149 27t52 90l215 1362q9 63 -24.5 89.5t-141.5 26.5zM1251 2140h90q-19 -82 -54.5 -144t-73.5 -96t-84.5 -55t-82.5 -27t-73 -6q-35 0 -70.5 6t-81.5 27t-80 55t-56 96t-19 144h92q3 -118 63 -178.5t168 -60.5q96 0 163 60.5
t99 178.5z" />
    <glyph glyph-name="ebreve" unicode="&#x115;" horiz-adv-x="940" 
d="M41 319q0 137 52 268.5t137.5 228t200 155.5t233.5 59q62 0 110.5 -10.5t77 -26.5t47 -38t25 -41.5t6.5 -39.5q0 -40 -15 -77t-36 -64.5t-61 -56t-72 -47t-88.5 -42.5t-91 -36.5t-98 -35.5t-93.5 -34q-6 -59 -6 -114q0 -252 125 -252q69 0 156 60.5t165 186.5l33 -16
q-178 -375 -502 -375q-133 0 -219 88t-86 260zM457 819q-58 -138 -80 -313q156 85 219 167.5t63 176.5q0 135 -55 135q-38 0 -77 -46.5t-70 -119.5zM915 1513h91q-19 -82 -54.5 -144t-73.5 -95.5t-85 -54.5t-83 -27t-73 -6q-35 0 -70.5 6t-82 27t-80 54.5t-55.5 95.5
t-19 144h92q3 -118 63 -178.5t168 -60.5q96 0 163 60.5t99 178.5z" />
    <glyph glyph-name="Edotaccent" unicode="&#x116;" horiz-adv-x="1529" 
d="M252 1673h1237l-59 -469h-31q-3 239 -174 334q-55 31 -136.5 45t-222.5 14h-106l-109 -692h180q44 0 78.5 5t73 21t68.5 43t58 72.5t48 108.5h29l-90 -594h-29q-1 74 -22.5 129.5t-58 85.5t-78.5 44t-89 14h-180l-102 -646q-10 -68 10.5 -90t85.5 -22h188q192 0 324 94
t188 279h31l-66 -449h-1308l6 39q106 0 149 27t52 90l215 1362q9 63 -24.5 89.5t-141.5 26.5zM801 1993q0 77 53.5 130.5t130.5 53.5t130.5 -53.5t53.5 -130.5t-54 -131t-130 -54t-130 54t-54 131z" />
    <glyph glyph-name="edotaccent" unicode="&#x117;" horiz-adv-x="940" 
d="M41 319q0 137 52 268.5t137.5 228t200 155.5t233.5 59q62 0 110.5 -10.5t77 -26.5t47 -38t25 -41.5t6.5 -39.5q0 -40 -15 -77t-36 -64.5t-61 -56t-72 -47t-88.5 -42.5t-91 -36.5t-98 -35.5t-93.5 -34q-6 -59 -6 -114q0 -252 125 -252q69 0 156 60.5t165 186.5l33 -16
q-178 -375 -502 -375q-133 0 -219 88t-86 260zM457 819q-58 -138 -80 -313q156 85 219 167.5t63 176.5q0 135 -55 135q-38 0 -77 -46.5t-70 -119.5zM508 1366q0 76 54 130t130 54q77 0 131 -54t54 -130t-54 -130t-131 -54q-76 0 -130 54t-54 130z" />
    <glyph glyph-name="Eogonek" unicode="&#x118;" horiz-adv-x="1529" 
d="M807 -420l4 -16q-104 -60 -199 -60q-76 0 -129 36t-53 106q0 56 25.5 106.5t76.5 94t107.5 78.5t136.5 75h-786l6 39q106 0 149 27t52 90l215 1362q9 63 -24.5 89.5t-141.5 26.5l6 39h1237l-59 -469h-31q-3 239 -174 334q-55 31 -136.5 45t-222.5 14h-106l-109 -692h180
q44 0 78.5 5t73 21t68.5 43t58 72.5t48 108.5h29l-90 -594h-29q-1 74 -22.5 129.5t-58 85.5t-78.5 44t-89 14h-180l-102 -646q-10 -68 10.5 -90t85.5 -22h188q192 0 324 94t188 279h31l-66 -449h-501q-70 -49 -126.5 -135.5t-56.5 -165.5q0 -58 32.5 -94.5t90.5 -36.5
q36 0 70 12z" />
    <glyph glyph-name="eogonek" unicode="&#x119;" horiz-adv-x="940" 
d="M410 -422l4 -16q-104 -60 -199 -60q-76 0 -129 36t-53 106q0 98 76 174.5t219 152.5q-127 6 -207 94t-80 254q0 137 52 268.5t137.5 228t200 155.5t233.5 59q62 0 110.5 -10.5t77 -26.5t47 -38t25 -41.5t6.5 -39.5q0 -40 -15 -77t-36 -64.5t-61 -56t-72 -47t-88.5 -42.5
t-91 -36.5t-98 -35.5t-93.5 -34q-6 -59 -6 -114q0 -252 125 -252q69 0 156 60.5t165 186.5l33 -16q-171 -362 -481 -375q-62 -54 -106 -129.5t-44 -144.5q0 -58 32.5 -94.5t90.5 -36.5q36 0 70 12zM457 819q-58 -138 -80 -313q156 85 219 167.5t63 176.5q0 135 -55 135
q-38 0 -77 -46.5t-70 -119.5z" />
    <glyph glyph-name="Ecaron" unicode="&#x11a;" horiz-adv-x="1529" 
d="M252 1673h1237l-59 -469h-31q-3 239 -174 334q-55 31 -136.5 45t-222.5 14h-106l-109 -692h180q44 0 78.5 5t73 21t68.5 43t58 72.5t48 108.5h29l-90 -594h-29q-1 74 -22.5 129.5t-58 85.5t-78.5 44t-89 14h-180l-102 -646q-10 -68 10.5 -90t85.5 -22h188q192 0 324 94
t188 279h31l-66 -449h-1308l6 39q106 0 149 27t52 90l215 1362q9 63 -24.5 89.5t-141.5 26.5zM1014 2034l381 225h20l-446 -512l-287 512h20z" />
    <glyph glyph-name="ecaron" unicode="&#x11b;" horiz-adv-x="940" 
d="M41 319q0 137 52 268.5t137.5 228t200 155.5t233.5 59q62 0 110.5 -10.5t77 -26.5t47 -38t25 -41.5t6.5 -39.5q0 -40 -15 -77t-36 -64.5t-61 -56t-72 -47t-88.5 -42.5t-91 -36.5t-98 -35.5t-93.5 -34q-6 -59 -6 -114q0 -252 125 -252q69 0 156 60.5t165 186.5l33 -16
q-178 -375 -502 -375q-133 0 -219 88t-86 260zM457 819q-58 -138 -80 -313q156 85 219 167.5t63 176.5q0 135 -55 135q-38 0 -77 -46.5t-70 -119.5zM657 1405l381 225h21l-447 -512l-286 512h20z" />
    <glyph glyph-name="Gcircumflex" unicode="&#x11c;" horiz-adv-x="1878" 
d="M911 -29q-251 0 -440.5 107.5t-289 293t-99.5 421.5q0 205 74 378t201 290t298 182t365 65q173 0 342 -46.5t313 -125.5l-41 -391h-26q-42 220 -185.5 358.5t-345.5 138.5q-102 0 -193.5 -41t-161.5 -112t-126.5 -167t-93 -207t-55.5 -230t-19 -238q0 -298 123 -453
t338 -155q56 0 96.5 3t95.5 18t92.5 41t69.5 76.5t43 121.5l45 295q6 33 -14 51.5t-55 18.5h-103l6 43h641l-6 -43h-59q-35 0 -61.5 -18.5t-32.5 -51.5l-43 -277q-16 -102 -119 -182.5t-254.5 -122t-319.5 -41.5zM1098 1970l-381 -225h-21l447 512l287 -512h-21z" />
    <glyph glyph-name="gcircumflex" unicode="&#x11d;" horiz-adv-x="1200" 
d="M653 1030q100 0 189 -29h450l-8 -61h-326q105 -81 105 -211q0 -173 -144.5 -288t-373.5 -115q-46 0 -66 4q-60 -12 -95.5 -45t-41.5 -76q-7 -43 17 -73t90 -30h143q56 0 100.5 -2t95.5 -8t90 -16.5t76.5 -28.5t61.5 -42.5t38.5 -60.5t14.5 -81q0 -110 -64 -202.5
t-165 -150t-219 -89t-234 -31.5q-243 0 -374.5 83.5t-112.5 207.5q7 47 38 82t85 59t110.5 39.5t136.5 30.5q-202 27 -202 190q0 85 92.5 161t247.5 97q-130 30 -201.5 107.5t-71.5 181.5q0 168 147.5 282.5t370.5 114.5zM537 -111h-222q-85 -32 -126 -80t-54 -131
q-17 -115 61.5 -174t194.5 -59q45 0 87.5 5t90.5 16t87.5 32.5t72.5 52t51.5 77t18.5 104.5q0 79 -72.5 118t-189.5 39zM647 991q-55 0 -99.5 -43t-69 -108t-37.5 -132t-13 -126q0 -92 28.5 -154.5t94.5 -62.5q57 0 102 44t69.5 111t37 135t12.5 127q0 57 -10 101t-39.5 76
t-75.5 32zM705 1343l-381 -225h-21l447 512l286 -512h-20z" />
    <glyph glyph-name="Gbreve" unicode="&#x11e;" horiz-adv-x="1878" 
d="M911 -29q-251 0 -440.5 107.5t-289 293t-99.5 421.5q0 205 74 378t201 290t298 182t365 65q173 0 342 -46.5t313 -125.5l-41 -391h-26q-42 220 -185.5 358.5t-345.5 138.5q-102 0 -193.5 -41t-161.5 -112t-126.5 -167t-93 -207t-55.5 -230t-19 -238q0 -298 123 -453
t338 -155q56 0 96.5 3t95.5 18t92.5 41t69.5 76.5t43 121.5l45 295q6 33 -14 51.5t-55 18.5h-103l6 43h641l-6 -43h-59q-35 0 -61.5 -18.5t-32.5 -51.5l-43 -277q-16 -102 -119 -182.5t-254.5 -122t-319.5 -41.5zM1356 2140h90q-19 -82 -54.5 -144t-74 -96t-85 -55
t-82.5 -27t-73 -6q-35 0 -70.5 6t-81.5 27t-80 55t-56 96t-19 144h92q3 -118 63.5 -178.5t168.5 -60.5q96 0 163 60.5t99 178.5z" />
    <glyph glyph-name="gbreve" unicode="&#x11f;" horiz-adv-x="1200" 
d="M653 1030q100 0 189 -29h450l-8 -61h-326q105 -81 105 -211q0 -173 -144.5 -288t-373.5 -115q-46 0 -66 4q-60 -12 -95.5 -45t-41.5 -76q-7 -43 17 -73t90 -30h143q56 0 100.5 -2t95.5 -8t90 -16.5t76.5 -28.5t61.5 -42.5t38.5 -60.5t14.5 -81q0 -110 -64 -202.5
t-165 -150t-219 -89t-234 -31.5q-243 0 -374.5 83.5t-112.5 207.5q7 47 38 82t85 59t110.5 39.5t136.5 30.5q-202 27 -202 190q0 85 92.5 161t247.5 97q-130 30 -201.5 107.5t-71.5 181.5q0 168 147.5 282.5t370.5 114.5zM537 -111h-222q-85 -32 -126 -80t-54 -131
q-17 -115 61.5 -174t194.5 -59q45 0 87.5 5t90.5 16t87.5 32.5t72.5 52t51.5 77t18.5 104.5q0 79 -72.5 118t-189.5 39zM647 991q-55 0 -99.5 -43t-69 -108t-37.5 -132t-13 -126q0 -92 28.5 -154.5t94.5 -62.5q57 0 102 44t69.5 111t37 135t12.5 127q0 57 -10 101t-39.5 76
t-75.5 32zM997 1513h90q-19 -82 -54.5 -144t-73.5 -95.5t-84.5 -54.5t-82.5 -27t-73 -6q-35 0 -70.5 6t-82 27t-80 54.5t-55.5 95.5t-19 144h92q3 -118 63 -178.5t168 -60.5q96 0 163 60.5t99 178.5z" />
    <glyph glyph-name="Gdotaccent" unicode="&#x120;" horiz-adv-x="1878" 
d="M911 -29q-251 0 -440.5 107.5t-289 293t-99.5 421.5q0 205 74 378t201 290t298 182t365 65q173 0 342 -46.5t313 -125.5l-41 -391h-26q-42 220 -185.5 358.5t-345.5 138.5q-102 0 -193.5 -41t-161.5 -112t-126.5 -167t-93 -207t-55.5 -230t-19 -238q0 -298 123 -453
t338 -155q56 0 96.5 3t95.5 18t92.5 41t69.5 76.5t43 121.5l45 295q6 33 -14 51.5t-55 18.5h-103l6 43h641l-6 -43h-59q-35 0 -61.5 -18.5t-32.5 -51.5l-43 -277q-16 -102 -119 -182.5t-254.5 -122t-319.5 -41.5zM938 1993q0 77 54 130.5t130 53.5q77 0 131 -54t54 -130
q0 -77 -54.5 -131t-130.5 -54t-130 54t-54 131z" />
    <glyph glyph-name="gdotaccent" unicode="&#x121;" horiz-adv-x="1200" 
d="M653 1030q100 0 189 -29h450l-8 -61h-326q105 -81 105 -211q0 -173 -144.5 -288t-373.5 -115q-46 0 -66 4q-60 -12 -95.5 -45t-41.5 -76q-7 -43 17 -73t90 -30h143q56 0 100.5 -2t95.5 -8t90 -16.5t76.5 -28.5t61.5 -42.5t38.5 -60.5t14.5 -81q0 -110 -64 -202.5
t-165 -150t-219 -89t-234 -31.5q-243 0 -374.5 83.5t-112.5 207.5q7 47 38 82t85 59t110.5 39.5t136.5 30.5q-202 27 -202 190q0 85 92.5 161t247.5 97q-130 30 -201.5 107.5t-71.5 181.5q0 168 147.5 282.5t370.5 114.5zM537 -111h-222q-85 -32 -126 -80t-54 -131
q-17 -115 61.5 -174t194.5 -59q45 0 87.5 5t90.5 16t87.5 32.5t72.5 52t51.5 77t18.5 104.5q0 79 -72.5 118t-189.5 39zM647 991q-55 0 -99.5 -43t-69 -108t-37.5 -132t-13 -126q0 -92 28.5 -154.5t94.5 -62.5q57 0 102 44t69.5 111t37 135t12.5 127q0 57 -10 101t-39.5 76
t-75.5 32zM539 1366q0 76 53.5 130t130.5 54t130.5 -54t53.5 -130t-53.5 -130t-130.5 -54t-130.5 54t-53.5 130z" />
    <glyph glyph-name="Gcommaaccent" unicode="&#x122;" horiz-adv-x="1878" 
d="M911 -29q-251 0 -440.5 107.5t-289 293t-99.5 421.5q0 205 74 378t201 290t298 182t365 65q173 0 342 -46.5t313 -125.5l-41 -391h-26q-42 220 -185.5 358.5t-345.5 138.5q-102 0 -193.5 -41t-161.5 -112t-126.5 -167t-93 -207t-55.5 -230t-19 -238q0 -298 123 -453
t338 -155q56 0 96.5 3t95.5 18t92.5 41t69.5 76.5t43 121.5l45 295q6 33 -14 51.5t-55 18.5h-103l6 43h641l-6 -43h-59q-35 0 -61.5 -18.5t-32.5 -51.5l-43 -277q-16 -102 -119 -182.5t-254.5 -122t-319.5 -41.5zM711 -641l-6 10q45 31 85.5 100t49.5 125q-65 0 -103.5 44
t-38.5 106q0 79 53 131.5t130 52.5q70 0 115.5 -44.5t45.5 -112.5q0 -116 -95.5 -233.5t-235.5 -178.5z" />
    <glyph glyph-name="gcommaaccent" unicode="&#x123;" horiz-adv-x="1200" 
d="M913 1657l7 -10q-45 -31 -86 -100.5t-50 -125.5q65 0 103.5 -43.5t38.5 -105.5q0 -79 -53 -132t-130 -53q-70 0 -115.5 45t-45.5 113q0 116 95.5 233.5t235.5 178.5zM653 1030q100 0 189 -29h450l-8 -61h-326q105 -81 105 -211q0 -173 -144.5 -288t-373.5 -115
q-46 0 -66 4q-60 -12 -95.5 -45t-41.5 -76q-7 -43 17 -73t90 -30h143q56 0 100.5 -2t95.5 -8t90 -16.5t76.5 -28.5t61.5 -42.5t38.5 -60.5t14.5 -81q0 -110 -64 -202.5t-165 -150t-219 -89t-234 -31.5q-243 0 -374.5 83.5t-112.5 207.5q7 47 38 82t85 59t110.5 39.5
t136.5 30.5q-202 27 -202 190q0 85 92.5 161t247.5 97q-130 30 -201.5 107.5t-71.5 181.5q0 168 147.5 282.5t370.5 114.5zM537 -111h-222q-85 -32 -126 -80t-54 -131q-17 -115 61.5 -174t194.5 -59q45 0 87.5 5t90.5 16t87.5 32.5t72.5 52t51.5 77t18.5 104.5
q0 79 -72.5 118t-189.5 39zM647 991q-55 0 -99.5 -43t-69 -108t-37.5 -132t-13 -126q0 -92 28.5 -154.5t94.5 -62.5q57 0 102 44t69.5 111t37 135t12.5 127q0 57 -10 101t-39.5 76t-75.5 32z" />
    <glyph glyph-name="Hcircumflex" unicode="&#x124;" horiz-adv-x="1959" 
d="M1233 156l106 678h-700l-107 -678q-6 -42 4.5 -66.5t49 -37.5t112.5 -13l-6 -39h-702l6 39q106 0 149 27t52 90l215 1362q9 63 -24.5 89.5t-141.5 26.5l6 39h704l-6 -39q-108 0 -150.5 -26.5t-51.5 -89.5l-95 -598h701l94 598q9 63 -24.5 89.5t-141.5 26.5l6 39h705
l-6 -39q-108 0 -151 -26.5t-52 -89.5l-215 -1362q-6 -42 4.5 -66.5t49 -37.5t112.5 -13l-6 -39h-705l6 39q108 0 151 27t52 90zM1161 1970l-381 -225h-20l446 512l287 -512h-20z" />
    <glyph glyph-name="hcircumflex" unicode="&#x125;" horiz-adv-x="1241" 
d="M928 1343l-299 -225h-21l365 512l205 -512h-21zM154 1673h489l-156 -997q60 174 158 264t217 90q43 0 76.5 -9.5t56.5 -23.5t38.5 -39.5t24.5 -48t11 -60.5t2 -64.5t-6 -71.5t-10 -71t-13 -73l-61 -338q-23 -133 27 -133q27 0 79.5 33.5t86.5 75.5l30 -23
q-72 -104 -143.5 -158.5t-169.5 -54.5q-139 0 -186.5 84.5t-12.5 290.5l41 227q5 34 7.5 51.5t7 60.5t3.5 69.5t-5 57.5t-16 46.5t-32 15.5q-45 0 -104 -69.5t-115 -192.5l-98 -612h-311l237 1518q6 28 2.5 49.5t-18 36.5t-50 22.5t-94.5 7.5z" />
    <glyph glyph-name="Hbar" unicode="&#x126;" horiz-adv-x="1959" 
d="M174 1237l14 86h193l31 195q9 63 -24.5 89.5t-141.5 26.5l6 39h704l-6 -39q-108 0 -150.5 -26.5t-51.5 -89.5l-31 -195h700l31 195q9 63 -24.5 89.5t-141.5 26.5l6 39h705l-6 -39q-108 0 -151 -26.5t-52 -89.5l-31 -195h197l-15 -86h-196l-170 -1081q-6 -42 4.5 -66.5
t49 -37.5t112.5 -13l-6 -39h-705l6 39q108 0 151 27t52 90l106 678h-700l-107 -678q-6 -42 4.5 -66.5t49 -37.5t112.5 -13l-6 -39h-702l6 39q106 0 149 27t52 90l170 1081h-193zM653 920h701l49 317h-701z" />
    <glyph glyph-name="hbar" unicode="&#x127;" horiz-adv-x="1241" 
d="M154 1673h489l-55 -354h409l-10 -53h-407l-93 -590q60 174 158 264t217 90q43 0 76.5 -9.5t56.5 -23.5t38.5 -39.5t24.5 -48t11 -60.5t2 -64.5t-6 -71.5t-10 -71t-13 -73l-61 -338q-23 -133 27 -133q27 0 79.5 33.5t86.5 75.5l30 -23q-72 -104 -143.5 -158.5
t-169.5 -54.5q-139 0 -186.5 84.5t-12.5 290.5l41 227q5 34 7.5 51.5t7 60.5t3.5 69.5t-5 57.5t-16 46.5t-32 15.5q-45 0 -104 -69.5t-115 -192.5l-98 -612h-311l196 1266h-170l10 53h168l33 199q6 28 2.5 49.5t-18 36.5t-50 22.5t-94.5 7.5z" />
    <glyph glyph-name="Itilde" unicode="&#x128;" horiz-adv-x="923" 
d="M961 2128l110 117l12 -9l-151 -350h-529l-110 -117l-12 9l151 350h529zM197 156l215 1362q9 63 -24.5 89.5t-141.5 26.5l6 39h704l-6 -39q-108 0 -150.5 -26.5t-51.5 -89.5l-216 -1362q-6 -42 4.5 -66.5t49 -37.5t112.5 -13l-6 -39h-702l6 39q106 0 149 27t52 90z" />
    <glyph glyph-name="itilde" unicode="&#x129;" horiz-adv-x="692" 
d="M532 723l-96 -492q-10 -51 -10 -81t8 -41t23 -11q25 0 66.5 32t78.5 77l31 -23q-34 -49 -49.5 -70t-46 -55.5t-54.5 -49t-60 -26.5t-77 -12q-137 0 -190.5 90.5t-14.5 284.5l86 426q13 66 10 92.5t-22 26.5q-24 0 -67.5 -18.5t-94.5 -59.5l-22 29q91 100 191 144t165 44
q104 0 141 -71t4 -236zM705 1491l110 117l14 -9l-151 -339h-528l-111 -117l-12 8l149 340h529z" />
    <glyph glyph-name="Imacron" unicode="&#x12a;" horiz-adv-x="923" 
d="M197 156l215 1362q9 63 -24.5 89.5t-141.5 26.5l6 39h704l-6 -39q-108 0 -150.5 -26.5t-51.5 -89.5l-216 -1362q-6 -42 4.5 -66.5t49 -37.5t112.5 -13l-6 -39h-702l6 39q106 0 149 27t52 90zM272 1886l15 96h704l-14 -96h-705z" />
    <glyph glyph-name="imacron" unicode="&#x12b;" horiz-adv-x="692" 
d="M532 723l-96 -492q-10 -51 -10 -81t8 -41t23 -11q25 0 66.5 32t78.5 77l31 -23q-34 -49 -49.5 -70t-46 -55.5t-54.5 -49t-60 -26.5t-77 -12q-137 0 -190.5 90.5t-14.5 284.5l86 426q13 66 10 92.5t-22 26.5q-24 0 -67.5 -18.5t-94.5 -59.5l-22 29q91 100 191 144t165 44
q104 0 141 -71t4 -236zM49 1288l14 96h705l-14 -96h-705z" />
    <glyph glyph-name="Ibreve" unicode="&#x12c;" horiz-adv-x="923" 
d="M197 156l215 1362q9 63 -24.5 89.5t-141.5 26.5l6 39h704l-6 -39q-108 0 -150.5 -26.5t-51.5 -89.5l-216 -1362q-6 -42 4.5 -66.5t49 -37.5t112.5 -13l-6 -39h-702l6 39q106 0 149 27t52 90zM911 2140h90q-19 -82 -54.5 -144t-73.5 -96t-84.5 -55t-82.5 -27t-73 -6
q-35 0 -70.5 6t-81.5 27t-80 55t-56 96t-19 144h92q3 -118 63 -178.5t168 -60.5q96 0 163 60.5t99 178.5z" />
    <glyph glyph-name="ibreve" unicode="&#x12d;" horiz-adv-x="692" 
d="M532 723l-96 -492q-10 -51 -10 -81t8 -41t23 -11q25 0 66.5 32t78.5 77l31 -23q-34 -49 -49.5 -70t-46 -55.5t-54.5 -49t-60 -26.5t-77 -12q-137 0 -190.5 90.5t-14.5 284.5l86 426q13 66 10 92.5t-22 26.5q-24 0 -67.5 -18.5t-94.5 -59.5l-22 29q91 100 191 144t165 44
q104 0 141 -71t4 -236zM707 1513h90q-19 -82 -54.5 -144t-73.5 -95.5t-85 -54.5t-83 -27t-73 -6q-35 0 -70.5 6t-82 27t-80 54.5t-55.5 95.5t-19 144h92q3 -118 63 -178.5t168 -60.5q96 0 163.5 60.5t99.5 178.5z" />
    <glyph glyph-name="Iogonek" unicode="&#x12e;" horiz-adv-x="923" 
d="M432 -420l4 -16q-104 -60 -198 -60q-76 0 -129.5 36t-53.5 106q0 56 25.5 106.5t76.5 94t107.5 78.5t136.5 75h-411l6 39q106 0 149 27t52 90l215 1362q9 63 -24.5 89.5t-141.5 26.5l6 39h704l-6 -39q-108 0 -150.5 -26.5t-51.5 -89.5l-216 -1362q-6 -42 4.5 -66.5
t49 -37.5t112.5 -13l-6 -39h-270q-69 -49 -125.5 -135.5t-56.5 -165.5q0 -58 32 -94.5t90 -36.5q35 0 70 12z" />
    <glyph glyph-name="iogonek" unicode="&#x12f;" horiz-adv-x="692" 
d="M410 -422l4 -16q-104 -60 -199 -60q-76 0 -129 36t-53 106q0 98 76 174.5t219 152.5q-128 6 -176 96t-11 279l86 426q13 66 10 92.5t-22 26.5q-24 0 -67.5 -18.5t-94.5 -59.5l-22 29q91 100 191 144t165 44q104 0 141 -71t4 -236l-96 -492q-10 -51 -10 -81t8 -41t23 -11
q25 0 66.5 32t78.5 77l31 -23q-40 -58 -59.5 -83t-54 -60t-70.5 -50t-82 -18q-62 -56 -106 -131.5t-44 -144.5q0 -58 32.5 -94.5t90.5 -36.5q36 0 70 12zM256 1473q0 83 59 141.5t142 58.5t141.5 -58.5t58.5 -141.5t-58.5 -142t-141.5 -59t-142 59t-59 142z" />
    <glyph glyph-name="Idotaccent" unicode="&#x130;" horiz-adv-x="923" 
d="M197 156l215 1362q9 63 -24.5 89.5t-141.5 26.5l6 39h704l-6 -39q-108 0 -150.5 -26.5t-51.5 -89.5l-216 -1362q-6 -42 4.5 -66.5t49 -37.5t112.5 -13l-6 -39h-702l6 39q106 0 149 27t52 90zM457 1993q0 77 53.5 130.5t130.5 53.5t130.5 -53.5t53.5 -130.5t-54 -131
t-130 -54t-130 54t-54 131z" />
    <glyph glyph-name="dotlessi" unicode="&#x131;" horiz-adv-x="692" 
d="M532 723l-96 -492q-10 -51 -10 -81t8 -41t23 -11q25 0 66.5 32t78.5 77l31 -23q-34 -49 -49.5 -70t-46 -55.5t-54.5 -49t-60 -26.5t-77 -12q-137 0 -190.5 90.5t-14.5 284.5l86 426q13 66 10 92.5t-22 26.5q-24 0 -67.5 -18.5t-94.5 -59.5l-22 29q91 100 191 144t165 44
q104 0 141 -71t4 -236z" />
    <glyph glyph-name="Jcircumflex" unicode="&#x134;" horiz-adv-x="1058" 
d="M952 1518l-145 -908q-12 -76 -24 -134t-33.5 -128t-48 -121t-68 -102t-92 -82.5t-121.5 -51.5t-156 -20q-176 0 -274.5 59t-98.5 150q0 67 42.5 103t105.5 36q55 0 92 -32t55 -77.5t30.5 -90.5t28.5 -77t40 -32q57 0 93 125.5t93 474.5l145 908q6 42 -4.5 66t-48.5 37
t-112 13l6 39h704l-6 -39q-108 0 -151 -26.5t-52 -89.5zM829 1970l-380 -225h-21l446 512l287 -512h-20z" />
    <glyph glyph-name="jcircumflex" unicode="&#x135;" horiz-adv-x="651" 
d="M451 1343l-381 -225h-21l447 512l286 -512h-20zM555 723l-96 -530q-24 -130 -53.5 -223.5t-74 -176.5t-113 -152t-159.5 -134t-223 -138l-16 23q125 116 196 294t136 533l100 553q12 66 8.5 92.5t-22.5 26.5q-24 0 -67.5 -18.5t-94.5 -59.5l-23 29q91 100 191.5 144
t165.5 44q103 0 139 -70t6 -237z" />
    <glyph glyph-name="Kcommaaccent" unicode="&#x136;" horiz-adv-x="1695" 
d="M154 156l215 1362q9 63 -24.5 89.5t-141.5 26.5l6 39h704l-6 -39q-108 0 -150.5 -26.5t-51.5 -89.5l-109 -687l543 531q193 189 137 243q-26 24 -105 25l7 43h600l-6 -43q-99 0 -219.5 -47.5t-215.5 -138.5l-458 -438l493 -793q35 -57 76 -93.5t84.5 -52t75.5 -20
t73 -4.5l-6 -43q-123 -27 -219 -27q-167 0 -305 66t-219 205l-338 581l-105 -669q-6 -42 4.5 -66.5t49 -37.5t112.5 -13l-6 -39h-702l6 39q106 0 149 27t52 90zM678 -641l-6 10q45 31 85.5 100t49.5 125q-65 0 -103 44t-38 106q0 79 52.5 131.5t129.5 52.5q70 0 116 -44.5
t46 -112.5q0 -116 -96 -233.5t-236 -178.5z" />
    <glyph glyph-name="kcommaaccent" unicode="&#x137;" horiz-adv-x="1165" 
d="M385 0h-311l243 1518q6 28 3 49.5t-18 36.5t-50 22.5t-94 7.5l6 39h489l-176 -1095h31q142 0 213.5 73t71.5 203q0 176 139 176q48 0 76 -29.5t28 -87.5q0 -95 -120 -203t-279 -141q63 -9 110.5 -28.5t77 -44t50.5 -60t32 -69t19 -78.5l6 -35q38 -224 250 -207l4 -31
q-147 -47 -230 -47q-146 0 -222 57t-109 203l-11 47q-4 19 -12 58t-12.5 59.5t-15.5 50.5t-23 46.5t-32.5 31t-47.5 19.5zM362 -641l-6 10q45 32 86 101t50 124q-65 0 -103.5 44t-38.5 106q0 79 52.5 131.5t129.5 52.5q70 0 116 -44.5t46 -112.5q0 -116 -96 -233.5
t-236 -178.5z" />
    <glyph glyph-name="Lacute" unicode="&#x139;" horiz-adv-x="1458" 
d="M1311 0h-1331l6 39q106 0 148.5 27t51.5 90l215 1362q6 42 -4.5 66t-48.5 37t-112 13l6 39h745l-6 -39q-125 0 -180 -27.5t-64 -88.5l-211 -1330q-10 -68 11 -90t86 -22h211q192 0 324 94t188 279h30zM1116 2224l-547 -479h-18l211 479h354z" />
    <glyph glyph-name="lacute" unicode="&#x13a;" horiz-adv-x="647" 
d="M86 346l195 1172q6 28 2.5 49.5t-18 36.5t-50 22.5t-94.5 7.5l6 39h489l-237 -1442q-11 -78 -6 -105.5t28 -27.5q27 0 79.5 33.5t86.5 75.5l31 -23q-72 -104 -143.5 -158.5t-169.5 -54.5q-139 0 -185.5 84.5t-13.5 290.5zM885 2224l-547 -479h-19l211 479h355z" />
    <glyph glyph-name="Lcommaaccent" unicode="&#x13b;" horiz-adv-x="1458" 
d="M1311 0h-1331l6 39q106 0 148.5 27t51.5 90l215 1362q6 42 -4.5 66t-48.5 37t-112 13l6 39h745l-6 -39q-125 0 -180 -27.5t-64 -88.5l-211 -1330q-10 -68 11 -90t86 -22h211q192 0 324 94t188 279h30zM518 -641l-6 10q45 31 85.5 100t49.5 125q-65 0 -103 44t-38 106
q0 79 52.5 131.5t129.5 52.5q70 0 116 -44.5t46 -112.5q0 -116 -96 -233.5t-236 -178.5z" />
    <glyph glyph-name="lcommaaccent" unicode="&#x13c;" horiz-adv-x="647" 
d="M86 346l195 1172q6 28 2.5 49.5t-18 36.5t-50 22.5t-94.5 7.5l6 39h489l-237 -1442q-11 -78 -6 -105.5t28 -27.5q27 0 79.5 33.5t86.5 75.5l31 -23q-72 -104 -143.5 -158.5t-169.5 -54.5q-139 0 -185.5 84.5t-13.5 290.5zM27 -641l-7 10q45 32 86 101t50 124
q-65 0 -103.5 44t-38.5 106q0 79 53 131.5t130 52.5q70 0 115.5 -44.5t45.5 -112.5q0 -116 -95.5 -233.5t-235.5 -178.5z" />
    <glyph glyph-name="Lcaron" unicode="&#x13d;" horiz-adv-x="1458" 
d="M1311 0h-1331l6 39q106 0 148.5 27t51.5 90l215 1362q6 42 -4.5 66t-48.5 37t-112 13l6 39h745l-6 -39q-125 0 -180 -27.5t-64 -88.5l-211 -1330q-10 -68 11 -90t86 -22h211q192 0 324 94t188 279h30zM1034 1087l-6 11q45 31 85.5 100t49.5 125q-65 0 -103 44t-38 106
q0 79 52.5 131.5t129.5 52.5q70 0 116 -45t46 -113q0 -116 -96 -233.5t-236 -178.5z" />
    <glyph glyph-name="lcaron" unicode="&#x13e;" horiz-adv-x="841" 
d="M86 346l195 1172q6 28 2.5 49.5t-18 36.5t-50 22.5t-94.5 7.5l6 39h489l-237 -1442q-11 -78 -6 -105.5t28 -27.5q27 0 79.5 33.5t86.5 75.5l31 -23q-72 -104 -143.5 -158.5t-169.5 -54.5q-139 0 -185.5 84.5t-13.5 290.5zM672 1087l-6 11q45 31 85.5 100t49.5 125
q-65 0 -103.5 44t-38.5 106q0 79 53 131.5t130 52.5q70 0 116 -45t46 -113q0 -116 -96 -233.5t-236 -178.5z" />
    <glyph glyph-name="Ldot" unicode="&#x13f;" horiz-adv-x="1458" 
d="M1311 0h-1331l6 39q106 0 148.5 27t51.5 90l215 1362q6 42 -4.5 66t-48.5 37t-112 13l6 39h745l-6 -39q-125 0 -180 -27.5t-64 -88.5l-211 -1330q-10 -68 11 -90t86 -22h211q192 0 324 94t188 279h30zM940 752q0 76 54 130t130 54q77 0 131 -54t54 -130t-54.5 -130.5
t-130.5 -54.5t-130 54t-54 131z" />
    <glyph glyph-name="ldot" unicode="&#x140;" horiz-adv-x="770" 
d="M86 346l195 1172q6 28 2.5 49.5t-18 36.5t-50 22.5t-94.5 7.5l6 39h489l-237 -1442q-11 -78 -6 -105.5t28 -27.5q27 0 79.5 33.5t86.5 75.5l31 -23q-72 -104 -143.5 -158.5t-169.5 -54.5q-139 0 -185.5 84.5t-13.5 290.5zM508 752q0 76 54 130t130 54q77 0 131 -54
t54 -130t-54.5 -130.5t-130.5 -54.5t-130 54t-54 131z" />
    <glyph glyph-name="Lslash" unicode="&#x141;" horiz-adv-x="1458" 
d="M25 553l-29 80l289 153l116 732q6 42 -4.5 66t-48.5 37t-112 13l6 39h745l-6 -39q-125 0 -180 -27.5t-64 -88.5l-86 -537l293 156l27 -80l-336 -178l-109 -691q-10 -68 11 -90t86 -22h211q192 0 324 94t188 279h30l-65 -449h-1331l6 39q106 0 148.5 27t51.5 90l82 526z
" />
    <glyph glyph-name="lslash" unicode="&#x142;" horiz-adv-x="714" 
d="M-25 541l-43 80l222 131l127 766q6 28 2.5 49.5t-18 36.5t-50 22.5t-94.5 7.5l6 39h489l-116 -712l215 129l43 -78l-279 -168l-100 -613q-11 -78 -6 -105.5t28 -27.5q27 0 79.5 33.5t86.5 75.5l31 -23q-72 -104 -143.5 -158.5t-169.5 -54.5q-139 0 -185.5 84.5
t-13.5 290.5l47 289z" />
    <glyph glyph-name="Nacute" unicode="&#x143;" horiz-adv-x="1818" 
d="M1423 -29h-69l-858 1387l-168 -1059q-42 -260 180 -260l-6 -39h-539l6 39q114 0 181 67.5t88 192.5l180 1145q13 82 -31 129.5t-131 52.5l-41 2l6 45h492l712 -1171l131 884q37 248 -182 248l6 39h541l-6 -39q-115 0 -182 -65.5t-86 -182.5zM1561 2224l-547 -479h-19
l211 479h355z" />
    <glyph glyph-name="nacute" unicode="&#x144;" horiz-adv-x="1282" 
d="M53 813l-22 29q91 100 191 144t165 44q53 0 85 -15t53.5 -54.5t20 -108t-17.5 -176.5q60 174 158 264t217 90q63 0 107 -16t64.5 -58t32 -72t6 -101.5t-9.5 -100.5t-18 -111v-2l-57 -338q-12 -78 -7 -105.5t28 -27.5q27 0 79 33.5t86 75.5l31 -23q-72 -104 -143.5 -158.5
t-169.5 -54.5q-139 0 -187 85t-12 290l41 227q5 26 8 51t7 62.5t3.5 68t-4.5 59t-16.5 44.5t-32.5 16q-45 0 -104 -69.5t-115 -192.5l-98 -612h-311l125 772q19 119 -21 119q-24 0 -67.5 -18.5t-94.5 -59.5zM1108 1597l-547 -479h-18l211 479h354z" />
    <glyph glyph-name="Ncommaaccent" unicode="&#x145;" horiz-adv-x="1818" 
d="M1423 -29h-69l-858 1387l-168 -1059q-42 -260 180 -260l-6 -39h-539l6 39q114 0 181 67.5t88 192.5l180 1145q13 82 -31 129.5t-131 52.5l-41 2l6 45h492l712 -1171l131 884q37 248 -182 248l6 39h541l-6 -39q-115 0 -182 -65.5t-86 -182.5zM653 -641l-6 10
q45 31 85.5 100t49.5 125q-65 0 -103 44t-38 106q0 79 52.5 131.5t129.5 52.5q70 0 116 -44.5t46 -112.5q0 -116 -96 -233.5t-236 -178.5z" />
    <glyph glyph-name="ncommaaccent" unicode="&#x146;" horiz-adv-x="1282" 
d="M53 813l-22 29q91 100 191 144t165 44q53 0 85 -15t53.5 -54.5t20 -108t-17.5 -176.5q60 174 158 264t217 90q63 0 107 -16t64.5 -58t32 -72t6 -101.5t-9.5 -100.5t-18 -111v-2l-57 -338q-12 -78 -7 -105.5t28 -27.5q27 0 79 33.5t86 75.5l31 -23q-72 -104 -143.5 -158.5
t-169.5 -54.5q-139 0 -187 85t-12 290l41 227q5 26 8 51t7 62.5t3.5 68t-4.5 59t-16.5 44.5t-32.5 16q-45 0 -104 -69.5t-115 -192.5l-98 -612h-311l125 772q19 119 -21 119q-24 0 -67.5 -18.5t-94.5 -59.5zM406 -641l-7 10q45 32 86 101t50 124q-65 0 -103.5 44t-38.5 106
q0 79 52.5 131.5t129.5 52.5q70 0 116 -44.5t46 -112.5q0 -116 -95.5 -233.5t-235.5 -178.5z" />
    <glyph glyph-name="Ncaron" unicode="&#x147;" horiz-adv-x="1818" 
d="M1423 -29h-69l-858 1387l-168 -1059q-42 -260 180 -260l-6 -39h-539l6 39q114 0 181 67.5t88 192.5l180 1145q13 82 -31 129.5t-131 52.5l-41 2l6 45h492l712 -1171l131 884q37 248 -182 248l6 39h541l-6 -39q-115 0 -182 -65.5t-86 -182.5zM1157 2034l381 225h21
l-447 -512l-287 512h21z" />
    <glyph glyph-name="ncaron" unicode="&#x148;" horiz-adv-x="1282" 
d="M53 813l-22 29q91 100 191 144t165 44q53 0 85 -15t53.5 -54.5t20 -108t-17.5 -176.5q60 174 158 264t217 90q63 0 107 -16t64.5 -58t32 -72t6 -101.5t-9.5 -100.5t-18 -111v-2l-57 -338q-12 -78 -7 -105.5t28 -27.5q27 0 79 33.5t86 75.5l31 -23q-72 -104 -143.5 -158.5
t-169.5 -54.5q-139 0 -187 85t-12 290l41 227q5 26 8 51t7 62.5t3.5 68t-4.5 59t-16.5 44.5t-32.5 16q-45 0 -104 -69.5t-115 -192.5l-98 -612h-311l125 772q19 119 -21 119q-24 0 -67.5 -18.5t-94.5 -59.5zM702 1405l381 225h21l-447 -512l-286 512h20z" />
    <glyph glyph-name="Eng" unicode="&#x14a;" horiz-adv-x="1818" 
d="M1458 193q-37 -215 -100 -349.5t-183 -244t-339 -230.5l-17 23q68 63 119 130.5t100 163.5t87.5 228.5t66.5 304.5l2 10l-698 1129l-168 -1059q-42 -260 180 -260l-6 -39h-539l6 39q114 0 181 67.5t88 192.5l180 1145q13 82 -31 129.5t-131 52.5l-41 2l6 45h492
l712 -1171l131 884q37 248 -182 248l6 39h541l-6 -39q-115 0 -182 -65.5t-86 -182.5z" />
    <glyph glyph-name="eng" unicode="&#x14b;" horiz-adv-x="1216" 
d="M713 219l61 354q5 26 8 51t7 62.5t3.5 68t-4.5 59t-16.5 44.5t-32.5 16q-45 0 -104 -69.5t-115 -192.5l-98 -612h-311l125 772q19 119 -21 119q-24 0 -67.5 -18.5t-94.5 -59.5l-22 29q91 100 191 144t165 44q53 0 85 -15t53.5 -54.5t20 -108t-17.5 -176.5q60 174 158 264
t217 90q63 0 107 -16t64.5 -58t32 -72t6 -101.5t-9.5 -100.5t-18 -111v-2l-65 -376q-28 -162 -66.5 -271.5t-111 -207t-176.5 -175.5t-269 -170l-16 23q127 118 199 296.5t133 530.5z" />
    <glyph glyph-name="Omacron" unicode="&#x14c;" horiz-adv-x="1918" 
d="M1028 1642q-87 0 -168.5 -41t-146.5 -112t-119 -167.5t-90 -206.5t-56 -230t-20 -238q0 -298 123 -453t338 -155q128 0 240.5 81t191.5 218t124.5 322t45.5 389q0 291 -124.5 442t-338.5 151zM1012 1708q252 0 440.5 -104.5t286.5 -288.5t98 -422q0 -204 -72.5 -378
t-197 -292.5t-294.5 -185t-362 -66.5q-251 0 -440.5 107.5t-289 293t-99.5 421.5q0 205 72.5 378t198 290t296 182t363.5 65zM827 1886l15 96h704l-14 -96h-705z" />
    <glyph glyph-name="omacron" unicode="&#x14d;" 
d="M41 311q0 113 40 223.5t107.5 198t152 155.5t179 105t182.5 37q107 0 186.5 -30t122.5 -81t63 -108t20 -121q0 -95 -28.5 -188.5t-76.5 -171.5t-113.5 -145.5t-138.5 -114t-151.5 -73t-151.5 -26.5q-87 0 -156 20t-112.5 53t-72.5 78.5t-40.5 91.5t-11.5 97zM375 365
q0 -75 4.5 -130.5t15.5 -108t35 -80.5t59 -28q57 0 105 48t78 119.5t51.5 158.5t30 161.5t8.5 131.5q0 74 -4.5 130t-17 106.5t-36.5 78t-59 27.5q-57 0 -105 -47.5t-77.5 -118.5t-50 -157t-29 -160t-8.5 -131zM350 1288l15 96h704l-14 -96h-705z" />
    <glyph glyph-name="Obreve" unicode="&#x14e;" horiz-adv-x="1918" 
d="M1028 1642q-87 0 -168.5 -41t-146.5 -112t-119 -167.5t-90 -206.5t-56 -230t-20 -238q0 -298 123 -453t338 -155q128 0 240.5 81t191.5 218t124.5 322t45.5 389q0 291 -124.5 442t-338.5 151zM1012 1708q252 0 440.5 -104.5t286.5 -288.5t98 -422q0 -204 -72.5 -378
t-197 -292.5t-294.5 -185t-362 -66.5q-251 0 -440.5 107.5t-289 293t-99.5 421.5q0 205 72.5 378t198 290t296 182t363.5 65zM1442 2140h90q-19 -82 -54.5 -144t-74 -96t-85 -55t-82.5 -27t-73 -6q-35 0 -70.5 6t-81.5 27t-80 55t-56 96t-19 144h92q3 -118 63.5 -178.5
t168.5 -60.5q96 0 163 60.5t99 178.5z" />
    <glyph glyph-name="obreve" unicode="&#x14f;" 
d="M41 311q0 113 40 223.5t107.5 198t152 155.5t179 105t182.5 37q107 0 186.5 -30t122.5 -81t63 -108t20 -121q0 -95 -28.5 -188.5t-76.5 -171.5t-113.5 -145.5t-138.5 -114t-151.5 -73t-151.5 -26.5q-87 0 -156 20t-112.5 53t-72.5 78.5t-40.5 91.5t-11.5 97zM375 365
q0 -75 4.5 -130.5t15.5 -108t35 -80.5t59 -28q57 0 105 48t78 119.5t51.5 158.5t30 161.5t8.5 131.5q0 74 -4.5 130t-17 106.5t-36.5 78t-59 27.5q-57 0 -105 -47.5t-77.5 -118.5t-50 -157t-29 -160t-8.5 -131zM965 1513h90q-19 -82 -54.5 -144t-73.5 -95.5t-85 -54.5
t-83 -27t-73 -6q-35 0 -70.5 6t-82 27t-80 54.5t-55.5 95.5t-19 144h92q3 -118 63 -178.5t168 -60.5q96 0 163.5 60.5t99.5 178.5z" />
    <glyph glyph-name="Ohungarumlaut" unicode="&#x150;" horiz-adv-x="1918" 
d="M1028 1642q-87 0 -168.5 -41t-146.5 -112t-119 -167.5t-90 -206.5t-56 -230t-20 -238q0 -298 123 -453t338 -155q128 0 240.5 81t191.5 218t124.5 322t45.5 389q0 291 -124.5 442t-338.5 151zM1012 1708q252 0 440.5 -104.5t286.5 -288.5t98 -422q0 -204 -72.5 -378
t-197 -292.5t-294.5 -185t-362 -66.5q-251 0 -440.5 107.5t-289 293t-99.5 421.5q0 205 72.5 378t198 290t296 182t363.5 65zM1335 2224l-547 -479h-20l213 479h354zM1763 2224l-546 -479h-21l213 479h354z" />
    <glyph glyph-name="ohungarumlaut" unicode="&#x151;" 
d="M41 311q0 113 40 223.5t107.5 198t152 155.5t179 105t182.5 37q107 0 186.5 -30t122.5 -81t63 -108t20 -121q0 -95 -28.5 -188.5t-76.5 -171.5t-113.5 -145.5t-138.5 -114t-151.5 -73t-151.5 -26.5q-87 0 -156 20t-112.5 53t-72.5 78.5t-40.5 91.5t-11.5 97zM375 365
q0 -75 4.5 -130.5t15.5 -108t35 -80.5t59 -28q57 0 105 48t78 119.5t51.5 158.5t30 161.5t8.5 131.5q0 74 -4.5 130t-17 106.5t-36.5 78t-59 27.5q-57 0 -105 -47.5t-77.5 -118.5t-50 -157t-29 -160t-8.5 -131zM883 1597l-547 -479h-21l213 479h355zM1311 1597l-547 -479
h-21l213 479h355z" />
    <glyph glyph-name="OE" unicode="&#x152;" horiz-adv-x="2648" 
d="M1012 1708q386 0 551 -254l34 219h1010l-57 -469h-31q-3 393 -471 393h-166l-108 -692h178q56 0 98.5 9.5t86.5 34.5t79.5 76.5t60.5 129.5h29l-90 -594h-29q-1 74 -22.5 129.5t-58 85.5t-78.5 44t-89 14h-178l-102 -646q-10 -68 10.5 -90t85.5 -22h187q194 0 325 93.5
t187 279.5h30l-67 -449h-1084l27 170q-216 -199 -483 -199q-234 0 -416 107t-280.5 294t-98.5 421q0 205 72.5 378t198 290t296 182t363.5 65zM1028 1642q-87 0 -168.5 -41t-146.5 -112t-119 -167.5t-90 -206.5t-56 -230t-20 -238q0 -298 123 -453t338 -155q186 0 333 163
t216 429l47 262q6 77 6 156q0 291 -124.5 442t-338.5 151z" />
    <glyph glyph-name="oe" unicode="&#x153;" horiz-adv-x="1626" 
d="M41 311q0 113 40 223.5t107.5 198t152 155.5t179 105t182.5 37q213 0 293 -160q153 160 355 160q62 0 110.5 -10.5t77 -26.5t47 -38t25 -41.5t6.5 -39.5q0 -40 -15 -77t-36 -64.5t-61 -56t-72 -47t-88.5 -42.5t-91 -36.5t-98 -35.5t-93.5 -34q-6 -59 -6 -114
q0 -252 125 -252q69 0 156 60.5t165 186.5l33 -16q-90 -190 -212.5 -282.5t-258.5 -92.5q-88 0 -153.5 45t-96.5 136q-83 -86 -181 -133.5t-198 -47.5q-87 0 -156 20t-112.5 53t-72.5 78.5t-40.5 91.5t-11.5 97zM375 365q0 -75 4.5 -130.5t15.5 -108t35 -80.5t59 -28
q57 0 105 48t78 119.5t51.5 158.5t30 161.5t8.5 131.5q0 74 -4.5 130t-17 106.5t-36.5 78t-59 27.5q-57 0 -105 -47.5t-77.5 -118.5t-50 -157t-29 -160t-8.5 -131zM1143 819q-58 -138 -80 -313q156 85 219.5 167.5t63.5 176.5q0 135 -56 135q-38 0 -77 -46.5t-70 -119.5z
" />
    <glyph glyph-name="Racute" unicode="&#x154;" horiz-adv-x="1669" 
d="M762 1612l-119 -762h16q141 0 251 46.5t176.5 145t66.5 236.5q0 96 -27.5 163t-80 103.5t-117.5 52t-152 15.5h-14zM252 1673h524q352 0 539.5 -98.5t187.5 -288.5q0 -187 -157 -305.5t-431 -146.5q193 -3 285 -101t123 -295q25 -157 63 -239.5t102.5 -121t180.5 -52.5
l-4 -27q-113 -27 -240 -27q-208 0 -324 118.5t-140 330.5q-21 201 -98 285.5t-230 89.5l-101 -639q-6 -42 4.5 -66.5t49 -37.5t112.5 -13l-6 -39h-702l6 39q106 0 149 27t52 90l215 1362q9 63 -24.5 89.5t-141.5 26.5zM1362 2224l-547 -479h-18l211 479h354z" />
    <glyph glyph-name="racute" unicode="&#x155;" horiz-adv-x="935" 
d="M506 528l-84 -528h-311l120 772q10 66 6.5 92.5t-22.5 26.5q-24 0 -67.5 -18.5t-94.5 -59.5l-22 29q91 100 191 144t165 44q102 0 134.5 -90t-1.5 -305q38 111 82 191.5t79 120.5t74 62.5t60 26.5t45 4q37 0 62.5 -12.5t36 -32.5t14.5 -36.5t4 -34.5q0 -135 -139 -160
q-13 -2 -47.5 -3t-60 -3t-62 -15t-64 -35.5t-54.5 -68.5t-44 -111zM831 1597l-546 -479h-19l211 479h354z" />
    <glyph glyph-name="Rcommaaccent" unicode="&#x156;" horiz-adv-x="1669" 
d="M762 1612l-119 -762h16q141 0 251 46.5t176.5 145t66.5 236.5q0 96 -27.5 163t-80 103.5t-117.5 52t-152 15.5h-14zM252 1673h524q352 0 539.5 -98.5t187.5 -288.5q0 -187 -157 -305.5t-431 -146.5q193 -3 285 -101t123 -295q25 -157 63 -239.5t102.5 -121t180.5 -52.5
l-4 -27q-113 -27 -240 -27q-208 0 -324 118.5t-140 330.5q-21 201 -98 285.5t-230 89.5l-101 -639q-6 -42 4.5 -66.5t49 -37.5t112.5 -13l-6 -39h-702l6 39q106 0 149 27t52 90l215 1362q9 63 -24.5 89.5t-141.5 26.5zM674 -641l-6 10q45 31 85.5 100t49.5 125
q-65 0 -103 44t-38 106q0 79 52.5 131.5t129.5 52.5q70 0 116 -44.5t46 -112.5q0 -116 -96 -233.5t-236 -178.5z" />
    <glyph glyph-name="rcommaaccent" unicode="&#x157;" horiz-adv-x="935" 
d="M506 528l-84 -528h-311l120 772q10 66 6.5 92.5t-22.5 26.5q-24 0 -67.5 -18.5t-94.5 -59.5l-22 29q91 100 191 144t165 44q102 0 134.5 -90t-1.5 -305q38 111 82 191.5t79 120.5t74 62.5t60 26.5t45 4q37 0 62.5 -12.5t36 -32.5t14.5 -36.5t4 -34.5q0 -135 -139 -160
q-13 -2 -47.5 -3t-60 -3t-62 -15t-64 -35.5t-54.5 -68.5t-44 -111zM68 -641l-7 10q45 32 86 101t50 124q-65 0 -103.5 44t-38.5 106q0 79 53 131.5t130 52.5q70 0 115.5 -44.5t45.5 -112.5q0 -116 -95.5 -233.5t-235.5 -178.5z" />
    <glyph glyph-name="Rcaron" unicode="&#x158;" horiz-adv-x="1669" 
d="M762 1612l-119 -762h16q141 0 251 46.5t176.5 145t66.5 236.5q0 96 -27.5 163t-80 103.5t-117.5 52t-152 15.5h-14zM252 1673h524q352 0 539.5 -98.5t187.5 -288.5q0 -187 -157 -305.5t-431 -146.5q193 -3 285 -101t123 -295q25 -157 63 -239.5t102.5 -121t180.5 -52.5
l-4 -27q-113 -27 -240 -27q-208 0 -324 118.5t-140 330.5q-21 201 -98 285.5t-230 89.5l-101 -639q-6 -42 4.5 -66.5t49 -37.5t112.5 -13l-6 -39h-702l6 39q106 0 149 27t52 90l215 1362q9 63 -24.5 89.5t-141.5 26.5zM981 2034l381 225h20l-446 -512l-287 512h21z" />
    <glyph glyph-name="rcaron" unicode="&#x159;" horiz-adv-x="935" 
d="M506 528l-84 -528h-311l120 772q10 66 6.5 92.5t-22.5 26.5q-24 0 -67.5 -18.5t-94.5 -59.5l-22 29q91 100 191 144t165 44q102 0 134.5 -90t-1.5 -305q38 111 82 191.5t79 120.5t74 62.5t60 26.5t45 4q37 0 62.5 -12.5t36 -32.5t14.5 -36.5t4 -34.5q0 -135 -139 -160
q-13 -2 -47.5 -3t-60 -3t-62 -15t-64 -35.5t-54.5 -68.5t-44 -111zM557 1405l381 225h20l-446 -512l-287 512h21z" />
    <glyph glyph-name="Sacute" unicode="&#x15a;" horiz-adv-x="1345" 
d="M1243 1585l-65 -442h-23q-6 229 -93.5 362t-250.5 133q-148 0 -225.5 -73t-77.5 -183q0 -98 45 -166t133 -122l148 -93q60 -38 102 -68.5t97 -80.5t89 -99t58 -115.5t24 -137.5q0 -125 -52.5 -226.5t-143 -167t-209.5 -100.5t-254 -35q-255 0 -504 123l72 422h22
q0 -96 24.5 -177.5t63.5 -135.5t90 -92t103 -55t102 -17q158 0 252 76t94 233q0 103 -57 193t-160 157l-198 133q-132 87 -191 188.5t-59 244.5q0 107 49 192.5t133.5 139t193.5 82t234 28.5q105 0 222.5 -33t211.5 -88zM1309 2224l-547 -479h-19l211 479h355z" />
    <glyph glyph-name="sacute" unicode="&#x15b;" horiz-adv-x="952" 
d="M535 666l69 -58q113 -92 168 -166.5t55 -150.5q0 -82 -39 -146t-100.5 -100.5t-130 -55t-135.5 -18.5q-88 0 -167.5 19t-136.5 63.5t-57 106.5q0 55 35.5 89t98.5 34q50 0 85.5 -28t54 -67.5t34 -79.5t36 -68t48.5 -28q47 0 79.5 37.5t32.5 110.5q0 37 -8.5 66.5
t-32 59.5t-47 52t-69.5 61l-95 80q-170 146 -170 291q0 84 55.5 144.5t140.5 88t187 27.5q47 0 102.5 -9t111.5 -27t93 -51t37 -75q0 -45 -28.5 -81.5t-81.5 -36.5q-42 0 -73 17.5t-48 43.5t-33.5 56.5t-30 56.5t-37.5 43.5t-55 17.5q-36 0 -60 -33.5t-24 -81.5
q0 -94 136 -204zM922 1597l-547 -479h-19l211 479h355z" />
    <glyph glyph-name="Scircumflex" unicode="&#x15c;" horiz-adv-x="1345" 
d="M1243 1585l-65 -442h-23q-6 229 -93.5 362t-250.5 133q-148 0 -225.5 -73t-77.5 -183q0 -98 45 -166t133 -122l148 -93q60 -38 102 -68.5t97 -80.5t89 -99t58 -115.5t24 -137.5q0 -125 -52.5 -226.5t-143 -167t-209.5 -100.5t-254 -35q-255 0 -504 123l72 422h22
q0 -96 24.5 -177.5t63.5 -135.5t90 -92t103 -55t102 -17q158 0 252 76t94 233q0 103 -57 193t-160 157l-198 133q-132 87 -191 188.5t-59 244.5q0 107 49 192.5t133.5 139t193.5 82t234 28.5q105 0 222.5 -33t211.5 -88zM852 1970l-381 -225h-20l446 512l287 -512h-21z" />
    <glyph glyph-name="scircumflex" unicode="&#x15d;" horiz-adv-x="952" 
d="M535 666l69 -58q113 -92 168 -166.5t55 -150.5q0 -82 -39 -146t-100.5 -100.5t-130 -55t-135.5 -18.5q-88 0 -167.5 19t-136.5 63.5t-57 106.5q0 55 35.5 89t98.5 34q50 0 85.5 -28t54 -67.5t34 -79.5t36 -68t48.5 -28q47 0 79.5 37.5t32.5 110.5q0 37 -8.5 66.5
t-32 59.5t-47 52t-69.5 61l-95 80q-170 146 -170 291q0 84 55.5 144.5t140.5 88t187 27.5q47 0 102.5 -9t111.5 -27t93 -51t37 -75q0 -45 -28.5 -81.5t-81.5 -36.5q-42 0 -73 17.5t-48 43.5t-33.5 56.5t-30 56.5t-37.5 43.5t-55 17.5q-36 0 -60 -33.5t-24 -81.5
q0 -94 136 -204zM571 1343l-381 -225h-20l446 512l287 -512h-20z" />
    <glyph glyph-name="Scedilla" unicode="&#x15e;" horiz-adv-x="1345" 
d="M1243 1585l-65 -442h-23q-6 229 -93.5 362t-250.5 133q-148 0 -225.5 -73t-77.5 -183q0 -98 45 -166t133 -122l148 -93q60 -38 102 -68.5t97 -80.5t89 -99t58 -115.5t24 -137.5q0 -121 -48.5 -219.5t-133 -163.5t-196 -102t-240.5 -42l-117 -141q68 45 139 45
q57 0 93 -30.5t36 -82.5q0 -65 -43 -119.5t-108 -87t-133.5 -50t-126.5 -17.5v12q70 12 127 56t84.5 94.5t27.5 93.5q0 59 -53 59q-21 0 -61 -16l-43 39l116 143q-249 5 -483 123l72 422h22q0 -96 24.5 -177.5t63.5 -135.5t90 -92t103 -55t102 -17q158 0 252 76t94 233
q0 103 -57 193t-160 157l-198 133q-132 87 -191 188.5t-59 244.5q0 107 49 192.5t133.5 139t193.5 82t234 28.5q105 0 222.5 -33t211.5 -88z" />
    <glyph glyph-name="scedilla" unicode="&#x15f;" horiz-adv-x="952" 
d="M535 666l69 -58q113 -92 168 -166.5t55 -150.5q0 -80 -36.5 -142.5t-96 -99.5t-125 -56.5t-133.5 -21.5l-114 -139q68 45 139 45q57 0 93 -30.5t36 -82.5q0 -65 -43 -119.5t-108 -87t-134 -50t-127 -17.5v12q71 12 128 56t84.5 94.5t27.5 93.5q0 59 -53 59q-22 0 -62 -16
l-43 39l117 145q-129 7 -222.5 55t-93.5 132q0 55 35.5 89t98.5 34q50 0 85.5 -28t54 -67.5t34 -79.5t36 -68t48.5 -28q47 0 79.5 37.5t32.5 110.5q0 37 -8.5 66.5t-32 59.5t-47 52t-69.5 61l-95 80q-170 146 -170 291q0 84 55.5 144.5t140.5 88t187 27.5q47 0 102.5 -9
t111.5 -27t93 -51t37 -75q0 -45 -28.5 -81.5t-81.5 -36.5q-42 0 -73 17.5t-48 43.5t-33.5 56.5t-30 56.5t-37.5 43.5t-55 17.5q-36 0 -60 -33.5t-24 -81.5q0 -94 136 -204z" />
    <glyph glyph-name="Scaron" unicode="&#x160;" horiz-adv-x="1345" 
d="M1243 1585l-65 -442h-23q-6 229 -93.5 362t-250.5 133q-148 0 -225.5 -73t-77.5 -183q0 -98 45 -166t133 -122l148 -93q60 -38 102 -68.5t97 -80.5t89 -99t58 -115.5t24 -137.5q0 -125 -52.5 -226.5t-143 -167t-209.5 -100.5t-254 -35q-255 0 -504 123l72 422h22
q0 -96 24.5 -177.5t63.5 -135.5t90 -92t103 -55t102 -17q158 0 252 76t94 233q0 103 -57 193t-160 157l-198 133q-132 87 -191 188.5t-59 244.5q0 107 49 192.5t133.5 139t193.5 82t234 28.5q105 0 222.5 -33t211.5 -88zM885 2034l381 225h20l-446 -512l-287 512h20z" />
    <glyph glyph-name="scaron" unicode="&#x161;" horiz-adv-x="952" 
d="M535 666l69 -58q113 -92 168 -166.5t55 -150.5q0 -82 -39 -146t-100.5 -100.5t-130 -55t-135.5 -18.5q-88 0 -167.5 19t-136.5 63.5t-57 106.5q0 55 35.5 89t98.5 34q50 0 85.5 -28t54 -67.5t34 -79.5t36 -68t48.5 -28q47 0 79.5 37.5t32.5 110.5q0 37 -8.5 66.5
t-32 59.5t-47 52t-69.5 61l-95 80q-170 146 -170 291q0 84 55.5 144.5t140.5 88t187 27.5q47 0 102.5 -9t111.5 -27t93 -51t37 -75q0 -45 -28.5 -81.5t-81.5 -36.5q-42 0 -73 17.5t-48 43.5t-33.5 56.5t-30 56.5t-37.5 43.5t-55 17.5q-36 0 -60 -33.5t-24 -81.5
q0 -94 136 -204zM604 1405l381 225h21l-447 -512l-287 512h21z" />
    <glyph glyph-name="uni0162" unicode="&#x162;" horiz-adv-x="1527" 
d="M172 1673h1487l-80 -469h-31q-3 191 -106.5 292t-335.5 101h-55l-228 -1441q-10 -64 27.5 -90.5t159.5 -26.5l-6 -39h-746l6 39q122 0 167.5 26.5t55.5 90.5l228 1441h-51q-81 0 -147.5 -10t-116 -27t-90 -45.5t-69 -58.5t-52.5 -73.5t-40 -83.5t-34 -95h-37zM430 -641
l-6 10q45 31 85.5 100t49.5 125q-65 0 -103 44t-38 106q0 79 52.5 131.5t129.5 52.5q70 0 116 -44.5t46 -112.5q0 -116 -96 -233.5t-236 -178.5z" />
    <glyph glyph-name="uni0163" unicode="&#x163;" horiz-adv-x="780" 
d="M141 299l103 633l-152 16l6 37h178l316 297h22l-51 -297h295l-8 -53h-295l-113 -701q-11 -78 -6 -105.5t27 -27.5q33 0 85 27t101 82l31 -23q-72 -104 -143.5 -158.5t-169.5 -54.5q-140 0 -197.5 79t-28.5 249zM80 -641l-6 10q45 31 85.5 100t49.5 125q-65 0 -103 44
t-38 106q0 79 52.5 131.5t129.5 52.5q70 0 116 -44.5t46 -112.5q0 -116 -96 -233.5t-236 -178.5z" />
    <glyph glyph-name="Tcaron" unicode="&#x164;" horiz-adv-x="1527" 
d="M172 1673h1487l-80 -469h-31q-3 191 -106.5 292t-335.5 101h-55l-228 -1441q-10 -64 27.5 -90.5t159.5 -26.5l-6 -39h-746l6 39q122 0 167.5 26.5t55.5 90.5l228 1441h-51q-81 0 -147.5 -10t-116 -27t-90 -45.5t-69 -58.5t-52.5 -73.5t-40 -83.5t-34 -95h-37zM952 2034
l381 225h21l-447 -512l-286 512h20z" />
    <glyph glyph-name="tcaron" unicode="&#x165;" horiz-adv-x="860" 
d="M141 299l103 633l-152 16l6 37h178l316 297h22l-51 -297h295l-8 -53h-295l-113 -701q-11 -78 -6 -105.5t27 -27.5q33 0 85 27t101 82l31 -23q-72 -104 -143.5 -158.5t-169.5 -54.5q-140 0 -197.5 79t-28.5 249zM692 1087l-6 11q45 31 85.5 100t49.5 125q-65 0 -103 44
t-38 106q0 79 52.5 131.5t129.5 52.5q70 0 116 -45t46 -113q0 -116 -96 -233.5t-236 -178.5z" />
    <glyph glyph-name="Tbar" unicode="&#x166;" horiz-adv-x="1527" 
d="M172 1673h1487l-80 -469h-31q-3 191 -106.5 292t-335.5 101h-55l-103 -641h293l-14 -86h-291l-113 -714q-10 -64 27.5 -90.5t159.5 -26.5l-6 -39h-746l6 39q122 0 167.5 26.5t55.5 90.5l113 714h-278l14 86h276l103 641h-51q-81 0 -147.5 -10t-116 -27t-90 -45.5
t-69 -58.5t-52.5 -73.5t-40 -83.5t-34 -95h-37z" />
    <glyph glyph-name="tbar" unicode="&#x167;" horiz-adv-x="780" 
d="M43 653l10 54h154l37 225l-152 16l6 37h178l316 297h22l-51 -297h295l-8 -53h-295l-37 -225h297l-10 -54h-295l-68 -422q-11 -78 -6 -105.5t27 -27.5q33 0 85 27t101 82l31 -23q-72 -104 -143.5 -158.5t-169.5 -54.5q-140 0 -197.5 79t-28.5 249l58 354h-156z" />
    <glyph glyph-name="Utilde" unicode="&#x168;" horiz-adv-x="1761" 
d="M1606 1356l-113 -705q-25 -162 -78 -284.5t-139.5 -212.5t-214.5 -136.5t-295 -46.5q-326 0 -468 172t-91 488l139 887q9 63 -24.5 89.5t-141.5 26.5l6 39h705l-6 -39q-108 0 -151 -26.5t-52 -89.5l-143 -904q-40 -255 44.5 -393.5t284.5 -138.5q447 0 537 573l111 701
q22 140 -21.5 209t-157.5 69l6 39h541l-6 -39q-227 0 -272 -278zM1499 2128l111 117l12 -9l-152 -350h-692l-110 -117l-13 9l152 350h692z" />
    <glyph glyph-name="utilde" unicode="&#x169;" horiz-adv-x="1280" 
d="M725 328q-60 -174 -158 -264.5t-217 -90.5q-63 0 -106.5 17t-64 55.5t-31 73t-6.5 98.5t9 101t18 110q1 4 1 6l59 338q12 66 8.5 92.5t-22.5 26.5q-24 0 -67.5 -18.5t-94.5 -59.5l-22 29q91 100 191 144t165 44q53 0 85.5 -15t52.5 -54t19.5 -109t-20.5 -176l-45 -246
q-5 -26 -8 -51t-7 -62.5t-3.5 -68t4.5 -59t16.5 -44.5t32.5 -16q45 0 104 69.5t115 192.5l107 613h311l-133 -773q-23 -133 29 -133q27 0 79 33.5t86 75.5l31 -23q-72 -104 -143.5 -158.5t-169.5 -54.5q-51 0 -88 10t-66.5 34.5t-42.5 65.5t-17.5 102t9.5 145zM1049 1491
l110 117l15 -9l-152 -339h-528l-111 -117l-12 8l149 340h529z" />
    <glyph glyph-name="Umacron" unicode="&#x16a;" horiz-adv-x="1761" 
d="M1606 1356l-113 -705q-25 -162 -78 -284.5t-139.5 -212.5t-214.5 -136.5t-295 -46.5q-326 0 -468 172t-91 488l139 887q9 63 -24.5 89.5t-141.5 26.5l6 39h705l-6 -39q-108 0 -151 -26.5t-52 -89.5l-143 -904q-40 -255 44.5 -393.5t284.5 -138.5q447 0 537 573l111 701
q22 140 -21.5 209t-157.5 69l6 39h541l-6 -39q-227 0 -272 -278zM766 1886l14 96h705l-15 -96h-704z" />
    <glyph glyph-name="umacron" unicode="&#x16b;" horiz-adv-x="1280" 
d="M725 328q-60 -174 -158 -264.5t-217 -90.5q-63 0 -106.5 17t-64 55.5t-31 73t-6.5 98.5t9 101t18 110q1 4 1 6l59 338q12 66 8.5 92.5t-22.5 26.5q-24 0 -67.5 -18.5t-94.5 -59.5l-22 29q91 100 191 144t165 44q53 0 85.5 -15t52.5 -54t19.5 -109t-20.5 -176l-45 -246
q-5 -26 -8 -51t-7 -62.5t-3.5 -68t4.5 -59t16.5 -44.5t32.5 -16q45 0 104 69.5t115 192.5l107 613h311l-133 -773q-23 -133 29 -133q27 0 79 33.5t86 75.5l31 -23q-72 -104 -143.5 -158.5t-169.5 -54.5q-51 0 -88 10t-66.5 34.5t-42.5 65.5t-17.5 102t9.5 145zM381 1288
l14 96h705l-15 -96h-704z" />
    <glyph glyph-name="Ubreve" unicode="&#x16c;" horiz-adv-x="1761" 
d="M1606 1356l-113 -705q-25 -162 -78 -284.5t-139.5 -212.5t-214.5 -136.5t-295 -46.5q-326 0 -468 172t-91 488l139 887q9 63 -24.5 89.5t-141.5 26.5l6 39h705l-6 -39q-108 0 -151 -26.5t-52 -89.5l-143 -904q-40 -255 44.5 -393.5t284.5 -138.5q447 0 537 573l111 701
q22 140 -21.5 209t-157.5 69l6 39h541l-6 -39q-227 0 -272 -278zM1380 2140h90q-19 -82 -54.5 -144t-73.5 -96t-84.5 -55t-82.5 -27t-73 -6q-35 0 -70.5 6t-81.5 27t-80 55t-56 96t-19 144h92q3 -118 63 -178.5t168 -60.5q96 0 163 60.5t99 178.5z" />
    <glyph glyph-name="ubreve" unicode="&#x16d;" horiz-adv-x="1280" 
d="M725 328q-60 -174 -158 -264.5t-217 -90.5q-63 0 -106.5 17t-64 55.5t-31 73t-6.5 98.5t9 101t18 110q1 4 1 6l59 338q12 66 8.5 92.5t-22.5 26.5q-24 0 -67.5 -18.5t-94.5 -59.5l-22 29q91 100 191 144t165 44q53 0 85.5 -15t52.5 -54t19.5 -109t-20.5 -176l-45 -246
q-5 -26 -8 -51t-7 -62.5t-3.5 -68t4.5 -59t16.5 -44.5t32.5 -16q45 0 104 69.5t115 192.5l107 613h311l-133 -773q-23 -133 29 -133q27 0 79 33.5t86 75.5l31 -23q-72 -104 -143.5 -158.5t-169.5 -54.5q-51 0 -88 10t-66.5 34.5t-42.5 65.5t-17.5 102t9.5 145zM999 1513h91
q-19 -82 -54.5 -144t-73.5 -95.5t-85 -54.5t-83 -27t-73 -6q-35 0 -70.5 6t-82 27t-80 54.5t-55.5 95.5t-19 144h92q3 -118 63 -178.5t168 -60.5q96 0 163 60.5t99 178.5z" />
    <glyph glyph-name="Uring" unicode="&#x16e;" horiz-adv-x="1761" 
d="M1606 1356l-113 -705q-25 -162 -78 -284.5t-139.5 -212.5t-214.5 -136.5t-295 -46.5q-326 0 -468 172t-91 488l139 887q9 63 -24.5 89.5t-141.5 26.5l6 39h705l-6 -39q-108 0 -151 -26.5t-52 -89.5l-143 -904q-40 -255 44.5 -393.5t284.5 -138.5q447 0 537 573l111 701
q22 140 -21.5 209t-157.5 69l6 39h541l-6 -39q-227 0 -272 -278zM1151 2226q78 0 132 -53t54 -127q0 -96 -69.5 -158.5t-163.5 -62.5q-82 0 -135.5 51t-53.5 127q0 92 69 157.5t167 65.5zM1141 2159q-64 0 -105 -44t-41 -108q0 -47 31.5 -81t81.5 -34q71 0 111.5 41.5
t40.5 106.5q0 50 -35.5 84.5t-83.5 34.5z" />
    <glyph glyph-name="uring" unicode="&#x16f;" horiz-adv-x="1280" 
d="M725 328q-60 -174 -158 -264.5t-217 -90.5q-63 0 -106.5 17t-64 55.5t-31 73t-6.5 98.5t9 101t18 110q1 4 1 6l59 338q12 66 8.5 92.5t-22.5 26.5q-24 0 -67.5 -18.5t-94.5 -59.5l-22 29q91 100 191 144t165 44q53 0 85.5 -15t52.5 -54t19.5 -109t-20.5 -176l-45 -246
q-5 -26 -8 -51t-7 -62.5t-3.5 -68t4.5 -59t16.5 -44.5t32.5 -16q45 0 104 69.5t115 192.5l107 613h311l-133 -773q-23 -133 29 -133q27 0 79 33.5t86 75.5l31 -23q-72 -104 -143.5 -158.5t-169.5 -54.5q-51 0 -88 10t-66.5 34.5t-42.5 65.5t-17.5 102t9.5 145zM748 1599
q78 0 132 -53t54 -127q0 -95 -70 -158t-164 -63q-82 0 -135 51t-53 127q0 92 69 157.5t167 65.5zM737 1532q-63 0 -104 -44t-41 -108q0 -47 31.5 -80.5t81.5 -33.5q71 0 111 41t40 106q0 50 -35.5 84.5t-83.5 34.5z" />
    <glyph glyph-name="Uhungarumlaut" unicode="&#x170;" horiz-adv-x="1761" 
d="M1606 1356l-113 -705q-25 -162 -78 -284.5t-139.5 -212.5t-214.5 -136.5t-295 -46.5q-326 0 -468 172t-91 488l139 887q9 63 -24.5 89.5t-141.5 26.5l6 39h705l-6 -39q-108 0 -151 -26.5t-52 -89.5l-143 -904q-40 -255 44.5 -393.5t284.5 -138.5q447 0 537 573l111 701
q22 140 -21.5 209t-157.5 69l6 39h541l-6 -39q-227 0 -272 -278zM1339 2224l-546 -479h-21l213 479h354zM1767 2224l-546 -479h-21l213 479h354z" />
    <glyph glyph-name="uhungarumlaut" unicode="&#x171;" horiz-adv-x="1280" 
d="M725 328q-60 -174 -158 -264.5t-217 -90.5q-63 0 -106.5 17t-64 55.5t-31 73t-6.5 98.5t9 101t18 110q1 4 1 6l59 338q12 66 8.5 92.5t-22.5 26.5q-24 0 -67.5 -18.5t-94.5 -59.5l-22 29q91 100 191 144t165 44q53 0 85.5 -15t52.5 -54t19.5 -109t-20.5 -176l-45 -246
q-5 -26 -8 -51t-7 -62.5t-3.5 -68t4.5 -59t16.5 -44.5t32.5 -16q45 0 104 69.5t115 192.5l107 613h311l-133 -773q-23 -133 29 -133q27 0 79 33.5t86 75.5l31 -23q-72 -104 -143.5 -158.5t-169.5 -54.5q-51 0 -88 10t-66.5 34.5t-42.5 65.5t-17.5 102t9.5 145zM872 1597
l-546 -479h-21l213 479h354zM1300 1597l-546 -479h-21l213 479h354z" />
    <glyph glyph-name="Uogonek" unicode="&#x172;" horiz-adv-x="1761" 
d="M883 -420l4 -16q-104 -60 -199 -60q-76 0 -129 36t-53 106q0 97 76 174t215 151h-31q-326 0 -468 172t-91 488l139 887q9 63 -24.5 89.5t-141.5 26.5l6 39h705l-6 -39q-108 0 -151 -26.5t-52 -89.5l-143 -904q-40 -255 44.5 -393.5t284.5 -138.5q447 0 537 573l111 701
q22 140 -21.5 209t-157.5 69l6 39h541l-6 -39q-227 0 -272 -278l-113 -705q-48 -311 -205.5 -484.5t-447.5 -193.5q-62 -54 -106 -129.5t-44 -144.5q0 -58 32.5 -94.5t90.5 -36.5q35 0 70 12z" />
    <glyph glyph-name="uogonek" unicode="&#x173;" horiz-adv-x="1280" 
d="M999 -422l5 -16q-104 -60 -199 -60q-76 0 -129 36t-53 106q0 98 76 174.5t219 152.5q-124 3 -172.5 81.5t-20.5 275.5q-60 -174 -158 -264.5t-217 -90.5q-63 0 -106.5 17t-64 55.5t-31 73t-6.5 98.5t9 101t18 110q1 4 1 6l59 338q12 66 8.5 92.5t-22.5 26.5
q-24 0 -67.5 -18.5t-94.5 -59.5l-22 29q91 100 191 144t165 44q53 0 85.5 -15t52.5 -54t19.5 -109t-20.5 -176l-45 -246q-5 -26 -8 -51t-7 -62.5t-3.5 -68t4.5 -59t16.5 -44.5t32.5 -16q45 0 104 69.5t115 192.5l107 613h311l-133 -773q-23 -133 29 -133q27 0 79 33.5
t86 75.5l31 -23q-66 -96 -133 -150t-154 -61q-62 -55 -105.5 -131t-43.5 -145q0 -58 32.5 -94.5t90.5 -36.5q34 0 69 12z" />
    <glyph glyph-name="Wcircumflex" unicode="&#x174;" horiz-adv-x="2512" 
d="M2300 1311l-703 -1362h-26l-262 1239l-637 -1237h-27l-332 1573q-12 60 -47 83t-119 23l7 43h673l-6 -43q-82 0 -122 -15.5t-33 -53.5l194 -1074l422 832l-43 203q-12 60 -46.5 83t-119.5 23l6 43h674l-6 -43q-82 0 -122.5 -15.5t-33.5 -53.5l199 -1070l424 842
q39 77 53.5 133t9.5 87t-28.5 49t-50.5 23t-68 5l6 43h506l-6 -43q-41 0 -65.5 -4t-57.5 -21t-62 -50.5t-67 -93t-84 -148.5zM1452 1970l-381 -225h-20l446 512l287 -512h-21z" />
    <glyph glyph-name="wcircumflex" unicode="&#x175;" horiz-adv-x="1632" 
d="M1163 383l217 346q31 50 48 79t29 56.5t10.5 41t-13 24t-33.5 13.5t-59 3l4 39h389l-4 -39q-88 0 -150 -45.5t-133 -155.5l-507 -788h-41l-117 735l-469 -735h-39l-133 881q-6 33 -12 50t-21 32t-40.5 20.5t-68.5 5.5l5 39h577l-4 -39q-63 0 -91 -17t-24 -55l52 -499
l260 407l-9 56q-8 61 -27.5 84.5t-72.5 23.5l4 39h557l-4 -39q-76 0 -108 -17t-27 -55zM850 1343l-381 -225h-20l446 512l287 -512h-21z" />
    <glyph glyph-name="Ycircumflex" unicode="&#x176;" horiz-adv-x="1531" 
d="M465 156l88 563h2l-262 805q-20 60 -53 83t-115 23l6 43h670l-6 -43q-83 0 -125 -16t-31 -53l227 -748l351 520q51 74 76 127t28.5 85.5t-16 51.5t-51.5 26t-83 7l7 43h505l-6 -43q-49 0 -81.5 -8.5t-75.5 -38.5t-91.5 -89t-117.5 -159l-422 -616l-88 -563
q-6 -42 4.5 -66.5t49 -37.5t112.5 -13l-6 -39h-705l6 39q108 0 151 27t52 90zM983 1970l-381 -225h-20l446 512l287 -512h-21z" />
    <glyph glyph-name="ycircumflex" unicode="&#x177;" horiz-adv-x="1132" 
d="M293 1030q81 0 143 -46t100 -128t57.5 -193.5t19 -242.5t-18.5 -275q255 277 293 396q15 62 9.5 97.5t-26 69t-43 56.5t-40 60.5t-17.5 80.5q0 56 35 90.5t104 34.5q142 0 142 -209q0 -81 -32 -171.5t-77.5 -168.5t-122.5 -175.5t-140 -167t-157 -167.5
q-568 -596 -880 -596q-116 0 -186 53t-70 136q0 42 33 74t92 32q36 0 65.5 -20.5t49 -49.5t37 -58t39 -49.5t46.5 -20.5q65 0 222.5 112.5t344.5 284.5q13 108 13.5 245.5t-11.5 274.5t-34.5 253t-59.5 188.5t-82 72.5q-26 0 -53.5 -25.5t-62.5 -97.5l-33 17q82 233 301 233
zM641 1343l-381 -225h-20l446 512l287 -512h-21z" />
    <glyph glyph-name="Ydieresis" unicode="&#x178;" horiz-adv-x="1531" 
d="M465 156l88 563h2l-262 805q-20 60 -53 83t-115 23l6 43h670l-6 -43q-83 0 -125 -16t-31 -53l227 -748l351 520q51 74 76 127t28.5 85.5t-16 51.5t-51.5 26t-83 7l7 43h505l-6 -43q-49 0 -81.5 -8.5t-75.5 -38.5t-91.5 -89t-117.5 -159l-422 -616l-88 -563
q-6 -42 4.5 -66.5t49 -37.5t112.5 -13l-6 -39h-705l6 39q108 0 151 27t52 90zM485 1993q0 76 54 130t131 54q76 0 130 -53.5t54 -130.5t-54 -131t-130 -54t-130.5 54t-54.5 131zM1141 1993q0 77 53.5 130.5t130.5 53.5t130.5 -53.5t53.5 -130.5t-54 -131t-130 -54t-130 54
t-54 131z" />
    <glyph glyph-name="Zacute" unicode="&#x179;" horiz-adv-x="1421" 
d="M-90 0l1177 1595h-174q-101 0 -185 -11t-146.5 -29t-114.5 -48t-87 -59.5t-67 -73.5t-52 -80.5t-44 -87.5h-27l125 467h1192l-1169 -1599h334q123 0 217 20t158 53.5t115 91t83.5 118t65.5 149.5h24l-88 -506h-1337zM1321 2224l-547 -479h-18l211 479h354z" />
    <glyph glyph-name="zacute" unicode="&#x17a;" horiz-adv-x="989" 
d="M1081 967l-802 -686h456l127 151h49l-174 -432h-852l-8 18l793 687h-406l-127 -152h-49l174 432h811zM1034 1597l-547 -479h-18l211 479h354z" />
    <glyph glyph-name="Zdotaccent" unicode="&#x17b;" horiz-adv-x="1421" 
d="M-90 0l1177 1595h-174q-101 0 -185 -11t-146.5 -29t-114.5 -48t-87 -59.5t-67 -73.5t-52 -80.5t-44 -87.5h-27l125 467h1192l-1169 -1599h334q123 0 217 20t158 53.5t115 91t83.5 118t65.5 149.5h24l-88 -506h-1337zM711 1993q0 77 53.5 130.5t130.5 53.5t130.5 -53.5
t53.5 -130.5t-54 -131t-130 -54t-130 54t-54 131z" />
    <glyph glyph-name="zdotaccent" unicode="&#x17c;" horiz-adv-x="989" 
d="M485 1366q0 76 54 130t131 54q76 0 130 -54t54 -130t-54 -130t-130 -54q-77 0 -131 54t-54 130zM1081 967l-802 -686h456l127 151h49l-174 -432h-852l-8 18l793 687h-406l-127 -152h-49l174 432h811z" />
    <glyph glyph-name="Zcaron" unicode="&#x17d;" horiz-adv-x="1421" 
d="M-90 0l1177 1595h-174q-101 0 -185 -11t-146.5 -29t-114.5 -48t-87 -59.5t-67 -73.5t-52 -80.5t-44 -87.5h-27l125 467h1192l-1169 -1599h334q123 0 217 20t158 53.5t115 91t83.5 118t65.5 149.5h24l-88 -506h-1337zM942 2034l381 225h20l-446 -512l-287 512h21z" />
    <glyph glyph-name="zcaron" unicode="&#x17e;" horiz-adv-x="989" 
d="M676 1405l381 225h20l-446 -512l-287 512h21zM1081 967l-802 -686h456l127 151h49l-174 -432h-852l-8 18l793 687h-406l-127 -152h-49l174 432h811z" />
    <glyph glyph-name="uni018F" unicode="&#x18f;" horiz-adv-x="1642" 
d="M668 -27q-146 0 -269.5 40.5t-213.5 118t-129.5 202t-14.5 280.5h1145q41 178 41 344q0 125 -25.5 224.5t-77.5 174.5t-138.5 115.5t-201.5 40.5q-361 0 -630 -319l-29 14q148 237 349.5 361.5t440.5 124.5q320 0 490 -184.5t170 -497.5q0 -223 -74.5 -418.5
t-198.5 -330.5t-289.5 -212.5t-344.5 -77.5zM682 18q88 0 166.5 42.5t138 117.5t104.5 168t76 203h-794q-19 -128 -0.5 -227t65.5 -166.5t110 -102.5t134 -35z" />
    <glyph glyph-name="Scommaaccent" unicode="&#x218;" horiz-adv-x="1345" 
d="M1243 1585l-65 -442h-23q-6 229 -93.5 362t-250.5 133q-148 0 -225.5 -73t-77.5 -183q0 -98 45 -166t133 -122l148 -93q60 -38 102 -68.5t97 -80.5t89 -99t58 -115.5t24 -137.5q0 -125 -52.5 -226.5t-143 -167t-209.5 -100.5t-254 -35q-255 0 -504 123l72 422h22
q0 -96 24.5 -177.5t63.5 -135.5t90 -92t103 -55t102 -17q158 0 252 76t94 233q0 103 -57 193t-160 157l-198 133q-132 87 -191 188.5t-59 244.5q0 107 49 192.5t133.5 139t193.5 82t234 28.5q105 0 222.5 -33t211.5 -88zM387 -641l-6 10q45 31 85.5 100t49.5 125
q-65 0 -103 44t-38 106q0 79 52.5 131.5t129.5 52.5q70 0 116 -44.5t46 -112.5q0 -116 -96 -233.5t-236 -178.5z" />
    <glyph glyph-name="scommaaccent" unicode="&#x219;" horiz-adv-x="952" 
d="M535 666l69 -58q113 -92 168 -166.5t55 -150.5q0 -82 -39 -146t-100.5 -100.5t-130 -55t-135.5 -18.5q-88 0 -167.5 19t-136.5 63.5t-57 106.5q0 55 35.5 89t98.5 34q50 0 85.5 -28t54 -67.5t34 -79.5t36 -68t48.5 -28q47 0 79.5 37.5t32.5 110.5q0 37 -8.5 66.5
t-32 59.5t-47 52t-69.5 61l-95 80q-170 146 -170 291q0 84 55.5 144.5t140.5 88t187 27.5q47 0 102.5 -9t111.5 -27t93 -51t37 -75q0 -45 -28.5 -81.5t-81.5 -36.5q-42 0 -73 17.5t-48 43.5t-33.5 56.5t-30 56.5t-37.5 43.5t-55 17.5q-36 0 -60 -33.5t-24 -81.5
q0 -94 136 -204zM231 -641l-6 10q45 31 85.5 100t49.5 125q-65 0 -103 44t-38 106q0 79 52.5 131.5t129.5 52.5q70 0 116 -44.5t46 -112.5q0 -116 -96 -233.5t-236 -178.5z" />
    <glyph glyph-name="Tcommaaccent" unicode="&#x21a;" horiz-adv-x="1527" 
d="M172 1673h1487l-80 -469h-31q-3 191 -106.5 292t-335.5 101h-55l-228 -1441q-10 -64 27.5 -90.5t159.5 -26.5l-6 -39h-746l6 39q122 0 167.5 26.5t55.5 90.5l228 1441h-51q-81 0 -147.5 -10t-116 -27t-90 -45.5t-69 -58.5t-52.5 -73.5t-40 -83.5t-34 -95h-37zM430 -641
l-6 10q45 31 85.5 100t49.5 125q-65 0 -103 44t-38 106q0 79 52.5 131.5t129.5 52.5q70 0 116 -44.5t46 -112.5q0 -116 -96 -233.5t-236 -178.5z" />
    <glyph glyph-name="tcommaaccent" unicode="&#x21b;" horiz-adv-x="780" 
d="M141 299l103 633l-152 16l6 37h178l316 297h22l-51 -297h295l-8 -53h-295l-113 -701q-11 -78 -6 -105.5t27 -27.5q33 0 85 27t101 82l31 -23q-72 -104 -143.5 -158.5t-169.5 -54.5q-140 0 -197.5 79t-28.5 249zM80 -641l-6 10q45 31 85.5 100t49.5 125q-65 0 -103 44
t-38 106q0 79 52.5 131.5t129.5 52.5q70 0 116 -44.5t46 -112.5q0 -116 -96 -233.5t-236 -178.5z" />
    <glyph glyph-name="uni0232" unicode="&#x232;" horiz-adv-x="1531" 
d="M643 1886l14 96h705l-14 -96h-705zM465 156l88 563h2l-262 805q-20 60 -53 83t-115 23l6 43h670l-6 -43q-83 0 -125 -16t-31 -53l227 -748l351 520q51 74 76 127t28.5 85.5t-16 51.5t-51.5 26t-83 7l7 43h505l-6 -43q-49 0 -81.5 -8.5t-75.5 -38.5t-91.5 -89t-117.5 -159
l-422 -616l-88 -563q-6 -42 4.5 -66.5t49 -37.5t112.5 -13l-6 -39h-705l6 39q108 0 151 27t52 90z" />
    <glyph glyph-name="uni0233" unicode="&#x233;" horiz-adv-x="1132" 
d="M293 1030q81 0 143 -46t100 -128t57.5 -193.5t19 -242.5t-18.5 -275q255 277 293 396q15 62 9.5 97.5t-26 69t-43 56.5t-40 60.5t-17.5 80.5q0 56 35 90.5t104 34.5q142 0 142 -209q0 -81 -32 -171.5t-77.5 -168.5t-122.5 -175.5t-140 -167t-157 -167.5
q-568 -596 -880 -596q-116 0 -186 53t-70 136q0 42 33 74t92 32q36 0 65.5 -20.5t49 -49.5t37 -58t39 -49.5t46.5 -20.5q65 0 222.5 112.5t344.5 284.5q13 108 13.5 245.5t-11.5 274.5t-34.5 253t-59.5 188.5t-82 72.5q-26 0 -53.5 -25.5t-62.5 -97.5l-33 17q82 233 301 233
zM287 1288l14 96h705l-15 -96h-704z" />
    <glyph glyph-name="dotlessj" unicode="&#x237;" horiz-adv-x="651" 
d="M555 723l-96 -530q-24 -130 -53.5 -223.5t-74 -176.5t-113 -152t-159.5 -134t-223 -138l-16 23q125 116 196 294t136 533l100 553q12 66 8.5 92.5t-22.5 26.5q-24 0 -67.5 -18.5t-94.5 -59.5l-23 29q91 100 191.5 144t165.5 44q103 0 139 -70t6 -237z" />
    <glyph glyph-name="uni0259" unicode="&#x259;" horiz-adv-x="940" 
d="M899 684q0 -137 -52 -268.5t-137.5 -228t-200 -155.5t-233.5 -59q-62 0 -110.5 10.5t-77 26.5t-47 38t-25 41.5t-6.5 39.5q0 40 15 76.5t36 64t60.5 55.5t72 47t88 42.5t91 37t98.5 36t94 34.5q6 59 6 115q0 252 -125 252q-68 0 -155.5 -61t-165.5 -187l-33 16
q178 375 502 375q133 0 219 -88t86 -260zM483 184q60 142 78 312q-155 -84 -217.5 -166.5t-62.5 -175.5q0 -136 55 -136q38 0 77 46.5t70 119.5z" />
    <glyph glyph-name="circumflex" unicode="&#x2c6;" horiz-adv-x="856" 
d="M422 1343l-381 -225h-21l447 512l287 -512h-21z" />
    <glyph glyph-name="caron" unicode="&#x2c7;" horiz-adv-x="856" 
d="M432 1405l381 225h21l-447 -512l-287 512h21z" />
    <glyph glyph-name="breve" unicode="&#x2d8;" horiz-adv-x="798" 
d="M672 1513h90q-19 -82 -54.5 -144t-73.5 -95.5t-85 -54.5t-83 -27t-73 -6q-35 0 -70.5 6t-82 27t-80 54.5t-55.5 95.5t-19 144h92q3 -118 63.5 -178.5t168.5 -60.5q96 0 163 60.5t99 178.5z" />
    <glyph glyph-name="dotaccent" unicode="&#x2d9;" horiz-adv-x="491" 
d="M61 1366q0 76 54 130t131 54q76 0 130 -54t54 -130t-54 -130t-130 -54q-77 0 -131 54t-54 130z" />
    <glyph glyph-name="ring" unicode="&#x2da;" horiz-adv-x="540" 
d="M295 1599q78 0 132 -53t54 -127q0 -96 -69.5 -158.5t-163.5 -62.5q-82 0 -135.5 51t-53.5 127q0 92 69 157.5t167 65.5zM285 1532q-64 0 -105 -44t-41 -108q0 -47 31.5 -80.5t81.5 -33.5q71 0 111 41t40 106q0 50 -35 84.5t-83 34.5z" />
    <glyph glyph-name="ogonek" unicode="&#x2db;" horiz-adv-x="520" 
d="M424 -422l4 -16q-104 -60 -199 -60q-76 0 -129 36t-53 106q0 56 26 106.5t77.5 94.5t108 79t138.5 76h21q-71 -49 -129 -136.5t-58 -166.5q0 -58 32.5 -94.5t90.5 -36.5q36 0 70 12z" />
    <glyph glyph-name="tilde" unicode="&#x2dc;" horiz-adv-x="854" 
d="M702 1491l111 117l14 -9l-151 -339h-529l-110 -117l-12 8l149 340h528z" />
    <glyph glyph-name="hungarumlaut" unicode="&#x2dd;" horiz-adv-x="1042" 
d="M590 1597l-547 -479h-20l213 479h354zM1018 1597l-547 -479h-20l213 479h354z" />
    <glyph glyph-name="pi" unicode="&#x3c0;" horiz-adv-x="1470" 
d="M203 877l14 96h1184l-15 -96h-178l-139 -877h-104l139 877h-619l-139 -877h-104l139 877h-178z" />
    <glyph glyph-name="Wgrave" unicode="&#x1e80;" horiz-adv-x="2512" 
d="M2300 1311l-703 -1362h-26l-262 1239l-637 -1237h-27l-332 1573q-12 60 -47 83t-119 23l7 43h673l-6 -43q-82 0 -122 -15.5t-33 -53.5l194 -1074l422 832l-43 203q-12 60 -46.5 83t-119.5 23l6 43h674l-6 -43q-82 0 -122.5 -15.5t-33.5 -53.5l199 -1070l424 842
q39 77 53.5 133t9.5 87t-28.5 49t-50.5 23t-68 5l6 43h506l-6 -43q-41 0 -65.5 -4t-57.5 -21t-62 -50.5t-67 -93t-84 -148.5zM1403 1745l-244 479h334l-70 -479h-20z" />
    <glyph glyph-name="wgrave" unicode="&#x1e81;" horiz-adv-x="1632" 
d="M1163 383l217 346q31 50 48 79t29 56.5t10.5 41t-13 24t-33.5 13.5t-59 3l4 39h389l-4 -39q-88 0 -150 -45.5t-133 -155.5l-507 -788h-41l-117 735l-469 -735h-39l-133 881q-6 33 -12 50t-21 32t-40.5 20.5t-68.5 5.5l5 39h577l-4 -39q-63 0 -91 -17t-24 -55l52 -499
l260 407l-9 56q-8 61 -27.5 84.5t-72.5 23.5l4 39h557l-4 -39q-76 0 -108 -17t-27 -55zM903 1118l-244 479h334l-69 -479h-21z" />
    <glyph glyph-name="Wacute" unicode="&#x1e82;" horiz-adv-x="2512" 
d="M2300 1311l-703 -1362h-26l-262 1239l-637 -1237h-27l-332 1573q-12 60 -47 83t-119 23l7 43h673l-6 -43q-82 0 -122 -15.5t-33 -53.5l194 -1074l422 832l-43 203q-12 60 -46.5 83t-119.5 23l6 43h674l-6 -43q-82 0 -122.5 -15.5t-33.5 -53.5l199 -1070l424 842
q39 77 53.5 133t9.5 87t-28.5 49t-50.5 23t-68 5l6 43h506l-6 -43q-41 0 -65.5 -4t-57.5 -21t-62 -50.5t-67 -93t-84 -148.5zM1942 2224l-547 -479h-19l211 479h355z" />
    <glyph glyph-name="wacute" unicode="&#x1e83;" horiz-adv-x="1632" 
d="M1163 383l217 346q31 50 48 79t29 56.5t10.5 41t-13 24t-33.5 13.5t-59 3l4 39h389l-4 -39q-88 0 -150 -45.5t-133 -155.5l-507 -788h-41l-117 735l-469 -735h-39l-133 881q-6 33 -12 50t-21 32t-40.5 20.5t-68.5 5.5l5 39h577l-4 -39q-63 0 -91 -17t-24 -55l52 -499
l260 407l-9 56q-8 61 -27.5 84.5t-72.5 23.5l4 39h557l-4 -39q-76 0 -108 -17t-27 -55zM1272 1597l-547 -479h-18l211 479h354z" />
    <glyph glyph-name="Wdieresis" unicode="&#x1e84;" horiz-adv-x="2512" 
d="M2300 1311l-703 -1362h-26l-262 1239l-637 -1237h-27l-332 1573q-12 60 -47 83t-119 23l7 43h673l-6 -43q-82 0 -122 -15.5t-33 -53.5l194 -1074l422 832l-43 203q-12 60 -46.5 83t-119.5 23l6 43h674l-6 -43q-82 0 -122.5 -15.5t-33.5 -53.5l199 -1070l424 842
q39 77 53.5 133t9.5 87t-28.5 49t-50.5 23t-68 5l6 43h506l-6 -43q-41 0 -65.5 -4t-57.5 -21t-62 -50.5t-67 -93t-84 -148.5zM936 1993q0 77 54 130.5t130 53.5q77 0 131 -54t54 -130q0 -77 -54.5 -131t-130.5 -54t-130 54t-54 131zM1591 1993q0 76 54 130t131 54
q76 0 130 -53.5t54 -130.5t-54 -131t-130 -54t-130.5 54t-54.5 131z" />
    <glyph glyph-name="wdieresis" unicode="&#x1e85;" horiz-adv-x="1632" 
d="M1163 383l217 346q31 50 48 79t29 56.5t10.5 41t-13 24t-33.5 13.5t-59 3l4 39h389l-4 -39q-88 0 -150 -45.5t-133 -155.5l-507 -788h-41l-117 735l-469 -735h-39l-133 881q-6 33 -12 50t-21 32t-40.5 20.5t-68.5 5.5l5 39h577l-4 -39q-63 0 -91 -17t-24 -55l52 -499
l260 407l-9 56q-8 61 -27.5 84.5t-72.5 23.5l4 39h557l-4 -39q-76 0 -108 -17t-27 -55zM492 1366q0 76 54 130t130 54t130 -54t54 -130t-54 -130t-130 -54t-130 54t-54 130zM983 1366q0 76 53.5 130t130.5 54t131 -54t54 -130t-54 -130t-131 -54t-130.5 54t-53.5 130z" />
    <glyph glyph-name="uni1ECA" unicode="&#x1eca;" horiz-adv-x="923" 
d="M197 156l215 1362q9 63 -24.5 89.5t-141.5 26.5l6 39h704l-6 -39q-108 0 -150.5 -26.5t-51.5 -89.5l-216 -1362q-6 -42 4.5 -66.5t49 -37.5t112.5 -13l-6 -39h-702l6 39q106 0 149 27t52 90zM113 -340q0 76 53.5 130t130.5 54t130.5 -54t53.5 -130t-53.5 -130t-130.5 -54
t-130.5 54t-53.5 130z" />
    <glyph glyph-name="uni1ECB" unicode="&#x1ecb;" horiz-adv-x="692" 
d="M532 723l-96 -492q-10 -51 -10 -81t8 -41t23 -11q25 0 66.5 32t78.5 77l31 -23q-34 -49 -49.5 -70t-46 -55.5t-54.5 -49t-60 -26.5t-77 -12q-137 0 -190.5 90.5t-14.5 284.5l86 426q13 66 10 92.5t-22 26.5q-24 0 -67.5 -18.5t-94.5 -59.5l-22 29q91 100 191 144t165 44
q104 0 141 -71t4 -236zM256 1473q0 83 59 141.5t142 58.5t141.5 -58.5t58.5 -141.5t-58.5 -142t-141.5 -59t-142 59t-59 142zM41 -340q0 76 53.5 130t130.5 54t131 -54t54 -130t-54 -130t-131 -54t-130.5 54t-53.5 130z" />
    <glyph glyph-name="uni1ECC" unicode="&#x1ecc;" horiz-adv-x="1918" 
d="M1028 1642q-87 0 -168.5 -41t-146.5 -112t-119 -167.5t-90 -206.5t-56 -230t-20 -238q0 -298 123 -453t338 -155q128 0 240.5 81t191.5 218t124.5 322t45.5 389q0 291 -124.5 442t-338.5 151zM1012 1708q252 0 440.5 -104.5t286.5 -288.5t98 -422q0 -204 -72.5 -378
t-197 -292.5t-294.5 -185t-362 -66.5q-251 0 -440.5 107.5t-289 293t-99.5 421.5q0 205 72.5 378t198 290t296 182t363.5 65zM526 -340q0 76 54 130t131 54t130.5 -54t53.5 -130t-53.5 -130t-130.5 -54t-131 54t-54 130z" />
    <glyph glyph-name="uni1ECD" unicode="&#x1ecd;" 
d="M41 311q0 113 40 223.5t107.5 198t152 155.5t179 105t182.5 37q107 0 186.5 -30t122.5 -81t63 -108t20 -121q0 -95 -28.5 -188.5t-76.5 -171.5t-113.5 -145.5t-138.5 -114t-151.5 -73t-151.5 -26.5q-87 0 -156 20t-112.5 53t-72.5 78.5t-40.5 91.5t-11.5 97zM375 365
q0 -75 4.5 -130.5t15.5 -108t35 -80.5t59 -28q57 0 105 48t78 119.5t51.5 158.5t30 161.5t8.5 131.5q0 74 -4.5 130t-17 106.5t-36.5 78t-59 27.5q-57 0 -105 -47.5t-77.5 -118.5t-50 -157t-29 -160t-8.5 -131zM233 -340q0 76 54 130t131 54q76 0 130 -54t54 -130t-54 -130
t-130 -54q-77 0 -131 54t-54 130z" />
    <glyph glyph-name="uni1EE4" unicode="&#x1ee4;" horiz-adv-x="1761" 
d="M1606 1356l-113 -705q-25 -162 -78 -284.5t-139.5 -212.5t-214.5 -136.5t-295 -46.5q-326 0 -468 172t-91 488l139 887q9 63 -24.5 89.5t-141.5 26.5l6 39h705l-6 -39q-108 0 -151 -26.5t-52 -89.5l-143 -904q-40 -255 44.5 -393.5t284.5 -138.5q447 0 537 573l111 701
q22 140 -21.5 209t-157.5 69l6 39h541l-6 -39q-227 0 -272 -278zM582 -340q0 76 54 130t130 54t130 -54t54 -130t-54 -130t-130 -54t-130 54t-54 130z" />
    <glyph glyph-name="uni1EE5" unicode="&#x1ee5;" horiz-adv-x="1280" 
d="M725 328q-60 -174 -158 -264.5t-217 -90.5q-63 0 -106.5 17t-64 55.5t-31 73t-6.5 98.5t9 101t18 110q1 4 1 6l59 338q12 66 8.5 92.5t-22.5 26.5q-24 0 -67.5 -18.5t-94.5 -59.5l-22 29q91 100 191 144t165 44q53 0 85.5 -15t52.5 -54t19.5 -109t-20.5 -176l-45 -246
q-5 -26 -8 -51t-7 -62.5t-3.5 -68t4.5 -59t16.5 -44.5t32.5 -16q45 0 104 69.5t115 192.5l107 613h311l-133 -773q-23 -133 29 -133q27 0 79 33.5t86 75.5l31 -23q-72 -104 -143.5 -158.5t-169.5 -54.5q-51 0 -88 10t-66.5 34.5t-42.5 65.5t-17.5 102t9.5 145zM313 -340
q0 76 54 130t131 54q76 0 130 -54t54 -130t-54 -130t-130 -54q-77 0 -131 54t-54 130z" />
    <glyph glyph-name="Ygrave" unicode="&#x1ef2;" horiz-adv-x="1531" 
d="M465 156l88 563h2l-262 805q-20 60 -53 83t-115 23l6 43h670l-6 -43q-83 0 -125 -16t-31 -53l227 -748l351 520q51 74 76 127t28.5 85.5t-16 51.5t-51.5 26t-83 7l7 43h505l-6 -43q-49 0 -81.5 -8.5t-75.5 -38.5t-91.5 -89t-117.5 -159l-422 -616l-88 -563
q-6 -42 4.5 -66.5t49 -37.5t112.5 -13l-6 -39h-705l6 39q108 0 151 27t52 90zM973 1745l-244 479h334l-70 -479h-20z" />
    <glyph glyph-name="ygrave" unicode="&#x1ef3;" horiz-adv-x="1132" 
d="M293 1030q81 0 143 -46t100 -128t57.5 -193.5t19 -242.5t-18.5 -275q255 277 293 396q15 62 9.5 97.5t-26 69t-43 56.5t-40 60.5t-17.5 80.5q0 56 35 90.5t104 34.5q142 0 142 -209q0 -81 -32 -171.5t-77.5 -168.5t-122.5 -175.5t-140 -167t-157 -167.5
q-568 -596 -880 -596q-116 0 -186 53t-70 136q0 42 33 74t92 32q36 0 65.5 -20.5t49 -49.5t37 -58t39 -49.5t46.5 -20.5q65 0 222.5 112.5t344.5 284.5q13 108 13.5 245.5t-11.5 274.5t-34.5 253t-59.5 188.5t-82 72.5q-26 0 -53.5 -25.5t-62.5 -97.5l-33 17q82 233 301 233
zM614 1118l-243 479h334l-70 -479h-21z" />
    <glyph glyph-name="endash" unicode="&#x2013;" horiz-adv-x="1052" 
d="M94 471l15 96h847l-14 -96h-848z" />
    <glyph glyph-name="emdash" unicode="&#x2014;" horiz-adv-x="1558" 
d="M94 469l15 98h1353l-14 -98h-1354z" />
    <glyph glyph-name="quoteleft" unicode="&#x2018;" horiz-adv-x="462" 
d="M35 1231q0 141 110.5 273t266.5 184l6 -15q-57 -35 -103 -111t-47 -139q74 -9 123 -63t49 -129q0 -84 -59 -141.5t-143 -57.5q-88 0 -145.5 58t-57.5 141z" />
    <glyph glyph-name="quoteright" unicode="&#x2019;" horiz-adv-x="462" 
d="M477 1489q0 -141 -110.5 -273t-266.5 -184l-6 15q57 35 103 110.5t47 138.5q-74 9 -123 63.5t-49 129.5q0 84 59 141.5t143 57.5q88 0 145.5 -58t57.5 -141z" />
    <glyph glyph-name="quotesinglbase" unicode="&#x201a;" horiz-adv-x="538" 
d="M477 174q0 -141 -110.5 -273t-266.5 -184l-6 15q57 35 103 111t47 139q-74 9 -123 63t-49 129q0 84 59 141.5t143 57.5q88 0 145.5 -58t57.5 -141z" />
    <glyph glyph-name="quotedblleft" unicode="&#x201c;" horiz-adv-x="997" 
d="M553 1231q0 141 110.5 273t266.5 184l6 -15q-57 -35 -103 -111t-47 -139q74 -9 123 -63t49 -129q0 -84 -59 -141.5t-143 -57.5q-88 0 -145.5 58t-57.5 141zM72 1231q0 141 110.5 273t266.5 184l6 -15q-57 -35 -103 -111t-47 -139q74 -9 123 -63t49 -129
q0 -84 -59.5 -141.5t-143.5 -57.5q-88 0 -145 58t-57 141z" />
    <glyph glyph-name="quotedblright" unicode="&#x201d;" horiz-adv-x="997" 
d="M954 1489q0 -141 -110 -273t-266 -184l-7 15q57 35 103 110.5t47 138.5q-74 9 -123 63.5t-49 129.5q0 84 59.5 141.5t143.5 57.5q88 0 145 -58t57 -141zM477 1489q0 -141 -110.5 -273t-266.5 -184l-6 15q57 35 103 110.5t47 138.5q-74 9 -123 63.5t-49 129.5
q0 84 59 141.5t143 57.5q88 0 145.5 -58t57.5 -141z" />
    <glyph glyph-name="quotedblbase" unicode="&#x201e;" horiz-adv-x="972" 
d="M954 174q0 -141 -110 -273t-266 -184l-7 15q57 35 103 111t47 139q-74 9 -123 63t-49 129q0 84 59.5 141.5t143.5 57.5q88 0 145 -58t57 -141zM477 174q0 -141 -110.5 -273t-266.5 -184l-6 15q57 35 103 111t47 139q-74 9 -123 63t-49 129q0 84 59 141.5t143 57.5
q88 0 145.5 -58t57.5 -141z" />
    <glyph glyph-name="dagger" unicode="&#x2020;" horiz-adv-x="1357" 
d="M768 1579h104l-96 -606h559l-16 -96h-557l-178 -1133h-105l178 1133h-557l17 96h555z" />
    <glyph glyph-name="daggerdbl" unicode="&#x2021;" horiz-adv-x="1357" 
d="M768 1579h104l-86 -545h557l-14 -96h-557l-90 -565h557l-14 -97h-557l-84 -532h-105l84 532h-557l14 97h558l90 565h-557l14 96h557z" />
    <glyph glyph-name="bullet" unicode="&#x2022;" horiz-adv-x="872" 
d="M102 530q0 135 96.5 231.5t231.5 96.5q144 0 242 -96t98 -232q0 -145 -97.5 -242.5t-242.5 -97.5q-136 0 -232 98t-96 242z" />
    <glyph glyph-name="ellipsis" unicode="&#x2026;" horiz-adv-x="1579" 
d="M1118 172q0 83 59 142t142 59t142 -59t59 -142t-59 -142t-142 -59t-142 59t-59 142zM588 172q0 83 58.5 142t141.5 59t142 -59t59 -142t-59 -142t-142 -59t-141.5 59t-58.5 142zM57 172q0 83 59 142t142 59t142 -59t59 -142t-59 -142t-142 -59t-142 59t-59 142z" />
    <glyph glyph-name="perthousand" unicode="&#x2030;" horiz-adv-x="2662" 
d="M2130 61q130 0 207.5 96.5t77.5 227.5q0 107 -59.5 175.5t-170.5 68.5q-121 0 -204 -92.5t-83 -229.5q0 -105 57.5 -175.5t174.5 -70.5zM2126 -29q-158 0 -243 91t-85 229q0 186 111 306t284 120q160 0 243 -88t83 -223q0 -113 -49.5 -212t-141 -161t-202.5 -62z
M1665 1618l-1331 -1618h-111l1327 1618h115zM471 879q130 0 207.5 96t77.5 227q0 107 -59.5 175.5t-170.5 68.5q-121 0 -203.5 -92.5t-82.5 -229.5q0 -105 57 -175t174 -70zM467 788q-158 0 -243 91t-85 229q0 186 111.5 306t284.5 120q160 0 242.5 -88t82.5 -223
q0 -113 -49.5 -212t-141 -161t-202.5 -62zM1307 61q130 0 207 96.5t77 227.5q0 107 -59 175.5t-170 68.5q-121 0 -204 -92.5t-83 -229.5q0 -105 57.5 -175.5t174.5 -70.5zM1303 -29q-158 0 -243 91t-85 229q0 186 111 306t284 120q160 0 243 -88t83 -223q0 -113 -49.5 -212
t-141 -161t-202.5 -62z" />
    <glyph glyph-name="guilsinglleft" unicode="&#x2039;" horiz-adv-x="563" 
d="M440 70l-409 430l544 432h25l-313 -434l176 -428h-23z" />
    <glyph glyph-name="guilsinglright" unicode="&#x203a;" horiz-adv-x="563" 
d="M530 500l-542 -430h-23l314 436l-179 426h25z" />
    <glyph glyph-name="fraction" unicode="&#x2044;" horiz-adv-x="1394" 
d="M1292 1618l-1075 -1618h-117l1071 1618h121z" />
    <glyph glyph-name="Euro" unicode="&#x20ac;" horiz-adv-x="1804" 
d="M45 946l10 70h219q66 320 303.5 506t573.5 186q169 0 316 -44.5t298 -127.5l-41 -391h-26q-43 226 -168 361.5t-322 135.5q-113 0 -209 -49.5t-165 -137t-117.5 -197.5t-77.5 -242h510l-10 -70h-514q-19 -120 -25 -223h502l-10 -70h-492v-6q0 -301 114 -454.5t326 -153.5
q153 0 263 52t191 156t161 283h28l-67 -415q-150 -86 -267.5 -115t-306.5 -29q-163 0 -300.5 50.5t-236 141t-161 215.5t-82.5 275h-262l10 70h246q-2 23 -2 70q0 71 10 153h-219z" />
    <glyph glyph-name="trademark" unicode="&#x2122;" horiz-adv-x="2191" 
d="M51 1372v301h852v-301h-24q-5 32 -9 51.5t-13.5 51.5t-21.5 52.5t-33 45t-47.5 38.5t-65.5 24t-87 10v-752q0 -55 28 -75.5t118 -20.5v-33h-539v33q89 0 116 20.5t27 75.5v752q-48 0 -87 -10t-65 -23.5t-47.5 -39.5t-32.5 -44.5t-21 -53t-13.5 -51t-9.5 -51.5h-25z
M1112 983l23 567q1 52 -26 70t-91 18v35h352l209 -534l188 534h344v-35q-59 0 -84 -16.5t-24 -58.5l29 -693q2 -37 23 -55t77 -18v-33h-451v33q58 0 79.5 18t21.5 55l-25 629l-266 -747h-12l-301 716l-19 -485q-4 -60 5.5 -99t32 -57t46.5 -24t60 -6v-33h-345v33
q35 0 59 6.5t46.5 25t34.5 57t14 97.5z" />
    <glyph glyph-name="Omega" unicode="&#x2126;" horiz-adv-x="1826" 
d="M969 0l16 94q118 24 229.5 88t204 160.5t149 235t56.5 296.5q0 125 -41 233.5t-108.5 183.5t-154 128.5t-177.5 79t-178 25.5q-79 0 -156.5 -14t-154 -44.5t-144 -75t-125.5 -109.5t-100 -143.5t-66 -181t-24 -219.5q0 -122 39 -232.5t103.5 -189.5t141 -135t158.5 -84
l-16 -96h-689l17 96h502q-152 78 -257.5 260.5t-105.5 384.5q0 160 45.5 300t127 244t190 179.5t237.5 113.5t268 38q161 0 304.5 -57t247 -155.5t163.5 -237.5t60 -296q0 -264 -143.5 -468.5t-379.5 -305.5h447l-17 -96h-669z" />
    <glyph glyph-name="partialdiff" unicode="&#x2202;" horiz-adv-x="1161" 
d="M567 1030q158 0 269 -95.5t129 -279.5q22 300 -126 523.5t-425 312.5l49 94q295 -104 447.5 -319.5t152.5 -503.5q0 -111 -22 -221.5t-69.5 -213.5t-114.5 -182t-165 -126.5t-213 -47.5q-108 0 -195 39.5t-141 106t-83 150.5t-29 177q0 127 46.5 238.5t122 186.5
t171.5 118t196 43zM569 930q-82 0 -157 -33.5t-133 -93.5t-92.5 -151t-34.5 -199q0 -166 96 -273.5t229 -107.5q84 0 155.5 27.5t123 74t88 108.5t54 131.5t17.5 141.5q0 75 -22 141.5t-63.5 119t-108.5 83.5t-152 31z" />
    <glyph glyph-name="Delta" unicode="&#x2206;" horiz-adv-x="1236" 
d="M711 1204l430 -1204h-1235zM682 991l-598 -895h913z" />
    <glyph glyph-name="product" unicode="&#x220f;" horiz-adv-x="1736" 
d="M272 1489l17 96h1450l-17 -96h-178l-264 -1669h178l-16 -96h-461l16 96h179l264 1669h-885l-264 -1669h178l-16 -96h-459l14 96h178l265 1669h-179z" />
    <glyph glyph-name="summation" unicode="&#x2211;" horiz-adv-x="1441" 
d="M594 809l-418 774h1223l-74 -471h-104l59 375h-920l361 -686l-615 -705h975l60 375h104l-76 -471h-1275z" />
    <glyph glyph-name="minus" unicode="&#x2212;" 
d="M94 471l15 96h929l-14 -96h-930z" />
    <glyph glyph-name="radical" unicode="&#x221a;" horiz-adv-x="1415" 
d="M18 715l17 96h321l138 -653l772 1650h506l-17 -96h-424l-872 -1827l-187 830h-254z" />
    <glyph glyph-name="infinity" unicode="&#x221e;" horiz-adv-x="1611" 
d="M457 770q108 0 196.5 -49.5t167.5 -161.5q102 110 198.5 160.5t205.5 50.5q129 0 208.5 -76.5t79.5 -191.5q0 -148 -98 -236t-258 -88q-107 0 -200.5 58t-159.5 165q-215 -221 -416 -221q-129 0 -206 74.5t-77 187.5q0 148 102.5 238t256.5 90zM403 276q85 0 166 47.5
t176 151.5q-41 65 -77 105t-89.5 67t-119.5 27q-111 0 -179.5 -54t-68.5 -159q0 -77 50.5 -131t141.5 -54zM1151 276q107 0 178.5 56.5t71.5 154.5q0 79 -53.5 133t-151.5 54q-79 0 -154 -45.5t-170 -147.5q61 -103 126 -154t153 -51z" />
    <glyph glyph-name="integral" unicode="&#x222b;" horiz-adv-x="546" 
d="M86 -379l276 1751q10 58 25.5 97.5t47.5 76t88.5 54.5t138.5 18h20l-14 -94q-107 0 -150.5 -30t-58.5 -122l-277 -1751q-8 -46 -18 -79t-31.5 -66.5t-52.5 -54t-80 -33.5t-115 -13h-20l14 95q105 0 148.5 29.5t58.5 121.5z" />
    <glyph glyph-name="approxequal" unicode="&#x2248;" horiz-adv-x="1349" 
d="M365 465q57 0 119.5 -21t118 -50.5t109.5 -59.5t111.5 -51t106.5 -21q63 0 116 38t105 128l84 -35q-56 -117 -138.5 -172t-178.5 -55q-71 0 -154 31.5t-145 69t-136.5 69t-132.5 31.5q-63 0 -116 -38t-105 -130l-82 39q53 114 138 170.5t180 56.5zM424 838
q57 0 119.5 -21t118 -51t109.5 -59.5t111.5 -50.5t106.5 -21q63 0 116 38t105 128l84 -35q-56 -117 -138.5 -172t-178.5 -55q-71 0 -153.5 31.5t-144.5 68.5t-136.5 68.5t-132.5 31.5q-63 0 -116.5 -38.5t-105.5 -129.5l-82 39q53 114 138 171t180 57z" />
    <glyph glyph-name="notequal" unicode="&#x2260;" 
d="M123 655l14 97h465l88 221h107l-88 -221h358l-14 -97h-383l-109 -272h449l-17 -96h-469l-114 -287h-107l113 287h-353l17 96h375l108 272h-440z" />
    <glyph glyph-name="lessequal" unicode="&#x2264;" horiz-adv-x="1239" 
d="M111 573l14 97l1092 360l-17 -115l-960 -297l860 -329l-19 -111zM43 0l14 98h1012l-14 -98h-1012z" />
    <glyph glyph-name="greaterequal" unicode="&#x2265;" horiz-adv-x="1241" 
d="M1161 670l-14 -97l-1098 -395l19 119l966 328l-866 299l16 106zM1049 98l-15 -98h-1011l14 98h1012z" />
    <glyph glyph-name="lozenge" unicode="&#x25ca;" horiz-adv-x="1153" 
d="M428 -102l-369 870l648 889l383 -889zM971 778l-293 674l-496 -684l277 -682z" />
    <glyph glyph-name="fi" unicode="&#xfb01;" horiz-adv-x="1292" 
d="M1210 985l-149 -754q-10 -51 -10 -80.5t7.5 -41t22.5 -11.5q25 0 67 32t79 77l30 -23q-35 -50 -49.5 -70.5t-45.5 -55t-54.5 -49t-59.5 -26.5t-77 -12q-137 0 -189.5 90t-15.5 285l115 586h-287l-160 -1000q-20 -123 -66.5 -221t-105.5 -159.5t-130.5 -102.5
t-137.5 -57.5t-131 -16.5q-82 0 -162.5 20.5t-140.5 66.5t-60 108q0 51 34.5 88t100.5 37q49 0 83.5 -29t52.5 -70t32.5 -82.5t32.5 -70.5t43 -29q69 0 131.5 111.5t102.5 359.5l166 1047h-234l14 53h228l24 145q20 123 67 221.5t106 160t131.5 102.5t139.5 57.5t132 16.5
q61 0 122.5 -12t117.5 -35t91 -63.5t35 -92.5q0 -55 -34.5 -95t-100.5 -40q-49 0 -84 31t-54 75t-35 87.5t-36.5 74.5t-48.5 31q-64 0 -126 -112.5t-101 -358.5l-31 -193h608z" />
    <glyph glyph-name="fl" unicode="&#xfb02;" horiz-adv-x="1357" 
d="M797 346l186 1106q-28 23 -46.5 59.5t-24.5 65.5t-18.5 50.5t-33.5 21.5q-64 0 -126 -112.5t-101 -358.5l-31 -193h264l-12 -53h-260l-160 -1000q-20 -123 -66.5 -221t-105.5 -159.5t-130.5 -102.5t-137.5 -57.5t-131 -16.5q-82 0 -162.5 20.5t-140.5 66.5t-60 108
q0 51 34.5 88t100.5 37q49 0 83.5 -29t52.5 -70t32.5 -82.5t32.5 -70.5t43 -29q69 0 131.5 111.5t102.5 359.5l166 1047h-234l14 53h228l24 145q20 123 67 221.5t106 160t131.5 102.5t139.5 57.5t132 16.5q87 0 157 -15h283l-237 -1442q-11 -78 -6 -105.5t28 -27.5
q27 0 79.5 33.5t86.5 75.5l31 -23q-72 -104 -144 -158.5t-170 -54.5q-139 0 -186 84.5t-12 290.5z" />
    <glyph glyph-name="uniFB06" unicode="&#xfb06;" horiz-adv-x="1693" 
d="M1493 1118l-20 -133h299l-9 -53h-299l-108 -701q-11 -78 -6.5 -105.5t26.5 -27.5q33 0 85.5 27t101.5 82l30 -23q-72 -104 -143.5 -158.5t-169.5 -54.5q-139 0 -195.5 79t-29.5 249l100 633l-149 16l6 37h151l19 115q15 95 17 170.5t-8 127t-28.5 87.5t-47.5 56.5t-61 29
t-73 8.5q-111 0 -183.5 -77t-72.5 -214q0 -54 26.5 -145t61.5 -162q6 -13 22 -37.5t25.5 -46t9.5 -41.5q0 -44 -28 -75t-82 -31q-42 0 -73 17.5t-48 43.5t-33.5 56.5t-30 56.5t-37.5 43.5t-55 17.5q-36 0 -60 -33.5t-24 -81.5q0 -94 136 -204l69 -58q113 -92 168 -166.5
t55 -150.5q0 -82 -39 -146t-100.5 -100.5t-130 -55t-135.5 -18.5q-88 0 -167.5 19t-136.5 63.5t-57 106.5q0 55 35.5 89t98.5 34q50 0 85.5 -28t54 -67.5t34 -79.5t36 -68t48.5 -28q47 0 79.5 37.5t32.5 110.5q0 37 -8.5 66.5t-32 59.5t-47 52t-69.5 61l-95 80
q-170 146 -170 291q0 84 55.5 144.5t140.5 88t187 27.5q58 0 130 -14t126 -41q-58 71 -97.5 170.5t-39.5 165.5q0 183 116 279t316 96q82 0 151 -18t128.5 -59t94.5 -107t49.5 -161.5t-7.5 -222.5z" />
    <glyph glyph-name="acute.case" horiz-adv-x="1024" 
d="M795 2224l-547 -479h-19l211 479h355z" />
    <glyph glyph-name="breve.case" horiz-adv-x="1024" 
d="M760 2140h90q-19 -82 -54.5 -144t-74 -96t-85 -55t-82.5 -27t-73 -6q-35 0 -70.5 6t-81.5 27t-80 55t-56 96t-19 144h92q3 -118 63.5 -178.5t168.5 -60.5q96 0 163 60.5t99 178.5z" />
    <glyph glyph-name="c_t" horiz-adv-x="1652" 
d="M811 346l33 -16q-90 -190 -214 -274.5t-284 -84.5q-133 0 -219 88t-86 260q0 92 28 191.5t83.5 191.5t129.5 165.5t174 118t208 44.5q47 0 92 -10q-144 138 -144 309q0 157 112 257t312 100q68 0 127 -12.5t113 -40t92.5 -71.5t64.5 -107.5t30 -147t-11 -189.5l-20 -133
h299l-9 -53h-299l-108 -701q-11 -78 -6.5 -105.5t26.5 -27.5q33 0 85.5 27t101.5 82l30 -23q-72 -104 -143.5 -158.5t-169.5 -54.5q-139 0 -195.5 79t-29.5 249l100 633l-149 16l6 37h151l19 115q15 95 17 170.5t-8 127t-28.5 87.5t-47.5 56.5t-61 29t-73 8.5
q-120 0 -183 -77.5t-63 -192.5q0 -153 92 -271q14 -20 38.5 -43t42.5 -38.5t32 -41t14 -55.5q0 -47 -28 -82t-88 -35q-49 0 -77.5 25t-38 60.5t-15.5 71t-19.5 60.5t-40.5 25q-62 0 -118.5 -100.5t-87.5 -242.5t-31 -275q0 -252 125 -252q45 0 93 18.5t109.5 73t114.5 139.5
z" />
    <glyph glyph-name="caron.case" horiz-adv-x="1024" 
d="M477 2034l381 225h21l-447 -512l-287 512h21z" />
    <glyph glyph-name="cedilla.case" horiz-adv-x="1024" 
d="M520 -8h62l-133 -160q68 45 139 45q57 0 93 -30.5t36 -82.5q0 -65 -43 -119.5t-108 -87t-134 -50t-127 -17.5v12q71 12 128 56t84.5 94.5t27.5 93.5q0 59 -53 59q-22 0 -62 -16l-43 39z" />
    <glyph glyph-name="circumflex.case" horiz-adv-x="1024" 
d="M547 1970l-381 -225h-21l447 512l287 -512h-21z" />
    <glyph glyph-name="commaaccent" horiz-adv-x="780" 
d="M231 -641l-6 10q45 31 85.5 100t49.5 125q-65 0 -103 44t-38 106q0 79 52.5 131.5t129.5 52.5q70 0 116 -44.5t46 -112.5q0 -116 -96 -233.5t-236 -178.5z" />
    <glyph glyph-name="dieresis.case" horiz-adv-x="1024" 
d="M0 1993q0 77 54 130.5t130 53.5q77 0 131 -54t54 -130q0 -77 -54.5 -131t-130.5 -54t-130 54t-54 131zM655 1993q0 76 54 130t131 54q76 0 130 -53.5t54 -130.5t-54 -131t-130 -54t-130.5 54t-54.5 131z" />
    <glyph glyph-name="dot" horiz-adv-x="692" 
d="M145 1473q0 83 59 141.5t142 58.5t142 -58.5t59 -141.5t-59 -142t-142 -59t-142 59t-59 142z" />
    <glyph glyph-name="dotaccent.case" horiz-adv-x="1024" 
d="M328 1993q0 77 54 130.5t130 53.5t130 -53.5t54 -130.5t-54 -131t-130 -54t-130 54t-54 131z" />
    <glyph glyph-name="dotaccent.low" horiz-adv-x="614" 
d="M123 -340q0 76 53.5 130t130.5 54t131 -54t54 -130t-54 -130t-131 -54t-130.5 54t-53.5 130z" />
    <glyph glyph-name="eight.pof" horiz-adv-x="1353" 
d="M528 801l-34 26q-111 88 -167.5 201t-56.5 229q0 92 33 173t96 144.5t164.5 100.5t229.5 37q236 0 365.5 -89.5t129.5 -219.5q0 -133 -126.5 -247.5t-352.5 -168.5l115 -76q139 -87 207.5 -198t68.5 -226q0 -94 -41.5 -185.5t-115.5 -165.5t-189 -119.5t-250 -45.5
q-130 0 -234 34t-168 91t-98 128t-34 149q0 71 28 138.5t83 126t144 101.5t203 62zM659 709l-108 77q-94 -51 -147.5 -170t-53.5 -256q0 -142 64.5 -236.5t191.5 -94.5q66 0 119.5 32.5t84.5 83.5t47.5 107.5t16.5 109.5q0 103 -47.5 183t-167.5 164zM797 1655
q-97 0 -155 -89t-58 -223q0 -99 51.5 -188.5t136.5 -146.5q122 71 173.5 169.5t51.5 235.5q0 94 -58 168t-142 74z" />
    <glyph glyph-name="five.pof" horiz-adv-x="1069" 
d="M88 209l-33 12l391 764h562l-66 -242h-532l-197 -368q143 127 328 127q165 0 258.5 -78.5t93.5 -218.5q0 -88 -26.5 -169t-73.5 -150t-119.5 -136t-155.5 -123t-192 -114t-217.5 -106.5t-243.5 -102.5l-4 22q686 371 686 803q0 95 -46.5 149t-146.5 54q-136 0 -266 -123z
" />
    <glyph glyph-name="four.pof" horiz-adv-x="1333" 
d="M870 0l-73 -465q-11 -96 82 -96h63l-6 -39h-627l6 39h64q95 0 110 96l74 465h-616l1081 1067h23l-142 -893h148q79 0 123.5 34.5t79.5 135.5h32l-55 -344h-367zM215 174h383l72 449z" />
    <glyph glyph-name="grave.case" horiz-adv-x="1024" 
d="M590 1745l-244 479h334l-70 -479h-20z" />
    <glyph glyph-name="hungarumlaut.case" horiz-adv-x="1024" 
d="M582 2224l-547 -479h-21l213 479h355zM1010 2224l-547 -479h-21l213 479h355z" />
    <glyph glyph-name="macron.case" horiz-adv-x="1024" 
d="M154 1886l14 96h704l-14 -96h-704z" />
    <glyph glyph-name="nine.pof" horiz-adv-x="1368" 
d="M41 -700q143 57 270 148t226 202.5t176.5 231.5t136.5 253q-71 -82 -162 -125t-186 -43q-78 0 -151.5 31t-132.5 87t-94.5 144t-35.5 193q0 266 181.5 437t473.5 171q129 0 230.5 -41t164.5 -113.5t95.5 -167t32.5 -206.5q0 -179 -65 -344.5t-178 -298.5t-269 -247.5
t-332.5 -198t-374.5 -144.5zM614 70q37 0 65 3.5t81 28.5t102 72q43 92 71 213t28 236q0 87 -21.5 164t-70 130.5t-115.5 53.5q-80 0 -145 -51.5t-105.5 -136.5t-62 -189t-21.5 -215q0 -85 19 -152.5t64 -112t111 -44.5z" />
    <glyph glyph-name="ogonek.case" horiz-adv-x="1024" 
d="M698 -420l4 -16q-104 -60 -198 -60q-76 0 -129 36t-53 106q0 56 26 106.5t77.5 94.5t108 79t138.5 76h20q-71 -49 -128.5 -136t-57.5 -167q0 -58 32.5 -94.5t90.5 -36.5q35 0 69 12z" />
    <glyph glyph-name="one.pof" horiz-adv-x="782" 
d="M600 856l-113 -721q-15 -96 80 -96h64l-6 -39h-625l6 39h62q97 0 112 96l113 721q15 96 -80 96h-63l6 39h626l-6 -39h-63q-98 0 -113 -96z" />
    <glyph glyph-name="ring.case" horiz-adv-x="1024" 
d="M537 2226q78 0 132 -53t54 -127q0 -95 -70 -158t-164 -63q-82 0 -135 51t-53 127q0 92 69 157.5t167 65.5zM526 2159q-63 0 -104 -44t-41 -108q0 -47 31.5 -81t81.5 -34q71 0 111 41.5t40 106.5q0 50 -35.5 84.5t-83.5 34.5z" />
    <glyph glyph-name="s_p" horiz-adv-x="2078" 
d="M1260 8l-72 -459q-9 -57 22 -83.5t142 -26.5l-6 -39h-654l6 39q67 0 105.5 15t51.5 36.5t19 58.5l246 1551q15 95 17.5 170.5t-8 127t-28.5 87.5t-47 56.5t-61 29t-73 8.5q-115 0 -180.5 -77.5t-65.5 -186.5q0 -75 25 -155t69 -144q8 -11 38.5 -42.5t47 -59.5t16.5 -60
q0 -36 -29 -70t-81 -34q-42 0 -73 17.5t-48 43.5t-33.5 56.5t-30 56.5t-37.5 43.5t-55 17.5q-36 0 -60 -33.5t-24 -81.5q0 -94 136 -204l69 -58q113 -92 168 -166.5t55 -150.5q0 -82 -39 -146t-100.5 -100.5t-130 -55t-135.5 -18.5q-88 0 -167.5 19t-136.5 63.5t-57 106.5
q0 55 35.5 89t98.5 34q50 0 85.5 -28t54 -67.5t34 -79.5t36 -68t48.5 -28q47 0 79.5 37.5t32.5 110.5q0 37 -8.5 66.5t-32 59.5t-47 52t-69.5 61l-95 80q-170 146 -170 291q0 84 55.5 144.5t140.5 88t187 27.5q121 0 228 -41q-82 75 -124 163.5t-42 176.5q0 150 114.5 253.5
t313.5 103.5q82 0 151 -18t128.5 -59t94.5 -107t49.5 -161.5t-7.5 -222.5l-58 -364q38 78 85 134.5t95 86.5t92 43.5t87 13.5q78 0 139.5 -30t96 -78.5t52 -103t17.5 -111.5q0 -113 -40.5 -226t-108 -203t-150 -161t-170 -109.5t-164.5 -38.5q-79 0 -145 37zM1432 20
q56 0 104.5 48t80 120t54.5 158t33 161.5t10 131.5q0 254 -108 254q-18 0 -42.5 -10t-58 -33t-71.5 -70t-72 -112l-76 -484q20 -79 62.5 -121.5t83.5 -42.5z" />
    <glyph glyph-name="s_t" horiz-adv-x="1693" 
d="M1493 1118l-20 -133h299l-9 -53h-299l-108 -701q-11 -78 -6.5 -105.5t26.5 -27.5q33 0 85.5 27t101.5 82l30 -23q-72 -104 -143.5 -158.5t-169.5 -54.5q-139 0 -195.5 79t-29.5 249l100 633l-149 16l6 37h151l19 115q15 95 17 170.5t-8 127t-28.5 87.5t-47.5 56.5t-61 29
t-73 8.5q-111 0 -183.5 -77t-72.5 -214q0 -54 26.5 -145t61.5 -162q6 -13 22 -37.5t25.5 -46t9.5 -41.5q0 -44 -28 -75t-82 -31q-42 0 -73 17.5t-48 43.5t-33.5 56.5t-30 56.5t-37.5 43.5t-55 17.5q-36 0 -60 -33.5t-24 -81.5q0 -94 136 -204l69 -58q113 -92 168 -166.5
t55 -150.5q0 -82 -39 -146t-100.5 -100.5t-130 -55t-135.5 -18.5q-88 0 -167.5 19t-136.5 63.5t-57 106.5q0 55 35.5 89t98.5 34q50 0 85.5 -28t54 -67.5t34 -79.5t36 -68t48.5 -28q47 0 79.5 37.5t32.5 110.5q0 37 -8.5 66.5t-32 59.5t-47 52t-69.5 61l-95 80
q-170 146 -170 291q0 84 55.5 144.5t140.5 88t187 27.5q58 0 130 -14t126 -41q-58 71 -97.5 170.5t-39.5 165.5q0 183 116 279t316 96q82 0 151 -18t128.5 -59t94.5 -107t49.5 -161.5t-7.5 -222.5z" />
    <glyph glyph-name="seven.pof" horiz-adv-x="1222" 
d="M-168 -494l1131 1237h-514q-133 0 -206 -42t-110 -152h-20l67 436h1043l-1207 -1612z" />
    <glyph glyph-name="six.pof" horiz-adv-x="1390" 
d="M1350 1702q-143 -57 -270 -148t-226 -203t-176.5 -232t-136.5 -253q71 82 162 125t186 43q78 0 151.5 -30.5t132.5 -86.5t94.5 -144t35.5 -193q0 -266 -182 -437.5t-474 -171.5q-129 0 -230 41t-164 114t-95.5 167.5t-32.5 206.5q0 179 65 344.5t177.5 298.5t268.5 247.5
t332.5 198t374.5 144.5zM776 932q-26 0 -47 -2.5t-55 -11.5t-71.5 -32t-74.5 -59q-43 -92 -70.5 -212t-27.5 -236q0 -87 21.5 -164t70 -130.5t115.5 -53.5q80 0 145 51.5t105.5 136.5t62 189t21.5 215q0 85 -19.5 152.5t-64.5 112t-111 44.5z" />
    <glyph glyph-name="three.pof" horiz-adv-x="1091" 
d="M244 221l-4 15q469 212 469 534q0 79 -40.5 129.5t-115.5 50.5q-69 0 -142.5 -31t-136.5 -85l-12 16q174 180 440 180q90 0 156 -20.5t102.5 -56.5t53 -77.5t16.5 -89.5q0 -75 -51.5 -149.5t-134 -132.5t-175.5 -102t-186 -70q111 -8 197 -42.5t136.5 -87t76 -114
t25.5 -129.5q0 -92 -45 -184t-126 -169.5t-210 -126t-281 -48.5q-254 0 -379 143l19 18q59 -43 134.5 -65.5t147.5 -22.5q172 0 290 120t118 304q0 126 -83.5 209.5t-258.5 83.5z" />
    <glyph glyph-name="tilde.case" horiz-adv-x="1024" 
d="M872 2128l111 117l12 -9l-151 -350h-692l-111 -117l-12 9l151 350h692z" />
    <glyph glyph-name="two.pof" horiz-adv-x="1099" 
d="M995 0h-1046q16 10 50 32q280 182 418 297q304 255 304 453q0 152 -168 152q-70 0 -135 -25.5t-150 -101.5l-18 18q175 209 493 209q158 0 239 -60t81 -153q0 -49 -21 -97.5t-54 -90t-86 -85.5t-102 -78t-119 -74.5t-121 -67.5t-122.5 -64.5t-109.5 -58.5h420
q124 0 181.5 33.5t94.5 126.5h31z" />
    <glyph glyph-name="zero.pof" horiz-adv-x="1191" 
d="M1096 545q0 -155 -68.5 -286t-193 -208.5t-277.5 -77.5q-219 0 -349 134t-130 350q0 116 37.5 220t105 182.5t168.5 124.5t221 46q229 0 357.5 -135t128.5 -350zM610 905q-109 0 -198 -59.5t-138 -159.5t-49 -217q0 -75 21 -140.5t61.5 -117t106.5 -81.5t149 -30
q171 0 278 124t107 311q0 157 -90.5 263.5t-247.5 106.5z" />
    </font>
</defs>
</svg>
