<?xml version="1.0" standalone="no"?>
<!DOCTYPE svg PUBLIC "-//W3C//DTD SVG 1.1//EN" "http://www.w3.org/Graphics/SVG/1.1/DTD/svg11.dtd" >
<svg xmlns="http://www.w3.org/2000/svg" xmlns:xlink="http://www.w3.org/1999/xlink" version="1.1">
<metadata>
Created by FontForge 20170731 at Fri Jul 29 13:45:16 2022
 By Aleksey,,,
Copyright (c) 2014 Swiss Typefaces. All rights reserved.
</metadata>
<defs>
<font id="RomainHeadline-Bold" horiz-adv-x="1024" >
  <font-face 
    font-family="Romain Headline"
    font-weight="700"
    font-stretch="normal"
    units-per-em="2048"
    panose-1="2 2 8 0 0 0 0 0 0 0"
    ascent="1638"
    descent="-410"
    x-height="985"
    cap-height="1673"
    bbox="-166 -729 2593 2257"
    underline-thickness="61"
    underline-position="-367"
    unicode-range="U+000D-FB06"
  />
<missing-glyph horiz-adv-x="1427" 
d="M205 0v1612h1018v-1612h-1018zM229 1591v-1571h969v1571h-969z" />
    <glyph glyph-name="f_f" unicode="ff" horiz-adv-x="1519" 
d="M883 176v756h-396v-766q0 -34 6.5 -55t26.5 -39t61 -25.5t107 -7.5v-39h-674v39q98 0 129 31t31 106v756h-162v53h162v139q0 136 36.5 238t103.5 163t152.5 90.5t190.5 29.5q91 0 185 -25t147 -74q126 156 377 156q61 0 125.5 -12t124 -35t97.5 -63.5t38 -92.5
q0 -49 -36 -83t-93 -34q-66 0 -102 37.5t-60 112.5q-23 72 -43 101.5t-51 29.5q-91 0 -130.5 -109t-39.5 -366v-203h338v-53h-338v-766q0 -34 6.5 -55t26.5 -39t61 -25.5t107 -7.5v-39h-674v39q98 0 129 31t31 106zM487 985h396v197q0 78 12 143q-57 6 -88.5 43t-54.5 107
q-23 72 -43.5 101.5t-51.5 29.5q-91 0 -130.5 -109.5t-39.5 -366.5v-145z" />
    <glyph glyph-name="f_f_i" unicode="ffi" horiz-adv-x="2091" 
d="M1604 158v645q0 74 -26.5 101.5t-113.5 27.5h-268v-766q0 -35 5 -55.5t22 -38.5t52.5 -25.5t92.5 -7.5v-39h-645v39q98 0 129 31t31 106v756h-396v-766q0 -34 6.5 -55t26.5 -39t61 -25.5t107 -7.5v-39h-674v39q98 0 129 31t31 106v756h-162v53h162v139q0 136 36.5 238
t103.5 163t152.5 90.5t190.5 29.5q93 0 189 -26.5t149 -76.5q135 160 420 160q68 0 144 -12t151.5 -36.5t124.5 -69.5t49 -103q0 -53 -35.5 -97.5t-101.5 -44.5q-68 0 -110 33.5t-60 81t-33.5 95t-46 81t-82.5 33.5q-108 0 -163.5 -112.5t-55.5 -362.5v-203h721v-823
q0 -65 31.5 -94t128.5 -29v-39h-633v39q160 0 160 119zM487 1130v-145h396v197q0 78 12 143q-57 6 -88.5 43t-54.5 107q-23 72 -43.5 101.5t-51.5 29.5q-91 0 -130.5 -109.5t-39.5 -366.5z" />
    <glyph glyph-name="f_f_l" unicode="ffl" horiz-adv-x="2101" 
d="M883 176v756h-396v-766q0 -34 6.5 -55t26.5 -39t61 -25.5t107 -7.5v-39h-674v39q98 0 129 31t31 106v756h-162v53h162v139q0 136 36.5 238t103.5 163t152.5 90.5t190.5 29.5q91 0 185 -25t147 -74q126 156 377 156q94 0 213 -29h328v-1511q0 -65 31 -94t128 -29v-39h-632
v39q97 0 128 29t31 94v1229q-40 16 -69.5 50t-45.5 71t-30.5 71.5t-34 57t-47.5 22.5q-91 0 -130.5 -109t-39.5 -366v-203h256v-53h-256v-766q0 -66 34.5 -96.5t133.5 -30.5v-39h-641v39q98 0 129 31t31 106zM487 1130v-145h396v197q0 78 12 143q-57 6 -88.5 43t-54.5 107
q-23 72 -43.5 101.5t-51.5 29.5q-91 0 -130.5 -109.5t-39.5 -366.5z" />
    <glyph glyph-name="f_i" unicode="fi" horiz-adv-x="1382" 
d="M895 158v645q0 75 -26 102t-113 27h-269v-766q0 -35 5 -55.5t22 -38.5t52.5 -25.5t92.5 -7.5v-39h-645v39q98 0 129 31t31 106v756h-162v53h162v197q0 136 39.5 238t112 162.5t167.5 90t214 29.5q68 0 144 -12t151.5 -36.5t124.5 -69.5t49 -103q0 -53 -36 -97.5
t-102 -44.5q-68 0 -110 33.5t-60 81t-33 95t-45.5 81t-82.5 33.5q-108 0 -164 -112.5t-56 -362.5v-203h721v-823q0 -65 31.5 -94t128.5 -29v-39h-633v39q160 0 160 119z" />
    <glyph glyph-name="f_l" unicode="fl" horiz-adv-x="1392" 
d="M885 162v1229q-40 16 -69.5 50t-46 71t-31 71.5t-34 57t-47.5 22.5q-91 0 -130.5 -109t-39.5 -366v-203h256v-53h-256v-766q0 -66 34.5 -96.5t133.5 -30.5v-39h-641v39q98 0 129 31t31 106v756h-162v53h162v197q0 136 36.5 238t103.5 162.5t152.5 90t190.5 29.5
q94 0 213 -29h328v-1511q0 -65 31.5 -94t128.5 -29v-39h-633v39q97 0 128.5 29t31.5 94z" />
    <glyph glyph-name=".notdef" horiz-adv-x="1427" 
d="M205 0v1612h1018v-1612h-1018zM229 1591v-1571h969v1571h-969z" />
    <glyph glyph-name=".null" horiz-adv-x="0" 
 />
    <glyph glyph-name="nonmarkingreturn" horiz-adv-x="682" 
 />
    <glyph glyph-name="NULL" horiz-adv-x="356" 
 />
    <glyph glyph-name="NULL" horiz-adv-x="356" 
 />
    <glyph glyph-name="CR" unicode="&#xd;" horiz-adv-x="356" 
 />
    <glyph glyph-name="space" unicode=" " horiz-adv-x="356" 
 />
    <glyph glyph-name="exclam" unicode="!" horiz-adv-x="573" 
d="M98 1671q184 61 369 0q-23 -271 -87.5 -651.5t-84.5 -568.5h-25q-20 195 -84.5 574.5t-87.5 645.5zM86 172q0 83 59 142t142 59t141.5 -59t58.5 -142t-58.5 -142t-141.5 -59t-142 59t-59 142z" />
    <glyph glyph-name="quotedbl" unicode="&#x22;" horiz-adv-x="671" 
d="M446 1147l-71 450h231l-71 -450h-89zM137 1147l-71 450h231l-72 -450h-88z" />
    <glyph glyph-name="numbersign" unicode="#" horiz-adv-x="1699" 
d="M233 1010l41 96h371l201 500h102l-200 -500h450l201 500h102l-201 -500h355l-41 -96h-352l-193 -478h397l-41 -96h-395l-174 -436h-102l174 436h-451l-174 -436h-102l174 436h-330l41 96h328l192 478h-373zM709 1010l-193 -478h451l192 478h-450z" />
    <glyph glyph-name="dollar" unicode="$" horiz-adv-x="1296" 
d="M1120 1593v-393h-22q-43 207 -160 321.5t-266 120.5v-589l119 -43q71 -26 128.5 -54.5t117 -73.5t99.5 -99t65.5 -131t25.5 -169q0 -120 -43.5 -214.5t-121 -155t-175.5 -95t-215 -43.5v-186h-86v182q-141 2 -283.5 33.5t-247.5 89.5v422h23q21 -121 71.5 -215
t119 -149.5t144 -84t154.5 -28.5h19v674l-125 43q-398 135 -398 504q0 102 40.5 185t112 137.5t166 85.5t204.5 36v184h86v-184q262 -10 448 -111zM897 362q0 117 -56 193t-169 125v-627q101 27 163 107.5t62 201.5zM369 1372q0 -201 217 -289v551q-102 -21 -159.5 -94.5
t-57.5 -167.5z" />
    <glyph glyph-name="percent" unicode="%" horiz-adv-x="1814" 
d="M1579 1706l-1133 -1706h-110l1128 1706h115zM457 965q123 0 194.5 82.5t71.5 199.5q0 121 -75 203t-191 82t-191.5 -82t-75.5 -203q0 -117 72 -199.5t195 -82.5zM457 877q-159 0 -264 107t-105 263q0 159 101 265t268 106q166 0 267 -106t101 -265q0 -157 -104.5 -263.5
t-263.5 -106.5zM1360 61q123 0 194.5 83t71.5 200q0 121 -75 203t-191 82t-191 -82t-75 -203q0 -117 71.5 -200t194.5 -83zM1360 -27q-159 0 -264 107t-105 264q0 159 101 265t268 106t268 -106t101 -265q0 -157 -105 -264t-264 -107z" />
    <glyph glyph-name="ampersand" unicode="&#x26;" horiz-adv-x="1910" 
d="M1452 684l-111 -158l330 -368q93 -104 256 -121v-37h-747v39q128 0 129 36q0 13 -31 50l-123 135q-118 -150 -255.5 -219.5t-313.5 -69.5q-138 0 -245 39t-170 105t-94.5 146t-31.5 169q0 178 131 310t387 186l-16 18q-65 73 -108 139t-62.5 120t-26 92t-6.5 79
q0 151 127.5 241.5t351.5 90.5q179 0 282 -68t103 -204q0 -101 -93.5 -206.5t-254.5 -162.5l443 -496l81 129q37 58 43.5 104t-10.5 72.5t-49.5 43.5t-65.5 23t-65 5v39h557v-39q-39 -2 -60 -5.5t-55 -18t-63.5 -41t-71 -75.5t-92.5 -122zM735 117q212 0 381 188l-526 588
q-91 -73 -137.5 -182.5t-46.5 -235.5q0 -162 90.5 -260t238.5 -98zM831 1100l11 -13q70 40 117 145t47 212q0 95 -43.5 159t-122.5 64q-83 0 -122.5 -68.5t-39.5 -168.5q0 -159 153 -330z" />
    <glyph glyph-name="quotesingle" unicode="'" horiz-adv-x="362" 
d="M137 1147l-71 450h231l-72 -450h-88z" />
    <glyph glyph-name="parenleft" unicode="(" horiz-adv-x="663" 
d="M541 1706h121q-105 -101 -188 -243.5t-134 -296t-77.5 -308.5t-26.5 -297q0 -149 29.5 -309.5t84.5 -315.5t142.5 -296t195.5 -240h-123q-135 124 -236 320t-151.5 412t-50.5 427t46.5 422.5t142 404.5t225.5 320z" />
    <glyph glyph-name="parenright" unicode=")" horiz-adv-x="671" 
d="M10 1706h121q130 -127 225.5 -320.5t142 -405.5t46.5 -423q0 -210 -50.5 -426t-152 -411.5t-236.5 -319.5h-122q143 131 248 332.5t154.5 413.5t49.5 413q0 143 -26.5 298t-77.5 309t-134 296.5t-188 243.5z" />
    <glyph glyph-name="asterisk" unicode="*" horiz-adv-x="720" 
d="M403 1606v-252l218 133l49 -84l-219 -125l225 -123l-49 -84l-213 127v-256h-97v250l-217 -131l-49 84l219 123l-225 125l49 84l213 -129v258h96z" />
    <glyph glyph-name="plus" unicode="+" horiz-adv-x="1101" 
d="M498 999h104v-432h434v-96h-434v-436h-104v436h-432v96h432v432z" />
    <glyph glyph-name="comma" unicode="," horiz-adv-x="491" 
d="M45 172q0 84 57.5 142.5t143.5 58.5q90 0 145 -59.5t55 -157.5q0 -80 -38 -168t-111 -166t-164 -117l-6 14q46 35 78.5 116t32.5 147q-87 0 -140 53t-53 137z" />
    <glyph glyph-name="hyphen" unicode="-" horiz-adv-x="774" 
d="M86 471v96h602v-96h-602z" />
    <glyph glyph-name="period" unicode="." horiz-adv-x="485" 
d="M41 172q0 83 59 142t142 59t141.5 -59t58.5 -142t-58.5 -142t-141.5 -59t-142 59t-59 142z" />
    <glyph glyph-name="slash" unicode="/" horiz-adv-x="763" 
d="M795 1706l-703 -1774h-108l702 1774h109z" />
    <glyph glyph-name="zero" unicode="0" horiz-adv-x="1380" 
d="M995 737q0 156 -17.5 281.5t-47 207t-69.5 136.5t-82.5 78.5t-88.5 23.5t-88.5 -23.5t-82.5 -78.5t-69.5 -136.5t-47 -207t-17.5 -281.5t18 -280.5t47 -204.5t69 -133.5t82.5 -76t88.5 -22.5t88.5 22.5t82.5 76t69 133.5t47 204.5t18 280.5zM1335 735q0 -180 -49.5 -326
t-136.5 -241t-204.5 -146t-254.5 -51q-297 0 -471 202t-174 566q0 181 49 328t136 244t206 149.5t258 52.5q309 0 475 -203.5t166 -574.5z" />
    <glyph glyph-name="one" unicode="1" horiz-adv-x="860" 
d="M291 229v1061q-110 0 -266 35v25q130 18 287.5 62t256.5 101h33v-1280q0 -48 4 -76t16.5 -53t38.5 -36.5t68 -18t107 -6.5v-43h-801v43q114 0 167.5 17t71 53.5t17.5 115.5z" />
    <glyph glyph-name="two" unicode="2" horiz-adv-x="1290" 
d="M-14 0l-2 4q287 250 409 369q345 339 420 592q23 77 23 149q0 132 -71 199t-183 67q-144 0 -242.5 -86t-108.5 -225h-32q-1 92 34 172.5t99.5 141t163.5 95.5t219 35q203 0 334 -93t131 -257q0 -100 -50.5 -204t-130.5 -194.5t-201.5 -188.5t-239 -176t-269.5 -169h467
q57 0 99 3t91 12t85 28t69.5 48t56.5 75t35 107h33v-504h-1239z" />
    <glyph glyph-name="three" unicode="3" horiz-adv-x="1187" 
d="M494 1389q-90 0 -170.5 -46t-126.5 -151l-33 12q30 87 81 149t116.5 96t134 49t145.5 15q192 0 295.5 -67.5t103.5 -185.5q0 -117 -108.5 -205t-313.5 -156q255 -18 379.5 -134.5t124.5 -295.5q0 -101 -37.5 -189.5t-109.5 -158t-189.5 -110t-265.5 -40.5
q-120 0 -230 35.5t-177.5 96.5t-67.5 130q0 29 9 54t37 46t73 21q28 0 52 -11.5t38.5 -24.5t30 -40t21.5 -41t18 -44q18 -43 31.5 -69t36 -54t54 -41t72.5 -13q82 0 146 57t96.5 146t32.5 191q0 165 -85.5 249t-218.5 84q-101 0 -200 -45v39q180 72 304 207.5t124 239.5
q0 205 -223 205z" />
    <glyph glyph-name="four" unicode="4" horiz-adv-x="1417" 
d="M1018 393v-160q0 -40 2.5 -64.5t10.5 -48.5t23 -36.5t41.5 -23t63.5 -14t92 -3.5v-43h-800v43q114 0 167.5 17t71 53.5t17.5 115.5v164h-701l-2 8l979 1155h35v-948h149q93 0 132.5 52t62.5 180h31v-447h-375zM260 608h447v525z" />
    <glyph glyph-name="five" unicode="5" horiz-adv-x="1222" 
d="M1108 1575l-49 -369h-785l-67 -360q64 68 178 100.5t211 32.5q130 0 234 -37t170.5 -102t101.5 -149.5t35 -182.5q0 -236 -170.5 -386.5t-442.5 -150.5q-132 0 -251.5 35t-194 97t-74.5 135q0 48 34.5 84t94.5 36q22 0 41 -6.5t32 -13t27 -24t21 -26.5t18 -33.5t14 -31
t13 -33.5q26 -66 83.5 -116.5t127.5 -50.5q133 0 212 104.5t79 314.5q0 157 -91 254t-235 97q-85 0 -180 -35.5t-154 -108.5l-41 4l152 822h680q56 0 89 22.5t56 77.5h31z" />
    <glyph glyph-name="six" unicode="6" horiz-adv-x="1355" 
d="M1128 1559q-274 -117 -438.5 -297t-238.5 -437q59 81 146 124.5t183 43.5q71 0 138 -18t129.5 -57.5t109.5 -97t75 -143.5t28 -190q0 -103 -44 -197t-121.5 -164.5t-191.5 -112.5t-246 -42q-268 0 -420.5 166t-152.5 441q0 147 50.5 281.5t141.5 244.5t220 203.5
t284.5 163t335.5 118.5zM676 891q-131 0 -232 -105q-32 -128 -32 -280q0 -95 12 -175.5t38 -150t74.5 -109.5t114.5 -40q135 0 204 123t69 335q0 187 -60 294.5t-188 107.5z" />
    <glyph glyph-name="seven" unicode="7" horiz-adv-x="1122" 
d="M4 -49l901 1255h-514q-133 0 -199 -42t-86 -152h-20v463h1042l-901 -1659z" />
    <glyph glyph-name="eight" unicode="8" horiz-adv-x="1296" 
d="M455 1243q0 -59 21 -110.5t61.5 -94t82 -74t101.5 -67.5q71 37 108 126.5t37 188.5q0 48 -11 90t-34 78t-64 57t-95 21q-38 0 -72.5 -10t-66 -33t-50 -67t-18.5 -105zM692 592l-162 96q-151 -107 -151 -344q0 -56 17 -110.5t49 -101t84.5 -75t117.5 -28.5
q119 0 184.5 66.5t65.5 183.5q0 95 -44 169.5t-161 143.5zM86 334q0 143 104 230.5t316 140.5l-55 36q-144 95 -218.5 206t-74.5 227q0 68 31 128t91 108.5t158.5 77t223.5 28.5q229 0 360 -74.5t131 -198.5q0 -100 -105.5 -204.5t-293.5 -159.5q4 -3 46 -29t62 -37
q184 -106 266 -202t82 -220q0 -82 -35.5 -156t-103.5 -133.5t-180.5 -95t-253.5 -35.5q-161 0 -284.5 41.5t-195 124.5t-71.5 197z" />
    <glyph glyph-name="nine" unicode="9" horiz-adv-x="1333" 
d="M197 -74q275 118 439 297t238 436q-59 -81 -146 -124t-183 -43q-71 0 -138 17.5t-129.5 57.5t-109 97.5t-74.5 143t-28 189.5q0 103 43.5 197t121 164.5t191.5 112.5t246 42q267 0 419 -163.5t152 -438.5q0 -183 -77 -346t-216 -290t-325 -222.5t-412 -156.5zM649 594
q132 0 232 104q32 128 32 281q0 95 -12 175.5t-38 150t-74.5 109.5t-114.5 40q-135 0 -204 -123.5t-69 -335.5q0 -187 60 -294t188 -107z" />
    <glyph glyph-name="colon" unicode=":" horiz-adv-x="505" 
d="M41 834q0 83 59 141.5t142 58.5t141.5 -58.5t58.5 -141.5t-58.5 -142t-141.5 -59t-142 59t-59 142zM41 172q0 83 59 142t142 59t141.5 -59t58.5 -142t-58.5 -142t-141.5 -59t-142 59t-59 142z" />
    <glyph glyph-name="semicolon" unicode=";" horiz-adv-x="505" 
d="M41 834q0 83 59 141.5t142 58.5t141.5 -58.5t58.5 -141.5t-58.5 -142t-141.5 -59t-142 59t-59 142zM45 172q0 84 57.5 142.5t143.5 58.5q90 0 145 -59.5t55 -157.5q0 -80 -38 -168t-111 -166t-164 -117l-6 14q46 35 78.5 116t32.5 147q-87 0 -140 53t-53 137z" />
    <glyph glyph-name="less" unicode="&#x3c;" horiz-adv-x="1103" 
d="M86 471v96l1034 463v-110l-913 -400l913 -432v-115z" />
    <glyph glyph-name="equal" unicode="=" horiz-adv-x="1101" 
d="M86 287v96h930v-96h-930zM86 655v97h930v-97h-930z" />
    <glyph glyph-name="greater" unicode="&#x3e;" horiz-adv-x="1103" 
d="M1018 567v-96l-1034 -498v115l913 432l-913 400v110z" />
    <glyph glyph-name="question" unicode="?" horiz-adv-x="817" 
d="M387 1667q-43 0 -70.5 -29t-42.5 -70.5t-31 -83.5t-48.5 -71t-83.5 -29q-57 0 -92 33t-35 82q0 51 43.5 93t108.5 65.5t131 36t120 12.5q406 0 406 -311q0 -55 -23 -113.5t-59.5 -110t-82 -110t-91 -113t-86 -118.5t-66.5 -126.5t-33.5 -137.5t13.5 -152l-13 -8
q-97 55 -147.5 143t-50.5 188q0 60 34 131.5t82.5 141t97.5 142t83 158.5t34 167q0 48 -8.5 89t-31.5 71t-58 30zM174 172q0 83 59 142t142 59t141.5 -59t58.5 -142t-58.5 -142t-141.5 -59t-142 59t-59 142z" />
    <glyph glyph-name="at" unicode="@" horiz-adv-x="1988" 
d="M1407 270q-188 0 -280 94.5t-83 249.5q-79 -145 -160 -199.5t-177 -54.5q-88 0 -149.5 47.5t-88.5 117t-27 151.5q0 125 47.5 241.5t125.5 199.5t181 133t210 50q90 0 163 -40l17 57h287l-105 -563q-39 -220 -17.5 -296.5t117.5 -76.5q139 0 235.5 136.5t96.5 367.5
q0 225 -98.5 392t-274.5 254t-407 87q-168 0 -320.5 -65.5t-264 -177t-177 -268t-65.5 -331.5q0 -231 104 -405.5t286 -266.5t414 -92q104 0 242 29l16 -82q-123 -33 -280 -33q-255 0 -456.5 103t-317 297t-115.5 448q0 193 73 365.5t198.5 297t301.5 197t375 72.5
q137 0 263 -30.5t237 -96t192.5 -160t129 -232t47.5 -302.5q0 -175 -63.5 -315.5t-177 -220t-255.5 -79.5zM1051 672q0 1 1 3.5t1 4.5l73 389q2 99 -25.5 146t-88.5 47q-54 0 -103 -59.5t-80.5 -150t-50 -192.5t-18.5 -190q0 -74 22 -115t62 -41q30 0 55.5 8.5t67 45.5
t84.5 104z" />
    <glyph glyph-name="A" unicode="A" horiz-adv-x="1671" 
d="M281 360l555 1387h22l606 -1561q31 -81 83 -112t141 -31v-43h-736v43q29 0 50 2t42.5 6.5t34.5 14.5t21.5 24.5t7 37.5t-11.5 52l-127 357h-537l-78 -197q-30 -75 -38.5 -130.5t0.5 -87t34.5 -50t54 -24t68.5 -5.5v-43h-489v43q40 0 65 4.5t55 22t55.5 51.5t56 92.5
t65.5 146.5zM719 1247l-230 -569h431z" />
    <glyph glyph-name="B" unicode="B" horiz-adv-x="1536" 
d="M586 842v-672q0 -77 31 -96t137 -19q176 0 266 103t90 295q0 69 -13.5 125t-47 106t-86.5 84t-135.5 54t-190.5 20h-51zM586 1614v-733h37q84 0 151.5 23t110.5 60t72 88t41 104t12 110q0 186 -84 267t-273 81h-67zM66 1673h634q119 0 215 -11t180 -39t140.5 -72
t88.5 -112.5t32 -158.5q0 -99 -58 -186t-147.5 -140.5t-189.5 -68.5q228 -18 360.5 -123.5t132.5 -296.5q0 -105 -36 -187t-95.5 -133.5t-144.5 -84.5t-175 -46.5t-194 -13.5h-743v39q108 0 146 27t38 90v1362q0 63 -38 89.5t-146 26.5v39z" />
    <glyph glyph-name="C" unicode="C" horiz-adv-x="1738" 
d="M1663 569v-436q-298 -162 -664 -162q-201 0 -362.5 47.5t-268.5 128t-178.5 192t-103 234.5t-31.5 261q0 404 250.5 638t693.5 234q374 0 650 -129v-428h-27q-77 216 -250.5 352.5t-376.5 136.5q-101 0 -187 -29t-158.5 -92.5t-123.5 -157t-79.5 -229t-28.5 -303.5
q0 -196 42.5 -348t119 -247.5t180.5 -144t231 -48.5q233 0 401.5 136.5t241.5 393.5h29z" />
    <glyph glyph-name="D" unicode="D" horiz-adv-x="1849" 
d="M586 1612v-1399q0 -37 2.5 -59.5t12 -41.5t22.5 -28t41.5 -15.5t61.5 -8t89 -1.5q103 0 191 26t165 85.5t131.5 149.5t85.5 225.5t31 306.5q0 176 -41.5 311.5t-109.5 218.5t-164 136.5t-195.5 73.5t-214.5 20h-108zM66 1673h690q510 0 764 -214.5t254 -610.5
q0 -189 -60 -344.5t-173.5 -267.5t-286.5 -174t-390 -62h-798v39h63q64 0 92.5 28t28.5 89v1362q0 60 -28.5 88t-92.5 28h-63v39z" />
    <glyph glyph-name="E" unicode="E" horiz-adv-x="1482" 
d="M66 1673h1267v-430h-30q-11 68 -29 117t-55 96t-91 76.5t-139 47t-198 17.5h-205v-692h190q56 0 100 9.5t89 34.5t75 77t43 129h29v-573h-29q-12 74 -45 126t-78 78t-89.5 37t-94.5 11h-190v-646q0 -68 23.5 -90t88.5 -22h170q112 0 196.5 20.5t138 53.5t90.5 84.5
t54.5 105t28.5 123.5h31v-463h-1341v39q108 0 146 27t38 90v1362q0 63 -38 89.5t-146 26.5v39z" />
    <glyph glyph-name="F" unicode="F" horiz-adv-x="1347" 
d="M770 834h-184v-676q0 -62 50.5 -89.5t174.5 -27.5v-41h-745v39q108 0 146 27t38 90v1362q0 63 -38 89.5t-146 26.5v39h1288v-430h-31q-11 68 -29 117t-55 96t-91 76.5t-139 47t-198 17.5h-225v-692h184q56 0 100 9.5t89 34.5t75 77t43 129h29v-573h-29q-12 74 -45 126
t-78 78t-89.5 37t-94.5 11z" />
    <glyph glyph-name="G" unicode="G" horiz-adv-x="1867" 
d="M983 1706q363 0 639 -129v-428h-27q-77 218 -245.5 353.5t-370.5 135.5q-126 0 -227 -47t-176.5 -143.5t-116.5 -254t-41 -366.5q0 -390 149 -589t408 -199q44 0 76 1.5t75.5 7t74.5 16t64 30t53.5 46.5t34 67.5t13.5 91.5v295q0 33 -23.5 51.5t-58.5 18.5h-102v43h641
v-43h-60q-35 0 -58.5 -18.5t-23.5 -51.5v-277q0 -102 -101.5 -182.5t-259.5 -122t-337 -41.5q-201 0 -361 47.5t-264.5 128t-174 192.5t-99 234.5t-29.5 260.5q0 406 243.5 639t684.5 233z" />
    <glyph glyph-name="H" unicode="H" horiz-adv-x="1892" 
d="M1307 156v678h-721v-678q0 -63 38 -90t146 -27v-39h-704v39q108 0 146 27t38 90v1362q0 63 -38 89.5t-146 26.5v39h704v-39q-108 0 -146 -26.5t-38 -89.5v-598h721v598q0 63 -38.5 89.5t-146.5 26.5v39h705v-39q-108 0 -146.5 -26.5t-38.5 -89.5v-1362q0 -63 38.5 -90
t146.5 -27v-39h-705v39q108 0 146.5 27t38.5 90z" />
    <glyph glyph-name="I" unicode="I" horiz-adv-x="835" 
d="M250 156v1362q0 63 -38 89.5t-146 26.5v39h704v-39q-108 0 -146 -26.5t-38 -89.5v-1362q0 -63 38 -90t146 -27v-39h-704v39q108 0 146 27t38 90z" />
    <glyph glyph-name="J" unicode="J" horiz-adv-x="1026" 
d="M829 1518v-908q0 -76 -3 -134t-13.5 -128t-29 -121t-51.5 -102t-79 -82.5t-113.5 -51.5t-152.5 -20q-190 0 -296.5 56.5t-106.5 150.5q0 65 43.5 103t105.5 38q55 0 94.5 -32t60.5 -77.5t37 -90.5t34 -77t42 -32q57 0 75 129t18 471v908q0 63 -38.5 89.5t-146.5 26.5v39
h705v-39q-108 0 -146.5 -26.5t-38.5 -89.5z" />
    <glyph glyph-name="K" unicode="K" horiz-adv-x="1775" 
d="M250 156v1362q0 63 -38 89.5t-146 26.5v39h704v-39q-108 0 -146 -26.5t-38 -89.5v-682l604 639q38 40 50.5 76.5t-16 60.5t-102.5 18v43h549v-43q-96 0 -205.5 -49t-195.5 -139l-406 -428l721 -905q54 -66 227 -66v-43h-763v43q120 0 131 11q7 7 -9 26l-585 741v-665
q0 -63 38 -90t146 -27v-39h-704v39q108 0 146 27t38 90z" />
    <glyph glyph-name="L" unicode="L" horiz-adv-x="1492" 
d="M1427 0h-1361v39q108 0 146 27t38 90v1362q0 63 -38 89.5t-146 26.5v39h745v-39q-125 0 -175 -27t-50 -89v-1330q0 -68 23.5 -90t88.5 -22h191q111 0 196.5 22.5t138.5 58t90 91t54.5 110t28.5 125.5h30v-483z" />
    <glyph glyph-name="M" unicode="M" horiz-adv-x="2191" 
d="M274 272l54 1176q4 97 -50.5 138.5t-158.5 41.5v45h518l514 -1192l438 1192h498v-45q-36 0 -68 -7t-63.5 -23.5t-49 -49.5t-16.5 -80l52 -1312q3 -62 30 -89.5t90 -27.5h64v-39h-705v39h64q65 0 94.5 28.5t26.5 88.5l-45 1183l-512 -1368h-43l-598 1329l-48 -1028
q-6 -122 49 -177.5t173 -55.5v-39h-537v39q117 0 170 55t59 178z" />
    <glyph glyph-name="N" unicode="N" horiz-adv-x="1792" 
d="M1559 -29h-66l-1108 1387v-1059q0 -260 221 -260v-39h-536v39q116 0 172.5 67.5t56.5 192.5v1145q0 82 -52.5 129.5t-140.5 52.5l-40 2v45h546l861 -1098v811q0 119 -54.5 183.5t-167.5 64.5v39h537v-39q-115 0 -172 -65.5t-57 -182.5v-1415z" />
    <glyph glyph-name="O" unicode="O" horiz-adv-x="1886" 
d="M1468 842q0 212 -40 370t-112 251.5t-165 138.5t-207 45q-91 0 -168.5 -27.5t-144 -89t-113.5 -153.5t-73.5 -228t-26.5 -307q0 -211 40 -369.5t112.5 -253.5t166 -141.5t207.5 -46.5q90 0 167.5 28.5t144 91t113 156t73 229.5t26.5 306zM1831 836q0 -261 -112 -458
t-312.5 -302t-462.5 -105q-196 0 -361.5 63t-281.5 176.5t-181 277.5t-65 360q0 197 65 358t181.5 271t281 169.5t361.5 59.5q261 0 462 -106t313 -304.5t112 -459.5z" />
    <glyph glyph-name="P" unicode="P" horiz-adv-x="1404" 
d="M586 1610v-822q9 0 26 -1t25 -1q106 0 183 21t134.5 69t86 131.5t28.5 204.5q0 210 -106 304t-301 94h-76zM66 1673h606q104 0 190 -7t174.5 -24t155 -50t120 -81t81.5 -120.5t28 -165.5q0 -102 -33 -184.5t-89.5 -138t-135.5 -93.5t-167.5 -55t-188.5 -17
q-104 0 -221 19v-600q0 -64 41.5 -90.5t163.5 -26.5v-39h-725v39q108 0 146 27t38 90v1362q0 63 -38 89.5t-146 26.5v39z" />
    <glyph glyph-name="Q" unicode="Q" horiz-adv-x="1947" 
d="M1892 836q0 -269 -115.5 -466.5t-328.5 -299.5l213 -408l-10 -10l-637 321q-7 0 -20 -1t-19 -1q-211 0 -383.5 62.5t-290.5 177t-182 277.5t-64 360q0 399 246.5 630.5t673.5 231.5q423 0 670 -237.5t247 -636.5zM1530 842q0 212 -42 371t-118 253t-174.5 139.5
t-220.5 45.5q-97 0 -179 -28t-152.5 -89.5t-120 -154.5t-77.5 -229.5t-28 -307.5q0 -211 42 -369.5t118.5 -253.5t176 -141.5t220.5 -46.5q96 0 178.5 28.5t152.5 91t119.5 156t77 229.5t27.5 306z" />
    <glyph glyph-name="R" unicode="R" horiz-adv-x="1693" 
d="M586 1612v-750h16q83 0 144 7.5t122.5 31.5t100 65t62.5 111t24 166q0 203 -105 286t-321 83h-43zM66 1673h600q89 0 163.5 -4.5t152 -16.5t138.5 -31.5t116 -52t91 -75.5t57 -104t21 -136q0 -168 -134 -274.5t-380 -132.5q175 -8 295 -95.5t162 -248.5l28 -111
q28 -107 55 -170.5t68.5 -106t94 -61t137.5 -28.5v-27q-108 -27 -236 -27q-191 0 -309.5 96t-165.5 277l-31 119q-86 334 -403 344v-651q0 -63 38 -90t146 -27v-39h-704v39q108 0 146 27t38 90v1362q0 63 -38 89.5t-146 26.5v39z" />
    <glyph glyph-name="S" unicode="S" horiz-adv-x="1296" 
d="M1120 1593v-393h-22q-44 213 -166 327.5t-277 114.5q-133 0 -209.5 -79.5t-76.5 -190.5q0 -210 235 -295l187 -67q71 -26 128.5 -54.5t117 -73.5t99.5 -99t65.5 -131t25.5 -169q0 -105 -34 -190.5t-93 -144.5t-140 -99.5t-174 -59t-196 -18.5q-139 0 -283 32t-252 91v422
h23q21 -121 71.5 -215t119 -149.5t144 -84t154.5 -28.5q140 0 235 85.5t95 237.5q0 131 -70 211t-213 129l-153 54q-398 135 -398 504q0 141 77 244t202.5 152.5t282.5 49.5q289 0 495 -113z" />
    <glyph glyph-name="T" unicode="T" horiz-adv-x="1454" 
d="M559 1606h-33q-113 0 -198.5 -20.5t-139 -54t-90.5 -85t-54.5 -103.5t-29.5 -120h-30v450h1486v-450h-30q-12 68 -29.5 120t-54.5 103.5t-90.5 85t-139 54t-198.5 20.5h-33v-1450q0 -64 41.5 -90.5t163.5 -26.5v-39h-746v39q122 0 163.5 26.5t41.5 90.5v1450z" />
    <glyph glyph-name="U" unicode="U" horiz-adv-x="1728" 
d="M1526 1356v-705q0 -324 -159 -502t-482 -178q-328 0 -506 173t-178 487v887q0 63 -38.5 89.5t-146.5 26.5v39h705v-39q-108 0 -146 -26.5t-38 -89.5v-904q0 -251 115.5 -387.5t318.5 -136.5q234 0 347.5 148.5t113.5 416.5v701q0 140 -54 209t-168 69v39h545v-39
q-229 0 -229 -278z" />
    <glyph glyph-name="V" unicode="V" horiz-adv-x="1601" 
d="M1323 1235l-510 -1284h-27l-639 1573q-24 59 -62 82.5t-122 23.5v43h692v-43q-82 0 -119.5 -15.5t-23.5 -53.5l418 -1108l303 788q40 102 53.5 176t7.5 114.5t-32 63.5t-54 29t-69 6v43h499v-43q-40 0 -64 -5.5t-54 -26t-57 -63.5t-61.5 -115.5t-78.5 -184.5z" />
    <glyph glyph-name="W" unicode="W" horiz-adv-x="2449" 
d="M1833 477l295 856q27 77 32.5 133t-4 87t-36 49t-54.5 23t-69 5v43h489v-43q-34 0 -55 -3t-46.5 -13t-45 -30.5t-42.5 -55.5t-46 -88t-49 -127l-480 -1362h-26l-477 1253l-467 -1253h-27l-578 1573q-22 60 -60.5 83t-123.5 23v43h692v-43q-81 0 -117.5 -15.5t-25.5 -53.5
l356 -1100l310 852l-80 211q-22 60 -61 83t-124 23v43h693v-43q-82 0 -119.5 -15.5t-24.5 -53.5z" />
    <glyph glyph-name="X" unicode="X" horiz-adv-x="1730" 
d="M365 317l378 461l-485 746q-21 32 -32.5 46.5t-34 31t-52.5 22.5t-76 6v43h721v-43q-119 0 -151 -34q-15 -15 -2 -35l334 -514l270 329q47 58 68 103.5t17.5 73t-24.5 45.5t-50.5 25t-67.5 7v43h528v-43q-63 0 -109 -18.5t-110 -77t-162 -178.5l-313 -381l540 -825
q21 -32 33 -47t34 -31.5t52 -22.5t76 -6v-43h-721v43q116 0 151 34q17 16 3 36l-387 592l-336 -408q-47 -58 -66 -103.5t-12.5 -73t30.5 -45.5t55.5 -25t70.5 -7v-43h-551v43q63 0 109 18.5t110 77t162 178.5z" />
    <glyph glyph-name="Y" unicode="Y" horiz-adv-x="1478" 
d="M537 156v563h2l-392 805q-30 60 -66 83t-118 23v43h686v-43q-83 0 -122 -16t-21 -53l344 -725l254 497q39 76 55.5 129t15 86t-24 51t-54.5 24.5t-84 6.5v43h504v-43q-49 0 -80.5 -8.5t-69.5 -38.5t-77.5 -89t-92.5 -159l-324 -616v-563q0 -63 38.5 -90t146.5 -27v-39
h-705v39q108 0 146.5 27t38.5 90z" />
    <glyph glyph-name="Z" unicode="Z" horiz-adv-x="1439" 
d="M45 0l940 1595h-319q-127 0 -214 -23.5t-135.5 -70t-71 -101.5t-30.5 -132h-27v405h1192l-929 -1599h518q183 0 278.5 84.5t112.5 255.5h24v-414h-1339z" />
    <glyph glyph-name="bracketleft" unicode="[" horiz-adv-x="579" 
d="M168 1706h418v-92h-314v-2122h314v-92h-418v2306z" />
    <glyph glyph-name="backslash" unicode="\" horiz-adv-x="765" 
d="M674 -68l-707 1780h109l706 -1780h-108z" />
    <glyph glyph-name="bracketright" unicode="]" horiz-adv-x="579" 
d="M-6 1706h418v-2306h-418v96h313v2114h-313v96z" />
    <glyph glyph-name="asciicircum" unicode="^" horiz-adv-x="1064" 
d="M467 1706h96l416 -850h-115l-350 729l-317 -729h-111z" />
    <glyph glyph-name="underscore" unicode="_" horiz-adv-x="1566" 
d="M106 -98v98h1354v-98h-1354z" />
    <glyph glyph-name="grave" unicode="`" horiz-adv-x="374" 
d="M389 1118l-395 479h334l82 -479h-21z" />
    <glyph glyph-name="a" unicode="a" horiz-adv-x="1036" 
d="M436 88q78 0 131 72v348q-118 -17 -179.5 -88.5t-61.5 -177.5q0 -69 28 -111.5t82 -42.5zM874 735l-4 -530q0 -103 72 -103q60 0 102 45l19 -10q-40 -90 -104 -126t-156 -36q-82 0 -146.5 38.5t-83.5 121.5q-48 -89 -115 -126.5t-161 -37.5q-129 0 -198.5 68.5
t-69.5 177.5q0 80 39.5 138t115 94t168 56t215.5 30v280q0 98 -27 142t-89 44q-52 0 -83.5 -26t-31.5 -74q0 -7 4 -33.5t4 -50.5q0 -56 -31 -92.5t-94 -36.5q-50 0 -82.5 35t-32.5 90q0 58 36 103t93 70.5t119 38.5t123 13q209 0 304.5 -68.5t94.5 -234.5z" />
    <glyph glyph-name="b" unicode="b" horiz-adv-x="1355" 
d="M518 0h-493v39q58 0 95 7.5t55 24.5t24 36t6 49v1366q0 57 -31.5 84.5t-128.5 27.5v39h473v-803q59 93 134.5 132.5t178.5 39.5q206 0 337.5 -149.5t131.5 -376.5q0 -113 -31.5 -211.5t-90.5 -173t-150.5 -117.5t-204.5 -43q-104 0 -177 41.5t-128 132.5v-145zM692 901
q-108 0 -174 -59v-664q64 -76 182 -76q129 0 201 112t72 302q0 189 -76.5 287t-204.5 98z" />
    <glyph glyph-name="c" unicode="c" horiz-adv-x="1038" 
d="M580 -29q-127 0 -229 43t-165.5 117t-97 169t-33.5 204q0 167 74 290t198 183.5t281 60.5q59 0 122.5 -10.5t124 -32t99.5 -60t39 -87.5q0 -44 -32.5 -74.5t-88.5 -30.5q-38 0 -66.5 13.5t-44.5 35t-28.5 47.5t-23 52t-23 47.5t-33.5 35t-49 13.5q-96 0 -158.5 -124.5
t-62.5 -297.5q0 -92 16.5 -170.5t50.5 -143t93.5 -101.5t138.5 -37q85 0 167.5 37t141.5 124l23 -14q-129 -289 -434 -289z" />
    <glyph glyph-name="d" unicode="d" horiz-adv-x="1331" 
d="M1331 0h-493v145q-56 -93 -131 -133.5t-181 -40.5q-112 0 -202.5 41.5t-148.5 114t-89 169.5t-31 210q0 150 60.5 272t173.5 193t258 71q191 0 291 -170v644q0 31 -6 50t-24 36t-55 24.5t-96 7.5v39h494v-1517q0 -30 6 -49t24 -36t55 -24.5t95 -7.5v-39zM664 901
q-127 0 -204 -102.5t-77 -292.5q0 -189 71.5 -296.5t200.5 -107.5q119 0 183 76v664q-68 59 -174 59z" />
    <glyph glyph-name="e" unicode="e" horiz-adv-x="1085" 
d="M1047 606h-664q-5 -98 12 -185.5t55 -157.5t106 -111t157 -41q91 0 172.5 44.5t134.5 116.5l22 -14q-144 -287 -444 -287q-249 0 -396 148t-147 397q0 221 151 371.5t384 150.5q102 0 185.5 -33.5t139 -93.5t89 -137t43.5 -168zM592 993q-62 0 -109 -49t-70.5 -123.5
t-25.5 -161.5h365q0 334 -160 334z" />
    <glyph glyph-name="f" unicode="f" horiz-adv-x="811" 
d="M174 176v756h-162v53h162v197q0 136 36.5 238t103.5 162.5t152.5 90t190.5 29.5q61 0 125.5 -12t124 -35t97.5 -63.5t38 -92.5q0 -49 -36 -83t-93 -34q-66 0 -101.5 37.5t-59.5 112.5q-23 72 -43.5 101.5t-51.5 29.5q-91 0 -130.5 -109t-39.5 -366v-203h338v-53h-338
v-766q0 -34 6.5 -55t26.5 -39t61 -25.5t107 -7.5v-39h-674v39q98 0 129 31t31 106z" />
    <glyph glyph-name="g" unicode="g" horiz-adv-x="1196" 
d="M569 1030q103 0 201 -29h473v-65h-334q142 -101 142 -258q0 -151 -130.5 -251.5t-351.5 -100.5q-46 0 -71 4q-60 -12 -91.5 -45t-31.5 -76t29.5 -73t99.5 -30h149q74 0 131.5 -3.5t123.5 -13t113.5 -30t88 -51t61.5 -79t21 -111.5q0 -80 -37.5 -149t-101 -119t-146 -85.5
t-173.5 -53t-183 -17.5q-254 0 -405.5 83.5t-151.5 207.5q0 38 19 68.5t49.5 51.5t79 39t96 29t112.5 23q-241 30 -241 188q0 95 81 169.5t232 90.5q-156 33 -244 123.5t-88 210.5q0 151 129.5 251.5t349.5 100.5zM629 -111h-230q-85 -32 -120 -80t-35 -131q0 -79 47 -133.5
t113.5 -77t142.5 -22.5q55 0 99.5 4.5t92.5 20t80 41.5t53 71.5t21 106.5q0 104 -66 152t-198 48zM743 678q0 52 -8.5 102.5t-27 100t-54 80t-84.5 30.5q-46 0 -81 -30.5t-53.5 -80t-27 -100.5t-8.5 -102q0 -50 8.5 -100.5t27 -100.5t53.5 -81t81 -31q47 0 82.5 29.5
t54.5 78t28 100t9 105.5z" />
    <glyph glyph-name="h" unicode="h" horiz-adv-x="1341" 
d="M1186 713v-551q0 -65 31.5 -94t128.5 -29v-39h-633v39q97 0 128 28.5t31 90.5v538q0 104 -44 155.5t-119 51.5q-81 0 -138 -55.5t-73 -134.5v-551q0 -65 31 -94t128 -29v-39h-632v39q97 0 128 28.5t31 90.5v1360q0 61 -31 88.5t-128 27.5v39h473v-901q85 266 340 266
q67 0 128 -19.5t111 -57.5t79.5 -102t29.5 -146z" />
    <glyph glyph-name="i" unicode="i" horiz-adv-x="681" 
d="M195 158v667q0 42 -10.5 66t-46.5 39.5t-103 15.5v39h473v-823q0 -65 31.5 -94t128.5 -29v-39h-633v39q160 0 160 119zM156 1473q0 83 58.5 141.5t141.5 58.5t142 -58.5t59 -141.5t-59 -142t-142 -59t-141.5 59t-58.5 142z" />
    <glyph glyph-name="j" unicode="j" horiz-adv-x="645" 
d="M492 985v-913q0 -66 -7.5 -124.5t-26.5 -123.5t-53.5 -125.5t-85 -122.5t-125.5 -123t-171 -119l-9 19q44 46 76 116.5t48.5 139t26 159.5t11.5 155t2 149v757q0 61 -31.5 89t-128.5 28v39h474zM119 1473q0 83 58.5 141.5t141.5 58.5t142 -58.5t59 -141.5t-59 -142
t-142 -59t-141.5 59t-58.5 142z" />
    <glyph glyph-name="k" unicode="k" horiz-adv-x="1349" 
d="M498 502v-367q0 -96 96 -96h63v-39h-632v39h63q96 0 96 96v1385q0 59 -31 86.5t-128 27.5v39h473v-1147l290 242q36 30 59.5 53.5t36.5 47t6 39t-39 25t-91 9.5v43h497v-43q-46 0 -78 -2.5t-66 -14t-55 -21t-60 -38t-65 -50.5t-85 -73l-96 -84l403 -512
q48 -61 101.5 -82.5t144.5 -21.5v-43h-658v43h66q43 0 12 45z" />
    <glyph glyph-name="l" unicode="l" horiz-adv-x="661" 
d="M184 162v1358q0 59 -31 86.5t-128 27.5v39h473v-1511q0 -65 31 -94t128 -29v-39h-632v39q97 0 128 29t31 94z" />
    <glyph glyph-name="m" unicode="m" horiz-adv-x="2035" 
d="M1194 713v-559q0 -59 31.5 -87t128.5 -28v-39h-633v39q97 0 128.5 28t31.5 87v542q0 104 -43.5 155.5t-118.5 51.5q-81 0 -138 -55.5t-73 -134.5v-555q0 -62 31.5 -90.5t128.5 -28.5v-39h-633v39q97 0 128.5 29t31.5 94v663q0 67 -31 94t-129 27v39h473v-213
q85 266 340 266q85 0 156 -28t123 -92.5t63 -157.5q83 278 344 278q67 0 127.5 -19.5t110.5 -57.5t79 -102t29 -146v-559q0 -59 31.5 -87t128.5 -28v-39h-633v39q97 0 128.5 28t31.5 87v542q0 104 -43.5 155.5t-118.5 51.5q-79 0 -134.5 -53t-76.5 -137z" />
    <glyph glyph-name="n" unicode="n" horiz-adv-x="1349" 
d="M1194 713v-559q0 -59 31.5 -87t128.5 -28v-39h-633v39q97 0 128.5 28t31.5 87v542q0 104 -43.5 155.5t-118.5 51.5q-81 0 -138 -55.5t-73 -134.5v-563q0 -37 10.5 -59t46.5 -37t103 -15v-39h-633v39q67 0 103 15t46.5 37t10.5 59v688q0 58 -31 83t-129 25v39h473v-213
q85 266 350 266q142 0 239 -82.5t97 -242.5z" />
    <glyph glyph-name="o" unicode="o" horiz-adv-x="1232" 
d="M55 502q0 232 153 381t408 149t408.5 -149.5t153.5 -380.5q0 -113 -39.5 -210.5t-111.5 -168.5t-178 -111.5t-233 -40.5q-255 0 -408 149t-153 382zM616 14q47 0 85 22t62.5 61.5t41.5 86.5t25.5 105t12 108.5t3.5 104.5q0 67 -5 127.5t-19.5 129t-39 117t-67 81
t-99.5 32.5q-56 0 -98.5 -31.5t-66.5 -80t-39 -116.5t-20 -129t-5 -130q0 -68 4.5 -128t19 -129t38.5 -117.5t67 -81t100 -32.5z" />
    <glyph glyph-name="p" unicode="p" horiz-adv-x="1329" 
d="M492 145v-596q0 -37 10 -58.5t46 -36.5t103 -15v-39h-633v39q97 0 128.5 27t31.5 83v1282q0 59 -31.5 87t-128.5 28v39h474v-115q59 93 134.5 132.5t178.5 39.5q206 0 337.5 -149.5t131.5 -376.5q0 -113 -31.5 -211.5t-90.5 -173t-150.5 -117.5t-204.5 -43
q-104 0 -177 41.5t-128 132.5zM674 102q129 0 200.5 112t71.5 302q0 189 -76 287t-204 98q-108 0 -174 -59v-664q64 -76 182 -76z" />
    <glyph glyph-name="q" unicode="q" horiz-adv-x="1329" 
d="M838 872v113h473v-39q-97 0 -128.5 -27t-31.5 -83v-1287q0 -56 31.5 -83t128.5 -27v-39h-654v39q77 0 118 15t52 37t11 60v594q-56 -93 -131 -133.5t-181 -40.5q-112 0 -202.5 41.5t-148.5 114t-89 169.5t-31 210q0 150 60.5 271.5t174.5 193t261 71.5q187 0 287 -170z
M664 901q-127 0 -204 -102.5t-77 -292.5q0 -189 71.5 -296.5t200.5 -107.5q119 0 183 76v664q-68 59 -174 59z" />
    <glyph glyph-name="r" unicode="r" horiz-adv-x="956" 
d="M508 985v-264q21 93 56 158t77 96.5t80 44t80 12.5q70 0 120 -39.5t50 -99.5q0 -57 -36.5 -97t-88.5 -40q-37 0 -63.5 11.5t-40.5 28.5t-25.5 34t-26.5 28.5t-35 11.5q-37 0 -86 -67t-61 -170v-483q0 -37 10.5 -59t46.5 -37t103 -15v-39h-633v39q97 0 128.5 27.5
t31.5 85.5v682q0 57 -31.5 84.5t-128.5 27.5v39h473z" />
    <glyph glyph-name="s" unicode="s" horiz-adv-x="1009" 
d="M483 16q74 0 120 54.5t46 126.5q0 66 -38.5 117.5t-123.5 74.5l-86 23q-311 83 -311 333q0 140 113 212.5t299 72.5q45 0 93 -4.5t102 -17t96 -31t70 -50t28 -71.5t-33.5 -70t-79.5 -30q-38 0 -65.5 17t-41 42.5t-29 55t-30.5 55t-45 42.5t-73 17q-62 0 -100 -42.5
t-38 -100.5q0 -60 38.5 -110.5t123.5 -74.5l86 -24q181 -51 255.5 -134t74.5 -200q0 -80 -36 -144t-98 -103.5t-140.5 -60t-167.5 -20.5q-202 0 -314 53.5t-112 135.5q0 52 33.5 84t93.5 32q45 0 79 -27t55 -65t41 -76t48.5 -65t66.5 -27z" />
    <glyph glyph-name="t" unicode="t" horiz-adv-x="755" 
d="M14 932v53h142l268 311h41v-311h319v-53h-319v-694q0 -152 123 -152q87 0 184 59l14 -20q-82 -85 -164.5 -119.5t-179.5 -34.5q-130 0 -208 63.5t-78 178.5v719h-142z" />
    <glyph glyph-name="u" unicode="u" horiz-adv-x="1306" 
d="M838 0v209q-44 -122 -128 -181t-188 -59q-190 0 -278 94t-88 261l2 510q0 57 -31.5 84.5t-128.5 27.5v39h469l-2 -663q0 -116 47.5 -177t120.5 -61q71 0 131 54.5t74 150.5v547q0 56 -31.5 83t-128.5 27v39h469v-835q0 -37 10.5 -59t46.5 -37t103 -15v-39h-469z" />
    <glyph glyph-name="v" unicode="v" horiz-adv-x="1073" 
d="M645 348l158 363q58 133 41 184t-123 51v39h389v-39q-86 0 -133 -45t-94 -158l-342 -792h-35l-371 885q-25 62 -58 86t-114 24v39h598v-39q-76 0 -101.5 -17.5t-10.5 -56.5z" />
    <glyph glyph-name="w" unicode="w" horiz-adv-x="1738" 
d="M1311 348l157 363q58 133 41 184t-123 51v39h390v-39q-87 0 -134 -45.5t-94 -157.5l-338 -788h-41l-309 735l-317 -735h-39l-369 881q-25 62 -58 86t-114 24v39h598v-39q-75 0 -100.5 -17.5t-11.5 -56.5l196 -524l158 363q2 4 11 26t13 33l-26 66q-25 62 -58 86t-114 24
v39h598v-39q-75 0 -101 -17.5t-12 -56.5z" />
    <glyph glyph-name="x" unicode="x" horiz-adv-x="1208" 
d="M692 113l-172 264l-131 -139q-100 -107 -88 -153t135 -46v-39h-452v39q76 0 140 37t177 155l186 197l-260 408q-39 60 -77 85t-117 25v39h610v-39q-74 0 -94 -19.5t6 -54.5l143 -223l70 74q210 223 -12 223v39h432v-39q-86 0 -155 -47.5t-214 -202.5l-90 -96l291 -450
q38 -57 81.5 -84t123.5 -27v-39h-645v39q77 0 106 19.5t6 54.5z" />
    <glyph glyph-name="y" unicode="y" horiz-adv-x="1038" 
d="M88 -612q-102 0 -178 50t-76 140q0 45 31.5 78t81.5 33q45 0 72 -21.5t37.5 -52.5t19 -62.5t26 -53t48.5 -21.5q20 0 37 6t41 24t49.5 60t50.5 106l118 306l-354 856q-25 62 -58 86t-114 24v39h598v-39q-75 0 -100.5 -17.5t-11.5 -56.5l198 -540l156 379q57 133 40.5 184
t-122.5 51v39h397v-39q-86 0 -133 -45t-94 -158l-461 -1097q-36 -86 -75.5 -141.5t-81 -79t-72 -30.5t-70.5 -7z" />
    <glyph glyph-name="z" unicode="z" horiz-adv-x="1001" 
d="M113 614v371h843l-589 -946h104q71 0 128 10t98 26t73 43t52 55.5t34.5 69.5t23 77.5t15.5 87.5h27v-408h-918l586 940h-103q-90 0 -152.5 -21.5t-100.5 -66.5t-59 -100t-36 -138h-26z" />
    <glyph glyph-name="braceleft" unicode="{" horiz-adv-x="606" 
d="M16 530v25q62 8 110 47.5t75.5 97.5t41 122t13.5 130q0 107 -33 201q-45 127 -45 231q0 146 91.5 231t283.5 85h59v-92h-59q-268 0 -268 -222q0 -77 32 -178q45 -140 45 -262q0 -117 -41.5 -227t-130.5 -176q88 -65 130 -181t42 -235q0 -122 -45 -262q-32 -101 -32 -178
q0 -222 268 -222h59v-92h-59q-193 0 -284 83.5t-91 232.5q0 104 45 231q33 94 33 201q0 52 -8 104.5t-26.5 105t-45.5 94t-68.5 70t-91.5 35.5z" />
    <glyph glyph-name="bar" unicode="|" horiz-adv-x="514" 
d="M209 0v1673h96v-1673h-96z" />
    <glyph glyph-name="braceright" unicode="}" horiz-adv-x="573" 
d="M590 555v-25q-50 -7 -91.5 -35.5t-68.5 -70t-45.5 -94t-26.5 -105t-8 -104.5q0 -107 33 -201q45 -127 45 -231q0 -149 -91 -232.5t-284 -83.5h-59v92h59q269 0 269 222q0 74 -33 178q-45 140 -45 262q0 119 42 235t130 181q-89 66 -130.5 176t-41.5 227q0 122 45 262
q33 104 33 178q0 222 -269 222h-59v92h59q192 0 283.5 -85t91.5 -231q0 -104 -45 -231q-33 -94 -33 -201q0 -66 13.5 -130t41 -122t75.5 -97.5t110 -47.5z" />
    <glyph glyph-name="asciitilde" unicode="~" horiz-adv-x="1316" 
d="M358 653q69 0 155 -31.5t154 -69.5t149 -69.5t140 -31.5q63 0 110 37.5t85 127.5l88 -34q-38 -114 -112.5 -171t-168.5 -57q-71 0 -158.5 31.5t-155.5 69t-147 69t-137 31.5q-63 0 -110 -38.5t-84 -129.5l-88 39q38 114 112 170.5t168 56.5z" />
    <glyph glyph-name="uni00A0" unicode="&#xa0;" horiz-adv-x="356" 
 />
    <glyph glyph-name="exclamdown" unicode="&#xa1;" horiz-adv-x="573" 
d="M475 -662q-92 -30 -184 -30q-93 0 -185 30q23 271 88 651.5t85 569.5h24q20 -195 84.5 -575t87.5 -646zM86 838q0 83 59 141.5t142 58.5t141.5 -58.5t58.5 -141.5t-58.5 -142t-141.5 -59t-142 59t-59 142z" />
    <glyph glyph-name="cent" unicode="&#xa2;" horiz-adv-x="1042" 
d="M553 -211v182q-97 4 -179 33.5t-140 79t-99 116t-60.5 143.5t-19.5 161q0 119 37.5 216t104.5 163t157.5 105t198.5 48v191h84v-189q59 -2 118 -14t114.5 -33.5t89.5 -58.5t34 -84q0 -44 -32.5 -74.5t-88.5 -30.5q-48 0 -80.5 21t-49 52.5t-29.5 64.5t-31.5 61.5
t-44.5 38.5v-866q14 -2 45 -2q85 0 167.5 37t141.5 124l23 -14q-115 -261 -377 -287v-184h-84zM383 565q0 -147 41.5 -259.5t128.5 -162.5v834q-76 -32 -123 -148t-47 -264z" />
    <glyph glyph-name="sterling" unicode="&#xa3;" horiz-adv-x="1263" 
d="M31 872v58h223q-12 107 -8 205.5t19.5 184t56 155t101 119.5t155 77t217.5 27q61 0 125.5 -12t124 -35t97.5 -63.5t38 -92.5q0 -49 -36.5 -86t-92.5 -37q-68 0 -107.5 34.5t-62.5 104.5q-29 92 -45 114q-23 34 -66 34q-51 0 -88 -25t-58 -64.5t-32.5 -99t-14 -116.5
t0.5 -129t8 -124.5t12 -115.5q4 -38 6 -55h430v-58h-424v-20q0 -218 -112 -431t-283 -345q171 129 295.5 198.5t206.5 69.5q52 0 101 -15t83.5 -35.5t69 -42.5t64.5 -35t61.5 -14.5t67.5 20.5t77 69l25 -17q-59 -152 -142.5 -226.5t-173.5 -74.5q-53 0 -95.5 10t-73.5 24.5
t-64.5 28.5t-85 24t-117.5 10q-65 0 -135 -17t-119.5 -34.5t-127.5 -27.5t-159 5v35q66 -12 118 11.5t85 72.5t55.5 120t32 149t12 165t-1.5 162.5t-12 146.5q-2 4 -2 14h-229z" />
    <glyph glyph-name="yen" unicode="&#xa5;" horiz-adv-x="1478" 
d="M184 715v69h322l-359 740q-30 60 -66 83t-118 23v43h686v-43q-83 0 -122 -16t-21 -53l344 -725l254 497q39 76 55.5 129t15 86t-24 51t-54.5 24.5t-84 6.5v43h504v-43q-49 0 -80.5 -8.5t-69.5 -38.5t-77.5 -89t-92.5 -159l-289 -551h310v-69h-345v-223h345v-70h-345v-266
q0 -63 38.5 -90t146.5 -27v-39h-705v39q108 0 146.5 27t38.5 90v266h-353v70h353v223h-353z" />
    <glyph glyph-name="brokenbar" unicode="&#xa6;" horiz-adv-x="399" 
d="M147 1618h105v-899h-105v899zM147 299h105v-899h-105v899z" />
    <glyph glyph-name="section" unicode="&#xa7;" horiz-adv-x="1320" 
d="M651 1706q44 0 98.5 -6t120.5 -21.5t119.5 -39t90 -63.5t36.5 -89q0 -47 -36 -81t-87 -34q-37 0 -66 16t-49 41.5t-37.5 57t-36.5 62.5t-40.5 56.5t-55 41.5t-75.5 16q-94 0 -153.5 -61.5t-59.5 -159.5q0 -101 47 -166t149 -105l211 -86q377 -153 377 -440
q0 -247 -313 -379q157 -77 234 -178t77 -233q0 -92 -39 -174t-109 -143.5t-175.5 -97.5t-231.5 -36q-87 0 -177.5 16t-170.5 45.5t-131 79t-51 109.5q0 48 35 84.5t90 36.5q49 0 89.5 -34t71 -82t62 -96t77 -82t101.5 -34q121 0 191.5 80.5t70.5 187.5q0 201 -246 299
l-178 70q-176 71 -266 176t-90 254q0 121 84.5 221t245.5 144q-148 63 -229 179t-81 247q0 186 137.5 293.5t368.5 107.5zM387 641q0 -172 219 -258l182 -72l84 -37q31 42 49.5 96.5t18.5 106.5q0 66 -23.5 120t-66.5 91.5t-84.5 61.5t-95.5 45l-195 75q-42 -50 -65 -111
t-23 -118z" />
    <glyph glyph-name="dieresis" unicode="&#xa8;" horiz-adv-x="909" 
d="M25 1366q0 76 53.5 130t130.5 54t130.5 -54t53.5 -130t-53.5 -130t-130.5 -54t-130.5 54t-53.5 130zM516 1366q0 76 54 130t130 54q77 0 131 -54t54 -130t-54 -130t-131 -54q-76 0 -130 54t-54 130z" />
    <glyph glyph-name="copyright" unicode="&#xa9;" horiz-adv-x="1800" 
d="M86 784q0 222 109 409.5t296 296.5t408 109q166 0 317 -64.5t260 -173.5t173.5 -260t64.5 -317q0 -221 -109 -408t-296.5 -296t-409.5 -109q-221 0 -408 109t-296 296t-109 408zM176 784q0 -149 57 -284.5t153 -233.5t230.5 -156.5t282.5 -58.5q149 0 283.5 58
t230.5 156.5t152.5 234t56.5 284.5q0 200 -95.5 369.5t-262 268t-365.5 98.5q-148 0 -282.5 -58.5t-230.5 -157t-153 -234.5t-57 -286zM1274 961h-35q-20 91 -57 158t-81.5 101.5t-87 50t-83.5 15.5q-112 0 -177 -128.5t-65 -360.5q0 -223 63.5 -347t188.5 -124
q31 0 62.5 7.5t68.5 29t68 55t59 92.5t43 135h35v-270q-145 -82 -354 -82q-135 0 -238 42t-163 114.5t-90 161t-30 190.5q0 236 139 376t373 140q79 0 179.5 -19.5t183.5 -60.5z" />
    <glyph glyph-name="ordfeminine" unicode="&#xaa;" horiz-adv-x="800" 
d="M326 885q53 0 90 49v240q-150 -21 -150 -181q0 -108 60 -108zM647 1329l-4 -364q0 -70 49 -70q43 0 72 31l12 -6q-50 -113 -198 -113q-57 0 -101 27t-57 84q-61 -113 -211 -113q-89 0 -136.5 47t-47.5 121q0 55 30 95.5t86.5 65t122.5 38.5t152 20v192q0 67 -19 98
t-61 31q-36 0 -58 -18t-22 -51q0 -5 3 -23.5t3 -34.5q0 -36 -28 -62t-72 -26q-35 0 -60.5 24t-25.5 60q0 40 28 71.5t71.5 49t89 26.5t87.5 9q146 0 221 -48t74 -161z" />
    <glyph glyph-name="guillemotleft" unicode="&#xab;" horiz-adv-x="946" 
d="M877 70l-478 430l475 432h25l-246 -430l246 -432h-22zM502 70l-477 430l475 432h24l-245 -430l245 -432h-22z" />
    <glyph glyph-name="logicalnot" unicode="&#xac;" horiz-adv-x="1163" 
d="M66 438v97h970v-533h-104v436h-866z" />
    <glyph glyph-name="uni00AD" unicode="&#xad;" horiz-adv-x="774" 
d="M86 471v96h602v-96h-602z" />
    <glyph glyph-name="registered" unicode="&#xae;" horiz-adv-x="1800" 
d="M86 784q0 222 109 409.5t296 296.5t408 109q166 0 317 -64.5t260 -173.5t173.5 -260t64.5 -317q0 -221 -109 -408t-296.5 -296t-409.5 -109q-221 0 -408 109t-296 296t-109 408zM176 784q0 -149 57 -284.5t153 -233.5t230.5 -156.5t282.5 -58.5q149 0 283.5 58
t230.5 156.5t152.5 234t56.5 284.5q0 200 -95.5 369.5t-262 268t-365.5 98.5q-148 0 -282.5 -58.5t-230.5 -157t-153 -234.5t-57 -286zM463 1278h373q96 0 164.5 -9t128 -31.5t90 -68t30.5 -112.5q0 -103 -87 -168.5t-240 -75.5q120 -3 196.5 -51t104.5 -154l8 -22
q33 -131 70.5 -172.5t125.5 -53.5v-20q-88 -18 -184 -18q-124 0 -191 63t-98 188l-14 56q-9 36 -13 48.5t-12.5 38t-15 34.5t-18 22t-25.5 17.5t-33 5.5v-334q0 -50 19.5 -70t85.5 -20v-33h-465v33q66 0 85 20t19 70v696q0 49 -19 67.5t-85 18.5v35zM823 1255v-440
q53 3 86 21.5t53.5 67.5t20.5 132q0 113 -39.5 164.5t-120.5 54.5z" />
    <glyph glyph-name="macron" unicode="&#xaf;" horiz-adv-x="815" 
d="M55 1288v96h705v-96h-705z" />
    <glyph glyph-name="degree" unicode="&#xb0;" horiz-adv-x="675" 
d="M45 1413q0 121 85.5 206t207.5 85t207.5 -85t85.5 -206t-85.5 -206t-207.5 -85t-207.5 85t-85.5 206zM147 1413q0 -80 53 -138t138 -58q87 0 138.5 56t51.5 140q0 86 -54 141.5t-136 55.5q-75 0 -133 -55.5t-58 -141.5z" />
    <glyph glyph-name="plusminus" unicode="&#xb1;" horiz-adv-x="1101" 
d="M498 1001h104v-372h434v-97h-434v-354h-104v354h-432v97h432v372zM66 0v96h970v-96h-970z" />
    <glyph glyph-name="twosuperior" unicode="&#xb2;" horiz-adv-x="868" 
d="M805 879h-795q436 303 436 507q0 127 -98 127q-93 0 -196 -94l-15 11q59 81 153 124t204 43q138 0 203 -47.5t65 -128.5q0 -41 -22 -79t-58.5 -71t-98 -69t-127 -66.5t-159.5 -70.5h256q35 0 50.5 0.5t40.5 2t36 5t27.5 10t24.5 16t18 24t16 34t12 45.5h27v-323z" />
    <glyph glyph-name="threesuperior" unicode="&#xb3;" horiz-adv-x="765" 
d="M166 1059v14q250 114 250 324q0 56 -26.5 89.5t-70.5 33.5q-45 0 -81 -20.5t-76 -65.5l-17 12q87 151 304 151q129 0 194.5 -50t65.5 -126q0 -94 -108.5 -178.5t-244.5 -91.5q98 -3 172 -30.5t114 -70t59.5 -88.5t19.5 -94q0 -58 -23.5 -114.5t-71 -107.5t-131.5 -82.5
t-192 -31.5q-223 0 -319 138l18 14q88 -90 215 -90q89 0 147 65t58 175q0 98 -62 161.5t-194 63.5z" />
    <glyph glyph-name="acute" unicode="&#xb4;" horiz-adv-x="602" 
d="M547 1597l-471 -479h-21l138 479h354z" />
    <glyph glyph-name="mu" unicode="&#xb5;" horiz-adv-x="1130" 
d="M188 1004h105v-668q0 -112 72 -186t192 -74q88 0 164 56.5t117 154.5v717h104v-1004h-100v160q-47 -91 -120.5 -140t-160.5 -49q-76 0 -150.5 29.5t-117.5 93.5v-553h-105v1463z" />
    <glyph glyph-name="paragraph" unicode="&#xb6;" horiz-adv-x="1114" 
d="M1012 1511h-172v-1751h-97v1751h-157v-1751h-97v1031q-186 0 -315 111.5t-129 293.5q0 60 14 115t50 109.5t92 94.5t147 64.5t207 24.5h457v-93z" />
    <glyph glyph-name="periodcentered" unicode="&#xb7;" horiz-adv-x="573" 
d="M86 528q0 83 59 142t142 59t141.5 -59t58.5 -142t-58.5 -141.5t-141.5 -58.5t-142 58.5t-59 141.5z" />
    <glyph glyph-name="cedilla" unicode="&#xb8;" horiz-adv-x="481" 
d="M193 -8h61l-109 -160q62 45 134 45q62 0 104.5 -36.5t42.5 -96.5q0 -61 -36 -111t-92.5 -80t-119 -46.5t-121.5 -16.5l-2 12q93 16 149 86.5t56 139.5q0 35 -17 56t-48 21q-23 0 -60 -16l-49 39z" />
    <glyph glyph-name="onesuperior" unicode="&#xb9;" horiz-adv-x="622" 
d="M158 1022v424q0 25 -3 39.5t-13.5 29.5t-34.5 22t-62 7v35h533v-35q-38 0 -62 -7t-34.5 -22t-13.5 -29.5t-3 -39.5v-428q0 -58 20 -83.5t93 -25.5v-35h-533v35q73 0 93 26t20 87z" />
    <glyph glyph-name="ordmasculine" unicode="&#xba;" horiz-adv-x="831" 
d="M25 1163q0 163 106.5 267t284.5 104t284.5 -104t106.5 -267q0 -161 -106.5 -264.5t-284.5 -103.5q-179 0 -285 103t-106 265zM416 823q41 0 70.5 33t43.5 88t19.5 108t5.5 111q0 60 -5.5 113t-19.5 107.5t-43.5 87t-70.5 32.5t-70 -32t-43.5 -85.5t-20.5 -108t-6 -114.5
q0 -59 5.5 -112t19.5 -108t43.5 -87.5t71.5 -32.5z" />
    <glyph glyph-name="guillemotright" unicode="&#xbb;" horiz-adv-x="946" 
d="M922 500l-478 -430h-22l246 432l-246 430h24zM545 500l-477 -430h-23l246 432l-246 430h25z" />
    <glyph glyph-name="onequarter" unicode="&#xbc;" horiz-adv-x="1701" 
d="M1391 1673l-1110 -1673h-105l1106 1673h109zM137 1022v424q0 25 -3 39.5t-13 29.5t-34 22t-62 7v35h532v-35q-38 0 -62 -7t-34.5 -22t-13.5 -29.5t-3 -39.5v-428q0 -58 20 -83.5t93 -25.5v-35h-532v35q73 0 92.5 26t19.5 87zM1362 311v-176q0 -56 23.5 -78t97.5 -22v-35
h-514v35q74 0 97.5 22.5t23.5 79.5v174h-371l649 740v-594h23q29 0 52 6t38.5 14t28 24.5t19.5 28t13.5 35.5t9 35.5t7.5 38.5h30v-328h-227zM907 457h191v223z" />
    <glyph glyph-name="onehalf" unicode="&#xbd;" horiz-adv-x="1560" 
d="M1397 1673l-1116 -1673h-105l1112 1673h109zM137 1022v424q0 25 -3 39.5t-13 29.5t-34 22t-62 7v35h532v-35q-38 0 -62 -7t-34.5 -22t-13.5 -29.5t-3 -39.5v-428q0 -58 20 -83.5t93 -25.5v-35h-532v35q73 0 92.5 26t19.5 87zM1479 0h-795q436 303 436 508q0 127 -98 127
q-94 0 -197 -94l-14 10q59 82 152.5 125t203.5 43q138 0 203.5 -47.5t65.5 -128.5q0 -97 -112.5 -176.5t-352.5 -180.5h256q45 0 66 0.5t49.5 4.5t41 12.5t28 24t24 38.5t16.5 58h27v-324z" />
    <glyph glyph-name="threequarters" unicode="&#xbe;" horiz-adv-x="1869" 
d="M1561 1673l-1112 -1673h-105l1108 1673h109zM1534 311v-176q0 -56 23.5 -78t97.5 -22v-35h-514v35q74 0 97.5 22.5t23.5 79.5v174h-371l649 740v-594h23q29 0 52 6t38.5 14t28 24.5t19.5 28t13.5 35.5t9 35.5t7.5 38.5h30v-328h-227zM1079 457h191v223zM92 1059v14
q250 114 250 324q0 56 -26 89.5t-70 33.5q-46 0 -82 -20.5t-76 -65.5l-16 12q87 151 303 151q129 0 194.5 -50t65.5 -126q0 -61 -49.5 -122t-131.5 -102t-171 -46q98 -3 172 -30.5t114 -70t59 -88.5t19 -94q0 -58 -23.5 -114.5t-71 -107.5t-131.5 -82.5t-192 -31.5
q-223 0 -319 138l18 14q88 -90 215 -90q89 0 147 65t58 175q0 98 -62 161.5t-194 63.5z" />
    <glyph glyph-name="questiondown" unicode="&#xbf;" horiz-adv-x="817" 
d="M391 -657q43 0 71 29t43 70.5t31 83t48.5 70.5t83.5 29q57 0 92 -32.5t35 -81.5q0 -51 -43.5 -93t-109 -65.5t-131.5 -36t-120 -12.5q-405 0 -405 311q0 55 23 113.5t59.5 110t82 110t91 113t86 118.5t66.5 126.5t33.5 137.5t-13.5 152l12 8q97 -55 148 -143.5t51 -188.5
q0 -60 -34 -131.5t-83 -140.5t-98 -141.5t-83 -158.5t-34 -167q0 -48 8.5 -89t31.5 -71t58 -30zM203 838q0 83 58.5 141.5t141.5 58.5t142 -58.5t59 -141.5t-59 -142t-142 -59t-141.5 59t-58.5 142z" />
    <glyph glyph-name="Agrave" unicode="&#xc0;" horiz-adv-x="1671" 
d="M281 360l555 1387h22l606 -1561q31 -81 83 -112t141 -31v-43h-736v43q29 0 50 2t42.5 6.5t34.5 14.5t21.5 24.5t7 37.5t-11.5 52l-127 357h-537l-78 -197q-30 -75 -38.5 -130.5t0.5 -87t34.5 -50t54 -24t68.5 -5.5v-43h-489v43q40 0 65 4.5t55 22t55.5 51.5t56 92.5
t65.5 146.5zM719 1247l-230 -569h431zM987 1745l-395 479h334l82 -479h-21z" />
    <glyph glyph-name="Aacute" unicode="&#xc1;" horiz-adv-x="1671" 
d="M281 360l555 1387h22l606 -1561q31 -81 83 -112t141 -31v-43h-736v43q29 0 50 2t42.5 6.5t34.5 14.5t21.5 24.5t7 37.5t-11.5 52l-127 357h-537l-78 -197q-30 -75 -38.5 -130.5t0.5 -87t34.5 -50t54 -24t68.5 -5.5v-43h-489v43q40 0 65 4.5t55 22t55.5 51.5t56 92.5
t65.5 146.5zM719 1247l-230 -569h431zM1128 2224l-471 -479h-20l137 479h354z" />
    <glyph glyph-name="Acircumflex" unicode="&#xc2;" horiz-adv-x="1671" 
d="M281 360l555 1387h22l606 -1561q31 -81 83 -112t141 -31v-43h-736v43q29 0 50 2t42.5 6.5t34.5 14.5t21.5 24.5t7 37.5t-11.5 52l-127 357h-537l-78 -197q-30 -75 -38.5 -130.5t0.5 -87t34.5 -50t54 -24t68.5 -5.5v-43h-489v43q40 0 65 4.5t55 22t55.5 51.5t56 92.5
t65.5 146.5zM719 1247l-230 -569h431zM840 1970l-346 -225h-21l367 512l366 -512h-20z" />
    <glyph glyph-name="Atilde" unicode="&#xc3;" horiz-adv-x="1671" 
d="M281 360l555 1387h22l606 -1561q31 -81 83 -112t141 -31v-43h-736v43q29 0 50 2t42.5 6.5t34.5 14.5t21.5 24.5t7 37.5t-11.5 52l-127 357h-537l-78 -197q-30 -75 -38.5 -130.5t0.5 -87t34.5 -50t54 -24t68.5 -5.5v-43h-489v43q40 0 65 4.5t55 22t55.5 51.5t56 92.5
t65.5 146.5zM719 1247l-230 -569h431zM1219 2128l92 117l14 -9l-96 -350h-692l-93 -117l-14 9l96 350h693z" />
    <glyph glyph-name="Adieresis" unicode="&#xc4;" horiz-adv-x="1671" 
d="M281 360l555 1387h22l606 -1561q31 -81 83 -112t141 -31v-43h-736v43q29 0 50 2t42.5 6.5t34.5 14.5t21.5 24.5t7 37.5t-11.5 52l-127 357h-537l-78 -197q-30 -75 -38.5 -130.5t0.5 -87t34.5 -50t54 -24t68.5 -5.5v-43h-489v43q40 0 65 4.5t55 22t55.5 51.5t56 92.5
t65.5 146.5zM719 1247l-230 -569h431zM412 1993q0 77 54 130.5t130 53.5t130 -53.5t54 -130.5t-54 -131t-130 -54t-130 54t-54 131zM903 1993q0 77 53.5 130.5t130.5 53.5t131 -54t54 -130q0 -77 -54 -131t-131 -54q-76 0 -130 54t-54 131z" />
    <glyph glyph-name="Aring" unicode="&#xc5;" horiz-adv-x="1671" 
d="M281 360l555 1387h22l606 -1561q31 -81 83 -112t141 -31v-43h-736v43q29 0 50 2t42.5 6.5t34.5 14.5t21.5 24.5t7 37.5t-11.5 52l-127 357h-537l-78 -197q-30 -75 -38.5 -130.5t0.5 -87t34.5 -50t54 -24t68.5 -5.5v-43h-489v43q40 0 65 4.5t55 22t55.5 51.5t56 92.5
t65.5 146.5zM719 1247l-230 -569h431zM1049 2005q0 -84 -61 -142.5t-148 -58.5t-148 58.5t-61 142.5t61 142.5t148 58.5t148 -58.5t61 -142.5zM971 2005q0 58 -38.5 95.5t-92.5 37.5q-56 0 -92.5 -38.5t-36.5 -94.5t36.5 -94.5t92.5 -38.5q60 0 95.5 38t35.5 95z" />
    <glyph glyph-name="AE" unicode="&#xc6;" horiz-adv-x="2539" 
d="M1694 1597v-692h231q55 0 93.5 9t75 34.5t60.5 77t37 129.5h29v-573h-29q-13 75 -39 126.5t-63 77.5t-76 37t-88 11h-231v-646q0 -68 23.5 -90t88.5 -22h338q155 0 234.5 88t105.5 258h31v-422h-1341v39q108 0 146 27t38 90v678h-455l-399 -494q-54 -68 -83.5 -112
t-42.5 -82t4 -59t60.5 -32.5t120.5 -11.5v-43h-579v43q29 2 52 5t48 12t40.5 13.5t40.5 22.5t37.5 26t41.5 38t42 44t50 57.5t55 65.5t66 81l901 1103v7q0 63 -38 89.5t-146 26.5v39h1267v-389h-31q-27 161 -104 237t-229 76h-383zM961 905h397v490z" />
    <glyph glyph-name="Ccedilla" unicode="&#xc7;" horiz-adv-x="1738" 
d="M1663 569v-436q-298 -162 -664 -162h-10l-94 -139q62 45 133 45q62 0 105 -36.5t43 -96.5q0 -61 -36 -111t-92.5 -80t-119 -46.5t-121.5 -16.5l-2 12q93 16 149 86.5t56 139.5q0 35 -17.5 56t-48.5 21q-22 0 -59 -16l-49 39l94 145q-186 8 -335.5 59t-249 131.5
t-166 189.5t-95.5 228.5t-29 252.5q0 404 250.5 638t693.5 234q374 0 650 -129v-428h-27q-77 216 -250.5 352.5t-376.5 136.5q-101 0 -187 -29t-158.5 -92.5t-123.5 -157t-79.5 -229t-28.5 -303.5q0 -196 42.5 -348t119 -247.5t180.5 -144t231 -48.5q233 0 401.5 136.5
t241.5 393.5h29z" />
    <glyph glyph-name="Egrave" unicode="&#xc8;" horiz-adv-x="1482" 
d="M66 1673h1267v-430h-30q-11 68 -29 117t-55 96t-91 76.5t-139 47t-198 17.5h-205v-692h190q56 0 100 9.5t89 34.5t75 77t43 129h29v-573h-29q-12 74 -45 126t-78 78t-89.5 37t-94.5 11h-190v-646q0 -68 23.5 -90t88.5 -22h170q112 0 196.5 20.5t138 53.5t90.5 84.5
t54.5 105t28.5 123.5h31v-463h-1341v39q108 0 146 27t38 90v1362q0 63 -38 89.5t-146 26.5v39zM881 1745l-396 479h334l82 -479h-20z" />
    <glyph glyph-name="Eacute" unicode="&#xc9;" horiz-adv-x="1482" 
d="M66 1673h1267v-430h-30q-11 68 -29 117t-55 96t-91 76.5t-139 47t-198 17.5h-205v-692h190q56 0 100 9.5t89 34.5t75 77t43 129h29v-573h-29q-12 74 -45 126t-78 78t-89.5 37t-94.5 11h-190v-646q0 -68 23.5 -90t88.5 -22h170q112 0 196.5 20.5t138 53.5t90.5 84.5
t54.5 105t28.5 123.5h31v-463h-1341v39q108 0 146 27t38 90v1362q0 63 -38 89.5t-146 26.5v39zM1153 2224l-471 -479h-20l137 479h354z" />
    <glyph glyph-name="Ecircumflex" unicode="&#xca;" horiz-adv-x="1482" 
d="M66 1673h1267v-430h-30q-11 68 -29 117t-55 96t-91 76.5t-139 47t-198 17.5h-205v-692h190q56 0 100 9.5t89 34.5t75 77t43 129h29v-573h-29q-12 74 -45 126t-78 78t-89.5 37t-94.5 11h-190v-646q0 -68 23.5 -90t88.5 -22h170q112 0 196.5 20.5t138 53.5t90.5 84.5
t54.5 105t28.5 123.5h31v-463h-1341v39q108 0 146 27t38 90v1362q0 63 -38 89.5t-146 26.5v39zM778 1970l-346 -225h-20l366 512l367 -512h-21z" />
    <glyph glyph-name="Edieresis" unicode="&#xcb;" horiz-adv-x="1482" 
d="M66 1673h1267v-430h-30q-11 68 -29 117t-55 96t-91 76.5t-139 47t-198 17.5h-205v-692h190q56 0 100 9.5t89 34.5t75 77t43 129h29v-573h-29q-12 74 -45 126t-78 78t-89.5 37t-94.5 11h-190v-646q0 -68 23.5 -90t88.5 -22h170q112 0 196.5 20.5t138 53.5t90.5 84.5
t54.5 105t28.5 123.5h31v-463h-1341v39q108 0 146 27t38 90v1362q0 63 -38 89.5t-146 26.5v39zM264 1993q0 76 54 130t131 54t130.5 -53.5t53.5 -130.5t-54 -131t-130 -54q-77 0 -131 54t-54 131zM920 1993q0 77 54 130.5t130 53.5t130 -53.5t54 -130.5t-54 -131t-130 -54
t-130 54t-54 131z" />
    <glyph glyph-name="Igrave" unicode="&#xcc;" horiz-adv-x="835" 
d="M250 156v1362q0 63 -38 89.5t-146 26.5v39h704v-39q-108 0 -146 -26.5t-38 -89.5v-1362q0 -63 38 -90t146 -27v-39h-704v39q108 0 146 27t38 90zM604 1745l-395 479h334l82 -479h-21z" />
    <glyph glyph-name="Iacute" unicode="&#xcd;" horiz-adv-x="835" 
d="M250 156v1362q0 63 -38 89.5t-146 26.5v39h704v-39q-108 0 -146 -26.5t-38 -89.5v-1362q0 -63 38 -90t146 -27v-39h-704v39q108 0 146 27t38 90zM723 2224l-471 -479h-21l138 479h354z" />
    <glyph glyph-name="Icircumflex" unicode="&#xce;" horiz-adv-x="835" 
d="M418 1970l-346 -225h-21l367 512l366 -512h-20zM250 156v1362q0 63 -38 89.5t-146 26.5v39h704v-39q-108 0 -146 -26.5t-38 -89.5v-1362q0 -63 38 -90t146 -27v-39h-704v39q108 0 146 27t38 90z" />
    <glyph glyph-name="Idieresis" unicode="&#xcf;" horiz-adv-x="835" 
d="M-12 1993q0 77 54 130.5t130 53.5t130 -53.5t54 -130.5t-54 -131t-130 -54t-130 54t-54 131zM479 1993q0 76 54 130t131 54q76 0 130 -53.5t54 -130.5t-54 -131t-130 -54t-130.5 54t-54.5 131zM250 156v1362q0 63 -38 89.5t-146 26.5v39h704v-39q-108 0 -146 -26.5
t-38 -89.5v-1362q0 -63 38 -90t146 -27v-39h-704v39q108 0 146 27t38 90z" />
    <glyph glyph-name="Eth" unicode="&#xd0;" horiz-adv-x="1849" 
d="M-16 815v86h266v617q0 60 -28.5 88t-92.5 28h-63v39h690q510 0 764 -214.5t254 -610.5q0 -189 -60 -344.5t-173.5 -267.5t-286.5 -174t-390 -62h-798v39h63q64 0 92.5 28t28.5 89v659h-266zM586 1612v-711h327v-86h-327v-602q0 -37 2.5 -59.5t12 -41.5t22.5 -28
t41.5 -15.5t61.5 -8t89 -1.5q103 0 191 26t165 85.5t131.5 149.5t85.5 225.5t31 306.5q0 176 -41.5 311.5t-109.5 218.5t-164 136.5t-195.5 73.5t-214.5 20h-108z" />
    <glyph glyph-name="Ntilde" unicode="&#xd1;" horiz-adv-x="1792" 
d="M1559 -29h-66l-1108 1387v-1059q0 -260 221 -260v-39h-536v39q116 0 172.5 67.5t56.5 192.5v1145q0 82 -52.5 129.5t-140.5 52.5l-40 2v45h546l861 -1098v811q0 119 -54.5 183.5t-167.5 64.5v39h537v-39q-115 0 -172 -65.5t-57 -182.5v-1415zM1325 2128l92 117l15 -9
l-97 -350h-692l-92 -117l-14 9l96 350h692z" />
    <glyph glyph-name="Ograve" unicode="&#xd2;" horiz-adv-x="1886" 
d="M1468 852q0 212 -40 370t-112 251.5t-165 138.5t-207 45q-91 0 -168.5 -27.5t-144 -89t-113.5 -153.5t-73.5 -228t-26.5 -307q0 -211 40 -369.5t112.5 -253.5t166 -141.5t207.5 -46.5q90 0 167.5 28.5t144 91t113 156t73 229.5t26.5 306zM1831 846q0 -261 -112 -458
t-312.5 -301.5t-462.5 -104.5t-463.5 107.5t-313.5 307t-112 461.5q0 197 65 358t181.5 271t281 169.5t361.5 59.5q261 0 462 -106t313 -304.5t112 -459.5zM1071 1755l-395 479h334l82 -479h-21z" />
    <glyph glyph-name="Oacute" unicode="&#xd3;" horiz-adv-x="1886" 
d="M1468 842q0 212 -40 370t-112 251.5t-165 138.5t-207 45q-91 0 -168.5 -27.5t-144 -89t-113.5 -153.5t-73.5 -228t-26.5 -307q0 -211 40 -369.5t112.5 -253.5t166 -141.5t207.5 -46.5q90 0 167.5 28.5t144 91t113 156t73 229.5t26.5 306zM1831 836q0 -261 -112 -458
t-312.5 -302t-462.5 -105q-196 0 -361.5 63t-281.5 176.5t-181 277.5t-65 360q0 197 65 358t181.5 271t281 169.5t361.5 59.5q261 0 462 -106t313 -304.5t112 -459.5zM1208 2224l-471 -479h-20l137 479h354z" />
    <glyph glyph-name="Ocircumflex" unicode="&#xd4;" horiz-adv-x="1886" 
d="M1468 842q0 212 -40 370t-112 251.5t-165 138.5t-207 45q-91 0 -168.5 -27.5t-144 -89t-113.5 -153.5t-73.5 -228t-26.5 -307q0 -211 40 -369.5t112.5 -253.5t166 -141.5t207.5 -46.5q90 0 167.5 28.5t144 91t113 156t73 229.5t26.5 306zM1831 836q0 -261 -112 -458
t-312.5 -302t-462.5 -105q-196 0 -361.5 63t-281.5 176.5t-181 277.5t-65 360q0 197 65 358t181.5 271t281 169.5t361.5 59.5q261 0 462 -106t313 -304.5t112 -459.5zM940 1970l-346 -225h-21l367 512l367 -512h-21z" />
    <glyph glyph-name="Otilde" unicode="&#xd5;" horiz-adv-x="1886" 
d="M1468 842q0 212 -40 370t-112 251.5t-165 138.5t-207 45q-91 0 -168.5 -27.5t-144 -89t-113.5 -153.5t-73.5 -228t-26.5 -307q0 -211 40 -369.5t112.5 -253.5t166 -141.5t207.5 -46.5q90 0 167.5 28.5t144 91t113 156t73 229.5t26.5 306zM1831 836q0 -261 -112 -458
t-312.5 -302t-462.5 -105q-196 0 -361.5 63t-281.5 176.5t-181 277.5t-65 360q0 197 65 358t181.5 271t281 169.5t361.5 59.5q261 0 462 -106t313 -304.5t112 -459.5zM1325 2128l92 117l15 -9l-97 -350h-692l-92 -117l-14 9l96 350h692z" />
    <glyph glyph-name="Odieresis" unicode="&#xd6;" horiz-adv-x="1886" 
d="M1468 842q0 212 -40 370t-112 251.5t-165 138.5t-207 45q-91 0 -168.5 -27.5t-144 -89t-113.5 -153.5t-73.5 -228t-26.5 -307q0 -211 40 -369.5t112.5 -253.5t166 -141.5t207.5 -46.5q90 0 167.5 28.5t144 91t113 156t73 229.5t26.5 306zM1831 836q0 -261 -112 -458
t-312.5 -302t-462.5 -105q-196 0 -361.5 63t-281.5 176.5t-181 277.5t-65 360q0 197 65 358t181.5 271t281 169.5t361.5 59.5q261 0 462 -106t313 -304.5t112 -459.5zM442 1993q0 76 54 130t131 54t130.5 -53.5t53.5 -130.5t-54 -131t-130 -54q-77 0 -131 54t-54 131z
M1098 1993q0 77 54 130.5t130 53.5t130 -53.5t54 -130.5t-54 -131t-130 -54t-130 54t-54 131z" />
    <glyph glyph-name="multiply" unicode="&#xd7;" horiz-adv-x="1056" 
d="M903 963l68 -70l-373 -373l373 -373l-70 -67l-371 371l-370 -371l-68 70l369 370l-375 377l68 70l376 -379z" />
    <glyph glyph-name="Oslash" unicode="&#xd8;" horiz-adv-x="1886" 
d="M1831 836q0 -261 -112 -458t-312.5 -302t-462.5 -105q-319 0 -547 158l-104 -129h-115l150 184q-131 117 -202 286.5t-71 377.5q0 197 65 358t181.5 271t281 169.5t361.5 59.5q294 0 510 -135l107 133h118l-151 -186q145 -116 224 -290t79 -392zM1468 842q0 304 -84 499
l-858 -1052q138 -258 418 -258q90 0 167.5 28.5t144 91t113 156t73 229.5t26.5 306zM418 842q0 -274 67 -463l852 1051q-134 217 -393 217q-91 0 -168.5 -27.5t-144 -89t-113.5 -153.5t-73.5 -228t-26.5 -307z" />
    <glyph glyph-name="Ugrave" unicode="&#xd9;" horiz-adv-x="1728" 
d="M1526 1356v-705q0 -324 -159 -502t-482 -178q-328 0 -506 173t-178 487v887q0 63 -38.5 89.5t-146.5 26.5v39h705v-39q-108 0 -146 -26.5t-38 -89.5v-904q0 -251 115.5 -387.5t318.5 -136.5q234 0 347.5 148.5t113.5 416.5v701q0 140 -54 209t-168 69v39h545v-39
q-229 0 -229 -278zM1030 1745l-395 479h334l82 -479h-21z" />
    <glyph glyph-name="Uacute" unicode="&#xda;" horiz-adv-x="1728" 
d="M1526 1356v-705q0 -324 -159 -502t-482 -178q-328 0 -506 173t-178 487v887q0 63 -38.5 89.5t-146.5 26.5v39h705v-39q-108 0 -146 -26.5t-38 -89.5v-904q0 -251 115.5 -387.5t318.5 -136.5q234 0 347.5 148.5t113.5 416.5v701q0 140 -54 209t-168 69v39h545v-39
q-229 0 -229 -278zM1317 2224l-471 -479h-21l138 479h354z" />
    <glyph glyph-name="Ucircumflex" unicode="&#xdb;" horiz-adv-x="1728" 
d="M1526 1356v-705q0 -324 -159 -502t-482 -178q-328 0 -506 173t-178 487v887q0 63 -38.5 89.5t-146.5 26.5v39h705v-39q-108 0 -146 -26.5t-38 -89.5v-904q0 -251 115.5 -387.5t318.5 -136.5q234 0 347.5 148.5t113.5 416.5v701q0 140 -54 209t-168 69v39h545v-39
q-229 0 -229 -278zM952 1970l-346 -225h-20l366 512l367 -512h-21z" />
    <glyph glyph-name="Udieresis" unicode="&#xdc;" horiz-adv-x="1728" 
d="M1526 1356v-705q0 -324 -159 -502t-482 -178q-328 0 -506 173t-178 487v887q0 63 -38.5 89.5t-146.5 26.5v39h705v-39q-108 0 -146 -26.5t-38 -89.5v-904q0 -251 115.5 -387.5t318.5 -136.5q234 0 347.5 148.5t113.5 416.5v701q0 140 -54 209t-168 69v39h545v-39
q-229 0 -229 -278zM440 1993q0 76 54 130t131 54t130.5 -53.5t53.5 -130.5t-54 -131t-130 -54q-77 0 -131 54t-54 131zM1096 1993q0 77 54 130.5t130 53.5t130 -53.5t54 -130.5t-54 -131t-130 -54t-130 54t-54 131z" />
    <glyph glyph-name="Yacute" unicode="&#xdd;" horiz-adv-x="1478" 
d="M537 156v563h2l-392 805q-30 60 -66 83t-118 23v43h686v-43q-83 0 -122 -16t-21 -53l344 -725l254 497q39 76 55.5 129t15 86t-24 51t-54.5 24.5t-84 6.5v43h504v-43q-49 0 -80.5 -8.5t-69.5 -38.5t-77.5 -89t-92.5 -159l-324 -616v-563q0 -63 38.5 -90t146.5 -27v-39
h-705v39q108 0 146.5 27t38.5 90zM1151 2224l-471 -479h-21l138 479h354z" />
    <glyph glyph-name="Thorn" unicode="&#xde;" horiz-adv-x="1404" 
d="M586 1518v-152h86q125 0 227 -11t202 -41.5t168 -80t110 -132.5t42 -194q0 -103 -34 -186t-94 -137t-139.5 -90t-174 -50.5t-193 -13t-200.5 18.5v-293q0 -64 41.5 -90.5t163.5 -26.5v-39h-725v39q108 0 146 27t38 90v1362q0 63 -38 89.5t-146 26.5v39h727v-39
q-111 0 -159 -27.5t-48 -88.5zM662 1303h-76v-822q119 -5 204 12.5t150 64t97 133t32 214.5q0 210 -106 304t-301 94z" />
    <glyph glyph-name="germandbls" unicode="&#xdf;" horiz-adv-x="1460" 
d="M983 14q61 0 99 54t38 135q0 89 -49.5 157t-134.5 127l-82 58q-107 74 -162 167.5t-55 186.5q0 63 25.5 117t62 96t73 85.5t62 105t25.5 135.5q0 89 -41 146.5t-125 57.5q-182 0 -182 -458v-1184h-471v39q97 0 128 29t31 94v727l-155 69v27h155v158q0 253 139 401
t367 148q120 0 220.5 -26.5t162.5 -79.5t62 -122q0 -50 -20.5 -88.5t-53 -62.5t-71.5 -43t-78.5 -35t-72 -34t-53 -46t-20.5 -65q0 -40 28 -88.5t71 -91.5t79.5 -74t69.5 -54l69 -49q155 -110 223 -208.5t68 -196.5q0 -52 -16 -102t-51 -96.5t-85.5 -81.5t-126.5 -56
t-167 -21q-61 0 -122.5 12t-117 35.5t-90.5 64.5t-35 93t34 83.5t81 31.5q58 0 91.5 -38t57.5 -112q22 -69 48 -98t67 -29z" />
    <glyph glyph-name="agrave" unicode="&#xe0;" horiz-adv-x="1036" 
d="M436 88q78 0 131 72v348q-118 -17 -179.5 -88.5t-61.5 -177.5q0 -69 28 -111.5t82 -42.5zM874 735l-4 -530q0 -103 72 -103q60 0 102 45l19 -10q-40 -90 -104 -126t-156 -36q-82 0 -146.5 38.5t-83.5 121.5q-48 -89 -115 -126.5t-161 -37.5q-129 0 -198.5 68.5
t-69.5 177.5q0 80 39.5 138t115 94t168 56t215.5 30v280q0 98 -27 142t-89 44q-52 0 -83.5 -26t-31.5 -74q0 -7 4 -33.5t4 -50.5q0 -56 -31 -92.5t-94 -36.5q-50 0 -82.5 35t-32.5 90q0 58 36 103t93 70.5t119 38.5t123 13q209 0 304.5 -68.5t94.5 -234.5zM643 1118
l-395 479h334l82 -479h-21z" />
    <glyph glyph-name="aacute" unicode="&#xe1;" horiz-adv-x="1036" 
d="M436 88q78 0 131 72v348q-118 -17 -179.5 -88.5t-61.5 -177.5q0 -69 28 -111.5t82 -42.5zM874 735l-4 -530q0 -103 72 -103q60 0 102 45l19 -10q-40 -90 -104 -126t-156 -36q-82 0 -146.5 38.5t-83.5 121.5q-48 -89 -115 -126.5t-161 -37.5q-129 0 -198.5 68.5
t-69.5 177.5q0 80 39.5 138t115 94t168 56t215.5 30v280q0 98 -27 142t-89 44q-52 0 -83.5 -26t-31.5 -74q0 -7 4 -33.5t4 -50.5q0 -56 -31 -92.5t-94 -36.5q-50 0 -82.5 35t-32.5 90q0 58 36 103t93 70.5t119 38.5t123 13q209 0 304.5 -68.5t94.5 -234.5zM866 1597
l-471 -479h-20l137 479h354z" />
    <glyph glyph-name="acircumflex" unicode="&#xe2;" horiz-adv-x="1036" 
d="M436 88q78 0 131 72v348q-118 -17 -179.5 -88.5t-61.5 -177.5q0 -69 28 -111.5t82 -42.5zM874 735l-4 -530q0 -103 72 -103q60 0 102 45l19 -10q-40 -90 -104 -126t-156 -36q-82 0 -146.5 38.5t-83.5 121.5q-48 -89 -115 -126.5t-161 -37.5q-129 0 -198.5 68.5
t-69.5 177.5q0 80 39.5 138t115 94t168 56t215.5 30v280q0 98 -27 142t-89 44q-52 0 -83.5 -26t-31.5 -74q0 -7 4 -33.5t4 -50.5q0 -56 -31 -92.5t-94 -36.5q-50 0 -82.5 35t-32.5 90q0 58 36 103t93 70.5t119 38.5t123 13q209 0 304.5 -68.5t94.5 -234.5zM498 1343
l-346 -225h-21l367 512l366 -512h-20z" />
    <glyph glyph-name="atilde" unicode="&#xe3;" horiz-adv-x="1036" 
d="M436 88q78 0 131 72v348q-118 -17 -179.5 -88.5t-61.5 -177.5q0 -69 28 -111.5t82 -42.5zM874 735l-4 -530q0 -103 72 -103q60 0 102 45l19 -10q-40 -90 -104 -126t-156 -36q-82 0 -146.5 38.5t-83.5 121.5q-48 -89 -115 -126.5t-161 -37.5q-129 0 -198.5 68.5
t-69.5 177.5q0 80 39.5 138t115 94t168 56t215.5 30v280q0 98 -27 142t-89 44q-52 0 -83.5 -26t-31.5 -74q0 -7 4 -33.5t4 -50.5q0 -56 -31 -92.5t-94 -36.5q-50 0 -82.5 35t-32.5 90q0 58 36 103t93 70.5t119 38.5t123 13q209 0 304.5 -68.5t94.5 -234.5zM776 1491l92 117
l15 -9l-97 -339h-528l-92 -117l-14 8l96 340h528z" />
    <glyph glyph-name="adieresis" unicode="&#xe4;" horiz-adv-x="1036" 
d="M436 88q78 0 131 72v348q-118 -17 -179.5 -88.5t-61.5 -177.5q0 -69 28 -111.5t82 -42.5zM874 735l-4 -530q0 -103 72 -103q60 0 102 45l19 -10q-40 -90 -104 -126t-156 -36q-82 0 -146.5 38.5t-83.5 121.5q-48 -89 -115 -126.5t-161 -37.5q-129 0 -198.5 68.5
t-69.5 177.5q0 80 39.5 138t115 94t168 56t215.5 30v280q0 98 -27 142t-89 44q-52 0 -83.5 -26t-31.5 -74q0 -7 4 -33.5t4 -50.5q0 -56 -31 -92.5t-94 -36.5q-50 0 -82.5 35t-32.5 90q0 58 36 103t93 70.5t119 38.5t123 13q209 0 304.5 -68.5t94.5 -234.5zM66 1366
q0 76 54 130t130 54t130 -54t54 -130t-54 -130t-130 -54t-130 54t-54 130zM557 1366q0 76 53.5 130t130.5 54t131 -54t54 -130t-54 -130t-131 -54t-130.5 54t-53.5 130z" />
    <glyph glyph-name="aring" unicode="&#xe5;" horiz-adv-x="1036" 
d="M436 88q78 0 131 72v348q-118 -17 -179.5 -88.5t-61.5 -177.5q0 -69 28 -111.5t82 -42.5zM874 735l-4 -530q0 -103 72 -103q60 0 102 45l19 -10q-40 -90 -104 -126t-156 -36q-82 0 -146.5 38.5t-83.5 121.5q-48 -89 -115 -126.5t-161 -37.5q-129 0 -198.5 68.5
t-69.5 177.5q0 80 39.5 138t115 94t168 56t215.5 30v280q0 98 -27 142t-89 44q-52 0 -83.5 -26t-31.5 -74q0 -7 4 -33.5t4 -50.5q0 -56 -31 -92.5t-94 -36.5q-50 0 -82.5 35t-32.5 90q0 58 36 103t93 70.5t119 38.5t123 13q209 0 304.5 -68.5t94.5 -234.5zM707 1399
q0 -84 -61 -142.5t-148 -58.5t-148 58.5t-61 142.5t61 142t148 58t148 -58t61 -142zM629 1399q0 58 -38.5 95.5t-92.5 37.5q-56 0 -92.5 -38.5t-36.5 -94.5t36.5 -94.5t92.5 -38.5q60 0 95.5 38t35.5 95z" />
    <glyph glyph-name="ae" unicode="&#xe6;" horiz-adv-x="1599" 
d="M569 535v282q0 94 -30 139t-99 45q-45 0 -71.5 -26t-26.5 -74q0 -7 4 -33.5t4 -50.5q0 -56 -31 -92.5t-94 -36.5q-50 0 -82 35t-32 90q0 57 34.5 102.5t88.5 71t111 38.5t110 13q229 0 319 -143q54 67 141 105t177 38q200 0 324 -120t145 -312h-682q-6 -240 85 -370
t255 -130q89 0 162.5 36t146.5 110l22 -16q-144 -265 -452 -265q-141 0 -254 50t-182 149q-41 -62 -86.5 -104t-91 -61.5t-82 -26.5t-78.5 -7q-137 0 -216 69t-79 177q0 64 27 114.5t73.5 85t116.5 59t147.5 38t175.5 21.5zM1092 995q-92 0 -146 -92t-65 -244h381
q6 155 -43.5 245.5t-126.5 90.5zM457 94q107 0 190 99q-78 127 -78 315q-123 -19 -183 -88t-60 -170q0 -78 36 -117t95 -39z" />
    <glyph glyph-name="ccedilla" unicode="&#xe7;" horiz-adv-x="1038" 
d="M580 -29q-8 0 -24 1t-24 1l-94 -141q62 45 133 45q62 0 105 -36.5t43 -96.5q0 -61 -36 -111t-92.5 -80t-119 -46.5t-121.5 -16.5l-2 12q93 16 149 86.5t56 139.5q0 35 -17.5 56t-48.5 21q-22 0 -59 -16l-49 39l98 152q-137 21 -234 98t-142.5 186t-45.5 240q0 167 74 290
t198 183.5t281 60.5q59 0 122.5 -10.5t124 -32t99.5 -60t39 -87.5q0 -44 -32.5 -74.5t-88.5 -30.5q-38 0 -66.5 13.5t-44.5 35t-28.5 47.5t-23 52t-23 47.5t-33.5 35t-49 13.5q-96 0 -158.5 -124.5t-62.5 -297.5q0 -92 16.5 -170.5t50.5 -143t93.5 -101.5t138.5 -37
q85 0 167.5 37t141.5 124l23 -14q-129 -289 -434 -289z" />
    <glyph glyph-name="egrave" unicode="&#xe8;" horiz-adv-x="1085" 
d="M1047 606h-664q-5 -98 12 -185.5t55 -157.5t106 -111t157 -41q91 0 172.5 44.5t134.5 116.5l22 -14q-144 -287 -444 -287q-249 0 -396 148t-147 397q0 221 151 371.5t384 150.5q102 0 185.5 -33.5t139 -93.5t89 -137t43.5 -168zM592 993q-62 0 -109 -49t-70.5 -123.5
t-25.5 -161.5h365q0 334 -160 334zM692 1118l-395 479h334l82 -479h-21z" />
    <glyph glyph-name="eacute" unicode="&#xe9;" horiz-adv-x="1085" 
d="M1047 606h-664q-5 -98 12 -185.5t55 -157.5t106 -111t157 -41q91 0 172.5 44.5t134.5 116.5l22 -14q-144 -287 -444 -287q-249 0 -396 148t-147 397q0 221 151 371.5t384 150.5q102 0 185.5 -33.5t139 -93.5t89 -137t43.5 -168zM592 993q-62 0 -109 -49t-70.5 -123.5
t-25.5 -161.5h365q0 334 -160 334zM899 1597l-471 -479h-20l137 479h354z" />
    <glyph glyph-name="ecircumflex" unicode="&#xea;" horiz-adv-x="1085" 
d="M1047 606h-664q-5 -98 12 -185.5t55 -157.5t106 -111t157 -41q91 0 172.5 44.5t134.5 116.5l22 -14q-144 -287 -444 -287q-249 0 -396 148t-147 397q0 221 151 371.5t384 150.5q102 0 185.5 -33.5t139 -93.5t89 -137t43.5 -168zM592 993q-62 0 -109 -49t-70.5 -123.5
t-25.5 -161.5h365q0 334 -160 334zM561 1343l-346 -225h-20l366 512l367 -512h-21z" />
    <glyph glyph-name="edieresis" unicode="&#xeb;" horiz-adv-x="1085" 
d="M1047 606h-664q-5 -98 12 -185.5t55 -157.5t106 -111t157 -41q91 0 172.5 44.5t134.5 116.5l22 -14q-144 -287 -444 -287q-249 0 -396 148t-147 397q0 221 151 371.5t384 150.5q102 0 185.5 -33.5t139 -93.5t89 -137t43.5 -168zM592 993q-62 0 -109 -49t-70.5 -123.5
t-25.5 -161.5h365q0 334 -160 334zM135 1366q0 76 53.5 130t130.5 54t131 -54t54 -130t-54 -130t-131 -54t-130.5 54t-53.5 130zM627 1366q0 76 53.5 130t130.5 54t130.5 -54t53.5 -130t-53.5 -130t-130.5 -54t-130.5 54t-53.5 130z" />
    <glyph glyph-name="igrave" unicode="&#xec;" horiz-adv-x="681" 
d="M195 158v667q0 42 -10.5 66t-46.5 39.5t-103 15.5v39h473v-823q0 -65 31.5 -94t128.5 -29v-39h-633v39q160 0 160 119zM487 1118l-395 479h334l82 -479h-21z" />
    <glyph glyph-name="iacute" unicode="&#xed;" horiz-adv-x="681" 
d="M195 158v667q0 42 -10.5 66t-46.5 39.5t-103 15.5v39h473v-823q0 -65 31.5 -94t128.5 -29v-39h-633v39q160 0 160 119zM606 1597l-471 -479h-20l137 479h354z" />
    <glyph glyph-name="icircumflex" unicode="&#xee;" horiz-adv-x="681" 
d="M195 158v667q0 42 -10.5 66t-46.5 39.5t-103 15.5v39h473v-823q0 -65 31.5 -94t128.5 -29v-39h-633v39q160 0 160 119zM322 1343l-347 -225h-20l367 512l366 -512h-20z" />
    <glyph glyph-name="idieresis" unicode="&#xef;" horiz-adv-x="681" 
d="M195 158v667q0 42 -10.5 66t-46.5 39.5t-103 15.5v39h473v-823q0 -65 31.5 -94t128.5 -29v-39h-633v39q160 0 160 119zM-88 1366q0 76 54 130t130 54q77 0 131 -54t54 -130t-54 -130t-131 -54q-76 0 -130 54t-54 130zM403 1366q0 76 54 130t131 54q76 0 130 -54t54 -130
t-54 -130t-130 -54q-77 0 -131 54t-54 130z" />
    <glyph glyph-name="eth" unicode="&#xf0;" horiz-adv-x="1200" 
d="M309 1165l-61 66l237 237q-149 152 -340 234l13 31q213 -67 407 -185l207 209l62 -63l-193 -193q252 -170 399.5 -399.5t147.5 -487.5q0 -293 -151.5 -468t-426.5 -175q-135 0 -248 42t-188.5 115t-117.5 171t-42 209q0 133 44.5 237.5t117.5 165.5t157.5 92t174.5 31
q194 0 315 -168q-93 317 -278 537zM598 932q-86 0 -143 -55.5t-81 -147t-24 -219.5q0 -218 69 -348.5t204 -130.5q66 0 114.5 43t74.5 116.5t38 156.5t12 179q0 169 -33 301q-41 47 -90 72t-77 29t-64 4z" />
    <glyph glyph-name="ntilde" unicode="&#xf1;" horiz-adv-x="1349" 
d="M1194 713v-559q0 -59 31.5 -87t128.5 -28v-39h-633v39q97 0 128.5 28t31.5 87v542q0 104 -43.5 155.5t-118.5 51.5q-81 0 -138 -55.5t-73 -134.5v-563q0 -37 10.5 -59t46.5 -37t103 -15v-39h-633v39q67 0 103 15t46.5 37t10.5 59v688q0 58 -31 83t-129 25v39h473v-213
q85 266 350 266q142 0 239 -82.5t97 -242.5zM954 1491l93 117l14 -9l-96 -339h-529l-92 -117l-14 8l96 340h528z" />
    <glyph glyph-name="ograve" unicode="&#xf2;" horiz-adv-x="1232" 
d="M55 502q0 232 153 381t408 149t408.5 -149.5t153.5 -380.5q0 -113 -39.5 -210.5t-111.5 -168.5t-178 -111.5t-233 -40.5q-255 0 -408 149t-153 382zM616 14q47 0 85 22t62.5 61.5t41.5 86.5t25.5 105t12 108.5t3.5 104.5q0 67 -5 127.5t-19.5 129t-39 117t-67 81
t-99.5 32.5q-56 0 -98.5 -31.5t-66.5 -80t-39 -116.5t-20 -129t-5 -130q0 -68 4.5 -128t19 -129t38.5 -117.5t67 -81t100 -32.5zM741 1118l-395 479h334l82 -479h-21z" />
    <glyph glyph-name="oacute" unicode="&#xf3;" horiz-adv-x="1232" 
d="M55 502q0 232 153 381t408 149t408.5 -149.5t153.5 -380.5q0 -113 -39.5 -210.5t-111.5 -168.5t-178 -111.5t-233 -40.5q-255 0 -408 149t-153 382zM616 14q47 0 85 22t62.5 61.5t41.5 86.5t25.5 105t12 108.5t3.5 104.5q0 67 -5 127.5t-19.5 129t-39 117t-67 81
t-99.5 32.5q-56 0 -98.5 -31.5t-66.5 -80t-39 -116.5t-20 -129t-5 -130q0 -68 4.5 -128t19 -129t38.5 -117.5t67 -81t100 -32.5zM965 1597l-471 -479h-21l137 479h355z" />
    <glyph glyph-name="ocircumflex" unicode="&#xf4;" horiz-adv-x="1232" 
d="M55 502q0 232 153 381t408 149t408.5 -149.5t153.5 -380.5q0 -113 -39.5 -210.5t-111.5 -168.5t-178 -111.5t-233 -40.5q-255 0 -408 149t-153 382zM616 14q47 0 85 22t62.5 61.5t41.5 86.5t25.5 105t12 108.5t3.5 104.5q0 67 -5 127.5t-19.5 129t-39 117t-67 81
t-99.5 32.5q-56 0 -98.5 -31.5t-66.5 -80t-39 -116.5t-20 -129t-5 -130q0 -68 4.5 -128t19 -129t38.5 -117.5t67 -81t100 -32.5zM616 1343l-346 -225h-20l366 512l367 -512h-20z" />
    <glyph glyph-name="otilde" unicode="&#xf5;" horiz-adv-x="1232" 
d="M55 502q0 232 153 381t408 149t408.5 -149.5t153.5 -380.5q0 -113 -39.5 -210.5t-111.5 -168.5t-178 -111.5t-233 -40.5q-255 0 -408 149t-153 382zM616 14q47 0 85 22t62.5 61.5t41.5 86.5t25.5 105t12 108.5t3.5 104.5q0 67 -5 127.5t-19.5 129t-39 117t-67 81
t-99.5 32.5q-56 0 -98.5 -31.5t-66.5 -80t-39 -116.5t-20 -129t-5 -130q0 -68 4.5 -128t19 -129t38.5 -117.5t67 -81t100 -32.5zM874 1491l93 117l14 -9l-96 -339h-529l-92 -117l-14 8l96 340h528z" />
    <glyph glyph-name="odieresis" unicode="&#xf6;" horiz-adv-x="1232" 
d="M55 502q0 232 153 381t408 149t408.5 -149.5t153.5 -380.5q0 -113 -39.5 -210.5t-111.5 -168.5t-178 -111.5t-233 -40.5q-255 0 -408 149t-153 382zM616 14q47 0 85 22t62.5 61.5t41.5 86.5t25.5 105t12 108.5t3.5 104.5q0 67 -5 127.5t-19.5 129t-39 117t-67 81
t-99.5 32.5q-56 0 -98.5 -31.5t-66.5 -80t-39 -116.5t-20 -129t-5 -130q0 -68 4.5 -128t19 -129t38.5 -117.5t67 -81t100 -32.5zM186 1366q0 76 54 130t131 54t130.5 -54t53.5 -130t-53.5 -130t-130.5 -54t-131 54t-54 130zM678 1366q0 76 54 130t130 54q77 0 131 -54
t54 -130t-54 -130t-131 -54q-76 0 -130 54t-54 130z" />
    <glyph glyph-name="divide" unicode="&#xf7;" horiz-adv-x="1101" 
d="M86 457v96h930v-96h-930zM342 838q0 83 59 141.5t142 58.5t141.5 -58.5t58.5 -141.5t-58.5 -142t-141.5 -59t-142 59t-59 142zM342 172q0 83 59 142t142 59t141.5 -59t58.5 -142t-58.5 -142t-141.5 -59t-142 59t-59 142z" />
    <glyph glyph-name="oslash" unicode="&#xf8;" horiz-adv-x="1232" 
d="M55 502q0 222 140 368.5t378 159.5v178h86v-178q236 -13 377.5 -160t141.5 -368t-141.5 -368.5t-377.5 -160.5v-184h-86v184q-238 12 -378 159t-140 370zM387 502q0 -439 186 -484v965q-186 -46 -186 -481zM846 502q0 78 -7.5 148t-26 144t-58 124.5t-95.5 64.5v-965
q45 12 79.5 49.5t54.5 86t32.5 112.5t16.5 120t4 116z" />
    <glyph glyph-name="ugrave" unicode="&#xf9;" horiz-adv-x="1306" 
d="M838 0v209q-44 -122 -128 -181t-188 -59q-190 0 -278 94t-88 261l2 510q0 57 -31.5 84.5t-128.5 27.5v39h469l-2 -663q0 -116 47.5 -177t120.5 -61q71 0 131 54.5t74 150.5v547q0 56 -31.5 83t-128.5 27v39h469v-835q0 -37 10.5 -59t46.5 -37t103 -15v-39h-469zM778 1118
l-395 479h334l82 -479h-21z" />
    <glyph glyph-name="uacute" unicode="&#xfa;" horiz-adv-x="1306" 
d="M838 0v209q-44 -122 -128 -181t-188 -59q-190 0 -278 94t-88 261l2 510q0 57 -31.5 84.5t-128.5 27.5v39h469l-2 -663q0 -116 47.5 -177t120.5 -61q71 0 131 54.5t74 150.5v547q0 56 -31.5 83t-128.5 27v39h469v-835q0 -37 10.5 -59t46.5 -37t103 -15v-39h-469zM981 1597
l-471 -479h-21l138 479h354z" />
    <glyph glyph-name="ucircumflex" unicode="&#xfb;" horiz-adv-x="1306" 
d="M838 0v209q-44 -122 -128 -181t-188 -59q-190 0 -278 94t-88 261l2 510q0 57 -31.5 84.5t-128.5 27.5v39h469l-2 -663q0 -116 47.5 -177t120.5 -61q71 0 131 54.5t74 150.5v547q0 56 -31.5 83t-128.5 27v39h469v-835q0 -37 10.5 -59t46.5 -37t103 -15v-39h-469zM653 1343
l-346 -225h-20l366 512l367 -512h-21z" />
    <glyph glyph-name="udieresis" unicode="&#xfc;" horiz-adv-x="1306" 
d="M838 0v209q-44 -122 -128 -181t-188 -59q-190 0 -278 94t-88 261l2 510q0 57 -31.5 84.5t-128.5 27.5v39h469l-2 -663q0 -116 47.5 -177t120.5 -61q71 0 131 54.5t74 150.5v547q0 56 -31.5 83t-128.5 27v39h469v-835q0 -37 10.5 -59t46.5 -37t103 -15v-39h-469zM223 1366
q0 76 54 130t131 54q76 0 130 -54t54 -130t-54 -130t-130 -54q-77 0 -131 54t-54 130zM715 1366q0 76 53.5 130t130.5 54t130.5 -54t53.5 -130t-53.5 -130t-130.5 -54t-130.5 54t-53.5 130z" />
    <glyph glyph-name="yacute" unicode="&#xfd;" horiz-adv-x="1038" 
d="M88 -612q-102 0 -178 50t-76 140q0 45 31.5 78t81.5 33q45 0 72 -21.5t37.5 -52.5t19 -62.5t26 -53t48.5 -21.5q20 0 37 6t41 24t49.5 60t50.5 106l118 306l-354 856q-25 62 -58 86t-114 24v39h598v-39q-75 0 -100.5 -17.5t-11.5 -56.5l198 -540l156 379q57 133 40.5 184
t-122.5 51v39h397v-39q-86 0 -133 -45t-94 -158l-461 -1097q-36 -86 -75.5 -141.5t-81 -79t-72 -30.5t-70.5 -7zM866 1597l-471 -479h-20l137 479h354z" />
    <glyph glyph-name="thorn" unicode="&#xfe;" horiz-adv-x="1333" 
d="M492 145v-596q0 -37 10 -58.5t46 -36.5t103 -15v-39h-633v39q97 0 128.5 27t31.5 83v1971q0 59 -31.5 86.5t-128.5 27.5v39h474v-803q59 93 134.5 132.5t178.5 39.5q206 0 337.5 -149.5t131.5 -376.5q0 -113 -31.5 -211.5t-90.5 -173t-150.5 -117.5t-204.5 -43
q-103 0 -176.5 41.5t-128.5 132.5zM674 102q129 0 200.5 112t71.5 302q0 189 -76 287t-204 98q-108 0 -174 -59v-664q64 -76 182 -76z" />
    <glyph glyph-name="ydieresis" unicode="&#xff;" horiz-adv-x="1038" 
d="M88 -612q-102 0 -178 50t-76 140q0 45 31.5 78t81.5 33q45 0 72 -21.5t37.5 -52.5t19 -62.5t26 -53t48.5 -21.5q20 0 37 6t41 24t49.5 60t50.5 106l118 306l-354 856q-25 62 -58 86t-114 24v39h598v-39q-75 0 -100.5 -17.5t-11.5 -56.5l198 -540l156 379q57 133 40.5 184
t-122.5 51v39h397v-39q-86 0 -133 -45t-94 -158l-461 -1097q-36 -86 -75.5 -141.5t-81 -79t-72 -30.5t-70.5 -7zM129 1366q0 76 53.5 130t130.5 54t131 -54t54 -130t-54 -130t-131 -54t-130.5 54t-53.5 130zM621 1366q0 76 53.5 130t130.5 54t130.5 -54t53.5 -130
t-53.5 -130t-130.5 -54t-130.5 54t-53.5 130z" />
    <glyph glyph-name="Amacron" unicode="&#x100;" horiz-adv-x="1671" 
d="M281 360l555 1387h22l606 -1561q31 -81 83 -112t141 -31v-43h-736v43q29 0 50 2t42.5 6.5t34.5 14.5t21.5 24.5t7 37.5t-11.5 52l-127 357h-537l-78 -197q-30 -75 -38.5 -130.5t0.5 -87t34.5 -50t54 -24t68.5 -5.5v-43h-489v43q40 0 65 4.5t55 22t55.5 51.5t56 92.5
t65.5 146.5zM719 1247l-230 -569h431zM487 1853v97h705v-97h-705z" />
    <glyph glyph-name="amacron" unicode="&#x101;" horiz-adv-x="1036" 
d="M436 88q78 0 131 72v348q-118 -17 -179.5 -88.5t-61.5 -177.5q0 -69 28 -111.5t82 -42.5zM874 735l-4 -530q0 -103 72 -103q60 0 102 45l19 -10q-40 -90 -104 -126t-156 -36q-82 0 -146.5 38.5t-83.5 121.5q-48 -89 -115 -126.5t-161 -37.5q-129 0 -198.5 68.5
t-69.5 177.5q0 80 39.5 138t115 94t168 56t215.5 30v280q0 98 -27 142t-89 44q-52 0 -83.5 -26t-31.5 -74q0 -7 4 -33.5t4 -50.5q0 -56 -31 -92.5t-94 -36.5q-50 0 -82.5 35t-32.5 90q0 58 36 103t93 70.5t119 38.5t123 13q209 0 304.5 -68.5t94.5 -234.5zM150 1288v96h704
v-96h-704z" />
    <glyph glyph-name="Abreve" unicode="&#x102;" horiz-adv-x="1671" 
d="M281 360l555 1387h22l606 -1561q31 -81 83 -112t141 -31v-43h-736v43q29 0 50 2t42.5 6.5t34.5 14.5t21.5 24.5t7 37.5t-11.5 52l-127 357h-537l-78 -197q-30 -75 -38.5 -130.5t0.5 -87t34.5 -50t54 -24t68.5 -5.5v-43h-489v43q40 0 65 4.5t55 22t55.5 51.5t56 92.5
t65.5 146.5zM719 1247l-230 -569h431zM1090 2120h90q-9 -82 -39 -144t-66 -96t-82.5 -55t-81.5 -27t-69 -6t-69 6t-81.5 27t-82.5 55t-66 96t-39 144h92q22 -119 85.5 -179.5t162.5 -60.5q97 0 161 61t85 179z" />
    <glyph glyph-name="abreve" unicode="&#x103;" horiz-adv-x="1036" 
d="M436 88q78 0 131 72v348q-118 -17 -179.5 -88.5t-61.5 -177.5q0 -69 28 -111.5t82 -42.5zM874 735l-4 -530q0 -103 72 -103q60 0 102 45l19 -10q-40 -90 -104 -126t-156 -36q-82 0 -146.5 38.5t-83.5 121.5q-48 -89 -115 -126.5t-161 -37.5q-129 0 -198.5 68.5
t-69.5 177.5q0 80 39.5 138t115 94t168 56t215.5 30v280q0 98 -27 142t-89 44q-52 0 -83.5 -26t-31.5 -74q0 -7 4 -33.5t4 -50.5q0 -56 -31 -92.5t-94 -36.5q-50 0 -82.5 35t-32.5 90q0 58 36 103t93 70.5t119 38.5t123 13q209 0 304.5 -68.5t94.5 -234.5zM760 1513h90
q-9 -82 -39 -144t-66 -95.5t-82.5 -54.5t-81.5 -27t-69 -6t-69 6t-81.5 27t-82.5 54.5t-66 95.5t-39 144h92q22 -119 85.5 -179t162.5 -60q97 0 161 60.5t85 178.5z" />
    <glyph glyph-name="Aogonek" unicode="&#x104;" horiz-adv-x="1671" 
d="M1470 -420l7 -16q-93 -60 -189 -60q-86 0 -147.5 43t-61.5 129q0 92 77 171t216 153h-420v43q29 0 50 2t42.5 6.5t34.5 14.5t21.5 24.5t7 37.5t-11.5 52l-127 357h-537l-78 -197q-30 -75 -38.5 -130.5t0.5 -87t34.5 -50t54 -24t68.5 -5.5v-43h-489v43q40 0 65 4.5t55 22
t55.5 51.5t56 92.5t65.5 146.5l555 1387h22l606 -1561q31 -81 83 -112t141 -31v-43h-293q-56 -41 -98 -119t-42 -151q0 -68 41 -115t107 -47q33 0 67 12zM719 1247l-230 -569h431z" />
    <glyph glyph-name="aogonek" unicode="&#x105;" horiz-adv-x="1036" 
d="M956 -422l7 -16q-93 -60 -189 -60q-86 0 -147.5 43t-61.5 129q0 160 252 301h-14q-82 0 -146.5 38.5t-83.5 121.5q-48 -89 -115 -126.5t-161 -37.5q-129 0 -198.5 68.5t-69.5 177.5q0 80 39.5 138t115 94t168 56t215.5 30v280q0 98 -27 142t-89 44q-52 0 -83.5 -26
t-31.5 -74q0 -7 4 -33.5t4 -50.5q0 -56 -31 -92.5t-94 -36.5q-50 0 -82.5 35t-32.5 90q0 58 36 103t93 70.5t119 38.5t123 13q209 0 304.5 -68.5t94.5 -234.5l-4 -530q0 -103 72 -103q60 0 102 45l19 -10q-65 -141 -207 -157q-48 -46 -81.5 -117t-33.5 -135q0 -68 41 -115
t107 -47q32 0 67 12zM436 88q78 0 131 72v348q-118 -17 -179.5 -88.5t-61.5 -177.5q0 -69 28 -111.5t82 -42.5z" />
    <glyph glyph-name="Cacute" unicode="&#x106;" horiz-adv-x="1738" 
d="M1663 569v-436q-298 -162 -664 -162q-201 0 -362.5 47.5t-268.5 128t-178.5 192t-103 234.5t-31.5 261q0 404 250.5 638t693.5 234q374 0 650 -129v-428h-27q-77 216 -250.5 352.5t-376.5 136.5q-101 0 -187 -29t-158.5 -92.5t-123.5 -157t-79.5 -229t-28.5 -303.5
q0 -196 42.5 -348t119 -247.5t180.5 -144t231 -48.5q233 0 401.5 136.5t241.5 393.5h29zM1421 2224l-471 -479h-20l137 479h354z" />
    <glyph glyph-name="cacute" unicode="&#x107;" horiz-adv-x="1038" 
d="M580 -29q-127 0 -229 43t-165.5 117t-97 169t-33.5 204q0 167 74 290t198 183.5t281 60.5q59 0 122.5 -10.5t124 -32t99.5 -60t39 -87.5q0 -44 -32.5 -74.5t-88.5 -30.5q-38 0 -66.5 13.5t-44.5 35t-28.5 47.5t-23 52t-23 47.5t-33.5 35t-49 13.5q-96 0 -158.5 -124.5
t-62.5 -297.5q0 -92 16.5 -170.5t50.5 -143t93.5 -101.5t138.5 -37q85 0 167.5 37t141.5 124l23 -14q-129 -289 -434 -289zM985 1597l-471 -479h-20l137 479h354z" />
    <glyph glyph-name="Ccircumflex" unicode="&#x108;" horiz-adv-x="1738" 
d="M1663 569v-436q-298 -162 -664 -162q-201 0 -362.5 47.5t-268.5 128t-178.5 192t-103 234.5t-31.5 261q0 404 250.5 638t693.5 234q374 0 650 -129v-428h-27q-77 216 -250.5 352.5t-376.5 136.5q-101 0 -187 -29t-158.5 -92.5t-123.5 -157t-79.5 -229t-28.5 -303.5
q0 -196 42.5 -348t119 -247.5t180.5 -144t231 -48.5q233 0 401.5 136.5t241.5 393.5h29zM989 1970l-346 -225h-20l366 512l367 -512h-21z" />
    <glyph glyph-name="ccircumflex" unicode="&#x109;" horiz-adv-x="1038" 
d="M580 -29q-127 0 -229 43t-165.5 117t-97 169t-33.5 204q0 167 74 290t198 183.5t281 60.5q59 0 122.5 -10.5t124 -32t99.5 -60t39 -87.5q0 -44 -32.5 -74.5t-88.5 -30.5q-38 0 -66.5 13.5t-44.5 35t-28.5 47.5t-23 52t-23 47.5t-33.5 35t-49 13.5q-96 0 -158.5 -124.5
t-62.5 -297.5q0 -92 16.5 -170.5t50.5 -143t93.5 -101.5t138.5 -37q85 0 167.5 37t141.5 124l23 -14q-129 -289 -434 -289zM563 1343l-346 -225h-20l366 512l367 -512h-21z" />
    <glyph glyph-name="Cdotaccent" unicode="&#x10a;" horiz-adv-x="1738" 
d="M1663 569v-436q-298 -162 -664 -162q-201 0 -362.5 47.5t-268.5 128t-178.5 192t-103 234.5t-31.5 261q0 404 250.5 638t693.5 234q374 0 650 -129v-428h-27q-77 216 -250.5 352.5t-376.5 136.5q-101 0 -187 -29t-158.5 -92.5t-123.5 -157t-79.5 -229t-28.5 -303.5
q0 -196 42.5 -348t119 -247.5t180.5 -144t231 -48.5q233 0 401.5 136.5t241.5 393.5h29zM807 1993q0 77 53.5 130.5t130.5 53.5t131 -54t54 -130q0 -77 -54 -131t-131 -54q-76 0 -130 54t-54 131z" />
    <glyph glyph-name="cdotaccent" unicode="&#x10b;" horiz-adv-x="1038" 
d="M580 -29q-127 0 -229 43t-165.5 117t-97 169t-33.5 204q0 167 74 290t198 183.5t281 60.5q59 0 122.5 -10.5t124 -32t99.5 -60t39 -87.5q0 -44 -32.5 -74.5t-88.5 -30.5q-38 0 -66.5 13.5t-44.5 35t-28.5 47.5t-23 52t-23 47.5t-33.5 35t-49 13.5q-96 0 -158.5 -124.5
t-62.5 -297.5q0 -92 16.5 -170.5t50.5 -143t93.5 -101.5t138.5 -37q85 0 167.5 37t141.5 124l23 -14q-129 -289 -434 -289zM412 1366q0 76 54 130t130 54t130 -54t54 -130t-54 -130t-130 -54t-130 54t-54 130z" />
    <glyph glyph-name="Ccaron" unicode="&#x10c;" horiz-adv-x="1738" 
d="M1663 569v-436q-298 -162 -664 -162q-201 0 -362.5 47.5t-268.5 128t-178.5 192t-103 234.5t-31.5 261q0 404 250.5 638t693.5 234q374 0 650 -129v-428h-27q-77 216 -250.5 352.5t-376.5 136.5q-101 0 -187 -29t-158.5 -92.5t-123.5 -157t-79.5 -229t-28.5 -303.5
q0 -196 42.5 -348t119 -247.5t180.5 -144t231 -48.5q233 0 401.5 136.5t241.5 393.5h29zM989 2032l346 225h21l-367 -512l-366 512h20z" />
    <glyph glyph-name="ccaron" unicode="&#x10d;" horiz-adv-x="1038" 
d="M580 -29q-127 0 -229 43t-165.5 117t-97 169t-33.5 204q0 167 74 290t198 183.5t281 60.5q59 0 122.5 -10.5t124 -32t99.5 -60t39 -87.5q0 -44 -32.5 -74.5t-88.5 -30.5q-38 0 -66.5 13.5t-44.5 35t-28.5 47.5t-23 52t-23 47.5t-33.5 35t-49 13.5q-96 0 -158.5 -124.5
t-62.5 -297.5q0 -92 16.5 -170.5t50.5 -143t93.5 -101.5t138.5 -37q85 0 167.5 37t141.5 124l23 -14q-129 -289 -434 -289zM596 1405l346 225h21l-367 -512l-367 512h21z" />
    <glyph glyph-name="Dcaron" unicode="&#x10e;" horiz-adv-x="1849" 
d="M586 1612v-1399q0 -37 2.5 -59.5t12 -41.5t22.5 -28t41.5 -15.5t61.5 -8t89 -1.5q103 0 191 26t165 85.5t131.5 149.5t85.5 225.5t31 306.5q0 176 -41.5 311.5t-109.5 218.5t-164 136.5t-195.5 73.5t-214.5 20h-108zM66 1673h690q510 0 764 -214.5t254 -610.5
q0 -189 -60 -344.5t-173.5 -267.5t-286.5 -174t-390 -62h-798v39h63q64 0 92.5 28t28.5 89v1362q0 60 -28.5 88t-92.5 28h-63v39zM846 2032l346 225h20l-366 -512l-367 512h21z" />
    <glyph glyph-name="dcaron" unicode="&#x10f;" horiz-adv-x="1441" 
d="M1331 0h-493v145q-56 -93 -131 -133.5t-181 -40.5q-112 0 -202.5 41.5t-148.5 114t-89 169.5t-31 210q0 150 60.5 272t173.5 193t258 71q191 0 291 -170v644q0 31 -6 50t-24 36t-55 24.5t-96 7.5v39h494v-1517q0 -30 6 -49t24 -36t55 -24.5t95 -7.5v-39zM664 901
q-127 0 -204 -102.5t-77 -292.5q0 -189 71.5 -296.5t200.5 -107.5q119 0 183 76v664q-68 59 -174 59zM1231 1485q0 71 48.5 121.5t121.5 50.5q75 0 122.5 -51.5t47.5 -135.5q0 -67 -32 -142t-94 -141t-140 -100l-5 13q39 31 67 99t28 124q-74 0 -119 45.5t-45 116.5z" />
    <glyph glyph-name="Dcroat" unicode="&#x110;" horiz-adv-x="1849" 
d="M-16 815v86h266v617q0 60 -28.5 88t-92.5 28h-63v39h690q510 0 764 -214.5t254 -610.5q0 -189 -60 -344.5t-173.5 -267.5t-286.5 -174t-390 -62h-798v39h63q64 0 92.5 28t28.5 89v659h-266zM586 1612v-711h327v-86h-327v-602q0 -37 2.5 -59.5t12 -41.5t22.5 -28
t41.5 -15.5t61.5 -8t89 -1.5q103 0 191 26t165 85.5t131.5 149.5t85.5 225.5t31 306.5q0 176 -41.5 311.5t-109.5 218.5t-164 136.5t-195.5 73.5t-214.5 20h-108z" />
    <glyph glyph-name="dcroat" unicode="&#x111;" horiz-adv-x="1331" 
d="M389 1266v53h449v197q0 31 -6 50t-24 36t-55 24.5t-96 7.5v39h494v-354h170v-53h-170v-1110q0 -30 6 -49t24 -36t55 -24.5t95 -7.5v-39h-493v145q-56 -93 -131 -133.5t-181 -40.5q-112 0 -202.5 41.5t-148.5 114t-89 169.5t-31 210q0 150 60.5 272t173.5 193t258 71
q191 0 291 -170v394h-449zM664 901q-127 0 -204 -102.5t-77 -292.5q0 -189 71.5 -296.5t200.5 -107.5q119 0 183 76v664q-68 59 -174 59z" />
    <glyph glyph-name="Emacron" unicode="&#x112;" horiz-adv-x="1482" 
d="M66 1673h1267v-430h-30q-11 68 -29 117t-55 96t-91 76.5t-139 47t-198 17.5h-205v-692h190q56 0 100 9.5t89 34.5t75 77t43 129h29v-573h-29q-12 74 -45 126t-78 78t-89.5 37t-94.5 11h-190v-646q0 -68 23.5 -90t88.5 -22h170q112 0 196.5 20.5t138 53.5t90.5 84.5
t54.5 105t28.5 123.5h31v-463h-1341v39q108 0 146 27t38 90v1362q0 63 -38 89.5t-146 26.5v39zM432 1853v97h705v-97h-705z" />
    <glyph glyph-name="emacron" unicode="&#x113;" horiz-adv-x="1085" 
d="M1047 606h-664q-5 -98 12 -185.5t55 -157.5t106 -111t157 -41q91 0 172.5 44.5t134.5 116.5l22 -14q-144 -287 -444 -287q-249 0 -396 148t-147 397q0 221 151 371.5t384 150.5q102 0 185.5 -33.5t139 -93.5t89 -137t43.5 -168zM592 993q-62 0 -109 -49t-70.5 -123.5
t-25.5 -161.5h365q0 334 -160 334zM240 1288v96h704v-96h-704z" />
    <glyph glyph-name="Ebreve" unicode="&#x114;" horiz-adv-x="1482" 
d="M66 1673h1267v-430h-30q-11 68 -29 117t-55 96t-91 76.5t-139 47t-198 17.5h-205v-692h190q56 0 100 9.5t89 34.5t75 77t43 129h29v-573h-29q-12 74 -45 126t-78 78t-89.5 37t-94.5 11h-190v-646q0 -68 23.5 -90t88.5 -22h170q112 0 196.5 20.5t138 53.5t90.5 84.5
t54.5 105t28.5 123.5h31v-463h-1341v39q108 0 146 27t38 90v1362q0 63 -38 89.5t-146 26.5v39zM1010 2120h90q-9 -82 -39 -144t-66 -96t-82.5 -55t-81.5 -27t-69 -6t-69 6t-81.5 27t-82.5 55t-66 96t-39 144h92q22 -119 85.5 -179.5t162.5 -60.5q97 0 161 61t85 179z" />
    <glyph glyph-name="ebreve" unicode="&#x115;" horiz-adv-x="1085" 
d="M1047 606h-664q-5 -98 12 -185.5t55 -157.5t106 -111t157 -41q91 0 172.5 44.5t134.5 116.5l22 -14q-144 -287 -444 -287q-249 0 -396 148t-147 397q0 221 151 371.5t384 150.5q102 0 185.5 -33.5t139 -93.5t89 -137t43.5 -168zM592 993q-62 0 -109 -49t-70.5 -123.5
t-25.5 -161.5h365q0 334 -160 334zM850 1513h90q-9 -82 -39 -144t-66 -95.5t-82.5 -54.5t-81.5 -27t-69 -6t-69 6t-81.5 27t-82.5 54.5t-66 95.5t-39 144h92q22 -119 85.5 -179t162.5 -60q97 0 161 60.5t85 178.5z" />
    <glyph glyph-name="Edotaccent" unicode="&#x116;" horiz-adv-x="1482" 
d="M66 1673h1267v-430h-30q-11 68 -29 117t-55 96t-91 76.5t-139 47t-198 17.5h-205v-692h190q56 0 100 9.5t89 34.5t75 77t43 129h29v-573h-29q-12 74 -45 126t-78 78t-89.5 37t-94.5 11h-190v-646q0 -68 23.5 -90t88.5 -22h170q112 0 196.5 20.5t138 53.5t90.5 84.5
t54.5 105t28.5 123.5h31v-463h-1341v39q108 0 146 27t38 90v1362q0 63 -38 89.5t-146 26.5v39zM600 1993q0 77 54 130.5t130 53.5q77 0 131 -54t54 -130q0 -77 -54.5 -131t-130.5 -54t-130 54t-54 131z" />
    <glyph glyph-name="edotaccent" unicode="&#x117;" horiz-adv-x="1085" 
d="M1047 606h-664q-5 -98 12 -185.5t55 -157.5t106 -111t157 -41q91 0 172.5 44.5t134.5 116.5l22 -14q-144 -287 -444 -287q-249 0 -396 148t-147 397q0 221 151 371.5t384 150.5q102 0 185.5 -33.5t139 -93.5t89 -137t43.5 -168zM592 993q-62 0 -109 -49t-70.5 -123.5
t-25.5 -161.5h365q0 334 -160 334zM389 1366q0 76 53.5 130t130.5 54t131 -54t54 -130t-54 -130t-131 -54t-130.5 54t-53.5 130z" />
    <glyph glyph-name="Eogonek" unicode="&#x118;" horiz-adv-x="1482" 
d="M961 -420l6 -16q-93 -60 -189 -60q-86 0 -147.5 43t-61.5 129q0 92 77 171t216 153h-796v39q108 0 146 27t38 90v1362q0 63 -38 89.5t-146 26.5v39h1267v-430h-30q-11 68 -29 117t-55 96t-91 76.5t-139 47t-198 17.5h-205v-692h190q56 0 100 9.5t89 34.5t75 77t43 129h29
v-573h-29q-12 74 -45 126t-78 78t-89.5 37t-94.5 11h-190v-646q0 -68 23.5 -90t88.5 -22h170q112 0 196.5 20.5t138 53.5t90.5 84.5t54.5 105t28.5 123.5h31v-463h-524q-55 -42 -96.5 -120t-41.5 -150q0 -68 41 -115t107 -47q33 0 68 12z" />
    <glyph glyph-name="eogonek" unicode="&#x119;" horiz-adv-x="1085" 
d="M739 -422l6 -16q-93 -60 -188 -60q-86 0 -147.5 43t-61.5 129q0 154 244 297q-246 1 -391.5 149t-145.5 396q0 221 151 371.5t384 150.5q102 0 185.5 -33.5t139 -93.5t89 -137t43.5 -168h-664q-5 -98 12 -185.5t55 -157.5t106 -111t157 -41q91 0 172.5 44.5t134.5 116.5
l22 -14q-137 -270 -409 -285q-46 -48 -77.5 -115.5t-31.5 -129.5q0 -68 41 -115t107 -47q32 0 67 12zM592 993q-62 0 -109 -49t-70.5 -123.5t-25.5 -161.5h365q0 334 -160 334z" />
    <glyph glyph-name="Ecaron" unicode="&#x11a;" horiz-adv-x="1482" 
d="M66 1673h1267v-430h-30q-11 68 -29 117t-55 96t-91 76.5t-139 47t-198 17.5h-205v-692h190q56 0 100 9.5t89 34.5t75 77t43 129h29v-573h-29q-12 74 -45 126t-78 78t-89.5 37t-94.5 11h-190v-646q0 -68 23.5 -90t88.5 -22h170q112 0 196.5 20.5t138 53.5t90.5 84.5
t54.5 105t28.5 123.5h31v-463h-1341v39q108 0 146 27t38 90v1362q0 63 -38 89.5t-146 26.5v39zM791 2032l346 225h20l-366 -512l-367 512h20z" />
    <glyph glyph-name="ecaron" unicode="&#x11b;" horiz-adv-x="1085" 
d="M1047 606h-664q-5 -98 12 -185.5t55 -157.5t106 -111t157 -41q91 0 172.5 44.5t134.5 116.5l22 -14q-144 -287 -444 -287q-249 0 -396 148t-147 397q0 221 151 371.5t384 150.5q102 0 185.5 -33.5t139 -93.5t89 -137t43.5 -168zM592 993q-62 0 -109 -49t-70.5 -123.5
t-25.5 -161.5h365q0 334 -160 334zM602 1405l346 225h21l-367 -512l-366 512h20z" />
    <glyph glyph-name="Gcircumflex" unicode="&#x11c;" horiz-adv-x="1867" 
d="M983 1706q363 0 639 -129v-428h-27q-77 218 -245.5 353.5t-370.5 135.5q-126 0 -227 -47t-176.5 -143.5t-116.5 -254t-41 -366.5q0 -390 149 -589t408 -199q44 0 76 1.5t75.5 7t74.5 16t64 30t53.5 46.5t34 67.5t13.5 91.5v295q0 33 -23.5 51.5t-58.5 18.5h-102v43h641
v-43h-60q-35 0 -58.5 -18.5t-23.5 -51.5v-277q0 -102 -101.5 -182.5t-259.5 -122t-337 -41.5q-201 0 -361 47.5t-264.5 128t-174 192.5t-99 234.5t-29.5 260.5q0 406 243.5 639t684.5 233zM969 1970l-346 -225h-21l367 512l366 -512h-20z" />
    <glyph glyph-name="gcircumflex" unicode="&#x11d;" horiz-adv-x="1196" 
d="M569 1030q103 0 201 -29h473v-65h-334q142 -101 142 -258q0 -151 -130.5 -251.5t-351.5 -100.5q-46 0 -71 4q-60 -12 -91.5 -45t-31.5 -76t29.5 -73t99.5 -30h149q74 0 131.5 -3.5t123.5 -13t113.5 -30t88 -51t61.5 -79t21 -111.5q0 -80 -37.5 -149t-101 -119t-146 -85.5
t-173.5 -53t-183 -17.5q-254 0 -405.5 83.5t-151.5 207.5q0 38 19 68.5t49.5 51.5t79 39t96 29t112.5 23q-241 30 -241 188q0 95 81 169.5t232 90.5q-156 33 -244 123.5t-88 210.5q0 151 129.5 251.5t349.5 100.5zM629 -111h-230q-85 -32 -120 -80t-35 -131q0 -79 47 -133.5
t113.5 -77t142.5 -22.5q55 0 99.5 4.5t92.5 20t80 41.5t53 71.5t21 106.5q0 104 -66 152t-198 48zM743 678q0 52 -8.5 102.5t-27 100t-54 80t-84.5 30.5q-46 0 -81 -30.5t-53.5 -80t-27 -100.5t-8.5 -102q0 -50 8.5 -100.5t27 -100.5t53.5 -81t81 -31q47 0 82.5 29.5
t54.5 78t28 100t9 105.5zM578 1343l-347 -225h-20l367 512l366 -512h-20z" />
    <glyph glyph-name="Gbreve" unicode="&#x11e;" horiz-adv-x="1867" 
d="M983 1706q363 0 639 -129v-428h-27q-77 218 -245.5 353.5t-370.5 135.5q-126 0 -227 -47t-176.5 -143.5t-116.5 -254t-41 -366.5q0 -390 149 -589t408 -199q44 0 76 1.5t75.5 7t74.5 16t64 30t53.5 46.5t34 67.5t13.5 91.5v295q0 33 -23.5 51.5t-58.5 18.5h-102v43h641
v-43h-60q-35 0 -58.5 -18.5t-23.5 -51.5v-277q0 -102 -101.5 -182.5t-259.5 -122t-337 -41.5q-201 0 -361 47.5t-264.5 128t-174 192.5t-99 234.5t-29.5 260.5q0 406 243.5 639t684.5 233zM1202 2120h90q-9 -82 -39 -144t-66 -96t-82.5 -55t-81.5 -27t-69 -6t-69 6t-81.5 27
t-82.5 55t-66 96t-39 144h93q22 -119 85 -179.5t162 -60.5q97 0 161 61t85 179z" />
    <glyph glyph-name="gbreve" unicode="&#x11f;" horiz-adv-x="1196" 
d="M569 1030q103 0 201 -29h473v-65h-334q142 -101 142 -258q0 -151 -130.5 -251.5t-351.5 -100.5q-46 0 -71 4q-60 -12 -91.5 -45t-31.5 -76t29.5 -73t99.5 -30h149q74 0 131.5 -3.5t123.5 -13t113.5 -30t88 -51t61.5 -79t21 -111.5q0 -80 -37.5 -149t-101 -119t-146 -85.5
t-173.5 -53t-183 -17.5q-254 0 -405.5 83.5t-151.5 207.5q0 38 19 68.5t49.5 51.5t79 39t96 29t112.5 23q-241 30 -241 188q0 95 81 169.5t232 90.5q-156 33 -244 123.5t-88 210.5q0 151 129.5 251.5t349.5 100.5zM629 -111h-230q-85 -32 -120 -80t-35 -131q0 -79 47 -133.5
t113.5 -77t142.5 -22.5q55 0 99.5 4.5t92.5 20t80 41.5t53 71.5t21 106.5q0 104 -66 152t-198 48zM743 678q0 52 -8.5 102.5t-27 100t-54 80t-84.5 30.5q-46 0 -81 -30.5t-53.5 -80t-27 -100.5t-8.5 -102q0 -50 8.5 -100.5t27 -100.5t53.5 -81t81 -31q47 0 82.5 29.5
t54.5 78t28 100t9 105.5zM825 1513h90q-9 -82 -39 -144t-66 -95.5t-82 -54.5t-81 -27t-69 -6t-69 6t-81.5 27t-82.5 54.5t-66 95.5t-39 144h92q22 -119 85.5 -179t162.5 -60q97 0 160.5 60.5t84.5 178.5z" />
    <glyph glyph-name="Gdotaccent" unicode="&#x120;" horiz-adv-x="1867" 
d="M983 1706q363 0 639 -129v-428h-27q-77 218 -245.5 353.5t-370.5 135.5q-126 0 -227 -47t-176.5 -143.5t-116.5 -254t-41 -366.5q0 -390 149 -589t408 -199q44 0 76 1.5t75.5 7t74.5 16t64 30t53.5 46.5t34 67.5t13.5 91.5v295q0 33 -23.5 51.5t-58.5 18.5h-102v43h641
v-43h-60q-35 0 -58.5 -18.5t-23.5 -51.5v-277q0 -102 -101.5 -182.5t-259.5 -122t-337 -41.5q-201 0 -361 47.5t-264.5 128t-174 192.5t-99 234.5t-29.5 260.5q0 406 243.5 639t684.5 233zM780 1993q0 76 54 130t131 54t130.5 -53.5t53.5 -130.5t-54 -131t-130 -54
q-77 0 -131 54t-54 131z" />
    <glyph glyph-name="gdotaccent" unicode="&#x121;" horiz-adv-x="1196" 
d="M569 1030q103 0 201 -29h473v-65h-334q142 -101 142 -258q0 -151 -130.5 -251.5t-351.5 -100.5q-46 0 -71 4q-60 -12 -91.5 -45t-31.5 -76t29.5 -73t99.5 -30h149q74 0 131.5 -3.5t123.5 -13t113.5 -30t88 -51t61.5 -79t21 -111.5q0 -80 -37.5 -149t-101 -119t-146 -85.5
t-173.5 -53t-183 -17.5q-254 0 -405.5 83.5t-151.5 207.5q0 38 19 68.5t49.5 51.5t79 39t96 29t112.5 23q-241 30 -241 188q0 95 81 169.5t232 90.5q-156 33 -244 123.5t-88 210.5q0 151 129.5 251.5t349.5 100.5zM629 -111h-230q-85 -32 -120 -80t-35 -131q0 -79 47 -133.5
t113.5 -77t142.5 -22.5q55 0 99.5 4.5t92.5 20t80 41.5t53 71.5t21 106.5q0 104 -66 152t-198 48zM743 678q0 52 -8.5 102.5t-27 100t-54 80t-84.5 30.5q-46 0 -81 -30.5t-53.5 -80t-27 -100.5t-8.5 -102q0 -50 8.5 -100.5t27 -100.5t53.5 -81t81 -31q47 0 82.5 29.5
t54.5 78t28 100t9 105.5zM414 1366q0 76 54 130t130 54t130 -54t54 -130t-54 -130t-130 -54t-130 54t-54 130z" />
    <glyph glyph-name="Gcommaaccent" unicode="&#x122;" horiz-adv-x="1867" 
d="M983 1706q363 0 639 -129v-428h-27q-77 218 -245.5 353.5t-370.5 135.5q-126 0 -227 -47t-176.5 -143.5t-116.5 -254t-41 -366.5q0 -390 149 -589t408 -199q44 0 76 1.5t75.5 7t74.5 16t64 30t53.5 46.5t34 67.5t13.5 91.5v295q0 33 -23.5 51.5t-58.5 18.5h-102v43h641
v-43h-60q-35 0 -58.5 -18.5t-23.5 -51.5v-277q0 -102 -101.5 -182.5t-259.5 -122t-337 -41.5q-201 0 -361 47.5t-264.5 128t-174 192.5t-99 234.5t-29.5 260.5q0 406 243.5 639t684.5 233zM786 -244q0 71 48.5 121.5t121.5 50.5q76 0 123 -51t47 -135q0 -67 -32 -142
t-94 -141t-140 -100l-4 12q39 31 66.5 99t27.5 124q-74 0 -119 45.5t-45 116.5z" />
    <glyph glyph-name="gcommaaccent" unicode="&#x123;" horiz-adv-x="1196" 
d="M758 1260q0 -72 -48.5 -122.5t-121.5 -50.5q-75 0 -122.5 51.5t-47.5 135.5q0 67 32 142t94 141t140 100l4 -12q-39 -31 -66.5 -99.5t-27.5 -124.5q74 0 119 -45t45 -116zM569 1030q103 0 201 -29h473v-65h-334q142 -101 142 -258q0 -151 -130.5 -251.5t-351.5 -100.5
q-46 0 -71 4q-60 -12 -91.5 -45t-31.5 -76t29.5 -73t99.5 -30h149q74 0 131.5 -3.5t123.5 -13t113.5 -30t88 -51t61.5 -79t21 -111.5q0 -80 -37.5 -149t-101 -119t-146 -85.5t-173.5 -53t-183 -17.5q-254 0 -405.5 83.5t-151.5 207.5q0 38 19 68.5t49.5 51.5t79 39t96 29
t112.5 23q-241 30 -241 188q0 95 81 169.5t232 90.5q-156 33 -244 123.5t-88 210.5q0 151 129.5 251.5t349.5 100.5zM629 -111h-230q-85 -32 -120 -80t-35 -131q0 -79 47 -133.5t113.5 -77t142.5 -22.5q55 0 99.5 4.5t92.5 20t80 41.5t53 71.5t21 106.5q0 104 -66 152
t-198 48zM743 678q0 52 -8.5 102.5t-27 100t-54 80t-84.5 30.5q-46 0 -81 -30.5t-53.5 -80t-27 -100.5t-8.5 -102q0 -50 8.5 -100.5t27 -100.5t53.5 -81t81 -31q47 0 82.5 29.5t54.5 78t28 100t9 105.5z" />
    <glyph glyph-name="Hcircumflex" unicode="&#x124;" horiz-adv-x="1892" 
d="M1307 156v678h-721v-678q0 -63 38 -90t146 -27v-39h-704v39q108 0 146 27t38 90v1362q0 63 -38 89.5t-146 26.5v39h704v-39q-108 0 -146 -26.5t-38 -89.5v-598h721v598q0 63 -38.5 89.5t-146.5 26.5v39h705v-39q-108 0 -146.5 -26.5t-38.5 -89.5v-1362q0 -63 38.5 -90
t146.5 -27v-39h-705v39q108 0 146.5 27t38.5 90zM948 1970l-346 -225h-20l366 512l367 -512h-21z" />
    <glyph glyph-name="hcircumflex" unicode="&#x125;" horiz-adv-x="1341" 
d="M834 1343l-265 -225h-20l285 512l305 -512h-21zM1186 713v-551q0 -65 31.5 -94t128.5 -29v-39h-633v39q97 0 128 28.5t31 90.5v538q0 104 -44 155.5t-119 51.5q-81 0 -138 -55.5t-73 -134.5v-551q0 -65 31 -94t128 -29v-39h-632v39q97 0 128 28.5t31 90.5v1360
q0 61 -31 88.5t-128 27.5v39h473v-901q85 266 340 266q67 0 128 -19.5t111 -57.5t79.5 -102t29.5 -146z" />
    <glyph glyph-name="Hbar" unicode="&#x126;" horiz-adv-x="1892" 
d="M66 1237v86h184v195q0 63 -38 89.5t-146 26.5v39h704v-39q-108 0 -146 -26.5t-38 -89.5v-195h721v195q0 63 -38.5 89.5t-146.5 26.5v39h705v-39q-108 0 -146.5 -26.5t-38.5 -89.5v-195h185v-86h-185v-1081q0 -63 38.5 -90t146.5 -27v-39h-705v39q108 0 146.5 27t38.5 90
v678h-721v-678q0 -63 38 -90t146 -27v-39h-704v39q108 0 146 27t38 90v1081h-184zM586 920h721v317h-721v-317z" />
    <glyph glyph-name="hbar" unicode="&#x127;" horiz-adv-x="1341" 
d="M25 1266v53h159v199q0 61 -31 88.5t-128 27.5v39h473v-354h417v-53h-417v-494q85 266 340 266q67 0 128 -19.5t111 -57.5t79.5 -102t29.5 -146v-551q0 -65 31.5 -94t128.5 -29v-39h-633v39q97 0 128 28.5t31 90.5v538q0 104 -44 155.5t-119 51.5q-81 0 -138 -55.5
t-73 -134.5v-551q0 -65 31 -94t128 -29v-39h-632v39q97 0 128 28.5t31 90.5v1108h-159z" />
    <glyph glyph-name="Itilde" unicode="&#x128;" horiz-adv-x="835" 
d="M752 2128l92 117l14 -9l-96 -350h-590l-92 -117l-14 9l96 350h590zM250 156v1362q0 63 -38 89.5t-146 26.5v39h704v-39q-108 0 -146 -26.5t-38 -89.5v-1362q0 -63 38 -90t146 -27v-39h-704v39q108 0 146 27t38 90z" />
    <glyph glyph-name="itilde" unicode="&#x129;" horiz-adv-x="681" 
d="M195 158v667q0 42 -10.5 66t-46.5 39.5t-103 15.5v39h473v-823q0 -65 31.5 -94t128.5 -29v-39h-633v39q160 0 160 119zM584 1491l92 117l14 -9l-96 -339h-528l-93 -117l-14 8l96 340h529z" />
    <glyph glyph-name="Imacron" unicode="&#x12a;" horiz-adv-x="835" 
d="M72 1874v96h698v-96h-698zM250 156v1362q0 63 -38 89.5t-146 26.5v39h704v-39q-108 0 -146 -26.5t-38 -89.5v-1362q0 -63 38 -90t146 -27v-39h-704v39q108 0 146 27t38 90z" />
    <glyph glyph-name="imacron" unicode="&#x12b;" horiz-adv-x="681" 
d="M4 1288v96h643v-96h-643zM195 158v667q0 42 -10.5 66t-46.5 39.5t-103 15.5v39h473v-823q0 -65 31.5 -94t128.5 -29v-39h-633v39q160 0 160 119z" />
    <glyph glyph-name="Ibreve" unicode="&#x12c;" horiz-adv-x="835" 
d="M250 156v1362q0 63 -38 89.5t-146 26.5v39h704v-39q-108 0 -146 -26.5t-38 -89.5v-1362q0 -63 38 -90t146 -27v-39h-704v39q108 0 146 27t38 90zM664 2120h90q-9 -82 -39 -144t-66 -96t-82.5 -55t-81.5 -27t-69 -6t-69 6t-81.5 27t-82.5 55t-66 96t-39 144h92
q22 -119 85.5 -179.5t162.5 -60.5q97 0 161 61t85 179z" />
    <glyph glyph-name="ibreve" unicode="&#x12d;" horiz-adv-x="681" 
d="M195 158v667q0 42 -10.5 66t-46.5 39.5t-103 15.5v39h473v-823q0 -65 31.5 -94t128.5 -29v-39h-633v39q160 0 160 119zM580 1513h90q-9 -82 -39 -144t-66 -95.5t-82.5 -54.5t-81.5 -27t-69 -6t-69 6t-81.5 27t-82.5 54.5t-66 95.5t-39 144h92q22 -119 85.5 -179
t162.5 -60q97 0 161 60.5t85 178.5z" />
    <glyph glyph-name="Iogonek" unicode="&#x12e;" horiz-adv-x="835" 
d="M575 -420l7 -16q-93 -60 -189 -60q-86 0 -147.5 43t-61.5 129q0 92 77 171t216 153h-411v39q108 0 146 27t38 90v1362q0 63 -38 89.5t-146 26.5v39h704v-39q-108 0 -146 -26.5t-38 -89.5v-1362q0 -63 38 -90t146 -27v-39h-272q-55 -42 -96.5 -120t-41.5 -150
q0 -68 41 -115t107 -47q32 0 67 12z" />
    <glyph glyph-name="iogonek" unicode="&#x12f;" horiz-adv-x="681" 
d="M489 -420l7 -16q-93 -60 -189 -60q-86 0 -147.5 43t-61.5 129q0 92 77 171t216 153h-356v39q160 0 160 119v667q0 42 -10.5 66t-46.5 39.5t-103 15.5v39h473v-823q0 -65 31.5 -94t128.5 -29v-39h-256q-55 -42 -96.5 -120t-41.5 -150q0 -68 41 -115t107 -47q32 0 67 12z
M162 1473q0 83 58.5 141.5t141.5 58.5t142 -58.5t59 -141.5t-59 -142t-142 -59t-141.5 59t-58.5 142z" />
    <glyph glyph-name="Idotaccent" unicode="&#x130;" horiz-adv-x="835" 
d="M250 156v1362q0 63 -38 89.5t-146 26.5v39h704v-39q-108 0 -146 -26.5t-38 -89.5v-1362q0 -63 38 -90t146 -27v-39h-704v39q108 0 146 27t38 90zM242 1993q0 77 54 130.5t130 53.5t130 -53.5t54 -130.5t-54 -131t-130 -54t-130 54t-54 131z" />
    <glyph glyph-name="dotlessi" unicode="&#x131;" horiz-adv-x="681" 
d="M195 158v667q0 42 -10.5 66t-46.5 39.5t-103 15.5v39h473v-823q0 -65 31.5 -94t128.5 -29v-39h-633v39q160 0 160 119z" />
    <glyph glyph-name="Jcircumflex" unicode="&#x134;" horiz-adv-x="1026" 
d="M657 1970l-346 -225h-20l366 512l367 -512h-20zM829 1518v-908q0 -76 -3 -134t-13.5 -128t-29 -121t-51.5 -102t-79 -82.5t-113.5 -51.5t-152.5 -20q-190 0 -296.5 56.5t-106.5 150.5q0 65 43.5 103t105.5 38q55 0 94.5 -32t60.5 -77.5t37 -90.5t34 -77t42 -32
q57 0 75 129t18 471v908q0 63 -38.5 89.5t-146.5 26.5v39h705v-39q-108 0 -146.5 -26.5t-38.5 -89.5z" />
    <glyph glyph-name="jcircumflex" unicode="&#x135;" horiz-adv-x="645" 
d="M297 1343l-346 -225h-21l367 512l367 -512h-21zM492 985v-913q0 -66 -7.5 -124.5t-26.5 -123.5t-53.5 -125.5t-85 -122.5t-125.5 -123t-171 -119l-9 19q44 46 76 116.5t48.5 139t26 159.5t11.5 155t2 149v757q0 61 -31.5 89t-128.5 28v39h474z" />
    <glyph glyph-name="Kcommaaccent" unicode="&#x136;" horiz-adv-x="1775" 
d="M250 156v1362q0 63 -38 89.5t-146 26.5v39h704v-39q-108 0 -146 -26.5t-38 -89.5v-682l604 639q38 40 50.5 76.5t-16 60.5t-102.5 18v43h549v-43q-96 0 -205.5 -49t-195.5 -139l-406 -428l721 -905q54 -66 227 -66v-43h-763v43q120 0 131 11q7 7 -9 26l-585 741v-665
q0 -63 38 -90t146 -27v-39h-704v39q108 0 146 27t38 90zM725 -244q0 71 48.5 121.5t121.5 50.5q76 0 123 -51t47 -135q0 -67 -32 -142t-94 -141t-140 -100l-4 12q39 31 66.5 99t27.5 124q-74 0 -119 45.5t-45 116.5z" />
    <glyph glyph-name="kcommaaccent" unicode="&#x137;" horiz-adv-x="1349" 
d="M498 502v-367q0 -96 96 -96h63v-39h-632v39h63q96 0 96 96v1385q0 59 -31 86.5t-128 27.5v39h473v-1147l290 242q36 30 59.5 53.5t36.5 47t6 39t-39 25t-91 9.5v43h497v-43q-46 0 -78 -2.5t-66 -14t-55 -21t-60 -38t-65 -50.5t-85 -73l-96 -84l403 -512
q48 -61 101.5 -82.5t144.5 -21.5v-43h-658v43h66q43 0 12 45zM520 -244q0 71 48.5 121.5t121.5 50.5q76 0 123 -51t47 -135q0 -67 -32 -142t-94 -141t-140 -100l-4 12q39 31 66.5 99t27.5 124q-74 0 -119 45.5t-45 116.5z" />
    <glyph glyph-name="Lacute" unicode="&#x139;" horiz-adv-x="1492" 
d="M1427 0h-1361v39q108 0 146 27t38 90v1362q0 63 -38 89.5t-146 26.5v39h745v-39q-125 0 -175 -27t-50 -89v-1330q0 -68 23.5 -90t88.5 -22h191q111 0 196.5 22.5t138.5 58t90 91t54.5 110t28.5 125.5h30v-483zM887 2224l-471 -479h-21l137 479h355z" />
    <glyph glyph-name="lacute" unicode="&#x13a;" horiz-adv-x="661" 
d="M688 2216l-471 -479h-20l137 479h354zM184 162v1358q0 59 -31 86.5t-128 27.5v39h473v-1511q0 -65 31 -94t128 -29v-39h-632v39q97 0 128 29t31 94z" />
    <glyph glyph-name="Lcommaaccent" unicode="&#x13b;" horiz-adv-x="1492" 
d="M1427 0h-1361v39q108 0 146 27t38 90v1362q0 63 -38 89.5t-146 26.5v39h745v-39q-125 0 -175 -27t-50 -89v-1330q0 -68 23.5 -90t88.5 -22h191q111 0 196.5 22.5t138.5 58t90 91t54.5 110t28.5 125.5h30v-483zM633 -244q0 71 48.5 121.5t121.5 50.5q76 0 123 -51t47 -135
q0 -67 -32 -142t-94 -141t-140 -100l-5 12q39 31 67 99t28 124q-74 0 -119 45.5t-45 116.5z" />
    <glyph glyph-name="lcommaaccent" unicode="&#x13c;" horiz-adv-x="661" 
d="M184 162v1358q0 59 -31 86.5t-128 27.5v39h473v-1511q0 -65 31 -94t128 -29v-39h-632v39q97 0 128 29t31 94zM164 -244q0 71 48.5 121.5t121.5 50.5q76 0 123 -51t47 -135q0 -67 -32 -142t-94 -141t-140 -100l-5 12q39 31 67 99t28 124q-74 0 -119 45.5t-45 116.5z" />
    <glyph glyph-name="Lcaron" unicode="&#x13d;" horiz-adv-x="1492" 
d="M1427 0h-1361v39q108 0 146 27t38 90v1362q0 63 -38 89.5t-146 26.5v39h745v-39q-125 0 -175 -27t-50 -89v-1330q0 -68 23.5 -90t88.5 -22h191q111 0 196.5 22.5t138.5 58t90 91t54.5 110t28.5 125.5h30v-483zM907 1485q0 71 48.5 121.5t121.5 50.5q75 0 122.5 -51.5
t47.5 -135.5q0 -67 -32 -142t-94 -141t-140 -100l-4 13q39 31 66.5 99t27.5 124q-74 0 -119 45.5t-45 116.5z" />
    <glyph glyph-name="lcaron" unicode="&#x13e;" horiz-adv-x="772" 
d="M184 162v1358q0 59 -31 86.5t-128 27.5v39h473v-1511q0 -65 31 -94t128 -29v-39h-632v39q97 0 128 29t31 94zM561 1485q0 71 48.5 121.5t121.5 50.5q75 0 122.5 -51.5t47.5 -135.5q0 -67 -32 -142t-94 -141t-140 -100l-4 13q39 31 66.5 99t27.5 124q-74 0 -119 45.5
t-45 116.5z" />
    <glyph glyph-name="Ldot" unicode="&#x13f;" horiz-adv-x="1492" 
d="M1427 0h-1361v39q108 0 146 27t38 90v1362q0 63 -38 89.5t-146 26.5v39h745v-39q-125 0 -175 -27t-50 -89v-1330q0 -68 23.5 -90t88.5 -22h191q111 0 196.5 22.5t138.5 58t90 91t54.5 110t28.5 125.5h30v-483zM954 836q0 76 54 130t131 54t130.5 -54t53.5 -130
q0 -77 -54 -131t-130 -54q-77 0 -131 54.5t-54 130.5z" />
    <glyph glyph-name="ldot" unicode="&#x140;" horiz-adv-x="776" 
d="M543 774q0 76 53.5 130t130.5 54t130.5 -54t53.5 -130t-53.5 -130t-130.5 -54t-130.5 54t-53.5 130zM184 162v1358q0 59 -31 86.5t-128 27.5v39h473v-1511q0 -65 31 -94t128 -29v-39h-632v39q97 0 128 29t31 94z" />
    <glyph glyph-name="Lslash" unicode="&#x141;" horiz-adv-x="1492" 
d="M25 553l-43 80l268 155v730q0 63 -38 89.5t-146 26.5v39h745v-39q-125 0 -175 -27t-50 -89v-535l266 154l41 -80l-307 -178v-691q0 -68 23.5 -90t88.5 -22h191q111 0 196.5 22.5t138.5 58t90 91t54.5 110t28.5 125.5h30v-483h-1361v39q108 0 146 27t38 90v528z" />
    <glyph glyph-name="lslash" unicode="&#x142;" horiz-adv-x="681" 
d="M-2 578l-43 79l229 134v729q0 59 -31 86.5t-128 27.5v39h473v-700l200 117l43 -78l-243 -144v-706q0 -65 31 -94t128 -29v-39h-632v39q97 0 128 29t31 94v524z" />
    <glyph glyph-name="Nacute" unicode="&#x143;" horiz-adv-x="1792" 
d="M1559 -29h-66l-1108 1387v-1059q0 -260 221 -260v-39h-536v39q116 0 172.5 67.5t56.5 192.5v1145q0 82 -52.5 129.5t-140.5 52.5l-40 2v45h546l861 -1098v811q0 119 -54.5 183.5t-167.5 64.5v39h537v-39q-115 0 -172 -65.5t-57 -182.5v-1415zM1348 2224l-471 -479h-21
l137 479h355z" />
    <glyph glyph-name="nacute" unicode="&#x144;" horiz-adv-x="1349" 
d="M1194 713v-559q0 -59 31.5 -87t128.5 -28v-39h-633v39q97 0 128.5 28t31.5 87v542q0 104 -43.5 155.5t-118.5 51.5q-81 0 -138 -55.5t-73 -134.5v-563q0 -37 10.5 -59t46.5 -37t103 -15v-39h-633v39q67 0 103 15t46.5 37t10.5 59v688q0 58 -31 83t-129 25v39h473v-213
q85 266 350 266q142 0 239 -82.5t97 -242.5zM1042 1597l-471 -479h-20l137 479h354z" />
    <glyph glyph-name="Ncommaaccent" unicode="&#x145;" horiz-adv-x="1792" 
d="M1559 -29h-66l-1108 1387v-1059q0 -260 221 -260v-39h-536v39q116 0 172.5 67.5t56.5 192.5v1145q0 82 -52.5 129.5t-140.5 52.5l-40 2v45h546l861 -1098v811q0 119 -54.5 183.5t-167.5 64.5v39h537v-39q-115 0 -172 -65.5t-57 -182.5v-1415zM786 -244q0 71 48.5 121.5
t121.5 50.5q76 0 123 -51t47 -135q0 -67 -32 -142t-94 -141t-140 -100l-4 12q39 31 66.5 99t27.5 124q-74 0 -119 45.5t-45 116.5z" />
    <glyph glyph-name="ncommaaccent" unicode="&#x146;" horiz-adv-x="1349" 
d="M1194 713v-559q0 -59 31.5 -87t128.5 -28v-39h-633v39q97 0 128.5 28t31.5 87v542q0 104 -43.5 155.5t-118.5 51.5q-81 0 -138 -55.5t-73 -134.5v-563q0 -37 10.5 -59t46.5 -37t103 -15v-39h-633v39q67 0 103 15t46.5 37t10.5 59v688q0 58 -31 83t-129 25v39h473v-213
q85 266 350 266q142 0 239 -82.5t97 -242.5zM520 -244q0 71 48.5 121.5t121.5 50.5q76 0 123 -51t47 -135q0 -67 -32 -142t-94 -141t-140 -100l-4 12q39 31 66.5 99t27.5 124q-74 0 -119 45.5t-45 116.5z" />
    <glyph glyph-name="Ncaron" unicode="&#x147;" horiz-adv-x="1792" 
d="M1559 -29h-66l-1108 1387v-1059q0 -260 221 -260v-39h-536v39q116 0 172.5 67.5t56.5 192.5v1145q0 82 -52.5 129.5t-140.5 52.5l-40 2v45h546l861 -1098v811q0 119 -54.5 183.5t-167.5 64.5v39h537v-39q-115 0 -172 -65.5t-57 -182.5v-1415zM952 2032l346 225h21
l-367 -512l-366 512h20z" />
    <glyph glyph-name="ncaron" unicode="&#x148;" horiz-adv-x="1349" 
d="M1194 713v-559q0 -59 31.5 -87t128.5 -28v-39h-633v39q97 0 128.5 28t31.5 87v542q0 104 -43.5 155.5t-118.5 51.5q-81 0 -138 -55.5t-73 -134.5v-563q0 -37 10.5 -59t46.5 -37t103 -15v-39h-633v39q67 0 103 15t46.5 37t10.5 59v688q0 58 -31 83t-129 25v39h473v-213
q85 266 350 266q142 0 239 -82.5t97 -242.5zM653 1405l346 225h21l-367 -512l-366 512h20z" />
    <glyph glyph-name="Eng" unicode="&#x14a;" horiz-adv-x="1792" 
d="M1559 72q0 -66 -7.5 -124.5t-26.5 -123.5t-53.5 -125.5t-85 -122.5t-125.5 -123t-171 -119l-9 19q72 76 120.5 208t66.5 258.5t18 252.5v157l-901 1129v-1059q0 -260 221 -260v-39h-536v39q116 0 172.5 67.5t56.5 192.5v1145q0 82 -52.5 129.5t-140.5 52.5l-40 2v45h546
l861 -1098v811q0 119 -54.5 183.5t-167.5 64.5v39h537v-39q-115 0 -172 -65.5t-57 -182.5v-1314z" />
    <glyph glyph-name="eng" unicode="&#x14b;" horiz-adv-x="1331" 
d="M881 72v624q0 104 -43.5 155.5t-118.5 51.5q-81 0 -138 -55.5t-73 -134.5v-563q0 -37 10.5 -59t46.5 -37t103 -15v-39h-633v39q67 0 103 15t46.5 37t10.5 59v688q0 58 -31 83t-129 25v39h473v-213q85 266 350 266q142 0 239 -82.5t97 -242.5v-641q0 -66 -7.5 -124.5
t-26.5 -123.5t-53.5 -125.5t-85 -122.5t-125.5 -123t-171 -119l-8 19q44 46 76 116.5t48.5 139t26 159.5t11.5 155t2 149z" />
    <glyph glyph-name="Omacron" unicode="&#x14c;" horiz-adv-x="1886" 
d="M1468 842q0 212 -40 370t-112 251.5t-165 138.5t-207 45q-91 0 -168.5 -27.5t-144 -89t-113.5 -153.5t-73.5 -228t-26.5 -307q0 -211 40 -369.5t112.5 -253.5t166 -141.5t207.5 -46.5q90 0 167.5 28.5t144 91t113 156t73 229.5t26.5 306zM1831 836q0 -261 -112 -458
t-312.5 -302t-462.5 -105q-196 0 -361.5 63t-281.5 176.5t-181 277.5t-65 360q0 197 65 358t181.5 271t281 169.5t361.5 59.5q261 0 462 -106t313 -304.5t112 -459.5zM588 1853v97h704v-97h-704z" />
    <glyph glyph-name="omacron" unicode="&#x14d;" horiz-adv-x="1232" 
d="M55 502q0 232 153 381t408 149t408.5 -149.5t153.5 -380.5q0 -113 -39.5 -210.5t-111.5 -168.5t-178 -111.5t-233 -40.5q-255 0 -408 149t-153 382zM616 14q47 0 85 22t62.5 61.5t41.5 86.5t25.5 105t12 108.5t3.5 104.5q0 67 -5 127.5t-19.5 129t-39 117t-67 81
t-99.5 32.5q-56 0 -98.5 -31.5t-66.5 -80t-39 -116.5t-20 -129t-5 -130q0 -68 4.5 -128t19 -129t38.5 -117.5t67 -81t100 -32.5zM264 1288v96h705v-96h-705z" />
    <glyph glyph-name="Obreve" unicode="&#x14e;" horiz-adv-x="1886" 
d="M1468 842q0 212 -40 370t-112 251.5t-165 138.5t-207 45q-91 0 -168.5 -27.5t-144 -89t-113.5 -153.5t-73.5 -228t-26.5 -307q0 -211 40 -369.5t112.5 -253.5t166 -141.5t207.5 -46.5q90 0 167.5 28.5t144 91t113 156t73 229.5t26.5 306zM1831 836q0 -261 -112 -458
t-312.5 -302t-462.5 -105q-196 0 -361.5 63t-281.5 176.5t-181 277.5t-65 360q0 197 65 358t181.5 271t281 169.5t361.5 59.5q261 0 462 -106t313 -304.5t112 -459.5zM1192 2120h90q-9 -82 -39 -144t-66 -96t-82.5 -55t-81.5 -27t-69 -6t-69 6t-81.5 27t-82.5 55t-66 96
t-39 144h92q22 -119 85.5 -179.5t162.5 -60.5q97 0 161 61t85 179z" />
    <glyph glyph-name="obreve" unicode="&#x14f;" horiz-adv-x="1232" 
d="M55 502q0 232 153 381t408 149t408.5 -149.5t153.5 -380.5q0 -113 -39.5 -210.5t-111.5 -168.5t-178 -111.5t-233 -40.5q-255 0 -408 149t-153 382zM616 14q47 0 85 22t62.5 61.5t41.5 86.5t25.5 105t12 108.5t3.5 104.5q0 67 -5 127.5t-19.5 129t-39 117t-67 81
t-99.5 32.5q-56 0 -98.5 -31.5t-66.5 -80t-39 -116.5t-20 -129t-5 -130q0 -68 4.5 -128t19 -129t38.5 -117.5t67 -81t100 -32.5zM864 1513h90q-9 -82 -39 -144t-66 -95.5t-82.5 -54.5t-81.5 -27t-69 -6t-69 6t-81 27t-82 54.5t-66 95.5t-39 144h92q22 -119 85 -179t162 -60
q97 0 161 60.5t85 178.5z" />
    <glyph glyph-name="Ohungarumlaut" unicode="&#x150;" horiz-adv-x="1886" 
d="M1468 842q0 212 -40 370t-112 251.5t-165 138.5t-207 45q-91 0 -168.5 -27.5t-144 -89t-113.5 -153.5t-73.5 -228t-26.5 -307q0 -211 40 -369.5t112.5 -253.5t166 -141.5t207.5 -46.5q90 0 167.5 28.5t144 91t113 156t73 229.5t26.5 306zM1831 836q0 -261 -112 -458
t-312.5 -302t-462.5 -105q-196 0 -361.5 63t-281.5 176.5t-181 277.5t-65 360q0 197 65 358t181.5 271t281 169.5t361.5 59.5q261 0 462 -106t313 -304.5t112 -459.5zM1100 2224l-471 -479h-21l137 479h355zM1528 2224l-471 -479h-21l138 479h354z" />
    <glyph glyph-name="ohungarumlaut" unicode="&#x151;" horiz-adv-x="1232" 
d="M754 1597l-471 -479h-21l137 479h355zM1182 1597l-471 -479h-21l137 479h355zM55 502q0 232 153 381t408 149t408.5 -149.5t153.5 -380.5q0 -113 -39.5 -210.5t-111.5 -168.5t-178 -111.5t-233 -40.5q-255 0 -408 149t-153 382zM616 14q47 0 85 22t62.5 61.5t41.5 86.5
t25.5 105t12 108.5t3.5 104.5q0 67 -5 127.5t-19.5 129t-39 117t-67 81t-99.5 32.5q-56 0 -98.5 -31.5t-66.5 -80t-39 -116.5t-20 -129t-5 -130q0 -68 4.5 -128t19 -129t38.5 -117.5t67 -81t100 -32.5z" />
    <glyph glyph-name="OE" unicode="&#x152;" horiz-adv-x="2668" 
d="M1475 1673h1044v-389h-31q-27 160 -104.5 236.5t-229.5 76.5h-382v-692h231q55 0 93.5 9t75 34.5t60.5 77t37 129.5h29v-573h-29q-13 75 -39 126.5t-63 77.5t-76 37t-88 11h-231v-646q0 -68 23.5 -90t88.5 -22h338q155 0 234.5 88t105.5 258h31v-422h-1118v209
q-184 -240 -531 -240q-196 0 -361.5 63t-281.5 177t-181 278.5t-65 360.5q0 197 65 358t181.5 270t281 168.5t361.5 59.5q349 0 531 -234v203zM1479 842q0 212 -41.5 370t-116 251t-169 137.5t-208.5 44.5t-207 -44.5t-166 -137.5t-113 -251t-40 -370q0 -169 26.5 -306
t73.5 -230.5t113.5 -156.5t144.5 -91.5t168 -28.5t169 28.5t147 91.5t116 156.5t75.5 230.5t27.5 306z" />
    <glyph glyph-name="oe" unicode="&#x153;" horiz-adv-x="1855" 
d="M55 502q0 232 153 381t408 149q261 0 379 -170q55 88 154.5 132t218.5 44q130 0 229 -59t152.5 -155t67.5 -218h-662v-49q2 -18 2 -55v-4q11 -175 92 -283.5t219 -108.5q187 0 316 146l22 -16q-149 -265 -434 -265q-119 0 -220 43t-159 127q-118 -170 -377 -170
q-255 0 -408 149t-153 382zM616 14q47 0 84.5 22t62 61t41.5 85.5t26 104t12.5 107.5t3.5 104v34q-1 54 -5.5 103t-14.5 103t-27 97t-41.5 79t-60.5 55.5t-81 19.5q-56 0 -98.5 -31.5t-66.5 -80t-39 -116.5t-20 -129t-5 -130q0 -68 4.5 -128t19 -129t38.5 -117.5t67 -81
t100 -32.5zM1346 993q-163 0 -187 -334h359q0 70 -8.5 127.5t-28 105.5t-54 74.5t-81.5 26.5z" />
    <glyph glyph-name="Racute" unicode="&#x154;" horiz-adv-x="1693" 
d="M586 1612v-750h16q83 0 144 7.5t122.5 31.5t100 65t62.5 111t24 166q0 203 -105 286t-321 83h-43zM66 1673h600q89 0 163.5 -4.5t152 -16.5t138.5 -31.5t116 -52t91 -75.5t57 -104t21 -136q0 -168 -134 -274.5t-380 -132.5q175 -8 295 -95.5t162 -248.5l28 -111
q28 -107 55 -170.5t68.5 -106t94 -61t137.5 -28.5v-27q-108 -27 -236 -27q-191 0 -309.5 96t-165.5 277l-31 119q-86 334 -403 344v-651q0 -63 38 -90t146 -27v-39h-704v39q108 0 146 27t38 90v1362q0 63 -38 89.5t-146 26.5v39zM1092 2224l-471 -479h-21l137 479h355z" />
    <glyph glyph-name="racute" unicode="&#x155;" horiz-adv-x="956" 
d="M508 985v-264q21 93 56 158t77 96.5t80 44t80 12.5q70 0 120 -39.5t50 -99.5q0 -57 -36.5 -97t-88.5 -40q-37 0 -63.5 11.5t-40.5 28.5t-25.5 34t-26.5 28.5t-35 11.5q-37 0 -86 -67t-61 -170v-483q0 -37 10.5 -59t46.5 -37t103 -15v-39h-633v39q97 0 128.5 27.5
t31.5 85.5v682q0 57 -31.5 84.5t-128.5 27.5v39h473zM764 1597l-471 -479h-21l138 479h354z" />
    <glyph glyph-name="Rcommaaccent" unicode="&#x156;" horiz-adv-x="1693" 
d="M586 1612v-750h16q83 0 144 7.5t122.5 31.5t100 65t62.5 111t24 166q0 203 -105 286t-321 83h-43zM66 1673h600q89 0 163.5 -4.5t152 -16.5t138.5 -31.5t116 -52t91 -75.5t57 -104t21 -136q0 -168 -134 -274.5t-380 -132.5q175 -8 295 -95.5t162 -248.5l28 -111
q28 -107 55 -170.5t68.5 -106t94 -61t137.5 -28.5v-27q-108 -27 -236 -27q-191 0 -309.5 96t-165.5 277l-31 119q-86 334 -403 344v-651q0 -63 38 -90t146 -27v-39h-704v39q108 0 146 27t38 90v1362q0 63 -38 89.5t-146 26.5v39zM745 -244q0 71 48.5 121.5t121.5 50.5
q76 0 123 -51t47 -135q0 -67 -32 -142t-94 -141t-140 -100l-4 12q39 31 66.5 99t27.5 124q-74 0 -119 45.5t-45 116.5z" />
    <glyph glyph-name="rcommaaccent" unicode="&#x157;" horiz-adv-x="956" 
d="M508 985v-264q21 93 56 158t77 96.5t80 44t80 12.5q70 0 120 -39.5t50 -99.5q0 -57 -36.5 -97t-88.5 -40q-37 0 -63.5 11.5t-40.5 28.5t-25.5 34t-26.5 28.5t-35 11.5q-37 0 -86 -67t-61 -170v-483q0 -37 10.5 -59t46.5 -37t103 -15v-39h-633v39q97 0 128.5 27.5
t31.5 85.5v682q0 57 -31.5 84.5t-128.5 27.5v39h473zM182 -244q0 71 48.5 121.5t121.5 50.5q76 0 123 -51t47 -135q0 -67 -32 -142t-94 -141t-140 -100l-4 12q39 31 66.5 99t27.5 124q-74 0 -119 45.5t-45 116.5z" />
    <glyph glyph-name="Rcaron" unicode="&#x158;" horiz-adv-x="1693" 
d="M586 1612v-750h16q83 0 144 7.5t122.5 31.5t100 65t62.5 111t24 166q0 203 -105 286t-321 83h-43zM66 1673h600q89 0 163.5 -4.5t152 -16.5t138.5 -31.5t116 -52t91 -75.5t57 -104t21 -136q0 -168 -134 -274.5t-380 -132.5q175 -8 295 -95.5t162 -248.5l28 -111
q28 -107 55 -170.5t68.5 -106t94 -61t137.5 -28.5v-27q-108 -27 -236 -27q-191 0 -309.5 96t-165.5 277l-31 119q-86 334 -403 344v-651q0 -63 38 -90t146 -27v-39h-704v39q108 0 146 27t38 90v1362q0 63 -38 89.5t-146 26.5v39zM745 2032l347 225h20l-367 -512l-366 512h20
z" />
    <glyph glyph-name="rcaron" unicode="&#x159;" horiz-adv-x="956" 
d="M508 985v-264q21 93 56 158t77 96.5t80 44t80 12.5q70 0 120 -39.5t50 -99.5q0 -57 -36.5 -97t-88.5 -40q-37 0 -63.5 11.5t-40.5 28.5t-25.5 34t-26.5 28.5t-35 11.5q-37 0 -86 -67t-61 -170v-483q0 -37 10.5 -59t46.5 -37t103 -15v-39h-633v39q97 0 128.5 27.5
t31.5 85.5v682q0 57 -31.5 84.5t-128.5 27.5v39h473zM436 1405l346 225h21l-367 -512l-366 512h20z" />
    <glyph glyph-name="Sacute" unicode="&#x15a;" horiz-adv-x="1296" 
d="M1120 1593v-393h-22q-44 213 -166 327.5t-277 114.5q-133 0 -209.5 -79.5t-76.5 -190.5q0 -210 235 -295l187 -67q71 -26 128.5 -54.5t117 -73.5t99.5 -99t65.5 -131t25.5 -169q0 -105 -34 -190.5t-93 -144.5t-140 -99.5t-174 -59t-196 -18.5q-139 0 -283 32t-252 91v422
h23q21 -121 71.5 -215t119 -149.5t144 -84t154.5 -28.5q140 0 235 85.5t95 237.5q0 131 -70 211t-213 129l-153 54q-398 135 -398 504q0 141 77 244t202.5 152.5t282.5 49.5q289 0 495 -113zM997 2224l-471 -479h-20l137 479h354z" />
    <glyph glyph-name="sacute" unicode="&#x15b;" horiz-adv-x="1009" 
d="M483 16q74 0 120 54.5t46 126.5q0 66 -38.5 117.5t-123.5 74.5l-86 23q-311 83 -311 333q0 140 113 212.5t299 72.5q45 0 93 -4.5t102 -17t96 -31t70 -50t28 -71.5t-33.5 -70t-79.5 -30q-38 0 -65.5 17t-41 42.5t-29 55t-30.5 55t-45 42.5t-73 17q-62 0 -100 -42.5
t-38 -100.5q0 -60 38.5 -110.5t123.5 -74.5l86 -24q181 -51 255.5 -134t74.5 -200q0 -80 -36 -144t-98 -103.5t-140.5 -60t-167.5 -20.5q-202 0 -314 53.5t-112 135.5q0 52 33.5 84t93.5 32q45 0 79 -27t55 -65t41 -76t48.5 -65t66.5 -27zM868 1597l-471 -479h-20l137 479
h354z" />
    <glyph glyph-name="Scircumflex" unicode="&#x15c;" horiz-adv-x="1296" 
d="M1120 1593v-393h-22q-44 213 -166 327.5t-277 114.5q-133 0 -209.5 -79.5t-76.5 -190.5q0 -210 235 -295l187 -67q71 -26 128.5 -54.5t117 -73.5t99.5 -99t65.5 -131t25.5 -169q0 -105 -34 -190.5t-93 -144.5t-140 -99.5t-174 -59t-196 -18.5q-139 0 -283 32t-252 91v422
h23q21 -121 71.5 -215t119 -149.5t144 -84t154.5 -28.5q140 0 235 85.5t95 237.5q0 131 -70 211t-213 129l-153 54q-398 135 -398 504q0 141 77 244t202.5 152.5t282.5 49.5q289 0 495 -113zM645 1970l-346 -225h-20l366 512l367 -512h-21z" />
    <glyph glyph-name="scircumflex" unicode="&#x15d;" horiz-adv-x="1009" 
d="M483 16q74 0 120 54.5t46 126.5q0 66 -38.5 117.5t-123.5 74.5l-86 23q-311 83 -311 333q0 140 113 212.5t299 72.5q45 0 93 -4.5t102 -17t96 -31t70 -50t28 -71.5t-33.5 -70t-79.5 -30q-38 0 -65.5 17t-41 42.5t-29 55t-30.5 55t-45 42.5t-73 17q-62 0 -100 -42.5
t-38 -100.5q0 -60 38.5 -110.5t123.5 -74.5l86 -24q181 -51 255.5 -134t74.5 -200q0 -80 -36 -144t-98 -103.5t-140.5 -60t-167.5 -20.5q-202 0 -314 53.5t-112 135.5q0 52 33.5 84t93.5 32q45 0 79 -27t55 -65t41 -76t48.5 -65t66.5 -27zM504 1343l-346 -225h-21l367 512
l366 -512h-20z" />
    <glyph glyph-name="Scedilla" unicode="&#x15e;" horiz-adv-x="1296" 
d="M1120 1593v-393h-22q-44 213 -166 327.5t-277 114.5q-133 0 -209.5 -79.5t-76.5 -190.5q0 -210 235 -295l187 -67q71 -26 128.5 -54.5t117 -73.5t99.5 -99t65.5 -131t25.5 -169q0 -124 -47 -221.5t-130 -158t-187.5 -93t-227.5 -37.5l-94 -141q62 45 133 45
q62 0 104.5 -36.5t42.5 -96.5q0 -80 -62 -140t-144 -87t-162 -27l-2 12q93 16 148.5 86.5t55.5 139.5q0 35 -17 56t-48 21q-23 0 -60 -16l-49 39l92 143q-135 2 -274 34t-244 89v422h23q21 -121 71.5 -215t119 -149.5t144 -84t154.5 -28.5q140 0 235 85.5t95 237.5
q0 131 -70 211t-213 129l-153 54q-398 135 -398 504q0 141 77 244t202.5 152.5t282.5 49.5q289 0 495 -113z" />
    <glyph glyph-name="scedilla" unicode="&#x15f;" horiz-adv-x="1009" 
d="M483 16q74 0 120 54.5t46 126.5q0 66 -38.5 117.5t-123.5 74.5l-86 23q-311 83 -311 333q0 140 113 212.5t299 72.5q45 0 93 -4.5t102 -17t96 -31t70 -50t28 -71.5t-33.5 -70t-79.5 -30q-38 0 -65.5 17t-41 42.5t-29 55t-30.5 55t-45 42.5t-73 17q-62 0 -100 -42.5
t-38 -100.5q0 -60 38.5 -110.5t123.5 -74.5l86 -24q181 -51 255.5 -134t74.5 -200q0 -104 -61 -179.5t-156.5 -111t-212.5 -37.5l-94 -139q62 45 133 45q62 0 104.5 -36.5t42.5 -96.5q0 -80 -62 -140t-144 -87t-162 -27l-3 12q93 16 149 86.5t56 139.5q0 35 -17 56t-48 21
q-23 0 -60 -16l-49 39l92 145q-178 6 -277 58t-99 129q0 52 33.5 84t93.5 32q45 0 79 -27t55 -65t41 -76t48.5 -65t66.5 -27z" />
    <glyph glyph-name="Scaron" unicode="&#x160;" horiz-adv-x="1296" 
d="M1120 1593v-393h-22q-44 213 -166 327.5t-277 114.5q-133 0 -209.5 -79.5t-76.5 -190.5q0 -210 235 -295l187 -67q71 -26 128.5 -54.5t117 -73.5t99.5 -99t65.5 -131t25.5 -169q0 -105 -34 -190.5t-93 -144.5t-140 -99.5t-174 -59t-196 -18.5q-139 0 -283 32t-252 91v422
h23q21 -121 71.5 -215t119 -149.5t144 -84t154.5 -28.5q140 0 235 85.5t95 237.5q0 131 -70 211t-213 129l-153 54q-398 135 -398 504q0 141 77 244t202.5 152.5t282.5 49.5q289 0 495 -113zM649 2032l346 225h21l-367 -512l-366 512h20z" />
    <glyph glyph-name="scaron" unicode="&#x161;" horiz-adv-x="1009" 
d="M483 16q74 0 120 54.5t46 126.5q0 66 -38.5 117.5t-123.5 74.5l-86 23q-311 83 -311 333q0 140 113 212.5t299 72.5q45 0 93 -4.5t102 -17t96 -31t70 -50t28 -71.5t-33.5 -70t-79.5 -30q-38 0 -65.5 17t-41 42.5t-29 55t-30.5 55t-45 42.5t-73 17q-62 0 -100 -42.5
t-38 -100.5q0 -60 38.5 -110.5t123.5 -74.5l86 -24q181 -51 255.5 -134t74.5 -200q0 -80 -36 -144t-98 -103.5t-140.5 -60t-167.5 -20.5q-202 0 -314 53.5t-112 135.5q0 52 33.5 84t93.5 32q45 0 79 -27t55 -65t41 -76t48.5 -65t66.5 -27zM504 1405l346 225h20l-366 -512
l-367 512h21z" />
    <glyph glyph-name="uni0162" unicode="&#x162;" horiz-adv-x="1454" 
d="M559 1606h-33q-113 0 -198.5 -20.5t-139 -54t-90.5 -85t-54.5 -103.5t-29.5 -120h-30v450h1486v-450h-30q-12 68 -29.5 120t-54.5 103.5t-90.5 85t-139 54t-198.5 20.5h-33v-1450q0 -64 41.5 -90.5t163.5 -26.5v-39h-746v39q122 0 163.5 26.5t41.5 90.5v1450zM547 -244
q0 71 48.5 121.5t121.5 50.5q76 0 123 -51t47 -135q0 -67 -32 -142t-94 -141t-140 -100l-5 12q39 31 67 99t28 124q-74 0 -119 45.5t-45 116.5z" />
    <glyph glyph-name="uni0163" unicode="&#x163;" horiz-adv-x="755" 
d="M14 932v53h142l268 311h41v-311h319v-53h-319v-694q0 -152 123 -152q87 0 184 59l14 -20q-82 -85 -164.5 -119.5t-179.5 -34.5q-130 0 -208 63.5t-78 178.5v719h-142zM213 -244q0 71 48.5 121.5t121.5 50.5q76 0 123 -51t47 -135q0 -67 -32 -142t-94 -141t-140 -100
l-4 12q39 31 66.5 99t27.5 124q-74 0 -119 45.5t-45 116.5z" />
    <glyph glyph-name="Tcaron" unicode="&#x164;" horiz-adv-x="1454" 
d="M559 1606h-33q-113 0 -198.5 -20.5t-139 -54t-90.5 -85t-54.5 -103.5t-29.5 -120h-30v450h1486v-450h-30q-12 68 -29.5 120t-54.5 103.5t-90.5 85t-139 54t-198.5 20.5h-33v-1450q0 -64 41.5 -90.5t163.5 -26.5v-39h-746v39q122 0 163.5 26.5t41.5 90.5v1450zM723 2032
l346 225h21l-367 -512l-367 512h21z" />
    <glyph glyph-name="tcaron" unicode="&#x165;" horiz-adv-x="755" 
d="M514 1485q0 71 48.5 121.5t121.5 50.5q75 0 122.5 -51.5t47.5 -135.5q0 -67 -32 -142t-94 -141t-140 -100l-4 13q39 31 66.5 99t27.5 124q-74 0 -119 45.5t-45 116.5zM14 932v53h142l268 311h41v-311h319v-53h-319v-694q0 -152 123 -152q87 0 184 59l14 -20
q-82 -85 -164.5 -119.5t-179.5 -34.5q-130 0 -208 63.5t-78 178.5v719h-142z" />
    <glyph glyph-name="Tbar" unicode="&#x166;" horiz-adv-x="1454" 
d="M559 1606h-33q-113 0 -198.5 -20.5t-139 -54t-90.5 -85t-54.5 -103.5t-29.5 -120h-30v450h1486v-450h-30q-12 68 -29.5 120t-54.5 103.5t-90.5 85t-139 54t-198.5 20.5h-33v-650h293v-86h-293v-714q0 -64 41.5 -90.5t163.5 -26.5v-39h-746v39q122 0 163.5 26.5t41.5 90.5
v714h-276v86h276v650z" />
    <glyph glyph-name="tbar" unicode="&#x167;" horiz-adv-x="770" 
d="M14 932v53h142l268 311h41v-311h319v-53h-319v-225h319v-54h-319v-415q0 -152 123 -152q87 0 184 59l14 -20q-82 -85 -164.5 -119.5t-179.5 -34.5q-130 0 -208 63.5t-78 178.5v440h-142v54h142v225h-142z" />
    <glyph glyph-name="Utilde" unicode="&#x168;" horiz-adv-x="1728" 
d="M1526 1356v-705q0 -324 -159 -502t-482 -178q-328 0 -506 173t-178 487v887q0 63 -38.5 89.5t-146.5 26.5v39h705v-39q-108 0 -146 -26.5t-38 -89.5v-904q0 -251 115.5 -387.5t318.5 -136.5q234 0 347.5 148.5t113.5 416.5v701q0 140 -54 209t-168 69v39h545v-39
q-229 0 -229 -278zM1319 2128l92 117l14 -9l-96 -350h-692l-92 -117l-15 9l97 350h692z" />
    <glyph glyph-name="utilde" unicode="&#x169;" horiz-adv-x="1306" 
d="M838 0v209q-44 -122 -128 -181t-188 -59q-190 0 -278 94t-88 261l2 510q0 57 -31.5 84.5t-128.5 27.5v39h469l-2 -663q0 -116 47.5 -177t120.5 -61q71 0 131 54.5t74 150.5v547q0 56 -31.5 83t-128.5 27v39h469v-835q0 -37 10.5 -59t46.5 -37t103 -15v-39h-469zM911 1491
l93 117l14 -9l-96 -339h-529l-92 -117l-14 8l96 340h528z" />
    <glyph glyph-name="Umacron" unicode="&#x16a;" horiz-adv-x="1728" 
d="M1526 1356v-705q0 -324 -159 -502t-482 -178q-328 0 -506 173t-178 487v887q0 63 -38.5 89.5t-146.5 26.5v39h705v-39q-108 0 -146 -26.5t-38 -89.5v-904q0 -251 115.5 -387.5t318.5 -136.5q234 0 347.5 148.5t113.5 416.5v701q0 140 -54 209t-168 69v39h545v-39
q-229 0 -229 -278zM623 1853v97h704v-97h-704z" />
    <glyph glyph-name="umacron" unicode="&#x16b;" horiz-adv-x="1306" 
d="M838 0v209q-44 -122 -128 -181t-188 -59q-190 0 -278 94t-88 261l2 510q0 57 -31.5 84.5t-128.5 27.5v39h469l-2 -663q0 -116 47.5 -177t120.5 -61q71 0 131 54.5t74 150.5v547q0 56 -31.5 83t-128.5 27v39h469v-835q0 -37 10.5 -59t46.5 -37t103 -15v-39h-469zM301 1288
v96h705v-96h-705z" />
    <glyph glyph-name="Ubreve" unicode="&#x16c;" horiz-adv-x="1728" 
d="M1526 1356v-705q0 -324 -159 -502t-482 -178q-328 0 -506 173t-178 487v887q0 63 -38.5 89.5t-146.5 26.5v39h705v-39q-108 0 -146 -26.5t-38 -89.5v-904q0 -251 115.5 -387.5t318.5 -136.5q234 0 347.5 148.5t113.5 416.5v701q0 140 -54 209t-168 69v39h545v-39
q-229 0 -229 -278zM1200 2120h90q-9 -82 -39 -144t-66 -96t-82.5 -55t-81.5 -27t-69 -6t-69 6t-81.5 27t-82.5 55t-66 96t-39 144h93q22 -119 85 -179.5t162 -60.5q97 0 161 61t85 179z" />
    <glyph glyph-name="ubreve" unicode="&#x16d;" horiz-adv-x="1306" 
d="M838 0v209q-44 -122 -128 -181t-188 -59q-190 0 -278 94t-88 261l2 510q0 57 -31.5 84.5t-128.5 27.5v39h469l-2 -663q0 -116 47.5 -177t120.5 -61q71 0 131 54.5t74 150.5v547q0 56 -31.5 83t-128.5 27v39h469v-835q0 -37 10.5 -59t46.5 -37t103 -15v-39h-469zM860 1513
h90q-9 -82 -39 -144t-66 -95.5t-82.5 -54.5t-81.5 -27t-69 -6t-69 6t-81.5 27t-82.5 54.5t-66 95.5t-39 144h93q22 -119 85 -179t162 -60q97 0 161 60.5t85 178.5z" />
    <glyph glyph-name="Uring" unicode="&#x16e;" horiz-adv-x="1728" 
d="M1526 1356v-705q0 -324 -159 -502t-482 -178q-328 0 -506 173t-178 487v887q0 63 -38.5 89.5t-146.5 26.5v39h705v-39q-108 0 -146 -26.5t-38 -89.5v-904q0 -251 115.5 -387.5t318.5 -136.5q234 0 347.5 148.5t113.5 416.5v701q0 140 -54 209t-168 69v39h545v-39
q-229 0 -229 -278zM1178 2005q0 -84 -61 -142.5t-148 -58.5t-148 58.5t-61 142.5t61 142.5t148 58.5t148 -58.5t61 -142.5zM1100 2005q0 58 -38.5 95.5t-92.5 37.5q-56 0 -92.5 -38.5t-36.5 -94.5t36.5 -94.5t92.5 -38.5q60 0 95.5 38t35.5 95z" />
    <glyph glyph-name="uring" unicode="&#x16f;" horiz-adv-x="1306" 
d="M838 0v209q-44 -122 -128 -181t-188 -59q-190 0 -278 94t-88 261l2 510q0 57 -31.5 84.5t-128.5 27.5v39h469l-2 -663q0 -116 47.5 -177t120.5 -61q71 0 131 54.5t74 150.5v547q0 56 -31.5 83t-128.5 27v39h469v-835q0 -37 10.5 -59t46.5 -37t103 -15v-39h-469zM842 1399
q0 -84 -61 -142.5t-148 -58.5t-148 58.5t-61 142.5t61 142t148 58t148 -58t61 -142zM764 1399q0 58 -38.5 95.5t-92.5 37.5q-56 0 -92.5 -38.5t-36.5 -94.5t36.5 -94.5t92.5 -38.5q60 0 95.5 38t35.5 95z" />
    <glyph glyph-name="Uhungarumlaut" unicode="&#x170;" horiz-adv-x="1728" 
d="M1526 1356v-705q0 -324 -159 -502t-482 -178q-328 0 -506 173t-178 487v887q0 63 -38.5 89.5t-146.5 26.5v39h705v-39q-108 0 -146 -26.5t-38 -89.5v-904q0 -251 115.5 -387.5t318.5 -136.5q234 0 347.5 148.5t113.5 416.5v701q0 140 -54 209t-168 69v39h545v-39
q-229 0 -229 -278zM1102 2224l-471 -479h-21l138 479h354zM1530 2224l-471 -479h-21l138 479h354z" />
    <glyph glyph-name="uhungarumlaut" unicode="&#x171;" horiz-adv-x="1306" 
d="M838 0v209q-44 -122 -128 -181t-188 -59q-190 0 -278 94t-88 261l2 510q0 57 -31.5 84.5t-128.5 27.5v39h469l-2 -663q0 -116 47.5 -177t120.5 -61q71 0 131 54.5t74 150.5v547q0 56 -31.5 83t-128.5 27v39h469v-835q0 -37 10.5 -59t46.5 -37t103 -15v-39h-469zM745 1597
l-471 -479h-20l137 479h354zM1174 1597l-472 -479h-20l137 479h355z" />
    <glyph glyph-name="Uogonek" unicode="&#x172;" horiz-adv-x="1728" 
d="M1081 -420l6 -16q-93 -60 -188 -60q-86 0 -147.5 43t-61.5 129q0 156 244 297q-16 -2 -49 -2q-328 0 -506 173t-178 487v887q0 63 -38.5 89.5t-146.5 26.5v39h705v-39q-108 0 -146 -26.5t-38 -89.5v-904q0 -251 115.5 -387.5t318.5 -136.5q234 0 347.5 148.5t113.5 416.5
v701q0 140 -54 209t-168 69v39h545v-39q-229 0 -229 -278v-705q0 -299 -136.5 -474.5t-412.5 -201.5q-47 -47 -79 -115t-32 -130q0 -68 41 -115t107 -47q32 0 67 12z" />
    <glyph glyph-name="uogonek" unicode="&#x173;" horiz-adv-x="1306" 
d="M838 0v209q-44 -122 -128 -181t-188 -59q-190 0 -278 94t-88 261l2 510q0 57 -31.5 84.5t-128.5 27.5v39h469l-2 -663q0 -116 47.5 -177t120.5 -61q71 0 131 54.5t74 150.5v547q0 56 -31.5 83t-128.5 27v39h469v-835q0 -37 10.5 -59t46.5 -37t103 -15v-39h-160
q-56 -41 -98.5 -120t-42.5 -152q0 -68 40.5 -115t106.5 -47q33 0 68 12l6 -16q-93 -60 -189 -60q-86 0 -147.5 43t-61.5 129q0 171 297 326h-288z" />
    <glyph glyph-name="Wcircumflex" unicode="&#x174;" horiz-adv-x="2449" 
d="M1833 477l295 856q27 77 32.5 133t-4 87t-36 49t-54.5 23t-69 5v43h489v-43q-34 0 -55 -3t-46.5 -13t-45 -30.5t-42.5 -55.5t-46 -88t-49 -127l-480 -1362h-26l-477 1253l-467 -1253h-27l-578 1573q-22 60 -60.5 83t-123.5 23v43h692v-43q-81 0 -117.5 -15.5t-25.5 -53.5
l356 -1100l310 852l-80 211q-22 60 -61 83t-124 23v43h693v-43q-82 0 -119.5 -15.5t-24.5 -53.5zM1266 1970l-346 -225h-21l367 512l366 -512h-20z" />
    <glyph glyph-name="wcircumflex" unicode="&#x175;" horiz-adv-x="1738" 
d="M1311 348l157 363q58 133 41 184t-123 51v39h390v-39q-87 0 -134 -45.5t-94 -157.5l-338 -788h-41l-309 735l-317 -735h-39l-369 881q-25 62 -58 86t-114 24v39h598v-39q-75 0 -100.5 -17.5t-11.5 -56.5l196 -524l158 363q2 4 11 26t13 33l-26 66q-25 62 -58 86t-114 24
v39h598v-39q-75 0 -101 -17.5t-12 -56.5zM868 1343l-346 -225h-20l366 512l367 -512h-21z" />
    <glyph glyph-name="Ycircumflex" unicode="&#x176;" horiz-adv-x="1478" 
d="M537 156v563h2l-392 805q-30 60 -66 83t-118 23v43h686v-43q-83 0 -122 -16t-21 -53l344 -725l254 497q39 76 55.5 129t15 86t-24 51t-54.5 24.5t-84 6.5v43h504v-43q-49 0 -80.5 -8.5t-69.5 -38.5t-77.5 -89t-92.5 -159l-324 -616v-563q0 -63 38.5 -90t146.5 -27v-39
h-705v39q108 0 146.5 27t38.5 90zM803 1970l-346 -225h-21l367 512l366 -512h-20z" />
    <glyph glyph-name="ycircumflex" unicode="&#x177;" horiz-adv-x="1038" 
d="M88 -612q-102 0 -178 50t-76 140q0 45 31.5 78t81.5 33q45 0 72 -21.5t37.5 -52.5t19 -62.5t26 -53t48.5 -21.5q20 0 37 6t41 24t49.5 60t50.5 106l118 306l-354 856q-25 62 -58 86t-114 24v39h598v-39q-75 0 -100.5 -17.5t-11.5 -56.5l198 -540l156 379q57 133 40.5 184
t-122.5 51v39h397v-39q-86 0 -133 -45t-94 -158l-461 -1097q-36 -86 -75.5 -141.5t-81 -79t-72 -30.5t-70.5 -7zM528 1343l-346 -225h-20l366 512l367 -512h-21z" />
    <glyph glyph-name="Ydieresis" unicode="&#x178;" horiz-adv-x="1478" 
d="M537 156v563h2l-392 805q-30 60 -66 83t-118 23v43h686v-43q-83 0 -122 -16t-21 -53l344 -725l254 497q39 76 55.5 129t15 86t-24 51t-54.5 24.5t-84 6.5v43h504v-43q-49 0 -80.5 -8.5t-69.5 -38.5t-77.5 -89t-92.5 -159l-324 -616v-563q0 -63 38.5 -90t146.5 -27v-39
h-705v39q108 0 146.5 27t38.5 90zM295 1993q0 77 53.5 130.5t130.5 53.5t131 -54t54 -130q0 -77 -54 -131t-131 -54q-76 0 -130 54t-54 131zM950 1993q0 76 54 130t131 54t130.5 -53.5t53.5 -130.5t-54 -131t-130 -54q-77 0 -131 54t-54 131z" />
    <glyph glyph-name="Zacute" unicode="&#x179;" horiz-adv-x="1439" 
d="M45 0l940 1595h-319q-127 0 -214 -23.5t-135.5 -70t-71 -101.5t-30.5 -132h-27v405h1192l-929 -1599h518q183 0 278.5 84.5t112.5 255.5h24v-414h-1339zM1133 2224l-471 -479h-21l137 479h355z" />
    <glyph glyph-name="zacute" unicode="&#x17a;" horiz-adv-x="1001" 
d="M113 614v371h843l-589 -946h104q71 0 128 10t98 26t73 43t52 55.5t34.5 69.5t23 77.5t15.5 87.5h27v-408h-918l586 940h-103q-90 0 -152.5 -21.5t-100.5 -66.5t-59 -100t-36 -138h-26zM889 1597l-471 -479h-21l138 479h354z" />
    <glyph glyph-name="Zdotaccent" unicode="&#x17b;" horiz-adv-x="1439" 
d="M45 0l940 1595h-319q-127 0 -214 -23.5t-135.5 -70t-71 -101.5t-30.5 -132h-27v405h1192l-929 -1599h518q183 0 278.5 84.5t112.5 255.5h24v-414h-1339zM610 1993q0 76 54 130t131 54t130.5 -53.5t53.5 -130.5t-54 -131t-130 -54q-77 0 -131 54t-54 131z" />
    <glyph glyph-name="zdotaccent" unicode="&#x17c;" horiz-adv-x="1001" 
d="M113 614v371h843l-589 -946h104q71 0 128 10t98 26t73 43t52 55.5t34.5 69.5t23 77.5t15.5 87.5h27v-408h-918l586 940h-103q-90 0 -152.5 -21.5t-100.5 -66.5t-59 -100t-36 -138h-26zM350 1366q0 76 54 130t131 54t130.5 -54t53.5 -130t-53.5 -130t-130.5 -54t-131 54
t-54 130z" />
    <glyph glyph-name="Zcaron" unicode="&#x17d;" horiz-adv-x="1439" 
d="M45 0l940 1595h-319q-127 0 -214 -23.5t-135.5 -70t-71 -101.5t-30.5 -132h-27v405h1192l-929 -1599h518q183 0 278.5 84.5t112.5 255.5h24v-414h-1339zM784 2032l346 225h21l-367 -512l-366 512h20z" />
    <glyph glyph-name="zcaron" unicode="&#x17e;" horiz-adv-x="1001" 
d="M113 614v371h843l-589 -946h104q71 0 128 10t98 26t73 43t52 55.5t34.5 69.5t23 77.5t15.5 87.5h27v-408h-918l586 940h-103q-90 0 -152.5 -21.5t-100.5 -66.5t-59 -100t-36 -138h-26zM541 1405l346 225h20l-366 -512l-367 512h21z" />
    <glyph glyph-name="uni018F" unicode="&#x18f;" horiz-adv-x="1630" 
d="M772 -27q-146 0 -273 40.5t-225.5 118t-155 201.5t-55.5 281h1137q10 117 10 213q0 147 -31.5 270t-93.5 217t-161 146.5t-226 52.5q-381 0 -600 -319l-30 14q108 234 300 360t433 126q179 0 321.5 -61t235 -169t141.5 -254t49 -319q0 -206 -59.5 -379.5t-163.5 -291
t-246.5 -182.5t-306.5 -65zM778 18q116 0 205 73.5t139.5 190t69.5 267.5h-786q1 -124 33 -226.5t84.5 -168t118 -101t136.5 -35.5z" />
    <glyph glyph-name="Scommaaccent" unicode="&#x218;" horiz-adv-x="1296" 
d="M1120 1593v-393h-22q-44 213 -166 327.5t-277 114.5q-133 0 -209.5 -79.5t-76.5 -190.5q0 -210 235 -295l187 -67q71 -26 128.5 -54.5t117 -73.5t99.5 -99t65.5 -131t25.5 -169q0 -105 -34 -190.5t-93 -144.5t-140 -99.5t-174 -59t-196 -18.5q-139 0 -283 32t-252 91v422
h23q21 -121 71.5 -215t119 -149.5t144 -84t154.5 -28.5q140 0 235 85.5t95 237.5q0 131 -70 211t-213 129l-153 54q-398 135 -398 504q0 141 77 244t202.5 152.5t282.5 49.5q289 0 495 -113zM459 -244q0 71 48.5 121.5t121.5 50.5q76 0 123 -51t47 -135q0 -67 -32 -142
t-94.5 -141t-140.5 -100l-4 12q39 31 67 99t28 124q-74 0 -119 45.5t-45 116.5z" />
    <glyph glyph-name="scommaaccent" unicode="&#x219;" horiz-adv-x="1009" 
d="M483 16q74 0 120 54.5t46 126.5q0 66 -38.5 117.5t-123.5 74.5l-86 23q-311 83 -311 333q0 140 113 212.5t299 72.5q45 0 93 -4.5t102 -17t96 -31t70 -50t28 -71.5t-33.5 -70t-79.5 -30q-38 0 -65.5 17t-41 42.5t-29 55t-30.5 55t-45 42.5t-73 17q-62 0 -100 -42.5
t-38 -100.5q0 -60 38.5 -110.5t123.5 -74.5l86 -24q181 -51 255.5 -134t74.5 -200q0 -80 -36 -144t-98 -103.5t-140.5 -60t-167.5 -20.5q-202 0 -314 53.5t-112 135.5q0 52 33.5 84t93.5 32q45 0 79 -27t55 -65t41 -76t48.5 -65t66.5 -27zM315 -244q0 71 48.5 121.5
t121.5 50.5q76 0 123 -51t47 -135q0 -67 -32 -142t-94 -141t-140 -100l-4 12q39 31 66.5 99t27.5 124q-74 0 -119 45.5t-45 116.5z" />
    <glyph glyph-name="Tcommaaccent" unicode="&#x21a;" horiz-adv-x="1454" 
d="M559 1606h-33q-113 0 -198.5 -20.5t-139 -54t-90.5 -85t-54.5 -103.5t-29.5 -120h-30v450h1486v-450h-30q-12 68 -29.5 120t-54.5 103.5t-90.5 85t-139 54t-198.5 20.5h-33v-1450q0 -64 41.5 -90.5t163.5 -26.5v-39h-746v39q122 0 163.5 26.5t41.5 90.5v1450zM547 -244
q0 71 48.5 121.5t121.5 50.5q76 0 123 -51t47 -135q0 -67 -32 -142t-94 -141t-140 -100l-5 12q39 31 67 99t28 124q-74 0 -119 45.5t-45 116.5z" />
    <glyph glyph-name="tcommaaccent" unicode="&#x21b;" horiz-adv-x="755" 
d="M14 932v53h142l268 311h41v-311h319v-53h-319v-694q0 -152 123 -152q87 0 184 59l14 -20q-82 -85 -164.5 -119.5t-179.5 -34.5q-130 0 -208 63.5t-78 178.5v719h-142zM213 -244q0 71 48.5 121.5t121.5 50.5q76 0 123 -51t47 -135q0 -67 -32 -142t-94 -141t-140 -100
l-4 12q39 31 66.5 99t27.5 124q-74 0 -119 45.5t-45 116.5z" />
    <glyph glyph-name="uni0232" unicode="&#x232;" horiz-adv-x="1478" 
d="M537 156v563h2l-392 805q-30 60 -66 83t-118 23v43h686v-43q-83 0 -122 -16t-21 -53l344 -725l254 497q39 76 55.5 129t15 86t-24 51t-54.5 24.5t-84 6.5v43h504v-43q-49 0 -80.5 -8.5t-69.5 -38.5t-77.5 -89t-92.5 -159l-324 -616v-563q0 -63 38.5 -90t146.5 -27v-39
h-705v39q108 0 146.5 27t38.5 90zM442 1853v97h705v-97h-705z" />
    <glyph glyph-name="uni0233" unicode="&#x233;" horiz-adv-x="1038" 
d="M88 -612q-102 0 -178 50t-76 140q0 45 31.5 78t81.5 33q45 0 72 -21.5t37.5 -52.5t19 -62.5t26 -53t48.5 -21.5q20 0 37 6t41 24t49.5 60t50.5 106l118 306l-354 856q-25 62 -58 86t-114 24v39h598v-39q-75 0 -100.5 -17.5t-11.5 -56.5l198 -540l156 379q57 133 40.5 184
t-122.5 51v39h397v-39q-86 0 -133 -45t-94 -158l-461 -1097q-36 -86 -75.5 -141.5t-81 -79t-72 -30.5t-70.5 -7zM201 1288v96h704v-96h-704z" />
    <glyph glyph-name="dotlessj" unicode="&#x237;" horiz-adv-x="645" 
d="M492 985v-913q0 -66 -7.5 -124.5t-26.5 -123.5t-53.5 -125.5t-85 -122.5t-125.5 -123t-171 -119l-9 19q44 46 76 116.5t48.5 139t26 159.5t11.5 155t2 149v757q0 61 -31.5 89t-128.5 28v39h474z" />
    <glyph glyph-name="uni0259" unicode="&#x259;" horiz-adv-x="1058" 
d="M481 -27q-102 0 -185.5 34t-138.5 93.5t-88.5 137t-43.5 168.5h661q5 98 -11.5 185t-54.5 157.5t-105.5 111.5t-156.5 41q-90 0 -172 -45t-135 -117l-22 15q143 286 444 286q249 0 396 -147.5t147 -396.5q0 -221 -151 -372t-384 -151zM479 18q90 0 145 98.5t60 235.5
h-365q0 -334 160 -334z" />
    <glyph glyph-name="circumflex" unicode="&#x2c6;" horiz-adv-x="843" 
d="M422 1343l-346 -225h-21l367 512l366 -512h-20z" />
    <glyph glyph-name="caron" unicode="&#x2c7;" horiz-adv-x="843" 
d="M422 1405l346 225h20l-366 -512l-367 512h21z" />
    <glyph glyph-name="breve" unicode="&#x2d8;" horiz-adv-x="786" 
d="M641 1513h90q-9 -82 -39 -144t-66 -95.5t-82.5 -54.5t-81.5 -27t-69 -6t-69 6t-81.5 27t-82.5 54.5t-66 95.5t-39 144h92q22 -119 85.5 -179t162.5 -60q97 0 161 60.5t85 178.5z" />
    <glyph glyph-name="dotaccent" unicode="&#x2d9;" horiz-adv-x="479" 
d="M55 1366q0 76 54 130t131 54q76 0 130 -54t54 -130t-54 -130t-130 -54q-77 0 -131 54t-54 130z" />
    <glyph glyph-name="ring" unicode="&#x2da;" horiz-adv-x="528" 
d="M473 1399q0 -84 -61 -142.5t-148 -58.5t-148 58.5t-61 142.5t61 142t148 58t148 -58t61 -142zM395 1399q0 58 -38.5 95.5t-92.5 37.5q-56 0 -92.5 -38.5t-36.5 -94.5t36.5 -94.5t92.5 -38.5q60 0 95.5 38t35.5 95z" />
    <glyph glyph-name="ogonek" unicode="&#x2db;" horiz-adv-x="507" 
d="M446 -422l7 -16q-93 -60 -189 -60q-86 0 -147.5 43t-61.5 129q0 171 297 326h21q-56 -41 -99 -120.5t-43 -151.5q0 -68 41 -115t107 -47q33 0 67 12z" />
    <glyph glyph-name="tilde" unicode="&#x2dc;" horiz-adv-x="841" 
d="M680 1491l92 117l14 -9l-96 -339h-528l-92 -117l-15 8l97 340h528z" />
    <glyph glyph-name="hungarumlaut" unicode="&#x2dd;" horiz-adv-x="1030" 
d="M547 1597l-471 -479h-21l138 479h354zM975 1597l-471 -479h-21l138 479h354z" />
    <glyph glyph-name="pi" unicode="&#x3c0;" horiz-adv-x="1437" 
d="M127 903v96h1184v-96h-178v-903h-105v903h-618v-903h-105v903h-178z" />
    <glyph glyph-name="Wgrave" unicode="&#x1e80;" horiz-adv-x="2449" 
d="M1833 477l295 856q27 77 32.5 133t-4 87t-36 49t-54.5 23t-69 5v43h489v-43q-34 0 -55 -3t-46.5 -13t-45 -30.5t-42.5 -55.5t-46 -88t-49 -127l-480 -1362h-26l-477 1253l-467 -1253h-27l-578 1573q-22 60 -60.5 83t-123.5 23v43h692v-43q-81 0 -117.5 -15.5t-25.5 -53.5
l356 -1100l310 852l-80 211q-22 60 -61 83t-124 23v43h693v-43q-82 0 -119.5 -15.5t-24.5 -53.5zM1350 1745l-396 479h334l82 -479h-20z" />
    <glyph glyph-name="wgrave" unicode="&#x1e81;" horiz-adv-x="1738" 
d="M1311 348l157 363q58 133 41 184t-123 51v39h390v-39q-87 0 -134 -45.5t-94 -157.5l-338 -788h-41l-309 735l-317 -735h-39l-369 881q-25 62 -58 86t-114 24v39h598v-39q-75 0 -100.5 -17.5t-11.5 -56.5l196 -524l158 363q2 4 11 26t13 33l-26 66q-25 62 -58 86t-114 24
v39h598v-39q-75 0 -101 -17.5t-12 -56.5zM1004 1118l-396 479h334l82 -479h-20z" />
    <glyph glyph-name="Wacute" unicode="&#x1e82;" horiz-adv-x="2449" 
d="M1833 477l295 856q27 77 32.5 133t-4 87t-36 49t-54.5 23t-69 5v43h489v-43q-34 0 -55 -3t-46.5 -13t-45 -30.5t-42.5 -55.5t-46 -88t-49 -127l-480 -1362h-26l-477 1253l-467 -1253h-27l-578 1573q-22 60 -60.5 83t-123.5 23v43h692v-43q-81 0 -117.5 -15.5t-25.5 -53.5
l356 -1100l310 852l-80 211q-22 60 -61 83t-124 23v43h693v-43q-82 0 -119.5 -15.5t-24.5 -53.5zM1602 2224l-472 -479h-20l137 479h355z" />
    <glyph glyph-name="wacute" unicode="&#x1e83;" horiz-adv-x="1738" 
d="M1311 348l157 363q58 133 41 184t-123 51v39h390v-39q-87 0 -134 -45.5t-94 -157.5l-338 -788h-41l-309 735l-317 -735h-39l-369 881q-25 62 -58 86t-114 24v39h598v-39q-75 0 -100.5 -17.5t-11.5 -56.5l196 -524l158 363q2 4 11 26t13 33l-26 66q-25 62 -58 86t-114 24
v39h598v-39q-75 0 -101 -17.5t-12 -56.5zM1264 1597l-471 -479h-21l137 479h355z" />
    <glyph glyph-name="Wdieresis" unicode="&#x1e84;" horiz-adv-x="2449" 
d="M1833 477l295 856q27 77 32.5 133t-4 87t-36 49t-54.5 23t-69 5v43h489v-43q-34 0 -55 -3t-46.5 -13t-45 -30.5t-42.5 -55.5t-46 -88t-49 -127l-480 -1362h-26l-477 1253l-467 -1253h-27l-578 1573q-22 60 -60.5 83t-123.5 23v43h692v-43q-81 0 -117.5 -15.5t-25.5 -53.5
l356 -1100l310 852l-80 211q-22 60 -61 83t-124 23v43h693v-43q-82 0 -119.5 -15.5t-24.5 -53.5zM741 1993q0 76 54 130t131 54q76 0 130 -53.5t54 -130.5t-54 -131t-130 -54t-130.5 54t-54.5 131zM1397 1993q0 77 53.5 130.5t130.5 53.5t130.5 -53.5t53.5 -130.5t-54 -131
t-130 -54t-130 54t-54 131z" />
    <glyph glyph-name="wdieresis" unicode="&#x1e85;" horiz-adv-x="1738" 
d="M1311 348l157 363q58 133 41 184t-123 51v39h390v-39q-87 0 -134 -45.5t-94 -157.5l-338 -788h-41l-309 735l-317 -735h-39l-369 881q-25 62 -58 86t-114 24v39h598v-39q-75 0 -100.5 -17.5t-11.5 -56.5l196 -524l158 363q2 4 11 26t13 33l-26 66q-25 62 -58 86t-114 24
v39h598v-39q-75 0 -101 -17.5t-12 -56.5zM467 1366q0 76 53.5 130t130.5 54t131 -54t54 -130t-54 -130t-131 -54t-130.5 54t-53.5 130zM958 1366q0 76 54 130t131 54t130.5 -54t53.5 -130t-53.5 -130t-130.5 -54t-131 54t-54 130z" />
    <glyph glyph-name="uni1ECA" unicode="&#x1eca;" horiz-adv-x="835" 
d="M221 -340q0 76 54 130t131 54q76 0 130 -54t54 -130t-54 -130t-130 -54q-77 0 -131 54t-54 130zM250 156v1362q0 63 -38 89.5t-146 26.5v39h704v-39q-108 0 -146 -26.5t-38 -89.5v-1362q0 -63 38 -90t146 -27v-39h-704v39q108 0 146 27t38 90z" />
    <glyph glyph-name="uni1ECB" unicode="&#x1ecb;" horiz-adv-x="681" 
d="M195 158v667q0 42 -10.5 66t-46.5 39.5t-103 15.5v39h473v-823q0 -65 31.5 -94t128.5 -29v-39h-633v39q160 0 160 119zM156 1473q0 83 58.5 141.5t141.5 58.5t142 -58.5t59 -141.5t-59 -142t-142 -59t-141.5 59t-58.5 142zM160 -340q0 76 54 130t130 54t130 -54t54 -130
t-54 -130t-130 -54t-130 54t-54 130z" />
    <glyph glyph-name="uni1ECC" unicode="&#x1ecc;" horiz-adv-x="1886" 
d="M1468 842q0 212 -40 370t-112 251.5t-165 138.5t-207 45q-91 0 -168.5 -27.5t-144 -89t-113.5 -153.5t-73.5 -228t-26.5 -307q0 -211 40 -369.5t112.5 -253.5t166 -141.5t207.5 -46.5q90 0 167.5 28.5t144 91t113 156t73 229.5t26.5 306zM1831 836q0 -261 -112 -458
t-312.5 -302t-462.5 -105q-196 0 -361.5 63t-281.5 176.5t-181 277.5t-65 360q0 197 65 358t181.5 271t281 169.5t361.5 59.5q261 0 462 -106t313 -304.5t112 -459.5zM758 -340q0 76 54 130t130 54t130 -54t54 -130t-54 -130t-130 -54t-130 54t-54 130z" />
    <glyph glyph-name="uni1ECD" unicode="&#x1ecd;" horiz-adv-x="1232" 
d="M55 502q0 232 153 381t408 149t408.5 -149.5t153.5 -380.5q0 -113 -39.5 -210.5t-111.5 -168.5t-178 -111.5t-233 -40.5q-255 0 -408 149t-153 382zM616 14q47 0 85 22t62.5 61.5t41.5 86.5t25.5 105t12 108.5t3.5 104.5q0 67 -5 127.5t-19.5 129t-39 117t-67 81
t-99.5 32.5q-56 0 -98.5 -31.5t-66.5 -80t-39 -116.5t-20 -129t-5 -130q0 -68 4.5 -128t19 -129t38.5 -117.5t67 -81t100 -32.5zM410 -340q0 76 54 130t130 54t130 -54t54 -130t-54 -130t-130 -54t-130 54t-54 130z" />
    <glyph glyph-name="uni1EE4" unicode="&#x1ee4;" horiz-adv-x="1728" 
d="M1526 1356v-705q0 -324 -159 -502t-482 -178q-328 0 -506 173t-178 487v887q0 63 -38.5 89.5t-146.5 26.5v39h705v-39q-108 0 -146 -26.5t-38 -89.5v-904q0 -251 115.5 -387.5t318.5 -136.5q234 0 347.5 148.5t113.5 416.5v701q0 140 -54 209t-168 69v39h545v-39
q-229 0 -229 -278zM754 -340q0 76 54 130t130 54t130 -54t54 -130t-54 -130t-130 -54t-130 54t-54 130z" />
    <glyph glyph-name="uni1EE5" unicode="&#x1ee5;" horiz-adv-x="1306" 
d="M838 0v209q-44 -122 -128 -181t-188 -59q-190 0 -278 94t-88 261l2 510q0 57 -31.5 84.5t-128.5 27.5v39h469l-2 -663q0 -116 47.5 -177t120.5 -61q71 0 131 54.5t74 150.5v547q0 56 -31.5 83t-128.5 27v39h469v-835q0 -37 10.5 -59t46.5 -37t103 -15v-39h-469zM473 -340
q0 76 53.5 130t130.5 54t131 -54t54 -130t-54 -130t-131 -54t-130.5 54t-53.5 130z" />
    <glyph glyph-name="Ygrave" unicode="&#x1ef2;" horiz-adv-x="1478" 
d="M537 156v563h2l-392 805q-30 60 -66 83t-118 23v43h686v-43q-83 0 -122 -16t-21 -53l344 -725l254 497q39 76 55.5 129t15 86t-24 51t-54.5 24.5t-84 6.5v43h504v-43q-49 0 -80.5 -8.5t-69.5 -38.5t-77.5 -89t-92.5 -159l-324 -616v-563q0 -63 38.5 -90t146.5 -27v-39
h-705v39q108 0 146.5 27t38.5 90zM868 1745l-395 479h334l82 -479h-21z" />
    <glyph glyph-name="ygrave" unicode="&#x1ef3;" horiz-adv-x="1038" 
d="M88 -612q-102 0 -178 50t-76 140q0 45 31.5 78t81.5 33q45 0 72 -21.5t37.5 -52.5t19 -62.5t26 -53t48.5 -21.5q20 0 37 6t41 24t49.5 60t50.5 106l118 306l-354 856q-25 62 -58 86t-114 24v39h598v-39q-75 0 -100.5 -17.5t-11.5 -56.5l198 -540l156 379q57 133 40.5 184
t-122.5 51v39h397v-39q-86 0 -133 -45t-94 -158l-461 -1097q-36 -86 -75.5 -141.5t-81 -79t-72 -30.5t-70.5 -7zM618 1118l-395 479h334l82 -479h-21z" />
    <glyph glyph-name="endash" unicode="&#x2013;" horiz-adv-x="1019" 
d="M86 471v96h848v-96h-848z" />
    <glyph glyph-name="emdash" unicode="&#x2014;" horiz-adv-x="1525" 
d="M86 469v98h1354v-98h-1354z" />
    <glyph glyph-name="quoteleft" unicode="&#x2018;" horiz-adv-x="430" 
d="M446 1239q0 -84 -57.5 -142.5t-142.5 -58.5q-90 0 -145.5 59.5t-55.5 157.5q0 80 38 168t111 166t164 117l7 -14q-46 -35 -78.5 -115.5t-32.5 -146.5q87 0 139.5 -53.5t52.5 -137.5z" />
    <glyph glyph-name="quoteright" unicode="&#x2019;" horiz-adv-x="430" 
d="M45 1495q0 84 57.5 142.5t143.5 58.5q90 0 145 -59.5t55 -157.5q0 -80 -38 -168t-111 -166t-164 -117l-6 14q46 35 78.5 116t32.5 147q-87 0 -140 53t-53 137z" />
    <glyph glyph-name="quotesinglbase" unicode="&#x201a;" horiz-adv-x="491" 
d="M45 172q0 84 57.5 142.5t143.5 58.5q90 0 145 -59.5t55 -157.5q0 -80 -38 -168t-111 -166t-164 -117l-6 14q46 35 78.5 116t32.5 147q-87 0 -140 53t-53 137z" />
    <glyph glyph-name="quotedblleft" unicode="&#x201c;" horiz-adv-x="964" 
d="M942 1239q0 -84 -57.5 -142.5t-143.5 -58.5q-90 0 -145 59.5t-55 157.5q0 80 38 168t111 166t164 117l6 -14q-46 -35 -78 -115.5t-32 -146.5q87 0 139.5 -53.5t52.5 -137.5zM446 1239q0 -84 -57.5 -142.5t-142.5 -58.5q-90 0 -145.5 59.5t-55.5 157.5q0 80 38 168
t111 166t164 117l7 -14q-46 -35 -78.5 -115.5t-32.5 -146.5q87 0 139.5 -53.5t52.5 -137.5z" />
    <glyph glyph-name="quotedblright" unicode="&#x201d;" horiz-adv-x="964" 
d="M539 1493q0 84 57.5 142.5t142.5 58.5q90 0 145.5 -59.5t55.5 -157.5q0 -80 -38 -168t-111 -166t-164 -117l-6 14q45 35 77.5 116t32.5 147q-87 0 -139.5 53t-52.5 137zM45 1493q0 84 57.5 142.5t143.5 58.5q90 0 145 -59.5t55 -157.5q0 -80 -38 -168t-111 -166
t-164 -117l-6 14q46 35 78.5 116t32.5 147q-87 0 -140 53t-53 137z" />
    <glyph glyph-name="quotedblbase" unicode="&#x201e;" horiz-adv-x="940" 
d="M514 172q0 84 57.5 142.5t143.5 58.5q90 0 145 -59.5t55 -157.5q0 -80 -38 -168t-111 -166t-164 -117l-6 14q46 35 78.5 116t32.5 147q-87 0 -140 53t-53 137zM45 172q0 84 57.5 142.5t143.5 58.5q90 0 145 -59.5t55 -157.5q0 -80 -38 -168t-111 -166t-164 -117l-6 14
q46 35 78.5 116t32.5 147q-87 0 -140 53t-53 137z" />
    <glyph glyph-name="dagger" unicode="&#x2020;" horiz-adv-x="1325" 
d="M608 1579h105v-606h557v-96h-557v-1133h-105v1133h-557v96h557v606z" />
    <glyph glyph-name="daggerdbl" unicode="&#x2021;" horiz-adv-x="1325" 
d="M608 1579h105v-545h557v-96h-557v-565h557v-97h-557v-532h-105v532h-557v97h557v565h-557v96h557v545z" />
    <glyph glyph-name="bullet" unicode="&#x2022;" horiz-adv-x="839" 
d="M86 530q0 135 96.5 231.5t231.5 96.5q144 0 242 -96t98 -232q0 -145 -97.5 -242.5t-242.5 -97.5q-136 0 -232 98t-96 242z" />
    <glyph glyph-name="ellipsis" unicode="&#x2026;" horiz-adv-x="1546" 
d="M1102 172q0 83 59 142t142 59t141.5 -59t58.5 -142t-58.5 -142t-141.5 -59t-142 59t-59 142zM571 172q0 83 59 142t142 59t142 -59t59 -142t-59 -142t-142 -59t-142 59t-59 142zM41 172q0 83 59 142t142 59t141.5 -59t58.5 -142t-58.5 -142t-141.5 -59t-142 59t-59 142z
" />
    <glyph glyph-name="perthousand" unicode="&#x2030;" horiz-adv-x="2676" 
d="M2222 55q123 0 194.5 83t71.5 200q0 121 -75 203t-191 82t-191 -82t-75 -203q0 -117 71.5 -200t194.5 -83zM2222 -33q-159 0 -264 107t-105 264q0 159 101 265t268 106t268 -106t101 -265q0 -157 -105 -264t-264 -107zM1579 1706l-1133 -1706h-110l1128 1706h115z
M457 965q123 0 194.5 82.5t71.5 199.5q0 121 -75 203t-191 82t-191.5 -82t-75.5 -203q0 -117 72 -199.5t195 -82.5zM457 877q-159 0 -264 107t-105 263q0 159 101 265t268 106q166 0 267 -106t101 -265q0 -157 -104.5 -263.5t-263.5 -106.5zM1360 61q123 0 194.5 83
t71.5 200q0 121 -75 203t-191 82t-191 -82t-75 -203q0 -117 71.5 -200t194.5 -83zM1360 -27q-159 0 -264 107t-105 264q0 159 101 265t268 106t268 -106t101 -265q0 -157 -105 -264t-264 -107z" />
    <glyph glyph-name="guilsinglleft" unicode="&#x2039;" horiz-adv-x="530" 
d="M494 70l-478 430l476 432h24l-246 -430l246 -432h-22z" />
    <glyph glyph-name="guilsinglright" unicode="&#x203a;" horiz-adv-x="530" 
d="M516 500l-477 -430h-23l246 432l-246 430h25z" />
    <glyph glyph-name="fraction" unicode="&#x2044;" horiz-adv-x="1155" 
d="M1171 1618l-1075 -1618h-110l1071 1618h114z" />
    <glyph glyph-name="Euro" unicode="&#x20ac;" horiz-adv-x="1656" 
d="M-16 946v70h229q51 324 280.5 507t598.5 183q274 0 536 -133v-301h-26q-37 104 -91.5 177.5t-122.5 113.5t-140.5 57.5t-160.5 17.5q-101 0 -186.5 -36.5t-154.5 -110.5t-115 -194.5t-62 -280.5h508v-70h-512q-4 -78 -4 -119q0 -71 2 -104h514v-70h-506q34 -300 181 -457
t356 -157q69 0 125 9t115.5 35t106 70t88.5 118t71 175h28v-313q-150 -95 -281 -128.5t-269 -33.5q-157 0 -290.5 35.5t-231.5 97.5t-172.5 148.5t-119.5 186.5t-65 214h-229v70h221q-6 55 -6 111q0 38 4 112h-219z" />
    <glyph glyph-name="trademark" unicode="&#x2122;" horiz-adv-x="2158" 
d="M35 1372v301h852v-301h-25q-5 33 -8.5 51.5t-13.5 51.5t-21.5 53t-32.5 44.5t-47.5 38.5t-65.5 24t-87 10v-752q0 -55 27.5 -75.5t117.5 -20.5v-33h-538v33q89 0 116 20.5t27 75.5v752q-48 0 -87 -10t-65.5 -23.5t-47.5 -39t-32.5 -44.5t-21.5 -53.5t-13.5 -51
t-9.5 -51.5h-24zM1096 983l22 567q1 52 -26 70t-91 18v35h353l209 -534l188 534h344v-35q-59 0 -84 -16.5t-24 -58.5l28 -693q2 -37 23.5 -55t77.5 -18v-33h-451v33q58 0 79 18t21 55l-24 629l-266 -747h-13l-301 716l-18 -485q-4 -60 5.5 -99t31.5 -57t46 -24t60 -6v-33
h-344v33q35 0 59 6.5t46.5 25t34.5 57t14 97.5z" />
    <glyph glyph-name="Omega" unicode="&#x2126;" horiz-adv-x="1794" 
d="M1085 0v94q95 31 186 98t168.5 162.5t125 228.5t47.5 279q0 151 -44.5 278t-117 213t-166.5 146t-192 87.5t-195 27.5t-196 -27.5t-193.5 -87.5t-167.5 -144.5t-117.5 -208t-44.5 -269.5q0 -150 47.5 -285t125 -232t169.5 -164.5t189 -99.5v-96h-664v96h483
q-122 59 -225.5 181.5t-164 279.5t-60.5 311q0 181 64 338t174 266t260.5 171.5t320.5 62.5q135 0 260 -40.5t226 -117t176 -180t116 -235.5t41 -277q0 -153 -60 -307.5t-162 -274.5t-224 -178h483v-96h-668z" />
    <glyph glyph-name="partialdiff" unicode="&#x2202;" horiz-adv-x="1128" 
d="M543 1030q155 0 266.5 -92t159.5 -283q-15 164 -80 311t-172 261q-173 182 -432 264l34 94q209 -64 362.5 -189.5t248.5 -289.5q133 -232 133 -516q0 -96 -19 -185t-59.5 -168.5t-99.5 -138t-144.5 -93t-187.5 -34.5q-113 0 -206.5 44t-154 118.5t-93.5 169t-33 197.5
q0 120 40.5 221.5t107.5 168t152.5 103.5t176.5 37zM551 930q-73 0 -139 -29t-117.5 -82t-82 -135t-30.5 -180t31 -181t82.5 -137t118 -84t139.5 -30q96 0 172.5 34t123 92t71 130.5t24.5 152.5q0 84 -25 163t-72.5 143.5t-124 103.5t-171.5 39z" />
    <glyph glyph-name="Delta" unicode="&#x2206;" horiz-adv-x="1204" 
d="M600 1204l621 -1204h-1237zM602 995l-461 -899h922z" />
    <glyph glyph-name="product" unicode="&#x220f;" horiz-adv-x="1703" 
d="M127 1575v96h1450v-96h-178v-1755h178v-96h-461v96h178v1755h-884v-1755h178v-96h-461v96h178v1755h-178z" />
    <glyph glyph-name="summation" unicode="&#x2211;" horiz-adv-x="1409" 
d="M580 842l-541 831h1223v-471h-105v375h-919l469 -735l-504 -746h975v375h104v-471h-1278z" />
    <glyph glyph-name="minus" unicode="&#x2212;" horiz-adv-x="1101" 
d="M86 471v96h930v-96h-930z" />
    <glyph glyph-name="radical" unicode="&#x221a;" horiz-adv-x="1382" 
d="M25 715v96h329l242 -645l504 1642h504v-96h-424l-582 -1827l-319 830h-254z" />
    <glyph glyph-name="infinity" unicode="&#x221e;" horiz-adv-x="1579" 
d="M416 770q105 0 191.5 -48t185.5 -163q86 110 173.5 160.5t196.5 50.5q146 0 238 -83t92 -212q0 -131 -89.5 -214t-236.5 -83q-201 0 -374 223q-181 -221 -381 -221q-147 0 -236.5 82.5t-89.5 212.5t91.5 212.5t238.5 82.5zM420 276q85 0 158.5 47.5t150.5 151.5
q-77 99 -147 149t-156 50q-106 0 -167.5 -53t-61.5 -146q0 -86 60 -142.5t163 -56.5zM1167 276q95 0 155 55.5t60 143.5q0 87 -61.5 143t-171.5 56q-79 0 -146.5 -45t-146.5 -148q77 -103 150 -154t161 -51z" />
    <glyph glyph-name="integral" unicode="&#x222b;" horiz-adv-x="514" 
d="M209 -379v1839q0 45 5 78.5t21 67t44 54t76 33.5t114 13h20v-94q-106 0 -145 -30t-39 -122v-1839q0 -45 -5 -78.5t-21 -67t-44 -54t-76 -33.5t-114 -13h-20v95q107 0 145.5 29.5t38.5 121.5z" />
    <glyph glyph-name="approxequal" unicode="&#x2248;" horiz-adv-x="1316" 
d="M358 467q57 0 123 -21t126 -50.5t119.5 -59.5t120 -51t109.5 -21q63 0 110 38t85 128l88 -35q-38 -114 -112.5 -170.5t-168.5 -56.5q-71 0 -158.5 31.5t-155.5 69t-147 69t-137 31.5q-63 0 -110 -38.5t-84 -129.5l-88 39q38 114 112 170.5t168 56.5zM358 836
q57 0 123 -21t126 -51t119.5 -59.5t120 -50.5t109.5 -21q63 0 110 38t85 128l88 -35q-38 -114 -112.5 -170.5t-168.5 -56.5q-71 0 -158.5 31.5t-155.5 68.5t-147 68.5t-137 31.5q-63 0 -110 -38.5t-84 -129.5l-88 39q38 114 112.5 171t167.5 57z" />
    <glyph glyph-name="notequal" unicode="&#x2260;" horiz-adv-x="1101" 
d="M86 655v97h506l100 252h103l-101 -252h322v-97h-361l-108 -272h469v-96h-508l-115 -287h-102l115 287h-320v96h358l109 272h-467z" />
    <glyph glyph-name="lessequal" unicode="&#x2264;" horiz-adv-x="1206" 
d="M86 573v97l1034 360v-110l-913 -297l913 -330v-115zM109 0v98h1011v-98h-1011z" />
    <glyph glyph-name="greaterequal" unicode="&#x2265;" horiz-adv-x="1208" 
d="M1122 670v-97l-1034 -395v115l913 330l-913 297v110zM1100 98v-98h-1012v98h1012z" />
    <glyph glyph-name="lozenge" unicode="&#x25ca;" horiz-adv-x="1120" 
d="M553 -102l-508 870l508 889l522 -889zM961 768l-408 694l-393 -694l393 -682z" />
    <glyph glyph-name="fi" unicode="&#xfb01;" horiz-adv-x="1382" 
d="M895 158v645q0 75 -26 102t-113 27h-269v-766q0 -35 5 -55.5t22 -38.5t52.5 -25.5t92.5 -7.5v-39h-645v39q98 0 129 31t31 106v756h-162v53h162v197q0 136 39.5 238t112 162.5t167.5 90t214 29.5q68 0 144 -12t151.5 -36.5t124.5 -69.5t49 -103q0 -53 -36 -97.5
t-102 -44.5q-68 0 -110 33.5t-60 81t-33 95t-45.5 81t-82.5 33.5q-108 0 -164 -112.5t-56 -362.5v-203h721v-823q0 -65 31.5 -94t128.5 -29v-39h-633v39q160 0 160 119z" />
    <glyph glyph-name="fl" unicode="&#xfb02;" horiz-adv-x="1392" 
d="M885 162v1229q-40 16 -69.5 50t-46 71t-31 71.5t-34 57t-47.5 22.5q-91 0 -130.5 -109t-39.5 -366v-203h256v-53h-256v-766q0 -66 34.5 -96.5t133.5 -30.5v-39h-641v39q98 0 129 31t31 106v756h-162v53h162v197q0 136 36.5 238t103.5 162.5t152.5 90t190.5 29.5
q94 0 213 -29h328v-1511q0 -65 31.5 -94t128.5 -29v-39h-633v39q97 0 128.5 29t31.5 94z" />
    <glyph glyph-name="uniFB06" unicode="&#xfb06;" horiz-adv-x="1771" 
d="M483 16q74 0 120 54.5t46 126.5q0 66 -38.5 117.5t-123.5 74.5l-86 23q-311 83 -311 333q0 140 113 212.5t299 72.5q157 0 266 -43q-93 73 -143 175t-50 188q0 147 115 241.5t301 94.5q237 0 351 -116t114 -372v-213h320v-53h-320v-694q0 -152 123 -152q87 0 184 59
l15 -20q-82 -85 -164.5 -119.5t-179.5 -34.5q-130 0 -208.5 63.5t-78.5 178.5v719h-141v53h141v182q0 160 -26.5 250.5t-77 126t-136.5 35.5q-101 0 -174.5 -69.5t-73.5 -186.5q0 -68 36 -158t96 -166q11 -14 40.5 -41t44.5 -51t15 -55q0 -39 -29.5 -67.5t-77.5 -28.5
q-24 0 -43.5 6.5t-31.5 13.5t-25 24.5t-18.5 26.5t-17 33t-15.5 31q-25 45 -55 69.5t-84 24.5q-62 0 -100 -42.5t-38 -100.5q0 -60 38.5 -110.5t123.5 -74.5l86 -24q181 -51 255.5 -134t74.5 -200q0 -80 -36 -144t-98 -103.5t-140.5 -60t-167.5 -20.5q-202 0 -314 53.5
t-112 135.5q0 52 33.5 84t93.5 32q45 0 79 -27t55 -65t41 -76t48.5 -65t66.5 -27z" />
    <glyph glyph-name="acute.case" 
d="M758 2224l-471 -479h-21l137 479h355z" />
    <glyph glyph-name="breve.case" 
d="M760 2120h90q-9 -82 -39 -144t-66 -96t-82.5 -55t-81.5 -27t-69 -6t-69 6t-81.5 27t-82.5 55t-66 96t-39 144h92q22 -119 85.5 -179.5t162.5 -60.5q97 0 161 61t85 179z" />
    <glyph glyph-name="c_t" horiz-adv-x="1810" 
d="M569 -29q-127 0 -228.5 43t-165 117t-97 169t-33.5 204q0 167 74 290t198 183.5t281 60.5q130 0 240 -41q-104 73 -153.5 167.5t-49.5 185.5q0 149 105.5 242.5t289.5 93.5q237 0 351 -116t114 -372v-213h320v-53h-320v-694q0 -152 123 -152q87 0 184 59l15 -20
q-82 -85 -164.5 -119.5t-179.5 -34.5q-130 0 -208.5 63.5t-78.5 178.5v719h-142v53h142v182q0 160 -26.5 250.5t-77 126t-136.5 35.5q-99 0 -163 -68.5t-64 -187.5q0 -63 28 -136t82 -140q16 -21 59 -58t69 -71t26 -70q0 -44 -32.5 -74.5t-88.5 -30.5q-38 0 -66.5 13.5
t-44.5 35t-28.5 47.5t-23 52t-23 47.5t-33.5 35t-49 13.5q-96 0 -158.5 -124.5t-62.5 -297.5q0 -92 16.5 -170.5t50.5 -143t93.5 -101.5t138.5 -37q188 0 297 161l22 -14q-68 -154 -172 -221.5t-250 -67.5z" />
    <glyph glyph-name="caron.case" 
d="M512 2032l346 225h21l-367 -512l-367 512h21z" />
    <glyph glyph-name="cedilla.case" 
d="M463 -8h61l-108 -160q62 45 133 45q62 0 104.5 -36.5t42.5 -96.5q0 -80 -62 -140t-144 -87t-162 -27l-2 12q93 16 148.5 86.5t55.5 139.5q0 35 -17 56t-48 21q-22 0 -59 -16l-50 39z" />
    <glyph glyph-name="circumflex.case" 
d="M512 1970l-346 -225h-21l367 512l367 -512h-21z" />
    <glyph glyph-name="commaaccent" horiz-adv-x="765" 
d="M213 -244q0 71 48.5 121.5t121.5 50.5q76 0 123 -51t47 -135q0 -67 -32 -142t-94 -141t-140 -100l-4 12q39 31 66.5 99t27.5 124q-74 0 -119 45.5t-45 116.5z" />
    <glyph glyph-name="dieresis.case" 
d="M0 1993q0 77 54 130.5t130 53.5q77 0 131 -54t54 -130q0 -77 -54.5 -131t-130.5 -54t-130 54t-54 131zM655 1993q0 76 54 130t131 54q76 0 130 -53.5t54 -130.5t-54 -131t-130 -54t-130.5 54t-54.5 131z" />
    <glyph glyph-name="dot" horiz-adv-x="712" 
d="M156 1473q0 83 58.5 141.5t141.5 58.5t142 -58.5t59 -141.5t-59 -142t-142 -59t-141.5 59t-58.5 142z" />
    <glyph glyph-name="dotaccent.case" 
d="M328 1993q0 77 54 130.5t130 53.5t130 -53.5t54 -130.5t-54 -131t-130 -54t-130 54t-54 131z" />
    <glyph glyph-name="dotaccent.low" horiz-adv-x="811" 
d="M221 -340q0 76 54 130t131 54q76 0 130 -54t54 -130t-54 -130t-130 -54q-77 0 -131 54t-54 130z" />
    <glyph glyph-name="eight.pof" horiz-adv-x="1296" 
d="M86 371q0 276 401 415l-55 39q-138 91 -206 211.5t-68 243.5q0 171 128 277t376 106q231 0 361 -77t130 -212q0 -236 -416 -407l127 -76q346 -199 346 -455q0 -94 -35.5 -176.5t-104 -148t-180 -103t-253.5 -37.5q-115 0 -214 25t-175 73.5t-119 126t-43 175.5zM715 643
q-116 75 -203 129q-73 -64 -101 -150.5t-28 -199.5q0 -85 14 -153.5t44 -123.5t83 -85.5t125 -30.5q108 0 178 91t70 212q0 95 -43 171t-139 140zM455 1350q0 -217 241 -363q83 68 124.5 144t41.5 176q0 83 -20 148.5t-66 108t-114 42.5q-90 0 -148.5 -66.5t-58.5 -189.5z
" />
    <glyph glyph-name="five.pof" horiz-adv-x="1021" 
d="M115 209l-35 12l268 764h561l-28 -237h-531l-137 -373q122 127 330 127q187 0 286 -101.5t99 -285.5q0 -457 -895 -811l-8 22q221 121 343 229t173 224t51 274q0 127 -56 203t-174 76q-134 0 -247 -123z" />
    <glyph glyph-name="four.pof" horiz-adv-x="1320" 
d="M930 0v-465q0 -96 96 -96h64v-39h-627v39h63q97 0 97 96v465h-619l914 1067h22v-893h147q79 0 118.5 34.5t58.5 135.5h32v-344h-366zM246 174h383v449z" />
    <glyph glyph-name="grave.case" 
d="M700 1745l-395 479h334l82 -479h-21z" />
    <glyph glyph-name="hungarumlaut.case" 
d="M543 2224l-471 -479h-21l137 479h355zM971 2224l-471 -479h-21l137 479h355z" />
    <glyph glyph-name="macron.case" 
d="M160 1853v97h704v-97h-704z" />
    <glyph glyph-name="nine.pof" horiz-adv-x="1345" 
d="M217 -698q134 57 247 148t195 202.5t140 231.5t96 253q-59 -82 -143 -125t-179 -43q-71 0 -139 18.5t-132 60.5t-112 102t-77 149.5t-29 196.5q0 111 43 209t120 170.5t191.5 114.5t249.5 42q283 0 428.5 -173t145.5 -470q0 -189 -83 -368.5t-226 -321.5t-328.5 -252
t-395.5 -176zM670 72q37 0 64.5 3.5t76.5 28.5t90 72q33 132 33 301q0 95 -12 178.5t-38.5 157.5t-75 117t-114.5 43q-90 0 -152.5 -62.5t-91 -168t-28.5 -248.5q0 -128 24 -219.5t81 -147t143 -55.5z" />
    <glyph glyph-name="ogonek.case" 
d="M705 -420l6 -16q-93 -60 -189 -60q-86 0 -147.5 43t-61.5 129q0 171 297 326h21q-56 -41 -99 -120.5t-43 -151.5q0 -68 41 -115t107 -47q33 0 68 12z" />
    <glyph glyph-name="one.pof" horiz-adv-x="667" 
d="M485 856v-721q0 -96 97 -96h63v-39h-627v39h64q96 0 96 96v721q0 96 -96 96h-64v39h627v-39h-63q-97 0 -97 -96z" />
    <glyph glyph-name="ring.case" 
d="M721 2005q0 -84 -61 -142.5t-148 -58.5t-148 58.5t-61 142.5t61 142.5t148 58.5t148 -58.5t61 -142.5zM643 2005q0 58 -38.5 95.5t-92.5 37.5q-56 0 -92.5 -38.5t-36.5 -94.5t36.5 -94.5t92.5 -38.5q60 0 95.5 38t35.5 95z" />
    <glyph glyph-name="s_p" horiz-adv-x="2246" 
d="M1419 1147v-277q59 93 135 132.5t179 39.5q206 0 337.5 -149.5t131.5 -376.5q0 -152 -54 -274t-164 -196.5t-260 -74.5q-104 0 -177 41.5t-128 132.5v-596q0 -56 31.5 -83t128.5 -27v-39h-633v39q97 0 128.5 27t31.5 83v1616q0 165 -19 252t-64 124.5t-130 37.5
q-101 0 -173.5 -67.5t-72.5 -184.5q0 -66 37 -155t98 -164q11 -14 43 -43t49 -55t17 -58q0 -39 -29 -67.5t-78 -28.5q-17 0 -32 3.5t-25.5 8t-22 15t-18 17t-16 21.5t-13 22l-12.5 25t-12 23q-25 45 -55 69.5t-84 24.5q-62 0 -100 -42.5t-38 -100.5q0 -60 38.5 -110.5
t123.5 -74.5l86 -24q181 -51 255.5 -134t74.5 -200q0 -80 -36 -144t-98 -103.5t-140.5 -60t-167.5 -20.5q-202 0 -314 53.5t-112 135.5q0 52 33.5 84t93.5 32q45 0 79 -27t55 -65t41 -76t48.5 -65t66.5 -27q74 0 120 54.5t46 126.5q0 66 -38.5 117.5t-123.5 74.5l-86 23
q-311 83 -311 333q0 140 113 212.5t299 72.5q157 0 266 -43q-96 76 -151.5 180t-55.5 187q0 147 115 239.5t301 92.5q237 0 339.5 -121t102.5 -418zM1593 901q-108 0 -174 -59v-664q64 -76 183 -76q129 0 200.5 112t71.5 302q0 189 -76.5 287t-204.5 98z" />
    <glyph glyph-name="s_t" horiz-adv-x="1771" 
d="M483 16q74 0 120 54.5t46 126.5q0 66 -38.5 117.5t-123.5 74.5l-86 23q-311 83 -311 333q0 140 113 212.5t299 72.5q157 0 266 -43q-93 73 -143 175t-50 188q0 147 115 241.5t301 94.5q237 0 351 -116t114 -372v-213h320v-53h-320v-694q0 -152 123 -152q87 0 184 59
l15 -20q-82 -85 -164.5 -119.5t-179.5 -34.5q-130 0 -208.5 63.5t-78.5 178.5v719h-141v53h141v182q0 160 -26.5 250.5t-77 126t-136.5 35.5q-101 0 -174.5 -69.5t-73.5 -186.5q0 -68 36 -158t96 -166q11 -14 40.5 -41t44.5 -51t15 -55q0 -39 -29.5 -67.5t-77.5 -28.5
q-24 0 -43.5 6.5t-31.5 13.5t-25 24.5t-18.5 26.5t-17 33t-15.5 31q-25 45 -55 69.5t-84 24.5q-62 0 -100 -42.5t-38 -100.5q0 -60 38.5 -110.5t123.5 -74.5l86 -24q181 -51 255.5 -134t74.5 -200q0 -80 -36 -144t-98 -103.5t-140.5 -60t-167.5 -20.5q-202 0 -314 53.5
t-112 135.5q0 52 33.5 84t93.5 32q45 0 79 -27t55 -65t41 -76t48.5 -65t66.5 -27z" />
    <glyph glyph-name="seven.pof" horiz-adv-x="1161" 
d="M25 -502l929 1250h-514q-134 0 -199 -40.5t-85 -150.5h-21v428h1043l-951 -1612z" />
    <glyph glyph-name="six.pof" horiz-adv-x="1325" 
d="M1108 1702q-134 -57 -247 -148t-195 -203t-140 -232t-96 -253q59 82 143 125t179 43q71 0 139 -18.5t132 -60t112 -101.5t77 -149.5t29 -196.5q0 -111 -43 -209t-120 -171t-191.5 -115t-249.5 -42q-283 0 -428.5 173t-145.5 470q0 189 83 368.5t226 322t328.5 252.5
t395.5 176zM655 932q-36 0 -64 -4t-77 -29t-90 -72q-33 -132 -33 -301q0 -95 12 -178.5t38.5 -157t75 -116.5t114.5 -43q90 0 152.5 62.5t91 168t28.5 248.5q0 128 -24 219.5t-81 147t-143 55.5z" />
    <glyph glyph-name="three.pof" horiz-adv-x="999" 
d="M250 221l-6 15q188 86 287.5 213.5t99.5 279.5q0 99 -49 160t-138 61q-69 0 -137 -31t-123 -85l-14 16q142 180 412 180q100 0 174.5 -23t114.5 -61.5t58.5 -81.5t18.5 -90q0 -71 -44.5 -144t-114 -130.5t-152 -101t-162.5 -64.5q126 -9 222.5 -47t154 -96t86.5 -127.5
t29 -147.5q0 -63 -21.5 -129t-68 -130t-112.5 -114t-164 -81t-214 -31q-254 0 -403 143l16 18q67 -43 147 -65.5t152 -22.5q157 0 248.5 104t91.5 275q0 148 -94.5 243t-294.5 95z" />
    <glyph glyph-name="tilde.case" 
d="M852 2128l92 117l14 -9l-96 -350h-692l-92 -117l-15 9l97 350h692z" />
    <glyph glyph-name="two.pof" horiz-adv-x="1067" 
d="M1063 0h-1049q654 452 654 729q0 205 -197 205q-70 0 -130 -25.5t-134 -101.5l-21 18q141 209 461 209q177 0 265.5 -69.5t88.5 -184.5q0 -45 -20 -91.5t-52.5 -87.5t-81.5 -84t-98 -78.5t-111.5 -74t-113 -67.5t-110.5 -63q-35 -20 -52 -29h420q123 0 175.5 33.5
t74.5 126.5h31v-365z" />
    <glyph glyph-name="zero.pof" horiz-adv-x="1257" 
d="M635 1030q157 0 272 -71t171.5 -189t56.5 -268q0 -226 -144 -378.5t-368 -152.5q-150 0 -264.5 69t-175 189.5t-60.5 272.5q0 148 59.5 266.5t177 190t275.5 71.5zM629 100q165 0 262.5 112t97.5 290q0 168 -98.5 285.5t-261.5 117.5q-158 0 -259.5 -115.5t-101.5 -287.5
q0 -79 23 -150.5t66.5 -128t113.5 -90t158 -33.5z" />
    </font>
</defs>
</svg>
