<?xml version="1.0" standalone="no"?>
<!DOCTYPE svg PUBLIC "-//W3C//DTD SVG 1.1//EN" "http://www.w3.org/Graphics/SVG/1.1/DTD/svg11.dtd" >
<svg xmlns="http://www.w3.org/2000/svg" xmlns:xlink="http://www.w3.org/1999/xlink" version="1.1">
<metadata>
Created by FontForge 20170731 at Fri Jul 29 13:45:16 2022
 By Aleksey,,,
Copyright (c) 2014 Swiss Typefaces. All rights reserved.
</metadata>
<defs>
<font id="RomainHeadline-RegularItalic" horiz-adv-x="903" >
  <font-face 
    font-family="Romain Headline"
    font-weight="400"
    font-style="italic"
    font-stretch="normal"
    units-per-em="2048"
    panose-1="2 2 0 0 0 0 0 0 0 0"
    ascent="1638"
    descent="-410"
    x-height="985"
    cap-height="1673"
    bbox="-522 -711 2742 2247"
    underline-thickness="61"
    underline-position="-367"
    slope="-9"
    unicode-range="U+0020-FB06"
  />
<missing-glyph horiz-adv-x="1427" 
d="M205 0v1612h1018v-1612h-1018zM229 1591v-1571h969v1571h-969z" />
    <glyph glyph-name="f_f" unicode="ff" horiz-adv-x="1263" 
d="M684 -55l137 987h-334l-165 -1006q-21 -126 -62 -224.5t-90 -158.5t-109.5 -99t-116 -54t-112.5 -15q-65 0 -126.5 15.5t-105.5 49t-44 77.5q0 37 25.5 60.5t60.5 23.5q34 0 60.5 -19t43 -46.5t31.5 -54.5t37.5 -46t50.5 -19q25 0 51 12.5t56.5 46t57 84.5t52 135
t43.5 191l174 1047h-195l15 53h188l12 72q21 126 64 225.5t94 160.5t113.5 100.5t119.5 55t115 15.5q134 0 219 -51q136 125 312 125q64 0 126 -15t106 -47t44 -74q0 -41 -25.5 -65.5t-60.5 -24.5q-34 0 -60.5 19.5t-43 46.5t-31.5 54.5t-37.5 47t-50.5 19.5
q-25 0 -53.5 -13t-62.5 -47.5t-63.5 -85.5t-55.5 -135.5t-41 -189.5l-27 -193h330l-13 -53h-325l-131 -946q-20 -145 -53 -254.5t-72 -176.5t-88.5 -108t-97.5 -56.5t-105 -15.5q-97 0 -165.5 37.5t-68.5 100.5q0 41 24.5 64.5t59.5 23.5q42 0 66.5 -29t33 -63.5t29 -63.5
t54.5 -29q41 0 70 41.5t57.5 157.5t58.5 330zM496 985h333l21 145q23 170 88 291q-19 19 -42 61t-46 67.5t-57 25.5q-32 0 -68.5 -23.5t-76.5 -74t-75.5 -147.5t-56.5 -226z" />
    <glyph glyph-name="f_f_i" unicode="ffi" horiz-adv-x="1701" 
d="M104 932l15 53h188l12 72q21 126 64 225.5t94 160.5t113.5 100.5t119.5 55t115 15.5q134 0 219 -51q136 125 312 125q66 0 128.5 -15t109 -50t46.5 -83q0 -41 -26 -69.5t-76 -28.5q-42 0 -71.5 32.5t-44 71t-40 71t-59.5 32.5q-25 0 -53.5 -13t-62.5 -47.5t-63.5 -85.5
t-55.5 -135.5t-41 -189.5l-27 -193h541l-136 -754q-10 -31 -7 -98t32 -67q45 0 162 145l28 -21q-76 -110 -136.5 -164.5t-135.5 -54.5q-92 0 -124.5 61t-10.5 183l131 717h-352l-131 -946q-20 -145 -53 -254.5t-72 -176.5t-88.5 -108t-97.5 -56.5t-105 -15.5
q-97 0 -165.5 37.5t-68.5 100.5q0 41 24.5 64.5t59.5 23.5q42 0 66.5 -29t33 -63.5t29 -63.5t54.5 -29q41 0 70 41.5t57.5 157.5t58.5 330l137 987h-334l-165 -1006q-21 -126 -62 -224.5t-90 -158.5t-109.5 -99t-116 -54t-112.5 -15q-48 0 -95.5 8.5t-88.5 25t-66.5 44.5
t-25.5 62q0 37 24.5 61.5t61.5 24.5q34 0 60.5 -19t43 -46.5t31.5 -54.5t37.5 -46t50.5 -19q25 0 51 12.5t56.5 46t57 84.5t52 135t43.5 191l174 1047h-195zM850 1130q23 170 88 291q-19 19 -42 61t-46 67.5t-57 25.5q-32 0 -68.5 -23.5t-76.5 -74t-75.5 -147.5t-56.5 -226
l-20 -119h333z" />
    <glyph glyph-name="f_f_l" unicode="ffl" horiz-adv-x="1742" 
d="M104 932l15 53h188l12 72q21 126 64 225.5t94 160.5t113.5 100.5t119.5 55t115 15.5q134 0 219 -51q136 125 312 125q74 0 166 -15h153l-205 -1442q-2 -14 -6 -41q-12 -55 -10 -87.5t27 -32.5q23 0 70.5 38t103.5 109l26 -20q-38 -57 -63 -89.5t-59.5 -68.5t-70 -52
t-75.5 -16q-84 0 -117 60.5t-18 169.5l184 1300q-23 16 -41 43.5t-28 49.5t-27.5 38.5t-42.5 16.5t-53.5 -13t-62.5 -47.5t-63.5 -85.5t-55.5 -135.5t-41 -189.5l-27 -193h287l-13 -53h-282l-131 -946q-20 -145 -53 -254.5t-72 -176.5t-88.5 -108t-97.5 -56.5t-105 -15.5
q-97 0 -165.5 37.5t-68.5 100.5q0 41 24.5 64.5t59.5 23.5q42 0 66.5 -29t33 -63.5t29 -63.5t54.5 -29q41 0 70 41.5t57.5 157.5t58.5 330l137 987h-334l-165 -1006q-21 -126 -62 -224.5t-90 -158.5t-109.5 -99t-116 -54t-112.5 -15q-65 0 -126.5 15.5t-105.5 49t-44 77.5
q0 37 25.5 60.5t60.5 23.5q34 0 60.5 -19t43 -46.5t31.5 -54.5t37.5 -46t50.5 -19q25 0 51 12.5t56.5 46t57 84.5t52 135t43.5 191l174 1047h-195zM496 985h333l21 145q23 170 88 291q-19 19 -42 61t-46 67.5t-57 25.5q-32 0 -68.5 -23.5t-76.5 -74t-75.5 -147.5t-56.5 -226
z" />
    <glyph glyph-name="f_i" unicode="fi" horiz-adv-x="1153" 
d="M104 932l15 53h160l20 145q18 127 59.5 226.5t93 160.5t115.5 101t122 55t116 15q66 0 129 -15t109.5 -50t46.5 -83q0 -41 -26.5 -69.5t-76.5 -28.5q-42 0 -71.5 32.5t-44 71t-40 71t-59.5 32.5q-25 0 -53.5 -13t-62.5 -47.5t-63.5 -85.5t-55.5 -135.5t-41 -189.5
l-27 -193h541l-136 -754q-10 -31 -7 -98t32 -67q45 0 162 145l29 -21q-75 -110 -136.5 -164.5t-136.5 -54.5q-92 0 -124.5 61t-10.5 183l131 717h-352l-139 -1006q-18 -126 -58 -225t-89.5 -159t-111 -99t-117.5 -53.5t-114 -14.5q-103 0 -188 35t-88 96q0 42 25.5 68.5
t60.5 26.5q34 0 60.5 -19t43 -46.5t31.5 -54.5t37.5 -46t50.5 -19q33 0 67.5 22t72 71.5t70 146.5t50.5 229l145 1047h-166z" />
    <glyph glyph-name="f_l" unicode="fl" horiz-adv-x="1191" 
d="M1124 1673l-204 -1442q-2 -16 -7 -44q-11 -54 -9 -85.5t26 -31.5q23 0 70.5 38t103.5 109l26 -20q-38 -57 -63 -89.5t-59.5 -68.5t-70 -52t-75.5 -16q-84 0 -117 60.5t-18 169.5l184 1300q-23 16 -41 43.5t-28 49.5t-27.5 38.5t-42.5 16.5t-53.5 -13t-62.5 -47.5
t-63.5 -85.5t-55.5 -135.5t-41 -189.5l-27 -193h287l-13 -53h-282l-139 -1006q-18 -126 -58 -225t-89.5 -159t-111 -99t-117.5 -53.5t-114 -14.5q-103 0 -188 35t-88 96q0 42 25.5 68.5t60.5 26.5q34 0 60.5 -19t43 -46.5t31.5 -54.5t37.5 -46t50.5 -19q33 0 67.5 22
t72 71.5t70 146.5t50.5 229l145 1047h-166l15 53h160l20 145q18 127 59.5 226.5t93 160.5t115.5 101t122 55t116 15q74 0 166 -15h153z" />
    <glyph glyph-name=".notdef" horiz-adv-x="1427" 
d="M205 0v1612h1018v-1612h-1018zM229 1591v-1571h969v1571h-969z" />
    <glyph glyph-name=".null" horiz-adv-x="0" 
 />
    <glyph glyph-name="nonmarkingreturn" horiz-adv-x="682" 
 />
    <glyph glyph-name="NULL" horiz-adv-x="389" 
 />
    <glyph glyph-name="NULL" horiz-adv-x="389" 
 />
    <glyph glyph-name="space" unicode=" " horiz-adv-x="389" 
 />
    <glyph glyph-name="exclam" unicode="!" horiz-adv-x="509" 
d="M252 1671q130 47 248 0q-49 -261 -165 -709.5t-149 -592.5h-36q20 215 50.5 650.5t51.5 651.5zM0 104q0 56 39 95t94 39t94 -39t39 -95t-39 -94.5t-94 -38.5t-94 38.5t-39 94.5z" />
    <glyph glyph-name="quotedbl" unicode="&#x22;" horiz-adv-x="694" 
d="M457 1147l-21 450h191l-123 -450h-47zM158 1147l-21 450h191l-123 -450h-47z" />
    <glyph glyph-name="numbersign" unicode="#" horiz-adv-x="1732" 
d="M287 1049l55 88h371l301 536h104l-301 -536h449l301 536h104l-301 -536h352l-55 -88h-346l-270 -486h391l-56 -88h-385l-266 -475h-104l266 475h-448l-267 -475h-104l266 475h-338l55 88h332l271 486h-377zM768 1049l-270 -486h448l271 486h-449z" />
    <glyph glyph-name="dollar" unicode="$" horiz-adv-x="1357" 
d="M731 1710l29 178h86l-29 -182q110 -9 214 -49t163 -96l-39 -261h-20q-36 152 -120.5 237.5t-207.5 104.5l-105 -655l17 -10q22 -14 62.5 -38t69.5 -41.5t68.5 -45t67.5 -52t58.5 -59.5t49 -70.5t30.5 -81t12 -95.5q0 -156 -79 -276t-213.5 -183.5t-301.5 -63.5h-2
l-29 -182h-86l29 186q-248 15 -435 142l43 299h21q39 -191 131 -275.5t252 -93.5l119 746l-115 69q-143 86 -203.5 188.5t-60.5 225.5q0 194 139.5 310.5t384.5 123.5zM909 387q0 113 -59 195.5t-186 162.5l-111 -700q159 8 257.5 100t98.5 242zM418 1352q0 -79 39.5 -156
t130.5 -135l37 -25l96 611q-132 -7 -217.5 -80t-85.5 -215z" />
    <glyph glyph-name="percent" unicode="%" horiz-adv-x="1847" 
d="M1686 1673l-1375 -1673h-104l1370 1673h109zM504 934q130 0 209.5 99.5t79.5 230.5q0 107 -61.5 178t-172.5 71q-121 0 -206 -95t-85 -232q0 -49 14 -93t41.5 -80.5t74 -57.5t106.5 -21zM500 850q-158 0 -243 93.5t-85 232.5q0 185 110.5 302t284.5 117q108 0 183.5 -45
t109 -115t33.5 -157q0 -112 -49.5 -210t-141 -158t-202.5 -60zM1253 55q130 0 209.5 99.5t79.5 230.5q0 107 -61 178.5t-172 71.5q-121 0 -206 -95.5t-85 -232.5q0 -67 23 -122t78 -92.5t134 -37.5zM1249 -29q-158 0 -242.5 93.5t-84.5 232.5q0 186 110.5 303t284.5 117
q108 0 183.5 -45.5t108.5 -115.5t33 -157q0 -112 -49.5 -210t-141 -158t-202.5 -60z" />
    <glyph glyph-name="ampersand" unicode="&#x26;" horiz-adv-x="1726" 
d="M1296 1448q0 -65 -34.5 -132t-91.5 -122t-125 -99.5t-140 -74.5l287 -399q32 96 75.5 166.5t83.5 107.5t87 58.5t77.5 26.5t63.5 5q63 0 105 -24t42 -68q0 -40 -29 -65t-67 -25q-36 0 -88 24.5t-80 24.5q-27 0 -51 -9t-54.5 -35t-66 -81t-73.5 -139l172 -238
q90 -123 90 -229q0 -196 -332 -307l-10 16q161 90 161 211q0 91 -98 225l-80 107q-114 -216 -261 -309t-337 -93q-92 0 -168 25t-126.5 66t-85.5 97t-50.5 116t-15.5 124q0 218 164.5 360t445.5 195q-149 201 -149 371q0 174 122 276.5t324 102.5q134 0 223.5 -70.5
t89.5 -185.5zM627 78q57 0 114.5 16t120.5 52t124 102.5t110 157.5l-391 522q-195 -66 -300.5 -192t-105.5 -312q0 -148 93.5 -247t234.5 -99zM858 1087l31 -45q115 67 200 176.5t85 225.5q0 86 -51.5 153.5t-131.5 67.5q-65 0 -113.5 -24t-76 -65.5t-40.5 -89.5t-13 -102
q0 -148 110 -297z" />
    <glyph glyph-name="quotesingle" unicode="'" horiz-adv-x="395" 
d="M129 1147l-20 450h190l-123 -450h-47z" />
    <glyph glyph-name="parenleft" unicode="(" horiz-adv-x="696" 
d="M748 1686h110q-303 -266 -469 -628t-166 -736q0 -270 74 -519.5t217 -402.5h-113q-134 145 -205 389.5t-71 515.5q0 255 74.5 511t216 482.5t332.5 387.5z" />
    <glyph glyph-name="parenright" unicode=")" horiz-adv-x="704" 
d="M199 1686h110q127 -146 195.5 -391.5t68.5 -503.5q0 -387 -174.5 -768t-466.5 -623h-112q304 259 478.5 625.5t174.5 742.5q0 256 -70 510t-204 408z" />
    <glyph glyph-name="asterisk" unicode="*" horiz-adv-x="753" 
d="M469 1649l-43 -254l244 131l39 -74l-248 -129l209 -127l-54 -78l-213 135l-38 -264h-89l41 246l-229 -123l-37 74l242 127l-207 127l53 78l203 -132l39 263h88z" />
    <glyph glyph-name="plus" unicode="+" horiz-adv-x="1134" 
d="M592 999h94l-70 -434h443l-15 -86h-442l-70 -444h-94l70 444h-434l14 86h434z" />
    <glyph glyph-name="comma" unicode="," horiz-adv-x="495" 
d="M252 -29q-48 14 -79.5 48.5t-31.5 80.5q0 59 37.5 98.5t100.5 39.5q64 0 97.5 -44.5t33.5 -109.5q0 -62 -34.5 -120t-88 -100.5t-107.5 -72t-104 -45.5l-6 14q59 35 115 94.5t67 116.5z" />
    <glyph glyph-name="hyphen" unicode="-" horiz-adv-x="806" 
d="M94 479l15 86h602l-15 -86h-602z" />
    <glyph glyph-name="period" unicode="." horiz-adv-x="466" 
d="M100 104q0 56 39 95t94 39t94.5 -39t39.5 -95q0 -55 -39 -94t-95 -39q-55 0 -94 38.5t-39 94.5z" />
    <glyph glyph-name="slash" unicode="/" horiz-adv-x="796" 
d="M936 1704l-981 -1772h-98l981 1772h98z" />
    <glyph glyph-name="zero" unicode="0" horiz-adv-x="1413" 
d="M319 512q0 -242 78 -364.5t187 -122.5q82 0 160.5 58.5t138.5 156.5t106 219.5t70 252.5t24 251q0 247 -78 372t-192 125q-85 0 -164 -59.5t-137.5 -158.5t-103 -222t-67 -255t-22.5 -253zM111 610q0 168 53.5 331t144.5 289.5t223.5 204.5t280.5 78q231 0 357 -168
t126 -464q0 -137 -33.5 -271.5t-97 -249t-148.5 -203t-196 -138.5t-231 -50q-220 0 -349.5 172.5t-129.5 468.5z" />
    <glyph glyph-name="one" unicode="1" horiz-adv-x="749" 
d="M223 229l174 1098q-103 -16 -266 10l4 23q243 44 447 153h32l-202 -1280q-17 -110 12 -150t131 -40h68l-7 -43h-675l6 43h67q104 0 147 38t62 148z" />
    <glyph glyph-name="two" unicode="2" horiz-adv-x="1212" 
d="M-111 0l-4 12q67 55 169 134t179 138t172 137.5t165 143t140.5 143.5t115 149.5t72.5 150t28 155.5q0 107 -71 174.5t-187 67.5q-143 0 -244 -79t-133 -218l-35 2q28 183 164.5 293t335.5 110q172 0 284.5 -89t112.5 -240q0 -270 -353 -566q-182 -153 -551 -379
q-27 -16 -120 -73h500q68 0 111 2.5t88 12.5t73.5 27.5t57.5 48t52 74.5t46 107h22l-69 -438h-1121z" />
    <glyph glyph-name="three" unicode="3" horiz-adv-x="1196" 
d="M651 1407q-109 0 -210 -52t-156 -157l-25 10q39 90 97 153t126 94.5t130 44.5t130 13q150 0 241 -71.5t91 -175.5q0 -250 -446 -410q101 -8 180 -41.5t126.5 -84.5t72 -113t24.5 -132q0 -108 -42 -202t-118.5 -163.5t-190.5 -109t-251 -39.5q-103 0 -201.5 35t-160.5 94
t-62 125q0 49 24 73t64 24q21 0 37 -8t26 -18.5t18.5 -30t12.5 -33.5t9 -37q20 -80 78.5 -129.5t158.5 -49.5q112 0 200.5 58.5t135.5 154.5t47 209q0 138 -89 221.5t-228 83.5q-73 0 -140 -20l5 29q221 79 362 210t141 263q0 79 -59 130.5t-158 51.5z" />
    <glyph glyph-name="four" unicode="4" horiz-adv-x="1325" 
d="M1022 1556l-152 -948h99q90 0 146.5 26.5t87 73t59.5 132.5h20l-61 -385h-375l-35 -222q-18 -111 9 -150.5t128 -39.5h68l-8 -43h-678l8 43h70q105 0 150.5 38.5t64.5 147.5l36 226h-706l-2 14l1057 1087h14zM786 1237l-620 -629h518z" />
    <glyph glyph-name="five" unicode="5" horiz-adv-x="1153" 
d="M1157 1575l-88 -283h-657l-160 -454q74 52 171.5 83t197.5 31q185 0 294 -109.5t109 -277.5q0 -128 -49.5 -239.5t-134 -188.5t-199 -121.5t-240.5 -44.5q-102 0 -202 36.5t-164 97.5t-64 126q0 49 28 75t67 26q20 0 36 -7.5t25.5 -16.5t19 -29t13.5 -31.5t11.5 -39
t10.5 -36.5q20 -64 77 -106.5t157 -42.5q157 0 271 136t114 339q0 131 -73 220t-204 89q-97 0 -203.5 -41t-179.5 -117l-14 4l283 822h510q87 0 137 22.5t80 77.5h20z" />
    <glyph glyph-name="six" unicode="6" horiz-adv-x="1314" 
d="M1161 1563l13 -35q-341 -120 -532.5 -311.5t-281.5 -471.5q27 47 62 88t83.5 79.5t114 60.5t138.5 22q61 0 119 -15.5t111 -49t92.5 -81.5t63 -118t23.5 -153q0 -125 -46 -238t-124.5 -193.5t-187.5 -128t-229 -47.5q-226 0 -358 140.5t-132 392.5q0 155 60.5 303
t164.5 268t240.5 219.5t291.5 167t314 101.5zM688 905q-75 0 -141 -30t-113.5 -80t-82 -114.5t-51.5 -133.5t-17 -137q0 -177 80 -282t215 -105q107 0 193 74.5t132.5 197.5t46.5 268q0 150 -71 246t-191 96z" />
    <glyph glyph-name="seven" unicode="7" horiz-adv-x="1089" 
d="M1022 1292h-588q-115 0 -182.5 -49.5t-106.5 -159.5h-24l63 392h992l14 -19l-1180 -1665l-151 94z" />
    <glyph glyph-name="eight" unicode="8" horiz-adv-x="1214" 
d="M238 1130q0 81 31.5 151.5t91 124.5t153 85t209.5 31q185 0 294 -74t109 -184q0 -142 -113.5 -248t-320.5 -162l105 -90q66 -57 104.5 -95.5t76 -87t53.5 -99t16 -109.5q0 -167 -153.5 -283.5t-395.5 -116.5q-203 0 -340.5 97.5t-137.5 253.5q0 154 112 255.5t333 168.5
l-25 20q-95 80 -148.5 174t-53.5 188zM190 315q0 -131 86.5 -208.5t225.5 -77.5q156 0 240.5 70.5t84.5 197.5q0 74 -40.5 143t-141.5 154l-158 133q-297 -131 -297 -412zM963 1264q0 90 -64.5 147t-183.5 57q-124 0 -201.5 -69t-77.5 -191q0 -84 57.5 -158.5t165.5 -166.5
l11 -11q137 60 215 159t78 233z" />
    <glyph glyph-name="nine" unicode="9" horiz-adv-x="1314" 
d="M104 -78l-12 35q341 120 532 311t281 471q-27 -47 -62 -88t-83.5 -79.5t-113.5 -60.5t-138 -22q-61 0 -119 16t-111 50.5t-93 84t-63.5 123t-23.5 161.5q0 159 78.5 295t213.5 215t294 79q227 0 359.5 -140t132.5 -392q0 -130 -42.5 -255.5t-118 -231.5t-177.5 -200
t-221.5 -166.5t-250 -125t-262.5 -80.5zM578 580q75 0 141 30t113.5 80t82 114.5t51.5 133.5t17 137q0 177 -80 282t-215 105q-107 0 -193 -74.5t-133 -197.5t-47 -268q0 -150 71 -246t192 -96z" />
    <glyph glyph-name="colon" unicode=":" horiz-adv-x="542" 
d="M225 899q0 55 38.5 94t94.5 39t95 -39t39 -94t-39 -94t-95 -39t-94.5 39t-38.5 94zM100 104q0 56 39 95t94 39t94.5 -39t39.5 -95q0 -55 -39 -94t-95 -39q-55 0 -94 38.5t-39 94.5z" />
    <glyph glyph-name="semicolon" unicode=";" horiz-adv-x="577" 
d="M262 899q0 55 39 94t94 39t94 -39t39 -94t-39 -94t-94 -39t-94 39t-39 94zM252 -29q-48 14 -79.5 48.5t-31.5 80.5q0 59 37.5 98.5t100.5 39.5q64 0 97.5 -44.5t33.5 -109.5q0 -62 -34.5 -120t-88 -100.5t-107.5 -72t-104 -45.5l-6 14q59 35 115 94.5t67 116.5z" />
    <glyph glyph-name="less" unicode="&#x3c;" horiz-adv-x="1136" 
d="M96 475l15 88l1108 467l-17 -110l-981 -406l848 -438l-16 -103z" />
    <glyph glyph-name="equal" unicode="=" horiz-adv-x="1134" 
d="M66 293l14 86h930l-15 -86h-929zM123 662l14 86h930l-14 -86h-930z" />
    <glyph glyph-name="greater" unicode="&#x3e;" horiz-adv-x="1136" 
d="M1042 563l-14 -88l-1110 -502l16 113l986 438l-854 406l16 100z" />
    <glyph glyph-name="question" unicode="?" horiz-adv-x="788" 
d="M301 385l-16 -10q-2 2 -17 18t-26.5 32t-25.5 40.5t-22 56.5t-8 68q0 76 26 149t68 134t92 121t100.5 119.5t92.5 118.5t68 128.5t26 140.5q0 67 -28.5 113.5t-89.5 46.5q-38 0 -70 -14.5t-52 -37t-41 -48t-38 -48t-41 -37t-51 -14.5q-31 0 -51.5 18t-20.5 50
q0 50 55.5 89.5t136 59t164.5 19.5q135 0 222.5 -66.5t87.5 -199.5q0 -70 -31 -141.5t-80 -135t-109 -129t-119.5 -131.5t-108.5 -132t-80 -143t-31 -153q0 -55 18 -82zM100 104q0 56 39 95t94 39t94.5 -39t39.5 -95q0 -55 -39 -94t-95 -39q-55 0 -94 38.5t-39 94.5z" />
    <glyph glyph-name="at" unicode="@" horiz-adv-x="1951" 
d="M1358 270q-317 0 -277 340q-140 -250 -356 -250q-64 0 -113 26.5t-76.5 70t-41 92t-13.5 98.5q0 181 75.5 332t200 236t267.5 85q103 0 182 -51l19 68h184l-104 -563q-9 -51 -14.5 -81t-11 -70.5t-6.5 -64.5t0.5 -53.5t8 -45.5t17.5 -34t28 -27t40.5 -14.5t53.5 -5.5
q111 0 209.5 81.5t158.5 224.5t60 311q0 291 -201.5 471t-527.5 180q-187 0 -358.5 -69t-299.5 -189.5t-204 -294.5t-76 -373q0 -201 93 -360t258.5 -247.5t373.5 -88.5q72 0 223 31l13 -74q-137 -35 -271 -35q-170 0 -317 60t-250 163.5t-162 247.5t-59 308
q0 216 83.5 404.5t225 318t331 204t398.5 74.5q131 0 251.5 -28.5t224.5 -88.5t181 -145t121 -205.5t44 -263.5q0 -190 -74 -351t-209 -257.5t-303 -96.5zM1090 670q0 6 2 10l73 389q1 95 -35 144t-100 49q-73 0 -152.5 -99.5t-130.5 -239t-51 -253.5q0 -91 39 -139t103 -48
q22 0 50 7.5t65 26t73.5 58.5t63.5 95z" />
    <glyph glyph-name="A" unicode="A" horiz-adv-x="1615" 
d="M209 297l782 1425h27l364 -1558q31 -121 144 -121h49l-6 -43h-584l6 43h45q67 0 101.5 23t21.5 77l-104 457h-592l-150 -274q-43 -76 -64.5 -125.5t-27.5 -82t9.5 -48.5t42 -21.5t75.5 -5.5h35l-6 -43h-492l6 43h21q62 0 102.5 17t87 71.5t107.5 165.5zM881 1366
l-342 -627h483z" />
    <glyph glyph-name="B" unicode="B" horiz-adv-x="1484" 
d="M442 125q-6 -45 19 -57.5t114 -12.5h60q229 0 364.5 128t135.5 343q0 59 -15.5 106.5t-52.5 88t-94.5 68t-144 42.5t-199.5 15h-72zM680 1614l-117 -729h45q147 0 254.5 32.5t171 92.5t93.5 138.5t30 178.5q0 140 -105 213.5t-298 73.5h-74zM274 1673h535q123 0 224 -19
t181 -58t124 -106.5t44 -158.5q0 -178 -130.5 -298.5t-331.5 -147.5q201 -14 318.5 -110.5t117.5 -258.5q0 -86 -24 -159t-64 -125t-95 -93t-115.5 -66.5t-128 -42.5t-127.5 -23.5t-120 -6.5h-670l6 43h72q71 0 104.5 24.5t43.5 88.5l215 1362q10 64 -15 88t-96 24h-74z" />
    <glyph glyph-name="C" unicode="C" horiz-adv-x="1728" 
d="M1581 424l-47 -297q-146 -90 -277 -123t-299 -33q-163 0 -303 43.5t-241 119.5t-173 178.5t-107.5 222.5t-35.5 249q0 204 70.5 377.5t192 292.5t287 185.5t353.5 66.5q167 0 357 -51.5t309 -134.5l-33 -312h-22q-24 92 -71 166.5t-106 124.5t-131 84t-144.5 49
t-147.5 15q-134 0 -255.5 -67t-213 -187t-145.5 -297.5t-54 -386.5q0 -326 164 -498t436 -172q63 0 113 5t105.5 19.5t103.5 41.5t98.5 68.5t99 104.5t95.5 146h22z" />
    <glyph glyph-name="D" unicode="D" horiz-adv-x="1892" 
d="M692 1612l-227 -1438q-4 -23 -4 -38t3.5 -28.5t14.5 -21t26 -13.5t43 -8.5t60.5 -4t81.5 -1.5h37q124 0 244 34.5t228.5 107.5t190.5 176t130.5 250t48.5 319q0 139 -43 252.5t-115 189t-168.5 127.5t-199.5 74.5t-212 22.5h-139zM287 1673h559q189 0 345.5 -35.5
t269 -99.5t189.5 -154.5t114.5 -200.5t37.5 -237q0 -272 -131.5 -488t-367.5 -337t-535 -121h-743l6 43h71q71 0 104.5 24.5t43.5 88.5l215 1362q10 64 -15 88t-96 24h-73z" />
    <glyph glyph-name="E" unicode="E" horiz-adv-x="1501" 
d="M250 156l215 1362q10 64 -15 88t-96 24h-73l6 43h1194l-45 -321h-21q0 62 -14 104.5t-41 70.5t-74.5 43t-105 21t-142.5 6h-348l-106 -671h256q49 0 81 3t71 14.5t65.5 33.5t52 61.5t43.5 96.5h21l-76 -490h-21q0 41 -7 73.5t-18 54.5t-30 37t-37.5 23.5t-46.5 13.5
t-51 6t-58 1h-258l-104 -670q-10 -63 20 -85.5t95 -22.5h360q154 0 245 60t136 204h20l-53 -340h-1265l6 43h71q71 0 104.5 24.5t43.5 88.5z" />
    <glyph glyph-name="F" unicode="F" horiz-adv-x="1368" 
d="M1470 1673l-45 -321h-20q0 62 -14 104.5t-41 70.5t-74.5 43t-105 21t-142.5 6h-338l-106 -671h245q49 0 81 3t71 14.5t66 33.5t52.5 61.5t43.5 96.5h20l-76 -490h-20q0 41 -7 73.5t-18 54.5t-30 37t-37.5 23.5t-46.5 13.5t-51 6t-58 1h-248l-106 -682q-11 -75 20 -102
t111 -27h94l-6 -43h-659l6 43h71q71 0 104.5 24.5t43.5 88.5l215 1362q10 64 -15 88t-96 24h-73l6 43h1183z" />
    <glyph glyph-name="G" unicode="G" horiz-adv-x="1853" 
d="M995 1706q180 0 365.5 -51t306.5 -135l-33 -312h-22q-29 113 -94.5 200.5t-148.5 138t-170.5 75.5t-172.5 25q-107 0 -208 -42t-186.5 -124t-150 -194.5t-101 -261.5t-36.5 -316q0 -326 164 -498t436 -172q42 0 75 1.5t78.5 7.5t80.5 16.5t73 30t64.5 46.5t47 68t28.5 92
l39 254q4 33 -15.5 51.5t-54.5 18.5h-82l6 43h539l-6 -43h-80q-36 0 -63.5 -19t-31.5 -51l-36 -236q-25 -158 -203 -253t-445 -95q-163 0 -303 43.5t-241 119.5t-173 178.5t-107.5 222.5t-35.5 249q0 202 74 377t198 293t286.5 185t338.5 67z" />
    <glyph glyph-name="H" unicode="H" horiz-adv-x="1964" 
d="M1325 156l109 692h-863l-108 -692q-10 -65 14.5 -89t95.5 -24h74l-6 -43h-616l6 43h71q71 0 104.5 24.5t43.5 88.5l215 1362q10 64 -15 88t-96 24h-73l6 43h618l-6 -43h-74q-71 0 -104 -24t-43 -88l-94 -590h862l94 590q10 65 -14.5 88.5t-95.5 23.5h-74l6 43h618l-6 -43
h-73q-71 0 -104.5 -24t-43.5 -88l-215 -1362q-10 -65 15 -89t96 -24h73l-6 -43h-618l6 43h74q71 0 104 24t43 89z" />
    <glyph glyph-name="I" unicode="I" horiz-adv-x="888" 
d="M250 156l215 1362q10 64 -15 88t-96 24h-73l6 43h618l-6 -43h-74q-71 0 -104 -24t-43 -88l-215 -1362q-10 -65 14.5 -89t95.5 -24h74l-6 -43h-616l6 43h71q71 0 104.5 24.5t43.5 88.5z" />
    <glyph glyph-name="J" unicode="J" horiz-adv-x="956" 
d="M453 610l145 908q10 64 -20.5 88t-110.5 24h-74l6 43h639l-6 -43h-74q-71 0 -104 -24t-43 -88l-145 -908q-9 -58 -18 -104t-22.5 -101.5t-28.5 -99t-37 -90t-47 -81t-59 -66.5t-73.5 -52.5t-89.5 -32.5t-107 -12q-137 0 -211.5 56.5t-74.5 117.5q0 43 27 70t71 27
q39 0 66 -24t34 -71q11 -75 31 -106t68 -31q36 0 64 13.5t51 47t41 76.5t36 116.5t32.5 151.5t33.5 195z" />
    <glyph glyph-name="K" unicode="K" horiz-adv-x="1658" 
d="M229 156l215 1362q10 65 -14.5 88.5t-95.5 23.5h-74l6 43h619l-6 -43h-74q-71 0 -104.5 -24t-43.5 -88l-104 -666l633 586q208 192 0 192h-41l6 43h528l-6 -43h-20q-93 0 -171 -44.5t-186 -145.5l-553 -518l486 -711q38 -56 79.5 -93.5t82.5 -54t72.5 -22.5t68.5 -6
l6 -35q-107 -29 -178 -29t-131 16.5t-104 47t-74.5 63t-59.5 74.5l-442 662l-107 -678q-10 -65 15 -89t96 -24h74l-6 -43h-617l6 43h72q71 0 104 24t43 89z" />
    <glyph glyph-name="L" unicode="L" horiz-adv-x="1363" 
d="M229 156l215 1362q10 65 -14.5 88.5t-95.5 23.5h-74l6 43h619l-6 -43h-74q-71 0 -104.5 -24t-43.5 -88l-208 -1325q-11 -70 18.5 -94.5t101.5 -24.5h351q154 0 246 61t137 205h20l-53 -340h-1266l6 43h72q71 0 104 24t43 89z" />
    <glyph glyph-name="M" unicode="M" horiz-adv-x="2170" 
d="M1966 1468l-160 -1312q-7 -65 17 -89t94 -24h74l-6 -43h-625l6 43h74q72 0 106 24.5t41 88.5l164 1310l-793 -1495h-22l-346 1452l-232 -1171q-25 -112 -1.5 -160.5t112.5 -48.5h78l-6 -43h-533l6 43h72q78 0 119.5 47.5t64.5 163.5l246 1214q10 47 -2.5 80t-41 49.5
t-59.5 23.5t-67 7l6 45h422l307 -1304l684 1304h430l-6 -45q-50 0 -93.5 -11.5t-83 -49.5t-46.5 -99z" />
    <glyph glyph-name="N" unicode="N" horiz-adv-x="1890" 
d="M1495 356l170 1069q18 113 -4.5 159t-110.5 46h-77l6 43h534l-6 -43h-61q-87 0 -132.5 -48t-62.5 -157l-229 -1454h-19l-950 1432l-182 -1155q-18 -113 4 -159t110 -46h78l-6 -43h-532l6 43h59q87 0 132.5 48t62.5 157l190 1200q7 47 -9 83t-47.5 56.5t-66 30.5t-69.5 10
l6 45h352z" />
    <glyph glyph-name="O" unicode="O" horiz-adv-x="1953" 
d="M1022 1647q-136 0 -259.5 -67.5t-216.5 -188t-147.5 -298t-54.5 -384.5q0 -172 46.5 -303.5t128.5 -211t189 -119.5t234 -40q140 0 263 67t213 186.5t142 295.5t52 383q0 171 -45.5 302.5t-126 213t-186.5 123t-232 41.5zM995 1706q182 0 339 -57.5t270.5 -161
t178 -255.5t64.5 -333q0 -201 -68 -374t-185.5 -293t-280 -188.5t-346.5 -68.5q-250 0 -445 98.5t-305.5 284t-110.5 430.5q0 197 70.5 369t191 292t283.5 188.5t344 68.5z" />
    <glyph glyph-name="P" unicode="P" horiz-adv-x="1396" 
d="M692 1608l-123 -777q96 -22 181 -22q100 0 183 23t152 73t107.5 139.5t38.5 212.5q0 189 -104 275t-318 86q-49 0 -117 -10zM287 1673h520q153 0 271.5 -24t204 -73t130.5 -129t45 -187q0 -129 -48.5 -231t-131.5 -164.5t-187.5 -95t-222.5 -32.5q-152 0 -303 68
l-100 -633q-11 -75 20 -102t111 -27h94l-6 -43h-659l6 43h71q71 0 104.5 24.5t43.5 88.5l215 1362q10 64 -15 88t-96 24h-73z" />
    <glyph glyph-name="Q" unicode="Q" horiz-adv-x="1953" 
d="M995 1706q182 0 339.5 -60.5t270.5 -168t177.5 -262.5t64.5 -336q0 -274 -121.5 -482.5t-330.5 -318.5l231 -416l-10 -10l-543 330q-61 -7 -106 -7q-249 0 -445 104t-306 294.5t-110 435.5q0 197 70.5 366t191 284.5t283.5 181t344 65.5zM1022 1647q-137 0 -260 -64.5
t-216 -181t-147.5 -291t-54.5 -381.5q0 -172 46.5 -306.5t128.5 -218t189 -126.5t234 -43q140 0 262.5 63.5t213 179t142.5 288.5t52 380q0 171 -45.5 306t-126 220.5t-187 130t-231.5 44.5z" />
    <glyph glyph-name="R" unicode="R" horiz-adv-x="1581" 
d="M672 1608l-119 -756h49q99 0 179 11.5t154 42t123.5 79t79 126.5t29.5 181q0 160 -101 239t-325 79q-44 0 -69 -2zM266 1673h510q108 0 196 -10t169 -35.5t136 -66.5t87.5 -106.5t32.5 -151.5q0 -178 -141.5 -306.5t-376.5 -162.5q170 -26 257 -123.5t109 -270.5
q7 -59 12 -95.5t13 -81t16.5 -70t21 -56t28 -46.5t37 -33t48 -24t60 -11t75.5 -3l5 -24q-97 -25 -187 -25q-180 0 -264.5 111.5t-105.5 337.5q-10 108 -43 182.5t-90 116.5t-128.5 60t-167.5 18h-32l-99 -627q-12 -75 15.5 -101t115.5 -26h72l-6 -43h-637l4 43h74
q71 0 104 24t43 89l215 1362q10 65 -14.5 88.5t-95.5 23.5h-74z" />
    <glyph glyph-name="S" unicode="S" horiz-adv-x="1275" 
d="M526 45q171 0 284.5 93.5t113.5 248.5q0 116 -70 201.5t-213 171.5l-170 102q-143 86 -203.5 188.5t-60.5 225.5q0 200 148 317t405 117q122 0 244.5 -42.5t189.5 -106.5l-39 -261h-20q-41 172 -143 259.5t-251 87.5q-66 0 -126 -17t-109.5 -51.5t-79 -93t-29.5 -133.5
q0 -73 48.5 -152t142.5 -139l131 -84q22 -14 62.5 -38t69.5 -41.5t68.5 -45t67.5 -52t58.5 -59.5t49 -70.5t30.5 -81t12 -95.5q0 -156 -79 -276t-213.5 -183.5t-301.5 -63.5q-174 0 -297.5 38.5t-225.5 107.5l43 299h21q43 -208 147 -289.5t295 -81.5z" />
    <glyph glyph-name="T" unicode="T" horiz-adv-x="1396" 
d="M913 1597l-225 -1421q-12 -80 15 -106.5t112 -26.5h96l-6 -43h-700l6 43h86q92 0 129 26.5t49 104.5l225 1423h-235q-154 0 -244.5 -67.5t-138.5 -216.5h-21l58 360h1401l-58 -360h-20q0 148 -69 216t-224 68h-236z" />
    <glyph glyph-name="U" unicode="U" horiz-adv-x="1732" 
d="M1614 1425l-123 -780q-50 -315 -240.5 -494.5t-488.5 -179.5q-305 0 -455 179.5t-98 506.5l135 861q10 64 -15 88t-96 24h-73l6 43h618l-6 -43h-73q-71 0 -104.5 -24t-43.5 -88l-139 -881q-39 -254 73 -404.5t332 -150.5q244 0 390.5 152t187.5 415l123 776
q18 113 -4.5 159t-110.5 46h-78l6 43h539l-6 -43h-62q-87 0 -132 -48t-62 -157z" />
    <glyph glyph-name="V" unicode="V" horiz-adv-x="1644" 
d="M1380 1270l-714 -1319h-27l-346 1558q-14 60 -47.5 90.5t-93.5 30.5h-50l7 43h591l-6 -43h-53q-67 0 -100.5 -23t-22.5 -77l256 -1217l514 957q46 85 73.5 142t40 98.5t13 64t-16.5 35.5t-39.5 16.5t-64.5 3.5h-34l6 43h499l-6 -43h-20q-49 0 -81.5 -10t-74.5 -46
t-89.5 -108.5t-113.5 -195.5z" />
    <glyph glyph-name="W" unicode="W" horiz-adv-x="2367" 
d="M1587 401l340 828q40 98 63 163t31.5 111t6.5 70.5t-22 37.5t-42.5 16t-65.5 3h-34l6 43h489l-6 -43h-20q-40 0 -64 -5.5t-52.5 -24.5t-54.5 -60t-59.5 -108.5t-77.5 -174.5l-540 -1306h-27l-276 1241l-516 -1241h-27l-346 1558q-14 60 -47.5 90.5t-93.5 30.5h-50l7 43
h591l-6 -43h-53q-67 0 -100.5 -23t-22.5 -77l246 -1127l391 914l-43 192q-25 121 -141 121h-49l6 43h592l-7 -43h-53q-67 0 -100.5 -23t-22.5 -77z" />
    <glyph glyph-name="X" unicode="X" horiz-adv-x="1769" 
d="M1167 139l-333 623l-455 -500q-59 -62 -84 -105t-15.5 -67.5t42 -35.5t90.5 -11l-6 -43h-515l7 43q99 0 172 45.5t206 183.5l517 566l-359 671q-33 60 -49 77q-44 44 -139 44l6 43h565l-6 -43h-33q-77 0 -107 -25t-5 -71l280 -526l365 399q49 51 75.5 89.5t30.5 63.5
t-11 41t-44 22.5t-74 6.5l6 43h498l-6 -43q-101 0 -171 -44.5t-200 -186.5l-428 -469l412 -766q34 -60 80.5 -90.5t136.5 -30.5l-6 -43h-613l7 43h53q83 0 109 26t1 70z" />
    <glyph glyph-name="Y" unicode="Y" horiz-adv-x="1525" 
d="M809 868l432 551q48 62 67.5 104t10.5 65t-35.5 32.5t-73.5 9.5h-57l6 43h498l-6 -43q-37 0 -63 -3t-53.5 -16.5t-46 -26t-50 -47t-55.5 -64t-72 -91.5l-480 -612l-94 -594q-12 -80 15 -106.5t112 -26.5h86l-6 -43h-680l6 43h76q92 0 129 26.5t49 104.5l94 592l-303 743
q-25 63 -54.5 92t-86.5 29h-49l6 43h592l-6 -43h-53q-68 0 -105.5 -25t-17.5 -75z" />
    <glyph glyph-name="Z" unicode="Z" horiz-adv-x="1390" 
d="M-84 0l1253 1595h-383q-235 0 -346.5 -64.5t-146.5 -201.5h-25l54 344h1151l-1250 -1599h563q369 0 439 278h22l-55 -352h-1276z" />
    <glyph glyph-name="bracketleft" unicode="[" horiz-adv-x="600" 
d="M4 -598l358 2271h416l-12 -86h-320l-333 -2099h319l-12 -86h-416z" />
    <glyph glyph-name="backslash" unicode="\" horiz-adv-x="790" 
d="M549 -68l-420 1772h94l420 -1772h-94z" />
    <glyph glyph-name="bracketright" unicode="]" horiz-adv-x="600" 
d="M594 1673l-358 -2271h-414l12 86h318l333 2099h-319l12 86h416z" />
    <glyph glyph-name="asciicircum" unicode="^" horiz-adv-x="1097" 
d="M549 1675h96l283 -850h-103l-241 738l-439 -738h-110z" />
    <glyph glyph-name="underscore" unicode="_" horiz-adv-x="1599" 
d="M115 -86l14 86h1354l-15 -86h-1353z" />
    <glyph glyph-name="grave" unicode="`" horiz-adv-x="428" 
d="M387 1139l-299 479h184l142 -479h-27z" />
    <glyph glyph-name="a" unicode="a" horiz-adv-x="1169" 
d="M666 1014q106 0 180 -62l14 78h182l-139 -799q-2 -14 -7 -40q-12 -55 -11 -88t26 -33q23 0 71 38t105 109l27 -20q-79 -115 -138 -170.5t-134 -55.5q-84 0 -116 60.5t-13 169.5v2q-45 -75 -92.5 -124.5t-95 -71.5t-83.5 -29t-80 -7q-63 0 -114 20.5t-83 53.5t-53.5 77
t-30.5 88t-9 89q0 147 54.5 282t140.5 228.5t191.5 149t207.5 55.5zM455 61q147 0 270 205l98 553q-21 68 -65 110t-101 42q-74 0 -138 -46.5t-105.5 -116.5t-72 -154.5t-43.5 -158.5t-13 -130q0 -139 42.5 -221.5t127.5 -82.5z" />
    <glyph glyph-name="b" unicode="b" horiz-adv-x="1091" 
d="M104 332l179 1186q9 66 -10.5 89t-88.5 23h-51l8 43h351l-140 -944q37 86 85.5 148t99.5 94t98 46.5t94 14.5q78 0 137 -29.5t91 -79t47.5 -103.5t15.5 -111q0 -95 -25.5 -190.5t-69 -175t-101.5 -149t-122 -117.5t-131.5 -76t-128.5 -28q-60 0 -112 10t-100 36
t-79.5 65.5t-45 103t-1.5 144.5zM651 942q-69 0 -150.5 -65.5t-156.5 -198.5l-47 -326q-12 -78 -4.5 -134t22 -92.5t41 -58t52.5 -30t55 -8.5q73 -1 135 46.5t101.5 119t67.5 157t40 159t12 128.5q0 135 -46 219t-122 84z" />
    <glyph glyph-name="c" unicode="c" 
d="M82 295q0 100 25.5 204t75 198.5t116.5 169t156.5 119t187.5 44.5q85 0 167.5 -40.5t82.5 -102.5q0 -42 -24.5 -69t-59.5 -27q-37 0 -60.5 19.5t-35.5 47.5t-25 56t-38 47.5t-64 19.5q-78 0 -149 -99.5t-110.5 -241t-39.5 -273.5q0 -137 44.5 -217t119.5 -80t159 65.5
t158 186.5l31 -19q-53 -100 -104.5 -166t-105 -102t-104.5 -50t-116 -14q-136 0 -211.5 82t-75.5 242z" />
    <glyph glyph-name="d" unicode="d" horiz-adv-x="1206" 
d="M1139 1673l-205 -1442q-13 -91 -10.5 -126t24.5 -35q18 0 66 39t104 108l27 -20q-79 -115 -138.5 -170.5t-134.5 -55.5q-164 0 -131 230l7 49q-40 -75 -82.5 -128t-78.5 -82t-77.5 -45t-71.5 -20t-69 -4q-81 0 -141 30t-92.5 80.5t-48 107t-15.5 118.5q0 142 55 278
t139 232t186.5 154.5t196.5 58.5q44 0 99.5 -16t101.5 -51l80 555q9 66 -10.5 89t-88.5 23h-51l8 43h351zM455 61q152 0 301 242l71 508q-15 77 -67 124.5t-119 47.5q-73 0 -135.5 -47.5t-102.5 -119.5t-68 -158.5t-40 -161.5t-12 -131q0 -139 43.5 -221.5t128.5 -82.5z" />
    <glyph glyph-name="e" unicode="e" 
d="M862 874q0 -44 -14 -83t-36 -68.5t-60 -58t-73 -48.5t-89.5 -43.5t-95.5 -39t-104 -39t-103 -39.5q-6 -46 -6 -88q0 -56 7.5 -104.5t25.5 -94t52.5 -72t82.5 -26.5q43 0 90.5 23.5t89 62.5t76.5 82t63 88l31 -19q-53 -99 -107 -167t-107.5 -103.5t-103 -50.5t-106.5 -15
q-140 0 -216.5 82t-76.5 242q0 143 47.5 279t125 235.5t180 160t208.5 60.5q114 0 166.5 -49t52.5 -107zM582 979q-58 0 -120 -73t-108.5 -186.5t-64.5 -234.5q72 30 138 68t126.5 85t96.5 103t36 111q0 65 -29.5 96t-74.5 31z" />
    <glyph glyph-name="f" unicode="f" horiz-adv-x="712" 
d="M104 932l15 53h160l20 145q18 127 59.5 226.5t93 160.5t115.5 101t122 55t116 15q48 0 95.5 -8.5t88.5 -25t66.5 -44.5t25.5 -62q0 -36 -26 -61t-60 -25t-60.5 19.5t-43 46.5t-31.5 54.5t-37.5 47t-50.5 19.5q-25 0 -53.5 -13t-62.5 -47.5t-63.5 -85.5t-55.5 -135.5
t-41 -189.5l-27 -193h330l-13 -53h-325l-139 -1006q-18 -126 -58 -225t-89.5 -159t-111 -99t-117.5 -53.5t-114 -14.5q-48 0 -95.5 8.5t-88.5 25t-66.5 44.5t-25.5 62q0 36 26 61t62 25q34 0 59.5 -19t42 -46.5t31.5 -54.5t37 -46t51 -19q33 0 67.5 22t72 71.5t70 146.5
t50.5 229l145 1047h-166z" />
    <glyph glyph-name="g" unicode="g" horiz-adv-x="1126" 
d="M604 1030q72 0 154 -29h420l-9 -88l-301 27q131 -99 131 -250q0 -160 -124.5 -262t-327.5 -102q-46 0 -98 10q-92 -10 -148.5 -49t-56.5 -90q0 -38 35.5 -64.5t111.5 -26.5h191q90 0 160 -11.5t127.5 -37.5t88.5 -74t31 -116q0 -89 -35 -166.5t-94 -133t-136.5 -95
t-164 -59t-174.5 -19.5q-209 0 -317.5 66.5t-108.5 183.5q0 112 89.5 184.5t240.5 105.5q-98 11 -143.5 62.5t-45.5 122.5q0 88 75.5 149t223.5 82q-109 39 -177 127t-68 199q0 149 127 251.5t323 102.5zM102 -356q0 -100 80 -149.5t207 -49.5q80 0 152.5 16t138 50
t104.5 97t39 148q0 174 -284 174h-195h-16q-108 -39 -167 -111.5t-59 -174.5zM559 365q63 0 113.5 30.5t81 81.5t46 112t15.5 126q0 63 -23.5 124.5t-75 106.5t-118.5 45q-64 0 -115.5 -32.5t-81.5 -83.5t-45.5 -106t-15.5 -107q0 -69 24 -135t75.5 -114t119.5 -48z" />
    <glyph glyph-name="h" unicode="h" horiz-adv-x="1107" 
d="M59 0l234 1518q11 66 -9 89t-89 23h-52l9 43h352l-152 -997q65 175 173.5 264.5t217.5 89.5q54 0 92 -14.5t59.5 -45t33 -68.5t10.5 -93.5t-7.5 -110.5t-19.5 -129l-61 -338q-14 -72 -7.5 -118.5t34.5 -46.5q44 0 161 145l29 -21q-76 -111 -136 -165t-136 -54
q-180 0 -136 244l64 358q34 170 19.5 261.5t-87.5 91.5q-70 0 -155 -81.5t-152 -215.5l-100 -629h-189z" />
    <glyph glyph-name="i" unicode="i" horiz-adv-x="632" 
d="M360 1030q33 0 55.5 -7t34.5 -26.5t17 -38.5t2 -59.5t-7.5 -71.5t-15.5 -92l-90 -504q-10 -31 -7 -98t32 -67q45 0 162 145l28 -21q-76 -110 -136.5 -164.5t-135.5 -54.5q-92 0 -124.5 61t-10.5 183l98 549q15 72 14.5 116t-28.5 44q-32 0 -83 -32.5t-91 -72.5l-23 25
q91 99 176 142.5t133 43.5zM279 1417q0 59 40.5 99t98.5 40q60 0 100.5 -40t40.5 -99q0 -60 -40.5 -100.5t-100.5 -40.5q-59 0 -99 40.5t-40 100.5z" />
    <glyph glyph-name="j" unicode="j" horiz-adv-x="559" 
d="M459 735l-103 -626q-23 -139 -52.5 -234.5t-83.5 -187t-138.5 -165t-210.5 -143.5l-14 19q136 126 200.5 280.5t110.5 436.5l106 649q13 72 11.5 116t-29.5 44q-32 0 -83 -32.5t-91 -72.5l-23 25q90 99 176 142.5t134 43.5q84 0 101.5 -66t-11.5 -229zM279 1417
q0 59 40.5 99t98.5 40q60 0 100.5 -40t40.5 -99q0 -60 -40.5 -100.5t-100.5 -40.5q-59 0 -99 40.5t-40 100.5z" />
    <glyph glyph-name="k" unicode="k" horiz-adv-x="1003" 
d="M522 1673l-162 -1095h27q167 0 246.5 80t79.5 198q0 8 -0.5 28t-0.5 30.5t1.5 28.5t5 28t10 23t17 19.5t26 11.5t35.5 5q43 0 62.5 -24t19.5 -58q0 -31 -17.5 -76t-51 -94t-76.5 -92.5t-99 -76.5t-113 -42q63 -11 107.5 -38.5t72 -73t41.5 -87t29 -106.5q3 -12 8 -35
q7 -33 11 -50t13.5 -45t19.5 -41.5t27 -31.5t38.5 -25.5t52 -12t68.5 -1.5l2 -26q-102 -25 -166 -25q-103 0 -171.5 59t-100.5 201q-3 15 -9 44.5t-9.5 45t-10.5 42t-13 41t-16 35.5t-20.5 33t-26 26.5t-33.5 22t-41.5 13.5t-50.5 7l-78 -539h-188l221 1518q11 66 -9 89
t-89 23h-51l8 43h354z" />
    <glyph glyph-name="l" unicode="l" horiz-adv-x="559" 
d="M492 1673l-205 -1442q-2 -16 -7 -44q-11 -54 -9 -85.5t26 -31.5q23 0 70.5 38t103.5 109l27 -20q-77 -115 -135.5 -170.5t-133.5 -55.5q-84 0 -117 60.5t-18 169.5l187 1317q9 66 -11.5 89t-89.5 23h-51l6 43h357z" />
    <glyph glyph-name="m" unicode="m" horiz-adv-x="1787" 
d="M74 819l-23 25q91 99 174.5 142.5t130.5 43.5q99 0 110 -95.5t-28 -258.5q55 151 159 252.5t234 101.5q68 0 111.5 -25.5t60.5 -70t20.5 -104.5t-7.5 -130q55 141 162 235.5t227 94.5q54 0 92.5 -15t60 -46t32 -69t9.5 -94t-8 -110t-20 -127l-64 -338q-4 -21 -6.5 -44
t-3 -53t8 -49t26.5 -19q45 0 162 145l28 -21q-76 -110 -136.5 -164.5t-135.5 -54.5q-182 0 -135 244l67 358q35 167 20.5 260t-87.5 93q-69 0 -158.5 -81.5t-148.5 -211.5q-9 -46 -11 -64l-92 -569h-188l92 573q31 166 17 259.5t-85 93.5q-72 0 -158 -83t-149 -214
l-100 -629h-189l121 772q13 72 11.5 112t-29.5 40q-26 0 -63 -21t-55 -36t-56 -48z" />
    <glyph glyph-name="n" unicode="n" horiz-adv-x="1214" 
d="M74 819l-23 25q91 99 175.5 142.5t131.5 43.5q33 0 54.5 -8.5t33.5 -30.5t17 -46.5t1.5 -70t-9 -87.5t-17.5 -111q63 169 169.5 261.5t223.5 92.5q54 0 92.5 -15t60 -46t32 -69t10 -94t-7 -110t-19.5 -127l-61 -338q-4 -21 -6.5 -44t-3 -53t8 -49t26.5 -19q44 0 161 145
l29 -21q-76 -110 -136.5 -164.5t-135.5 -54.5q-180 0 -136 244l64 358q34 170 19 261.5t-87 91.5q-73 0 -156 -82t-151 -215l-100 -629h-189l123 772q14 72 11 112t-31 40q-32 0 -83 -32.5t-91 -72.5z" />
    <glyph glyph-name="o" unicode="o" horiz-adv-x="1075" 
d="M283 365q0 -342 145 -342q79 0 144.5 47.5t105 118t67 157.5t38 160t10.5 131q0 338 -148 338q-79 0 -144 -47t-104.5 -117t-66 -156.5t-37 -159t-10.5 -130.5zM72 295q0 146 59.5 285t149 235.5t196.5 155.5t201 59q73 0 130.5 -20t93.5 -52t59.5 -75.5t33 -86.5
t9.5 -89q0 -117 -38.5 -231.5t-102.5 -203.5t-143 -158t-163.5 -106t-159.5 -37q-73 0 -131 20t-93.5 52.5t-59 76t-32.5 86.5t-9 89z" />
    <glyph glyph-name="p" unicode="p" horiz-adv-x="1181" 
d="M350 33l-67 -459q-12 -78 17 -104.5t120 -26.5h51l-6 -43h-567l6 43h49q70 0 100 24t39 89l178 1216q12 72 11 112t-29 40q-32 0 -83 -32.5t-91 -72.5l-23 25q90 99 176 142.5t134 43.5q25 0 44 -4.5t31 -17t20 -23.5t10.5 -36t3.5 -41t-3 -52t-6.5 -56t-9.5 -65
q139 297 364 297q78 0 137 -29.5t91 -79t47.5 -103.5t15.5 -111q0 -99 -27.5 -204t-79.5 -199.5t-121 -170t-159 -120t-186 -44.5q-101 0 -187 62zM559 25q68 0 128 47t99.5 119t68 157t41.5 160.5t13 130.5q0 139 -44.5 223t-129.5 84q-58 0 -133.5 -66t-157.5 -206
l-71 -484q48 -165 186 -165z" />
    <glyph glyph-name="q" unicode="q" horiz-adv-x="1148" 
d="M633 -444l108 665q-47 -81 -96 -134.5t-95 -77t-80 -31t-75 -7.5q-87 0 -150.5 30t-97.5 80.5t-49.5 106.5t-15.5 119q0 142 55.5 278t140 232t187.5 154.5t197 58.5q47 0 102 -18.5t100 -59.5l13 78h188l-240 -1456q-14 -82 4 -106.5t105 -24.5h51l-6 -43h-567l6 43h49
q74 0 115 25t51 88zM465 61q143 0 287 218l86 516q-23 83 -71.5 135.5t-113.5 52.5q-62 0 -116 -33.5t-92 -88.5t-68.5 -121.5t-48 -137t-26.5 -131t-9 -106.5q0 -139 43.5 -221.5t128.5 -82.5z" />
    <glyph glyph-name="r" unicode="r" horiz-adv-x="778" 
d="M360 1030q25 0 43.5 -7t30 -23.5t19 -34.5t8.5 -50t0.5 -59t-6 -71.5t-11 -78t-14.5 -88.5q39 107 86 187t87 121.5t81.5 66.5t65 31t41.5 6q45 0 67.5 -18.5t22.5 -48.5q0 -43 -17.5 -65.5t-48 -30.5t-68.5 -12.5t-82.5 -19.5t-87 -43t-84 -91.5t-71.5 -157.5l-88 -543
h-189l119 772q14 72 13 112t-29 40q-32 0 -83 -32.5t-91 -72.5l-23 25q91 99 176 142.5t133 43.5z" />
    <glyph glyph-name="s" unicode="s" horiz-adv-x="907" 
d="M479 641l72 -55q111 -86 174 -166t63 -164q0 -77 -34 -135t-89 -89.5t-115 -46t-122 -14.5q-131 0 -236.5 52t-105.5 131q0 50 30 77t72 27q45 0 73 -25.5t41.5 -61.5t28 -72t44 -61.5t76.5 -25.5q72 0 122 38.5t50 111.5q0 75 -35 127t-129 131l-97 80
q-36 30 -55.5 47.5t-50.5 50t-47.5 58.5t-29.5 61.5t-13 70.5q0 80 48.5 136t123 81t166.5 25q125 0 222 -41t97 -102q0 -42 -26.5 -67t-63.5 -25q-24 0 -48.5 19.5t-47 47.5t-47 56t-58.5 47.5t-71 19.5q-70 0 -104.5 -31t-34.5 -86q0 -106 157 -227z" />
    <glyph glyph-name="t" unicode="t" horiz-adv-x="663" 
d="M119 213l119 719l-156 12l6 41h170l188 260h29l-41 -260h291l-8 -53h-291l-115 -701q-13 -89 -7 -124t34 -35q33 0 88.5 32.5t120.5 100.5l22 -19q-145 -215 -319 -215q-172 0 -131 242z" />
    <glyph glyph-name="u" unicode="u" horiz-adv-x="1202" 
d="M752 319q-69 -174 -173 -261t-219 -87q-54 0 -92 15t-59 46.5t-31.5 68.5t-9 94t7.5 109.5t19 127.5l57 332q14 72 11 116t-32 44q-32 0 -83 -32.5t-91 -72.5l-22 25q91 99 173 142.5t128 43.5q40 0 65.5 -12.5t38.5 -33.5t15 -60t-2.5 -81t-16.5 -108l-53 -307
q-33 -170 -17 -251t97 -81q71 0 152.5 76t142.5 201l96 612h188l-118 -756q-27 -163 26 -163q45 0 162 145l29 -21q-75 -110 -136.5 -164.5t-136.5 -54.5q-97 0 -125 77.5t9 270.5z" />
    <glyph glyph-name="v" unicode="v" horiz-adv-x="1011" 
d="M289 -61l-15 8q26 114 32 281.5t-7 321.5t-52 264t-95 110q-29 0 -60 -38t-59 -106l-33 17q23 66 54 113t57 70t60 35t50.5 13.5t42.5 1.5q86 0 143 -101t76.5 -249.5t17.5 -307.5t-26 -286q87 53 200.5 202t153.5 304q15 65 7.5 106t-30 76t-46.5 58t-43 52.5t-19 59.5
q0 33 25.5 59.5t67.5 26.5q72 0 109.5 -59t37.5 -150q0 -128 -48 -267t-131 -261.5t-206.5 -218t-263.5 -135.5z" />
    <glyph glyph-name="w" unicode="w" horiz-adv-x="1509" 
d="M858 -39l-88 735l-448 -735h-29l-117 903q-6 45 -36 62.5t-99 19.5l12 39h488l-13 -39q-85 0 -120 -21t-29 -71l72 -580l309 506l-10 84q-6 43 -33.5 61.5t-81.5 20.5l12 39h475l-12 -39q-87 0 -130.5 -21.5t-39.5 -70.5l57 -594l310 510q39 65 42 104t-24.5 55t-85.5 17
l12 39h422l-12 -39q-6 -1 -34.5 -4.5t-35 -4.5t-30 -5t-31.5 -8.5t-27.5 -12t-30 -17.5t-26 -23.5t-29 -31.5t-26.5 -40l-504 -838h-29z" />
    <glyph glyph-name="x" unicode="x" horiz-adv-x="1120" 
d="M1008 752q26 62 34 107t2 63t-20 18q-34 0 -174 -160l-203 -229l98 -293q46 -138 62 -161q9 -15 18 -15q17 0 50.5 51t56.5 121l33 -4q-44 -158 -96.5 -218.5t-129.5 -60.5q-48 0 -91.5 46t-74.5 139l-75 225l-213 -242q-53 -60 -118 -114t-110 -54q-28 0 -42.5 26.5
t-14.5 68.5q0 48 23 101.5t59 94.5l31 -12q-26 -62 -34 -107t-2.5 -63.5t19.5 -18.5q33 0 174 158l203 232l-98 294q-7 20 -18.5 55.5t-17 53t-14 38.5t-15 29.5t-13.5 8.5q-15 0 -45.5 -54t-54.5 -128l-41 6q44 158 96 218t129 60q48 0 92.5 -45.5t75.5 -138.5l76 -227
l209 239q50 59 117 114.5t112 55.5q28 0 42.5 -26t14.5 -68q0 -48 -23 -102t-59 -95z" />
    <glyph glyph-name="y" unicode="y" horiz-adv-x="999" 
d="M-422 -391q34 0 55.5 -17t31 -41t17.5 -48t22.5 -41t39.5 -17q63 0 237 123.5t357 298.5q20 90 23.5 227.5t-10.5 279t-38.5 266.5t-64 204.5t-84.5 79.5q-29 0 -61 -38t-60 -106l-33 17q23 66 54 113t57 70t60 35t50.5 13.5t42.5 1.5q69 0 122 -61.5t83.5 -162
t46 -227.5t14 -261t-17.5 -259q245 290 312 539q15 65 12 105.5t-19.5 74.5t-34.5 56t-32.5 51.5t-14.5 58.5q0 33 25.5 59.5t67.5 26.5q57 0 83.5 -57.5t26.5 -151.5q0 -201 -120 -427.5t-324 -442.5q-259 -274 -467.5 -423t-341.5 -149q-101 0 -159 36t-58 96
q0 38 25.5 68t74.5 30z" />
    <glyph glyph-name="z" unicode="z" horiz-adv-x="899" 
d="M967 967l-795 -799h512l111 160h24l-78 -328h-794l-8 18l784 797h-463l-108 -158h-25l78 328h753z" />
    <glyph glyph-name="braceleft" unicode="{" horiz-adv-x="638" 
d="M31 535l4 16q76 15 137 67.5t98 125.5t56.5 152.5t19.5 156.5q0 43 -12 125t-12 122q0 182 106 291t324 109h59l-12 -86h-60q-165 0 -242 -81t-77 -216q0 -43 10 -127.5t10 -128.5q0 -152 -59.5 -290t-183.5 -228q114 -95 114 -307q0 -164 -94 -371q-65 -133 -65 -223
q0 -84 59.5 -133.5t185.5 -49.5h60l-13 -86h-59q-332 0 -332 248q0 126 88 299q72 141 72 303q0 56 -10 106.5t-31 94.5t-57 73.5t-84 37.5z" />
    <glyph glyph-name="bar" unicode="|" horiz-adv-x="546" 
d="M92 0l264 1673h95l-265 -1673h-94z" />
    <glyph glyph-name="braceright" unicode="}" horiz-adv-x="606" 
d="M608 551l-4 -16q-74 -15 -135.5 -70t-99 -130.5t-58 -157.5t-20.5 -157q0 -42 12 -125t12 -122q0 -184 -105 -292t-323 -108h-59l12 86h60q164 0 240.5 81.5t76.5 215.5q0 43 -10 127.5t-10 128.5q0 153 61 296.5t184 234.5q-116 97 -116 301q0 58 8 102q19 117 86 262
q65 133 65 224q0 84 -59.5 133t-185.5 49h-60l13 86h59q170 0 251 -67t81 -185q0 -126 -88 -295q-50 -98 -64 -201q-8 -44 -8 -102q0 -74 16.5 -134t59.5 -106.5t108 -58.5z" />
    <glyph glyph-name="asciitilde" unicode="~" horiz-adv-x="1349" 
d="M397 653q57 0 119.5 -21t118 -50.5t110 -59t112 -50.5t106.5 -21q64 0 119 37t108 126l76 -32q-56 -113 -138.5 -167.5t-177.5 -54.5q-71 0 -153.5 31.5t-144 69t-135.5 69t-132 31.5q-131 0 -229 -172l-76 37q56 114 139.5 170.5t177.5 56.5z" />
    <glyph glyph-name="uni00A0" unicode="&#xa0;" horiz-adv-x="389" 
 />
    <glyph glyph-name="exclamdown" unicode="&#xa1;" horiz-adv-x="509" 
d="M248 -670q-130 -47 -248 0q49 262 165 712t148 591h37q-20 -215 -50.5 -651t-51.5 -652zM233 897q0 55 39 94t95 39q55 0 94 -39t39 -94t-39 -94t-94 -39q-56 0 -95 39t-39 94z" />
    <glyph glyph-name="cent" unicode="&#xa2;" horiz-adv-x="929" 
d="M82 295q0 152 55.5 304t164 269t245.5 150l33 209h84l-31 -197h10q85 0 167.5 -40.5t82.5 -102.5q0 -42 -24.5 -69t-59.5 -27q-33 0 -55.5 15.5t-35 40t-23 49.5t-28 47.5t-42.5 31.5l-144 -903q70 12 145.5 76.5t141.5 173.5l31 -19q-83 -155 -161.5 -228t-170.5 -93
l-31 -193h-84l29 182h-12q-136 0 -211.5 82t-75.5 242zM287 367q0 -112 28.5 -187t81.5 -100l142 891q-68 -27 -127 -127t-92 -229t-33 -248z" />
    <glyph glyph-name="sterling" unicode="&#xa3;" horiz-adv-x="1378" 
d="M197 872l8 58h227l4 82q13 686 545 686q144 0 248 -71t104 -157q0 -41 -22.5 -67.5t-59.5 -26.5q-31 0 -52 15t-31.5 39t-19 53t-21 58.5t-31 53.5t-54 39t-86.5 15q-59 0 -106 -20.5t-78 -52.5t-53 -84t-34 -100t-18.5 -116t-8 -117.5t-1.5 -118.5q0 -40 -4 -110h494
l-8 -58h-492q-19 -162 -74 -312.5t-123 -254.5t-133.5 -173t-117.5 -97q6 3 68 35t80 41t73.5 35.5t84.5 36.5t73.5 26t79.5 21.5t67 5.5q62 0 112 -16t77 -34.5t60.5 -34.5t65.5 -16q81 0 179 90l16 -10q-52 -75 -101.5 -125.5t-93.5 -74.5t-78 -33t-71 -9q-33 0 -69.5 15
t-66.5 33.5t-84 33.5t-118 15q-72 0 -146 -16.5t-126 -35.5t-127.5 -29.5t-153.5 -0.5l8 43h62q135 0 235.5 225.5t124.5 615.5h-233z" />
    <glyph glyph-name="yen" unicode="&#xa5;" horiz-adv-x="1525" 
d="M809 868l432 551q48 62 67.5 104t10.5 65t-35.5 32.5t-73.5 9.5h-57l6 43h498l-6 -43q-37 0 -63 -3t-53.5 -16.5t-46 -26t-50 -47t-55.5 -64t-72 -91.5l-449 -571h385l-10 -70h-410l-36 -223h411l-12 -69h-410l-43 -273q-12 -80 15 -106.5t112 -26.5h86l-6 -43h-680l6 43
h76q92 0 129 26.5t49 104.5l43 275h-409l12 69h410l34 223h-409l10 70h385l-285 698q-25 63 -54.5 92t-86.5 29h-49l6 43h592l-6 -43h-53q-68 0 -105.5 -25t-17.5 -75z" />
    <glyph glyph-name="brokenbar" unicode="&#xa6;" horiz-adv-x="546" 
d="M258 756l145 917h95l-146 -917h-94zM45 -598l145 917h95l-146 -917h-94z" />
    <glyph glyph-name="section" unicode="&#xa7;" horiz-adv-x="1353" 
d="M154 -242q32 0 55 -18t38 -47t29.5 -63.5t36.5 -69.5t52 -64t82 -47t122 -18q155 0 241.5 79t86.5 197q0 113 -57.5 197t-204.5 166l-146 82q-144 81 -217 170t-73 198q0 273 342 395q-96 60 -149.5 157.5t-53.5 203.5q0 185 140.5 303.5t342.5 118.5q183 0 316 -79
t133 -173q0 -35 -18 -64.5t-58 -29.5q-34 0 -57.5 16t-37 41.5t-25.5 56t-30.5 61t-45 56t-75 41.5t-114.5 16q-136 0 -210.5 -71.5t-74.5 -192.5q0 -98 49.5 -167t147.5 -122l201 -108q63 -34 110.5 -68t88 -77.5t62 -96.5t21.5 -114q0 -141 -99 -253t-253 -169
q235 -158 235 -375q0 -93 -35.5 -174.5t-100.5 -143t-164 -97.5t-220 -36q-95 0 -189 27.5t-161 69.5t-109 93t-42 97q0 38 24 67t64 29zM1034 483q0 44 -16 85.5t-40.5 72.5t-61.5 61t-70 51t-74 42l-194 100l-11 4q-99 -52 -144.5 -118t-45.5 -152q0 -96 60.5 -164
t174.5 -129l146 -78l69 -41q207 115 207 266z" />
    <glyph glyph-name="dieresis" unicode="&#xa8;" horiz-adv-x="892" 
d="M106 1403q0 55 39 94t95 39t94.5 -39t38.5 -94t-38.5 -94t-94.5 -39t-95 39t-39 94zM541 1403q0 55 38.5 94t94.5 39t94.5 -39t38.5 -94t-38.5 -94t-94.5 -39t-94.5 39t-38.5 94z" />
    <glyph glyph-name="copyright" unicode="&#xa9;" horiz-adv-x="1832" 
d="M102 784q0 222 109 409.5t296 296.5t408 109q166 0 317 -64.5t260.5 -173.5t174 -260t64.5 -317q0 -165 -64.5 -316t-174 -259.5t-260.5 -173t-317 -64.5q-221 0 -408 109t-296 296t-109 408zM193 784q0 -149 56.5 -284.5t153 -233.5t230.5 -156.5t282 -58.5
q149 0 283.5 58t230.5 156.5t152.5 234t56.5 284.5q0 200 -95.5 369.5t-262 268t-365.5 98.5q-148 0 -282 -58.5t-230.5 -157t-153 -234.5t-56.5 -286zM1315 594v-186q-70 -57 -180 -87t-217 -30q-146 0 -266.5 69.5t-187.5 187t-67 255.5q0 111 45.5 208.5t120 163.5
t170 104t195.5 38q204 0 368 -90v-191h-18q-22 63 -60 109.5t-85 71t-95 36t-100 11.5q-70 0 -134 -27.5t-117.5 -81t-85.5 -145.5t-32 -209q0 -111 33.5 -201.5t87 -144.5t114.5 -82.5t122 -28.5q46 0 85 5t85 21t82 42t68 72.5t50 109.5h19z" />
    <glyph glyph-name="ordfeminine" unicode="&#xaa;" horiz-adv-x="841" 
d="M498 1663q70 0 125 -43l10 55h149l-100 -557q-2 -11 -5 -32q-8 -37 -6.5 -58.5t17.5 -21.5q20 0 53 22.5t72 77.5l18 -12q-42 -82 -87.5 -121t-102.5 -39q-61 0 -93 44t-20 118q-31 -52 -65 -86.5t-67 -50t-57.5 -20.5t-53.5 -5q-54 0 -95.5 23.5t-63.5 61.5t-33 78.5
t-11 80.5q0 103 38 195.5t98 154.5t134 98.5t146 36.5zM362 1010q89 0 173 127l67 372q-8 56 -36.5 89.5t-73.5 33.5q-64 0 -113.5 -47.5t-75.5 -118.5t-38.5 -137t-12.5 -119q0 -200 110 -200z" />
    <glyph glyph-name="guillemotleft" unicode="&#xab;" horiz-adv-x="864" 
d="M711 70l-369 424l2 16l502 422h24l-354 -432l217 -430h-22zM387 70l-369 424l2 16l502 422h25l-354 -432l217 -430h-23z" />
    <glyph glyph-name="logicalnot" unicode="&#xac;" horiz-adv-x="1196" 
d="M106 449l15 86h973l-84 -535h-95l70 449h-879z" />
    <glyph glyph-name="uni00AD" unicode="&#xad;" horiz-adv-x="806" 
d="M94 479l15 86h602l-15 -86h-602z" />
    <glyph glyph-name="registered" unicode="&#xae;" horiz-adv-x="1832" 
d="M102 784q0 222 109 409.5t296 296.5t408 109q166 0 317 -64.5t260.5 -173.5t174 -260t64.5 -317q0 -165 -64.5 -316t-174 -259.5t-260.5 -173t-317 -64.5q-221 0 -408 109t-296 296t-109 408zM193 784q0 -149 56.5 -284.5t153 -233.5t230.5 -156.5t282 -58.5
q149 0 283.5 58t230.5 156.5t152.5 234t56.5 284.5q0 200 -95.5 369.5t-262 268t-365.5 98.5q-148 0 -282 -58.5t-230.5 -157t-153 -234.5t-56.5 -286zM772 1253v-426l96 11q112 12 171 68.5t59 156.5q0 49 -17 85t-42.5 55.5t-64 31t-72.5 15t-77 3.5h-53zM772 801v-365
q0 -48 70 -51l80 -4v-35h-418v35l55 4q36 3 49 16t13 35v768q0 47 -62 53l-55 7v34h346q61 0 109 -3.5t106 -17.5t96.5 -38t65 -68t26.5 -104q0 -88 -83.5 -161.5t-213.5 -88.5q98 -8 160 -58.5t98 -156.5q14 -43 20.5 -61.5t18 -50t19 -43.5t20 -31t24 -24.5t27.5 -11.5
t34.5 -4t41.5 9l6 -10q-18 -18 -53 -32.5t-74 -14.5q-95 0 -149.5 60.5t-89.5 180.5q-40 136 -107.5 184t-179.5 48z" />
    <glyph glyph-name="macron" unicode="&#xaf;" horiz-adv-x="888" 
d="M94 1288l15 96h684l-15 -96h-684z" />
    <glyph glyph-name="degree" unicode="&#xb0;" horiz-adv-x="708" 
d="M61 1413q0 121 85.5 206t207.5 85t207.5 -85t85.5 -206t-85.5 -206t-207.5 -85t-207.5 85t-85.5 206zM156 1413q0 -82 54.5 -145.5t143.5 -63.5q91 0 145 61.5t54 147.5q0 88 -56.5 148.5t-142.5 60.5q-80 0 -139 -60.5t-59 -148.5z" />
    <glyph glyph-name="plusminus" unicode="&#xb1;" horiz-adv-x="1134" 
d="M598 1001h94l-61 -378h442l-14 -86h-441l-57 -359h-94l57 359h-438l14 86h437zM2 0l12 86h973l-12 -86h-973z" />
    <glyph glyph-name="twosuperior" unicode="&#xb2;" horiz-adv-x="901" 
d="M725 877h-690l2 14q16 10 65.5 41.5t77 50t78 52.5t82.5 59.5t74.5 60t68.5 64t51.5 63t37.5 65.5t12 62q0 58 -41.5 83.5t-96.5 25.5q-110 0 -200 -70l-13 16q69 66 151.5 99.5t154.5 33.5q60 0 110 -15t85.5 -54t35.5 -96q0 -37 -17.5 -74.5t-41 -67.5t-69 -65.5
t-77.5 -58t-93.5 -56.5t-90 -48.5t-90.5 -45.5h284q66 0 109 28.5t66 100.5h16z" />
    <glyph glyph-name="threesuperior" unicode="&#xb3;" horiz-adv-x="768" 
d="M205 1059l-6 10q147 64 233 157.5t86 205.5q0 56 -33 83t-86 27q-90 0 -168 -72l-12 15q101 112 260 112q103 0 159 -49t56 -121q0 -65 -50.5 -128.5t-123.5 -107.5t-153 -65q120 -11 185.5 -83.5t65.5 -168.5q0 -59 -30 -120t-82 -110.5t-130 -80.5t-165 -31
q-169 0 -252 95l14 16q39 -30 90.5 -46.5t98.5 -16.5q115 0 194.5 86.5t79.5 210.5q0 82 -56.5 132t-174.5 50z" />
    <glyph glyph-name="acute" unicode="&#xb4;" horiz-adv-x="428" 
d="M489 1618l-450 -479h-27l293 479h184z" />
    <glyph glyph-name="mu" unicode="&#xb5;" horiz-adv-x="1163" 
d="M340 985h94l-104 -659q-18 -112 42.5 -186t180.5 -74q88 0 172 57.5t141 155.5l113 706h94l-158 -985h-90l27 160q-63 -92 -148 -140.5t-182 -48.5q-39 0 -80 13t-83 47t-64 84l-113 -713h-94z" />
    <glyph glyph-name="paragraph" unicode="&#xb6;" horiz-adv-x="1146" 
d="M1163 1579h-174l-287 -1819h-94l287 1819h-160l-286 -1819h-95l172 1098q-175 0 -280 99t-105 278q0 90 31 165.5t96.5 137.5t181 97.5t271.5 35.5h457z" />
    <glyph glyph-name="periodcentered" unicode="&#xb7;" horiz-adv-x="466" 
d="M100 526q0 56 39 94.5t94 38.5q56 0 95 -39t39 -94t-39 -94t-95 -39q-55 0 -94 38.5t-39 94.5z" />
    <glyph glyph-name="cedilla" unicode="&#xb8;" horiz-adv-x="573" 
d="M276 -8h62l-133 -152q61 41 123 41q66 0 104.5 -28t38.5 -86q0 -62 -41 -115.5t-103 -86.5t-131 -51t-128 -16l-5 13q133 16 218.5 91t85.5 150q0 74 -91 74q-43 0 -88 -29l-43 39z" />
    <glyph glyph-name="onesuperior" unicode="&#xb9;" horiz-adv-x="606" 
d="M174 987l76 479q4 33 -16.5 51.5t-55.5 18.5h-61l8 43h453l-9 -43h-57q-35 0 -60.5 -18.5t-31.5 -51.5l-76 -479q-6 -32 15 -50.5t57 -18.5h61l-8 -44h-453l9 44h57q35 0 60.5 18t31.5 51z" />
    <glyph glyph-name="ordmasculine" unicode="&#xba;" horiz-adv-x="813" 
d="M250 1219q0 -238 80 -238q61 0 109 48.5t73.5 120t38 138.5t12.5 119q0 102 -20 168.5t-62 66.5q-49 0 -90.5 -32.5t-66.5 -81.5t-42.5 -108.5t-24.5 -110t-7 -90.5zM82 1169q0 102 41 199t104 164t137 108t140 41q51 0 91 -14t65 -36.5t41.5 -52.5t23 -60t6.5 -62
q0 -102 -41.5 -199t-104.5 -164t-137 -108t-139 -41q-63 0 -110 21t-71 55.5t-35 71.5t-11 77z" />
    <glyph glyph-name="guillemotright" unicode="&#xbb;" horiz-adv-x="864" 
d="M842 494l-502 -424h-23l355 434l-219 428h24l367 -422zM518 494l-502 -424h-22l354 434l-219 428h25l366 -422z" />
    <glyph glyph-name="onequarter" unicode="&#xbc;" horiz-adv-x="1734" 
d="M868 438h285l55 353zM1090 113l32 196h-452l712 735h19l-94 -606h108q45 0 79 24.5t58 94.5h15l-39 -248h-236l-32 -196q-6 -33 15 -51.5t56 -18.5h62l-7 -43h-452l6 43h57q35 0 61 18.5t32 51.5zM254 987l76 479q4 33 -16.5 51.5t-55.5 18.5h-61l8 43h452l-8 -43h-57
q-35 0 -60.5 -18.5t-31.5 -51.5l-76 -479q-6 -32 15 -50.5t57 -18.5h61l-8 -44h-453l8 44h58q35 0 60.5 18t31.5 51zM1536 1673l-1376 -1673h-103l1373 1673h106z" />
    <glyph glyph-name="onehalf" unicode="&#xbd;" horiz-adv-x="1593" 
d="M1536 1673l-1376 -1673h-103l1373 1673h106zM256 987l76 479q4 33 -16.5 51.5t-55.5 18.5h-61l8 43h452l-8 -43h-57q-35 0 -60.5 -18.5t-31.5 -51.5l-76 -479q-6 -32 15 -50.5t57 -18.5h61l-8 -44h-453l8 44h58q35 0 60.5 18t31.5 51zM1329 -4h-690l2 14q16 10 65.5 41.5
t77 50t78 52.5t82.5 59.5t74.5 60t68.5 64t51.5 63t37.5 65.5t12 62q0 58 -41.5 83.5t-95.5 25.5q-111 0 -201 -70l-12 17q69 66 151 99.5t154 33.5q60 0 110 -15.5t85.5 -54.5t35.5 -96q0 -37 -17.5 -74.5t-41 -67.5t-69 -65.5t-77.5 -58t-93.5 -56.5t-90 -48.5
t-90.5 -45.5h285q66 0 108.5 28t65.5 101h16z" />
    <glyph glyph-name="threequarters" unicode="&#xbe;" horiz-adv-x="1902" 
d="M1030 438h285l55 353zM1251 113l33 196h-453l713 735h19l-95 -606h109q45 0 79 24.5t58 94.5h15l-39 -248h-236l-33 -196q-4 -33 16.5 -51.5t55.5 -18.5h61l-6 -43h-452l6 43h57q35 0 61.5 18.5t30.5 51.5zM1704 1673l-1376 -1673h-103l1372 1673h107zM205 1059l-6 10
q147 64 233 157.5t86 205.5q0 56 -33 83t-86 27q-90 0 -168 -72l-12 15q101 112 260 112q103 0 159 -49t56 -121q0 -65 -50.5 -128.5t-123.5 -107.5t-153 -65q120 -11 185.5 -83.5t65.5 -168.5q0 -59 -30 -120t-82 -110.5t-130 -80.5t-165 -31q-169 0 -252 95l14 16
q39 -30 90.5 -46.5t98.5 -16.5q115 0 194.5 86.5t79.5 210.5q0 82 -56.5 132t-174.5 50z" />
    <glyph glyph-name="questiondown" unicode="&#xbf;" horiz-adv-x="788" 
d="M645 616l17 11q2 -2 17 -18t26 -32t25 -40.5t22 -56.5t8 -68q0 -76 -26 -149t-68 -134t-92.5 -121.5t-100.5 -120t-92 -118.5t-68 -128.5t-26 -140.5q0 -66 29 -112.5t90 -46.5q45 0 80.5 20.5t59 49.5t45 58t48.5 49.5t59 20.5q31 0 51.5 -17.5t20.5 -49.5
q0 -50 -55.5 -89.5t-136 -59t-164.5 -19.5q-135 0 -222.5 66.5t-87.5 199.5q0 70 31 141.5t80.5 135t109 129t119 131.5t109 132t80.5 143t31 153q0 53 -19 81zM578 897q0 55 39 94t94 39t94 -39t39 -94t-39 -94t-94 -39t-94 39t-39 94z" />
    <glyph glyph-name="Agrave" unicode="&#xc0;" horiz-adv-x="1615" 
d="M209 297l782 1425h27l364 -1558q31 -121 144 -121h49l-6 -43h-584l6 43h45q67 0 101.5 23t21.5 77l-104 457h-592l-150 -274q-43 -76 -64.5 -125.5t-27.5 -82t9.5 -48.5t42 -21.5t75.5 -5.5h35l-6 -43h-492l6 43h21q62 0 102.5 17t87 71.5t107.5 165.5zM881 1366
l-342 -627h483zM944 1737l-299 479h184l142 -479h-27z" />
    <glyph glyph-name="Aacute" unicode="&#xc1;" horiz-adv-x="1615" 
d="M209 297l782 1425h27l364 -1558q31 -121 144 -121h49l-6 -43h-584l6 43h45q67 0 101.5 23t21.5 77l-104 457h-592l-150 -274q-43 -76 -64.5 -125.5t-27.5 -82t9.5 -48.5t42 -21.5t75.5 -5.5h35l-6 -43h-492l6 43h21q62 0 102.5 17t87 71.5t107.5 165.5zM881 1366
l-342 -627h483zM1272 2224l-451 -479h-26l292 479h185z" />
    <glyph glyph-name="Acircumflex" unicode="&#xc2;" horiz-adv-x="1615" 
d="M209 297l782 1425h27l364 -1558q31 -121 144 -121h49l-6 -43h-584l6 43h45q67 0 101.5 23t21.5 77l-104 457h-592l-150 -274q-43 -76 -64.5 -125.5t-27.5 -82t9.5 -48.5t42 -21.5t75.5 -5.5h35l-6 -43h-492l6 43h21q62 0 102.5 17t87 71.5t107.5 165.5zM881 1366
l-342 -627h483zM1090 2236l235 -499h-20l-258 301l-365 -301h-25l414 499h19z" />
    <glyph glyph-name="Atilde" unicode="&#xc3;" horiz-adv-x="1615" 
d="M209 297l782 1425h27l364 -1558q31 -121 144 -121h49l-6 -43h-584l6 43h45q67 0 101.5 23t21.5 77l-104 457h-592l-150 -274q-43 -76 -64.5 -125.5t-27.5 -82t9.5 -48.5t42 -21.5t75.5 -5.5h35l-6 -43h-492l6 43h21q62 0 102.5 17t87 71.5t107.5 165.5zM881 1366
l-342 -627h483zM1360 2056l108 96l13 -8l-133 -250h-611l-108 -96l-13 8l134 250h610z" />
    <glyph glyph-name="Adieresis" unicode="&#xc4;" horiz-adv-x="1615" 
d="M209 297l782 1425h27l364 -1558q31 -121 144 -121h49l-6 -43h-584l6 43h45q67 0 101.5 23t21.5 77l-104 457h-592l-150 -274q-43 -76 -64.5 -125.5t-27.5 -82t9.5 -48.5t42 -21.5t75.5 -5.5h35l-6 -43h-492l6 43h21q62 0 102.5 17t87 71.5t107.5 165.5zM881 1366
l-342 -627h483zM618 1989q0 55 39 94t95 39t94.5 -39t38.5 -94q0 -56 -39 -95t-94 -39q-56 0 -95 39.5t-39 94.5zM1176 1989q0 55 39 94t94 39t94 -39t39 -94q0 -56 -39 -95t-94 -39t-94 39t-39 95z" />
    <glyph glyph-name="Aring" unicode="&#xc5;" horiz-adv-x="1615" 
d="M209 297l782 1425h27l364 -1558q31 -121 144 -121h49l-6 -43h-584l6 43h45q67 0 101.5 23t21.5 77l-104 457h-592l-150 -274q-43 -76 -64.5 -125.5t-27.5 -82t9.5 -48.5t42 -21.5t75.5 -5.5h35l-6 -43h-492l6 43h21q62 0 102.5 17t87 71.5t107.5 165.5zM881 1366
l-342 -627h483zM1059 2198q78 0 131 -53t53 -128q0 -92 -72.5 -156.5t-166.5 -64.5q-78 0 -130.5 51t-52.5 125q0 94 71 160t167 66zM1049 2130q-62 0 -105 -44t-43 -106q0 -48 31.5 -82t81.5 -34q64 0 107.5 41.5t43.5 103.5q0 51 -34 86t-82 35z" />
    <glyph glyph-name="AE" unicode="&#xc6;" horiz-adv-x="2594" 
d="M485 408l1049 1114q9 62 -16.5 85t-94.5 23h-73l6 43h1184l-50 -307h-20q0 134 -71.5 182.5t-229.5 48.5h-410l-106 -671h245q49 0 81 3t71 14.5t66 33.5t52.5 61.5t43.5 96.5h20l-75 -490h-21q0 41 -7 73.5t-18 54.5t-30 37t-37.5 23.5t-46.5 13.5t-51 6t-58 1h-248
l-104 -670q-10 -63 20 -85.5t95 -22.5h350q154 0 245 60t136 204h20l-53 -340h-1257l6 43h73q71 0 104.5 24.5t43.5 88.5l111 698h-418l-477 -514q-147 -159 -169 -218q-22 -60 52 -74q27 -5 71 -5h58l-6 -43h-590l6 43q50 4 85.5 11t75 26t70.5 40t80.5 66.5t94 92
t122.5 129.5zM1077 926h363l73 471z" />
    <glyph glyph-name="Ccedilla" unicode="&#xc7;" horiz-adv-x="1728" 
d="M1581 424l-47 -297q-146 -90 -277 -123t-299 -33q-4 0 -12 1t-12 1l-115 -133q61 41 123 41q66 0 104.5 -28t38.5 -86q0 -62 -41 -115.5t-103 -86.5t-131 -51t-128 -16l-4 13q133 16 218 91t85 150q0 74 -90 74q-43 0 -88 -29l-43 39l117 139q-185 13 -334.5 83.5
t-245.5 181.5t-147.5 250.5t-51.5 293.5q0 204 70.5 377.5t192 292.5t287 185.5t353.5 66.5q167 0 357 -51.5t309 -134.5l-33 -312h-22q-24 92 -71 166.5t-106 124.5t-131 84t-144.5 49t-147.5 15q-134 0 -255.5 -67t-213 -187t-145.5 -297.5t-54 -386.5q0 -326 164 -498
t436 -172q63 0 113 5t105.5 19.5t103.5 41.5t98.5 68.5t99 104.5t95.5 146h22z" />
    <glyph glyph-name="Egrave" unicode="&#xc8;" horiz-adv-x="1501" 
d="M250 156l215 1362q10 64 -15 88t-96 24h-73l6 43h1194l-45 -321h-21q0 62 -14 104.5t-41 70.5t-74.5 43t-105 21t-142.5 6h-348l-106 -671h256q49 0 81 3t71 14.5t65.5 33.5t52 61.5t43.5 96.5h21l-76 -490h-21q0 41 -7 73.5t-18 54.5t-30 37t-37.5 23.5t-46.5 13.5
t-51 6t-58 1h-258l-104 -670q-10 -63 20 -85.5t95 -22.5h360q154 0 245 60t136 204h20l-53 -340h-1265l6 43h71q71 0 104.5 24.5t43.5 88.5zM1073 1737l-299 479h184l142 -479h-27z" />
    <glyph glyph-name="Eacute" unicode="&#xc9;" horiz-adv-x="1501" 
d="M250 156l215 1362q10 64 -15 88t-96 24h-73l6 43h1194l-45 -321h-21q0 62 -14 104.5t-41 70.5t-74.5 43t-105 21t-142.5 6h-348l-106 -671h256q49 0 81 3t71 14.5t65.5 33.5t52 61.5t43.5 96.5h21l-76 -490h-21q0 41 -7 73.5t-18 54.5t-30 37t-37.5 23.5t-46.5 13.5
t-51 6t-58 1h-258l-104 -670q-10 -63 20 -85.5t95 -22.5h360q154 0 245 60t136 204h20l-53 -340h-1265l6 43h71q71 0 104.5 24.5t43.5 88.5zM1339 2224l-450 -479h-27l293 479h184z" />
    <glyph glyph-name="Ecircumflex" unicode="&#xca;" horiz-adv-x="1501" 
d="M250 156l215 1362q10 64 -15 88t-96 24h-73l6 43h1194l-45 -321h-21q0 62 -14 104.5t-41 70.5t-74.5 43t-105 21t-142.5 6h-348l-106 -671h256q49 0 81 3t71 14.5t65.5 33.5t52 61.5t43.5 96.5h21l-76 -490h-21q0 41 -7 73.5t-18 54.5t-30 37t-37.5 23.5t-46.5 13.5
t-51 6t-58 1h-258l-104 -670q-10 -63 20 -85.5t95 -22.5h360q154 0 245 60t136 204h20l-53 -340h-1265l6 43h71q71 0 104.5 24.5t43.5 88.5zM1032 2236l236 -499h-21l-258 301l-364 -301h-25l414 499h18z" />
    <glyph glyph-name="Edieresis" unicode="&#xcb;" horiz-adv-x="1501" 
d="M250 156l215 1362q10 64 -15 88t-96 24h-73l6 43h1194l-45 -321h-21q0 62 -14 104.5t-41 70.5t-74.5 43t-105 21t-142.5 6h-348l-106 -671h256q49 0 81 3t71 14.5t65.5 33.5t52 61.5t43.5 96.5h21l-76 -490h-21q0 41 -7 73.5t-18 54.5t-30 37t-37.5 23.5t-46.5 13.5
t-51 6t-58 1h-258l-104 -670q-10 -63 20 -85.5t95 -22.5h360q154 0 245 60t136 204h20l-53 -340h-1265l6 43h71q71 0 104.5 24.5t43.5 88.5zM569 1989q0 55 38.5 94t94.5 39t95 -39t39 -94t-39 -94.5t-95 -39.5q-55 0 -94 39t-39 95zM1126 1989q0 55 39 94t95 39t94.5 -39
t38.5 -94q0 -56 -39 -95t-94 -39q-56 0 -95 39.5t-39 94.5z" />
    <glyph glyph-name="Igrave" unicode="&#xcc;" horiz-adv-x="888" 
d="M250 156l215 1362q10 64 -15 88t-96 24h-73l6 43h618l-6 -43h-74q-71 0 -104 -24t-43 -88l-215 -1362q-10 -65 14.5 -89t95.5 -24h74l-6 -43h-616l6 43h71q71 0 104.5 24.5t43.5 88.5zM743 1737l-299 479h185l141 -479h-27z" />
    <glyph glyph-name="Iacute" unicode="&#xcd;" horiz-adv-x="888" 
d="M250 156l215 1362q10 64 -15 88t-96 24h-73l6 43h618l-6 -43h-74q-71 0 -104 -24t-43 -88l-215 -1362q-10 -65 14.5 -89t95.5 -24h74l-6 -43h-616l6 43h71q71 0 104.5 24.5t43.5 88.5zM872 2224l-450 -479h-27l293 479h184z" />
    <glyph glyph-name="Icircumflex" unicode="&#xce;" horiz-adv-x="888" 
d="M250 156l215 1362q10 64 -15 88t-96 24h-73l6 43h618l-6 -43h-74q-71 0 -104 -24t-43 -88l-215 -1362q-10 -65 14.5 -89t95.5 -24h74l-6 -43h-616l6 43h71q71 0 104.5 24.5t43.5 88.5zM707 2236l235 -499h-20l-258 301l-365 -301h-25l414 499h19z" />
    <glyph glyph-name="Idieresis" unicode="&#xcf;" horiz-adv-x="888" 
d="M299 1989q0 55 38.5 94t94.5 39t94.5 -39t38.5 -94q0 -56 -39 -95t-94 -39t-94 39t-39 95zM733 1989q0 55 38.5 94t94.5 39t94.5 -39t38.5 -94q0 -56 -39 -95t-94 -39t-94 39t-39 95zM250 156l215 1362q10 64 -15 88t-96 24h-73l6 43h618l-6 -43h-74q-71 0 -104 -24
t-43 -88l-215 -1362q-10 -65 14.5 -89t95.5 -24h74l-6 -43h-616l6 43h71q71 0 104.5 24.5t43.5 88.5z" />
    <glyph glyph-name="Eth" unicode="&#xd0;" horiz-adv-x="1892" 
d="M43 815l8 74h314l100 629q10 64 -15 88t-96 24h-73l6 43h559q189 0 345.5 -35.5t269 -99.5t189.5 -154.5t114.5 -200.5t37.5 -237q0 -272 -131.5 -488t-367.5 -337t-535 -121h-743l6 43h71q71 0 104.5 24.5t43.5 88.5l104 659h-311zM692 1612l-114 -723h372l-10 -74h-375
l-100 -641q-4 -23 -4 -38t3.5 -28.5t14.5 -21t26 -13.5t43 -8.5t60.5 -4t81.5 -1.5h37q124 0 244 34.5t228.5 107.5t190.5 176t130.5 250t48.5 319q0 139 -43 252.5t-115 189t-168.5 127.5t-199.5 74.5t-212 22.5h-139z" />
    <glyph glyph-name="Ntilde" unicode="&#xd1;" horiz-adv-x="1890" 
d="M1495 356l170 1069q18 113 -4.5 159t-110.5 46h-77l6 43h534l-6 -43h-61q-87 0 -132.5 -48t-62.5 -157l-229 -1454h-19l-950 1432l-182 -1155q-18 -113 4 -159t110 -46h78l-6 -43h-532l6 43h59q87 0 132.5 48t62.5 157l190 1200q7 47 -9 83t-47.5 56.5t-66 30.5t-69.5 10
l6 45h352zM1503 2056l109 96l12 -8l-133 -250h-610l-109 -96l-12 8l133 250h610z" />
    <glyph glyph-name="Ograve" unicode="&#xd2;" horiz-adv-x="1953" 
d="M1022 1647q-136 0 -259.5 -67.5t-216.5 -188t-147.5 -298t-54.5 -384.5q0 -172 46.5 -303.5t128.5 -211t189 -119.5t234 -40q140 0 263 67t213 186.5t142 295.5t52 383q0 171 -45.5 302.5t-126 213t-186.5 123t-232 41.5zM995 1706q182 0 339 -57.5t270.5 -161
t178 -255.5t64.5 -333q0 -201 -68 -374t-185.5 -293t-280 -188.5t-346.5 -68.5q-250 0 -445 98.5t-305.5 284t-110.5 430.5q0 197 70.5 369t191 292t283.5 188.5t344 68.5zM1174 1737l-300 479h185l141 -479h-26z" />
    <glyph glyph-name="Oacute" unicode="&#xd3;" horiz-adv-x="1953" 
d="M1022 1647q-136 0 -259.5 -67.5t-216.5 -188t-147.5 -298t-54.5 -384.5q0 -172 46.5 -303.5t128.5 -211t189 -119.5t234 -40q140 0 263 67t213 186.5t142 295.5t52 383q0 171 -45.5 302.5t-126 213t-186.5 123t-232 41.5zM995 1706q182 0 339 -57.5t270.5 -161
t178 -255.5t64.5 -333q0 -201 -68 -374t-185.5 -293t-280 -188.5t-346.5 -68.5q-250 0 -445 98.5t-305.5 284t-110.5 430.5q0 197 70.5 369t191 292t283.5 188.5t344 68.5zM1425 2224l-450 -479h-27l293 479h184z" />
    <glyph glyph-name="Ocircumflex" unicode="&#xd4;" horiz-adv-x="1953" 
d="M1022 1647q-136 0 -259.5 -67.5t-216.5 -188t-147.5 -298t-54.5 -384.5q0 -172 46.5 -303.5t128.5 -211t189 -119.5t234 -40q140 0 263 67t213 186.5t142 295.5t52 383q0 171 -45.5 302.5t-126 213t-186.5 123t-232 41.5zM995 1706q182 0 339 -57.5t270.5 -161
t178 -255.5t64.5 -333q0 -201 -68 -374t-185.5 -293t-280 -188.5t-346.5 -68.5q-250 0 -445 98.5t-305.5 284t-110.5 430.5q0 197 70.5 369t191 292t283.5 188.5t344 68.5zM1200 2236l236 -499h-21l-258 301l-364 -301h-25l414 499h18z" />
    <glyph glyph-name="Otilde" unicode="&#xd5;" horiz-adv-x="1953" 
d="M1022 1647q-136 0 -259.5 -67.5t-216.5 -188t-147.5 -298t-54.5 -384.5q0 -172 46.5 -303.5t128.5 -211t189 -119.5t234 -40q140 0 263 67t213 186.5t142 295.5t52 383q0 171 -45.5 302.5t-126 213t-186.5 123t-232 41.5zM995 1706q182 0 339 -57.5t270.5 -161
t178 -255.5t64.5 -333q0 -201 -68 -374t-185.5 -293t-280 -188.5t-346.5 -68.5q-250 0 -445 98.5t-305.5 284t-110.5 430.5q0 197 70.5 369t191 292t283.5 188.5t344 68.5zM1442 2056l108 96l13 -8l-133 -250h-611l-108 -96l-13 8l133 250h611z" />
    <glyph glyph-name="Odieresis" unicode="&#xd6;" horiz-adv-x="1953" 
d="M1022 1647q-136 0 -259.5 -67.5t-216.5 -188t-147.5 -298t-54.5 -384.5q0 -172 46.5 -303.5t128.5 -211t189 -119.5t234 -40q140 0 263 67t213 186.5t142 295.5t52 383q0 171 -45.5 302.5t-126 213t-186.5 123t-232 41.5zM995 1706q182 0 339 -57.5t270.5 -161
t178 -255.5t64.5 -333q0 -201 -68 -374t-185.5 -293t-280 -188.5t-346.5 -68.5q-250 0 -445 98.5t-305.5 284t-110.5 430.5q0 197 70.5 369t191 292t283.5 188.5t344 68.5zM735 1989q0 55 38.5 94t94.5 39t94.5 -39t38.5 -94q0 -56 -39 -95t-94 -39t-94 39t-39 95z
M1292 1989q0 55 39 94t94 39q56 0 95 -39t39 -94t-39.5 -94.5t-94.5 -39.5t-94 39t-39 95z" />
    <glyph glyph-name="multiply" unicode="&#xd7;" horiz-adv-x="1089" 
d="M993 956l62 -71l-439 -379l306 -363l-76 -63l-305 360l-426 -368l-62 71l428 371l-321 383l76 66l321 -383z" />
    <glyph glyph-name="Oslash" unicode="&#xd8;" horiz-adv-x="1953" 
d="M995 1706q326 0 551 -172l166 170h119l-219 -225q113 -106 174 -254t61 -326q0 -201 -68 -374t-185.5 -293t-280 -188.5t-346.5 -68.5t-340 55t-271 158l-182 -188h-115l238 246q-191 216 -191 542q0 197 70.5 369t191 292t283.5 188.5t344 68.5zM1612 967q0 246 -96 413
l-1067 -1097q80 -124 207.5 -186t285.5 -62q140 0 263 67t213 186.5t142 295.5t52 383zM1022 1647q-136 0 -259.5 -67.5t-216.5 -188t-147.5 -298t-54.5 -384.5q0 -202 64 -349l1058 1092q-78 96 -193 145.5t-251 49.5z" />
    <glyph glyph-name="Ugrave" unicode="&#xd9;" horiz-adv-x="1732" 
d="M1614 1425l-123 -780q-50 -315 -240.5 -494.5t-488.5 -179.5q-305 0 -455 179.5t-98 506.5l135 861q10 64 -15 88t-96 24h-73l6 43h618l-6 -43h-73q-71 0 -104.5 -24t-43.5 -88l-139 -881q-39 -254 73 -404.5t332 -150.5q244 0 390.5 152t187.5 415l123 776
q18 113 -4.5 159t-110.5 46h-78l6 43h539l-6 -43h-62q-87 0 -132 -48t-62 -157zM1122 1737l-299 479h185l141 -479h-27z" />
    <glyph glyph-name="Uacute" unicode="&#xda;" horiz-adv-x="1732" 
d="M1614 1425l-123 -780q-50 -315 -240.5 -494.5t-488.5 -179.5q-305 0 -455 179.5t-98 506.5l135 861q10 64 -15 88t-96 24h-73l6 43h618l-6 -43h-73q-71 0 -104.5 -24t-43.5 -88l-139 -881q-39 -254 73 -404.5t332 -150.5q244 0 390.5 152t187.5 415l123 776
q18 113 -4.5 159t-110.5 46h-78l6 43h539l-6 -43h-62q-87 0 -132 -48t-62 -157zM1397 2224l-451 -479h-26l292 479h185z" />
    <glyph glyph-name="Ucircumflex" unicode="&#xdb;" horiz-adv-x="1732" 
d="M1614 1425l-123 -780q-50 -315 -240.5 -494.5t-488.5 -179.5q-305 0 -455 179.5t-98 506.5l135 861q10 64 -15 88t-96 24h-73l6 43h618l-6 -43h-73q-71 0 -104.5 -24t-43.5 -88l-139 -881q-39 -254 73 -404.5t332 -150.5q244 0 390.5 152t187.5 415l123 776
q18 113 -4.5 159t-110.5 46h-78l6 43h539l-6 -43h-62q-87 0 -132 -48t-62 -157zM1171 2236l236 -499h-21l-258 301l-364 -301h-25l414 499h18z" />
    <glyph glyph-name="Udieresis" unicode="&#xdc;" horiz-adv-x="1732" 
d="M1614 1425l-123 -780q-50 -315 -240.5 -494.5t-488.5 -179.5q-305 0 -455 179.5t-98 506.5l135 861q10 64 -15 88t-96 24h-73l6 43h618l-6 -43h-73q-71 0 -104.5 -24t-43.5 -88l-139 -881q-39 -254 73 -404.5t332 -150.5q244 0 390.5 152t187.5 415l123 776
q18 113 -4.5 159t-110.5 46h-78l6 43h539l-6 -43h-62q-87 0 -132 -48t-62 -157zM672 1989q0 55 39 94t94 39t94 -39t39 -94q0 -56 -39 -95t-94 -39t-94 39t-39 95zM1229 1989q0 55 38.5 94t94.5 39t94.5 -39t38.5 -94q0 -56 -39 -95t-94 -39t-94 39t-39 95z" />
    <glyph glyph-name="Yacute" unicode="&#xdd;" horiz-adv-x="1525" 
d="M809 868l432 551q48 62 67.5 104t10.5 65t-35.5 32.5t-73.5 9.5h-57l6 43h498l-6 -43q-37 0 -63 -3t-53.5 -16.5t-46 -26t-50 -47t-55.5 -64t-72 -91.5l-480 -612l-94 -594q-12 -80 15 -106.5t112 -26.5h86l-6 -43h-680l6 43h76q92 0 129 26.5t49 104.5l94 592l-303 743
q-25 63 -54.5 92t-86.5 29h-49l6 43h592l-6 -43h-53q-68 0 -105.5 -25t-17.5 -75zM1313 2224l-451 -479h-26l292 479h185z" />
    <glyph glyph-name="Thorn" unicode="&#xde;" horiz-adv-x="1421" 
d="M463 481l-51 -325q-10 -65 14.5 -89t95.5 -24h117l-6 -43h-660l7 43h71q71 0 104.5 24.5t43.5 88.5l215 1362q10 64 -15 88t-96 24h-74l7 43h618l-6 -43h-74q-71 0 -104 -24t-43 -88l-25 -150h199q125 0 229 -23.5t186 -71t128.5 -128t46.5 -187.5q0 -130 -48 -233.5
t-132.5 -170.5t-198 -102.5t-246.5 -35.5q-184 0 -303 65zM780 1313q-53 0 -188 -19l-125 -786q89 -21 192 -21t192 28t160 84.5t111.5 150.5t40.5 217q0 159 -97 252.5t-286 93.5z" />
    <glyph glyph-name="germandbls" unicode="&#xdf;" horiz-adv-x="1257" 
d="M78 -115l176 1258q35 254 184 401.5t365 147.5q136 0 231.5 -58.5t95.5 -160.5q0 -49 -19.5 -92.5t-44 -72t-68.5 -58.5t-71.5 -44t-74.5 -37q-73 -34 -109 -66t-36 -83q0 -66 53.5 -135t130.5 -127l76 -56q110 -80 164.5 -163t54.5 -179q0 -71 -26 -134.5t-69 -109
t-98 -79t-114 -50t-115 -16.5q-149 0 -248.5 69t-99.5 146q0 33 20.5 58.5t61.5 25.5q40 0 62.5 -26t33 -62.5t24 -73t48 -62.5t92.5 -26q118 0 184 72.5t66 179.5q0 140 -138 242l-106 78q-96 70 -146.5 140t-50.5 159q0 56 16.5 100.5t52 80t68 58t87.5 54.5
q157 90 157 276q0 76 -43.5 129t-128.5 53q-51 0 -99 -24t-94 -75t-81 -144.5t-53 -220.5l-175 -1252q-15 -106 -45 -192.5t-70 -145.5t-85.5 -101.5t-96.5 -66t-98 -34.5t-94 -11q-65 0 -126.5 14t-106 44.5t-44.5 72.5t25.5 68.5t60.5 26.5q42 0 73 -29t47 -63.5t43 -63.5
t61 -29q33 0 67.5 22t72 71.5t70 146.5t50.5 229z" />
    <glyph glyph-name="agrave" unicode="&#xe0;" horiz-adv-x="1169" 
d="M666 1014q106 0 180 -62l14 78h182l-139 -799q-2 -14 -7 -40q-12 -55 -11 -88t26 -33q23 0 71 38t105 109l27 -20q-79 -115 -138 -170.5t-134 -55.5q-84 0 -116 60.5t-13 169.5v2q-45 -75 -92.5 -124.5t-95 -71.5t-83.5 -29t-80 -7q-63 0 -114 20.5t-83 53.5t-53.5 77
t-30.5 88t-9 89q0 147 54.5 282t140.5 228.5t191.5 149t207.5 55.5zM455 61q147 0 270 205l98 553q-21 68 -65 110t-101 42q-74 0 -138 -46.5t-105.5 -116.5t-72 -154.5t-43.5 -158.5t-13 -130q0 -139 42.5 -221.5t127.5 -82.5zM782 1139l-299 479h185l141 -479h-27z" />
    <glyph glyph-name="aacute" unicode="&#xe1;" horiz-adv-x="1169" 
d="M666 1014q106 0 180 -62l14 78h182l-139 -799q-2 -14 -7 -40q-12 -55 -11 -88t26 -33q23 0 71 38t105 109l27 -20q-79 -115 -138 -170.5t-134 -55.5q-84 0 -116 60.5t-13 169.5v2q-45 -75 -92.5 -124.5t-95 -71.5t-83.5 -29t-80 -7q-63 0 -114 20.5t-83 53.5t-53.5 77
t-30.5 88t-9 89q0 147 54.5 282t140.5 228.5t191.5 149t207.5 55.5zM455 61q147 0 270 205l98 553q-21 68 -65 110t-101 42q-74 0 -138 -46.5t-105.5 -116.5t-72 -154.5t-43.5 -158.5t-13 -130q0 -139 42.5 -221.5t127.5 -82.5zM1087 1618l-450 -479h-27l293 479h184z" />
    <glyph glyph-name="acircumflex" unicode="&#xe2;" horiz-adv-x="1169" 
d="M666 1014q106 0 180 -62l14 78h182l-139 -799q-2 -14 -7 -40q-12 -55 -11 -88t26 -33q23 0 71 38t105 109l27 -20q-79 -115 -138 -170.5t-134 -55.5q-84 0 -116 60.5t-13 169.5v2q-45 -75 -92.5 -124.5t-95 -71.5t-83.5 -29t-80 -7q-63 0 -114 20.5t-83 53.5t-53.5 77
t-30.5 88t-9 89q0 147 54.5 282t140.5 228.5t191.5 149t207.5 55.5zM455 61q147 0 270 205l98 553q-21 68 -65 110t-101 42q-74 0 -138 -46.5t-105.5 -116.5t-72 -154.5t-43.5 -158.5t-13 -130q0 -139 42.5 -221.5t127.5 -82.5zM791 1638l235 -499h-20l-258 301l-365 -301
h-25l414 499h19z" />
    <glyph glyph-name="atilde" unicode="&#xe3;" horiz-adv-x="1169" 
d="M666 1014q106 0 180 -62l14 78h182l-139 -799q-2 -14 -7 -40q-12 -55 -11 -88t26 -33q23 0 71 38t105 109l27 -20q-79 -115 -138 -170.5t-134 -55.5q-84 0 -116 60.5t-13 169.5v2q-45 -75 -92.5 -124.5t-95 -71.5t-83.5 -29t-80 -7q-63 0 -114 20.5t-83 53.5t-53.5 77
t-30.5 88t-9 89q0 147 54.5 282t140.5 228.5t191.5 149t207.5 55.5zM455 61q147 0 270 205l98 553q-21 68 -65 110t-101 42q-74 0 -138 -46.5t-105.5 -116.5t-72 -154.5t-43.5 -158.5t-13 -130q0 -139 42.5 -221.5t127.5 -82.5zM1036 1450l109 96l12 -8l-133 -240h-528
l-109 -96l-12 8l133 240h528z" />
    <glyph glyph-name="adieresis" unicode="&#xe4;" horiz-adv-x="1169" 
d="M666 1014q106 0 180 -62l14 78h182l-139 -799q-2 -14 -7 -40q-12 -55 -11 -88t26 -33q23 0 71 38t105 109l27 -20q-79 -115 -138 -170.5t-134 -55.5q-84 0 -116 60.5t-13 169.5v2q-45 -75 -92.5 -124.5t-95 -71.5t-83.5 -29t-80 -7q-63 0 -114 20.5t-83 53.5t-53.5 77
t-30.5 88t-9 89q0 147 54.5 282t140.5 228.5t191.5 149t207.5 55.5zM455 61q147 0 270 205l98 553q-21 68 -65 110t-101 42q-74 0 -138 -46.5t-105.5 -116.5t-72 -154.5t-43.5 -158.5t-13 -130q0 -139 42.5 -221.5t127.5 -82.5zM403 1403q0 55 39 94t95 39q55 0 94 -39
t39 -94t-39 -94t-94 -39q-56 0 -95 39t-39 94zM838 1403q0 55 39 94t94 39t94 -39t39 -94t-39 -94t-94 -39t-94 39t-39 94z" />
    <glyph glyph-name="aring" unicode="&#xe5;" horiz-adv-x="1169" 
d="M666 1014q106 0 180 -62l14 78h182l-139 -799q-2 -14 -7 -40q-12 -55 -11 -88t26 -33q23 0 71 38t105 109l27 -20q-79 -115 -138 -170.5t-134 -55.5q-84 0 -116 60.5t-13 169.5v2q-45 -75 -92.5 -124.5t-95 -71.5t-83.5 -29t-80 -7q-63 0 -114 20.5t-83 53.5t-53.5 77
t-30.5 88t-9 89q0 147 54.5 282t140.5 228.5t191.5 149t207.5 55.5zM455 61q147 0 270 205l98 553q-21 68 -65 110t-101 42q-74 0 -138 -46.5t-105.5 -116.5t-72 -154.5t-43.5 -158.5t-13 -130q0 -139 42.5 -221.5t127.5 -82.5zM809 1599q78 0 131 -52.5t53 -127.5
q0 -92 -72.5 -156.5t-166.5 -64.5q-78 0 -130.5 51t-52.5 125q0 94 70.5 159.5t167.5 65.5zM799 1532q-62 0 -105 -44t-43 -106q0 -48 31.5 -82t81.5 -34q64 0 107.5 41.5t43.5 103.5q0 51 -34 86t-82 35z" />
    <glyph glyph-name="ae" unicode="&#xe6;" horiz-adv-x="1552" 
d="M666 1014q103 0 180 -62l14 78h182l-20 -104q129 104 270 104q114 0 166.5 -49t52.5 -107q0 -45 -14.5 -84t-36 -69t-59.5 -58.5t-73 -48.5t-89.5 -43.5t-95 -38.5t-104 -38t-103.5 -39q-6 -46 -6 -88q0 -136 47 -216.5t123 -80.5q75 0 159 65.5t158 186.5l31 -19
q-43 -81 -85 -139t-81 -95.5t-82 -59t-84 -30t-90 -8.5q-114 0 -193.5 73t-89.5 208q-35 -73 -76.5 -127t-79 -83t-80.5 -45.5t-73.5 -21t-66.5 -4.5q-78 0 -137.5 30t-92.5 79t-49 103.5t-16 111.5q0 118 35.5 230t95.5 199t136 153.5t161 101.5t166 35zM741 305
q6 92 23 191l57 325q-19 67 -63 108.5t-101 41.5q-74 0 -138 -46.5t-105.5 -116.5t-72 -154.5t-43.5 -158.5t-13 -130q0 -139 42.5 -221.5t127.5 -82.5q29 0 59.5 10.5t68.5 35.5t79 75.5t79 122.5zM1231 979q-82 0 -170.5 -141.5t-120.5 -352.5q72 30 138 68t125.5 85
t95.5 103t36 111q0 65 -29.5 96t-74.5 31z" />
    <glyph glyph-name="ccedilla" unicode="&#xe7;" 
d="M82 295q0 100 25.5 204t75 198.5t116.5 169t156.5 119t187.5 44.5q85 0 167.5 -40.5t82.5 -102.5q0 -42 -24.5 -69t-59.5 -27q-37 0 -60.5 19.5t-35.5 47.5t-25 56t-38 47.5t-64 19.5q-78 0 -149 -99.5t-110.5 -241t-39.5 -273.5q0 -137 44.5 -217t119.5 -80t159 65.5
t158 186.5l31 -19q-100 -189 -196 -259t-222 -73l-115 -131q61 41 123 41q66 0 104.5 -28t38.5 -86q0 -62 -41 -115.5t-103 -86.5t-131 -51t-128 -16l-4 13q133 16 218 91t85 150q0 74 -90 74q-43 0 -88 -29l-43 39l115 139q-115 12 -177.5 92.5t-62.5 227.5z" />
    <glyph glyph-name="egrave" unicode="&#xe8;" 
d="M862 874q0 -44 -14 -83t-36 -68.5t-60 -58t-73 -48.5t-89.5 -43.5t-95.5 -39t-104 -39t-103 -39.5q-6 -46 -6 -88q0 -56 7.5 -104.5t25.5 -94t52.5 -72t82.5 -26.5q43 0 90.5 23.5t89 62.5t76.5 82t63 88l31 -19q-53 -99 -107 -167t-107.5 -103.5t-103 -50.5t-106.5 -15
q-140 0 -216.5 82t-76.5 242q0 143 47.5 279t125 235.5t180 160t208.5 60.5q114 0 166.5 -49t52.5 -107zM582 979q-58 0 -120 -73t-108.5 -186.5t-64.5 -234.5q72 30 138 68t126.5 85t96.5 103t36 111q0 65 -29.5 96t-74.5 31zM670 1139l-299 479h184l141 -479h-26z" />
    <glyph glyph-name="eacute" unicode="&#xe9;" 
d="M862 874q0 -44 -14 -83t-36 -68.5t-60 -58t-73 -48.5t-89.5 -43.5t-95.5 -39t-104 -39t-103 -39.5q-6 -46 -6 -88q0 -56 7.5 -104.5t25.5 -94t52.5 -72t82.5 -26.5q43 0 90.5 23.5t89 62.5t76.5 82t63 88l31 -19q-53 -99 -107 -167t-107.5 -103.5t-103 -50.5t-106.5 -15
q-140 0 -216.5 82t-76.5 242q0 143 47.5 279t125 235.5t180 160t208.5 60.5q114 0 166.5 -49t52.5 -107zM582 979q-58 0 -120 -73t-108.5 -186.5t-64.5 -234.5q72 30 138 68t126.5 85t96.5 103t36 111q0 65 -29.5 96t-74.5 31zM961 1618l-451 -479h-27l293 479h185z" />
    <glyph glyph-name="ecircumflex" unicode="&#xea;" 
d="M862 874q0 -44 -14 -83t-36 -68.5t-60 -58t-73 -48.5t-89.5 -43.5t-95.5 -39t-104 -39t-103 -39.5q-6 -46 -6 -88q0 -56 7.5 -104.5t25.5 -94t52.5 -72t82.5 -26.5q43 0 90.5 23.5t89 62.5t76.5 82t63 88l31 -19q-53 -99 -107 -167t-107.5 -103.5t-103 -50.5t-106.5 -15
q-140 0 -216.5 82t-76.5 242q0 143 47.5 279t125 235.5t180 160t208.5 60.5q114 0 166.5 -49t52.5 -107zM582 979q-58 0 -120 -73t-108.5 -186.5t-64.5 -234.5q72 30 138 68t126.5 85t96.5 103t36 111q0 65 -29.5 96t-74.5 31zM709 1638l235 -499h-20l-258 301l-365 -301
h-25l414 499h19z" />
    <glyph glyph-name="edieresis" unicode="&#xeb;" 
d="M862 874q0 -44 -14 -83t-36 -68.5t-60 -58t-73 -48.5t-89.5 -43.5t-95.5 -39t-104 -39t-103 -39.5q-6 -46 -6 -88q0 -56 7.5 -104.5t25.5 -94t52.5 -72t82.5 -26.5q43 0 90.5 23.5t89 62.5t76.5 82t63 88l31 -19q-53 -99 -107 -167t-107.5 -103.5t-103 -50.5t-106.5 -15
q-140 0 -216.5 82t-76.5 242q0 143 47.5 279t125 235.5t180 160t208.5 60.5q114 0 166.5 -49t52.5 -107zM582 979q-58 0 -120 -73t-108.5 -186.5t-64.5 -234.5q72 30 138 68t126.5 85t96.5 103t36 111q0 65 -29.5 96t-74.5 31zM268 1403q0 55 39 94t94 39q56 0 95 -39
t39 -94t-39 -94t-95 -39q-55 0 -94 39t-39 94zM702 1403q0 55 39 94t95 39t94.5 -39t38.5 -94t-38.5 -94t-94.5 -39t-95 39t-39 94z" />
    <glyph glyph-name="igrave" unicode="&#xec;" horiz-adv-x="632" 
d="M360 1030q33 0 55.5 -7t34.5 -26.5t17 -38.5t2 -59.5t-7.5 -71.5t-15.5 -92l-90 -504q-10 -31 -7 -98t32 -67q45 0 162 145l28 -21q-76 -110 -136.5 -164.5t-135.5 -54.5q-92 0 -124.5 61t-10.5 183l98 549q15 72 14.5 116t-28.5 44q-32 0 -83 -32.5t-91 -72.5l-23 25
q91 99 176 142.5t133 43.5zM453 1139l-299 479h184l141 -479h-26z" />
    <glyph glyph-name="iacute" unicode="&#xed;" horiz-adv-x="632" 
d="M360 1030q33 0 55.5 -7t34.5 -26.5t17 -38.5t2 -59.5t-7.5 -71.5t-15.5 -92l-90 -504q-10 -31 -7 -98t32 -67q45 0 162 145l28 -21q-76 -110 -136.5 -164.5t-135.5 -54.5q-92 0 -124.5 61t-10.5 183l98 549q15 72 14.5 116t-28.5 44q-32 0 -83 -32.5t-91 -72.5l-23 25
q91 99 176 142.5t133 43.5zM596 1618l-451 -479h-26l293 479h184z" />
    <glyph glyph-name="icircumflex" unicode="&#xee;" horiz-adv-x="632" 
d="M360 1030q33 0 55.5 -7t34.5 -26.5t17 -38.5t2 -59.5t-7.5 -71.5t-15.5 -92l-90 -504q-10 -31 -7 -98t32 -67q45 0 162 145l28 -21q-76 -110 -136.5 -164.5t-135.5 -54.5q-92 0 -124.5 61t-10.5 183l98 549q15 72 14.5 116t-28.5 44q-32 0 -83 -32.5t-91 -72.5l-23 25
q91 99 176 142.5t133 43.5zM436 1638l236 -499h-21l-258 301l-364 -301h-25l414 499h18z" />
    <glyph glyph-name="idieresis" unicode="&#xef;" horiz-adv-x="632" 
d="M360 1030q33 0 55.5 -7t34.5 -26.5t17 -38.5t2 -59.5t-7.5 -71.5t-15.5 -92l-90 -504q-10 -31 -7 -98t32 -67q45 0 162 145l28 -21q-76 -110 -136.5 -164.5t-135.5 -54.5q-92 0 -124.5 61t-10.5 183l98 549q15 72 14.5 116t-28.5 44q-32 0 -83 -32.5t-91 -72.5l-23 25
q91 99 176 142.5t133 43.5zM29 1403q0 55 38.5 94t94.5 39t94.5 -39t38.5 -94t-38.5 -94t-94.5 -39t-94.5 39t-38.5 94zM463 1403q0 55 38.5 94t94.5 39t94.5 -39t38.5 -94t-38.5 -94t-94.5 -39t-94.5 39t-38.5 94z" />
    <glyph glyph-name="eth" unicode="&#xf0;" horiz-adv-x="1157" 
d="M451 1143l-54 63l265 246q-133 142 -338 238l14 22q211 -69 387 -203l219 205l53 -61l-209 -195q157 -139 249.5 -317t92.5 -383q0 -151 -44.5 -293t-122.5 -251.5t-196 -176t-255 -66.5q-109 0 -201.5 43.5t-152.5 115t-93.5 163t-33.5 188.5q0 122 38 220t96 158
t131.5 100t140 55.5t126.5 15.5q100 0 195 -39t149 -112q-29 304 -192 510zM606 946q-113 0 -197 -68t-125.5 -179t-41.5 -248q0 -116 29.5 -208.5t95.5 -152t161 -59.5q81 0 148 46.5t110 119.5t73 166.5t43 184.5t13 177q0 36 -4 106q-47 61 -135.5 88t-169.5 27z" />
    <glyph glyph-name="ntilde" unicode="&#xf1;" horiz-adv-x="1214" 
d="M74 819l-23 25q91 99 175.5 142.5t131.5 43.5q33 0 54.5 -8.5t33.5 -30.5t17 -46.5t1.5 -70t-9 -87.5t-17.5 -111q63 169 169.5 261.5t223.5 92.5q54 0 92.5 -15t60 -46t32 -69t10 -94t-7 -110t-19.5 -127l-61 -338q-4 -21 -6.5 -44t-3 -53t8 -49t26.5 -19q44 0 161 145
l29 -21q-76 -110 -136.5 -164.5t-135.5 -54.5q-180 0 -136 244l64 358q34 170 19 261.5t-87 91.5q-73 0 -156 -82t-151 -215l-100 -629h-189l123 772q14 72 11 112t-31 40q-32 0 -83 -32.5t-91 -72.5zM973 1450l108 96l13 -8l-133 -240h-529l-108 -96l-13 8l133 240h529z
" />
    <glyph glyph-name="ograve" unicode="&#xf2;" horiz-adv-x="1075" 
d="M283 365q0 -342 145 -342q79 0 144.5 47.5t105 118t67 157.5t38 160t10.5 131q0 338 -148 338q-79 0 -144 -47t-104.5 -117t-66 -156.5t-37 -159t-10.5 -130.5zM72 295q0 146 59.5 285t149 235.5t196.5 155.5t201 59q73 0 130.5 -20t93.5 -52t59.5 -75.5t33 -86.5
t9.5 -89q0 -117 -38.5 -231.5t-102.5 -203.5t-143 -158t-163.5 -106t-159.5 -37q-73 0 -131 20t-93.5 52.5t-59 76t-32.5 86.5t-9 89zM737 1139l-299 479h185l141 -479h-27z" />
    <glyph glyph-name="oacute" unicode="&#xf3;" horiz-adv-x="1075" 
d="M283 365q0 -342 145 -342q79 0 144.5 47.5t105 118t67 157.5t38 160t10.5 131q0 338 -148 338q-79 0 -144 -47t-104.5 -117t-66 -156.5t-37 -159t-10.5 -130.5zM72 295q0 146 59.5 285t149 235.5t196.5 155.5t201 59q73 0 130.5 -20t93.5 -52t59.5 -75.5t33 -86.5
t9.5 -89q0 -117 -38.5 -231.5t-102.5 -203.5t-143 -158t-163.5 -106t-159.5 -37q-73 0 -131 20t-93.5 52.5t-59 76t-32.5 86.5t-9 89zM942 1618l-450 -479h-27l293 479h184z" />
    <glyph glyph-name="ocircumflex" unicode="&#xf4;" horiz-adv-x="1075" 
d="M283 365q0 -342 145 -342q79 0 144.5 47.5t105 118t67 157.5t38 160t10.5 131q0 338 -148 338q-79 0 -144 -47t-104.5 -117t-66 -156.5t-37 -159t-10.5 -130.5zM72 295q0 146 59.5 285t149 235.5t196.5 155.5t201 59q73 0 130.5 -20t93.5 -52t59.5 -75.5t33 -86.5
t9.5 -89q0 -117 -38.5 -231.5t-102.5 -203.5t-143 -158t-163.5 -106t-159.5 -37q-73 0 -131 20t-93.5 52.5t-59 76t-32.5 86.5t-9 89zM758 1638l235 -499h-20l-258 301l-365 -301h-24l413 499h19z" />
    <glyph glyph-name="otilde" unicode="&#xf5;" horiz-adv-x="1075" 
d="M283 365q0 -342 145 -342q79 0 144.5 47.5t105 118t67 157.5t38 160t10.5 131q0 338 -148 338q-79 0 -144 -47t-104.5 -117t-66 -156.5t-37 -159t-10.5 -130.5zM72 295q0 146 59.5 285t149 235.5t196.5 155.5t201 59q73 0 130.5 -20t93.5 -52t59.5 -75.5t33 -86.5
t9.5 -89q0 -117 -38.5 -231.5t-102.5 -203.5t-143 -158t-163.5 -106t-159.5 -37q-73 0 -131 20t-93.5 52.5t-59 76t-32.5 86.5t-9 89zM969 1450l108 96l13 -8l-134 -240h-528l-109 -96l-12 8l133 240h529z" />
    <glyph glyph-name="odieresis" unicode="&#xf6;" horiz-adv-x="1075" 
d="M283 365q0 -342 145 -342q79 0 144.5 47.5t105 118t67 157.5t38 160t10.5 131q0 338 -148 338q-79 0 -144 -47t-104.5 -117t-66 -156.5t-37 -159t-10.5 -130.5zM72 295q0 146 59.5 285t149 235.5t196.5 155.5t201 59q73 0 130.5 -20t93.5 -52t59.5 -75.5t33 -86.5
t9.5 -89q0 -117 -38.5 -231.5t-102.5 -203.5t-143 -158t-163.5 -106t-159.5 -37q-73 0 -131 20t-93.5 52.5t-59 76t-32.5 86.5t-9 89zM371 1403q0 55 38.5 94t94.5 39t94.5 -39t38.5 -94t-38.5 -94t-94.5 -39t-94.5 39t-38.5 94zM805 1403q0 55 38.5 94t94.5 39t94.5 -39
t38.5 -94t-38.5 -94t-94.5 -39t-94.5 39t-38.5 94z" />
    <glyph glyph-name="divide" unicode="&#xf7;" horiz-adv-x="1134" 
d="M94 477l15 88h929l-14 -88h-930zM487 874q0 56 39.5 95t94.5 39t94 -39t39 -95t-39 -94.5t-94 -38.5q-56 0 -95 39t-39 94zM365 174q0 56 38.5 94.5t94.5 38.5t94.5 -38.5t38.5 -94.5t-38.5 -94.5t-94.5 -38.5t-94.5 38.5t-38.5 94.5z" />
    <glyph glyph-name="oslash" unicode="&#xf8;" horiz-adv-x="1075" 
d="M72 295q0 127 45 249.5t117 215t160.5 159t178.5 93.5l35 215h84l-30 -199q2 0 7.5 1t8.5 1q73 0 130.5 -20t93.5 -52t59.5 -75.5t33 -86.5t9.5 -89q0 -128 -46 -251.5t-119 -216t-163 -159t-180 -92.5l-31 -199h-84l29 184q-2 0 -6.5 -1t-6.5 -1q-73 0 -131 20
t-93.5 52.5t-59 76t-32.5 86.5t-9 89zM793 637q0 328 -140 338l-149 -940q76 25 135.5 100.5t91 169.5t47 179.5t15.5 152.5zM283 365q0 -330 135 -342l147 940q-61 -21 -111.5 -75.5t-81 -121.5t-51.5 -144.5t-29.5 -141.5t-8.5 -115z" />
    <glyph glyph-name="ugrave" unicode="&#xf9;" horiz-adv-x="1202" 
d="M752 319q-69 -174 -173 -261t-219 -87q-54 0 -92 15t-59 46.5t-31.5 68.5t-9 94t7.5 109.5t19 127.5l57 332q14 72 11 116t-32 44q-32 0 -83 -32.5t-91 -72.5l-22 25q91 99 173 142.5t128 43.5q40 0 65.5 -12.5t38.5 -33.5t15 -60t-2.5 -81t-16.5 -108l-53 -307
q-33 -170 -17 -251t97 -81q71 0 152.5 76t142.5 201l96 612h188l-118 -756q-27 -163 26 -163q45 0 162 145l29 -21q-75 -110 -136.5 -164.5t-136.5 -54.5q-97 0 -125 77.5t9 270.5zM680 1139l-299 479h184l142 -479h-27z" />
    <glyph glyph-name="uacute" unicode="&#xfa;" horiz-adv-x="1202" 
d="M752 319q-69 -174 -173 -261t-219 -87q-54 0 -92 15t-59 46.5t-31.5 68.5t-9 94t7.5 109.5t19 127.5l57 332q14 72 11 116t-32 44q-32 0 -83 -32.5t-91 -72.5l-22 25q91 99 173 142.5t128 43.5q40 0 65.5 -12.5t38.5 -33.5t15 -60t-2.5 -81t-16.5 -108l-53 -307
q-33 -170 -17 -251t97 -81q71 0 152.5 76t142.5 201l96 612h188l-118 -756q-27 -163 26 -163q45 0 162 145l29 -21q-75 -110 -136.5 -164.5t-136.5 -54.5q-97 0 -125 77.5t9 270.5zM1047 1618l-451 -479h-27l293 479h185z" />
    <glyph glyph-name="ucircumflex" unicode="&#xfb;" horiz-adv-x="1202" 
d="M752 319q-69 -174 -173 -261t-219 -87q-54 0 -92 15t-59 46.5t-31.5 68.5t-9 94t7.5 109.5t19 127.5l57 332q14 72 11 116t-32 44q-32 0 -83 -32.5t-91 -72.5l-22 25q91 99 173 142.5t128 43.5q40 0 65.5 -12.5t38.5 -33.5t15 -60t-2.5 -81t-16.5 -108l-53 -307
q-33 -170 -17 -251t97 -81q71 0 152.5 76t142.5 201l96 612h188l-118 -756q-27 -163 26 -163q45 0 162 145l29 -21q-75 -110 -136.5 -164.5t-136.5 -54.5q-97 0 -125 77.5t9 270.5zM754 1638l235 -499h-20l-258 301l-365 -301h-24l413 499h19z" />
    <glyph glyph-name="udieresis" unicode="&#xfc;" horiz-adv-x="1202" 
d="M752 319q-69 -174 -173 -261t-219 -87q-54 0 -92 15t-59 46.5t-31.5 68.5t-9 94t7.5 109.5t19 127.5l57 332q14 72 11 116t-32 44q-32 0 -83 -32.5t-91 -72.5l-22 25q91 99 173 142.5t128 43.5q40 0 65.5 -12.5t38.5 -33.5t15 -60t-2.5 -81t-16.5 -108l-53 -307
q-33 -170 -17 -251t97 -81q71 0 152.5 76t142.5 201l96 612h188l-118 -756q-27 -163 26 -163q45 0 162 145l29 -21q-75 -110 -136.5 -164.5t-136.5 -54.5q-97 0 -125 77.5t9 270.5zM354 1403q0 55 39 94t94 39q56 0 95 -39t39 -94t-39 -94t-95 -39q-55 0 -94 39t-39 94z
M788 1403q0 55 39 94t95 39t94.5 -39t38.5 -94t-38.5 -94t-94.5 -39t-95 39t-39 94z" />
    <glyph glyph-name="yacute" unicode="&#xfd;" horiz-adv-x="999" 
d="M-422 -391q34 0 55.5 -17t31 -41t17.5 -48t22.5 -41t39.5 -17q63 0 237 123.5t357 298.5q20 90 23.5 227.5t-10.5 279t-38.5 266.5t-64 204.5t-84.5 79.5q-29 0 -61 -38t-60 -106l-33 17q23 66 54 113t57 70t60 35t50.5 13.5t42.5 1.5q69 0 122 -61.5t83.5 -162
t46 -227.5t14 -261t-17.5 -259q245 290 312 539q15 65 12 105.5t-19.5 74.5t-34.5 56t-32.5 51.5t-14.5 58.5q0 33 25.5 59.5t67.5 26.5q57 0 83.5 -57.5t26.5 -151.5q0 -201 -120 -427.5t-324 -442.5q-259 -274 -467.5 -423t-341.5 -149q-101 0 -159 36t-58 96
q0 38 25.5 68t74.5 30zM963 1618l-451 -479h-27l293 479h185z" />
    <glyph glyph-name="thorn" unicode="&#xfe;" horiz-adv-x="1181" 
d="M92 -444l287 1962q9 67 -10.5 89.5t-87.5 22.5h-52l9 43h354l-139 -942q139 301 366 301q78 0 137 -29.5t91 -79t47.5 -103.5t15.5 -111q0 -99 -27.5 -204t-79.5 -199.5t-121 -170t-159 -120t-186 -44.5q-101 0 -187 62l-67 -459q-12 -78 17 -104.5t120 -26.5h51l-6 -43
h-567l6 43h49q70 0 100 24t39 89zM559 25q68 0 128 47t99.5 119t68 157t41.5 160.5t13 130.5q0 139 -44.5 223t-129.5 84q-58 0 -134 -66t-157 -206l-71 -484q48 -165 186 -165z" />
    <glyph glyph-name="ydieresis" unicode="&#xff;" horiz-adv-x="999" 
d="M-422 -391q34 0 55.5 -17t31 -41t17.5 -48t22.5 -41t39.5 -17q63 0 237 123.5t357 298.5q20 90 23.5 227.5t-10.5 279t-38.5 266.5t-64 204.5t-84.5 79.5q-29 0 -61 -38t-60 -106l-33 17q23 66 54 113t57 70t60 35t50.5 13.5t42.5 1.5q69 0 122 -61.5t83.5 -162
t46 -227.5t14 -261t-17.5 -259q245 290 312 539q15 65 12 105.5t-19.5 74.5t-34.5 56t-32.5 51.5t-14.5 58.5q0 33 25.5 59.5t67.5 26.5q57 0 83.5 -57.5t26.5 -151.5q0 -201 -120 -427.5t-324 -442.5q-259 -274 -467.5 -423t-341.5 -149q-101 0 -159 36t-58 96
q0 38 25.5 68t74.5 30zM227 1403q0 55 38.5 94t94.5 39t95 -39t39 -94t-39 -94t-95 -39t-94.5 39t-38.5 94zM662 1403q0 55 39 94t94 39t94 -39t39 -94t-39 -94t-94 -39t-94 39t-39 94z" />
    <glyph glyph-name="Amacron" unicode="&#x100;" horiz-adv-x="1615" 
d="M209 297l782 1425h27l364 -1558q31 -121 144 -121h49l-6 -43h-584l6 43h45q67 0 101.5 23t21.5 77l-104 457h-592l-150 -274q-43 -76 -64.5 -125.5t-27.5 -82t9.5 -48.5t42 -21.5t75.5 -5.5h35l-6 -43h-492l6 43h21q62 0 102.5 17t87 71.5t107.5 165.5zM881 1366
l-342 -627h483zM664 1876l14 96h684l-14 -96h-684z" />
    <glyph glyph-name="amacron" unicode="&#x101;" horiz-adv-x="1169" 
d="M666 1014q106 0 180 -62l14 78h182l-139 -799q-2 -14 -7 -40q-12 -55 -11 -88t26 -33q23 0 71 38t105 109l27 -20q-79 -115 -138 -170.5t-134 -55.5q-84 0 -116 60.5t-13 169.5v2q-45 -75 -92.5 -124.5t-95 -71.5t-83.5 -29t-80 -7q-63 0 -114 20.5t-83 53.5t-53.5 77
t-30.5 88t-9 89q0 147 54.5 282t140.5 228.5t191.5 149t207.5 55.5zM455 61q147 0 270 205l98 553q-21 68 -65 110t-101 42q-74 0 -138 -46.5t-105.5 -116.5t-72 -154.5t-43.5 -158.5t-13 -130q0 -139 42.5 -221.5t127.5 -82.5zM420 1288l14 96h684l-14 -96h-684z" />
    <glyph glyph-name="Abreve" unicode="&#x102;" horiz-adv-x="1615" 
d="M209 297l782 1425h27l364 -1558q31 -121 144 -121h49l-6 -43h-584l6 43h45q67 0 101.5 23t21.5 77l-104 457h-592l-150 -274q-43 -76 -64.5 -125.5t-27.5 -82t9.5 -48.5t42 -21.5t75.5 -5.5h35l-6 -43h-492l6 43h21q62 0 102.5 17t87 71.5t107.5 165.5zM881 1366
l-342 -627h483zM1329 2132h88q-22 -82 -61.5 -144t-81.5 -96t-91.5 -55t-86 -27t-70.5 -6q-37 0 -71.5 6t-76.5 27t-72 55t-49 96t-16 144h93q1 -124 55.5 -185t154.5 -61q98 0 171.5 61.5t113.5 184.5z" />
    <glyph glyph-name="abreve" unicode="&#x103;" horiz-adv-x="1169" 
d="M666 1014q106 0 180 -62l14 78h182l-139 -799q-2 -14 -7 -40q-12 -55 -11 -88t26 -33q23 0 71 38t105 109l27 -20q-79 -115 -138 -170.5t-134 -55.5q-84 0 -116 60.5t-13 169.5v2q-45 -75 -92.5 -124.5t-95 -71.5t-83.5 -29t-80 -7q-63 0 -114 20.5t-83 53.5t-53.5 77
t-30.5 88t-9 89q0 147 54.5 282t140.5 228.5t191.5 149t207.5 55.5zM455 61q147 0 270 205l98 553q-21 68 -65 110t-101 42q-74 0 -138 -46.5t-105.5 -116.5t-72 -154.5t-43.5 -158.5t-13 -130q0 -139 42.5 -221.5t127.5 -82.5zM1032 1534h88q-22 -82 -61.5 -144t-81.5 -96
t-91.5 -55t-86 -27t-70.5 -6q-37 0 -71.5 6t-76.5 27t-72 55t-49 96t-16 144h93q1 -124 56 -185t155 -61q203 0 284 246z" />
    <glyph glyph-name="Aogonek" unicode="&#x104;" horiz-adv-x="1615" 
d="M1378 -420l4 -16q-104 -60 -202 -60q-73 0 -121.5 38t-48.5 108q0 46 19.5 88.5t46.5 74t77.5 68t89.5 60t105 59.5h-363l6 43h45q67 0 101.5 23t21.5 77l-104 457h-592l-150 -274q-43 -76 -64.5 -125.5t-27.5 -82t9.5 -48.5t42 -21.5t75.5 -5.5h35l-6 -43h-492l6 43h21
q62 0 102.5 17t87 71.5t107.5 165.5l782 1425h27l364 -1558q31 -121 144 -121h49l-6 -43h-199q-207 -180 -207 -311q0 -60 40 -90.5t100 -30.5q41 0 75 12zM881 1366l-342 -627h483z" />
    <glyph glyph-name="aogonek" unicode="&#x105;" horiz-adv-x="1169" 
d="M889 -422l4 -16q-104 -60 -203 -60q-73 0 -121.5 38t-48.5 108q0 52 22 97.5t66 86t90 71.5t115 70q-68 10 -93 69.5t-7 158.5v2q-45 -75 -92.5 -124.5t-95 -71.5t-83.5 -29t-80 -7q-63 0 -114 20.5t-83 53.5t-53.5 77t-30.5 88t-9 89q0 147 54.5 282t140.5 228.5
t191.5 149t207.5 55.5q106 0 180 -62l14 78h182l-139 -799q-2 -14 -7 -40q-12 -55 -11 -88t26 -33q23 0 71 38t105 109l27 -20q-77 -112 -134.5 -167t-127.5 -59q-178 -167 -178 -284q0 -60 39.5 -90.5t99.5 -30.5q41 0 76 12zM455 61q147 0 270 205l98 553q-21 68 -65 110
t-101 42q-74 0 -138 -46.5t-105.5 -116.5t-72 -154.5t-43.5 -158.5t-13 -130q0 -139 42.5 -221.5t127.5 -82.5z" />
    <glyph glyph-name="Cacute" unicode="&#x106;" horiz-adv-x="1728" 
d="M1581 424l-47 -297q-146 -90 -277 -123t-299 -33q-163 0 -303 43.5t-241 119.5t-173 178.5t-107.5 222.5t-35.5 249q0 204 70.5 377.5t192 292.5t287 185.5t353.5 66.5q167 0 357 -51.5t309 -134.5l-33 -312h-22q-24 92 -71 166.5t-106 124.5t-131 84t-144.5 49
t-147.5 15q-134 0 -255.5 -67t-213 -187t-145.5 -297.5t-54 -386.5q0 -326 164 -498t436 -172q63 0 113 5t105.5 19.5t103.5 41.5t98.5 68.5t99 104.5t95.5 146h22zM1411 2224l-450 -479h-27l293 479h184z" />
    <glyph glyph-name="cacute" unicode="&#x107;" 
d="M82 295q0 100 25.5 204t75 198.5t116.5 169t156.5 119t187.5 44.5q85 0 167.5 -40.5t82.5 -102.5q0 -42 -24.5 -69t-59.5 -27q-37 0 -60.5 19.5t-35.5 47.5t-25 56t-38 47.5t-64 19.5q-78 0 -149 -99.5t-110.5 -241t-39.5 -273.5q0 -137 44.5 -217t119.5 -80t159 65.5
t158 186.5l31 -19q-53 -100 -104.5 -166t-105 -102t-104.5 -50t-116 -14q-136 0 -211.5 82t-75.5 242zM1102 1618l-451 -479h-26l293 479h184z" />
    <glyph glyph-name="Ccircumflex" unicode="&#x108;" horiz-adv-x="1728" 
d="M1581 424l-47 -297q-146 -90 -277 -123t-299 -33q-163 0 -303 43.5t-241 119.5t-173 178.5t-107.5 222.5t-35.5 249q0 204 70.5 377.5t192 292.5t287 185.5t353.5 66.5q167 0 357 -51.5t309 -134.5l-33 -312h-22q-24 92 -71 166.5t-106 124.5t-131 84t-144.5 49
t-147.5 15q-134 0 -255.5 -67t-213 -187t-145.5 -297.5t-54 -386.5q0 -326 164 -498t436 -172q63 0 113 5t105.5 19.5t103.5 41.5t98.5 68.5t99 104.5t95.5 146h22zM1210 2236l236 -499h-21l-258 301l-364 -301h-25l414 499h18z" />
    <glyph glyph-name="ccircumflex" unicode="&#x109;" 
d="M82 295q0 100 25.5 204t75 198.5t116.5 169t156.5 119t187.5 44.5q85 0 167.5 -40.5t82.5 -102.5q0 -42 -24.5 -69t-59.5 -27q-37 0 -60.5 19.5t-35.5 47.5t-25 56t-38 47.5t-64 19.5q-78 0 -149 -99.5t-110.5 -241t-39.5 -273.5q0 -137 44.5 -217t119.5 -80t159 65.5
t158 186.5l31 -19q-53 -100 -104.5 -166t-105 -102t-104.5 -50t-116 -14q-136 0 -211.5 82t-75.5 242zM754 1638l235 -499h-20l-258 301l-365 -301h-24l413 499h19z" />
    <glyph glyph-name="Cdotaccent" unicode="&#x10a;" horiz-adv-x="1728" 
d="M1581 424l-47 -297q-146 -90 -277 -123t-299 -33q-163 0 -303 43.5t-241 119.5t-173 178.5t-107.5 222.5t-35.5 249q0 204 70.5 377.5t192 292.5t287 185.5t353.5 66.5q167 0 357 -51.5t309 -134.5l-33 -312h-22q-24 92 -71 166.5t-106 124.5t-131 84t-144.5 49
t-147.5 15q-134 0 -255.5 -67t-213 -187t-145.5 -297.5t-54 -386.5q0 -326 164 -498t436 -172q63 0 113 5t105.5 19.5t103.5 41.5t98.5 68.5t99 104.5t95.5 146h22zM932 1972q0 56 38 94.5t93 38.5t94 -38.5t39 -94.5q0 -55 -38.5 -93t-94.5 -38q-55 0 -93 37.5t-38 93.5z
" />
    <glyph glyph-name="cdotaccent" unicode="&#x10b;" 
d="M82 295q0 100 25.5 204t75 198.5t116.5 169t156.5 119t187.5 44.5q85 0 167.5 -40.5t82.5 -102.5q0 -42 -24.5 -69t-59.5 -27q-37 0 -60.5 19.5t-35.5 47.5t-25 56t-38 47.5t-64 19.5q-78 0 -149 -99.5t-110.5 -241t-39.5 -273.5q0 -137 44.5 -217t119.5 -80t159 65.5
t158 186.5l31 -19q-53 -100 -104.5 -166t-105 -102t-104.5 -50t-116 -14q-136 0 -211.5 82t-75.5 242zM590 1382q0 56 38 95t93 39t94 -39t39 -95q0 -55 -38.5 -93t-94.5 -38q-55 0 -93 37.5t-38 93.5z" />
    <glyph glyph-name="Ccaron" unicode="&#x10c;" horiz-adv-x="1728" 
d="M1581 424l-47 -297q-146 -90 -277 -123t-299 -33q-163 0 -303 43.5t-241 119.5t-173 178.5t-107.5 222.5t-35.5 249q0 204 70.5 377.5t192 292.5t287 185.5t353.5 66.5q167 0 357 -51.5t309 -134.5l-33 -312h-22q-24 92 -71 166.5t-106 124.5t-131 84t-144.5 49
t-147.5 15q-134 0 -255.5 -67t-213 -187t-145.5 -297.5t-54 -386.5q0 -326 164 -498t436 -172q63 0 113 5t105.5 19.5t103.5 41.5t98.5 68.5t99 104.5t95.5 146h22zM1503 2247l-395 -500h-18l-254 500h22l270 -310l353 310h22z" />
    <glyph glyph-name="ccaron" unicode="&#x10d;" 
d="M82 295q0 100 25.5 204t75 198.5t116.5 169t156.5 119t187.5 44.5q85 0 167.5 -40.5t82.5 -102.5q0 -42 -24.5 -69t-59.5 -27q-37 0 -60.5 19.5t-35.5 47.5t-25 56t-38 47.5t-64 19.5q-78 0 -149 -99.5t-110.5 -241t-39.5 -273.5q0 -137 44.5 -217t119.5 -80t159 65.5
t158 186.5l31 -19q-53 -100 -104.5 -166t-105 -102t-104.5 -50t-116 -14q-136 0 -211.5 82t-75.5 242zM1075 1649l-395 -500h-18l-254 500h22l270 -310l353 310h22z" />
    <glyph glyph-name="Dcaron" unicode="&#x10e;" horiz-adv-x="1892" 
d="M692 1612l-227 -1438q-4 -23 -4 -38t3.5 -28.5t14.5 -21t26 -13.5t43 -8.5t60.5 -4t81.5 -1.5h37q124 0 244 34.5t228.5 107.5t190.5 176t130.5 250t48.5 319q0 139 -43 252.5t-115 189t-168.5 127.5t-199.5 74.5t-212 22.5h-139zM287 1673h559q189 0 345.5 -35.5
t269 -99.5t189.5 -154.5t114.5 -200.5t37.5 -237q0 -272 -131.5 -488t-367.5 -337t-535 -121h-743l6 43h71q71 0 104.5 24.5t43.5 88.5l215 1362q10 64 -15 88t-96 24h-73zM1399 2247l-395 -500h-19l-254 500h23l270 -310l352 310h23z" />
    <glyph glyph-name="dcaron" unicode="&#x10f;" horiz-adv-x="1241" 
d="M1139 1673l-205 -1442q-13 -91 -10.5 -126t24.5 -35q18 0 66 39t104 108l27 -20q-79 -115 -138.5 -170.5t-134.5 -55.5q-164 0 -131 230l7 49q-40 -75 -82.5 -128t-78.5 -82t-77.5 -45t-71.5 -20t-69 -4q-81 0 -141 30t-92.5 80.5t-48 107t-15.5 118.5q0 142 55 278
t139 232t186.5 154.5t196.5 58.5q44 0 99.5 -16t101.5 -51l80 555q9 66 -10.5 89t-88.5 23h-51l8 43h351zM455 61q152 0 301 242l71 508q-15 77 -67 124.5t-119 47.5q-73 0 -135.5 -47.5t-102.5 -119.5t-68 -158.5t-40 -161.5t-12 -131q0 -139 43.5 -221.5t128.5 -82.5z
M1446 1491q0 -59 -28.5 -115.5t-75 -100t-98 -76t-105.5 -54.5l-6 16q54 29 108 89.5t62 113.5q-42 1 -70.5 35t-28.5 76q0 57 37.5 93t97.5 36q49 0 78 -32.5t29 -80.5z" />
    <glyph glyph-name="Dcroat" unicode="&#x110;" horiz-adv-x="1892" 
d="M45 815l8 74h312l100 629q10 64 -15 88t-96 24h-73l6 43h559q189 0 345.5 -35.5t269 -99.5t189.5 -154.5t114.5 -200.5t37.5 -237q0 -272 -131.5 -488t-367.5 -337t-535 -121h-743l6 43h71q71 0 104.5 24.5t43.5 88.5l104 659h-309zM692 1612l-114 -723h374l-10 -74h-377
l-100 -641q-4 -23 -4 -38t3.5 -28.5t14.5 -21t26 -13.5t43 -8.5t60.5 -4t81.5 -1.5h37q124 0 244 34.5t228.5 107.5t190.5 176t130.5 250t48.5 319q0 139 -43 252.5t-115 189t-168.5 127.5t-199.5 74.5t-212 22.5h-139z" />
    <glyph glyph-name="dcroat" unicode="&#x111;" horiz-adv-x="1206" 
d="M1139 1673l-52 -354h191l-10 -53h-189l-145 -1035q-13 -91 -10.5 -126t24.5 -35q18 0 66 39t104 108l27 -20q-79 -115 -138.5 -170.5t-134.5 -55.5q-164 0 -131 230l7 49q-40 -75 -82.5 -128t-78.5 -82t-77.5 -45t-71.5 -20t-69 -4q-81 0 -141 30t-92.5 80.5t-48 107
t-15.5 118.5q0 142 55 278t139 232t186.5 154.5t196.5 58.5q44 0 99.5 -16t101.5 -51l43 303h-436l10 53h434l29 199q9 66 -10.5 89t-88.5 23h-51l8 43h351zM455 61q152 0 301 242l71 508q-15 77 -67 124.5t-119 47.5q-73 0 -135.5 -47.5t-102.5 -119.5t-68 -158.5
t-40 -161.5t-12 -131q0 -139 43.5 -221.5t128.5 -82.5z" />
    <glyph glyph-name="Emacron" unicode="&#x112;" horiz-adv-x="1501" 
d="M250 156l215 1362q10 64 -15 88t-96 24h-73l6 43h1194l-45 -321h-21q0 62 -14 104.5t-41 70.5t-74.5 43t-105 21t-142.5 6h-348l-106 -671h256q49 0 81 3t71 14.5t65.5 33.5t52 61.5t43.5 96.5h21l-76 -490h-21q0 41 -7 73.5t-18 54.5t-30 37t-37.5 23.5t-46.5 13.5
t-51 6t-58 1h-258l-104 -670q-10 -63 20 -85.5t95 -22.5h360q154 0 245 60t136 204h20l-53 -340h-1265l6 43h71q71 0 104.5 24.5t43.5 88.5zM647 1876l15 96h684l-15 -96h-684z" />
    <glyph glyph-name="emacron" unicode="&#x113;" 
d="M862 874q0 -44 -14 -83t-36 -68.5t-60 -58t-73 -48.5t-89.5 -43.5t-95.5 -39t-104 -39t-103 -39.5q-6 -46 -6 -88q0 -56 7.5 -104.5t25.5 -94t52.5 -72t82.5 -26.5q43 0 90.5 23.5t89 62.5t76.5 82t63 88l31 -19q-53 -99 -107 -167t-107.5 -103.5t-103 -50.5t-106.5 -15
q-140 0 -216.5 82t-76.5 242q0 143 47.5 279t125 235.5t180 160t208.5 60.5q114 0 166.5 -49t52.5 -107zM582 979q-58 0 -120 -73t-108.5 -186.5t-64.5 -234.5q72 30 138 68t126.5 85t96.5 103t36 111q0 65 -29.5 96t-74.5 31zM287 1288l14 96h684l-14 -96h-684z" />
    <glyph glyph-name="Ebreve" unicode="&#x114;" horiz-adv-x="1501" 
d="M250 156l215 1362q10 64 -15 88t-96 24h-73l6 43h1194l-45 -321h-21q0 62 -14 104.5t-41 70.5t-74.5 43t-105 21t-142.5 6h-348l-106 -671h256q49 0 81 3t71 14.5t65.5 33.5t52 61.5t43.5 96.5h21l-76 -490h-21q0 41 -7 73.5t-18 54.5t-30 37t-37.5 23.5t-46.5 13.5
t-51 6t-58 1h-258l-104 -670q-10 -63 20 -85.5t95 -22.5h360q154 0 245 60t136 204h20l-53 -340h-1265l6 43h71q71 0 104.5 24.5t43.5 88.5zM1251 2132h88q-22 -82 -61.5 -144t-81.5 -96t-91.5 -55t-86 -27t-70.5 -6q-37 0 -71.5 6t-76.5 27t-72 55t-48.5 96t-15.5 144h92
q1 -124 56 -185t155 -61q203 0 284 246z" />
    <glyph glyph-name="ebreve" unicode="&#x115;" 
d="M862 874q0 -44 -14 -83t-36 -68.5t-60 -58t-73 -48.5t-89.5 -43.5t-95.5 -39t-104 -39t-103 -39.5q-6 -46 -6 -88q0 -56 7.5 -104.5t25.5 -94t52.5 -72t82.5 -26.5q43 0 90.5 23.5t89 62.5t76.5 82t63 88l31 -19q-53 -99 -107 -167t-107.5 -103.5t-103 -50.5t-106.5 -15
q-140 0 -216.5 82t-76.5 242q0 143 47.5 279t125 235.5t180 160t208.5 60.5q114 0 166.5 -49t52.5 -107zM582 979q-58 0 -120 -73t-108.5 -186.5t-64.5 -234.5q72 30 138 68t126.5 85t96.5 103t36 111q0 65 -29.5 96t-74.5 31zM932 1534h88q-22 -82 -61.5 -144t-81.5 -96
t-91.5 -55t-86 -27t-70.5 -6q-37 0 -71.5 6t-76.5 27t-72 55t-49 96t-16 144h92q1 -124 56 -185t155 -61q98 0 171.5 61.5t113.5 184.5z" />
    <glyph glyph-name="Edotaccent" unicode="&#x116;" horiz-adv-x="1501" 
d="M250 156l215 1362q10 64 -15 88t-96 24h-73l6 43h1194l-45 -321h-21q0 62 -14 104.5t-41 70.5t-74.5 43t-105 21t-142.5 6h-348l-106 -671h256q49 0 81 3t71 14.5t65.5 33.5t52 61.5t43.5 96.5h21l-76 -490h-21q0 41 -7 73.5t-18 54.5t-30 37t-37.5 23.5t-46.5 13.5
t-51 6t-58 1h-258l-104 -670q-10 -63 20 -85.5t95 -22.5h360q154 0 245 60t136 204h20l-53 -340h-1265l6 43h71q71 0 104.5 24.5t43.5 88.5zM844 1972q0 56 38 94.5t93 38.5t94 -38.5t39 -94.5q0 -55 -38.5 -93t-94.5 -38q-55 0 -93 37.5t-38 93.5z" />
    <glyph glyph-name="edotaccent" unicode="&#x117;" 
d="M862 874q0 -44 -14 -83t-36 -68.5t-60 -58t-73 -48.5t-89.5 -43.5t-95.5 -39t-104 -39t-103 -39.5q-6 -46 -6 -88q0 -56 7.5 -104.5t25.5 -94t52.5 -72t82.5 -26.5q43 0 90.5 23.5t89 62.5t76.5 82t63 88l31 -19q-53 -99 -107 -167t-107.5 -103.5t-103 -50.5t-106.5 -15
q-140 0 -216.5 82t-76.5 242q0 143 47.5 279t125 235.5t180 160t208.5 60.5q114 0 166.5 -49t52.5 -107zM582 979q-58 0 -120 -73t-108.5 -186.5t-64.5 -234.5q72 30 138 68t126.5 85t96.5 103t36 111q0 65 -29.5 96t-74.5 31zM573 1382q0 56 38.5 95t93.5 39t94 -39t39 -95
q0 -55 -38.5 -93t-94.5 -38t-94 38t-38 93z" />
    <glyph glyph-name="Eogonek" unicode="&#x118;" horiz-adv-x="1501" 
d="M788 -420l5 -16q-104 -60 -203 -60q-73 0 -121.5 38t-48.5 108q0 46 19.5 88.5t46.5 74t77.5 68t89.5 60t105 59.5h-733l6 43h71q71 0 104.5 24.5t43.5 88.5l215 1362q10 64 -15 88t-96 24h-73l6 43h1194l-45 -321h-21q0 62 -14 104.5t-41 70.5t-74.5 43t-105 21
t-142.5 6h-348l-106 -671h256q49 0 81 3t71 14.5t65.5 33.5t52 61.5t43.5 96.5h21l-76 -490h-21q0 41 -7 73.5t-18 54.5t-30 37t-37.5 23.5t-46.5 13.5t-51 6t-58 1h-258l-104 -670q-10 -63 20 -85.5t95 -22.5h360q154 0 245 60t136 204h20l-53 -340h-510
q-207 -180 -207 -311q0 -60 40 -90.5t100 -30.5q41 0 75 12z" />
    <glyph glyph-name="eogonek" unicode="&#x119;" 
d="M408 -422l4 -16q-104 -60 -203 -60q-73 0 -121.5 38t-48.5 108q0 52 22 97.5t67 86t91 71.5t115 70q-122 12 -187 93t-65 229q0 143 47.5 279t125 235.5t180 160t208.5 60.5q114 0 166.5 -49t52.5 -107q0 -44 -14 -83t-36 -68.5t-60 -58t-73 -48.5t-89.5 -43.5t-95.5 -39
t-104 -39t-103 -39.5q-6 -46 -6 -88q0 -56 7.5 -104.5t25.5 -94t52.5 -72t82.5 -26.5q43 0 90.5 23.5t89 62.5t76.5 82t63 88l31 -19q-53 -99 -107 -167t-107.5 -103.5t-103 -50.5t-106.5 -15h-4q-178 -167 -178 -284q0 -60 39.5 -90.5t99.5 -30.5q42 0 76 12zM582 979
q-58 0 -120 -73t-108.5 -186.5t-64.5 -234.5q72 30 138 68t126.5 85t96.5 103t36 111q0 65 -29.5 96t-74.5 31z" />
    <glyph glyph-name="Ecaron" unicode="&#x11a;" horiz-adv-x="1501" 
d="M250 156l215 1362q10 64 -15 88t-96 24h-73l6 43h1194l-45 -321h-21q0 62 -14 104.5t-41 70.5t-74.5 43t-105 21t-142.5 6h-348l-106 -671h256q49 0 81 3t71 14.5t65.5 33.5t52 61.5t43.5 96.5h21l-76 -490h-21q0 41 -7 73.5t-18 54.5t-30 37t-37.5 23.5t-46.5 13.5
t-51 6t-58 1h-258l-104 -670q-10 -63 20 -85.5t95 -22.5h360q154 0 245 60t136 204h20l-53 -340h-1265l6 43h71q71 0 104.5 24.5t43.5 88.5zM1348 2247l-396 -500h-18l-254 500h22l271 -310l352 310h23z" />
    <glyph glyph-name="ecaron" unicode="&#x11b;" 
d="M862 874q0 -44 -14 -83t-36 -68.5t-60 -58t-73 -48.5t-89.5 -43.5t-95.5 -39t-104 -39t-103 -39.5q-6 -46 -6 -88q0 -56 7.5 -104.5t25.5 -94t52.5 -72t82.5 -26.5q43 0 90.5 23.5t89 62.5t76.5 82t63 88l31 -19q-53 -99 -107 -167t-107.5 -103.5t-103 -50.5t-106.5 -15
q-140 0 -216.5 82t-76.5 242q0 143 47.5 279t125 235.5t180 160t208.5 60.5q114 0 166.5 -49t52.5 -107zM582 979q-58 0 -120 -73t-108.5 -186.5t-64.5 -234.5q72 30 138 68t126.5 85t96.5 103t36 111q0 65 -29.5 96t-74.5 31zM1030 1649l-395 -500h-19l-254 500h23
l270 -310l353 310h22z" />
    <glyph glyph-name="Gcircumflex" unicode="&#x11c;" horiz-adv-x="1853" 
d="M995 1706q180 0 365.5 -51t306.5 -135l-33 -312h-22q-29 113 -94.5 200.5t-148.5 138t-170.5 75.5t-172.5 25q-107 0 -208 -42t-186.5 -124t-150 -194.5t-101 -261.5t-36.5 -316q0 -326 164 -498t436 -172q42 0 75 1.5t78.5 7.5t80.5 16.5t73 30t64.5 46.5t47 68t28.5 92
l39 254q4 33 -15.5 51.5t-54.5 18.5h-82l6 43h539l-6 -43h-80q-36 0 -63.5 -19t-31.5 -51l-36 -236q-25 -158 -203 -253t-445 -95q-163 0 -303 43.5t-241 119.5t-173 178.5t-107.5 222.5t-35.5 249q0 202 74 377t198 293t286.5 185t338.5 67zM1186 2236l235 -499h-20
l-258 301l-365 -301h-24l413 499h19z" />
    <glyph glyph-name="gcircumflex" unicode="&#x11d;" horiz-adv-x="1126" 
d="M604 1030q72 0 154 -29h420l-9 -88l-301 27q131 -99 131 -250q0 -160 -124.5 -262t-327.5 -102q-46 0 -98 10q-92 -10 -148.5 -49t-56.5 -90q0 -38 35.5 -64.5t111.5 -26.5h191q90 0 160 -11.5t127.5 -37.5t88.5 -74t31 -116q0 -89 -35 -166.5t-94 -133t-136.5 -95
t-164 -59t-174.5 -19.5q-209 0 -317.5 66.5t-108.5 183.5q0 112 89.5 184.5t240.5 105.5q-98 11 -143.5 62.5t-45.5 122.5q0 88 75.5 149t223.5 82q-109 39 -177 127t-68 199q0 149 127 251.5t323 102.5zM102 -356q0 -100 80 -149.5t207 -49.5q80 0 152.5 16t138 50
t104.5 97t39 148q0 174 -284 174h-195h-16q-108 -39 -167 -111.5t-59 -174.5zM559 365q63 0 113.5 30.5t81 81.5t46 112t15.5 126q0 63 -23.5 124.5t-75 106.5t-118.5 45q-64 0 -115.5 -32.5t-81.5 -83.5t-45.5 -106t-15.5 -107q0 -69 24 -135t75.5 -114t119.5 -48z
M723 1638l235 -499h-20l-258 301l-365 -301h-24l414 499h18z" />
    <glyph glyph-name="Gbreve" unicode="&#x11e;" horiz-adv-x="1853" 
d="M995 1706q180 0 365.5 -51t306.5 -135l-33 -312h-22q-29 113 -94.5 200.5t-148.5 138t-170.5 75.5t-172.5 25q-107 0 -208 -42t-186.5 -124t-150 -194.5t-101 -261.5t-36.5 -316q0 -326 164 -498t436 -172q42 0 75 1.5t78.5 7.5t80.5 16.5t73 30t64.5 46.5t47 68t28.5 92
l39 254q4 33 -15.5 51.5t-54.5 18.5h-82l6 43h539l-6 -43h-80q-36 0 -63.5 -19t-31.5 -51l-36 -236q-25 -158 -203 -253t-445 -95q-163 0 -303 43.5t-241 119.5t-173 178.5t-107.5 222.5t-35.5 249q0 202 74 377t198 293t286.5 185t338.5 67zM1407 2132h88
q-22 -82 -61.5 -144t-81.5 -96t-91.5 -55t-86 -27t-70.5 -6q-37 0 -71.5 6t-76.5 27t-72 55t-49 96t-16 144h92q1 -124 56 -185t155 -61q98 0 171.5 61.5t113.5 184.5z" />
    <glyph glyph-name="gbreve" unicode="&#x11f;" horiz-adv-x="1126" 
d="M604 1030q72 0 154 -29h420l-9 -88l-301 27q131 -99 131 -250q0 -160 -124.5 -262t-327.5 -102q-46 0 -98 10q-92 -10 -148.5 -49t-56.5 -90q0 -38 35.5 -64.5t111.5 -26.5h191q90 0 160 -11.5t127.5 -37.5t88.5 -74t31 -116q0 -89 -35 -166.5t-94 -133t-136.5 -95
t-164 -59t-174.5 -19.5q-209 0 -317.5 66.5t-108.5 183.5q0 112 89.5 184.5t240.5 105.5q-98 11 -143.5 62.5t-45.5 122.5q0 88 75.5 149t223.5 82q-109 39 -177 127t-68 199q0 149 127 251.5t323 102.5zM102 -356q0 -100 80 -149.5t207 -49.5q80 0 152.5 16t138 50
t104.5 97t39 148q0 174 -284 174h-195h-16q-108 -39 -167 -111.5t-59 -174.5zM559 365q63 0 113.5 30.5t81 81.5t46 112t15.5 126q0 63 -23.5 124.5t-75 106.5t-118.5 45q-64 0 -115.5 -32.5t-81.5 -83.5t-45.5 -106t-15.5 -107q0 -69 24 -135t75.5 -114t119.5 -48z
M963 1534h88q-22 -82 -62 -144t-82 -96t-91.5 -55t-86 -27t-70.5 -6q-37 0 -71.5 6t-76.5 27t-72 55t-48.5 96t-15.5 144h92q1 -124 56 -185t155 -61q98 0 171.5 61.5t113.5 184.5z" />
    <glyph glyph-name="Gdotaccent" unicode="&#x120;" horiz-adv-x="1853" 
d="M995 1706q180 0 365.5 -51t306.5 -135l-33 -312h-22q-29 113 -94.5 200.5t-148.5 138t-170.5 75.5t-172.5 25q-107 0 -208 -42t-186.5 -124t-150 -194.5t-101 -261.5t-36.5 -316q0 -326 164 -498t436 -172q42 0 75 1.5t78.5 7.5t80.5 16.5t73 30t64.5 46.5t47 68t28.5 92
l39 254q4 33 -15.5 51.5t-54.5 18.5h-82l6 43h539l-6 -43h-80q-36 0 -63.5 -19t-31.5 -51l-36 -236q-25 -158 -203 -253t-445 -95q-163 0 -303 43.5t-241 119.5t-173 178.5t-107.5 222.5t-35.5 249q0 202 74 377t198 293t286.5 185t338.5 67zM977 1972q0 56 38 94.5t93 38.5
q56 0 94.5 -38.5t38.5 -94.5q0 -55 -38.5 -93t-94.5 -38t-93.5 37.5t-37.5 93.5z" />
    <glyph glyph-name="gdotaccent" unicode="&#x121;" horiz-adv-x="1126" 
d="M604 1030q72 0 154 -29h420l-9 -88l-301 27q131 -99 131 -250q0 -160 -124.5 -262t-327.5 -102q-46 0 -98 10q-92 -10 -148.5 -49t-56.5 -90q0 -38 35.5 -64.5t111.5 -26.5h191q90 0 160 -11.5t127.5 -37.5t88.5 -74t31 -116q0 -89 -35 -166.5t-94 -133t-136.5 -95
t-164 -59t-174.5 -19.5q-209 0 -317.5 66.5t-108.5 183.5q0 112 89.5 184.5t240.5 105.5q-98 11 -143.5 62.5t-45.5 122.5q0 88 75.5 149t223.5 82q-109 39 -177 127t-68 199q0 149 127 251.5t323 102.5zM102 -356q0 -100 80 -149.5t207 -49.5q80 0 152.5 16t138 50
t104.5 97t39 148q0 174 -284 174h-195h-16q-108 -39 -167 -111.5t-59 -174.5zM559 365q63 0 113.5 30.5t81 81.5t46 112t15.5 126q0 63 -23.5 124.5t-75 106.5t-118.5 45q-64 0 -115.5 -32.5t-81.5 -83.5t-45.5 -106t-15.5 -107q0 -69 24 -135t75.5 -114t119.5 -48z
M514 1382q0 56 38 95t93 39t94 -39t39 -95q0 -55 -38.5 -93t-94.5 -38q-55 0 -93 37.5t-38 93.5z" />
    <glyph glyph-name="Gcommaaccent" unicode="&#x122;" horiz-adv-x="1853" 
d="M995 1706q180 0 365.5 -51t306.5 -135l-33 -312h-22q-29 113 -94.5 200.5t-148.5 138t-170.5 75.5t-172.5 25q-107 0 -208 -42t-186.5 -124t-150 -194.5t-101 -261.5t-36.5 -316q0 -326 164 -498t436 -172q42 0 75 1.5t78.5 7.5t80.5 16.5t73 30t64.5 46.5t47 68t28.5 92
l39 254q4 33 -15.5 51.5t-54.5 18.5h-82l6 43h539l-6 -43h-80q-36 0 -63.5 -19t-31.5 -51l-36 -236q-25 -158 -203 -253t-445 -95q-163 0 -303 43.5t-241 119.5t-173 178.5t-107.5 222.5t-35.5 249q0 202 74 377t198 293t286.5 185t338.5 67zM944 -211q0 -59 -28.5 -115.5
t-75 -100t-98 -76t-105.5 -54.5l-6 16q54 29 108 89.5t62 113.5q-42 1 -70.5 35t-28.5 76q0 57 38 93t98 36q49 0 77.5 -32.5t28.5 -80.5z" />
    <glyph glyph-name="gcommaaccent" unicode="&#x123;" horiz-adv-x="1126" 
d="M524 1257q0 59 28.5 115.5t75 100t98 76.5t105.5 55l7 -17q-54 -29 -108 -89.5t-62 -113.5q42 -1 70 -34.5t28 -75.5q0 -57 -37.5 -93t-97.5 -36q-49 0 -78 32t-29 80zM604 1030q72 0 154 -29h420l-9 -88l-301 27q131 -99 131 -250q0 -160 -124.5 -262t-327.5 -102
q-46 0 -98 10q-92 -10 -148.5 -49t-56.5 -90q0 -38 35.5 -64.5t111.5 -26.5h191q90 0 160 -11.5t127.5 -37.5t88.5 -74t31 -116q0 -89 -35 -166.5t-94 -133t-136.5 -95t-164 -59t-174.5 -19.5q-209 0 -317.5 66.5t-108.5 183.5q0 112 89.5 184.5t240.5 105.5
q-98 11 -143.5 62.5t-45.5 122.5q0 88 75.5 149t223.5 82q-109 39 -177 127t-68 199q0 149 127 251.5t323 102.5zM102 -356q0 -100 80 -149.5t207 -49.5q80 0 152.5 16t138 50t104.5 97t39 148q0 174 -284 174h-195h-16q-108 -39 -167 -111.5t-59 -174.5zM559 365
q63 0 113.5 30.5t81 81.5t46 112t15.5 126q0 63 -23.5 124.5t-75 106.5t-118.5 45q-64 0 -115.5 -32.5t-81.5 -83.5t-45.5 -106t-15.5 -107q0 -69 24 -135t75.5 -114t119.5 -48z" />
    <glyph glyph-name="Hcircumflex" unicode="&#x124;" horiz-adv-x="1964" 
d="M1325 156l109 692h-863l-108 -692q-10 -65 14.5 -89t95.5 -24h74l-6 -43h-616l6 43h71q71 0 104.5 24.5t43.5 88.5l215 1362q10 64 -15 88t-96 24h-73l6 43h618l-6 -43h-74q-71 0 -104 -24t-43 -88l-94 -590h862l94 590q10 65 -14.5 88.5t-95.5 23.5h-74l6 43h618l-6 -43
h-73q-71 0 -104.5 -24t-43.5 -88l-215 -1362q-10 -65 15 -89t96 -24h73l-6 -43h-618l6 43h74q71 0 104 24t43 89zM1243 2236l236 -499h-21l-258 301l-364 -301h-25l414 499h18z" />
    <glyph glyph-name="hcircumflex" unicode="&#x125;" horiz-adv-x="1107" 
d="M842 1638l174 -499h-21l-196 301l-283 -301h-24l331 499h19zM59 0l234 1518q11 66 -9 89t-89 23h-52l9 43h352l-152 -997q65 175 173.5 264.5t217.5 89.5q54 0 92 -14.5t59.5 -45t33 -68.5t10.5 -93.5t-7.5 -110.5t-19.5 -129l-61 -338q-14 -72 -7.5 -118.5t34.5 -46.5
q44 0 161 145l29 -21q-76 -111 -136 -165t-136 -54q-180 0 -136 244l64 358q34 170 19.5 261.5t-87.5 91.5q-70 0 -155 -81.5t-152 -215.5l-100 -629h-189z" />
    <glyph glyph-name="Hbar" unicode="&#x126;" horiz-adv-x="1964" 
d="M236 1237l10 74h186l33 207q10 64 -15 88t-96 24h-73l6 43h618l-6 -43h-74q-71 0 -104 -24t-43 -88l-33 -207h862l33 207q10 65 -14.5 88.5t-95.5 23.5h-74l6 43h618l-6 -43h-73q-71 0 -104.5 -24t-43.5 -88l-33 -207h209l-10 -74h-211l-170 -1081q-10 -65 15 -89t96 -24
h73l-6 -43h-618l6 43h74q71 0 104 24t43 89l109 692h-863l-108 -692q-10 -65 14.5 -89t95.5 -24h74l-6 -43h-616l6 43h71q71 0 104.5 24.5t43.5 88.5l170 1081h-184zM584 928h862l49 309h-862z" />
    <glyph glyph-name="hbar" unicode="&#x127;" horiz-adv-x="1107" 
d="M88 1266l10 53h164l31 199q11 66 -9 89t-89 23h-52l9 43h352l-53 -354h417l-10 -53h-416l-90 -590q65 175 173.5 264.5t217.5 89.5q54 0 92 -14.5t59.5 -45t33 -68.5t10.5 -93.5t-7.5 -110.5t-19.5 -129l-61 -338q-14 -72 -7.5 -118.5t34.5 -46.5q44 0 161 145l29 -21
q-76 -111 -136 -165t-136 -54q-180 0 -136 244l64 358q34 170 19.5 261.5t-87.5 91.5q-70 0 -155 -81.5t-152 -215.5l-100 -629h-189l195 1266h-166z" />
    <glyph glyph-name="Itilde" unicode="&#x128;" horiz-adv-x="888" 
d="M922 2056l108 96l12 -8l-133 -250h-528l-109 -96l-12 8l133 250h529zM250 156l215 1362q10 64 -15 88t-96 24h-73l6 43h618l-6 -43h-74q-71 0 -104 -24t-43 -88l-215 -1362q-10 -65 14.5 -89t95.5 -24h74l-6 -43h-616l6 43h71q71 0 104.5 24.5t43.5 88.5z" />
    <glyph glyph-name="itilde" unicode="&#x129;" horiz-adv-x="632" 
d="M590 1450l108 96l13 -8l-133 -240h-406l-109 -96l-12 8l133 240h406zM360 1030q33 0 55.5 -7t34.5 -26.5t17 -38.5t2 -59.5t-7.5 -71.5t-15.5 -92l-90 -504q-10 -31 -7 -98t32 -67q45 0 162 145l28 -21q-76 -110 -136.5 -164.5t-135.5 -54.5q-92 0 -124.5 61t-10.5 183
l98 549q15 72 14.5 116t-28.5 44q-32 0 -83 -32.5t-91 -72.5l-23 25q91 99 176 142.5t133 43.5z" />
    <glyph glyph-name="Imacron" unicode="&#x12a;" horiz-adv-x="888" 
d="M250 156l215 1362q10 64 -15 88t-96 24h-73l6 43h618l-6 -43h-74q-71 0 -104 -24t-43 -88l-215 -1362q-10 -65 14.5 -89t95.5 -24h74l-6 -43h-616l6 43h71q71 0 104.5 24.5t43.5 88.5zM281 1876l14 96h684l-14 -96h-684z" />
    <glyph glyph-name="imacron" unicode="&#x12b;" horiz-adv-x="632" 
d="M90 1288l14 96h582l-14 -96h-582zM360 1030q33 0 55.5 -7t34.5 -26.5t17 -38.5t2 -59.5t-7.5 -71.5t-15.5 -92l-90 -504q-10 -31 -7 -98t32 -67q45 0 162 145l28 -21q-76 -110 -136.5 -164.5t-135.5 -54.5q-92 0 -124.5 61t-10.5 183l98 549q15 72 14.5 116t-28.5 44
q-32 0 -83 -32.5t-91 -72.5l-23 25q91 99 176 142.5t133 43.5z" />
    <glyph glyph-name="Ibreve" unicode="&#x12c;" horiz-adv-x="888" 
d="M250 156l215 1362q10 64 -15 88t-96 24h-73l6 43h618l-6 -43h-74q-71 0 -104 -24t-43 -88l-215 -1362q-10 -65 14.5 -89t95.5 -24h74l-6 -43h-616l6 43h71q71 0 104.5 24.5t43.5 88.5zM926 2132h88q-22 -82 -61.5 -144t-81.5 -96t-91.5 -55t-86 -27t-70.5 -6
q-37 0 -71.5 6t-76.5 27t-72 55t-49 96t-16 144h92q1 -124 56 -185t155 -61q98 0 171.5 61.5t113.5 184.5z" />
    <glyph glyph-name="ibreve" unicode="&#x12d;" horiz-adv-x="632" 
d="M623 1534h92q-16 -82 -47.5 -144t-66.5 -96t-78 -55t-75.5 -27t-66.5 -6q-25 0 -48 3t-51 12t-51 23.5t-45 40t-37 59t-22.5 82.5t-5.5 108h88q2 -127 47 -186.5t143 -59.5q93 0 146.5 62t77.5 184zM360 1030q33 0 55.5 -7t34.5 -26.5t17 -38.5t2 -59.5t-7.5 -71.5
t-15.5 -92l-90 -504q-10 -31 -7 -98t32 -67q45 0 162 145l28 -21q-76 -110 -136.5 -164.5t-135.5 -54.5q-92 0 -124.5 61t-10.5 183l98 549q15 72 14.5 116t-28.5 44q-32 0 -83 -32.5t-91 -72.5l-23 25q91 99 176 142.5t133 43.5z" />
    <glyph glyph-name="Iogonek" unicode="&#x12e;" horiz-adv-x="888" 
d="M422 -420l4 -16q-104 -60 -203 -60q-73 0 -121.5 38t-48.5 108q0 46 19.5 88.5t46.5 74t77.5 68t89.5 60t105 59.5h-366l6 43h71q71 0 104.5 24.5t43.5 88.5l215 1362q10 64 -15 88t-96 24h-73l6 43h618l-6 -43h-74q-71 0 -104 -24t-43 -88l-215 -1362q-10 -65 14.5 -89
t95.5 -24h74l-6 -43h-227q-207 -180 -207 -311q0 -60 39.5 -90.5t99.5 -30.5q41 0 76 12z" />
    <glyph glyph-name="iogonek" unicode="&#x12f;" horiz-adv-x="632" 
d="M373 -422l4 -16q-104 -60 -203 -60q-73 0 -121.5 38t-48.5 108q0 52 21.5 97t65.5 85.5t89.5 71t114.5 69.5q-91 1 -122 62t-9 182l98 549q15 72 14.5 116t-28.5 44q-32 0 -83 -32.5t-91 -72.5l-23 25q91 99 176 142.5t133 43.5q33 0 55.5 -7t34.5 -26.5t17 -38.5
t2 -59.5t-7.5 -71.5t-15.5 -92l-90 -504q-10 -31 -7 -98t32 -67q45 0 162 145l28 -21q-67 -96 -119 -147.5t-112 -65.5q-182 -171 -182 -290q0 -60 39.5 -90.5t99.5 -30.5q41 0 76 12zM279 1417q0 59 40.5 99t98.5 40q60 0 100.5 -40t40.5 -99q0 -60 -40.5 -100.5
t-100.5 -40.5q-59 0 -99 40.5t-40 100.5z" />
    <glyph glyph-name="Idotaccent" unicode="&#x130;" horiz-adv-x="888" 
d="M250 156l215 1362q10 64 -15 88t-96 24h-73l6 43h618l-6 -43h-74q-71 0 -104 -24t-43 -88l-215 -1362q-10 -65 14.5 -89t95.5 -24h74l-6 -43h-616l6 43h71q71 0 104.5 24.5t43.5 88.5zM498 1972q0 56 38 94.5t93 38.5t94 -38.5t39 -94.5q0 -55 -38.5 -93t-94.5 -38
q-55 0 -93 37.5t-38 93.5z" />
    <glyph glyph-name="dotlessi" unicode="&#x131;" horiz-adv-x="632" 
d="M360 1030q33 0 55.5 -7t34.5 -26.5t17 -38.5t2 -59.5t-7.5 -71.5t-15.5 -92l-90 -504q-10 -31 -7 -98t32 -67q45 0 162 145l28 -21q-76 -110 -136.5 -164.5t-135.5 -54.5q-92 0 -124.5 61t-10.5 183l98 549q15 72 14.5 116t-28.5 44q-32 0 -83 -32.5t-91 -72.5l-23 25
q91 99 176 142.5t133 43.5z" />
    <glyph glyph-name="Jcircumflex" unicode="&#x134;" horiz-adv-x="956" 
d="M453 610l145 908q10 64 -20.5 88t-110.5 24h-74l6 43h639l-6 -43h-74q-71 0 -104 -24t-43 -88l-145 -908q-9 -58 -18 -104t-22.5 -101.5t-28.5 -99t-37 -90t-47 -81t-59 -66.5t-73.5 -52.5t-89.5 -32.5t-107 -12q-137 0 -211.5 56.5t-74.5 117.5q0 43 27 70t71 27
q39 0 66 -24t34 -71q11 -75 31 -106t68 -31q36 0 64 13.5t51 47t41 76.5t36 116.5t32.5 151.5t33.5 195zM819 2236l236 -499h-21l-258 301l-364 -301h-25l414 499h18z" />
    <glyph glyph-name="jcircumflex" unicode="&#x135;" horiz-adv-x="559" 
d="M463 1638l235 -499h-20l-258 301l-365 -301h-24l413 499h19zM459 735l-103 -626q-23 -139 -52.5 -234.5t-83.5 -187t-138.5 -165t-210.5 -143.5l-14 19q136 126 200.5 280.5t110.5 436.5l106 649q13 72 11.5 116t-29.5 44q-32 0 -83 -32.5t-91 -72.5l-23 25
q90 99 176 142.5t134 43.5q84 0 101.5 -66t-11.5 -229z" />
    <glyph glyph-name="Kcommaaccent" unicode="&#x136;" horiz-adv-x="1658" 
d="M229 156l215 1362q10 65 -14.5 88.5t-95.5 23.5h-74l6 43h619l-6 -43h-74q-71 0 -104.5 -24t-43.5 -88l-104 -666l633 586q208 192 0 192h-41l6 43h528l-6 -43h-20q-93 0 -171 -44.5t-186 -145.5l-553 -518l486 -711q38 -56 79.5 -93.5t82.5 -54t72.5 -22.5t68.5 -6
l6 -35q-107 -29 -178 -29t-131 16.5t-104 47t-74.5 63t-59.5 74.5l-442 662l-107 -678q-10 -65 15 -89t96 -24h74l-6 -43h-617l6 43h72q71 0 104 24t43 89zM899 -211q0 -59 -28.5 -115.5t-75 -100t-98 -76t-105.5 -54.5l-6 16q54 29 108 89.5t62 113.5q-42 1 -70.5 35
t-28.5 76q0 57 38 93t98 36q49 0 77.5 -32.5t28.5 -80.5z" />
    <glyph glyph-name="kcommaaccent" unicode="&#x137;" horiz-adv-x="1003" 
d="M522 1673l-162 -1095h27q167 0 246.5 80t79.5 198q0 8 -0.5 28t-0.5 30.5t1.5 28.5t5 28t10 23t17 19.5t26 11.5t35.5 5q43 0 62.5 -24t19.5 -58q0 -31 -17.5 -76t-51 -94t-76.5 -92.5t-99 -76.5t-113 -42q63 -11 107.5 -38.5t72 -73t41.5 -87t29 -106.5q3 -12 8 -35
q7 -33 11 -50t13.5 -45t19.5 -41.5t27 -31.5t38.5 -25.5t52 -12t68.5 -1.5l2 -26q-102 -25 -166 -25q-103 0 -171.5 59t-100.5 201q-3 15 -9 44.5t-9.5 45t-10.5 42t-13 41t-16 35.5t-20.5 33t-26 26.5t-33.5 22t-41.5 13.5t-50.5 7l-78 -539h-188l221 1518q11 66 -9 89
t-89 23h-51l8 43h354zM569 -211q0 -59 -28.5 -115.5t-75 -100t-98 -76t-105.5 -54.5l-6 16q54 29 108 89.5t62 113.5q-42 1 -70 34.5t-28 76.5q0 57 37.5 93t97.5 36q49 0 77.5 -32.5t28.5 -80.5z" />
    <glyph glyph-name="Lacute" unicode="&#x139;" horiz-adv-x="1363" 
d="M229 156l215 1362q10 65 -14.5 88.5t-95.5 23.5h-74l6 43h619l-6 -43h-74q-71 0 -104.5 -24t-43.5 -88l-208 -1325q-11 -70 18.5 -94.5t101.5 -24.5h351q154 0 246 61t137 205h20l-53 -340h-1266l6 43h72q71 0 104 24t43 89zM1028 2224l-450 -479h-27l293 479h184z" />
    <glyph glyph-name="lacute" unicode="&#x13a;" horiz-adv-x="559" 
d="M492 1673l-205 -1442q-2 -16 -7 -44q-11 -54 -9 -85.5t26 -31.5q23 0 70.5 38t103.5 109l27 -20q-77 -115 -135.5 -170.5t-133.5 -55.5q-84 0 -117 60.5t-18 169.5l187 1317q9 66 -11.5 89t-89.5 23h-51l6 43h357zM772 2224l-450 -479h-27l293 479h184z" />
    <glyph glyph-name="Lcommaaccent" unicode="&#x13b;" horiz-adv-x="1363" 
d="M229 156l215 1362q10 65 -14.5 88.5t-95.5 23.5h-74l6 43h619l-6 -43h-74q-71 0 -104.5 -24t-43.5 -88l-208 -1325q-11 -70 18.5 -94.5t101.5 -24.5h351q154 0 246 61t137 205h20l-53 -340h-1266l6 43h72q71 0 104 24t43 89zM799 -211q0 -59 -28.5 -115.5t-75 -100
t-98 -76t-105.5 -54.5l-7 16q54 29 108 89.5t62 113.5q-42 1 -70 34.5t-28 76.5q0 57 37.5 93t97.5 36q49 0 78 -32.5t29 -80.5z" />
    <glyph glyph-name="lcommaaccent" unicode="&#x13c;" horiz-adv-x="559" 
d="M492 1673l-205 -1442q-2 -16 -7 -44q-11 -54 -9 -85.5t26 -31.5q23 0 70.5 38t103.5 109l27 -20q-77 -115 -135.5 -170.5t-133.5 -55.5q-84 0 -117 60.5t-18 169.5l187 1317q9 66 -11.5 89t-89.5 23h-51l6 43h357zM279 -211q0 -59 -28.5 -115.5t-75.5 -100t-98.5 -76
t-105.5 -54.5l-6 16q54 29 108 89.5t62 113.5q-42 1 -70 34.5t-28 76.5q0 57 37.5 93t97.5 36q49 0 78 -32.5t29 -80.5z" />
    <glyph glyph-name="Lcaron" unicode="&#x13d;" horiz-adv-x="1363" 
d="M229 156l215 1362q10 65 -14.5 88.5t-95.5 23.5h-74l6 43h619l-6 -43h-74q-71 0 -104.5 -24t-43.5 -88l-208 -1325q-11 -70 18.5 -94.5t101.5 -24.5h351q154 0 246 61t137 205h20l-53 -340h-1266l6 43h72q71 0 104 24t43 89zM1151 1491q0 -59 -28.5 -115.5t-75 -100
t-98 -76t-105.5 -54.5l-6 16q54 29 108 89.5t62 113.5q-42 1 -70.5 35t-28.5 76q0 57 37.5 93t97.5 36q49 0 78 -32.5t29 -80.5z" />
    <glyph glyph-name="lcaron" unicode="&#x13e;" horiz-adv-x="612" 
d="M492 1673l-205 -1442q-2 -16 -7 -44q-11 -54 -9 -85.5t26 -31.5q23 0 70.5 38t103.5 109l27 -20q-77 -115 -135.5 -170.5t-133.5 -55.5q-84 0 -117 60.5t-18 169.5l187 1317q9 66 -11.5 89t-89.5 23h-51l6 43h357zM817 1491q0 -59 -28.5 -115.5t-75 -100t-98 -76
t-105.5 -54.5l-6 16q54 29 108 89.5t62 113.5q-42 1 -70.5 35t-28.5 76q0 57 38 93t98 36q49 0 77.5 -32.5t28.5 -80.5z" />
    <glyph glyph-name="Ldot" unicode="&#x13f;" horiz-adv-x="1363" 
d="M229 156l215 1362q10 65 -14.5 88.5t-95.5 23.5h-74l6 43h619l-6 -43h-74q-71 0 -104.5 -24t-43.5 -88l-208 -1325q-11 -70 18.5 -94.5t101.5 -24.5h351q154 0 246 61t137 205h20l-53 -340h-1266l6 43h72q71 0 104 24t43 89zM952 788q0 56 38 95t93 39t94.5 -39t39.5 -95
q0 -55 -39 -93t-95 -38q-55 0 -93 37.5t-38 93.5z" />
    <glyph glyph-name="ldot" unicode="&#x140;" horiz-adv-x="559" 
d="M492 1673l-205 -1442q-2 -16 -7 -44q-11 -54 -9 -85.5t26 -31.5q23 0 70.5 38t103.5 109l27 -20q-77 -115 -135.5 -170.5t-133.5 -55.5q-84 0 -117 60.5t-18 169.5l187 1317q9 66 -11.5 89t-89.5 23h-51l6 43h357zM420 788q0 56 38 95t93 39t94 -39t39 -95
q0 -55 -38.5 -93t-94.5 -38q-55 0 -93 37.5t-38 93.5z" />
    <glyph glyph-name="Lslash" unicode="&#x141;" horiz-adv-x="1363" 
d="M55 584l-30 71l309 166l110 697q10 65 -14.5 88.5t-95.5 23.5h-74l6 43h619l-6 -43h-74q-71 0 -104.5 -24t-43.5 -88l-90 -574l277 150l28 -72l-321 -172l-102 -657q-11 -70 18.5 -94.5t101.5 -24.5h351q154 0 246 61t137 205h20l-53 -340h-1266l6 43h72q71 0 104 24
t43 89l90 569z" />
    <glyph glyph-name="lslash" unicode="&#x142;" horiz-adv-x="600" 
d="M512 1673l-102 -719l219 119l26 -72l-258 -139l-90 -631q-2 -16 -7 -44q-11 -54 -9 -85.5t26 -31.5q23 0 71.5 38t103.5 109l26 -20q-38 -57 -63 -89.5t-59.5 -68.5t-70 -52t-75.5 -16q-84 0 -117 60.5t-18 169.5l78 551l-185 -99l-26 72l223 121l96 672q9 66 -11 89
t-89 23h-51l6 43h356z" />
    <glyph glyph-name="Nacute" unicode="&#x143;" horiz-adv-x="1890" 
d="M1495 356l170 1069q18 113 -4.5 159t-110.5 46h-77l6 43h534l-6 -43h-61q-87 0 -132.5 -48t-62.5 -157l-229 -1454h-19l-950 1432l-182 -1155q-18 -113 4 -159t110 -46h78l-6 -43h-532l6 43h59q87 0 132.5 48t62.5 157l190 1200q7 47 -9 83t-47.5 56.5t-66 30.5t-69.5 10
l6 45h352zM1520 2224l-451 -479h-27l293 479h185z" />
    <glyph glyph-name="nacute" unicode="&#x144;" horiz-adv-x="1214" 
d="M74 819l-23 25q91 99 175.5 142.5t131.5 43.5q33 0 54.5 -8.5t33.5 -30.5t17 -46.5t1.5 -70t-9 -87.5t-17.5 -111q63 169 169.5 261.5t223.5 92.5q54 0 92.5 -15t60 -46t32 -69t10 -94t-7 -110t-19.5 -127l-61 -338q-4 -21 -6.5 -44t-3 -53t8 -49t26.5 -19q44 0 161 145
l29 -21q-76 -110 -136.5 -164.5t-135.5 -54.5q-180 0 -136 244l64 358q34 170 19 261.5t-87 91.5q-73 0 -156 -82t-151 -215l-100 -629h-189l123 772q14 72 11 112t-31 40q-32 0 -83 -32.5t-91 -72.5zM1040 1618l-450 -479h-27l293 479h184z" />
    <glyph glyph-name="Ncommaaccent" unicode="&#x145;" horiz-adv-x="1890" 
d="M1495 356l170 1069q18 113 -4.5 159t-110.5 46h-77l6 43h534l-6 -43h-61q-87 0 -132.5 -48t-62.5 -157l-229 -1454h-19l-950 1432l-182 -1155q-18 -113 4 -159t110 -46h78l-6 -43h-532l6 43h59q87 0 132.5 48t62.5 157l190 1200q7 47 -9 83t-47.5 56.5t-66 30.5t-69.5 10
l6 45h352zM985 -211q0 -59 -28.5 -115.5t-75 -100t-98 -76t-105.5 -54.5l-6 16q54 29 108 89.5t62 113.5q-42 1 -70.5 35t-28.5 76q0 57 38 93t98 36q49 0 77.5 -32.5t28.5 -80.5z" />
    <glyph glyph-name="ncommaaccent" unicode="&#x146;" horiz-adv-x="1214" 
d="M74 819l-23 25q91 99 175.5 142.5t131.5 43.5q33 0 54.5 -8.5t33.5 -30.5t17 -46.5t1.5 -70t-9 -87.5t-17.5 -111q63 169 169.5 261.5t223.5 92.5q54 0 92.5 -15t60 -46t32 -69t10 -94t-7 -110t-19.5 -127l-61 -338q-4 -21 -6.5 -44t-3 -53t8 -49t26.5 -19q44 0 161 145
l29 -21q-76 -110 -136.5 -164.5t-135.5 -54.5q-180 0 -136 244l64 358q34 170 19 261.5t-87 91.5q-73 0 -156 -82t-151 -215l-100 -629h-189l123 772q14 72 11 112t-31 40q-32 0 -83 -32.5t-91 -72.5zM651 -211q0 -59 -28.5 -115.5t-75 -100t-98 -76t-105.5 -54.5l-6 16
q54 29 108 89.5t62 113.5q-42 1 -70 34.5t-28 76.5q0 57 37.5 93t97.5 36q49 0 77.5 -32.5t28.5 -80.5z" />
    <glyph glyph-name="Ncaron" unicode="&#x147;" horiz-adv-x="1890" 
d="M1495 356l170 1069q18 113 -4.5 159t-110.5 46h-77l6 43h534l-6 -43h-61q-87 0 -132.5 -48t-62.5 -157l-229 -1454h-19l-950 1432l-182 -1155q-18 -113 4 -159t110 -46h78l-6 -43h-532l6 43h59q87 0 132.5 48t62.5 157l190 1200q7 47 -9 83t-47.5 56.5t-66 30.5t-69.5 10
l6 45h352zM1546 2247l-395 -500h-18l-254 500h22l270 -310l353 310h22z" />
    <glyph glyph-name="ncaron" unicode="&#x148;" horiz-adv-x="1214" 
d="M74 819l-23 25q91 99 175.5 142.5t131.5 43.5q33 0 54.5 -8.5t33.5 -30.5t17 -46.5t1.5 -70t-9 -87.5t-17.5 -111q63 169 169.5 261.5t223.5 92.5q54 0 92.5 -15t60 -46t32 -69t10 -94t-7 -110t-19.5 -127l-61 -338q-4 -21 -6.5 -44t-3 -53t8 -49t26.5 -19q44 0 161 145
l29 -21q-76 -110 -136.5 -164.5t-135.5 -54.5q-180 0 -136 244l64 358q34 170 19 261.5t-87 91.5q-73 0 -156 -82t-151 -215l-100 -629h-189l123 772q14 72 11 112t-31 40q-32 0 -83 -32.5t-91 -72.5zM1053 1649l-396 -500h-18l-254 500h23l270 -310l352 310h23z" />
    <glyph glyph-name="Eng" unicode="&#x14a;" horiz-adv-x="1890" 
d="M1356 115l10 63l-813 1225l-182 -1155q-18 -113 4 -159t110 -46h78l-6 -43h-532l6 43h59q87 0 132.5 48t62.5 157l190 1200q7 47 -9 83t-47.5 56.5t-66 30.5t-69.5 10l6 45h352l854 -1317l170 1069q18 113 -4.5 159t-110.5 46h-77l6 43h534l-6 -43h-61q-87 0 -132.5 -48
t-62.5 -157l-207 -1316q-21 -138 -50.5 -234.5t-84 -187.5t-139.5 -164.5t-211 -143.5l-15 19q137 127 202.5 282t109.5 435z" />
    <glyph glyph-name="eng" unicode="&#x14b;" horiz-adv-x="1214" 
d="M731 115l78 458q32 170 18 261.5t-86 91.5q-73 0 -156 -82t-151 -215l-100 -629h-189l123 772q14 72 11 112t-31 40q-32 0 -83 -32.5t-91 -72.5l-23 25q91 99 175.5 142.5t131.5 43.5q33 0 54.5 -8.5t33.5 -30.5t17 -46.5t1.5 -70t-9 -87.5t-17.5 -111
q63 169 169.5 261.5t223.5 92.5q54 0 92.5 -15t60 -46t32 -69t10 -94t-7 -110t-19.5 -127l-79 -460q-24 -139 -53.5 -234.5t-83.5 -187t-138.5 -165t-210.5 -143.5l-14 19q135 125 199 279t112 438z" />
    <glyph glyph-name="Omacron" unicode="&#x14c;" horiz-adv-x="1953" 
d="M1022 1647q-136 0 -259.5 -67.5t-216.5 -188t-147.5 -298t-54.5 -384.5q0 -172 46.5 -303.5t128.5 -211t189 -119.5t234 -40q140 0 263 67t213 186.5t142 295.5t52 383q0 171 -45.5 302.5t-126 213t-186.5 123t-232 41.5zM995 1706q182 0 339 -57.5t270.5 -161
t178 -255.5t64.5 -333q0 -201 -68 -374t-185.5 -293t-280 -188.5t-346.5 -68.5q-250 0 -445 98.5t-305.5 284t-110.5 430.5q0 197 70.5 369t191 292t283.5 188.5t344 68.5zM850 1876l14 96h684l-14 -96h-684z" />
    <glyph glyph-name="omacron" unicode="&#x14d;" horiz-adv-x="1075" 
d="M283 365q0 -342 145 -342q79 0 144.5 47.5t105 118t67 157.5t38 160t10.5 131q0 338 -148 338q-79 0 -144 -47t-104.5 -117t-66 -156.5t-37 -159t-10.5 -130.5zM72 295q0 146 59.5 285t149 235.5t196.5 155.5t201 59q73 0 130.5 -20t93.5 -52t59.5 -75.5t33 -86.5
t9.5 -89q0 -117 -38.5 -231.5t-102.5 -203.5t-143 -158t-163.5 -106t-159.5 -37q-73 0 -131 20t-93.5 52.5t-59 76t-32.5 86.5t-9 89zM373 1288l14 96h684l-14 -96h-684z" />
    <glyph glyph-name="Obreve" unicode="&#x14e;" horiz-adv-x="1953" 
d="M1022 1647q-136 0 -259.5 -67.5t-216.5 -188t-147.5 -298t-54.5 -384.5q0 -172 46.5 -303.5t128.5 -211t189 -119.5t234 -40q140 0 263 67t213 186.5t142 295.5t52 383q0 171 -45.5 302.5t-126 213t-186.5 123t-232 41.5zM995 1706q182 0 339 -57.5t270.5 -161
t178 -255.5t64.5 -333q0 -201 -68 -374t-185.5 -293t-280 -188.5t-346.5 -68.5q-250 0 -445 98.5t-305.5 284t-110.5 430.5q0 197 70.5 369t191 292t283.5 188.5t344 68.5zM1438 2132h88q-22 -82 -61.5 -144t-81.5 -96t-91.5 -55t-86 -27t-70.5 -6q-37 0 -71.5 6t-76.5 27
t-72 55t-49 96t-16 144h92q1 -124 56 -185t155 -61q98 0 171.5 61.5t113.5 184.5z" />
    <glyph glyph-name="obreve" unicode="&#x14f;" horiz-adv-x="1075" 
d="M283 365q0 -342 145 -342q79 0 144.5 47.5t105 118t67 157.5t38 160t10.5 131q0 338 -148 338q-79 0 -144 -47t-104.5 -117t-66 -156.5t-37 -159t-10.5 -130.5zM72 295q0 146 59.5 285t149 235.5t196.5 155.5t201 59q73 0 130.5 -20t93.5 -52t59.5 -75.5t33 -86.5
t9.5 -89q0 -117 -38.5 -231.5t-102.5 -203.5t-143 -158t-163.5 -106t-159.5 -37q-73 0 -131 20t-93.5 52.5t-59 76t-32.5 86.5t-9 89zM936 1534h88q-22 -82 -61.5 -144t-81.5 -96t-91.5 -55t-86 -27t-70.5 -6q-37 0 -71.5 6t-76.5 27t-72 55t-49 96t-16 144h92
q1 -124 56 -185t155 -61q98 0 171.5 61.5t113.5 184.5z" />
    <glyph glyph-name="Ohungarumlaut" unicode="&#x150;" horiz-adv-x="1953" 
d="M1022 1647q-136 0 -259.5 -67.5t-216.5 -188t-147.5 -298t-54.5 -384.5q0 -172 46.5 -303.5t128.5 -211t189 -119.5t234 -40q140 0 263 67t213 186.5t142 295.5t52 383q0 171 -45.5 302.5t-126 213t-186.5 123t-232 41.5zM995 1706q182 0 339 -57.5t270.5 -161
t178 -255.5t64.5 -333q0 -201 -68 -374t-185.5 -293t-280 -188.5t-346.5 -68.5q-250 0 -445 98.5t-305.5 284t-110.5 430.5q0 197 70.5 369t191 292t283.5 188.5t344 68.5zM1307 2216l-410 -479h-27l252 479h185zM1616 2216l-410 -479h-26l252 479h184z" />
    <glyph glyph-name="ohungarumlaut" unicode="&#x151;" horiz-adv-x="1075" 
d="M283 365q0 -342 145 -342q79 0 144.5 47.5t105 118t67 157.5t38 160t10.5 131q0 338 -148 338q-79 0 -144 -47t-104.5 -117t-66 -156.5t-37 -159t-10.5 -130.5zM72 295q0 146 59.5 285t149 235.5t196.5 155.5t201 59q73 0 130.5 -20t93.5 -52t59.5 -75.5t33 -86.5
t9.5 -89q0 -117 -38.5 -231.5t-102.5 -203.5t-143 -158t-163.5 -106t-159.5 -37q-73 0 -131 20t-93.5 52.5t-59 76t-32.5 86.5t-9 89zM825 1618l-409 -479h-27l252 479h184zM1135 1618l-410 -479h-27l252 479h185z" />
    <glyph glyph-name="OE" unicode="&#x152;" horiz-adv-x="2762" 
d="M1845 926h256q49 0 81 3t71 14.5t66 33.5t52.5 61.5t43.5 96.5h20l-76 -490h-20q0 41 -7 73.5t-18 54.5t-30 37t-37.5 23.5t-46.5 13.5t-51 6t-58 1h-258l-104 -670q-10 -63 19.5 -85.5t94.5 -22.5h361q154 0 245 60t136 204h20l-53 -340h-1067l37 233
q-112 -120 -257 -189t-311 -69q-249 0 -441.5 104t-299.5 294t-107 436q0 197 70.5 366t191 284.5t283.5 181t344 65.5q242 0 422 -105t275 -294l57 366h993l-45 -321h-20q0 62 -14 104.5t-41 70.5t-74.5 43t-105 21t-142.5 6h-348zM1022 1647q-137 0 -260 -64.5t-216 -181
t-147.5 -291t-54.5 -381.5q0 -172 46.5 -306.5t128.5 -218t189 -126.5t234 -43q112 0 215 40t188 118.5t148 187.5t98 254t35 311q0 170 -47.5 305.5t-131 221t-192 130t-233.5 44.5z" />
    <glyph glyph-name="oe" unicode="&#x153;" horiz-adv-x="1574" 
d="M72 295q0 146 59.5 285t149 235.5t196.5 155.5t201 59q230 0 274 -207q72 98 166.5 153.5t196.5 55.5q114 0 166.5 -48.5t52.5 -106.5q0 -44 -14.5 -83t-36 -69t-59.5 -58.5t-73.5 -48.5t-90 -43.5t-95.5 -39t-104 -39t-103 -39.5q-6 -46 -6 -88q0 -137 47 -218t123 -81
q75 0 159.5 66.5t158.5 187.5l30 -19q-101 -190 -198 -262t-205 -72q-233 0 -274 240q-85 -111 -191 -175.5t-205 -64.5q-73 0 -131 20t-93.5 52.5t-59 76t-32.5 86.5t-9 89zM283 365q0 -342 145 -342q79 0 144.5 47.5t105 118t67 157.5t38 160t10.5 131q0 338 -148 338
q-79 0 -144 -47t-104.5 -117t-66 -156.5t-37 -159t-10.5 -130.5zM1253 981q-58 0 -120 -73t-108 -186.5t-64 -234.5q72 30 138 68t126.5 85t96.5 103t36 111q0 65 -30 96t-75 31z" />
    <glyph glyph-name="Racute" unicode="&#x154;" horiz-adv-x="1581" 
d="M672 1608l-119 -756h49q99 0 179 11.5t154 42t123.5 79t79 126.5t29.5 181q0 160 -101 239t-325 79q-44 0 -69 -2zM266 1673h510q108 0 196 -10t169 -35.5t136 -66.5t87.5 -106.5t32.5 -151.5q0 -178 -141.5 -306.5t-376.5 -162.5q170 -26 257 -123.5t109 -270.5
q7 -59 12 -95.5t13 -81t16.5 -70t21 -56t28 -46.5t37 -33t48 -24t60 -11t75.5 -3l5 -24q-97 -25 -187 -25q-180 0 -264.5 111.5t-105.5 337.5q-10 108 -43 182.5t-90 116.5t-128.5 60t-167.5 18h-32l-99 -627q-12 -75 15.5 -101t115.5 -26h72l-6 -43h-637l4 43h74
q71 0 104 24t43 89l215 1362q10 65 -14.5 88.5t-95.5 23.5h-74zM1237 2224l-451 -479h-26l293 479h184z" />
    <glyph glyph-name="racute" unicode="&#x155;" horiz-adv-x="778" 
d="M360 1030q25 0 43.5 -7t30 -23.5t19 -34.5t8.5 -50t0.5 -59t-6 -71.5t-11 -78t-14.5 -88.5q39 107 86 187t87 121.5t81.5 66.5t65 31t41.5 6q45 0 67.5 -18.5t22.5 -48.5q0 -43 -17.5 -65.5t-48 -30.5t-68.5 -12.5t-82.5 -19.5t-87 -43t-84 -91.5t-71.5 -157.5l-88 -543
h-189l119 772q14 72 13 112t-29 40q-32 0 -83 -32.5t-91 -72.5l-23 25q91 99 176 142.5t133 43.5zM750 1618l-451 -479h-27l293 479h185z" />
    <glyph glyph-name="Rcommaaccent" unicode="&#x156;" horiz-adv-x="1581" 
d="M672 1608l-119 -756h49q99 0 179 11.5t154 42t123.5 79t79 126.5t29.5 181q0 160 -101 239t-325 79q-44 0 -69 -2zM266 1673h510q108 0 196 -10t169 -35.5t136 -66.5t87.5 -106.5t32.5 -151.5q0 -178 -141.5 -306.5t-376.5 -162.5q170 -26 257 -123.5t109 -270.5
q7 -59 12 -95.5t13 -81t16.5 -70t21 -56t28 -46.5t37 -33t48 -24t60 -11t75.5 -3l5 -24q-97 -25 -187 -25q-180 0 -264.5 111.5t-105.5 337.5q-10 108 -43 182.5t-90 116.5t-128.5 60t-167.5 18h-32l-99 -627q-12 -75 15.5 -101t115.5 -26h72l-6 -43h-637l4 43h74
q71 0 104 24t43 89l215 1362q10 65 -14.5 88.5t-95.5 23.5h-74zM913 -211q0 -59 -28.5 -115.5t-75 -100t-98 -76t-105.5 -54.5l-6 16q54 29 108 89.5t62 113.5q-42 1 -70 34.5t-28 76.5q0 57 37.5 93t97.5 36q49 0 77.5 -32.5t28.5 -80.5z" />
    <glyph glyph-name="rcommaaccent" unicode="&#x157;" horiz-adv-x="778" 
d="M360 1030q25 0 43.5 -7t30 -23.5t19 -34.5t8.5 -50t0.5 -59t-6 -71.5t-11 -78t-14.5 -88.5q39 107 86 187t87 121.5t81.5 66.5t65 31t41.5 6q45 0 67.5 -18.5t22.5 -48.5q0 -43 -17.5 -65.5t-48 -30.5t-68.5 -12.5t-82.5 -19.5t-87 -43t-84 -91.5t-71.5 -157.5l-88 -543
h-189l119 772q14 72 13 112t-29 40q-32 0 -83 -32.5t-91 -72.5l-23 25q91 99 176 142.5t133 43.5zM330 -211q0 -59 -28.5 -115.5t-75 -100t-98 -76t-105.5 -54.5l-7 16q54 29 108 89.5t62 113.5q-42 1 -70 34.5t-28 76.5q0 57 37.5 93t97.5 36q49 0 78 -32.5t29 -80.5z" />
    <glyph glyph-name="Rcaron" unicode="&#x158;" horiz-adv-x="1581" 
d="M672 1608l-119 -756h49q99 0 179 11.5t154 42t123.5 79t79 126.5t29.5 181q0 160 -101 239t-325 79q-44 0 -69 -2zM266 1673h510q108 0 196 -10t169 -35.5t136 -66.5t87.5 -106.5t32.5 -151.5q0 -178 -141.5 -306.5t-376.5 -162.5q170 -26 257 -123.5t109 -270.5
q7 -59 12 -95.5t13 -81t16.5 -70t21 -56t28 -46.5t37 -33t48 -24t60 -11t75.5 -3l5 -24q-97 -25 -187 -25q-180 0 -264.5 111.5t-105.5 337.5q-10 108 -43 182.5t-90 116.5t-128.5 60t-167.5 18h-32l-99 -627q-12 -75 15.5 -101t115.5 -26h72l-6 -43h-637l4 43h74
q71 0 104 24t43 89l215 1362q10 65 -14.5 88.5t-95.5 23.5h-74zM1266 2247l-396 -500h-18l-254 500h23l270 -310l352 310h23z" />
    <glyph glyph-name="rcaron" unicode="&#x159;" horiz-adv-x="778" 
d="M360 1030q25 0 43.5 -7t30 -23.5t19 -34.5t8.5 -50t0.5 -59t-6 -71.5t-11 -78t-14.5 -88.5q39 107 86 187t87 121.5t81.5 66.5t65 31t41.5 6q45 0 67.5 -18.5t22.5 -48.5q0 -43 -17.5 -65.5t-48 -30.5t-68.5 -12.5t-82.5 -19.5t-87 -43t-84 -91.5t-71.5 -157.5l-88 -543
h-189l119 772q14 72 13 112t-29 40q-32 0 -83 -32.5t-91 -72.5l-23 25q91 99 176 142.5t133 43.5zM786 1649l-395 -500h-18l-254 500h22l271 -310l352 310h22z" />
    <glyph glyph-name="Sacute" unicode="&#x15a;" horiz-adv-x="1275" 
d="M526 45q171 0 284.5 93.5t113.5 248.5q0 116 -70 201.5t-213 171.5l-170 102q-143 86 -203.5 188.5t-60.5 225.5q0 200 148 317t405 117q122 0 244.5 -42.5t189.5 -106.5l-39 -261h-20q-41 172 -143 259.5t-251 87.5q-66 0 -126 -17t-109.5 -51.5t-79 -93t-29.5 -133.5
q0 -73 48.5 -152t142.5 -139l131 -84q22 -14 62.5 -38t69.5 -41.5t68.5 -45t67.5 -52t58.5 -59.5t49 -70.5t30.5 -81t12 -95.5q0 -156 -79 -276t-213.5 -183.5t-301.5 -63.5q-174 0 -297.5 38.5t-225.5 107.5l43 299h21q43 -208 147 -289.5t295 -81.5zM1145 2224l-451 -479
h-26l293 479h184z" />
    <glyph glyph-name="sacute" unicode="&#x15b;" horiz-adv-x="907" 
d="M479 641l72 -55q111 -86 174 -166t63 -164q0 -77 -34 -135t-89 -89.5t-115 -46t-122 -14.5q-131 0 -236.5 52t-105.5 131q0 50 30 77t72 27q45 0 73 -25.5t41.5 -61.5t28 -72t44 -61.5t76.5 -25.5q72 0 122 38.5t50 111.5q0 75 -35 127t-129 131l-97 80
q-36 30 -55.5 47.5t-50.5 50t-47.5 58.5t-29.5 61.5t-13 70.5q0 80 48.5 136t123 81t166.5 25q125 0 222 -41t97 -102q0 -42 -26.5 -67t-63.5 -25q-24 0 -48.5 19.5t-47 47.5t-47 56t-58.5 47.5t-71 19.5q-70 0 -104.5 -31t-34.5 -86q0 -106 157 -227zM858 1618l-450 -479
h-27l293 479h184z" />
    <glyph glyph-name="Scircumflex" unicode="&#x15c;" horiz-adv-x="1275" 
d="M526 45q171 0 284.5 93.5t113.5 248.5q0 116 -70 201.5t-213 171.5l-170 102q-143 86 -203.5 188.5t-60.5 225.5q0 200 148 317t405 117q122 0 244.5 -42.5t189.5 -106.5l-39 -261h-20q-41 172 -143 259.5t-251 87.5q-66 0 -126 -17t-109.5 -51.5t-79 -93t-29.5 -133.5
q0 -73 48.5 -152t142.5 -139l131 -84q22 -14 62.5 -38t69.5 -41.5t68.5 -45t67.5 -52t58.5 -59.5t49 -70.5t30.5 -81t12 -95.5q0 -156 -79 -276t-213.5 -183.5t-301.5 -63.5q-174 0 -297.5 38.5t-225.5 107.5l43 299h21q43 -208 147 -289.5t295 -81.5zM874 2236l236 -499
h-20l-259 301l-364 -301h-25l414 499h18z" />
    <glyph glyph-name="scircumflex" unicode="&#x15d;" horiz-adv-x="907" 
d="M479 641l72 -55q111 -86 174 -166t63 -164q0 -77 -34 -135t-89 -89.5t-115 -46t-122 -14.5q-131 0 -236.5 52t-105.5 131q0 50 30 77t72 27q45 0 73 -25.5t41.5 -61.5t28 -72t44 -61.5t76.5 -25.5q72 0 122 38.5t50 111.5q0 75 -35 127t-129 131l-97 80
q-36 30 -55.5 47.5t-50.5 50t-47.5 58.5t-29.5 61.5t-13 70.5q0 80 48.5 136t123 81t166.5 25q125 0 222 -41t97 -102q0 -42 -26.5 -67t-63.5 -25q-24 0 -48.5 19.5t-47 47.5t-47 56t-58.5 47.5t-71 19.5q-70 0 -104.5 -31t-34.5 -86q0 -106 157 -227zM633 1638l235 -499
h-20l-258 301l-365 -301h-24l413 499h19z" />
    <glyph glyph-name="Scedilla" unicode="&#x15e;" horiz-adv-x="1275" 
d="M526 45q171 0 284.5 93.5t113.5 248.5q0 116 -70 201.5t-213 171.5l-170 102q-143 86 -203.5 188.5t-60.5 225.5q0 200 148 317t405 117q122 0 244.5 -42.5t189.5 -106.5l-39 -261h-20q-41 172 -143 259.5t-251 87.5q-66 0 -126 -17t-109.5 -51.5t-79 -93t-29.5 -133.5
q0 -73 48.5 -152t142.5 -139l131 -84q22 -14 62.5 -38t69.5 -41.5t68.5 -45t67.5 -52t58.5 -59.5t49 -70.5t30.5 -81t12 -95.5q0 -156 -79 -276t-213.5 -183.5t-301.5 -63.5h-13l-114 -131q61 41 123 41q66 0 104.5 -28t38.5 -86q0 -62 -41 -115.5t-103 -86.5t-131 -51
t-128 -16l-5 13q133 16 218.5 91t85.5 150q0 74 -91 74q-43 0 -88 -29l-43 39l115 137q-261 15 -451 144l43 299h21q43 -208 147 -289.5t295 -81.5z" />
    <glyph glyph-name="scedilla" unicode="&#x15f;" horiz-adv-x="907" 
d="M479 641l72 -55q111 -86 174 -166t63 -164q0 -72 -29 -127t-77.5 -86.5t-102 -48.5t-112.5 -21l-117 -133q61 41 123 41q66 0 104.5 -28t38.5 -86q0 -62 -41 -115.5t-103 -86.5t-131 -51t-128 -16l-4 13q133 16 218 91t85 150q0 74 -90 74q-43 0 -88 -29l-43 39l115 135
q-126 5 -223 56t-97 127q0 50 30 77t72 27q45 0 73 -25.5t41.5 -61.5t28 -72t44 -61.5t76.5 -25.5q72 0 122 38.5t50 111.5q0 75 -35 127t-129 131l-97 80q-36 30 -55.5 47.5t-50.5 50t-47.5 58.5t-29.5 61.5t-13 70.5q0 80 48.5 136t123 81t166.5 25q125 0 222 -41t97 -102
q0 -42 -26.5 -67t-63.5 -25q-24 0 -48.5 19.5t-47 47.5t-47 56t-58.5 47.5t-71 19.5q-70 0 -104.5 -31t-34.5 -86q0 -106 157 -227z" />
    <glyph glyph-name="Scaron" unicode="&#x160;" horiz-adv-x="1275" 
d="M526 45q171 0 284.5 93.5t113.5 248.5q0 116 -70 201.5t-213 171.5l-170 102q-143 86 -203.5 188.5t-60.5 225.5q0 200 148 317t405 117q122 0 244.5 -42.5t189.5 -106.5l-39 -261h-20q-41 172 -143 259.5t-251 87.5q-66 0 -126 -17t-109.5 -51.5t-79 -93t-29.5 -133.5
q0 -73 48.5 -152t142.5 -139l131 -84q22 -14 62.5 -38t69.5 -41.5t68.5 -45t67.5 -52t58.5 -59.5t49 -70.5t30.5 -81t12 -95.5q0 -156 -79 -276t-213.5 -183.5t-301.5 -63.5q-174 0 -297.5 38.5t-225.5 107.5l43 299h21q43 -208 147 -289.5t295 -81.5zM1200 2247l-395 -500
h-19l-254 500h23l270 -310l353 310h22z" />
    <glyph glyph-name="scaron" unicode="&#x161;" horiz-adv-x="907" 
d="M479 641l72 -55q111 -86 174 -166t63 -164q0 -77 -34 -135t-89 -89.5t-115 -46t-122 -14.5q-131 0 -236.5 52t-105.5 131q0 50 30 77t72 27q45 0 73 -25.5t41.5 -61.5t28 -72t44 -61.5t76.5 -25.5q72 0 122 38.5t50 111.5q0 75 -35 127t-129 131l-97 80
q-36 30 -55.5 47.5t-50.5 50t-47.5 58.5t-29.5 61.5t-13 70.5q0 80 48.5 136t123 81t166.5 25q125 0 222 -41t97 -102q0 -42 -26.5 -67t-63.5 -25q-24 0 -48.5 19.5t-47 47.5t-47 56t-58.5 47.5t-71 19.5q-70 0 -104.5 -31t-34.5 -86q0 -106 157 -227zM930 1649l-395 -500
h-19l-254 500h23l270 -310l352 310h23z" />
    <glyph glyph-name="uni0162" unicode="&#x162;" horiz-adv-x="1396" 
d="M913 1597l-225 -1421q-12 -80 15 -106.5t112 -26.5h96l-6 -43h-700l6 43h86q92 0 129 26.5t49 104.5l225 1423h-235q-154 0 -244.5 -67.5t-138.5 -216.5h-21l58 360h1401l-58 -360h-20q0 148 -69 216t-224 68h-236zM627 -211q0 -59 -28.5 -115.5t-75.5 -100t-98.5 -76
t-105.5 -54.5l-6 16q54 29 108 89.5t62 113.5q-42 1 -70 34.5t-28 76.5q0 57 37.5 93t97.5 36q49 0 78 -32.5t29 -80.5z" />
    <glyph glyph-name="uni0163" unicode="&#x163;" horiz-adv-x="663" 
d="M119 213l119 719l-156 12l6 41h170l188 260h29l-41 -260h291l-8 -53h-291l-115 -701q-13 -89 -7 -124t34 -35q33 0 88.5 32.5t120.5 100.5l22 -19q-145 -215 -319 -215q-172 0 -131 242zM336 -211q0 -59 -28.5 -115.5t-75 -100t-98 -76t-105.5 -54.5l-6 16
q54 29 108 89.5t62 113.5q-42 1 -70.5 35t-28.5 76q0 57 37.5 93t97.5 36q49 0 78 -32.5t29 -80.5z" />
    <glyph glyph-name="Tcaron" unicode="&#x164;" horiz-adv-x="1396" 
d="M913 1597l-225 -1421q-12 -80 15 -106.5t112 -26.5h96l-6 -43h-700l6 43h86q92 0 129 26.5t49 104.5l225 1423h-235q-154 0 -244.5 -67.5t-138.5 -216.5h-21l58 360h1401l-58 -360h-20q0 148 -69 216t-224 68h-236zM1241 2247l-395 -500h-19l-254 500h23l270 -310
l353 310h22z" />
    <glyph glyph-name="tcaron" unicode="&#x165;" horiz-adv-x="663" 
d="M119 213l119 719l-156 12l6 41h170l188 260h29l-41 -260h291l-8 -53h-291l-115 -701q-13 -89 -7 -124t34 -35q33 0 88.5 32.5t120.5 100.5l22 -19q-145 -215 -319 -215q-172 0 -131 242zM817 1491q0 -59 -28.5 -115.5t-75 -100t-98 -76t-105.5 -54.5l-6 16
q54 29 108 89.5t62 113.5q-42 1 -70.5 35t-28.5 76q0 57 38 93t98 36q49 0 77.5 -32.5t28.5 -80.5z" />
    <glyph glyph-name="Tbar" unicode="&#x166;" horiz-adv-x="1396" 
d="M913 1597l-104 -647h334l-10 -73h-334l-111 -701q-12 -80 15 -106.5t112 -26.5h96l-6 -43h-700l6 43h86q92 0 129 26.5t49 104.5l111 703h-353l11 73h354l102 647h-235q-154 0 -244.5 -67.5t-138.5 -216.5h-21l58 360h1401l-58 -360h-20q0 148 -69 216t-224 68h-236z" />
    <glyph glyph-name="tbar" unicode="&#x167;" horiz-adv-x="663" 
d="M35 653l10 54h156l37 225l-156 12l6 41h170l188 260h29l-41 -260h291l-8 -53h-291l-37 -225h295l-10 -54h-295l-68 -422q-13 -89 -7 -124t34 -35q33 0 88.5 32.5t120.5 100.5l22 -19q-145 -215 -319 -215q-172 0 -131 242l71 440h-155z" />
    <glyph glyph-name="Utilde" unicode="&#x168;" horiz-adv-x="1732" 
d="M1614 1425l-123 -780q-50 -315 -240.5 -494.5t-488.5 -179.5q-305 0 -455 179.5t-98 506.5l135 861q10 64 -15 88t-96 24h-73l6 43h618l-6 -43h-73q-71 0 -104.5 -24t-43.5 -88l-139 -881q-39 -254 73 -404.5t332 -150.5q244 0 390.5 152t187.5 415l123 776
q18 113 -4.5 159t-110.5 46h-78l6 43h539l-6 -43h-62q-87 0 -132 -48t-62 -157zM1405 2056l108 96l13 -8l-133 -250h-611l-108 -96l-12 8l133 250h610z" />
    <glyph glyph-name="utilde" unicode="&#x169;" horiz-adv-x="1202" 
d="M752 319q-69 -174 -173 -261t-219 -87q-54 0 -92 15t-59 46.5t-31.5 68.5t-9 94t7.5 109.5t19 127.5l57 332q14 72 11 116t-32 44q-32 0 -83 -32.5t-91 -72.5l-22 25q91 99 173 142.5t128 43.5q40 0 65.5 -12.5t38.5 -33.5t15 -60t-2.5 -81t-16.5 -108l-53 -307
q-33 -170 -17 -251t97 -81q71 0 152.5 76t142.5 201l96 612h188l-118 -756q-27 -163 26 -163q45 0 162 145l29 -21q-75 -110 -136.5 -164.5t-136.5 -54.5q-97 0 -125 77.5t9 270.5zM993 1450l109 96l12 -8l-133 -240h-528l-109 -96l-12 8l133 240h528z" />
    <glyph glyph-name="Umacron" unicode="&#x16a;" horiz-adv-x="1732" 
d="M1614 1425l-123 -780q-50 -315 -240.5 -494.5t-488.5 -179.5q-305 0 -455 179.5t-98 506.5l135 861q10 64 -15 88t-96 24h-73l6 43h618l-6 -43h-73q-71 0 -104.5 -24t-43.5 -88l-139 -881q-39 -254 73 -404.5t332 -150.5q244 0 390.5 152t187.5 415l123 776
q18 113 -4.5 159t-110.5 46h-78l6 43h539l-6 -43h-62q-87 0 -132 -48t-62 -157zM748 1876l14 96h684l-14 -96h-684z" />
    <glyph glyph-name="umacron" unicode="&#x16b;" horiz-adv-x="1202" 
d="M752 319q-69 -174 -173 -261t-219 -87q-54 0 -92 15t-59 46.5t-31.5 68.5t-9 94t7.5 109.5t19 127.5l57 332q14 72 11 116t-32 44q-32 0 -83 -32.5t-91 -72.5l-22 25q91 99 173 142.5t128 43.5q40 0 65.5 -12.5t38.5 -33.5t15 -60t-2.5 -81t-16.5 -108l-53 -307
q-33 -170 -17 -251t97 -81q71 0 152.5 76t142.5 201l96 612h188l-118 -756q-27 -163 26 -163q45 0 162 145l29 -21q-75 -110 -136.5 -164.5t-136.5 -54.5q-97 0 -125 77.5t9 270.5zM350 1288l15 96h684l-15 -96h-684z" />
    <glyph glyph-name="Ubreve" unicode="&#x16c;" horiz-adv-x="1732" 
d="M1614 1425l-123 -780q-50 -315 -240.5 -494.5t-488.5 -179.5q-305 0 -455 179.5t-98 506.5l135 861q10 64 -15 88t-96 24h-73l6 43h618l-6 -43h-73q-71 0 -104.5 -24t-43.5 -88l-139 -881q-39 -254 73 -404.5t332 -150.5q244 0 390.5 152t187.5 415l123 776
q18 113 -4.5 159t-110.5 46h-78l6 43h539l-6 -43h-62q-87 0 -132 -48t-62 -157zM1368 2132h88q-22 -82 -61.5 -144t-81.5 -96t-91.5 -55t-86 -27t-70.5 -6q-37 0 -71.5 6t-76.5 27t-72 55t-49 96t-16 144h92q1 -124 56 -185t155 -61q98 0 171.5 61.5t113.5 184.5z" />
    <glyph glyph-name="ubreve" unicode="&#x16d;" horiz-adv-x="1202" 
d="M752 319q-69 -174 -173 -261t-219 -87q-54 0 -92 15t-59 46.5t-31.5 68.5t-9 94t7.5 109.5t19 127.5l57 332q14 72 11 116t-32 44q-32 0 -83 -32.5t-91 -72.5l-22 25q91 99 173 142.5t128 43.5q40 0 65.5 -12.5t38.5 -33.5t15 -60t-2.5 -81t-16.5 -108l-53 -307
q-33 -170 -17 -251t97 -81q71 0 152.5 76t142.5 201l96 612h188l-118 -756q-27 -163 26 -163q45 0 162 145l29 -21q-75 -110 -136.5 -164.5t-136.5 -54.5q-97 0 -125 77.5t9 270.5zM958 1534h89q-22 -82 -62 -144t-82 -96t-91.5 -55t-86 -27t-70.5 -6q-37 0 -71.5 6
t-76.5 27t-72 55t-48.5 96t-15.5 144h92q1 -124 56 -185t155 -61q203 0 284 246z" />
    <glyph glyph-name="Uring" unicode="&#x16e;" horiz-adv-x="1732" 
d="M1614 1425l-123 -780q-50 -315 -240.5 -494.5t-488.5 -179.5q-305 0 -455 179.5t-98 506.5l135 861q10 64 -15 88t-96 24h-73l6 43h618l-6 -43h-73q-71 0 -104.5 -24t-43.5 -88l-139 -881q-39 -254 73 -404.5t332 -150.5q244 0 390.5 152t187.5 415l123 776
q18 113 -4.5 159t-110.5 46h-78l6 43h539l-6 -43h-62q-87 0 -132 -48t-62 -157zM1112 2198q78 0 131 -53t53 -128q0 -92 -72.5 -156.5t-166.5 -64.5q-78 0 -130.5 51t-52.5 125q0 94 71 160t167 66zM1102 2130q-62 0 -105 -44t-43 -106q0 -48 31.5 -82t81.5 -34
q64 0 108 41.5t44 103.5q0 51 -34.5 86t-82.5 35z" />
    <glyph glyph-name="uring" unicode="&#x16f;" horiz-adv-x="1202" 
d="M752 319q-69 -174 -173 -261t-219 -87q-54 0 -92 15t-59 46.5t-31.5 68.5t-9 94t7.5 109.5t19 127.5l57 332q14 72 11 116t-32 44q-32 0 -83 -32.5t-91 -72.5l-22 25q91 99 173 142.5t128 43.5q40 0 65.5 -12.5t38.5 -33.5t15 -60t-2.5 -81t-16.5 -108l-53 -307
q-33 -170 -17 -251t97 -81q71 0 152.5 76t142.5 201l96 612h188l-118 -756q-27 -163 26 -163q45 0 162 145l29 -21q-75 -110 -136.5 -164.5t-136.5 -54.5q-97 0 -125 77.5t9 270.5zM729 1599q78 0 131 -52.5t53 -127.5q0 -92 -72.5 -156.5t-166.5 -64.5q-78 0 -130 51
t-52 125q0 94 70.5 159.5t166.5 65.5zM719 1532q-62 0 -105 -44t-43 -106q0 -48 31.5 -82t81.5 -34q64 0 108 41.5t44 103.5q0 51 -34.5 86t-82.5 35z" />
    <glyph glyph-name="Uhungarumlaut" unicode="&#x170;" horiz-adv-x="1732" 
d="M1614 1425l-123 -780q-50 -315 -240.5 -494.5t-488.5 -179.5q-305 0 -455 179.5t-98 506.5l135 861q10 64 -15 88t-96 24h-73l6 43h618l-6 -43h-73q-71 0 -104.5 -24t-43.5 -88l-139 -881q-39 -254 73 -404.5t332 -150.5q244 0 390.5 152t187.5 415l123 776
q18 113 -4.5 159t-110.5 46h-78l6 43h539l-6 -43h-62q-87 0 -132 -48t-62 -157zM1272 2216l-410 -479h-26l251 479h185zM1581 2216l-410 -479h-26l252 479h184z" />
    <glyph glyph-name="uhungarumlaut" unicode="&#x171;" horiz-adv-x="1202" 
d="M752 319q-69 -174 -173 -261t-219 -87q-54 0 -92 15t-59 46.5t-31.5 68.5t-9 94t7.5 109.5t19 127.5l57 332q14 72 11 116t-32 44q-32 0 -83 -32.5t-91 -72.5l-22 25q91 99 173 142.5t128 43.5q40 0 65.5 -12.5t38.5 -33.5t15 -60t-2.5 -81t-16.5 -108l-53 -307
q-33 -170 -17 -251t97 -81q71 0 152.5 76t142.5 201l96 612h188l-118 -756q-27 -163 26 -163q45 0 162 145l29 -21q-75 -110 -136.5 -164.5t-136.5 -54.5q-97 0 -125 77.5t9 270.5zM889 1618l-410 -479h-26l252 479h184zM1198 1618l-410 -479h-26l252 479h184z" />
    <glyph glyph-name="Uogonek" unicode="&#x172;" horiz-adv-x="1732" 
d="M821 -420l4 -16q-104 -60 -202 -60q-73 0 -121.5 38t-48.5 108q0 51 21.5 96.5t63.5 85t88.5 71t112.5 68.5q-295 8 -438.5 187t-91.5 499l135 861q10 64 -15 88t-96 24h-73l6 43h618l-6 -43h-73q-71 0 -104.5 -24t-43.5 -88l-139 -881q-39 -254 73 -404.5t332 -150.5
q244 0 390.5 152t187.5 415l123 776q18 113 -4.5 159t-110.5 46h-78l6 43h539l-6 -43h-62q-87 0 -132 -48t-62 -157l-123 -780q-50 -310 -235 -489t-476 -185q-174 -163 -174 -282q0 -60 39.5 -90.5t99.5 -30.5q41 0 76 12z" />
    <glyph glyph-name="uogonek" unicode="&#x173;" horiz-adv-x="1202" 
d="M926 -422l4 -16q-104 -60 -203 -60q-73 0 -121.5 38t-48.5 108q0 52 22 97.5t66 86t90 71.5t115 70q-86 6 -110 83.5t12 262.5q-69 -174 -173 -261t-219 -87q-54 0 -92 15t-59 46.5t-31.5 68.5t-9 94t7.5 109.5t19 127.5l57 332q14 72 11 116t-32 44q-32 0 -83 -32.5
t-91 -72.5l-22 25q91 99 173 142.5t128 43.5q40 0 65.5 -12.5t38.5 -33.5t15 -60t-2.5 -81t-16.5 -108l-53 -307q-33 -170 -17 -251t97 -81q71 0 152.5 76t142.5 201l96 612h188l-118 -756q-27 -163 26 -163q45 0 162 145l29 -21q-69 -101 -126.5 -155t-125.5 -62
q-178 -167 -178 -286q0 -60 39.5 -90.5t99.5 -30.5q42 0 76 12z" />
    <glyph glyph-name="Wcircumflex" unicode="&#x174;" horiz-adv-x="2367" 
d="M1587 401l340 828q40 98 63 163t31.5 111t6.5 70.5t-22 37.5t-42.5 16t-65.5 3h-34l6 43h489l-6 -43h-20q-40 0 -64 -5.5t-52.5 -24.5t-54.5 -60t-59.5 -108.5t-77.5 -174.5l-540 -1306h-27l-276 1241l-516 -1241h-27l-346 1558q-14 60 -47.5 90.5t-93.5 30.5h-50l7 43
h591l-6 -43h-53q-67 0 -100.5 -23t-22.5 -77l246 -1127l391 914l-43 192q-25 121 -141 121h-49l6 43h592l-7 -43h-53q-67 0 -100.5 -23t-22.5 -77zM1339 2236l236 -499h-21l-258 301l-364 -301h-25l414 499h18z" />
    <glyph glyph-name="wcircumflex" unicode="&#x175;" horiz-adv-x="1509" 
d="M858 -39l-88 735l-448 -735h-29l-117 903q-6 45 -36 62.5t-99 19.5l12 39h488l-13 -39q-85 0 -120 -21t-29 -71l72 -580l309 506l-10 84q-6 43 -33.5 61.5t-81.5 20.5l12 39h475l-12 -39q-87 0 -130.5 -21.5t-39.5 -70.5l57 -594l310 510q39 65 42 104t-24.5 55t-85.5 17
l12 39h422l-12 -39q-6 -1 -34.5 -4.5t-35 -4.5t-30 -5t-31.5 -8.5t-27.5 -12t-30 -17.5t-26 -23.5t-29 -31.5t-26.5 -40l-504 -838h-29zM852 1638l235 -499h-20l-258 301l-365 -301h-24l414 499h18z" />
    <glyph glyph-name="Ycircumflex" unicode="&#x176;" horiz-adv-x="1525" 
d="M809 868l432 551q48 62 67.5 104t10.5 65t-35.5 32.5t-73.5 9.5h-57l6 43h498l-6 -43q-37 0 -63 -3t-53.5 -16.5t-46 -26t-50 -47t-55.5 -64t-72 -91.5l-480 -612l-94 -594q-12 -80 15 -106.5t112 -26.5h86l-6 -43h-680l6 43h76q92 0 129 26.5t49 104.5l94 592l-303 743
q-25 63 -54.5 92t-86.5 29h-49l6 43h592l-6 -43h-53q-68 0 -105.5 -25t-17.5 -75zM999 2236l236 -499h-21l-258 301l-364 -301h-25l414 499h18z" />
    <glyph glyph-name="ycircumflex" unicode="&#x177;" horiz-adv-x="999" 
d="M-422 -391q34 0 55.5 -17t31 -41t17.5 -48t22.5 -41t39.5 -17q63 0 237 123.5t357 298.5q20 90 23.5 227.5t-10.5 279t-38.5 266.5t-64 204.5t-84.5 79.5q-29 0 -61 -38t-60 -106l-33 17q23 66 54 113t57 70t60 35t50.5 13.5t42.5 1.5q69 0 122 -61.5t83.5 -162
t46 -227.5t14 -261t-17.5 -259q245 290 312 539q15 65 12 105.5t-19.5 74.5t-34.5 56t-32.5 51.5t-14.5 58.5q0 33 25.5 59.5t67.5 26.5q57 0 83.5 -57.5t26.5 -151.5q0 -201 -120 -427.5t-324 -442.5q-259 -274 -467.5 -423t-341.5 -149q-101 0 -159 36t-58 96
q0 38 25.5 68t74.5 30zM700 1638l236 -499h-21l-258 301l-364 -301h-25l414 499h18z" />
    <glyph glyph-name="Ydieresis" unicode="&#x178;" horiz-adv-x="1525" 
d="M809 868l432 551q48 62 67.5 104t10.5 65t-35.5 32.5t-73.5 9.5h-57l6 43h498l-6 -43q-37 0 -63 -3t-53.5 -16.5t-46 -26t-50 -47t-55.5 -64t-72 -91.5l-480 -612l-94 -594q-12 -80 15 -106.5t112 -26.5h86l-6 -43h-680l6 43h76q92 0 129 26.5t49 104.5l94 592l-303 743
q-25 63 -54.5 92t-86.5 29h-49l6 43h592l-6 -43h-53q-68 0 -105.5 -25t-17.5 -75zM530 1989q0 55 39 94t95 39t94.5 -39t38.5 -94q0 -56 -39 -95t-94 -39q-56 0 -95 39.5t-39 94.5zM1087 1989q0 55 39 94t95 39q55 0 94 -39t39 -94q0 -56 -39 -95t-94 -39t-94.5 39.5
t-39.5 94.5z" />
    <glyph glyph-name="Zacute" unicode="&#x179;" horiz-adv-x="1390" 
d="M-84 0l1253 1595h-383q-235 0 -346.5 -64.5t-146.5 -201.5h-25l54 344h1151l-1250 -1599h563q369 0 439 278h22l-55 -352h-1276zM1264 2224l-451 -479h-27l293 479h185z" />
    <glyph glyph-name="zacute" unicode="&#x17a;" horiz-adv-x="899" 
d="M985 1618l-450 -479h-27l293 479h184zM967 967l-795 -799h512l111 160h24l-78 -328h-794l-8 18l784 797h-463l-108 -158h-25l78 328h753z" />
    <glyph glyph-name="Zdotaccent" unicode="&#x17b;" horiz-adv-x="1390" 
d="M-84 0l1253 1595h-383q-235 0 -346.5 -64.5t-146.5 -201.5h-25l54 344h1151l-1250 -1599h563q369 0 439 278h22l-55 -352h-1276zM768 1972q0 56 38 94.5t93 38.5t94 -38.5t39 -94.5q0 -55 -38.5 -93t-94.5 -38q-55 0 -93 37.5t-38 93.5z" />
    <glyph glyph-name="zdotaccent" unicode="&#x17c;" horiz-adv-x="899" 
d="M967 967l-795 -799h512l111 160h24l-78 -328h-794l-8 18l784 797h-463l-108 -158h-25l78 328h753zM487 1382q0 56 38 95t93 39q56 0 95 -39t39 -95q0 -55 -39 -93t-95 -38t-93.5 37.5t-37.5 93.5z" />
    <glyph glyph-name="Zcaron" unicode="&#x17d;" horiz-adv-x="1390" 
d="M-84 0l1253 1595h-383q-235 0 -346.5 -64.5t-146.5 -201.5h-25l54 344h1151l-1250 -1599h563q369 0 439 278h22l-55 -352h-1276zM1317 2247l-395 -500h-19l-254 500h23l270 -310l352 310h23z" />
    <glyph glyph-name="zcaron" unicode="&#x17e;" horiz-adv-x="899" 
d="M979 1649l-395 -500h-19l-254 500h23l270 -310l352 310h23zM967 967l-795 -799h512l111 160h24l-78 -328h-794l-8 18l784 797h-463l-108 -158h-25l78 328h753z" />
    <glyph glyph-name="uni018F" unicode="&#x18f;" horiz-adv-x="1609" 
d="M639 -27q-136 0 -248.5 41t-193.5 119t-122 201.5t-30 279.5h1192q41 155 41 347q0 98 -17.5 186.5t-56 165t-94.5 132.5t-137 88t-180 32q-79 0 -158 -16t-166.5 -53t-173 -107t-156.5 -168l-20 10q130 230 322.5 346.5t406.5 116.5t370 -92t234 -251.5t78 -367.5
q0 -214 -70 -402.5t-189 -321.5t-283.5 -209.5t-348.5 -76.5zM643 29q186 0 344 138.5t234 385.5h-951q-12 -105 3 -193t50.5 -148t87 -102t110 -61.5t122.5 -19.5z" />
    <glyph glyph-name="Scommaaccent" unicode="&#x218;" horiz-adv-x="1275" 
d="M526 45q171 0 284.5 93.5t113.5 248.5q0 116 -70 201.5t-213 171.5l-170 102q-143 86 -203.5 188.5t-60.5 225.5q0 200 148 317t405 117q122 0 244.5 -42.5t189.5 -106.5l-39 -261h-20q-41 172 -143 259.5t-251 87.5q-66 0 -126 -17t-109.5 -51.5t-79 -93t-29.5 -133.5
q0 -73 48.5 -152t142.5 -139l131 -84q22 -14 62.5 -38t69.5 -41.5t68.5 -45t67.5 -52t58.5 -59.5t49 -70.5t30.5 -81t12 -95.5q0 -156 -79 -276t-213.5 -183.5t-301.5 -63.5q-174 0 -297.5 38.5t-225.5 107.5l43 299h21q43 -208 147 -289.5t295 -81.5zM578 -211
q0 -59 -28.5 -115.5t-75.5 -100t-98.5 -76t-105.5 -54.5l-6 16q54 29 108 89.5t62 113.5q-42 1 -70 34.5t-28 76.5q0 57 37.5 93t97.5 36q49 0 78 -32.5t29 -80.5z" />
    <glyph glyph-name="scommaaccent" unicode="&#x219;" horiz-adv-x="907" 
d="M479 641l72 -55q111 -86 174 -166t63 -164q0 -77 -34 -135t-89 -89.5t-115 -46t-122 -14.5q-131 0 -236.5 52t-105.5 131q0 50 30 77t72 27q45 0 73 -25.5t41.5 -61.5t28 -72t44 -61.5t76.5 -25.5q72 0 122 38.5t50 111.5q0 75 -35 127t-129 131l-97 80
q-36 30 -55.5 47.5t-50.5 50t-47.5 58.5t-29.5 61.5t-13 70.5q0 80 48.5 136t123 81t166.5 25q125 0 222 -41t97 -102q0 -42 -26.5 -67t-63.5 -25q-24 0 -48.5 19.5t-47 47.5t-47 56t-58.5 47.5t-71 19.5q-70 0 -104.5 -31t-34.5 -86q0 -106 157 -227zM514 -211
q0 -59 -28.5 -115.5t-75 -100t-98 -76t-105.5 -54.5l-6 16q54 29 108 89.5t62 113.5q-42 1 -70.5 35t-28.5 76q0 57 38 93t98 36q49 0 77.5 -32.5t28.5 -80.5z" />
    <glyph glyph-name="Tcommaaccent" unicode="&#x21a;" horiz-adv-x="1396" 
d="M913 1597l-225 -1421q-12 -80 15 -106.5t112 -26.5h96l-6 -43h-700l6 43h86q92 0 129 26.5t49 104.5l225 1423h-235q-154 0 -244.5 -67.5t-138.5 -216.5h-21l58 360h1401l-58 -360h-20q0 148 -69 216t-224 68h-236zM627 -211q0 -59 -28.5 -115.5t-75.5 -100t-98.5 -76
t-105.5 -54.5l-6 16q54 29 108 89.5t62 113.5q-42 1 -70 34.5t-28 76.5q0 57 37.5 93t97.5 36q49 0 78 -32.5t29 -80.5z" />
    <glyph glyph-name="tcommaaccent" unicode="&#x21b;" horiz-adv-x="663" 
d="M119 213l119 719l-156 12l6 41h170l188 260h29l-41 -260h291l-8 -53h-291l-115 -701q-13 -89 -7 -124t34 -35q33 0 88.5 32.5t120.5 100.5l22 -19q-145 -215 -319 -215q-172 0 -131 242zM336 -211q0 -59 -28.5 -115.5t-75 -100t-98 -76t-105.5 -54.5l-6 16
q54 29 108 89.5t62 113.5q-42 1 -70.5 35t-28.5 76q0 57 37.5 93t97.5 36q49 0 78 -32.5t29 -80.5z" />
    <glyph glyph-name="uni0232" unicode="&#x232;" horiz-adv-x="1525" 
d="M809 868l432 551q48 62 67.5 104t10.5 65t-35.5 32.5t-73.5 9.5h-57l6 43h498l-6 -43q-37 0 -63 -3t-53.5 -16.5t-46 -26t-50 -47t-55.5 -64t-72 -91.5l-480 -612l-94 -594q-12 -80 15 -106.5t112 -26.5h86l-6 -43h-680l6 43h76q92 0 129 26.5t49 104.5l94 592l-303 743
q-25 63 -54.5 92t-86.5 29h-49l6 43h592l-6 -43h-53q-68 0 -105.5 -25t-17.5 -75zM612 1876l15 96h684l-15 -96h-684z" />
    <glyph glyph-name="uni0233" unicode="&#x233;" horiz-adv-x="999" 
d="M-422 -391q34 0 55.5 -17t31 -41t17.5 -48t22.5 -41t39.5 -17q63 0 237 123.5t357 298.5q20 90 23.5 227.5t-10.5 279t-38.5 266.5t-64 204.5t-84.5 79.5q-29 0 -61 -38t-60 -106l-33 17q23 66 54 113t57 70t60 35t50.5 13.5t42.5 1.5q69 0 122 -61.5t83.5 -162
t46 -227.5t14 -261t-17.5 -259q245 290 312 539q15 65 12 105.5t-19.5 74.5t-34.5 56t-32.5 51.5t-14.5 58.5q0 33 25.5 59.5t67.5 26.5q57 0 83.5 -57.5t26.5 -151.5q0 -201 -120 -427.5t-324 -442.5q-259 -274 -467.5 -423t-341.5 -149q-101 0 -159 36t-58 96
q0 38 25.5 68t74.5 30zM238 1288l14 96h684l-14 -96h-684z" />
    <glyph glyph-name="dotlessj" unicode="&#x237;" horiz-adv-x="559" 
d="M459 735l-103 -626q-23 -139 -52.5 -234.5t-83.5 -187t-138.5 -165t-210.5 -143.5l-14 19q136 126 200.5 280.5t110.5 436.5l106 649q13 72 11.5 116t-29.5 44q-32 0 -83 -32.5t-91 -72.5l-23 25q90 99 176 142.5t134 43.5q84 0 101.5 -66t-11.5 -229z" />
    <glyph glyph-name="uni0259" unicode="&#x259;" 
d="M39 129q0 44 14 83t35.5 68.5t60 58.5t72.5 48.5t89.5 43.5t95 38.5t104.5 38.5t104 39q1 9 4 41t3 49q0 56 -7.5 104.5t-25.5 94t-52.5 72t-82.5 26.5q-57 0 -121 -42t-112 -97t-87 -117l-31 18q53 99 107 167t107.5 103.5t103 50.5t106.5 15q140 0 216.5 -81.5
t76.5 -241.5q0 -191 -80 -362t-210 -272.5t-271 -101.5q-114 0 -166.5 49t-52.5 107zM319 25q59 0 120.5 72.5t107.5 186.5t63 234q-72 -31 -137.5 -69t-125.5 -85t-96 -102.5t-36 -109.5q0 -65 29.5 -96t74.5 -31z" />
    <glyph glyph-name="circumflex" unicode="&#x2c6;" horiz-adv-x="790" 
d="M453 1638l235 -499h-20l-258 301l-365 -301h-25l414 499h19z" />
    <glyph glyph-name="caron" unicode="&#x2c7;" horiz-adv-x="700" 
d="M711 1649l-396 -500h-18l-254 500h23l270 -310l352 310h23z" />
    <glyph glyph-name="breve" unicode="&#x2d8;" horiz-adv-x="798" 
d="M674 1534h88q-22 -82 -61.5 -144t-81.5 -96t-91.5 -55t-86 -27t-70.5 -6q-37 0 -71.5 6t-76.5 27t-72 55t-49 96t-16 144h92q1 -124 56 -185t155 -61q98 0 171.5 61.5t113.5 184.5z" />
    <glyph glyph-name="dotaccent" unicode="&#x2d9;" horiz-adv-x="387" 
d="M61 1382q0 56 38.5 95t93.5 39t94 -39t39 -95q0 -55 -38.5 -93t-94.5 -38t-94 38t-38 93z" />
    <glyph glyph-name="ring" unicode="&#x2da;" horiz-adv-x="540" 
d="M297 1599q78 0 131 -52.5t53 -127.5q0 -92 -72.5 -156.5t-166.5 -64.5q-78 0 -130.5 51t-52.5 125q0 94 70.5 159.5t167.5 65.5zM287 1532q-62 0 -105 -44t-43 -106q0 -48 31.5 -82t81.5 -34q64 0 107.5 41.5t43.5 103.5q0 51 -34 86t-82 35z" />
    <glyph glyph-name="ogonek" unicode="&#x2db;" horiz-adv-x="495" 
d="M430 -422l4 -16q-104 -60 -203 -60q-73 0 -121.5 38t-48.5 108q0 38 11.5 73t38 67t53 57t72 55t78.5 49.5t89 50.5h21q-209 -185 -209 -313q0 -60 39.5 -90.5t99.5 -30.5q42 0 76 12z" />
    <glyph glyph-name="tilde" unicode="&#x2dc;" horiz-adv-x="854" 
d="M696 1450l109 96l12 -8l-133 -240h-528l-109 -96l-12 8l133 240h528z" />
    <glyph glyph-name="hungarumlaut" unicode="&#x2dd;" horiz-adv-x="813" 
d="M469 1618l-410 -479h-26l252 479h184zM778 1618l-409 -479h-27l252 479h184z" />
    <glyph glyph-name="pi" unicode="&#x3c0;" horiz-adv-x="1470" 
d="M207 899l14 86h1184l-14 -86h-189l-143 -899h-94l143 899h-619l-143 -899h-104l143 899h-178z" />
    <glyph glyph-name="Wgrave" unicode="&#x1e80;" horiz-adv-x="2367" 
d="M1587 401l340 828q40 98 63 163t31.5 111t6.5 70.5t-22 37.5t-42.5 16t-65.5 3h-34l6 43h489l-6 -43h-20q-40 0 -64 -5.5t-52.5 -24.5t-54.5 -60t-59.5 -108.5t-77.5 -174.5l-540 -1306h-27l-276 1241l-516 -1241h-27l-346 1558q-14 60 -47.5 90.5t-93.5 30.5h-50l7 43
h591l-6 -43h-53q-67 0 -100.5 -23t-22.5 -77l246 -1127l391 914l-43 192q-25 121 -141 121h-49l6 43h592l-7 -43h-53q-67 0 -100.5 -23t-22.5 -77zM1235 1737l-299 479h184l142 -479h-27z" />
    <glyph glyph-name="wgrave" unicode="&#x1e81;" horiz-adv-x="1509" 
d="M858 -39l-88 735l-448 -735h-29l-117 903q-6 45 -36 62.5t-99 19.5l12 39h488l-13 -39q-85 0 -120 -21t-29 -71l72 -580l309 506l-10 84q-6 43 -33.5 61.5t-81.5 20.5l12 39h475l-12 -39q-87 0 -130.5 -21.5t-39.5 -70.5l57 -594l310 510q39 65 42 104t-24.5 55t-85.5 17
l12 39h422l-12 -39q-6 -1 -34.5 -4.5t-35 -4.5t-30 -5t-31.5 -8.5t-27.5 -12t-30 -17.5t-26 -23.5t-29 -31.5t-26.5 -40l-504 -838h-29zM928 1139l-299 479h184l141 -479h-26z" />
    <glyph glyph-name="Wacute" unicode="&#x1e82;" horiz-adv-x="2367" 
d="M1587 401l340 828q40 98 63 163t31.5 111t6.5 70.5t-22 37.5t-42.5 16t-65.5 3h-34l6 43h489l-6 -43h-20q-40 0 -64 -5.5t-52.5 -24.5t-54.5 -60t-59.5 -108.5t-77.5 -174.5l-540 -1306h-27l-276 1241l-516 -1241h-27l-346 1558q-14 60 -47.5 90.5t-93.5 30.5h-50l7 43
h591l-6 -43h-53q-67 0 -100.5 -23t-22.5 -77l246 -1127l391 914l-43 192q-25 121 -141 121h-49l6 43h592l-7 -43h-53q-67 0 -100.5 -23t-22.5 -77zM1681 2224l-450 -479h-27l293 479h184z" />
    <glyph glyph-name="wacute" unicode="&#x1e83;" horiz-adv-x="1509" 
d="M858 -39l-88 735l-448 -735h-29l-117 903q-6 45 -36 62.5t-99 19.5l12 39h488l-13 -39q-85 0 -120 -21t-29 -71l72 -580l309 506l-10 84q-6 43 -33.5 61.5t-81.5 20.5l12 39h475l-12 -39q-87 0 -130.5 -21.5t-39.5 -70.5l57 -594l310 510q39 65 42 104t-24.5 55t-85.5 17
l12 39h422l-12 -39q-6 -1 -34.5 -4.5t-35 -4.5t-30 -5t-31.5 -8.5t-27.5 -12t-30 -17.5t-26 -23.5t-29 -31.5t-26.5 -40l-504 -838h-29zM1237 1618l-451 -479h-26l293 479h184z" />
    <glyph glyph-name="Wdieresis" unicode="&#x1e84;" horiz-adv-x="2367" 
d="M1587 401l340 828q40 98 63 163t31.5 111t6.5 70.5t-22 37.5t-42.5 16t-65.5 3h-34l6 43h489l-6 -43h-20q-40 0 -64 -5.5t-52.5 -24.5t-54.5 -60t-59.5 -108.5t-77.5 -174.5l-540 -1306h-27l-276 1241l-516 -1241h-27l-346 1558q-14 60 -47.5 90.5t-93.5 30.5h-50l7 43
h591l-6 -43h-53q-67 0 -100.5 -23t-22.5 -77l246 -1127l391 914l-43 192q-25 121 -141 121h-49l6 43h592l-7 -43h-53q-67 0 -100.5 -23t-22.5 -77zM858 1989q0 55 39 94t94 39t94 -39t39 -94q0 -56 -39 -95t-94 -39t-94 39t-39 95zM1415 1989q0 55 38.5 94t94.5 39t94.5 -39
t38.5 -94q0 -56 -39 -95t-94 -39t-94 39t-39 95z" />
    <glyph glyph-name="wdieresis" unicode="&#x1e85;" horiz-adv-x="1509" 
d="M858 -39l-88 735l-448 -735h-29l-117 903q-6 45 -36 62.5t-99 19.5l12 39h488l-13 -39q-85 0 -120 -21t-29 -71l72 -580l309 506l-10 84q-6 43 -33.5 61.5t-81.5 20.5l12 39h475l-12 -39q-87 0 -130.5 -21.5t-39.5 -70.5l57 -594l310 510q39 65 42 104t-24.5 55t-85.5 17
l12 39h422l-12 -39q-6 -1 -34.5 -4.5t-35 -4.5t-30 -5t-31.5 -8.5t-27.5 -12t-30 -17.5t-26 -23.5t-29 -31.5t-26.5 -40l-504 -838h-29zM537 1403q0 55 38.5 94t94.5 39t94.5 -39t38.5 -94t-38.5 -94t-94.5 -39t-94.5 39t-38.5 94zM971 1403q0 55 38.5 94t94.5 39t94.5 -39
t38.5 -94t-38.5 -94t-94.5 -39t-94.5 39t-38.5 94z" />
    <glyph glyph-name="uni1ECA" unicode="&#x1eca;" horiz-adv-x="888" 
d="M250 156l215 1362q10 64 -15 88t-96 24h-73l6 43h618l-6 -43h-74q-71 0 -104 -24t-43 -88l-215 -1362q-10 -65 14.5 -89t95.5 -24h74l-6 -43h-616l6 43h71q71 0 104.5 24.5t43.5 88.5zM156 -328q0 59 40.5 99.5t98.5 40.5q60 0 100.5 -40.5t40.5 -99.5
q0 -60 -40.5 -100.5t-100.5 -40.5q-59 0 -99 40.5t-40 100.5z" />
    <glyph glyph-name="uni1ECB" unicode="&#x1ecb;" horiz-adv-x="632" 
d="M360 1030q33 0 55.5 -7t34.5 -26.5t17 -38.5t2 -59.5t-7.5 -71.5t-15.5 -92l-90 -504q-10 -31 -7 -98t32 -67q45 0 162 145l28 -21q-76 -110 -136.5 -164.5t-135.5 -54.5q-92 0 -124.5 61t-10.5 183l98 549q15 72 14.5 116t-28.5 44q-32 0 -83 -32.5t-91 -72.5l-23 25
q91 99 176 142.5t133 43.5zM279 1417q0 59 40.5 99t98.5 40q60 0 100.5 -40t40.5 -99q0 -60 -40.5 -100.5t-100.5 -40.5q-59 0 -99 40.5t-40 100.5zM90 -328q0 59 40.5 99.5t98.5 40.5q60 0 101 -40.5t41 -99.5q0 -60 -41 -100.5t-101 -40.5q-59 0 -99 40.5t-40 100.5z" />
    <glyph glyph-name="uni1ECC" unicode="&#x1ecc;" horiz-adv-x="1953" 
d="M1022 1647q-136 0 -259.5 -67.5t-216.5 -188t-147.5 -298t-54.5 -384.5q0 -172 46.5 -303.5t128.5 -211t189 -119.5t234 -40q140 0 263 67t213 186.5t142 295.5t52 383q0 171 -45.5 302.5t-126 213t-186.5 123t-232 41.5zM995 1706q182 0 339 -57.5t270.5 -161
t178 -255.5t64.5 -333q0 -201 -68 -374t-185.5 -293t-280 -188.5t-346.5 -68.5q-250 0 -445 98.5t-305.5 284t-110.5 430.5q0 197 70.5 369t191 292t283.5 188.5t344 68.5zM674 -328q0 59 40.5 99.5t98.5 40.5q60 0 100.5 -40.5t40.5 -99.5q0 -60 -40.5 -100.5t-100.5 -40.5
q-59 0 -99 40.5t-40 100.5z" />
    <glyph glyph-name="uni1ECD" unicode="&#x1ecd;" horiz-adv-x="1075" 
d="M283 365q0 -342 145 -342q79 0 144.5 47.5t105 118t67 157.5t38 160t10.5 131q0 338 -148 338q-79 0 -144 -47t-104.5 -117t-66 -156.5t-37 -159t-10.5 -130.5zM72 295q0 146 59.5 285t149 235.5t196.5 155.5t201 59q73 0 130.5 -20t93.5 -52t59.5 -75.5t33 -86.5
t9.5 -89q0 -117 -38.5 -231.5t-102.5 -203.5t-143 -158t-163.5 -106t-159.5 -37q-73 0 -131 20t-93.5 52.5t-59 76t-32.5 86.5t-9 89zM197 -328q0 59 40.5 99.5t98.5 40.5q60 0 100.5 -40.5t40.5 -99.5q0 -60 -40.5 -100.5t-100.5 -40.5q-59 0 -99 40.5t-40 100.5z" />
    <glyph glyph-name="uni1EE4" unicode="&#x1ee4;" horiz-adv-x="1732" 
d="M1614 1425l-123 -780q-50 -315 -240.5 -494.5t-488.5 -179.5q-305 0 -455 179.5t-98 506.5l135 861q10 64 -15 88t-96 24h-73l6 43h618l-6 -43h-73q-71 0 -104.5 -24t-43.5 -88l-139 -881q-39 -254 73 -404.5t332 -150.5q244 0 390.5 152t187.5 415l123 776
q18 113 -4.5 159t-110.5 46h-78l6 43h539l-6 -43h-62q-87 0 -132 -48t-62 -157zM586 -328q0 59 40.5 99.5t98.5 40.5q60 0 100.5 -40.5t40.5 -99.5q0 -60 -40.5 -100.5t-100.5 -40.5q-59 0 -99 40.5t-40 100.5z" />
    <glyph glyph-name="uni1EE5" unicode="&#x1ee5;" horiz-adv-x="1202" 
d="M752 319q-69 -174 -173 -261t-219 -87q-54 0 -92 15t-59 46.5t-31.5 68.5t-9 94t7.5 109.5t19 127.5l57 332q14 72 11 116t-32 44q-32 0 -83 -32.5t-91 -72.5l-22 25q91 99 173 142.5t128 43.5q40 0 65.5 -12.5t38.5 -33.5t15 -60t-2.5 -81t-16.5 -108l-53 -307
q-33 -170 -17 -251t97 -81q71 0 152.5 76t142.5 201l96 612h188l-118 -756q-27 -163 26 -163q45 0 162 145l29 -21q-75 -110 -136.5 -164.5t-136.5 -54.5q-97 0 -125 77.5t9 270.5zM319 -328q0 58 40.5 99t99.5 41q60 0 100.5 -40.5t40.5 -99.5q0 -60 -40.5 -100.5
t-100.5 -40.5q-59 0 -99.5 40.5t-40.5 100.5z" />
    <glyph glyph-name="Ygrave" unicode="&#x1ef2;" horiz-adv-x="1525" 
d="M809 868l432 551q48 62 67.5 104t10.5 65t-35.5 32.5t-73.5 9.5h-57l6 43h498l-6 -43q-37 0 -63 -3t-53.5 -16.5t-46 -26t-50 -47t-55.5 -64t-72 -91.5l-480 -612l-94 -594q-12 -80 15 -106.5t112 -26.5h86l-6 -43h-680l6 43h76q92 0 129 26.5t49 104.5l94 592l-303 743
q-25 63 -54.5 92t-86.5 29h-49l6 43h592l-6 -43h-53q-68 0 -105.5 -25t-17.5 -75zM961 1737l-299 479h184l141 -479h-26z" />
    <glyph glyph-name="ygrave" unicode="&#x1ef3;" horiz-adv-x="999" 
d="M-422 -391q34 0 55.5 -17t31 -41t17.5 -48t22.5 -41t39.5 -17q63 0 237 123.5t357 298.5q20 90 23.5 227.5t-10.5 279t-38.5 266.5t-64 204.5t-84.5 79.5q-29 0 -61 -38t-60 -106l-33 17q23 66 54 113t57 70t60 35t50.5 13.5t42.5 1.5q69 0 122 -61.5t83.5 -162
t46 -227.5t14 -261t-17.5 -259q245 290 312 539q15 65 12 105.5t-19.5 74.5t-34.5 56t-32.5 51.5t-14.5 58.5q0 33 25.5 59.5t67.5 26.5q57 0 83.5 -57.5t26.5 -151.5q0 -201 -120 -427.5t-324 -442.5q-259 -274 -467.5 -423t-341.5 -149q-101 0 -159 36t-58 96
q0 38 25.5 68t74.5 30zM571 1139l-299 479h185l141 -479h-27z" />
    <glyph glyph-name="endash" unicode="&#x2013;" horiz-adv-x="1052" 
d="M94 479l15 86h847l-14 -86h-848z" />
    <glyph glyph-name="emdash" unicode="&#x2014;" horiz-adv-x="1558" 
d="M94 479l15 86h1353l-14 -86h-1354z" />
    <glyph glyph-name="quoteleft" unicode="&#x2018;" horiz-adv-x="413" 
d="M254 1477q48 -14 79.5 -48.5t31.5 -80.5q0 -59 -37.5 -98.5t-100.5 -39.5q-64 0 -97.5 44.5t-33.5 109.5q0 62 34.5 120t88 100.5t107.5 72t104 45.5l6 -14q-59 -35 -115 -94.5t-67 -116.5z" />
    <glyph glyph-name="quoteright" unicode="&#x2019;" horiz-adv-x="413" 
d="M238 1436q-48 14 -79.5 48.5t-31.5 80.5q0 59 37 98t100 39q64 0 97.5 -44.5t33.5 -109.5q0 -62 -34.5 -120t-88 -100.5t-107.5 -72t-104 -45.5l-6 15q59 35 115.5 94.5t67.5 116.5z" />
    <glyph glyph-name="quotesinglbase" unicode="&#x201a;" horiz-adv-x="495" 
d="M252 -29q-48 14 -79.5 48.5t-31.5 80.5q0 59 37.5 98.5t100.5 39.5q64 0 97.5 -44.5t33.5 -109.5q0 -62 -34.5 -120t-88 -100.5t-107.5 -72t-104 -45.5l-6 14q59 35 115 94.5t67 116.5z" />
    <glyph glyph-name="quotedblleft" unicode="&#x201c;" horiz-adv-x="782" 
d="M590 1477q48 -14 79 -48.5t31 -80.5q0 -59 -37 -98.5t-100 -39.5q-64 0 -97.5 44.5t-33.5 109.5q0 62 34.5 120t88 100.5t107.5 72t104 45.5l6 -14q-59 -35 -115 -94.5t-67 -116.5zM254 1477q48 -14 79.5 -48.5t31.5 -80.5q0 -59 -37.5 -98.5t-100.5 -39.5
q-64 0 -97.5 44.5t-33.5 109.5q0 62 34.5 120t88 100.5t107.5 72t104 45.5l6 -14q-59 -35 -115 -94.5t-67 -116.5z" />
    <glyph glyph-name="quotedblright" unicode="&#x201d;" horiz-adv-x="782" 
d="M573 1436q-48 14 -79 48.5t-31 80.5q0 59 37 98t100 39q64 0 97.5 -44.5t33.5 -109.5q0 -62 -34.5 -120t-88 -100.5t-107.5 -72t-104 -45.5l-6 15q59 35 115 94.5t67 116.5zM238 1436q-48 14 -79.5 48.5t-31.5 80.5q0 59 37 98t100 39q64 0 97.5 -44.5t33.5 -109.5
q0 -62 -34.5 -120t-88 -100.5t-107.5 -72t-104 -45.5l-6 15q59 35 115.5 94.5t67.5 116.5z" />
    <glyph glyph-name="quotedblbase" unicode="&#x201e;" horiz-adv-x="782" 
d="M588 -29q-48 14 -79.5 48.5t-31.5 80.5q0 59 37 98.5t100 39.5q64 0 97.5 -44.5t33.5 -109.5q0 -62 -34.5 -120t-87.5 -100.5t-107 -72t-104 -45.5l-6 14q59 35 115 94.5t67 116.5zM252 -29q-48 14 -79.5 48.5t-31.5 80.5q0 59 37.5 98.5t100.5 39.5q64 0 97.5 -44.5
t33.5 -109.5q0 -62 -34.5 -120t-88 -100.5t-107.5 -72t-104 -45.5l-6 14q59 35 115 94.5t67 116.5z" />
    <glyph glyph-name="dagger" unicode="&#x2020;" horiz-adv-x="1357" 
d="M788 1675h95l-105 -653h568l-13 -86h-567l-205 -1288h-94l205 1288h-561l12 86h561z" />
    <glyph glyph-name="daggerdbl" unicode="&#x2021;" horiz-adv-x="1357" 
d="M788 1675h95l-99 -612h570l-15 -86h-567l-106 -668h567l-12 -86h-570l-90 -575h-94l90 575h-557l10 86h561l107 668h-561l14 86h559z" />
    <glyph glyph-name="bullet" unicode="&#x2022;" horiz-adv-x="872" 
d="M102 530q0 135 96.5 231.5t231.5 96.5q144 0 242 -96t98 -232q0 -145 -97.5 -242.5t-242.5 -97.5q-136 0 -232 98t-96 242z" />
    <glyph glyph-name="ellipsis" unicode="&#x2026;" horiz-adv-x="1300" 
d="M932 104q0 56 39 95t94 39t94 -39t39 -95t-39 -94.5t-94 -38.5t-94 38.5t-39 94.5zM516 104q0 56 39 95t94 39t94 -39t39 -95t-39 -94.5t-94 -38.5t-94 38.5t-39 94.5zM100 104q0 56 39 95t94 39t94.5 -39t39.5 -95q0 -55 -39 -94t-95 -39q-55 0 -94 38.5t-39 94.5z" />
    <glyph glyph-name="perthousand" unicode="&#x2030;" horiz-adv-x="2633" 
d="M2081 57q130 0 209.5 99.5t79.5 230.5q0 107 -61.5 178.5t-172.5 71.5q-121 0 -206 -95.5t-85 -232.5q0 -49 14 -93t41.5 -80.5t74 -57.5t106.5 -21zM2077 -27q-158 0 -243 93.5t-85 232.5q0 186 110.5 303t284.5 117q82 0 145.5 -26t102 -70.5t58.5 -100.5t20 -121
q0 -112 -49.5 -210t-141 -158t-202.5 -60zM1686 1673l-1375 -1673h-104l1370 1673h109zM504 934q130 0 209.5 99.5t79.5 230.5q0 107 -61.5 178t-172.5 71q-121 0 -206 -95t-85 -232q0 -49 14 -93t41.5 -80.5t74 -57.5t106.5 -21zM500 850q-158 0 -243 93.5t-85 232.5
q0 185 110.5 302t284.5 117q108 0 183.5 -45t109 -115t33.5 -157q0 -112 -49.5 -210t-141 -158t-202.5 -60zM1253 55q130 0 209.5 99.5t79.5 230.5q0 107 -61 178.5t-172 71.5q-121 0 -206 -95.5t-85 -232.5q0 -67 23 -122t78 -92.5t134 -37.5zM1249 -29q-158 0 -242.5 93.5
t-84.5 232.5q0 186 110.5 303t284.5 117q108 0 183.5 -45.5t108.5 -115.5t33 -157q0 -112 -49.5 -210t-141 -158t-202.5 -60z" />
    <glyph glyph-name="guilsinglleft" unicode="&#x2039;" horiz-adv-x="563" 
d="M399 70l-368 424l2 16l502 422h24l-354 -432l217 -430h-23z" />
    <glyph glyph-name="guilsinglright" unicode="&#x203a;" horiz-adv-x="563" 
d="M489 494l-501 -424h-23l354 434l-219 428h25l367 -422z" />
    <glyph glyph-name="fraction" unicode="&#x2044;" horiz-adv-x="1253" 
d="M1356 1673l-1376 -1673h-103l1372 1673h107z" />
    <glyph glyph-name="Euro" unicode="&#x20ac;" horiz-adv-x="1685" 
d="M-68 946l11 70h176q61 319 289 504.5t540 185.5q176 0 341.5 -50t289.5 -136l-33 -312h-22q-30 114 -88.5 201t-134 137.5t-157.5 75.5t-169 25q-224 0 -389 -168t-221 -463h485l-10 -70h-488q-14 -95 -14 -217v-6h465l-10 -70h-453q17 -298 160.5 -456t392.5 -158
q77 0 133.5 7t120.5 30t115.5 64.5t105 112.5t102.5 171h23l-47 -297q-126 -90 -247.5 -123t-287.5 -33q-178 0 -322.5 54.5t-240.5 149.5t-155 216t-80 262h-228l11 70h206q-2 29 -2 86q0 69 9 137h-177z" />
    <glyph glyph-name="trademark" unicode="&#x2122;" horiz-adv-x="2191" 
d="M408 850v778q-87 0 -138 -2q-88 -4 -132 -46.5t-52 -125.5h-18v219h817v-219h-21q-8 86 -45.5 127t-124.5 45q-51 2 -145 2v-778q0 -43 57 -49l60 -4v-33h-367v33l47 4q35 3 48.5 14.5t13.5 34.5zM1974 1581l23 -502q7 -159 16 -237q1 -22 14.5 -30.5t43.5 -10.5l59 -4
v-35h-367v35l49 4q37 3 48.5 10.5t11.5 30.5q0 9 -3 87.5t-7 143.5l-19 481l-299 -788h-49l-299 790l-35 -692q-4 -60 45 -63l62 -4v-33h-297v33l49 4q73 7 76 63l41 717q1 24 -17.5 38.5t-46.5 16.5l-61 4v33h293l258 -698l260 698h270v-33l-61 -4q-58 -7 -58 -55z" />
    <glyph glyph-name="Omega" unicode="&#x2126;" horiz-adv-x="1908" 
d="M993 0l13 84q97 22 192.5 65.5t188.5 115.5t163.5 162.5t114 214t43.5 261.5q0 137 -42 255.5t-112.5 202t-163.5 143t-196 88t-209 28.5q-115 0 -225.5 -27.5t-214.5 -88.5t-182 -149.5t-125.5 -220.5t-47.5 -292q0 -141 48.5 -272.5t126 -227t168.5 -162t182 -94.5
l-13 -86h-733l13 86h544q-178 85 -306 301t-128 451q0 159 45.5 298t126.5 242t191.5 177t243.5 111.5t278 37.5q189 0 348.5 -66t263 -175.5t160.5 -249t57 -289.5q0 -152 -46 -288t-127.5 -240t-185.5 -182t-228 -128h546l-12 -86h-760z" />
    <glyph glyph-name="partialdiff" unicode="&#x2202;" horiz-adv-x="1157" 
d="M553 1030q165 0 280 -104t132 -295q4 62 4 92q0 280 -148 482.5t-420 285.5l43 84q309 -111 463 -318.5t154 -500.5q0 -114 -19.5 -223.5t-63 -212t-107 -179.5t-159.5 -123.5t-212 -46.5q-111 0 -201.5 41t-148 110t-88.5 155t-31 180q0 127 45 236.5t119 182
t167.5 113.5t190.5 41zM553 942q-76 0 -148.5 -32.5t-132 -91.5t-95.5 -151.5t-36 -201.5q0 -171 105.5 -286.5t253.5 -115.5q104 0 186.5 41t132.5 109t75.5 150.5t25.5 171.5q0 77 -23 148t-66.5 129.5t-115.5 94t-162 35.5z" />
    <glyph glyph-name="Delta" unicode="&#x2206;" horiz-adv-x="1236" 
d="M711 1204l430 -1204h-1235zM682 1006l-619 -920h949z" />
    <glyph glyph-name="product" unicode="&#x220f;" horiz-adv-x="1736" 
d="M283 1587l12 86h1450l-12 -86h-189l-280 -1767h188l-14 -86h-461l14 86h178l281 1767h-885l-280 -1767h178l-14 -86h-459l12 86h188l281 1767h-188z" />
    <glyph glyph-name="summation" unicode="&#x2211;" horiz-adv-x="1441" 
d="M602 834l-416 839h1213l-74 -471h-94l59 385h-946l377 -762l-637 -739h989l62 385h94l-74 -471h-1266z" />
    <glyph glyph-name="minus" unicode="&#x2212;" horiz-adv-x="1134" 
d="M94 479l15 86h929l-14 -86h-930z" />
    <glyph glyph-name="radical" unicode="&#x221a;" horiz-adv-x="1415" 
d="M20 715l13 88h315l148 -668l774 1665h499l-12 -88h-424l-874 -1827l-185 830h-254z" />
    <glyph glyph-name="infinity" unicode="&#x221e;" horiz-adv-x="1611" 
d="M457 770q106 0 193.5 -52.5t168.5 -166.5q106 112 202.5 165.5t203.5 53.5q130 0 209 -80t79 -201q0 -139 -99.5 -225t-256.5 -86q-106 0 -199.5 61.5t-160.5 170.5q-224 -230 -416 -230q-129 0 -206 79.5t-77 199.5q0 140 98.5 225.5t260.5 85.5zM401 266q84 0 165.5 51
t178.5 158q-132 209 -290 209q-118 0 -186 -56.5t-68 -160.5q0 -78 55 -139.5t145 -61.5zM1169 266q102 0 172 59.5t70 155.5q0 80 -58 141.5t-155 61.5q-77 0 -152.5 -49t-173.5 -154q127 -215 297 -215z" />
    <glyph glyph-name="integral" unicode="&#x222b;" horiz-adv-x="546" 
d="M86 -352l281 1779q8 46 18 79t31 66.5t52 54t80.5 33.5t115.5 13h20l-12 -86q-105 0 -150.5 -33.5t-60.5 -126.5l-281 -1779q-8 -46 -18 -79t-31.5 -66.5t-52.5 -54t-80 -33.5t-115 -13h-20l12 86q104 0 150 33.5t61 126.5z" />
    <glyph glyph-name="approxequal" unicode="&#x2248;" horiz-adv-x="1349" 
d="M369 471q57 0 119.5 -21t118 -50.5t109.5 -59.5t111.5 -51t106.5 -21q64 0 119 37.5t108 126.5l76 -33q-56 -113 -138 -167t-177 -54q-71 0 -153.5 31.5t-144.5 69t-136 69t-132 31.5q-131 0 -229 -172l-76 37q56 114 140 170.5t178 56.5zM430 840q57 0 119.5 -21
t118 -51t109.5 -59.5t111.5 -50.5t106.5 -21q64 0 119.5 37.5t108.5 126.5l75 -33q-56 -113 -138 -167t-177 -54q-71 0 -153.5 31.5t-144 69t-135.5 69t-132 31.5q-132 0 -230 -173l-75 37q56 114 139.5 171t177.5 57z" />
    <glyph glyph-name="notequal" unicode="&#x2260;" horiz-adv-x="1134" 
d="M123 662l14 86h502l143 256h101l-144 -256h328l-14 -86h-361l-157 -283h475l-15 -86h-510l-161 -293h-101l162 293h-319l14 86h354l158 283h-469z" />
    <glyph glyph-name="lessequal" unicode="&#x2264;" horiz-adv-x="1239" 
d="M111 578l14 88l1092 364l-17 -104l-960 -308l858 -339l-17 -101zM43 0l12 86h1012l-12 -86h-1012z" />
    <glyph glyph-name="greaterequal" unicode="&#x2265;" horiz-adv-x="1241" 
d="M1161 666l-14 -88l-1098 -400l17 109l968 338l-866 309l16 96zM1047 86l-13 -86h-1011l12 86h1012z" />
    <glyph glyph-name="lozenge" unicode="&#x25ca;" horiz-adv-x="1153" 
d="M428 -102l-369 870l648 889l383 -889zM981 774l-297 701l-518 -711l289 -690z" />
    <glyph glyph-name="fi" unicode="&#xfb01;" horiz-adv-x="1153" 
d="M104 932l15 53h160l20 145q18 127 59.5 226.5t93 160.5t115.5 101t122 55t116 15q66 0 129 -15t109.5 -50t46.5 -83q0 -41 -26.5 -69.5t-76.5 -28.5q-42 0 -71.5 32.5t-44 71t-40 71t-59.5 32.5q-25 0 -53.5 -13t-62.5 -47.5t-63.5 -85.5t-55.5 -135.5t-41 -189.5
l-27 -193h541l-136 -754q-10 -31 -7 -98t32 -67q45 0 162 145l29 -21q-75 -110 -136.5 -164.5t-136.5 -54.5q-92 0 -124.5 61t-10.5 183l131 717h-352l-139 -1006q-18 -126 -58 -225t-89.5 -159t-111 -99t-117.5 -53.5t-114 -14.5q-103 0 -188 35t-88 96q0 42 25.5 68.5
t60.5 26.5q34 0 60.5 -19t43 -46.5t31.5 -54.5t37.5 -46t50.5 -19q33 0 67.5 22t72 71.5t70 146.5t50.5 229l145 1047h-166z" />
    <glyph glyph-name="fl" unicode="&#xfb02;" horiz-adv-x="1191" 
d="M1124 1673l-204 -1442q-2 -16 -7 -44q-11 -54 -9 -85.5t26 -31.5q23 0 70.5 38t103.5 109l26 -20q-38 -57 -63 -89.5t-59.5 -68.5t-70 -52t-75.5 -16q-84 0 -117 60.5t-18 169.5l184 1300q-23 16 -41 43.5t-28 49.5t-27.5 38.5t-42.5 16.5t-53.5 -13t-62.5 -47.5
t-63.5 -85.5t-55.5 -135.5t-41 -189.5l-27 -193h287l-13 -53h-282l-139 -1006q-18 -126 -58 -225t-89.5 -159t-111 -99t-117.5 -53.5t-114 -14.5q-103 0 -188 35t-88 96q0 42 25.5 68.5t60.5 26.5q34 0 60.5 -19t43 -46.5t31.5 -54.5t37.5 -46t50.5 -19q33 0 67.5 22
t72 71.5t70 146.5t50.5 229l145 1047h-166l15 53h160l20 145q18 127 59.5 226.5t93 160.5t115.5 101t122 55t116 15q74 0 166 -15h153z" />
    <glyph glyph-name="uniFB06" unicode="&#xfb06;" horiz-adv-x="1562" 
d="M743 979q-110 158 -110 311q0 71 28.5 138.5t79.5 120.5t129.5 85.5t171.5 32.5q54 0 100.5 -8.5t90 -28t74 -51t52 -77t25 -107t-7.5 -140.5l-45 -270h293l-8 -53h-293l-113 -701q-13 -89 -7 -124t34 -35q33 0 88.5 32.5t120.5 100.5l22 -19q-145 -215 -319 -215
q-172 0 -131 242l117 719l-154 12l6 41h156l43 254q15 80 9.5 139.5t-21.5 99.5t-45 65t-62 35.5t-72 10.5q-127 0 -210 -97.5t-83 -231.5q0 -135 60 -261q5 -11 33 -49t28 -65q0 -41 -26.5 -65.5t-63.5 -24.5q-24 0 -48.5 19.5t-47 47.5t-47 56t-58.5 47.5t-71 19.5
q-70 0 -104.5 -31t-34.5 -86q0 -106 157 -227l72 -55q111 -86 174 -166t63 -164q0 -77 -34 -135t-89 -89.5t-115 -46t-122 -14.5q-131 0 -236.5 52t-105.5 131q0 50 30 77t72 27q45 0 73 -25.5t41.5 -61.5t28 -72t44 -61.5t76.5 -25.5q72 0 122 38.5t50 111.5q0 75 -35 127
t-129 131l-97 80q-36 30 -55.5 47.5t-50.5 50t-47.5 58.5t-29.5 61.5t-13 70.5q0 80 48.5 136t123 81t166.5 25q147 0 239 -51z" />
    <glyph glyph-name="CR" horiz-adv-x="389" 
 />
    <glyph glyph-name="acute.case" horiz-adv-x="1024" 
d="M750 2224l-451 -479h-27l293 479h185z" />
    <glyph glyph-name="breve.case" horiz-adv-x="1024" 
d="M762 2132h88q-22 -82 -61.5 -144t-81.5 -96t-91.5 -55t-86 -27t-70.5 -6q-37 0 -71.5 6t-76.5 27t-72 55t-49 96t-16 144h92q1 -124 56 -185t155 -61q98 0 171.5 61.5t113.5 184.5z" />
    <glyph glyph-name="c_t" horiz-adv-x="1562" 
d="M82 295q0 100 25.5 204t75 198.5t116.5 169t156.5 119t187.5 44.5q73 0 143 -31q-153 147 -153 322q0 144 112 246t297 102q55 0 101 -8t89.5 -27t74 -49.5t52 -76t24.5 -106.5t-7 -140l-45 -277h293l-8 -53h-293l-113 -701q-13 -89 -7 -124t34 -35q33 0 88.5 32.5
t120.5 100.5l22 -19q-145 -215 -319 -215q-172 0 -131 242l117 719l-154 12l6 41h156l43 260q15 80 9.5 139t-21 98.5t-45 63.5t-62.5 34.5t-72 10.5q-129 0 -211 -86.5t-82 -218.5q0 -112 101 -266q9 -14 35 -40.5t40.5 -50t14.5 -50.5q0 -36 -25 -62t-59 -26
q-37 0 -60.5 19.5t-35.5 47.5t-25 56t-38 47.5t-64 19.5q-78 0 -149 -99.5t-110.5 -241t-39.5 -273.5q0 -137 44.5 -217t119.5 -80t159 65.5t158 186.5l31 -19q-53 -100 -104.5 -166t-105 -102t-104.5 -50t-116 -14q-136 0 -211.5 82t-75.5 242z" />
    <glyph glyph-name="caron.case" horiz-adv-x="1024" 
d="M846 2247l-395 -500h-19l-254 500h23l270 -310l352 310h23z" />
    <glyph glyph-name="cedilla.case" horiz-adv-x="1024" 
d="M520 -8h62l-133 -152q61 41 122 41q66 0 105 -28t39 -86q0 -62 -41 -115.5t-103.5 -86.5t-131.5 -51t-128 -16l-4 13q133 16 218 91t85 150q0 74 -90 74q-43 0 -88 -29l-43 39z" />
    <glyph glyph-name="circumflex.case" horiz-adv-x="1024" 
d="M608 2236l236 -499h-21l-258 301l-364 -301h-25l414 499h18z" />
    <glyph glyph-name="commaaccent" horiz-adv-x="663" 
d="M336 -211q0 -59 -28.5 -115.5t-75 -100t-98 -76t-105.5 -54.5l-6 16q54 29 108 89.5t62 113.5q-42 1 -70.5 35t-28.5 76q0 57 37.5 93t97.5 36q49 0 78 -32.5t29 -80.5z" />
    <glyph glyph-name="dieresis.case" horiz-adv-x="1024" 
d="M100 1989q0 55 39 94t94 39q56 0 95 -39t39 -94t-39.5 -94.5t-94.5 -39.5t-94 39t-39 95zM657 1989q0 55 39 94t95 39q55 0 94 -39t39 -94q0 -56 -39 -95t-94 -39t-94.5 39.5t-39.5 94.5z" />
    <glyph glyph-name="dot" horiz-adv-x="632" 
d="M279 1417q0 59 40.5 99t98.5 40q60 0 100.5 -40t40.5 -99q0 -60 -40.5 -100.5t-100.5 -40.5q-59 0 -99 40.5t-40 100.5z" />
    <glyph glyph-name="dotaccent.case" horiz-adv-x="1024" 
d="M379 1972q0 56 38 94.5t93 38.5q56 0 94.5 -38.5t38.5 -94.5q0 -55 -38.5 -93t-94.5 -38t-93.5 37.5t-37.5 93.5z" />
    <glyph glyph-name="dotaccent.low" horiz-adv-x="428" 
d="M74 -328q0 59 40.5 99.5t98.5 40.5q60 0 100.5 -40.5t40.5 -99.5q0 -60 -40.5 -100.5t-100.5 -40.5q-59 0 -99 40.5t-40 100.5z" />
    <glyph glyph-name="eight.pof" horiz-adv-x="1220" 
d="M276 1296q0 172 132 293t352 121q108 0 191 -28t131.5 -74.5t73 -101.5t24.5 -115q0 -139 -111 -242.5t-324 -192.5l56 -49q149 -133 221 -236.5t72 -209.5q0 -95 -38.5 -182.5t-109 -156.5t-181 -110t-245.5 -41q-181 0 -314.5 119t-133.5 285q0 165 120 287.5
t330 201.5l-35 33q-97 86 -154 190.5t-57 208.5zM250 360q0 -89 31 -162.5t99.5 -121t164.5 -47.5q160 0 249 95t89 238q0 89 -39.5 172t-145.5 177l-155 137q-146 -80 -219.5 -209t-73.5 -279zM1006 1395q0 52 -13 96.5t-40.5 82t-76 59.5t-114.5 22q-113 0 -199 -76
t-86 -209q0 -175 223 -373l23 -20q149 89 216 186.5t67 231.5z" />
    <glyph glyph-name="five.pof" horiz-adv-x="952" 
d="M80 233l-17 7l379 761h443l-27 -163h-434l-211 -416q110 78 242 78q160 0 242.5 -93.5t82.5 -252.5q0 -104 -47 -204.5t-129 -186.5t-200.5 -168t-252.5 -150t-294 -131l-9 24q189 102 316.5 188.5t220 180.5t134.5 194.5t42 217.5q0 109 -53.5 174t-157.5 65
q-134 0 -270 -125z" />
    <glyph glyph-name="four.pof" horiz-adv-x="1212" 
d="M764 0l-72 -444q-6 -32 15.5 -51t56.5 -19h61l-8 -43h-473l8 43h60q35 0 62.5 19t31.5 51l69 444h-606l-4 14l955 1035h22l-145 -916h106q112 0 169.5 34.5t92.5 135.5h15l-50 -303h-366zM145 133h463l94 600z" />
    <glyph glyph-name="grave.case" horiz-adv-x="1024" 
d="M647 1737l-299 479h184l142 -479h-27z" />
    <glyph glyph-name="hungarumlaut.case" horiz-adv-x="1024" 
d="M575 2216l-409 -479h-27l252 479h184zM885 2216l-410 -479h-26l251 479h185z" />
    <glyph glyph-name="macron.case" horiz-adv-x="1024" 
d="M164 1876l14 96h684l-14 -96h-684z" />
    <glyph glyph-name="nine.pof" horiz-adv-x="1255" 
d="M102 418q0 124 46.5 237t125.5 195.5t189.5 131t234.5 48.5q150 0 259.5 -67t163 -179.5t53.5 -255.5q0 -180 -70.5 -353.5t-186.5 -311.5t-266 -255t-308.5 -196t-315.5 -123l-7 23q279 130 507.5 343.5t342.5 475.5q-79 -83 -162.5 -121.5t-191.5 -38.5
q-59 0 -117 16.5t-112 52.5t-95 87.5t-65.5 126.5t-24.5 164zM592 55q183 0 299 123q74 197 74 395q0 101 -27 189t-86.5 148.5t-140.5 60.5q-110 0 -202 -76t-144 -201.5t-52 -267.5q0 -158 78 -264.5t201 -106.5z" />
    <glyph glyph-name="ogonek.case" horiz-adv-x="1024" 
d="M694 -420l4 -16q-104 -60 -202 -60q-73 0 -121.5 38t-48.5 108q0 38 11.5 73t38 67t53 57t72 55t78.5 49.5t89 50.5h20q-209 -185 -209 -313q0 -60 39.5 -90.5t99.5 -30.5q42 0 76 12z" />
    <glyph glyph-name="one.pof" horiz-adv-x="606" 
d="M147 113l121 761q4 33 -16 51.5t-55 18.5h-62l8 43h473l-8 -43h-59q-35 0 -61.5 -18.5t-30.5 -51.5l-121 -761q-4 -33 16.5 -51.5t55.5 -18.5h61l-8 -43h-471l8 43h57q35 0 61.5 18.5t30.5 51.5z" />
    <glyph glyph-name="ring.case" horiz-adv-x="1024" 
d="M539 2198q78 0 131 -53t53 -128q0 -92 -73 -156.5t-167 -64.5q-78 0 -130 51t-52 125q0 94 71 160t167 66zM528 2130q-62 0 -104.5 -44t-42.5 -106q0 -48 31.5 -82t81.5 -34q64 0 107.5 41.5t43.5 103.5q0 51 -34.5 86t-82.5 35z" />
    <glyph glyph-name="s_p" horiz-adv-x="1980" 
d="M1264 -600h-568l6 43h50q70 0 100 24t39 89l248 1681q12 101 2 168.5t-43 109t-73.5 59t-90.5 17.5q-127 0 -198.5 -84.5t-71.5 -218.5q0 -60 27 -138.5t67 -148.5q8 -15 26 -36.5t28.5 -40t10.5 -39.5q0 -41 -26.5 -65.5t-63.5 -24.5q-24 0 -48.5 19.5t-47 47.5t-47 56
t-58.5 47.5t-71 19.5q-70 0 -104.5 -31t-34.5 -86q0 -106 157 -227l72 -55q111 -86 174 -166t63 -164q0 -77 -34 -135t-89 -89.5t-115 -46t-122 -14.5q-131 0 -236.5 52t-105.5 131q0 50 30 77t72 27q45 0 73 -25.5t41.5 -61.5t28 -72t44 -61.5t76.5 -25.5q72 0 122 38.5
t50 111.5q0 75 -35 127t-129 131l-97 80q-36 30 -55.5 47.5t-50.5 50t-47.5 58.5t-29.5 61.5t-13 70.5q0 80 48.5 136t123 81t166.5 25q134 0 229 -45q-65 84 -102 172t-37 164q0 95 42.5 172.5t132 126.5t212.5 49q66 0 121.5 -12.5t105.5 -42t80 -77t44.5 -117.5
t-1.5 -165l-78 -518q142 295 365 295q78 0 137 -29.5t91 -79t47.5 -103.5t15.5 -111q0 -99 -27.5 -204t-80 -199.5t-121.5 -170t-159 -120t-186 -44.5q-100 0 -186 62l-68 -459q-12 -78 17.5 -104.5t120.5 -26.5h51zM1534 946q-58 0 -133 -65.5t-156 -204.5l-74 -488
q23 -79 71 -121t116 -42t128 47t99.5 119t68 157t41.5 160.5t13 130.5q0 139 -44.5 223t-129.5 84z" />
    <glyph glyph-name="s_t" horiz-adv-x="1562" 
d="M743 979q-110 158 -110 311q0 71 28.5 138.5t79.5 120.5t129.5 85.5t171.5 32.5q54 0 100.5 -8.5t90 -28t74 -51t52 -77t25 -107t-7.5 -140.5l-45 -270h293l-8 -53h-293l-113 -701q-13 -89 -7 -124t34 -35q33 0 88.5 32.5t120.5 100.5l22 -19q-145 -215 -319 -215
q-172 0 -131 242l117 719l-154 12l6 41h156l43 254q15 80 9.5 139.5t-21.5 99.5t-45 65t-62 35.5t-72 10.5q-127 0 -210 -97.5t-83 -231.5q0 -135 60 -261q5 -11 33 -49t28 -65q0 -41 -26.5 -65.5t-63.5 -24.5q-24 0 -48.5 19.5t-47 47.5t-47 56t-58.5 47.5t-71 19.5
q-70 0 -104.5 -31t-34.5 -86q0 -106 157 -227l72 -55q111 -86 174 -166t63 -164q0 -77 -34 -135t-89 -89.5t-115 -46t-122 -14.5q-131 0 -236.5 52t-105.5 131q0 50 30 77t72 27q45 0 73 -25.5t41.5 -61.5t28 -72t44 -61.5t76.5 -25.5q72 0 122 38.5t50 111.5q0 75 -35 127
t-129 131l-97 80q-36 30 -55.5 47.5t-50.5 50t-47.5 58.5t-29.5 61.5t-13 70.5q0 80 48.5 136t123 81t166.5 25q147 0 239 -51z" />
    <glyph glyph-name="seven.pof" horiz-adv-x="1128" 
d="M-102 -549l1106 1385h-523q-129 0 -190 -33t-96 -137h-29l55 340h969l-1190 -1631z" />
    <glyph glyph-name="six.pof" horiz-adv-x="1255" 
d="M1153 584q0 -124 -46.5 -237t-125.5 -195.5t-189.5 -131.5t-234.5 -49q-150 0 -259 67t-162.5 179.5t-53.5 255.5q0 180 70.5 353.5t186.5 311.5t266 255t308.5 196t315.5 123l6 -22q-280 -130 -508 -344t-342 -476q81 82 164 121t190 39q59 0 117 -16.5t112 -52.5
t95 -87t65.5 -126t24.5 -164zM664 946q-184 0 -299 -125q-74 -194 -74 -393q0 -101 27 -189t86.5 -148t140.5 -60q110 0 202 76t143.5 201t51.5 267q0 158 -77.5 264.5t-200.5 106.5z" />
    <glyph glyph-name="three.pof" horiz-adv-x="886" 
d="M154 221l-9 21q218 100 348 233t130 287q0 92 -54.5 140t-146.5 48q-134 0 -256 -92l-10 14q87 84 187.5 121t193.5 37q128 0 208 -62.5t80 -179.5q0 -59 -30 -120t-77 -111t-108 -96.5t-120.5 -80t-118.5 -58.5q155 -17 249.5 -114t94.5 -226q0 -75 -27 -152t-82 -148.5
t-130 -127.5t-180 -89.5t-224 -33.5q-83 0 -172 31.5t-140 95.5l19 16q100 -80 237 -80q120 0 230.5 53.5t184 158.5t73.5 237q0 115 -82.5 196.5t-231.5 81.5h-36z" />
    <glyph glyph-name="tilde.case" horiz-adv-x="1024" 
d="M819 2056l109 96l12 -8l-133 -250h-610l-109 -96l-12 8l133 250h610z" />
    <glyph glyph-name="two.pof" horiz-adv-x="1048" 
d="M874 0h-950q26 18 106.5 71t128.5 85t129 91t132.5 101.5t114.5 102t99.5 109t61.5 105t25 105.5q0 79 -52.5 120.5t-148.5 41.5q-68 0 -140.5 -30.5t-166.5 -115.5l-12 11q51 69 107.5 117t113.5 72.5t108.5 34t108.5 9.5q143 0 221 -62t78 -165q0 -72 -49 -149
t-105 -132t-169 -130t-167 -106.5t-174 -96.5q-31 -17 -45 -25h473q26 0 45.5 2.5t44 12t44.5 26.5t41 47t38 72h11z" />
    <glyph glyph-name="zero.pof" horiz-adv-x="1191" 
d="M1096 545q0 -155 -68.5 -286t-193 -208.5t-277.5 -77.5q-219 0 -349 134t-130 350q0 116 37.5 220t105 182.5t168.5 124.5t221 46q229 0 357.5 -135t128.5 -350zM610 905q-109 0 -198 -59.5t-138 -159.5t-49 -217q0 -75 21 -140.5t61.5 -117t106.5 -81.5t149 -30
q171 0 278 124t107 311q0 157 -90.5 263.5t-247.5 106.5z" />
    </font>
</defs>
</svg>
