<?xml version="1.0" standalone="no"?>
<!DOCTYPE svg PUBLIC "-//W3C//DTD SVG 1.1//EN" "http://www.w3.org/Graphics/SVG/1.1/DTD/svg11.dtd" >
<svg xmlns="http://www.w3.org/2000/svg" xmlns:xlink="http://www.w3.org/1999/xlink" version="1.1">
<metadata>
Created by FontForge 20170731 at Fri Aug  5 17:18:45 2022
 By Aleksey,,,
Copyright (c) 2014 Swiss Typefaces. All rights reserved.
</metadata>
<defs>
<font id="RomainText-BoldItalic" horiz-adv-x="1024" >
  <font-face 
    font-family="Romain Text"
    font-weight="700"
    font-style="italic"
    font-stretch="normal"
    units-per-em="2048"
    panose-1="2 2 8 0 0 0 0 0 0 0"
    ascent="1638"
    descent="-410"
    x-height="983"
    cap-height="1583"
    bbox="-625 -713 2525 2101"
    underline-thickness="102"
    underline-position="-409"
    slope="-9"
    unicode-range="U+0020-FB06"
  />
<missing-glyph horiz-adv-x="1427" 
d="M205 0v1612h1018v-1612h-1018zM229 1591v-1571h969v1571h-969z" />
    <glyph glyph-name="f_f" unicode="ff" horiz-adv-x="1538" 
d="M43 885l18 100h244l4 27q21 122 71 220.5t112 160t137.5 102.5t143.5 57.5t134 16.5q79 0 161 -21t134 -59q81 78 178.5 114.5t192.5 36.5q83 0 161.5 -19t137.5 -64t59 -107q0 -53 -28 -90t-93 -37q-49 0 -84 24.5t-55 59.5t-37 70t-41.5 59.5t-56.5 24.5
q-27 0 -53.5 -18.5t-56.5 -62.5t-58.5 -133.5t-48.5 -216.5l-23 -145h367l-16 -100h-367l-133 -834q-25 -158 -68 -279t-94 -195t-114 -120.5t-122 -64t-124 -17.5q-113 0 -192 66t-79 143q0 52 31.5 91.5t89.5 39.5q46 0 71 -27.5t32.5 -66.5t12.5 -78t21.5 -66.5
t49.5 -27.5t56 37t50 145.5t61 315.5l148 938h-371l-182 -953q-23 -122 -71 -220t-106 -159.5t-128.5 -103t-136 -58t-129.5 -16.5q-82 0 -162.5 20.5t-140.5 66.5t-60 108q0 52 33 92.5t98 40.5q41 0 72.5 -18.5t48.5 -46t33.5 -59.5t29.5 -59.5t34.5 -46t49.5 -18.5
q20 0 41 10t47 39.5t49.5 75t47.5 124.5t41 181l172 1000h-244zM870 1489q-27 0 -54 -18.5t-59 -62.5t-63 -133.5t-55 -215.5l-14 -74h368l17 98q14 103 51 191q-29 20 -54.5 59t-40 72t-39.5 58.5t-57 25.5z" />
    <glyph glyph-name="f_f_i" unicode="ffi" horiz-adv-x="2031" 
d="M43 885l18 100h244l4 27q21 122 71 220.5t111.5 160t136.5 102.5t143 57.5t134 16.5q79 0 161 -21t134 -59q81 78 178.5 114.5t192.5 36.5q82 0 163.5 -20t143 -66t61.5 -108q0 -53 -32 -95t-97 -42q-49 0 -84.5 26t-55.5 63t-37.5 74t-42 63t-56.5 26q-27 0 -53.5 -18.5
t-56.5 -62.5t-58.5 -133.5t-48.5 -216.5l-23 -145h621l-143 -756q-13 -71 -6 -97t34 -26q48 0 158 127l45 -36q-37 -54 -66 -88t-69.5 -69t-88.5 -52t-106 -17q-117 0 -168.5 77.5t-25.5 213.5l120 623h-321l-133 -836q-107 -674 -508 -674q-114 0 -198.5 66.5t-84.5 142.5
q0 52 31.5 91.5t89.5 39.5q46 0 72 -27.5t35.5 -66.5t16.5 -78t24.5 -66.5t50.5 -27.5q16 0 28 7.5t24.5 31t23 60t24.5 101.5t28 147.5t34 205.5l139 883h-369l-182 -953q-24 -122 -71.5 -220t-106 -159.5t-128.5 -103t-135.5 -58t-129.5 -16.5q-82 0 -162.5 20.5
t-140.5 66.5t-60 108q0 52 33 92.5t98 40.5q41 0 72.5 -18.5t48.5 -46t33.5 -59.5t29.5 -59.5t34.5 -46t49.5 -18.5q20 0 41 10t47 39.5t49.5 75t47.5 124.5t41 181l172 1000h-244zM868 1489q-21 0 -41.5 -10.5t-46.5 -39.5t-49.5 -75t-47.5 -124.5t-44 -180.5l-14 -74h366
l17 98q14 103 51 191q-29 20 -54.5 59t-40 72t-39.5 58.5t-57 25.5z" />
    <glyph glyph-name="f_f_l" unicode="ffl" horiz-adv-x="2056" 
d="M43 885l18 100h244l4 27q21 122 71 220.5t112 160t137.5 102.5t143.5 57.5t134 16.5q82 0 165 -21.5t134 -62.5q84 80 184.5 117.5t196.5 37.5q93 0 172 -16l271 14l-232 -1409q-11 -71 -4.5 -97t33.5 -26q45 0 155 127l46 -36q-37 -54 -66 -88t-69.5 -69t-88.5 -52
t-106 -17q-117 0 -167.5 76.5t-27.5 214.5l189 1135q-13 19 -38.5 69t-48 72.5t-55.5 22.5q-27 0 -55.5 -18.5t-61.5 -62t-63.5 -134t-50.5 -216.5l-23 -145h238l-16 -100h-238l-133 -836q-21 -132 -54 -238t-74.5 -178.5t-88 -124t-99.5 -80t-102.5 -41t-103.5 -12.5
q-113 0 -192 66t-79 143q0 52 31.5 91.5t89.5 39.5q46 0 71 -27.5t32.5 -66.5t12.5 -78t21.5 -66.5t49.5 -27.5t56.5 39t53 160t66.5 354l139 883h-371l-182 -953q-24 -122 -71.5 -220t-106 -159.5t-128.5 -103t-135.5 -58t-129.5 -16.5q-82 0 -162.5 20.5t-140.5 66.5
t-60 108q0 52 33 92.5t98 40.5q41 0 72.5 -18.5t48.5 -46t33.5 -59.5t29.5 -59.5t34.5 -46t49.5 -18.5q20 0 41 10t47 39.5t49.5 75t47.5 124.5t41 181l172 1000h-244zM870 1489q-27 0 -54 -18.5t-59 -62.5t-63 -133.5t-55 -215.5l-14 -74h368l17 98q14 103 51 191
q-29 20 -54.5 59t-40 72t-39.5 58.5t-57 25.5z" />
    <glyph glyph-name="f_i" unicode="fi" horiz-adv-x="1329" 
d="M776 262l121 623h-324l-151 -953q-20 -123 -66.5 -221t-105.5 -159.5t-131 -102.5t-138 -57.5t-131 -16.5q-82 0 -162.5 20.5t-140 66.5t-59.5 108q0 52 33 92.5t98 40.5q41 0 72.5 -18.5t48.5 -46t33.5 -59.5t29.5 -59.5t34.5 -46t49.5 -18.5q20 0 41.5 10t48 39.5
t50 75t47 124.5t39.5 181l157 1000h-229l18 100h228l16 98q20 123 65.5 221t103 159.5t127.5 102.5t136 57.5t131 16.5q82 0 164 -20t143.5 -66.5t61.5 -107.5q0 -53 -32 -95t-97 -42q-49 0 -84.5 26t-55.5 63t-38 74t-42.5 63t-56.5 26q-27 0 -53.5 -18.5t-56.5 -62.5
t-58.5 -133.5t-48.5 -216.5l-22 -145h622l-143 -756q-12 -71 -5 -97t34 -26q47 0 157 127l45 -36q-37 -54 -65.5 -88t-69 -69t-88.5 -52t-106 -17q-117 0 -169 77.5t-26 213.5z" />
    <glyph glyph-name="f_l" unicode="fl" horiz-adv-x="1351" 
d="M846 1561q-21 0 -43 -10t-49.5 -39.5t-51.5 -75.5t-48 -125t-40 -181l-22 -145h237l-16 -100h-238l-151 -953q-20 -123 -66.5 -221t-105.5 -159.5t-130.5 -102.5t-137.5 -57.5t-131 -16.5q-82 0 -162.5 20.5t-140.5 66.5t-60 108q0 52 33 92.5t98 40.5q41 0 72.5 -18.5
t48.5 -46t33.5 -59.5t29.5 -59.5t34.5 -46t49.5 -18.5q20 0 41.5 10t48 39.5t50 75t47 124.5t39.5 181l157 1000h-229l18 100h228l16 98q20 123 67 221t106.5 159.5t132 102.5t140 57.5t132.5 16.5q93 0 172 -16l270 14l-231 -1409q-9 -46 -8 -73.5t9.5 -38.5t26.5 -11
q46 0 156 127l45 -36q-37 -54 -66 -88t-69.5 -69t-88.5 -52t-106 -17q-117 0 -167 76t-27 215l188 1135q-14 20 -39 69.5t-47 72t-55 22.5z" />
    <glyph glyph-name=".notdef" horiz-adv-x="1427" 
d="M205 0v1612h1018v-1612h-1018zM229 1591v-1571h969v1571h-969z" />
    <glyph glyph-name=".null" horiz-adv-x="0" 
 />
    <glyph glyph-name="nonmarkingreturn" horiz-adv-x="682" 
 />
    <glyph glyph-name="NULL" horiz-adv-x="368" 
 />
    <glyph glyph-name="NULL" horiz-adv-x="368" 
 />
    <glyph glyph-name="space" unicode=" " horiz-adv-x="368" 
 />
    <glyph glyph-name="exclam" unicode="!" horiz-adv-x="579" 
d="M250 1610q165 61 330 0q-26 -162 -99 -445q-21 -77 -65 -196.5t-83.5 -244.5t-62.5 -259h-71q17 125 20 280.5t-1 261t1 224.5q2 33 6 105t6 99.5t7 77t12 97.5zM20 168q0 79 55.5 134.5t135.5 55.5q84 0 140.5 -55t56.5 -135q0 -85 -56 -141t-141 -56q-80 0 -135.5 56.5
t-55.5 140.5z" />
    <glyph glyph-name="quotedbl" unicode="&#x22;" horiz-adv-x="694" 
d="M367 1147l43 450h231l-145 -450h-129zM68 1147l43 450h231l-145 -450h-129z" />
    <glyph glyph-name="numbersign" unicode="#" horiz-adv-x="1732" 
d="M281 999l57 113h356l277 494h125l-277 -494h428l277 494h125l-277 -494h346l-57 -113h-352l-254 -450h387l-60 -113h-391l-243 -436h-125l243 436h-428l-243 -436h-125l243 436h-311l59 113h316l254 450h-350zM756 999l-254 -450h428l254 450h-428z" />
    <glyph glyph-name="dollar" unicode="$" horiz-adv-x="1220" 
d="M438 -178l23 149q-124 2 -253.5 34.5t-207.5 88.5l63 373h56q19 -212 108 -297.5t252 -85.5l92 582l-98 57q-88 51 -144.5 93t-98.5 93t-60 109.5t-18 134.5q0 199 158 326t413 133l25 153h118l-26 -157q165 -15 323 -97l-28 -348h-70q-22 138 -86.5 220t-157.5 110
l-86 -551l49 -29q39 -23 54 -31.5t51.5 -31.5t53 -36.5t46 -38.5t44 -44t34.5 -48t29.5 -56.5t16.5 -62.5t7 -72q0 -221 -144.5 -355.5t-393.5 -159.5l-25 -155h-119zM432 1262q0 -144 166 -240l29 -16l78 497q-131 -6 -202 -70.5t-71 -170.5zM829 338q0 156 -149 262
l-80 -504q111 24 170 90t59 152z" />
    <glyph glyph-name="percent" unicode="%" horiz-adv-x="1839" 
d="M1665 1618l-1331 -1618h-127l1327 1618h131zM471 893q84 0 147 46t93 115t30 148q0 102 -54.5 166t-160.5 64q-119 0 -195.5 -88t-76.5 -220q0 -46 11 -85t35 -73t67.5 -53.5t103.5 -19.5zM467 788q-158 0 -243 91t-85 229q0 186 111.5 306t284.5 120q160 0 242.5 -88
t82.5 -223q0 -113 -49.5 -212t-141 -161t-202.5 -62zM1290 76q84 0 147.5 46t93.5 115.5t30 147.5q0 102 -54.5 165.5t-160.5 63.5q-119 0 -196 -87.5t-77 -219.5q0 -46 11 -85t35 -73t67.5 -53.5t103.5 -19.5zM1286 -29q-158 0 -243 91t-85 229q0 186 111.5 306t284.5 120
q160 0 242.5 -88t82.5 -223q0 -113 -49.5 -212t-141 -161t-202.5 -62z" />
    <glyph glyph-name="ampersand" unicode="&#x26;" horiz-adv-x="1761" 
d="M1286 1411q0 -115 -107 -220t-290 -171l287 -391q112 229 206 319t207 90q78 0 125 -42t47 -111q0 -81 -75 -122t-160 -9q-142 51 -307 -183l106 -145q89 -120 112 -239.5t-15.5 -216.5t-130 -172t-224.5 -113l-14 32q70 52 97 122.5t12.5 145.5t-46.5 143.5t-82 135.5
l-4 4q-108 -147 -253 -222t-292 -75q-104 0 -187.5 23.5t-138 62.5t-91.5 91.5t-52.5 108.5t-15.5 116q0 200 143.5 328t427.5 190l-8 14q-135 182 -135 340q0 180 137.5 286.5t370.5 106.5q152 0 251 -58t99 -169zM627 121q109 0 195.5 54t164.5 153l-383 520
q-260 -172 -260 -422q0 -127 77 -216t206 -89zM760 1327q0 -130 98 -268q87 76 146 171t59 191q0 71 -34 112.5t-87 41.5q-85 0 -133.5 -71t-48.5 -177z" />
    <glyph glyph-name="quotesingle" unicode="'" horiz-adv-x="395" 
d="M68 1147l43 450h231l-145 -450h-129z" />
    <glyph glyph-name="parenleft" unicode="(" horiz-adv-x="696" 
d="M731 1604h129q-297 -265 -457.5 -605t-160.5 -702q0 -254 75.5 -498.5t219.5 -398.5h-131q-135 148 -209 387t-74 494q0 377 163 730t445 593z" />
    <glyph glyph-name="parenright" unicode=")" horiz-adv-x="704" 
d="M190 1604h127q128 -149 197.5 -377.5t69.5 -472.5q0 -385 -171 -751t-464 -603h-142q308 258 482 609t174 724q0 244 -69.5 480t-203.5 391z" />
    <glyph glyph-name="asterisk" unicode="*" horiz-adv-x="753" 
d="M492 1606l-33 -213l205 108l51 -119l-199 -102l170 -104l-86 -121l-168 104l-35 -217h-137l33 211l-205 -106l-51 118l199 103l-170 104l86 121l167 -104l35 217h138z" />
    <glyph glyph-name="plus" unicode="+" horiz-adv-x="1134" 
d="M74 465l18 113h422l66 405h118l-65 -405h430l-19 -113h-428l-67 -430h-119l68 430h-424z" />
    <glyph glyph-name="comma" unicode="," horiz-adv-x="579" 
d="M94 -270l-18 63q49 20 107.5 74t58.5 106q0 24 -18.5 54.5t-41 56t-41 61.5t-18.5 70q0 75 50 120.5t130 45.5q87 0 138 -66.5t51 -160.5q0 -90 -64 -180.5t-153.5 -152.5t-180.5 -91z" />
    <glyph glyph-name="hyphen" unicode="-" horiz-adv-x="831" 
d="M104 465l19 113h602l-18 -113h-603z" />
    <glyph glyph-name="period" unicode="." horiz-adv-x="591" 
d="M102 168q0 79 55.5 134.5t135.5 55.5q84 0 140 -55t56 -135q0 -85 -55.5 -141t-140.5 -56q-80 0 -135.5 56.5t-55.5 140.5z" />
    <glyph glyph-name="slash" unicode="/" horiz-adv-x="866" 
d="M1006 1669l-963 -1737h-125l963 1737h125z" />
    <glyph glyph-name="zero" unicode="0" horiz-adv-x="1478" 
d="M403 477q1 -112 19.5 -192.5t52 -125.5t73.5 -65t89 -20q68 0 132.5 59.5t113 156t85.5 213t56.5 235t19.5 218.5q0 217 -66 314.5t-175 97.5q-74 0 -140 -60t-112.5 -156t-80.5 -214.5t-50.5 -237.5t-16.5 -223zM82 606q0 177 54.5 336.5t149 277t230 186.5t289.5 69
q262 0 412.5 -165t150.5 -456q0 -184 -53.5 -347t-148 -281.5t-231 -187.5t-294.5 -69q-251 0 -405 167t-154 470z" />
    <glyph glyph-name="one" unicode="1" horiz-adv-x="860" 
d="M246 446l92 584l29 189q-120 -9 -261 6l11 67q231 52 485 181h103l-162 -1027l-27 -186q-16 -81 -0.5 -125.5t74.5 -54.5l141 -19l-10 -61h-776l10 61l127 19q66 10 91.5 51t39.5 125q15 77 33 190z" />
    <glyph glyph-name="two" unicode="2" horiz-adv-x="1245" 
d="M301 1010l-82 14q28 190 181 319.5t368 129.5q186 0 301 -89.5t115 -255.5q0 -62 -16 -120.5t-50.5 -114t-75 -104.5t-103.5 -102t-121 -97t-143 -98.5t-154 -96.5t-168 -101q-64 -38 -97 -58h354q93 0 152 5.5t109.5 19.5t84 44t62 72.5t57.5 111.5h49l-77 -489h-1164
l-2 37q55 43 154 118.5t165.5 126.5t159 127t154.5 135.5t130 137t108.5 145.5t67 146.5t26.5 154.5q0 87 -49 138t-150 51q-121 0 -219 -87t-127 -220z" />
    <glyph glyph-name="three" unicode="3" horiz-adv-x="1247" 
d="M672 1317q-216 0 -328 -201l-68 29q55 117 144 192.5t184.5 105.5t204.5 30q157 0 256.5 -68.5t99.5 -179.5q0 -68 -35.5 -127.5t-100 -106.5t-146.5 -83.5t-183 -65.5q97 -5 172 -29t122 -59t77 -82t41.5 -94.5t11.5 -100.5q0 -137 -75 -252.5t-211 -184.5t-303 -69
q-82 0 -159 18.5t-136.5 50t-105 71t-69.5 83.5t-24 85q0 59 32.5 94t90.5 35q33 0 56.5 -12t38 -36t23 -45.5t19.5 -57.5t18 -54q55 -142 207 -142q84 0 150 53.5t98.5 133t32.5 164.5q0 113 -63.5 189.5t-186.5 76.5q-100 0 -203 -35l15 86q224 80 350.5 200t126.5 232
q0 70 -48.5 113t-125.5 43z" />
    <glyph glyph-name="four" unicode="4" horiz-adv-x="1413" 
d="M928 420l-33 -199q-13 -80 13.5 -111.5t95.5 -39.5l96 -13l-10 -57h-771l11 57l100 13q75 8 115 40t53 111l33 199h-660l-16 39l1022 1042h121l-135 -860h88q201 0 258 166h51l-62 -387h-370zM266 641h400l75 479z" />
    <glyph glyph-name="five" unicode="5" horiz-adv-x="1243" 
d="M1210 1544l-112 -350h-695l-120 -346q72 68 171.5 101.5t186.5 33.5q203 0 324.5 -113t121.5 -292q0 -171 -90 -311t-240.5 -218t-326.5 -78q-128 0 -237.5 39.5t-170.5 102.5t-61 131q0 58 34.5 92.5t82.5 34.5q52 0 82.5 -27t54.5 -90q17 -44 32 -72t41 -59t65 -46.5
t91 -15.5q87 0 159 66.5t110.5 171t38.5 219.5q0 123 -66 199t-192 76q-168 0 -316 -164l-78 22l265 783h534q107 0 160 22t92 88h59z" />
    <glyph glyph-name="six" unicode="6" horiz-adv-x="1380" 
d="M1249 1561l21 -68q-156 -62 -276.5 -127t-226.5 -148t-183 -187t-125 -230q142 194 372 194q54 0 107 -14t105 -46t91.5 -78t64 -116t24.5 -155q0 -175 -85 -316.5t-230.5 -220t-321.5 -78.5q-158 0 -274.5 68.5t-174 183.5t-57.5 260q0 172 68.5 326.5t181.5 271
t266.5 213t315.5 161t337 106.5zM705 883q-78 0 -144 -51t-107 -130.5t-64 -170.5t-23 -177q0 -137 59.5 -216t159.5 -79q85 0 151 50.5t102.5 130t55 164.5t18.5 167q0 87 -19.5 154.5t-67.5 112.5t-121 45z" />
    <glyph glyph-name="seven" unicode="7" horiz-adv-x="1089" 
d="M-143 -57l1104 1251h-422q-320 0 -402 -240h-61l114 484h1020l25 -29q-345 -463 -643 -861.5t-424 -565.5l-125 -166z" />
    <glyph glyph-name="eight" unicode="8" horiz-adv-x="1214" 
d="M668 893q101 61 146.5 136t45.5 175q0 69 -50 128t-138 59q-57 0 -99.5 -19t-66.5 -51t-35.5 -68.5t-11.5 -76.5q0 -50 15.5 -91.5t48 -76.5t64 -59t81.5 -56zM592 588l-127 82q-104 -60 -156.5 -155.5t-52.5 -209.5q0 -99 66.5 -171.5t183.5 -72.5q120 0 190 76t70 182
q0 157 -174 269zM727 856l70 -45q260 -169 260 -377q0 -92 -38 -175.5t-107 -147.5t-175 -102t-233 -38q-223 0 -368.5 94.5t-145.5 260.5q0 255 413 385q-225 148 -225 381q0 170 136 279.5t374 109.5q203 0 321.5 -75.5t118.5 -182.5q0 -112 -100.5 -205.5t-300.5 -161.5z
" />
    <glyph glyph-name="nine" unicode="9" horiz-adv-x="1314" 
d="M102 -117l-20 68q156 62 276.5 127t226.5 148t183 187t125 230q-142 -194 -373 -194q-54 0 -107 14t-105 46t-91 78t-63.5 116t-24.5 155q0 175 85 316.5t230.5 220t321.5 78.5q158 0 274.5 -68.5t174 -183.5t57.5 -260q0 -172 -68.5 -326.5t-181.5 -271t-267 -213.5
t-316 -161t-337 -106zM647 561q78 0 144 51t107 130.5t64 170.5t23 177q0 137 -59.5 215.5t-159.5 78.5q-85 0 -151 -50.5t-103 -129.5t-55.5 -164.5t-18.5 -167.5q0 -87 19.5 -154t68 -112t121.5 -45z" />
    <glyph glyph-name="colon" unicode=":" horiz-adv-x="686" 
d="M211 850q0 80 55.5 135t134.5 55q84 0 140.5 -55t56.5 -135q0 -85 -56 -141t-141 -56q-80 0 -135 56.5t-55 140.5zM102 168q0 79 55.5 134.5t135.5 55.5q84 0 140 -55t56 -135q0 -85 -55.5 -141t-140.5 -56q-80 0 -135.5 56.5t-55.5 140.5z" />
    <glyph glyph-name="semicolon" unicode=";" horiz-adv-x="679" 
d="M211 850q0 80 55.5 135t134.5 55q84 0 140.5 -55t56.5 -135q0 -85 -56 -141t-141 -56q-80 0 -135 56.5t-55 140.5zM94 -270l-18 63q49 20 107.5 74t58.5 106q0 24 -18.5 54.5t-41 56t-41 61.5t-18.5 70q0 75 50 120.5t130 45.5q87 0 138 -66.5t51 -160.5
q0 -90 -64 -180.5t-153.5 -152.5t-180.5 -91z" />
    <glyph glyph-name="less" unicode="&#x3c;" horiz-adv-x="1136" 
d="M96 465l17 113l1106 452l-21 -133l-960 -381l835 -418l-20 -125z" />
    <glyph glyph-name="equal" unicode="=" horiz-adv-x="1134" 
d="M27 270l32 113h930l-33 -113h-929zM145 645l33 113h930l-33 -113h-930z" />
    <glyph glyph-name="greater" unicode="&#x3e;" horiz-adv-x="1136" 
d="M1044 578l-16 -113l-1110 -492l21 138l964 411l-842 385l21 123z" />
    <glyph glyph-name="question" unicode="?" horiz-adv-x="813" 
d="M252 424l-47 -27q-34 39 -61 109.5t-27 152.5t28 153.5t72.5 124.5t98.5 102t108 96t98.5 95.5t72.5 111.5t28 133q0 41 -17.5 68.5t-52.5 27.5q-38 0 -67 -17t-45 -42.5t-34.5 -55.5t-35 -55.5t-47 -42.5t-70.5 -17q-47 0 -71.5 30.5t-24.5 70.5q0 76 98.5 136t286.5 60
q71 0 130 -11.5t111 -37.5t81.5 -75.5t29.5 -118.5q0 -66 -24.5 -129.5t-65 -116.5t-93 -104.5t-109.5 -98.5t-112.5 -94.5t-103.5 -96.5t-82.5 -100t-49.5 -110t-3 -121zM102 168q0 79 55.5 134.5t135.5 55.5q84 0 140 -55t56 -135q0 -85 -55.5 -141t-140.5 -56
q-80 0 -135.5 56.5t-55.5 140.5z" />
    <glyph glyph-name="at" unicode="@" horiz-adv-x="1951" 
d="M1290 256q-69 0 -121 15t-83 39.5t-49 60.5t-23 73.5t-2 83.5q-70 -106 -150 -145t-178 -39q-61 0 -108.5 24.5t-75 65t-41 87.5t-13.5 97q0 130 46 248t121 200.5t173.5 131.5t200.5 49q83 0 160 -39l14 54h246l-100 -541q-8 -43 -20 -96.5t-19 -84.5t-13 -67.5
t-3 -55.5t12.5 -37t31.5 -25t56 -7q104 0 199 90.5t151.5 237.5t56.5 305q0 273 -166.5 417t-476.5 144q-137 0 -273 -47.5t-250.5 -135t-203 -201t-138.5 -254.5t-50 -288q0 -281 175.5 -437t483.5 -156q112 0 236 26l2 -92q-136 -31 -277 -31q-337 0 -537 181t-200 487
q0 140 39 275t108 249t168 210.5t215.5 164t253.5 105.5t279 38q149 0 277.5 -38.5t229.5 -114t159.5 -199.5t58.5 -283q0 -203 -74 -373t-208.5 -271t-299.5 -101zM809 461q44 0 108.5 46.5t114.5 143.5l72 379q-4 73 -36 105t-75 32q-69 0 -133 -85.5t-100.5 -207.5
t-36.5 -233q0 -100 15.5 -140t70.5 -40z" />
    <glyph glyph-name="A" unicode="A" horiz-adv-x="1609" 
d="M1004 211l-58 268h-512l-108 -215q-23 -44 -32.5 -77t-4 -53.5t15.5 -33.5t33.5 -20.5t41.5 -10.5t48 -6t45 -6l-10 -57h-584l10 59q125 9 193.5 59.5t140.5 188.5l674 1305h100l349 -1409q8 -32 22.5 -56t28.5 -37t36.5 -23t37 -13.5t40.5 -8.5t37 -8l-10 -57h-741
l10 57q78 6 123.5 19t62 32t18.5 45t-7 58zM797 1194l-287 -565h405z" />
    <glyph glyph-name="B" unicode="B" horiz-adv-x="1462" 
d="M612 780l-84 -547q-6 -27 -3.5 -48t5 -36t13.5 -25.5t21.5 -17t29 -10t36.5 -5t44 -1.5q73 0 139.5 28t118 79t82 130.5t30.5 176.5q0 129 -82 202.5t-239 73.5h-111zM725 1491l-100 -635h47q188 0 295.5 101.5t107.5 285.5q0 121 -73.5 187.5t-204.5 66.5q-35 0 -72 -6z
M188 1528l9 55q204 0 412.5 3t295.5 3q231 0 363.5 -76.5t132.5 -230.5q0 -152 -124 -275.5t-282 -154.5q180 -19 281.5 -111.5t101.5 -232.5q0 -234 -180 -371t-489 -137h-760l8 57l98 13q73 8 111 39.5t51 111.5q7 40 28 157.5t29 172.5l76 481q1 6 15.5 109.5t33.5 222.5
q13 80 -15.5 112t-98.5 40z" />
    <glyph glyph-name="C" unicode="C" horiz-adv-x="1611" 
d="M1485 461l-88 -346q-101 -76 -244.5 -110t-296.5 -34q-141 0 -266 39.5t-218.5 110t-161.5 165t-103 206.5t-35 233q0 253 119.5 454.5t331.5 314t476 112.5q309 0 594 -127l-28 -363h-54q-15 78 -51 142.5t-83.5 108.5t-107 74t-122.5 44t-129 14q-121 0 -223.5 -45
t-174.5 -122t-122.5 -181t-74.5 -222t-24 -245q0 -154 37 -271t103 -188t150.5 -106t184.5 -35q359 0 551 377h60z" />
    <glyph glyph-name="D" unicode="D" horiz-adv-x="1806" 
d="M-51 0l8 57l98 13q73 8 111 39.5t51 111.5q54 316 55 324l80 495q4 26 15.5 116t29.5 206q13 80 -14.5 111.5t-97.5 39.5l-97 13l9 55q134 0 374.5 3t343.5 3q169 0 306.5 -34.5t232 -95.5t158.5 -147.5t93.5 -187.5t29.5 -217q0 -137 -43.5 -268t-131.5 -246.5
t-210 -202.5t-290.5 -137.5t-361.5 -50.5h-749zM580 545l-43 -285q-4 -27 -5 -48t4 -37.5t11.5 -27.5t21.5 -19t30 -12.5t40.5 -7.5t49.5 -3.5t61 -0.5q118 0 222.5 42.5t183 118t136 177t86.5 222.5t29 251q0 128 -27.5 227.5t-89 177.5t-169.5 119.5t-259 41.5
q-74 0 -135 -4z" />
    <glyph glyph-name="E" unicode="E" horiz-adv-x="1474" 
d="M199 1583h1257l-57 -397h-62q7 151 -74.5 221t-238.5 70h-297l-94 -596h194q203 0 267 245h55l-94 -600h-60q7 128 -38 188t-146 60h-195l-43 -272l-34 -234q-14 -91 17 -128.5t134 -37.5h225q80 0 145.5 26.5t109.5 72.5t73 99.5t45 115.5h58l-64 -416h-1333l10 57
l98 13q72 8 109.5 39.5t50.5 111.5q11 72 30 176t25 148l80 499l47 320q10 81 -17 112.5t-97 39.5l-97 12z" />
    <glyph glyph-name="F" unicode="F" horiz-adv-x="1325" 
d="M772 0h-823l10 57l98 13q72 8 109.5 39.5t50.5 111.5q11 72 30 176t25 148l80 499q2 12 15.5 107t31.5 213q13 80 -15 112t-99 40l-97 12l11 55h1259l-59 -397h-62q9 148 -71 217.5t-242 69.5h-295l-63 -392l-31 -196h174q104 0 167 62t95 183h59l-96 -600h-59
q9 127 -37 187.5t-147 60.5h-175l-43 -276l-43 -281q-11 -81 22 -109.5t134 -41.5l96 -13z" />
    <glyph glyph-name="G" unicode="G" horiz-adv-x="1699" 
d="M991 678h668l-10 -57q-82 -12 -106.5 -39t-39.5 -125l-49 -305q-109 -88 -280.5 -134.5t-348.5 -46.5q-143 0 -266.5 41.5t-211.5 113.5t-151 168t-93.5 205.5t-30.5 225.5q0 190 71.5 354.5t195 280t295 181t365.5 65.5q325 0 594 -127l-28 -363h-54q-14 82 -51.5 149
t-87 109.5t-109.5 71.5t-116.5 41t-110.5 12q-137 0 -253.5 -54.5t-202 -156.5t-133.5 -257t-48 -347q0 -284 128.5 -442t332.5 -158q270 0 299 168l33 205q13 80 -15 111.5t-100 39.5l-96 13z" />
    <glyph glyph-name="H" unicode="H" horiz-adv-x="1916" 
d="M1673 1044l-80 -499q-21 -129 -32.5 -210t-12.5 -97l-2 -17q-10 -81 17 -112t98 -39l96 -13l-10 -57h-784l10 57l100 13q72 8 110.5 39.5t49.5 111.5q16 100 32 189t23 135l37 237h-709l-36 -237l-48 -324q-10 -81 17 -112t98 -39l96 -13l-10 -57h-782l10 57l98 13
q72 8 110.5 39.5t49.5 111.5q16 100 32 189t23 135l80 499l47 318q11 80 -16.5 111.5t-97.5 39.5l-97 13l11 57h784l-10 -57l-101 -13q-73 -8 -109.5 -39.5t-49.5 -111.5q-23 -111 -56 -318l-24 -153h708l25 153l47 318q11 80 -17 111.5t-98 39.5l-96 13l10 57h785l-10 -57
l-101 -13q-73 -8 -109.5 -39.5t-49.5 -111.5q-23 -111 -56 -318z" />
    <glyph glyph-name="I" unicode="I" horiz-adv-x="905" 
d="M659 1044l-79 -499q-21 -129 -33 -210t-13 -97l-2 -17q-10 -81 17 -112t98 -39l96 -13l-10 -57h-782l10 57l98 13q72 8 109.5 39.5t50.5 111.5q16 84 55 324l80 499q16 95 27.5 174.5t15.5 111.5l4 32q11 80 -16.5 111.5t-97.5 39.5l-97 13l11 57h784l-10 -57l-101 -13
q-73 -8 -109.5 -39.5t-49.5 -111.5q-23 -111 -56 -318z" />
    <glyph glyph-name="J" unicode="J" horiz-adv-x="993" 
d="M479 711l51 301l56 350q11 78 -24 110t-109 41l-97 13l11 57h802l-10 -57l-100 -13q-73 -8 -110 -39.5t-50 -111.5q-10 -34 -63 -350l-52 -301q-17 -101 -35.5 -181t-44.5 -159t-56.5 -137.5t-72 -110t-91.5 -83.5t-115 -50.5t-142 -18.5q-53 0 -107 11t-105 33.5t-83 64
t-32 94.5q0 58 38.5 92.5t96.5 34.5q46 0 79 -26.5t50.5 -64t32.5 -75t35 -64t47 -26.5q26 0 47 24.5t37.5 69t33 118t32 159t35.5 205.5q10 59 15 90z" />
    <glyph glyph-name="K" unicode="K" horiz-adv-x="1667" 
d="M621 768l466 477q74 76 110.5 129.5t42 82t-17 45t-49.5 20t-73 4.5l12 57h617l-11 -61q-96 0 -203 -57t-204 -154l-410 -410l402 -639q134 -194 307 -205l-11 -57h-741l10 57q48 0 78 5.5t49 20.5t14.5 43t-32.5 71zM662 1044l-80 -499q-21 -129 -32.5 -210t-13.5 -97
l-1 -17q-10 -81 17 -112t97 -39l96 -13l-10 -57h-782l10 57l98 13q72 8 109.5 39.5t50.5 111.5q35 201 55 324l80 499l47 318q11 80 -16.5 111.5t-97.5 39.5l-96 13l10 57h784l-10 -57l-100 -13q-73 -8 -110 -39.5t-50 -111.5q-22 -111 -55 -318z" />
    <glyph glyph-name="L" unicode="L" horiz-adv-x="1386" 
d="M276 545l80 499l47 320q10 80 -17 110.5t-97 38.5l-96 13l10 57h805l-11 -57l-100 -13q-90 -11 -129.5 -41t-50.5 -110q-22 -119 -47 -281l-92 -579l-35 -230q-14 -91 17.5 -129.5t133.5 -38.5h221q80 0 145 26t109 72t72.5 99t44.5 115h60l-64 -416h-1329l10 57l98 13
q72 8 110.5 39.5t49.5 111.5q54 316 55 324z" />
    <glyph glyph-name="M" unicode="M" horiz-adv-x="2115" 
d="M1489 221l117 1026l-656 -1247h-129l-276 1247l-176 -878q-28 -121 -25 -190.5t48 -95.5t159 -26l-10 -57h-627l10 57q78 0 130 15t88.5 53t58.5 93t41 144l215 1022q8 38 -1.5 65.5t-27.5 42t-47.5 22.5t-52 10t-49.5 2l10 57h508l254 -1173l608 1173h498l-11 -57
q-78 0 -126.5 -18t-68.5 -46t-24 -71l-92 -852l-33 -318q-7 -81 19 -112t96 -39l96 -13l-10 -57h-764l10 57l80 13q73 8 112.5 40t47.5 111z" />
    <glyph glyph-name="N" unicode="N" horiz-adv-x="1765" 
d="M1364 467l113 713q12 77 17 126t-1 88.5t-18.5 60t-43 36t-65.5 22.5t-96 13l10 57h639l-10 -57q-59 -7 -92.5 -13t-69.5 -20.5t-55 -36t-38.5 -59.5t-32 -89.5t-24.5 -127.5l-192 -1209h-98l-791 1237l-133 -835q-11 -69 -14.5 -113t3 -80t19.5 -55t43 -33.5t66 -21.5
t96 -13l-10 -57h-637l10 57q58 6 91.5 12.5t68.5 20t54 33.5t38 54.5t30.5 80.5t22.5 115l156 979q-27 40 -40 57.5t-37.5 45.5t-43.5 40t-48 21.5t-63 9.5l11 57h458z" />
    <glyph glyph-name="O" unicode="O" horiz-adv-x="1792" 
d="M1389 901q0 288 -117.5 441t-325.5 153q-160 0 -286.5 -116t-193.5 -306.5t-67 -415.5q0 -277 119 -425t320 -148q160 0 285 100.5t195.5 287t70.5 429.5zM72 741q0 181 70.5 342t189 274t278.5 179t334 66q164 0 307.5 -57.5t246.5 -158.5t162.5 -244t59.5 -308
q0 -182 -70.5 -343t-189 -274t-278.5 -178.5t-334 -65.5q-165 0 -309 57.5t-246.5 158t-161.5 243.5t-59 309z" />
    <glyph glyph-name="P" unicode="P" horiz-adv-x="1402" 
d="M723 1479l-109 -693q60 -14 113 -14q193 0 313.5 107t120.5 319q0 289 -321 289q-49 0 -117 -8zM188 1526l9 57q119 0 324.5 3t295.5 3q88 0 160.5 -6t150 -20.5t135.5 -43t105.5 -70.5t72.5 -105.5t25 -145.5q0 -118 -52 -218.5t-138 -167t-197 -103.5t-229 -37
q-135 0 -248 45l-20 -139l-52 -357q-11 -81 21.5 -109.5t132.5 -41.5l96 -13l-8 -57h-823l8 57l98 13q73 8 111 39.5t51 111.5q22 121 59 359l121 782q13 80 -14.5 111.5t-97.5 39.5z" />
    <glyph glyph-name="Q" unicode="Q" horiz-adv-x="1816" 
d="M72 741q0 181 72.5 342.5t193.5 274t282.5 178.5t335.5 66q164 0 309.5 -58t251 -158.5t167 -244t61.5 -307.5q0 -237 -116.5 -430.5t-311.5 -307.5l213 -379l-37 -34l-541 297q-54 -7 -92 -7q-165 0 -311 57.5t-251 158t-165.5 244t-60.5 308.5zM1413 901
q0 286 -122.5 440t-332.5 154q-161 0 -290 -116t-199 -307t-70 -415q0 -275 124 -424t327 -149q120 0 223.5 58.5t178.5 164t118 259t43 335.5z" />
    <glyph glyph-name="R" unicode="R" horiz-adv-x="1581" 
d="M725 1485l-109 -688q109 -3 193 19.5t135.5 63t84 99.5t44.5 121t12 135t-30.5 126.5t-82.5 81t-114.5 38t-132.5 4.5zM743 0h-794l10 57l98 13q72 8 110.5 39.5t49.5 111.5q16 88 53 326l127 813q13 80 -14.5 111.5t-97.5 39.5l-97 13l9 57q121 0 320.5 4t320.5 4
q83 0 158 -9t150.5 -32.5t130 -60t88.5 -96t34 -136.5q0 -163 -132.5 -296.5t-334.5 -176.5q132 -15 216 -97.5t101 -213.5l15 -121q18 -155 79 -224.5t191 -55.5l6 -56q-128 -43 -252 -43q-325 0 -360 420q-6 74 -13.5 120.5t-23 86.5t-35.5 61t-56.5 36.5t-81.5 21.5
t-114 8l-29 -180l-51 -324q-11 -80 16.5 -111.5t98.5 -39.5l115 -13z" />
    <glyph glyph-name="S" unicode="S" horiz-adv-x="1218" 
d="M483 84q163 0 254.5 73.5t91.5 180.5q0 95 -48.5 166t-157.5 133l-150 86q-88 51 -144.5 93t-98.5 93t-60 109.5t-18 134.5q0 204 164.5 331.5t428.5 127.5q225 0 418 -101l-28 -348h-70q-28 173 -118.5 257.5t-215.5 84.5q-143 0 -221 -66t-78 -177q0 -144 166 -240
l186 -109q39 -23 54 -31.5t51.5 -31.5t53 -36.5t46 -38.5t44 -44t34.5 -48t29.5 -56.5t16.5 -62.5t7 -72q0 -245 -177.5 -383t-475.5 -138q-123 0 -255 33t-212 90l63 373h56q19 -211 109 -297t255 -86z" />
    <glyph glyph-name="T" unicode="T" horiz-adv-x="1531" 
d="M92 1145l70 438h1468l-69 -438h-70q5 74 -7 131t-44.5 103t-95 70t-152.5 24h-162l-147 -928l-47 -324q-10 -81 17 -112t97 -39l97 -13l-11 -57h-784l10 57l100 13q72 8 109.5 39.5t50.5 111.5l16 76l40 248l147 928h-162q-175 0 -269.5 -87t-131.5 -241h-70z" />
    <glyph glyph-name="U" unicode="U" horiz-adv-x="1742" 
d="M221 614l117 748q11 80 -16.5 111.5t-98.5 39.5l-96 13l10 57h785l-11 -57l-100 -13q-72 -8 -110.5 -39.5t-49.5 -111.5q-86 -514 -125 -764q-25 -157 -6 -262.5t103.5 -159t242.5 -53.5q199 0 329.5 139.5t172.5 411.5l55 348q10 63 15.5 97t12.5 87.5t7.5 83.5t0 69.5
t-8 61.5t-19.5 44.5t-32 33.5t-47 14l-115 13l10 57h649l-10 -57l-117 -13q-53 -6 -91 -45t-64.5 -124t-38 -141t-30.5 -176q-1 -3 -1 -5l-59 -385q-51 -319 -238.5 -492.5t-486.5 -173.5q-154 0 -269 41t-186.5 121.5t-93.5 201t10 279.5z" />
    <glyph glyph-name="V" unicode="V" horiz-adv-x="1626" 
d="M866 360l398 836q30 63 47 113t22 84t-2.5 58t-19.5 38t-36 22t-45 10.5t-54 4.5l10 57h594l-11 -59q-68 -5 -112.5 -19.5t-92.5 -55.5t-93 -112t-103 -190l-586 -1196h-149l-322 1429q-7 32 -21 56.5t-28.5 37.5t-37 23t-37.5 13.5t-40.5 8t-37.5 7.5l10 57h741l-10 -57
q-78 -6 -123.5 -19t-62.5 -32t-19.5 -45t6.5 -58z" />
    <glyph glyph-name="W" unicode="W" horiz-adv-x="2260" 
d="M1575 397l323 799q35 87 47 148t6 96t-32 54.5t-55.5 25t-75.5 6.5l10 57h617l-11 -59q-56 -4 -93.5 -13t-79.5 -32t-76 -63.5t-72.5 -106.5t-79.5 -162l-520 -1196h-146l-180 1110l-489 -1110h-138l-219 1429q-6 39 -20.5 65.5t-40 40.5t-44 20t-52 11.5t-45.5 8.5
l10 57h741l-10 -57q-78 -6 -122.5 -18.5t-60.5 -31.5t-19 -45t3 -59l117 -975l362 842l-22 141q-7 39 -22 65.5t-40 40.5t-43.5 20t-52 11.5t-45.5 8.5l10 57h742l-10 -57q-78 -6 -122.5 -18.5t-61 -31.5t-19.5 -45t4 -59z" />
    <glyph glyph-name="X" unicode="X" horiz-adv-x="1665" 
d="M371 414l323 334l-325 632q-10 20 -20 36.5t-22.5 29t-21 22t-23 17.5t-21.5 12.5t-24.5 9.5t-22.5 7t-24.5 6.5t-23.5 5.5l10 57h754l-10 -57q-149 -11 -185.5 -48t-3.5 -102l197 -383l213 230q265 286 54 302q-14 1 -32 1l11 57h577l-10 -59q-114 -8 -196 -69
t-279 -263q-5 -5 -8 -7.5t-7 -7t-8 -8.5l-266 -272l358 -694q13 -25 27 -45t32 -34t31.5 -23.5t35.5 -17t32 -10.5t35 -8.5t31 -7.5l-11 -57h-774l10 57q149 11 185.5 48t3.5 102l-230 444l-270 -291q-237 -254 -106 -294q29 -9 84 -9l-11 -57h-575l10 59q61 4 109 22
t105.5 62.5t114.5 100.5t156 158q4 4 6 6.5t5 5.5z" />
    <glyph glyph-name="Y" unicode="Y" horiz-adv-x="1468" 
d="M844 834l268 362q47 64 73.5 115t34.5 84.5t1 58.5t-21 38t-39 21t-45 10t-47 3l10 57h543l-10 -59q-50 -1 -86.5 -15t-76.5 -52t-80.5 -89t-107.5 -141q-38 -51 -59 -80l-340 -453l-71 -473q-11 -80 16 -111.5t98 -39.5l96 -13l-10 -57h-784l10 57l100 13
q72 8 109.5 39.5t50.5 111.5l80 469l-250 690q-11 31 -27 54.5t-29.5 36.5t-36.5 23.5t-35 14t-39.5 9.5t-35.5 8l11 57h741l-10 -57q-78 -6 -125 -19.5t-64.5 -33t-19.5 -45t10 -56.5z" />
    <glyph glyph-name="Z" unicode="Z" horiz-adv-x="1376" 
d="M-125 23l1122 1450h-254q-107 0 -186 -16.5t-129.5 -43.5t-86.5 -74.5t-55.5 -94.5t-39.5 -120h-72l90 459h1135l8 -29l-1124 -1450h405q91 0 165 22.5t122.5 58t86 87t58 100.5t35.5 107h70l-76 -479h-1264z" />
    <glyph glyph-name="bracketleft" unicode="[" horiz-adv-x="612" 
d="M358 1618h418l-16 -109h-297l-318 -2001h297l-16 -108h-418z" />
    <glyph glyph-name="backslash" unicode="\" horiz-adv-x="806" 
d="M549 -68l-412 1737h119l412 -1737h-119z" />
    <glyph glyph-name="bracketright" unicode="]" horiz-adv-x="612" 
d="M174 1618h418l-350 -2218h-416l16 108h295l318 2001h-297z" />
    <glyph glyph-name="asciicircum" unicode="^" horiz-adv-x="1097" 
d="M528 1606h138l262 -850h-125l-221 729l-418 -729h-129z" />
    <glyph glyph-name="underscore" unicode="_" horiz-adv-x="1599" 
d="M113 -115l18 115h1354l-19 -115h-1353z" />
    <glyph glyph-name="grave" unicode="`" horiz-adv-x="452" 
d="M324 1583l98 -428h-60l-376 428h338z" />
    <glyph glyph-name="a" unicode="a" horiz-adv-x="1228" 
d="M670 1014q74 0 147 -37l12 53h289l-151 -801q-13 -71 -6 -97t34 -26q46 0 156 127l45 -36q-37 -54 -66 -88t-69.5 -69t-88.5 -52t-106 -17q-97 0 -150.5 59.5t-51.5 159.5q-126 -219 -349 -219q-63 0 -112 20t-79 52.5t-50 76t-27.5 86.5t-7.5 89q0 118 37 230t100.5 199
t144 153.5t171 101.5t178.5 35zM471 123q93 0 207 168l98 526q-21 113 -108 113q-57 0 -115.5 -60.5t-102 -150.5t-71 -199t-27.5 -203q0 -91 29.5 -142.5t89.5 -51.5z" />
    <glyph glyph-name="b" unicode="b" horiz-adv-x="1126" 
d="M586 1638l-135 -827q65 113 156.5 169t183.5 56q63 0 114.5 -20.5t84.5 -53.5t55.5 -76.5t32 -87.5t9.5 -89q0 -141 -60 -279t-152 -236.5t-204 -159.5t-214 -61q-93 0 -166.5 22t-128.5 69.5t-76.5 130t-3.5 194.5l172 1043q9 58 -3.5 82t-64.5 30l-104 12l10 58z
M664 889q-126 0 -232 -195l-55 -342q-24 -143 7 -219t105 -76q57 0 105.5 45t80.5 113t54.5 149.5t32.5 153t10 125.5q0 246 -108 246z" />
    <glyph glyph-name="c" unicode="c" horiz-adv-x="892" 
d="M791 358l49 -28q-170 -359 -504 -359q-132 0 -214.5 87.5t-82.5 260.5q0 93 27.5 192.5t81.5 193t126.5 167.5t171.5 119t207 45q114 0 182 -50t68 -120q0 -47 -28.5 -81.5t-88.5 -34.5q-44 0 -71 21.5t-37 52t-17.5 61t-22.5 52t-42 21.5q-63 0 -119 -93.5t-87.5 -229.5
t-31.5 -268q0 -244 127 -244q69 0 148.5 54.5t157.5 180.5z" />
    <glyph glyph-name="d" unicode="d" horiz-adv-x="1236" 
d="M672 1036q63 0 129 -28l69 424q10 59 -2.5 82.5t-64.5 29.5l-105 12l11 58l493 24l-225 -1409q-10 -71 -3.5 -97t32.5 -26q45 0 155 127l45 -36q-37 -54 -65.5 -88t-69 -69t-88.5 -52t-106 -17q-96 0 -148.5 60.5t-52.5 161.5q-74 -123 -161 -172.5t-198 -49.5
q-67 0 -118 22t-80 56t-47.5 81t-24.5 90t-6 91q0 147 57 283.5t147.5 232t203.5 152.5t223 57zM471 123q111 0 215 168l86 530q-10 62 -38.5 96.5t-63.5 34.5q-77 0 -151 -91t-119.5 -235t-45.5 -292q0 -94 29 -152.5t88 -58.5z" />
    <glyph glyph-name="e" unicode="e" horiz-adv-x="933" 
d="M39 319q0 138 51 270t134 229.5t196.5 157.5t232.5 60q77 0 132.5 -15t83 -40t39.5 -49.5t12 -50.5q0 -63 -34.5 -118.5t-86.5 -95.5t-129 -78.5t-145 -64.5t-153 -56q-7 -2 -10 -3q-4 -41 -4 -98q0 -132 32 -188t93 -56q155 0 305 248l50 -25q-178 -375 -502 -375
q-132 0 -214.5 87.5t-82.5 260.5zM594 958q-48 0 -88 -41.5t-66.5 -111t-43.5 -140.5t-27 -149q120 59 203 146.5t83 183.5q0 65 -16 88.5t-45 23.5z" />
    <glyph glyph-name="f" unicode="f" horiz-adv-x="833" 
d="M831 1561q-27 0 -53.5 -18.5t-56.5 -62.5t-58.5 -133.5t-48.5 -216.5l-22 -145h366l-16 -100h-367l-151 -953q-20 -123 -66.5 -221t-105.5 -159.5t-130.5 -102.5t-137.5 -57.5t-131 -16.5q-82 0 -162.5 20.5t-140.5 66.5t-60 108q0 52 33 92.5t98 40.5q41 0 72.5 -18.5
t48.5 -46t33.5 -59.5t29.5 -59.5t34.5 -46t49.5 -18.5q20 0 41.5 10t48 39.5t50 75t47 124.5t39.5 181l157 1000h-229l18 100h228l16 98q20 123 65.5 221t103 159.5t127.5 102.5t136 57.5t131 16.5q83 0 162 -19t138 -64t59 -107q0 -53 -28 -90t-93 -37q-49 0 -84 24.5
t-55 59.5t-37.5 70t-42 59.5t-56.5 24.5z" />
    <glyph glyph-name="g" unicode="g" horiz-adv-x="1200" 
d="M1206 907h-260q78 -97 55 -258q-27 -171 -174.5 -275t-351.5 -104q-47 0 -104 13q-99 -52 -109 -111q-6 -39 21 -57.5t84 -16.5l235 4q232 3 338 -68.5t80 -228.5q-15 -96 -78.5 -175.5t-156 -130t-202 -78t-221.5 -27.5q-217 0 -348 80.5t-110 212.5q10 63 74 117.5
t178 68.5q-59 15 -96.5 52.5t-48.5 74.5t-5 70q5 32 22 66t50 70.5t92.5 64.5t136.5 38q-105 35 -164.5 141.5t-40.5 219.5q30 177 177.5 276.5t334.5 93.5q111 -3 195 -36h412zM561 -139h-207q-86 0 -125 4q-102 -53 -118 -158q-10 -64 7 -109.5t58 -70.5t92.5 -36
t116.5 -11q82 0 161 27t141 86t75 139q6 38 -6.5 64.5t-42.5 40t-66 19t-86 5.5zM604 969q-77 0 -130 -80.5t-77 -218.5q-13 -89 -11.5 -161t30 -118.5t80.5 -46.5q44 0 81 28.5t61.5 75.5t40 95.5t23.5 99.5q27 133 3.5 229.5t-101.5 96.5z" />
    <glyph glyph-name="h" unicode="h" horiz-adv-x="1220" 
d="M627 1638l-146 -929q128 329 359 329q57 0 98 -18.5t62.5 -54t33 -76.5t10.5 -97t-6 -104.5t-16 -109.5l-59 -349q-9 -46 -8 -73.5t9.5 -38.5t26.5 -11q46 0 156 127l45 -36q-37 -54 -66 -88t-69.5 -69t-88.5 -52t-106 -17q-118 0 -168.5 77.5t-25.5 213.5l57 320
q47 266 -41 266q-45 0 -105 -72t-116 -196l-92 -580h-299l223 1432q9 58 -3.5 82t-64.5 30l-104 12l10 58z" />
    <glyph glyph-name="i" unicode="i" horiz-adv-x="700" 
d="M266 1376q0 78 55.5 133.5t133.5 55.5t133 -55.5t55 -133.5t-55 -133t-133 -55t-133.5 55t-55.5 133zM150 262l98 504q24 119 -51 119q-42 0 -134 -62l-32 41q48 53 101 90.5t99 54t79 23t61 6.5q113 0 155.5 -69.5t8.5 -245.5l-93 -494q-12 -71 -5 -97t34 -26
q48 0 158 127l45 -36q-37 -54 -66 -88t-69.5 -69t-88.5 -52t-106 -17q-117 0 -168.5 77.5t-25.5 213.5z" />
    <glyph glyph-name="j" unicode="j" horiz-adv-x="630" 
d="M528 723l-94 -530q-24 -132 -53 -227.5t-74 -183.5t-109.5 -157t-155.5 -132t-216 -124l-23 37q128 119 201.5 292t136.5 521l103 547q21 119 -51 119q-44 0 -136 -62l-32 41q48 53 101 90.5t99 54t79 23t61 6.5q52 0 87.5 -14.5t60 -50.5t27 -97t-11.5 -153zM272 1376
q0 78 55.5 133.5t133.5 55.5t133 -55.5t55 -133.5t-55 -133t-133 -55t-133.5 55t-55.5 133z" />
    <glyph glyph-name="k" unicode="k" horiz-adv-x="1165" 
d="M143 1614l494 24l-168 -1040h29q284 0 284 262q0 176 140 176q48 0 76 -29t28 -87q0 -46 -31.5 -103.5t-83.5 -110t-128 -91.5t-156 -46q63 -9 109.5 -29t74.5 -43.5t47.5 -60.5t28.5 -68.5t18 -78.5l6 -35q15 -91 76.5 -146t181.5 -45l7 -47q-147 -47 -230 -47
q-146 0 -222.5 57t-109.5 203l-10 47q-4 19 -12 58t-12.5 59.5t-15.5 50.5t-23 46.5t-32.5 31t-47.5 19.5l-86 -541h-299l229 1432q10 59 -2.5 82.5t-64.5 29.5l-105 12z" />
    <glyph glyph-name="l" unicode="l" horiz-adv-x="626" 
d="M74 262l194 1170q10 59 -2.5 82.5t-64.5 29.5l-105 12l10 58l494 24l-231 -1409q-9 -46 -8 -73.5t9.5 -38.5t26.5 -11q46 0 156 127l45 -36q-37 -54 -66 -88t-69.5 -69t-88.5 -52t-106 -17q-117 0 -167 76t-27 215z" />
    <glyph glyph-name="m" unicode="m" horiz-adv-x="1832" 
d="M680 0l90 582q47 268 -41 268q-45 0 -105 -72.5t-116 -197.5l-96 -580h-299l125 766q19 119 -52 119q-41 0 -133 -62l-33 41q48 53 102.5 90.5t103 54t83 23t62.5 6.5q52 0 86 -15t56.5 -52.5t22.5 -102t-14 -163.5q66 178 157 255.5t206 77.5q66 0 110.5 -26.5t63.5 -71
t26.5 -103t-0.5 -122.5q66 172 155.5 247.5t203.5 75.5q57 0 98 -18.5t62.5 -54t33 -76.5t10.5 -97t-6 -104.5t-16 -109.5l-61 -349q-9 -46 -8 -73.5t9.5 -38.5t26.5 -11q48 0 158 127l45 -36q-37 -54 -66 -88t-69.5 -69t-88.5 -52t-106 -17q-120 0 -169.5 77.5t-24.5 213.5
l57 320q47 268 -41 268q-45 0 -105 -72.5t-116 -197.5v-2l-86 -578h-301z" />
    <glyph glyph-name="n" unicode="n" horiz-adv-x="1261" 
d="M1067 578l-59 -349q-9 -46 -8 -73.5t9.5 -38.5t26.5 -11q46 0 156 127l45 -36q-37 -54 -66 -88t-69.5 -69t-88.5 -52t-106 -17q-120 0 -169.5 77.5t-24.5 213.5l57 320q47 268 -41 268q-45 0 -105 -72.5t-116 -197.5l-96 -580h-299l125 766q19 119 -52 119
q-41 0 -133 -62l-33 41q48 53 102.5 90.5t103 54t83 23t62.5 6.5q52 0 86 -15t56.5 -52.5t22.5 -102t-14 -163.5q66 178 157 255.5t206 77.5q57 0 98 -18.5t62.5 -54t33 -76.5t10.5 -97t-6 -104.5t-16 -109.5z" />
    <glyph glyph-name="o" unicode="o" horiz-adv-x="1114" 
d="M43 311q0 141 60 276.5t153 232.5t209.5 156.5t226.5 59.5q107 0 184.5 -30t118 -81t58.5 -107.5t18 -121.5q0 -141 -59.5 -276.5t-152.5 -232.5t-209 -156.5t-226 -59.5q-87 0 -155 20.5t-109.5 53t-68.5 78t-37.5 91.5t-10.5 97zM365 365q0 -74 4 -125t16 -96t35 -67
t59 -22q57 0 105 44.5t78 112t51.5 149.5t30 153.5t8.5 128.5q0 73 -4.5 124t-17 94.5t-36 65t-59.5 21.5q-57 0 -105 -44t-77.5 -110.5t-50 -148t-29 -152.5t-8.5 -128z" />
    <glyph glyph-name="p" unicode="p" horiz-adv-x="1243" 
d="M70 -418l188 1184q19 119 -51 119q-41 0 -133 -62l-33 41q48 53 102.5 90.5t102.5 54t82.5 23t62.5 6.5q94 0 134.5 -53.5t29.5 -191.5q38 70 84.5 120.5t94 76.5t89.5 37t84 11q63 0 114.5 -20.5t85 -54t56 -77t32 -88t9.5 -89.5q0 -95 -28.5 -190.5t-76 -175
t-111 -149.5t-132 -118.5t-140.5 -76.5t-136 -28q-84 0 -146 35l-65 -424q-9 -58 10 -79t100 -33l84 -13l-8 -57h-684l8 57l86 13q55 7 75.5 30.5t29.5 81.5zM606 61q69 0 126.5 65t89.5 160t49.5 188.5t17.5 164.5q0 250 -109 250q-18 0 -42 -9.5t-57 -31t-71.5 -68
t-72.5 -110.5l-72 -459q22 -72 62 -111t79 -39z" />
    <glyph glyph-name="q" unicode="q" horiz-adv-x="1181" 
d="M582 -418l100 619q-127 -230 -367 -230q-83 0 -140.5 29.5t-85.5 80.5t-39 102t-11 112q0 118 37 230t100.5 199t144 153.5t171 101.5t178.5 35q77 0 155 -41l17 57h276l-237 -1448q-9 -57 9.5 -77t100.5 -35l64 -13l-8 -57h-685l9 57l106 13q55 6 75 29.5t30 82.5z
M469 119q116 0 227 170l80 487q-4 85 -32.5 119.5t-75.5 34.5q-57 0 -115.5 -60.5t-102 -150.5t-71 -199t-27.5 -203q0 -92 29 -145t88 -53z" />
    <glyph glyph-name="r" unicode="r" horiz-adv-x="919" 
d="M518 657q27 77 56.5 139t56 101t56 68t51.5 43t47.5 21.5t38.5 9t30 1.5q37 0 62.5 -12.5t36 -32.5t14.5 -36.5t4 -34.5q0 -62 -34.5 -105.5t-105.5 -54.5q-14 -2 -47.5 -3.5t-59.5 -3.5t-62 -14.5t-63.5 -35t-54.5 -68.5t-44 -111l-84 -528h-299l121 766q19 119 -52 119
q-41 0 -133 -62l-33 41q48 53 102.5 90.5t103 54t83 23t62.5 6.5q223 0 147 -381z" />
    <glyph glyph-name="s" unicode="s" horiz-adv-x="911" 
d="M504 666l69 -58q113 -92 168.5 -166.5t55.5 -150.5q0 -82 -39 -146t-101 -100.5t-130 -55t-136 -18.5q-88 0 -167.5 19t-136 63.5t-56.5 106.5q0 55 35 89t98 34q42 0 73 -18t46.5 -44.5t31.5 -57.5t29 -57.5t37.5 -44.5t58.5 -18q40 0 71.5 29t31.5 88q0 70 -37.5 120.5
t-128.5 127.5l-94 79q-170 146 -170 291q0 84 55.5 144.5t140.5 88t187 27.5q47 0 102 -9t111.5 -26.5t93.5 -50.5t37 -75q0 -45 -29 -82t-82 -37q-49 0 -83 21.5t-52.5 52t-35.5 60.5t-42.5 51.5t-62.5 21.5q-41 0 -67 -21t-26 -65q0 -46 39.5 -103t104.5 -110z" />
    <glyph glyph-name="t" unicode="t" horiz-adv-x="827" 
d="M139 262l103 623l-154 16l12 82h179l292 262h23l-41 -262h295l-14 -98h-295l-107 -656q-11 -71 -4.5 -97t33.5 -26q30 0 88 33.5t110 93.5l46 -36q-70 -100 -164.5 -163t-206.5 -63q-119 0 -168 77t-27 214z" />
    <glyph glyph-name="u" unicode="u" horiz-adv-x="1259" 
d="M735 305q-66 -178 -156.5 -256t-205.5 -78q-57 0 -98 18.5t-63 54t-33.5 77t-11 97t6 105t16.5 109.5l62 334q21 119 -51 119q-41 0 -133 -62l-33 41q48 53 102.5 90.5t102.5 54t82.5 23t62.5 6.5q57 0 92 -15t57 -52.5t21 -102t-16 -163.5l-50 -277q-47 -268 39 -268
q45 0 105.5 73t116.5 197l92 553h299l-123 -754q-11 -71 -4.5 -97t33.5 -26q45 0 155 127l45 -36q-37 -54 -65.5 -88t-69 -69t-88.5 -52t-106 -17q-119 0 -166.5 91t-16.5 243z" />
    <glyph glyph-name="v" unicode="v" horiz-adv-x="1038" 
d="M291 -70l-12 13q11 58 12.5 209t-7 316t-39 291t-77.5 126q-14 0 -23 -2.5t-23.5 -12t-30.5 -33t-34 -61.5l-47 21q85 241 283 241q65 0 115.5 -27t83 -72t53 -113t29.5 -140t10 -165t-3.5 -175t-13.5 -182q232 193 275 371q8 35 9.5 65t-2.5 50.5t-15 42t-21.5 35.5
t-28.5 34q-47 56 -57 118t26.5 106t112.5 44q142 0 142 -209q0 -101 -31 -208t-93 -211t-147 -195t-200.5 -163.5t-245.5 -113.5z" />
    <glyph glyph-name="w" unicode="w" horiz-adv-x="1720" 
d="M1130 821l50 -473l235 373q27 43 41.5 76.5t18 54.5t-4 36t-16 22.5t-27 11t-28 4t-26.5 0.5h-7l8 57h438l-8 -57q-44 0 -74 -8t-66.5 -34t-75.5 -74.5t-95 -131.5l-475 -717h-80l-98 727l-486 -727h-80l-118 870q-3 28 -15 47t-24.5 28t-35.5 14t-35.5 5.5t-37.5 0.5
l8 57h590l-8 -57q-27 0 -42.5 -1t-35.5 -6.5t-30.5 -16.5t-16.5 -31t-4 -50l41 -481l313 471l-4 20q-3 28 -15 47t-24 28t-35 14t-35.5 5.5t-37.5 0.5l8 57h590l-8 -57q-76 0 -107.5 -20.5t-24.5 -84.5z" />
    <glyph glyph-name="x" unicode="x" horiz-adv-x="1128" 
d="M246 221l203 242l-95 282q-28 83 -42 111.5t-33 28.5q-50 0 -95 -137l-57 20q73 262 285 262q98 0 148.5 -54.5t105.5 -221.5l8 -25l108 131q144 174 246 174q44 0 65 -23.5t21 -76.5q0 -52 -20.5 -113t-51.5 -104l-53 22q16 38 23.5 68.5t8 49.5t-4 31.5t-11 17.5
t-14.5 5q-44 0 -153 -131l-129 -153l122 -369q25 -75 45 -103t50 -28q26 0 57.5 35t54.5 104l56 -16q-43 -155 -116.5 -217t-178.5 -62q-96 0 -158.5 54.5t-108.5 191.5l-49 141l-182 -217q-142 -170 -252 -170q-56 0 -70.5 57.5t5.5 130.5t57 126l53 -23
q-16 -38 -23.5 -68.5t-8 -49.5t4 -31.5t11 -17.5t14.5 -5q45 0 154 131z" />
    <glyph glyph-name="y" unicode="y" horiz-adv-x="1042" 
d="M283 1030q81 0 143 -46t100 -127t57.5 -192t19 -241t-18.5 -274q244 277 282 403q16 62 11 96t-24 66t-39.5 53.5t-37 57.5t-16.5 79q0 56 35 90.5t104 34.5q79 0 116.5 -55.5t37.5 -147.5q0 -81 -30.5 -173t-78 -177t-119 -181t-140.5 -175.5t-155 -169.5
q-278 -292 -509 -434t-390 -142q-116 0 -186 53t-70 136q0 42 33 74t92 32q36 0 66 -18t50.5 -43.5t38.5 -51t40 -43.5t47 -18q66 0 225.5 107t337.5 268q13 108 14 243.5t-10.5 269.5t-33.5 247t-58.5 183.5t-81.5 70.5q-16 0 -25 -2t-26 -10.5t-34.5 -32t-35.5 -60.5
l-47 25q79 225 316 225z" />
    <glyph glyph-name="z" unicode="z" horiz-adv-x="1001" 
d="M1073 965l-776 -689h440l125 156h49l-174 -432h-852l-8 18l764 684h-385l-127 -151h-49l174 432h811z" />
    <glyph glyph-name="braceleft" unicode="{" horiz-adv-x="638" 
d="M29 473l8 57q77 9 137.5 52.5t95.5 108t52.5 137.5t17.5 149q0 41 -12.5 119t-12.5 118q0 89 24 161t74.5 127.5t134.5 85.5t197 30h60l-19 -102h-43q-166 0 -235.5 -73t-69.5 -208q0 -43 10.5 -127.5t10.5 -128.5q0 -315 -236 -477q119 -100 119 -279q0 -154 -94 -358
q-66 -135 -66 -225q0 -164 240 -164h43l-14 -103h-60q-332 0 -332 248q0 120 88 299q74 148 74 291q0 106 -46.5 177.5t-145.5 84.5z" />
    <glyph glyph-name="bar" unicode="|" horiz-adv-x="569" 
d="M102 0l256 1618h113l-256 -1618h-113z" />
    <glyph glyph-name="braceright" unicode="}" horiz-adv-x="606" 
d="M610 530l-8 -57q-78 -10 -138.5 -55t-95 -111.5t-52 -141t-17.5 -151.5q0 -41 11.5 -119t11.5 -118q0 -187 -104.5 -295.5t-323.5 -108.5h-60l16 103h44q165 0 235 72.5t70 207.5q0 43 -10.5 127.5t-10.5 128.5q0 322 240 490q-123 103 -123 272q0 147 94 352
q66 135 66 224q0 166 -242 166h-43l16 102h60q170 0 251 -67t81 -185q0 -117 -89 -295q-32 -62 -52.5 -140.5t-20.5 -148.5q0 -103 47.5 -171t146.5 -81z" />
    <glyph glyph-name="asciitilde" unicode="~" horiz-adv-x="1349" 
d="M399 662q57 0 119.5 -21t118 -51t110 -59.5t112 -50.5t106.5 -21q63 0 112 34.5t101 124.5l96 -40q-56 -114 -144 -173t-182 -59q-71 0 -153.5 31.5t-144 69t-135.5 69t-132 31.5q-63 0 -113 -36t-102 -128l-94 47q56 114 143.5 173t181.5 59z" />
    <glyph glyph-name="uni00A0" unicode="&#xa0;" horiz-adv-x="368" 
 />
    <glyph glyph-name="exclamdown" unicode="&#xa1;" horiz-adv-x="579" 
d="M352 -600q-165 -61 -329 0q27 169 98 444q21 76 65 196.5t83.5 245.5t62.5 259h71q-17 -125 -20 -280.5t1 -261t-1 -224.5q-2 -33 -6 -105t-6 -99.5t-7 -77t-12 -97.5zM195 848q0 80 55.5 135t134.5 55q84 0 140.5 -55t56.5 -135q0 -85 -56 -141t-141 -56
q-80 0 -135 56.5t-55 140.5z" />
    <glyph glyph-name="cent" unicode="&#xa2;" horiz-adv-x="1050" 
d="M791 358l49 -28q-124 -259 -328 -330l-27 -176h-106l22 151q-40 -4 -65 -4q-132 0 -214.5 87.5t-82.5 260.5q0 107 38 223t104 217.5t168.5 175.5t219.5 93l29 176h107l-27 -170q102 -6 163.5 -55t61.5 -113q0 -47 -28.5 -81.5t-88.5 -34.5q-25 0 -44.5 7.5t-31 17
t-21.5 28t-14 30t-10.5 35t-9.5 31.5l-123 -770q139 34 259 229zM358 367q0 -186 70 -230l129 811q-54 -26 -101 -120.5t-72.5 -218.5t-25.5 -242z" />
    <glyph glyph-name="sterling" unicode="&#xa3;" horiz-adv-x="1400" 
d="M141 817l17 107h221q12 130 35.5 232.5t68.5 195.5t111 154.5t165.5 97.5t227.5 36q69 0 134 -10.5t122 -31t92 -57t35 -83.5q0 -59 -36.5 -101t-98.5 -42q-50 0 -82 26t-47.5 63.5t-29 75t-37 63.5t-60.5 26q-39 0 -72 -14t-57 -36t-44 -58t-32.5 -70t-22.5 -84.5
t-15.5 -88t-9.5 -92.5t-5 -87.5t-3 -83.5q-1 -21 -1 -31h424l-17 -107h-415v-2q-34 -217 -170 -411.5t-330 -327.5q186 126 316.5 191t213.5 65q52 0 98.5 -14t78 -33t62.5 -39.5t59 -32t59.5 -11.5t71 23t87.5 70l39 -29q-80 -148 -186 -220.5t-201 -72.5q-53 0 -92 10
t-65 24.5t-54 28.5t-76 24t-114 10q-65 0 -138 -17t-124.5 -34.5t-131 -27.5t-157.5 5l16 63q50 -10 94 0.5t79 36t64.5 65.5t51.5 88t40.5 105.5t30.5 115t21 120.5t14 117.5t7 109.5h-232z" />
    <glyph glyph-name="yen" unicode="&#xa5;" horiz-adv-x="1507" 
d="M844 834l268 362q47 64 73.5 115t34.5 84.5t1 58.5t-21 38t-39 21t-45 10t-47 3l10 57h543l-10 -59q-50 -1 -86.5 -15t-76.5 -52t-80.5 -89t-107.5 -141q-38 -51 -59 -80l-293 -389h273l-19 -113h-309l-27 -180h310l-19 -113h-309l-18 -131q-11 -80 16 -111.5t98 -39.5
l96 -13l-10 -57h-784l10 57l100 13q72 8 109.5 39.5t50.5 111.5l23 131h-312l19 113h311l31 180h-316l19 113h280l-225 622q-11 31 -27 54.5t-29.5 36.5t-36.5 23.5t-35 14t-39.5 9.5t-35.5 8l11 57h741l-10 -57q-78 -6 -125 -19.5t-64.5 -33t-19.5 -45t10 -56.5z" />
    <glyph glyph-name="brokenbar" unicode="&#xa6;" horiz-adv-x="446" 
d="M338 1618h119l-142 -899h-118zM129 299h119l-142 -899h-116z" />
    <glyph glyph-name="section" unicode="&#xa7;" horiz-adv-x="1353" 
d="M844 1638q54 0 121.5 -10.5t140.5 -32t121.5 -64t48.5 -97.5q0 -56 -37.5 -95t-93.5 -39q-42 0 -73.5 18.5t-48 46t-36 59.5t-38 59.5t-54.5 46t-84 18.5q-118 0 -182 -64t-64 -163q0 -129 160 -197l197 -86q167 -72 244 -153t77 -187q0 -148 -104.5 -259t-278.5 -181
q130 -67 194 -150t64 -190q0 -140 -81 -258.5t-227.5 -189t-324.5 -70.5q-111 0 -219.5 28.5t-185 87t-76.5 132.5q0 51 33.5 91t93.5 40q41 0 71.5 -15.5t48.5 -41t34 -56t34.5 -60.5t42.5 -55.5t65 -41t97 -15.5q118 0 196.5 75.5t78.5 192.5q0 173 -201 258l-166 70
q-301 130 -301 356q0 299 391 406q-123 56 -186.5 148t-63.5 202q0 138 77.5 238.5t205.5 149t289 48.5zM416 586q0 -138 182 -213l172 -72l31 -14q63 30 108 98t45 150q0 44 -19.5 81t-56.5 65.5t-71.5 47.5t-81.5 39l-141 59q-80 -39 -124 -101.5t-44 -139.5z" />
    <glyph glyph-name="dieresis" unicode="&#xa8;" horiz-adv-x="880" 
d="M41 1372q0 72 50 122t122 50q75 0 125.5 -50t50.5 -122q0 -75 -50.5 -125.5t-125.5 -50.5q-72 0 -122 50.5t-50 125.5zM512 1372q0 72 50 122t122 50q75 0 125.5 -50t50.5 -122q0 -75 -50.5 -125.5t-125.5 -50.5q-72 0 -122 50.5t-50 125.5z" />
    <glyph glyph-name="copyright" unicode="&#xa9;" horiz-adv-x="1832" 
d="M102 784q0 222 109 409.5t296 296.5t408 109q166 0 317 -64.5t260.5 -173.5t174 -260t64.5 -317q0 -165 -64.5 -316t-174 -259.5t-260.5 -173t-317 -64.5q-221 0 -408 109t-296 296t-109 408zM193 784q0 -149 56.5 -284.5t153 -233.5t230.5 -156.5t282 -58.5
q149 0 283.5 58t230.5 156.5t152.5 234t56.5 284.5q0 200 -95.5 369.5t-262 268t-365.5 98.5q-148 0 -282 -58.5t-230.5 -157t-153 -234.5t-56.5 -286zM1290 920h-35q-20 91 -57 158t-81.5 101.5t-87 50t-83.5 15.5q-114 0 -177.5 -110t-63.5 -338q0 -218 62 -324t189 -106
q31 0 62.5 7.5t68.5 29t68 55t59 92.5t43 135h35v-311q-145 -82 -354 -82q-109 0 -197 28t-147.5 75.5t-99.5 113t-58 138t-18 153.5q0 236 139 376t373 140q79 0 179 -19.5t183 -60.5z" />
    <glyph glyph-name="ordfeminine" unicode="&#xaa;" horiz-adv-x="843" 
d="M461 1524q42 0 100 -25l8 35h222l-103 -551q-11 -51 -6.5 -67.5t23.5 -16.5q32 0 108 88l31 -26q-51 -73 -106 -114.5t-132 -41.5q-67 0 -107 41t-42 108q-88 -149 -240 -149q-54 0 -92.5 20t-59 54.5t-29.5 71t-9 77.5q0 101 39.5 194.5t101.5 158.5t139.5 104t153.5 39
zM330 911q60 0 135 113l70 362q-13 80 -74 80q-46 0 -93 -69t-75.5 -168.5t-28.5 -186.5q0 -65 18 -98t48 -33z" />
    <glyph glyph-name="guillemotleft" unicode="&#xab;" horiz-adv-x="978" 
d="M825 70l-409 430l545 432h55l-324 -438l187 -424h-54zM449 70l-410 430l545 432h55l-324 -438l187 -424h-53z" />
    <glyph glyph-name="logicalnot" unicode="&#xac;" horiz-adv-x="1196" 
d="M106 432l17 113h971l-86 -543h-119l69 430h-852z" />
    <glyph glyph-name="uni00AD" unicode="&#xad;" horiz-adv-x="831" 
d="M104 465l19 113h602l-18 -113h-603z" />
    <glyph glyph-name="registered" unicode="&#xae;" horiz-adv-x="1832" 
d="M102 784q0 222 109 409.5t296 296.5t408 109q166 0 317 -64.5t260.5 -173.5t174 -260t64.5 -317q0 -165 -64.5 -316t-174 -259.5t-260.5 -173t-317 -64.5q-221 0 -408 109t-296 296t-109 408zM193 784q0 -149 56.5 -284.5t153 -233.5t230.5 -156.5t282 -58.5
q149 0 283.5 58t230.5 156.5t152.5 234t56.5 284.5q0 200 -95.5 369.5t-262 268t-365.5 98.5q-148 0 -282 -58.5t-230.5 -157t-153 -234.5t-56.5 -286zM479 1278h373q76 0 133.5 -5t112.5 -19.5t90 -38.5t56.5 -64t21.5 -94q0 -103 -87.5 -168.5t-240.5 -75.5
q120 -3 196.5 -51t104.5 -154l8 -22q11 -45 21.5 -76t24.5 -53t26 -34.5t33.5 -21t39.5 -12t52 -8.5v-41q-88 -18 -184 -18q-124 0 -191 63t-98 188l-15 56q-22 85 -42.5 113.5t-73.5 31.5v-293q0 -51 19 -73.5t85 -26.5v-43h-465v43q66 4 85.5 26.5t19.5 73.5v656
q0 48 -19.5 68t-85.5 26v47zM840 1214v-378q80 5 119.5 48.5t39.5 151.5q0 96 -38 135.5t-121 42.5z" />
    <glyph glyph-name="macron" unicode="&#xaf;" horiz-adv-x="888" 
d="M51 1270l19 112h766l-19 -112h-766z" />
    <glyph glyph-name="degree" unicode="&#xb0;" horiz-adv-x="708" 
d="M354 1024q-127 0 -210 81t-83 210q0 121 85.5 206t207.5 85q127 0 210 -81.5t83 -209.5q0 -121 -85.5 -206t-207.5 -85zM354 1499q-75 0 -124.5 -49t-49.5 -135q0 -81 45 -133t129 -52t129 52t45 133q0 86 -49.5 135t-124.5 49z" />
    <glyph glyph-name="plusminus" unicode="&#xb1;" horiz-adv-x="1134" 
d="M86 524l18 113h424l56 346h118l-55 -346h428l-18 -113h-428l-56 -346h-118l55 346h-424zM2 0l18 113h971l-18 -113h-971z" />
    <glyph glyph-name="twosuperior" unicode="&#xb2;" horiz-adv-x="927" 
d="M791 1130l-46 -319h-790l-2 16q17 11 74 46.5t88.5 55.5t88 59t90.5 66.5t77.5 67t67.5 71.5t41.5 69.5t17.5 70.5q0 50 -18 70t-58 20q-88 0 -201 -94l-33 43q74 77 170.5 120.5t188.5 43.5q112 0 185 -40.5t73 -121.5q0 -36 -16 -69.5t-47.5 -63t-66.5 -54t-85.5 -50
t-92 -45t-99 -45t-93.5 -43.5h326q44 0 65.5 25t48.5 101h46z" />
    <glyph glyph-name="threesuperior" unicode="&#xb3;" horiz-adv-x="817" 
d="M186 1337l-55 31q122 168 330 168q118 0 186 -53.5t68 -126.5q0 -39 -14 -72t-42.5 -59.5t-59.5 -47t-78.5 -39.5t-84 -31t-90.5 -28q162 -10 247 -83t85 -165q0 -47 -17.5 -91t-44.5 -79t-70.5 -67.5t-85.5 -56.5t-100.5 -47.5t-103.5 -39t-106 -32t-97.5 -25.5
t-87.5 -20l-6 55q432 129 432 389q0 77 -51 119.5t-166 54.5l2 51q262 136 262 322q0 36 -19 60t-57 24q-93 0 -176 -111z" />
    <glyph glyph-name="acute" unicode="&#xb4;" horiz-adv-x="452" 
d="M-80 1155l232 428h340l-512 -428h-60z" />
    <glyph glyph-name="mu" unicode="&#xb5;" horiz-adv-x="1163" 
d="M303 983h119l-100 -631q-18 -112 42.5 -186t180.5 -74q88 0 173 56.5t142 154.5l107 680h118l-155 -983h-115l27 160q-62 -91 -143.5 -140t-168.5 -49q-73 0 -142.5 33t-102.5 98l-90 -561h-119z" />
    <glyph glyph-name="paragraph" unicode="&#xb6;" horiz-adv-x="1146" 
d="M1155 1493h-149l-275 -1733h-119l275 1733h-135l-275 -1733h-119l164 1031q-164 0 -275.5 99.5t-111.5 248.5q0 75 19.5 141t64.5 126t113 103.5t171.5 69t233.5 25.5h437z" />
    <glyph glyph-name="periodcentered" unicode="&#xb7;" horiz-adv-x="591" 
d="M102 524q0 80 56 135.5t135 55.5q84 0 140 -55.5t56 -135.5q0 -85 -55.5 -140.5t-140.5 -55.5q-80 0 -135.5 56t-55.5 140z" />
    <glyph glyph-name="cedilla" unicode="&#xb8;" horiz-adv-x="573" 
d="M301 0h76l-162 -193q78 54 145 54q59 0 95.5 -30t36.5 -85q0 -63 -42.5 -116t-108.5 -87t-137 -54t-138 -26v37q98 20 170.5 88.5t72.5 141.5q0 27 -16 42t-43 15q-33 0 -66 -23l-43 39z" />
    <glyph glyph-name="onesuperior" unicode="&#xb9;" horiz-adv-x="700" 
d="M188 995l56 340q9 56 -6 79.5t-68 33.5l-64 12l11 58h573l-10 -58l-68 -12q-55 -10 -74.5 -33t-27.5 -80l-55 -340q-8 -57 6 -79.5t67 -32.5l64 -13l-10 -57h-574l10 57l68 13q56 10 75 32.5t27 79.5z" />
    <glyph glyph-name="ordmasculine" unicode="&#xba;" horiz-adv-x="864" 
d="M53 1032q0 97 43.5 192t111 162t150 108.5t158.5 41.5q75 0 130.5 -21t86 -56t44.5 -75t14 -84q0 -98 -43 -193t-109.5 -162t-148.5 -108.5t-158 -41.5t-132 20.5t-87 56t-45.5 75.5t-14.5 85zM299 1069q0 -103 15 -159t55 -56q46 0 83 46t57 114.5t30 133.5t10 116
q0 211 -72 211q-45 0 -81.5 -45.5t-56.5 -113t-30 -132.5t-10 -115z" />
    <glyph glyph-name="guillemotright" unicode="&#xbb;" horiz-adv-x="958" 
d="M934 500l-545 -430h-51l324 440l-189 422h55zM559 500l-545 -430h-51l324 440l-189 422h56z" />
    <glyph glyph-name="onequarter" unicode="&#xbc;" horiz-adv-x="1734" 
d="M1370 289l-18 -107q-9 -56 5.5 -79t67.5 -33l64 -13l-8 -57h-574l8 57l68 13q55 10 74 32t28 80l17 107h-424l-8 22l620 721h199l-88 -553h57q62 0 86.5 21.5t50.5 97.5h54l-50 -309h-229zM895 479h248l57 352zM1507 1618l-1331 -1618h-121l1327 1618h125zM188 995
l56 340q9 56 -6 79.5t-68 33.5l-64 12l11 58h573l-10 -58l-68 -12q-55 -10 -74.5 -33t-27.5 -80l-55 -340q-8 -57 6 -79.5t67 -32.5l64 -13l-10 -57h-574l10 57l68 13q56 10 75 32.5t27 79.5z" />
    <glyph glyph-name="onehalf" unicode="&#xbd;" horiz-adv-x="1671" 
d="M1542 1618l-1331 -1618h-121l1327 1618h125zM225 995l56 340q9 56 -6 79.5t-68 33.5l-64 12l11 58h573l-10 -58l-68 -12q-55 -10 -74.5 -33t-27.5 -80l-55 -340q-8 -57 6 -79.5t67 -32.5l64 -13l-11 -57h-573l10 57l68 13q56 10 75 32.5t27 79.5zM1485 322l-45 -320h-791
l-2 16q17 11 74 46.5t88.5 55.5t88 59t90.5 66.5t77.5 67t67.5 71.5t41.5 69.5t17.5 70.5q0 50 -18 70t-58 20q-88 0 -201 -94l-32 43q74 77 170 120.5t188 43.5q112 0 185 -40.5t73 -121.5q0 -36 -16 -69.5t-47.5 -63t-66.5 -54t-85.5 -50t-92 -45t-99 -45t-93.5 -43.5h326
q44 0 66 25.5t49 101.5h45z" />
    <glyph glyph-name="threequarters" unicode="&#xbe;" horiz-adv-x="1972" 
d="M1597 289l-18 -107q-9 -56 5.5 -79t68.5 -33l63 -13l-8 -57h-573l8 57l67 13q55 10 74.5 32t28.5 80l16 107h-424l-8 22l621 721h198l-88 -553h58q62 0 86.5 21.5t50.5 97.5h53l-49 -309h-230zM1130 479h240l53 340zM1733 1618l-1332 -1618h-120l1327 1618h125zM268 1337
l-55 31q122 168 330 168q118 0 186 -53.5t68 -126.5q0 -39 -14 -72t-42.5 -59.5t-59.5 -47t-78.5 -39.5t-84 -31t-90.5 -28q162 -10 247 -83t85 -165q0 -47 -17.5 -91t-44.5 -79t-70.5 -67.5t-85.5 -56.5t-100.5 -47.5t-103.5 -39t-106 -32t-97.5 -25.5t-87.5 -20l-6 55
q432 129 432 389q0 77 -51 119.5t-166 54.5l2 51q262 136 262 322q0 36 -19 60t-57 24q-93 0 -176 -111z" />
    <glyph glyph-name="questiondown" unicode="&#xbf;" horiz-adv-x="813" 
d="M748 586l47 26q34 -39 61 -109.5t27 -152.5t-28 -153.5t-72.5 -124.5t-98.5 -102t-108 -96t-98.5 -95.5t-72.5 -111t-28 -132.5q0 -42 17 -69t52 -27q38 0 67 17t45 42.5t34.5 55t35 55t47 42.5t70.5 17q47 0 72 -30t25 -70q0 -76 -98.5 -136.5t-286.5 -60.5
q-71 0 -130 11.5t-111.5 37.5t-82 76t-29.5 119q0 66 24.5 129.5t65 116.5t93 104.5t109.5 98.5t113 94.5t104 96.5t82.5 100t49.5 110t3 121zM512 848q0 80 55 135t135 55q84 0 140.5 -55t56.5 -135q0 -85 -56 -141t-141 -56q-80 0 -135 56.5t-55 140.5z" />
    <glyph glyph-name="Agrave" unicode="&#xc0;" horiz-adv-x="1609" 
d="M1004 211l-58 268h-512l-108 -215q-23 -44 -32.5 -77t-4 -53.5t15.5 -33.5t33.5 -20.5t41.5 -10.5t48 -6t45 -6l-10 -57h-584l10 59q125 9 193.5 59.5t140.5 188.5l674 1305h100l349 -1409q8 -32 22.5 -56t28.5 -37t36.5 -23t37 -13.5t40.5 -8.5t37 -8l-10 -57h-741
l10 57q78 6 123.5 19t62 32t18.5 45t-7 58zM797 1194l-287 -565h405zM922 2101l98 -428h-59l-377 428h338z" />
    <glyph glyph-name="Aacute" unicode="&#xc1;" horiz-adv-x="1609" 
d="M1004 211l-58 268h-512l-108 -215q-23 -44 -32.5 -77t-4 -53.5t15.5 -33.5t33.5 -20.5t41.5 -10.5t48 -6t45 -6l-10 -57h-584l10 59q125 9 193.5 59.5t140.5 188.5l674 1305h100l349 -1409q8 -32 22.5 -56t28.5 -37t36.5 -23t37 -13.5t40.5 -8.5t37 -8l-10 -57h-741
l10 57q78 6 123.5 19t62 32t18.5 45t-7 58zM797 1194l-287 -565h405zM700 1673l232 428h340l-512 -428h-60z" />
    <glyph glyph-name="Acircumflex" unicode="&#xc2;" horiz-adv-x="1609" 
d="M1004 211l-58 268h-512l-108 -215q-23 -44 -32.5 -77t-4 -53.5t15.5 -33.5t33.5 -20.5t41.5 -10.5t48 -6t45 -6l-10 -57h-584l10 59q125 9 193.5 59.5t140.5 188.5l674 1305h100l349 -1409q8 -32 22.5 -56t28.5 -37t36.5 -23t37 -13.5t40.5 -8.5t37 -8l-10 -57h-741
l10 57q78 6 123.5 19t62 32t18.5 45t-7 58zM797 1194l-287 -565h405zM608 1696l353 403h94l225 -401l-39 -37l-268 207l-326 -209z" />
    <glyph glyph-name="Atilde" unicode="&#xc3;" horiz-adv-x="1609" 
d="M1004 211l-58 268h-512l-108 -215q-23 -44 -32.5 -77t-4 -53.5t15.5 -33.5t33.5 -20.5t41.5 -10.5t48 -6t45 -6l-10 -57h-584l10 59q125 9 193.5 59.5t140.5 188.5l674 1305h100l349 -1409q8 -32 22.5 -56t28.5 -37t36.5 -23t37 -13.5t40.5 -8.5t37 -8l-10 -57h-741
l10 57q78 6 123.5 19t62 32t18.5 45t-7 58zM797 1194l-287 -565h405zM481 1743q30 59 49 94.5t49.5 82.5t55.5 72.5t58 44.5t67 19q49 0 110 -22.5t109.5 -49t108.5 -49t108 -22.5q94 0 170 84l41 -21q-28 -52 -42 -77.5t-40 -68.5t-45.5 -65.5t-45.5 -47.5t-52.5 -35.5
t-55.5 -10.5q-55 0 -118 22t-110 48.5t-104 48.5t-102 22q-92 0 -172 -92z" />
    <glyph glyph-name="Adieresis" unicode="&#xc4;" horiz-adv-x="1609" 
d="M1004 211l-58 268h-512l-108 -215q-23 -44 -32.5 -77t-4 -53.5t15.5 -33.5t33.5 -20.5t41.5 -10.5t48 -6t45 -6l-10 -57h-584l10 59q125 9 193.5 59.5t140.5 188.5l674 1305h100l349 -1409q8 -32 22.5 -56t28.5 -37t36.5 -23t37 -13.5t40.5 -8.5t37 -8l-10 -57h-741
l10 57q78 6 123.5 19t62 32t18.5 45t-7 58zM797 1194l-287 -565h405zM492 1890q0 72 50 122t122 50q75 0 125.5 -50t50.5 -122q0 -75 -50.5 -125.5t-125.5 -50.5q-72 0 -122 50.5t-50 125.5zM1085 1890q0 72 50 122t122 50q75 0 126 -50t51 -122q0 -75 -51 -125.5
t-126 -50.5q-72 0 -122 50.5t-50 125.5z" />
    <glyph glyph-name="Aring" unicode="&#xc5;" horiz-adv-x="1609" 
d="M1004 211l-58 268h-512l-108 -215q-23 -44 -32.5 -77t-4 -53.5t15.5 -33.5t33.5 -20.5t41.5 -10.5t48 -6t45 -6l-10 -57h-584l10 59q125 9 193.5 59.5t140.5 188.5l674 1305h100l349 -1409q8 -32 22.5 -56t28.5 -37t36.5 -23t37 -13.5t40.5 -8.5t37 -8l-10 -57h-741
l10 57q78 6 123.5 19t62 32t18.5 45t-7 58zM797 1194l-287 -565h405zM995 2064q78 0 131.5 -51.5t53.5 -126.5q0 -98 -68.5 -160.5t-171.5 -62.5q-78 0 -130 51t-52 125q0 93 70.5 159t166.5 66zM981 1976q-55 0 -89 -36t-34 -95q0 -42 25.5 -68t70.5 -26q58 0 92.5 34
t34.5 93q0 46 -28 72t-72 26z" />
    <glyph glyph-name="AE" unicode="&#xc6;" horiz-adv-x="2478" 
d="M1184 1583h1272l-64 -397h-70q10 152 -65 221.5t-240 69.5h-305l-94 -596h203q103 0 162.5 61t91.5 184h67l-94 -600h-72q8 130 -32.5 189t-139.5 59h-202l-43 -272l-35 -234q-14 -90 17 -126t134 -36h234q80 0 144 26t106.5 71.5t70 97.5t43.5 115h66l-64 -416h-1343
l10 57l100 13q72 8 110.5 39.5t49.5 111.5q54 316 55 324l37 229h-420l-530 -577q-35 -38 -45.5 -66.5t1 -45.5t36.5 -25.5t63 -10.5l58 -2l-8 -47h-574l8 47q118 10 192 50.5t154 125.5l1151 1227q-10 30 -36.5 44.5t-73.5 21.5l-96 12zM1337 1044q12 73 25.5 166.5
t15.5 108.5l-405 -438h338z" />
    <glyph glyph-name="Ccedilla" unicode="&#xc7;" horiz-adv-x="1611" 
d="M1485 461l-88 -346q-101 -76 -244.5 -110t-296.5 -34l-137 -164q78 54 145 54q59 0 95 -30t36 -85q0 -63 -42.5 -116t-108.5 -87t-137 -54t-138 -26v37q99 20 171.5 88.5t72.5 141.5q0 27 -16 42t-43 15q-33 0 -66 -23l-43 39l139 172q-161 11 -296 76t-225.5 167
t-140.5 233t-50 274q0 253 119.5 454.5t331.5 314t476 112.5q309 0 594 -127l-28 -363h-54q-15 78 -51 142.5t-83.5 108.5t-107 74t-122.5 44t-129 14q-121 0 -223.5 -45t-174.5 -122t-122.5 -181t-74.5 -222t-24 -245q0 -154 37 -271t103 -188t150.5 -106t184.5 -35
q359 0 551 377h60z" />
    <glyph glyph-name="Egrave" unicode="&#xc8;" horiz-adv-x="1474" 
d="M199 1583h1257l-57 -397h-62q7 151 -74.5 221t-238.5 70h-297l-94 -596h194q203 0 267 245h55l-94 -600h-60q7 128 -38 188t-146 60h-195l-43 -272l-34 -234q-14 -91 17 -128.5t134 -37.5h225q80 0 145.5 26.5t109.5 72.5t73 99.5t45 115.5h58l-64 -416h-1333l10 57
l98 13q72 8 109.5 39.5t50.5 111.5q11 72 30 176t25 148l80 499l47 320q10 81 -17 112.5t-97 39.5l-97 12zM958 2101l99 -428h-60l-376 428h337z" />
    <glyph glyph-name="Eacute" unicode="&#xc9;" horiz-adv-x="1474" 
d="M199 1583h1257l-57 -397h-62q7 151 -74.5 221t-238.5 70h-297l-94 -596h194q203 0 267 245h55l-94 -600h-60q7 128 -38 188t-146 60h-195l-43 -272l-34 -234q-14 -91 17 -128.5t134 -37.5h225q80 0 145.5 26.5t109.5 72.5t73 99.5t45 115.5h58l-64 -416h-1333l10 57
l98 13q72 8 109.5 39.5t50.5 111.5q11 72 30 176t25 148l80 499l47 320q10 81 -17 112.5t-97 39.5l-97 12zM739 1673l232 428h340l-512 -428h-60z" />
    <glyph glyph-name="Ecircumflex" unicode="&#xca;" horiz-adv-x="1474" 
d="M199 1583h1257l-57 -397h-62q7 151 -74.5 221t-238.5 70h-297l-94 -596h194q203 0 267 245h55l-94 -600h-60q7 128 -38 188t-146 60h-195l-43 -272l-34 -234q-14 -91 17 -128.5t134 -37.5h225q80 0 145.5 26.5t109.5 72.5t73 99.5t45 115.5h58l-64 -416h-1333l10 57
l98 13q72 8 109.5 39.5t50.5 111.5q11 72 30 176t25 148l80 499l47 320q10 81 -17 112.5t-97 39.5l-97 12zM586 1696l352 403h94l225 -401l-38 -37l-269 207l-325 -209z" />
    <glyph glyph-name="Edieresis" unicode="&#xcb;" horiz-adv-x="1474" 
d="M199 1583h1257l-57 -397h-62q7 151 -74.5 221t-238.5 70h-297l-94 -596h194q203 0 267 245h55l-94 -600h-60q7 128 -38 188t-146 60h-195l-43 -272l-34 -234q-14 -91 17 -128.5t134 -37.5h225q80 0 145.5 26.5t109.5 72.5t73 99.5t45 115.5h58l-64 -416h-1333l10 57
l98 13q72 8 109.5 39.5t50.5 111.5q11 72 30 176t25 148l80 499l47 320q10 81 -17 112.5t-97 39.5l-97 12zM481 1890q0 72 50 122t122 50q75 0 125.5 -50t50.5 -122q0 -75 -50.5 -125.5t-125.5 -50.5q-72 0 -122 50.5t-50 125.5zM1075 1890q0 72 50 122t122 50
q75 0 125.5 -50t50.5 -122q0 -75 -50.5 -125.5t-125.5 -50.5q-72 0 -122 50.5t-50 125.5z" />
    <glyph glyph-name="Igrave" unicode="&#xcc;" horiz-adv-x="905" 
d="M659 1044l-79 -499q-21 -129 -33 -210t-13 -97l-2 -17q-10 -81 17 -112t98 -39l96 -13l-10 -57h-782l10 57l98 13q72 8 109.5 39.5t50.5 111.5q16 84 55 324l80 499q16 95 27.5 174.5t15.5 111.5l4 32q11 80 -16.5 111.5t-97.5 39.5l-97 13l11 57h784l-10 -57l-101 -13
q-73 -8 -109.5 -39.5t-49.5 -111.5q-23 -111 -56 -318zM651 2101l99 -428h-60l-377 428h338z" />
    <glyph glyph-name="Iacute" unicode="&#xcd;" horiz-adv-x="905" 
d="M659 1044l-79 -499q-21 -129 -33 -210t-13 -97l-2 -17q-10 -81 17 -112t98 -39l96 -13l-10 -57h-782l10 57l98 13q72 8 109.5 39.5t50.5 111.5q16 84 55 324l80 499q16 95 27.5 174.5t15.5 111.5l4 32q11 80 -16.5 111.5t-97.5 39.5l-97 13l11 57h784l-10 -57l-101 -13
q-73 -8 -109.5 -39.5t-49.5 -111.5q-23 -111 -56 -318zM371 1673l231 428h340l-512 -428h-59z" />
    <glyph glyph-name="Icircumflex" unicode="&#xce;" horiz-adv-x="905" 
d="M659 1044l-79 -499q-21 -129 -33 -210t-13 -97l-2 -17q-10 -81 17 -112t98 -39l96 -13l-10 -57h-782l10 57l98 13q72 8 109.5 39.5t50.5 111.5q16 84 55 324l80 499q16 95 27.5 174.5t15.5 111.5l4 32q11 80 -16.5 111.5t-97.5 39.5l-97 13l11 57h784l-10 -57l-101 -13
q-73 -8 -109.5 -39.5t-49.5 -111.5q-23 -111 -56 -318zM258 1696l352 403h95l225 -401l-39 -37l-268 207l-326 -209z" />
    <glyph glyph-name="Idieresis" unicode="&#xcf;" horiz-adv-x="905" 
d="M205 1890q0 72 50 122t122 50q75 0 125.5 -50t50.5 -122q0 -75 -50.5 -125.5t-125.5 -50.5q-72 0 -122 50.5t-50 125.5zM676 1890q0 72 50 122t122 50q75 0 125.5 -50t50.5 -122q0 -75 -50.5 -125.5t-125.5 -50.5q-72 0 -122 50.5t-50 125.5zM659 1044l-79 -499
q-21 -129 -33 -210t-13 -97l-2 -17q-10 -81 17 -112t98 -39l96 -13l-10 -57h-782l10 57l98 13q72 8 109.5 39.5t50.5 111.5q16 84 55 324l80 499q16 95 27.5 174.5t15.5 111.5l4 32q11 80 -16.5 111.5t-97.5 39.5l-97 13l11 57h784l-10 -57l-101 -13q-73 -8 -109.5 -39.5
t-49.5 -111.5q-23 -111 -56 -318z" />
    <glyph glyph-name="Eth" unicode="&#xd0;" horiz-adv-x="1806" 
d="M12 766l17 113h297l26 161q4 26 15.5 116t29.5 206q13 80 -14.5 111.5t-97.5 39.5l-97 13l9 55q134 0 374.5 3t343.5 3q169 0 306.5 -34.5t232 -95.5t158.5 -147.5t93.5 -187.5t29.5 -217q0 -137 -43.5 -268t-131.5 -246.5t-210 -202.5t-290.5 -137.5t-361.5 -50.5h-749
l8 57l98 13q73 8 111 39.5t51 111.5q54 316 55 324l35 221h-295zM580 545l-43 -285q-4 -27 -5 -48t4 -37.5t11.5 -27.5t21.5 -19t30 -12.5t40.5 -7.5t49.5 -3.5t61 -0.5q118 0 222.5 42.5t183 118t136 177t86.5 222.5t29 251q0 128 -27.5 227.5t-89 177.5t-169.5 119.5
t-259 41.5q-74 0 -135 -4l-96 -598h327l-18 -113h-326z" />
    <glyph glyph-name="Ntilde" unicode="&#xd1;" horiz-adv-x="1765" 
d="M1364 467l113 713q12 77 17 126t-1 88.5t-18.5 60t-43 36t-65.5 22.5t-96 13l10 57h639l-10 -57q-59 -7 -92.5 -13t-69.5 -20.5t-55 -36t-38.5 -59.5t-32 -89.5t-24.5 -127.5l-192 -1209h-98l-791 1237l-133 -835q-11 -69 -14.5 -113t3 -80t19.5 -55t43 -33.5t66 -21.5
t96 -13l-10 -57h-637l10 57q58 6 91.5 12.5t68.5 20t54 33.5t38 54.5t30.5 80.5t22.5 115l156 979q-27 40 -40 57.5t-37.5 45.5t-43.5 40t-48 21.5t-63 9.5l11 57h458zM623 1743q31 60 49.5 94.5t48.5 82.5t55 73t58 44t67 19q49 0 110 -22.5t109.5 -49t108.5 -49t108 -22.5
q94 0 170 84l41 -21q-24 -46 -35.5 -66.5t-34.5 -60.5t-37.5 -59t-37.5 -46.5t-42 -40t-43.5 -22.5t-49.5 -10q-55 0 -118 22t-110 48.5t-104 48.5t-102 22q-92 0 -172 -92z" />
    <glyph glyph-name="Ograve" unicode="&#xd2;" horiz-adv-x="1792" 
d="M1389 901q0 288 -117.5 441t-325.5 153q-160 0 -286.5 -116t-193.5 -306.5t-67 -415.5q0 -277 119 -425t320 -148q160 0 285 100.5t195.5 287t70.5 429.5zM72 741q0 181 70.5 342t189 274t278.5 179t334 66q164 0 307.5 -57.5t246.5 -158.5t162.5 -244t59.5 -308
q0 -182 -70.5 -343t-189 -274t-278.5 -178.5t-334 -65.5q-165 0 -309 57.5t-246.5 158t-161.5 243.5t-59 309zM1079 2101l99 -428h-60l-377 428h338z" />
    <glyph glyph-name="Oacute" unicode="&#xd3;" horiz-adv-x="1792" 
d="M1389 901q0 288 -117.5 441t-325.5 153q-160 0 -286.5 -116t-193.5 -306.5t-67 -415.5q0 -277 119 -425t320 -148q160 0 285 100.5t195.5 287t70.5 429.5zM72 741q0 181 70.5 342t189 274t278.5 179t334 66q164 0 307.5 -57.5t246.5 -158.5t162.5 -244t59.5 -308
q0 -182 -70.5 -343t-189 -274t-278.5 -178.5t-334 -65.5q-165 0 -309 57.5t-246.5 158t-161.5 243.5t-59 309zM838 1673l231 428h340l-512 -428h-59z" />
    <glyph glyph-name="Ocircumflex" unicode="&#xd4;" horiz-adv-x="1792" 
d="M1389 901q0 288 -117.5 441t-325.5 153q-160 0 -286.5 -116t-193.5 -306.5t-67 -415.5q0 -277 119 -425t320 -148q160 0 285 100.5t195.5 287t70.5 429.5zM72 741q0 181 70.5 342t189 274t278.5 179t334 66q164 0 307.5 -57.5t246.5 -158.5t162.5 -244t59.5 -308
q0 -182 -70.5 -343t-189 -274t-278.5 -178.5t-334 -65.5q-165 0 -309 57.5t-246.5 158t-161.5 243.5t-59 309zM647 1696l352 403h95l225 -401l-39 -37l-268 207l-326 -209z" />
    <glyph glyph-name="Otilde" unicode="&#xd5;" horiz-adv-x="1792" 
d="M1389 901q0 288 -117.5 441t-325.5 153q-160 0 -286.5 -116t-193.5 -306.5t-67 -415.5q0 -277 119 -425t320 -148q160 0 285 100.5t195.5 287t70.5 429.5zM72 741q0 181 70.5 342t189 274t278.5 179t334 66q164 0 307.5 -57.5t246.5 -158.5t162.5 -244t59.5 -308
q0 -182 -70.5 -343t-189 -274t-278.5 -178.5t-334 -65.5q-165 0 -309 57.5t-246.5 158t-161.5 243.5t-59 309zM582 1743q31 60 49.5 94.5t48.5 82.5t55 73t58 44t67 19q49 0 110 -22.5t109.5 -49t108.5 -49t108 -22.5q94 0 170 84l41 -21q-24 -46 -35.5 -66.5t-34.5 -60.5
t-37.5 -59t-37.5 -46.5t-42 -40t-43.5 -22.5t-49.5 -10q-55 0 -118 22t-110 48.5t-104 48.5t-102 22q-92 0 -172 -92z" />
    <glyph glyph-name="Odieresis" unicode="&#xd6;" horiz-adv-x="1792" 
d="M1389 901q0 288 -117.5 441t-325.5 153q-160 0 -286.5 -116t-193.5 -306.5t-67 -415.5q0 -277 119 -425t320 -148q160 0 285 100.5t195.5 287t70.5 429.5zM72 741q0 181 70.5 342t189 274t278.5 179t334 66q164 0 307.5 -57.5t246.5 -158.5t162.5 -244t59.5 -308
q0 -182 -70.5 -343t-189 -274t-278.5 -178.5t-334 -65.5q-165 0 -309 57.5t-246.5 158t-161.5 243.5t-59 309zM573 1890q0 72 50 122t122 50q75 0 126 -50t51 -122q0 -75 -51 -125.5t-126 -50.5q-72 0 -122 50.5t-50 125.5zM1167 1890q0 72 50 122t122 50q75 0 126 -50
t51 -122q0 -75 -51 -125.5t-126 -50.5q-72 0 -122 50.5t-50 125.5z" />
    <glyph glyph-name="multiply" unicode="&#xd7;" horiz-adv-x="1089" 
d="M930 160l-90 -78l-308 362l-426 -368l-67 84l424 366l-307 367l90 78l307 -367l426 369l68 -84l-424 -367z" />
    <glyph glyph-name="Oslash" unicode="&#xd8;" horiz-adv-x="1792" 
d="M72 741q0 181 70.5 342t189 274t278.5 179t334 66q268 0 471 -148l176 203h133l-231 -268q108 -103 167.5 -246t59.5 -309q0 -182 -70.5 -343t-189 -274t-278.5 -178.5t-334 -65.5q-259 0 -457 136l-155 -181h-130l207 240q-115 104 -178 251t-63 322zM399 657
q0 -186 58 -321l835 975q-116 184 -346 184q-160 0 -286.5 -116t-193.5 -306.5t-67 -415.5zM1389 901q0 174 -50 309l-831 -966q115 -160 330 -160q160 0 285 100.5t195.5 287t70.5 429.5z" />
    <glyph glyph-name="Ugrave" unicode="&#xd9;" horiz-adv-x="1742" 
d="M221 614l117 748q11 80 -16.5 111.5t-98.5 39.5l-96 13l10 57h785l-11 -57l-100 -13q-72 -8 -110.5 -39.5t-49.5 -111.5q-86 -514 -125 -764q-25 -157 -6 -262.5t103.5 -159t242.5 -53.5q199 0 329.5 139.5t172.5 411.5l55 348q10 63 15.5 97t12.5 87.5t7.5 83.5t0 69.5
t-8 61.5t-19.5 44.5t-32 33.5t-47 14l-115 13l10 57h649l-10 -57l-117 -13q-53 -6 -91 -45t-64.5 -124t-38 -141t-30.5 -176q-1 -3 -1 -5l-59 -385q-51 -319 -238.5 -492.5t-486.5 -173.5q-154 0 -269 41t-186.5 121.5t-93.5 201t10 279.5zM1118 2101l99 -428h-60l-377 428
h338z" />
    <glyph glyph-name="Uacute" unicode="&#xda;" horiz-adv-x="1742" 
d="M221 614l117 748q11 80 -16.5 111.5t-98.5 39.5l-96 13l10 57h785l-11 -57l-100 -13q-72 -8 -110.5 -39.5t-49.5 -111.5q-86 -514 -125 -764q-25 -157 -6 -262.5t103.5 -159t242.5 -53.5q199 0 329.5 139.5t172.5 411.5l55 348q10 63 15.5 97t12.5 87.5t7.5 83.5t0 69.5
t-8 61.5t-19.5 44.5t-32 33.5t-47 14l-115 13l10 57h649l-10 -57l-117 -13q-53 -6 -91 -45t-64.5 -124t-38 -141t-30.5 -176q-1 -3 -1 -5l-59 -385q-51 -319 -238.5 -492.5t-486.5 -173.5q-154 0 -269 41t-186.5 121.5t-93.5 201t10 279.5zM891 1673l231 428h340l-512 -428
h-59z" />
    <glyph glyph-name="Ucircumflex" unicode="&#xdb;" horiz-adv-x="1742" 
d="M221 614l117 748q11 80 -16.5 111.5t-98.5 39.5l-96 13l10 57h785l-11 -57l-100 -13q-72 -8 -110.5 -39.5t-49.5 -111.5q-86 -514 -125 -764q-25 -157 -6 -262.5t103.5 -159t242.5 -53.5q199 0 329.5 139.5t172.5 411.5l55 348q10 63 15.5 97t12.5 87.5t7.5 83.5t0 69.5
t-8 61.5t-19.5 44.5t-32 33.5t-47 14l-115 13l10 57h649l-10 -57l-117 -13q-53 -6 -91 -45t-64.5 -124t-38 -141t-30.5 -176q-1 -3 -1 -5l-59 -385q-51 -319 -238.5 -492.5t-486.5 -173.5q-154 0 -269 41t-186.5 121.5t-93.5 201t10 279.5zM762 1696l352 403h94l226 -401
l-39 -37l-269 207l-325 -209z" />
    <glyph glyph-name="Udieresis" unicode="&#xdc;" horiz-adv-x="1742" 
d="M221 614l117 748q11 80 -16.5 111.5t-98.5 39.5l-96 13l10 57h785l-11 -57l-100 -13q-72 -8 -110.5 -39.5t-49.5 -111.5q-86 -514 -125 -764q-25 -157 -6 -262.5t103.5 -159t242.5 -53.5q199 0 329.5 139.5t172.5 411.5l55 348q10 63 15.5 97t12.5 87.5t7.5 83.5t0 69.5
t-8 61.5t-19.5 44.5t-32 33.5t-47 14l-115 13l10 57h649l-10 -57l-117 -13q-53 -6 -91 -45t-64.5 -124t-38 -141t-30.5 -176q-1 -3 -1 -5l-59 -385q-51 -319 -238.5 -492.5t-486.5 -173.5q-154 0 -269 41t-186.5 121.5t-93.5 201t10 279.5zM633 1890q0 72 50 122t122 50
q75 0 125.5 -50t50.5 -122q0 -75 -50.5 -125.5t-125.5 -50.5q-72 0 -122 50.5t-50 125.5zM1227 1890q0 72 50 122t122 50q75 0 125.5 -50t50.5 -122q0 -75 -50.5 -125.5t-125.5 -50.5q-72 0 -122 50.5t-50 125.5z" />
    <glyph glyph-name="Yacute" unicode="&#xdd;" horiz-adv-x="1468" 
d="M844 834l268 362q47 64 73.5 115t34.5 84.5t1 58.5t-21 38t-39 21t-45 10t-47 3l10 57h543l-10 -59q-50 -1 -86.5 -15t-76.5 -52t-80.5 -89t-107.5 -141q-38 -51 -59 -80l-340 -453l-71 -473q-11 -80 16 -111.5t98 -39.5l96 -13l-10 -57h-784l10 57l100 13
q72 8 109.5 39.5t50.5 111.5l80 469l-250 690q-11 31 -27 54.5t-29.5 36.5t-36.5 23.5t-35 14t-39.5 9.5t-35.5 8l11 57h741l-10 -57q-78 -6 -125 -19.5t-64.5 -33t-19.5 -45t10 -56.5zM799 1673l231 428h340l-512 -428h-59z" />
    <glyph glyph-name="Thorn" unicode="&#xde;" horiz-adv-x="1376" 
d="M940 1583l-10 -57l-101 -13q-73 -8 -109.5 -39.5t-49.5 -111.5l-13 -74q86 6 183 6q88 0 165 -10.5t151 -36.5t127 -66.5t85.5 -105t32.5 -147.5q0 -125 -54 -230t-143.5 -173t-201 -105t-230.5 -37q-139 0 -252 45l-26 -207q-5 -43 0 -69t25.5 -42.5t49.5 -25t80 -14.5
l96 -13l-10 -57h-823l10 57l98 13q72 8 110.5 39.5t49.5 111.5q23 121 60 359l122 782q11 80 -16.5 111.5t-97.5 39.5l-96 13l10 57h778zM1106 940q0 77 -28.5 130.5t-72 80.5t-108 39t-123.5 11t-131 -9l-111 -692q67 -15 138 -15q192 0 314 117.5t122 337.5z" />
    <glyph glyph-name="germandbls" unicode="&#xdf;" horiz-adv-x="1392" 
d="M596 1130l-190 -1198q-20 -123 -66.5 -221t-105.5 -159.5t-131 -102.5t-138 -57.5t-131 -16.5q-82 0 -162.5 20.5t-140 66.5t-59.5 108q0 52 33 92.5t98 40.5q41 0 72.5 -18.5t48.5 -46t33.5 -59.5t29.5 -59.5t34.5 -46t49.5 -18.5q20 0 41.5 10t47.5 39.5t49.5 75
t47 124.5t39.5 181l191 1198q39 253 201 404t386 151q172 0 286 -54t114 -152q0 -63 -29.5 -111t-73.5 -75.5t-95.5 -55t-95.5 -50.5t-73.5 -60.5t-29.5 -86.5q0 -32 17.5 -66.5t51.5 -70t53.5 -53t53.5 -45.5l61 -49q127 -100 182.5 -179t55.5 -165q0 -78 -30 -147.5
t-88.5 -125.5t-155 -88.5t-218.5 -32.5q-55 0 -111.5 11.5t-108 34t-84 61t-32.5 86.5q0 60 34.5 95.5t90.5 35.5q49 0 77.5 -25.5t40.5 -61.5t23 -72t35.5 -61.5t67.5 -25.5q70 0 113 52.5t43 125.5q0 120 -152 236l-74 57q-178 136 -178 297q0 53 18.5 99.5t48.5 83t66 72
t72 73t66 79t48.5 98.5t18.5 122q0 58 -30.5 87.5t-98.5 29.5q-191 0 -258 -431z" />
    <glyph glyph-name="agrave" unicode="&#xe0;" horiz-adv-x="1228" 
d="M670 1014q74 0 147 -37l12 53h289l-151 -801q-13 -71 -6 -97t34 -26q46 0 156 127l45 -36q-37 -54 -66 -88t-69.5 -69t-88.5 -52t-106 -17q-97 0 -150.5 59.5t-51.5 159.5q-126 -219 -349 -219q-63 0 -112 20t-79 52.5t-50 76t-27.5 86.5t-7.5 89q0 118 37 230t100.5 199
t144 153.5t171 101.5t178.5 35zM471 123q93 0 207 168l98 526q-21 113 -108 113q-57 0 -115.5 -60.5t-102 -150.5t-71 -199t-27.5 -203q0 -91 29.5 -142.5t89.5 -51.5zM795 1583l98 -428h-59l-377 428h338z" />
    <glyph glyph-name="aacute" unicode="&#xe1;" horiz-adv-x="1228" 
d="M670 1014q74 0 147 -37l12 53h289l-151 -801q-13 -71 -6 -97t34 -26q46 0 156 127l45 -36q-37 -54 -66 -88t-69.5 -69t-88.5 -52t-106 -17q-97 0 -150.5 59.5t-51.5 159.5q-126 -219 -349 -219q-63 0 -112 20t-79 52.5t-50 76t-27.5 86.5t-7.5 89q0 118 37 230t100.5 199
t144 153.5t171 101.5t178.5 35zM471 123q93 0 207 168l98 526q-21 113 -108 113q-57 0 -115.5 -60.5t-102 -150.5t-71 -199t-27.5 -203q0 -91 29.5 -142.5t89.5 -51.5zM655 1155l232 428h340l-512 -428h-60z" />
    <glyph glyph-name="acircumflex" unicode="&#xe2;" horiz-adv-x="1228" 
d="M670 1014q74 0 147 -37l12 53h289l-151 -801q-13 -71 -6 -97t34 -26q46 0 156 127l45 -36q-37 -54 -66 -88t-69.5 -69t-88.5 -52t-106 -17q-97 0 -150.5 59.5t-51.5 159.5q-126 -219 -349 -219q-63 0 -112 20t-79 52.5t-50 76t-27.5 86.5t-7.5 89q0 118 37 230t100.5 199
t144 153.5t171 101.5t178.5 35zM471 123q93 0 207 168l98 526q-21 113 -108 113q-57 0 -115.5 -60.5t-102 -150.5t-71 -199t-27.5 -203q0 -91 29.5 -142.5t89.5 -51.5zM416 1178l352 403h94l225 -401l-38 -37l-269 207l-325 -209z" />
    <glyph glyph-name="atilde" unicode="&#xe3;" horiz-adv-x="1228" 
d="M670 1014q74 0 147 -37l12 53h289l-151 -801q-13 -71 -6 -97t34 -26q46 0 156 127l45 -36q-37 -54 -66 -88t-69.5 -69t-88.5 -52t-106 -17q-97 0 -150.5 59.5t-51.5 159.5q-126 -219 -349 -219q-63 0 -112 20t-79 52.5t-50 76t-27.5 86.5t-7.5 89q0 118 37 230t100.5 199
t144 153.5t171 101.5t178.5 35zM471 123q93 0 207 168l98 526q-21 113 -108 113q-57 0 -115.5 -60.5t-102 -150.5t-71 -199t-27.5 -203q0 -91 29.5 -142.5t89.5 -51.5zM371 1245q35 69 61.5 114t61.5 90t73 67t80 22q48 0 105 -22.5t101 -50t99 -50t99 -22.5q84 0 159 86
l41 -21q-28 -53 -49 -89.5t-49 -76t-54 -63.5t-58.5 -39.5t-67.5 -15.5q-54 0 -113 22.5t-101.5 49t-94.5 49t-93 22.5q-82 0 -161 -94z" />
    <glyph glyph-name="adieresis" unicode="&#xe4;" horiz-adv-x="1228" 
d="M670 1014q74 0 147 -37l12 53h289l-151 -801q-13 -71 -6 -97t34 -26q46 0 156 127l45 -36q-37 -54 -66 -88t-69.5 -69t-88.5 -52t-106 -17q-97 0 -150.5 59.5t-51.5 159.5q-126 -219 -349 -219q-63 0 -112 20t-79 52.5t-50 76t-27.5 86.5t-7.5 89q0 118 37 230t100.5 199
t144 153.5t171 101.5t178.5 35zM471 123q93 0 207 168l98 526q-21 113 -108 113q-57 0 -115.5 -60.5t-102 -150.5t-71 -199t-27.5 -203q0 -91 29.5 -142.5t89.5 -51.5zM371 1372q0 72 50 122t122 50q75 0 125.5 -50t50.5 -122q0 -75 -50.5 -125.5t-125.5 -50.5
q-72 0 -122 50.5t-50 125.5zM842 1372q0 72 50 122t122 50q75 0 125.5 -50t50.5 -122q0 -75 -50.5 -125.5t-125.5 -50.5q-72 0 -122 50.5t-50 125.5z" />
    <glyph glyph-name="aring" unicode="&#xe5;" horiz-adv-x="1228" 
d="M670 1014q74 0 147 -37l12 53h289l-151 -801q-13 -71 -6 -97t34 -26q46 0 156 127l45 -36q-37 -54 -66 -88t-69.5 -69t-88.5 -52t-106 -17q-97 0 -150.5 59.5t-51.5 159.5q-126 -219 -349 -219q-63 0 -112 20t-79 52.5t-50 76t-27.5 86.5t-7.5 89q0 118 37 230t100.5 199
t144 153.5t171 101.5t178.5 35zM471 123q93 0 207 168l98 526q-21 113 -108 113q-57 0 -115.5 -60.5t-102 -150.5t-71 -199t-27.5 -203q0 -91 29.5 -142.5t89.5 -51.5zM823 1546q78 0 131.5 -51.5t53.5 -126.5q0 -98 -68.5 -160.5t-171.5 -62.5q-78 0 -130 51t-52 125
q0 93 70.5 159t166.5 66zM809 1458q-55 0 -89 -36t-34 -95q0 -42 25.5 -68t70.5 -26q58 0 92.5 34t34.5 93q0 46 -28 72t-72 26z" />
    <glyph glyph-name="ae" unicode="&#xe6;" horiz-adv-x="1568" 
d="M670 1014q66 0 140.5 -35.5t117.5 -106.5q171 164 375 164q77 0 132.5 -15t82.5 -40t39 -49.5t12 -50.5q0 -45 -18 -87t-47 -75t-74 -65t-89.5 -55.5t-104 -48.5t-107.5 -43t-108 -39q-3 -1 -5 -1.5t-4 -1.5q-4 -41 -4 -98q0 -132 32 -188t93 -56q155 0 305 248l49 -25
q-178 -375 -502 -375q-117 0 -192.5 69.5t-92.5 207.5q-138 -277 -385 -277q-63 0 -112 20t-79 52.5t-50 76t-27.5 86.5t-7.5 89q0 118 37 230t100.5 199t144 153.5t171 101.5t178.5 35zM463 123q118 0 233 196q0 84 19 168l61 330q-21 113 -108 113q-57 0 -115.5 -60.5
t-102 -150.5t-71 -199t-27.5 -203q0 -90 28.5 -142t82.5 -52zM1243 958q-48 0 -88 -41.5t-66.5 -111t-43.5 -140.5t-27 -149q120 59 203.5 146.5t83.5 183.5q0 65 -16.5 88.5t-45.5 23.5z" />
    <glyph glyph-name="ccedilla" unicode="&#xe7;" horiz-adv-x="892" 
d="M791 358l49 -28q-165 -344 -478 -357l-137 -166q78 54 146 54q59 0 95 -30t36 -85q0 -63 -42.5 -116t-108.5 -87t-137 -54t-138 -26v37q98 20 170.5 88.5t72.5 141.5q0 27 -16 42t-43 15q-32 0 -65 -23l-43 39l139 172q-114 14 -183 100.5t-69 243.5q0 93 27.5 192.5
t81.5 193t126.5 167.5t171.5 119t207 45q114 0 182 -50t68 -120q0 -47 -28.5 -81.5t-88.5 -34.5q-44 0 -71 21.5t-37 52t-17.5 61t-22.5 52t-42 21.5q-63 0 -119 -93.5t-87.5 -229.5t-31.5 -268q0 -244 127 -244q69 0 148.5 54.5t157.5 180.5z" />
    <glyph glyph-name="egrave" unicode="&#xe8;" horiz-adv-x="933" 
d="M39 319q0 138 51 270t134 229.5t196.5 157.5t232.5 60q77 0 132.5 -15t83 -40t39.5 -49.5t12 -50.5q0 -63 -34.5 -118.5t-86.5 -95.5t-129 -78.5t-145 -64.5t-153 -56q-7 -2 -10 -3q-4 -41 -4 -98q0 -132 32 -188t93 -56q155 0 305 248l50 -25q-178 -375 -502 -375
q-132 0 -214.5 87.5t-82.5 260.5zM594 958q-48 0 -88 -41.5t-66.5 -111t-43.5 -140.5t-27 -149q120 59 203 146.5t83 183.5q0 65 -16 88.5t-45 23.5zM621 1583l98 -428h-60l-376 428h338z" />
    <glyph glyph-name="eacute" unicode="&#xe9;" horiz-adv-x="933" 
d="M39 319q0 138 51 270t134 229.5t196.5 157.5t232.5 60q77 0 132.5 -15t83 -40t39.5 -49.5t12 -50.5q0 -63 -34.5 -118.5t-86.5 -95.5t-129 -78.5t-145 -64.5t-153 -56q-7 -2 -10 -3q-4 -41 -4 -98q0 -132 32 -188t93 -56q155 0 305 248l50 -25q-178 -375 -502 -375
q-132 0 -214.5 87.5t-82.5 260.5zM594 958q-48 0 -88 -41.5t-66.5 -111t-43.5 -140.5t-27 -149q120 59 203 146.5t83 183.5q0 65 -16 88.5t-45 23.5zM496 1155l231 428h340l-512 -428h-59z" />
    <glyph glyph-name="ecircumflex" unicode="&#xea;" horiz-adv-x="933" 
d="M39 319q0 138 51 270t134 229.5t196.5 157.5t232.5 60q77 0 132.5 -15t83 -40t39.5 -49.5t12 -50.5q0 -63 -34.5 -118.5t-86.5 -95.5t-129 -78.5t-145 -64.5t-153 -56q-7 -2 -10 -3q-4 -41 -4 -98q0 -132 32 -188t93 -56q155 0 305 248l50 -25q-178 -375 -502 -375
q-132 0 -214.5 87.5t-82.5 260.5zM594 958q-48 0 -88 -41.5t-66.5 -111t-43.5 -140.5t-27 -149q120 59 203 146.5t83 183.5q0 65 -16 88.5t-45 23.5zM317 1178l353 403h94l225 -401l-39 -37l-268 207l-326 -209z" />
    <glyph glyph-name="edieresis" unicode="&#xeb;" horiz-adv-x="933" 
d="M39 319q0 138 51 270t134 229.5t196.5 157.5t232.5 60q77 0 132.5 -15t83 -40t39.5 -49.5t12 -50.5q0 -63 -34.5 -118.5t-86.5 -95.5t-129 -78.5t-145 -64.5t-153 -56q-7 -2 -10 -3q-4 -41 -4 -98q0 -132 32 -188t93 -56q155 0 305 248l50 -25q-178 -375 -502 -375
q-132 0 -214.5 87.5t-82.5 260.5zM594 958q-48 0 -88 -41.5t-66.5 -111t-43.5 -140.5t-27 -149q120 59 203 146.5t83 183.5q0 65 -16 88.5t-45 23.5zM260 1372q0 72 50 122t122 50q75 0 125.5 -50t50.5 -122q0 -75 -50.5 -125.5t-125.5 -50.5q-72 0 -122 50.5t-50 125.5z
M731 1372q0 72 50 122t122 50q75 0 125.5 -50t50.5 -122q0 -75 -50.5 -125.5t-125.5 -50.5q-72 0 -122 50.5t-50 125.5z" />
    <glyph glyph-name="igrave" unicode="&#xec;" horiz-adv-x="700" 
d="M150 262l98 504q24 119 -51 119q-42 0 -134 -62l-32 41q48 53 101 90.5t99 54t79 23t61 6.5q113 0 155.5 -69.5t8.5 -245.5l-93 -494q-12 -71 -5 -97t34 -26q48 0 158 127l45 -36q-37 -54 -66 -88t-69.5 -69t-88.5 -52t-106 -17q-117 0 -168.5 77.5t-25.5 213.5z
M414 1583l98 -428h-59l-377 428h338z" />
    <glyph glyph-name="iacute" unicode="&#xed;" horiz-adv-x="700" 
d="M152 1155l231 428h340l-512 -428h-59zM150 262l98 504q24 119 -51 119q-42 0 -134 -62l-32 41q48 53 101 90.5t99 54t79 23t61 6.5q113 0 155.5 -69.5t8.5 -245.5l-93 -494q-12 -71 -5 -97t34 -26q48 0 158 127l45 -36q-37 -54 -66 -88t-69.5 -69t-88.5 -52t-106 -17
q-117 0 -168.5 77.5t-25.5 213.5z" />
    <glyph glyph-name="icircumflex" unicode="&#xee;" horiz-adv-x="700" 
d="M20 1178l353 403h94l225 -401l-39 -37l-268 207l-326 -209zM150 262l98 504q24 119 -51 119q-42 0 -134 -62l-32 41q48 53 101 90.5t99 54t79 23t61 6.5q113 0 155.5 -69.5t8.5 -245.5l-93 -494q-12 -71 -5 -97t34 -26q48 0 158 127l45 -36q-37 -54 -66 -88t-69.5 -69
t-88.5 -52t-106 -17q-117 0 -168.5 77.5t-25.5 213.5z" />
    <glyph glyph-name="idieresis" unicode="&#xef;" horiz-adv-x="700" 
d="M-12 1372q0 72 50 122t122 50q75 0 125.5 -50t50.5 -122q0 -75 -50.5 -125.5t-125.5 -50.5q-72 0 -122 50.5t-50 125.5zM459 1372q0 72 50 122t122 50q75 0 125.5 -50t50.5 -122q0 -75 -50.5 -125.5t-125.5 -50.5q-72 0 -122 50.5t-50 125.5zM150 262l98 504
q24 119 -51 119q-42 0 -134 -62l-32 41q48 53 101 90.5t99 54t79 23t61 6.5q113 0 155.5 -69.5t8.5 -245.5l-93 -494q-12 -71 -5 -97t34 -26q48 0 158 127l45 -36q-37 -54 -66 -88t-69.5 -69t-88.5 -52t-106 -17q-117 0 -168.5 77.5t-25.5 213.5z" />
    <glyph glyph-name="eth" unicode="&#xf0;" horiz-adv-x="1277" 
d="M360 1192l-65 80l246 213q-116 110 -267 178l27 63q185 -61 334 -159l246 215l65 -80l-225 -195q198 -150 317 -353.5t119 -436.5q0 -117 -28 -227.5t-84 -204.5t-134 -164t-183 -110t-226 -40q-227 0 -364.5 136t-137.5 354q0 113 33.5 209t89.5 162t128.5 113t151 69
t156.5 22q108 0 183.5 -41.5t117.5 -144.5q-37 318 -248 561zM625 932q-76 0 -138.5 -53t-101 -137t-59.5 -181.5t-21 -193.5q0 -143 54.5 -222t164.5 -79q72 0 134 50t101.5 130t62 175t22.5 189q0 140 -56 231t-163 91z" />
    <glyph glyph-name="ntilde" unicode="&#xf1;" horiz-adv-x="1261" 
d="M1067 578l-59 -349q-9 -46 -8 -73.5t9.5 -38.5t26.5 -11q46 0 156 127l45 -36q-37 -54 -66 -88t-69.5 -69t-88.5 -52t-106 -17q-120 0 -169.5 77.5t-24.5 213.5l57 320q47 268 -41 268q-45 0 -105 -72.5t-116 -197.5l-96 -580h-299l125 766q19 119 -52 119
q-41 0 -133 -62l-33 41q48 53 102.5 90.5t103 54t83 23t62.5 6.5q52 0 86 -15t56.5 -52.5t22.5 -102t-14 -163.5q66 178 157 255.5t206 77.5q57 0 98 -18.5t62.5 -54t33 -76.5t10.5 -97t-6 -104.5t-16 -109.5zM283 1245q35 69 61.5 114t61.5 90t73 67t80 22q48 0 105 -22.5
t101 -50t99 -50t99 -22.5q84 0 159 86l41 -21q-28 -53 -49 -89.5t-49 -76t-54 -63.5t-58.5 -39.5t-67.5 -15.5q-54 0 -113 22.5t-101.5 49t-94.5 49t-93 22.5q-82 0 -161 -94z" />
    <glyph glyph-name="ograve" unicode="&#xf2;" horiz-adv-x="1114" 
d="M43 311q0 141 60 276.5t153 232.5t209.5 156.5t226.5 59.5q107 0 184.5 -30t118 -81t58.5 -107.5t18 -121.5q0 -141 -59.5 -276.5t-152.5 -232.5t-209 -156.5t-226 -59.5q-87 0 -155 20.5t-109.5 53t-68.5 78t-37.5 91.5t-10.5 97zM365 365q0 -74 4 -125t16 -96t35 -67
t59 -22q57 0 105 44.5t78 112t51.5 149.5t30 153.5t8.5 128.5q0 73 -4.5 124t-17 94.5t-36 65t-59.5 21.5q-57 0 -105 -44t-77.5 -110.5t-50 -148t-29 -152.5t-8.5 -128zM676 1583l98 -428h-59l-377 428h338z" />
    <glyph glyph-name="oacute" unicode="&#xf3;" horiz-adv-x="1114" 
d="M43 311q0 141 60 276.5t153 232.5t209.5 156.5t226.5 59.5q107 0 184.5 -30t118 -81t58.5 -107.5t18 -121.5q0 -141 -59.5 -276.5t-152.5 -232.5t-209 -156.5t-226 -59.5q-87 0 -155 20.5t-109.5 53t-68.5 78t-37.5 91.5t-10.5 97zM365 365q0 -74 4 -125t16 -96t35 -67
t59 -22q57 0 105 44.5t78 112t51.5 149.5t30 153.5t8.5 128.5q0 73 -4.5 124t-17 94.5t-36 65t-59.5 21.5q-57 0 -105 -44t-77.5 -110.5t-50 -148t-29 -152.5t-8.5 -128zM496 1155l231 428h340l-512 -428h-59z" />
    <glyph glyph-name="ocircumflex" unicode="&#xf4;" horiz-adv-x="1114" 
d="M43 311q0 141 60 276.5t153 232.5t209.5 156.5t226.5 59.5q107 0 184.5 -30t118 -81t58.5 -107.5t18 -121.5q0 -141 -59.5 -276.5t-152.5 -232.5t-209 -156.5t-226 -59.5q-87 0 -155 20.5t-109.5 53t-68.5 78t-37.5 91.5t-10.5 97zM365 365q0 -74 4 -125t16 -96t35 -67
t59 -22q57 0 105 44.5t78 112t51.5 149.5t30 153.5t8.5 128.5q0 73 -4.5 124t-17 94.5t-36 65t-59.5 21.5q-57 0 -105 -44t-77.5 -110.5t-50 -148t-29 -152.5t-8.5 -128zM348 1178l352 403h95l225 -401l-39 -37l-268 207l-326 -209z" />
    <glyph glyph-name="otilde" unicode="&#xf5;" horiz-adv-x="1114" 
d="M43 311q0 141 60 276.5t153 232.5t209.5 156.5t226.5 59.5q107 0 184.5 -30t118 -81t58.5 -107.5t18 -121.5q0 -141 -59.5 -276.5t-152.5 -232.5t-209 -156.5t-226 -59.5q-87 0 -155 20.5t-109.5 53t-68.5 78t-37.5 91.5t-10.5 97zM365 365q0 -74 4 -125t16 -96t35 -67
t59 -22q57 0 105 44.5t78 112t51.5 149.5t30 153.5t8.5 128.5q0 73 -4.5 124t-17 94.5t-36 65t-59.5 21.5q-57 0 -105 -44t-77.5 -110.5t-50 -148t-29 -152.5t-8.5 -128zM301 1245q35 69 61.5 114t62 90t73.5 67t80 22q48 0 104.5 -22.5t100.5 -50t99 -50t99 -22.5
q85 0 160 86l41 -21q-35 -67 -62 -111t-62 -87.5t-73.5 -64.5t-81.5 -21q-54 0 -112.5 22.5t-101 49t-94.5 49t-93 22.5q-83 0 -162 -94z" />
    <glyph glyph-name="odieresis" unicode="&#xf6;" horiz-adv-x="1114" 
d="M43 311q0 141 60 276.5t153 232.5t209.5 156.5t226.5 59.5q107 0 184.5 -30t118 -81t58.5 -107.5t18 -121.5q0 -141 -59.5 -276.5t-152.5 -232.5t-209 -156.5t-226 -59.5q-87 0 -155 20.5t-109.5 53t-68.5 78t-37.5 91.5t-10.5 97zM365 365q0 -74 4 -125t16 -96t35 -67
t59 -22q57 0 105 44.5t78 112t51.5 149.5t30 153.5t8.5 128.5q0 73 -4.5 124t-17 94.5t-36 65t-59.5 21.5q-57 0 -105 -44t-77.5 -110.5t-50 -148t-29 -152.5t-8.5 -128zM365 1372q0 72 50 122t122 50q75 0 125.5 -50t50.5 -122q0 -75 -50.5 -125.5t-125.5 -50.5
q-72 0 -122 50.5t-50 125.5zM836 1372q0 72 50 122t122 50q75 0 125.5 -50t50.5 -122q0 -75 -50.5 -125.5t-125.5 -50.5q-72 0 -122 50.5t-50 125.5z" />
    <glyph glyph-name="divide" unicode="&#xf7;" horiz-adv-x="1134" 
d="M92 457l19 112h929l-18 -112h-930zM434 850q0 79 55.5 134.5t135.5 55.5q84 0 140 -55t56 -135q0 -85 -55.5 -141t-140.5 -56q-80 0 -135.5 56.5t-55.5 140.5zM317 168q0 79 55.5 134.5t135.5 55.5q84 0 140.5 -55t56.5 -135q0 -85 -56 -141t-141 -56q-80 0 -135.5 56.5
t-55.5 140.5z" />
    <glyph glyph-name="oslash" unicode="&#xf8;" horiz-adv-x="1114" 
d="M43 311q0 141 60 276.5t153 232.5t209.5 156.5t226.5 59.5q104 0 180 -28l74 98h127l-112 -150q110 -91 110 -260q0 -141 -59.5 -276.5t-152.5 -232.5t-209 -156.5t-226 -59.5q-95 0 -184 29l-74 -96h-123l111 145q-111 90 -111 262zM479 55q57 0 105 44.5t78 112
t51.5 149.5t30 153.5t8.5 128.5v37l-377 -498q22 -127 104 -127zM365 365v-35l374 499q-26 119 -104 119q-57 0 -105 -44t-77.5 -110.5t-50 -148t-29 -152.5t-8.5 -128z" />
    <glyph glyph-name="ugrave" unicode="&#xf9;" horiz-adv-x="1259" 
d="M735 305q-66 -178 -156.5 -256t-205.5 -78q-57 0 -98 18.5t-63 54t-33.5 77t-11 97t6 105t16.5 109.5l62 334q21 119 -51 119q-41 0 -133 -62l-33 41q48 53 102.5 90.5t102.5 54t82.5 23t62.5 6.5q57 0 92 -15t57 -52.5t21 -102t-16 -163.5l-50 -277q-47 -268 39 -268
q45 0 105.5 73t116.5 197l92 553h299l-123 -754q-11 -71 -4.5 -97t33.5 -26q45 0 155 127l45 -36q-37 -54 -65.5 -88t-69 -69t-88.5 -52t-106 -17q-119 0 -166.5 91t-16.5 243zM709 1583l98 -428h-59l-377 428h338z" />
    <glyph glyph-name="uacute" unicode="&#xfa;" horiz-adv-x="1259" 
d="M735 305q-66 -178 -156.5 -256t-205.5 -78q-57 0 -98 18.5t-63 54t-33.5 77t-11 97t6 105t16.5 109.5l62 334q21 119 -51 119q-41 0 -133 -62l-33 41q48 53 102.5 90.5t102.5 54t82.5 23t62.5 6.5q57 0 92 -15t57 -52.5t21 -102t-16 -163.5l-50 -277q-47 -268 39 -268
q45 0 105.5 73t116.5 197l92 553h299l-123 -754q-11 -71 -4.5 -97t33.5 -26q45 0 155 127l45 -36q-37 -54 -65.5 -88t-69 -69t-88.5 -52t-106 -17q-119 0 -166.5 91t-16.5 243zM631 1155l231 428h340l-512 -428h-59z" />
    <glyph glyph-name="ucircumflex" unicode="&#xfb;" horiz-adv-x="1259" 
d="M735 305q-66 -178 -156.5 -256t-205.5 -78q-57 0 -98 18.5t-63 54t-33.5 77t-11 97t6 105t16.5 109.5l62 334q21 119 -51 119q-41 0 -133 -62l-33 41q48 53 102.5 90.5t102.5 54t82.5 23t62.5 6.5q57 0 92 -15t57 -52.5t21 -102t-16 -163.5l-50 -277q-47 -268 39 -268
q45 0 105.5 73t116.5 197l92 553h299l-123 -754q-11 -71 -4.5 -97t33.5 -26q45 0 155 127l45 -36q-37 -54 -65.5 -88t-69 -69t-88.5 -52t-106 -17q-119 0 -166.5 91t-16.5 243zM375 1178l352 403h94l226 -401l-39 -37l-269 207l-325 -209z" />
    <glyph glyph-name="udieresis" unicode="&#xfc;" horiz-adv-x="1259" 
d="M735 305q-66 -178 -156.5 -256t-205.5 -78q-57 0 -98 18.5t-63 54t-33.5 77t-11 97t6 105t16.5 109.5l62 334q21 119 -51 119q-41 0 -133 -62l-33 41q48 53 102.5 90.5t102.5 54t82.5 23t62.5 6.5q57 0 92 -15t57 -52.5t21 -102t-16 -163.5l-50 -277q-47 -268 39 -268
q45 0 105.5 73t116.5 197l92 553h299l-123 -754q-11 -71 -4.5 -97t33.5 -26q45 0 155 127l45 -36q-37 -54 -65.5 -88t-69 -69t-88.5 -52t-106 -17q-119 0 -166.5 91t-16.5 243zM342 1372q0 72 50 122t122 50q75 0 125.5 -50t50.5 -122q0 -75 -50.5 -125.5t-125.5 -50.5
q-72 0 -122 50.5t-50 125.5zM813 1372q0 72 50 122t122 50q75 0 125.5 -50t50.5 -122q0 -75 -50.5 -125.5t-125.5 -50.5q-72 0 -122 50.5t-50 125.5z" />
    <glyph glyph-name="yacute" unicode="&#xfd;" horiz-adv-x="1042" 
d="M283 1030q81 0 143 -46t100 -127t57.5 -192t19 -241t-18.5 -274q244 277 282 403q16 62 11 96t-24 66t-39.5 53.5t-37 57.5t-16.5 79q0 56 35 90.5t104 34.5q79 0 116.5 -55.5t37.5 -147.5q0 -81 -30.5 -173t-78 -177t-119 -181t-140.5 -175.5t-155 -169.5
q-278 -292 -509 -434t-390 -142q-116 0 -186 53t-70 136q0 42 33 74t92 32q36 0 66 -18t50.5 -43.5t38.5 -51t40 -43.5t47 -18q66 0 225.5 107t337.5 268q13 108 14 243.5t-10.5 269.5t-33.5 247t-58.5 183.5t-81.5 70.5q-16 0 -25 -2t-26 -10.5t-34.5 -32t-35.5 -60.5
l-47 25q79 225 316 225zM500 1155l231 428h340l-512 -428h-59z" />
    <glyph glyph-name="thorn" unicode="&#xfe;" horiz-adv-x="1249" 
d="M197 1614l493 24l-131 -835q38 67 84 115.5t92.5 73t88 35.5t83.5 11q63 0 114.5 -20.5t85 -54t56 -77t32 -88t9.5 -89.5q0 -95 -28.5 -190.5t-76 -175t-111 -149.5t-132 -118.5t-140.5 -76.5t-136 -28q-74 0 -146 35l-65 -424q-9 -58 10 -79t100 -33l84 -13l-8 -57h-684
l8 57l86 13q55 7 75.5 30.5t29.5 81.5l288 1850q10 59 -2.5 82.5t-64.5 29.5l-105 12zM606 61q69 0 126.5 65t89.5 160t49.5 188.5t17.5 164.5q0 250 -109 250q-17 0 -41 -9.5t-57 -31t-71 -66.5t-72 -108l-72 -467q22 -69 61.5 -107.5t77.5 -38.5z" />
    <glyph glyph-name="ydieresis" unicode="&#xff;" horiz-adv-x="1042" 
d="M283 1030q81 0 143 -46t100 -127t57.5 -192t19 -241t-18.5 -274q244 277 282 403q16 62 11 96t-24 66t-39.5 53.5t-37 57.5t-16.5 79q0 56 35 90.5t104 34.5q79 0 116.5 -55.5t37.5 -147.5q0 -81 -30.5 -173t-78 -177t-119 -181t-140.5 -175.5t-155 -169.5
q-278 -292 -509 -434t-390 -142q-116 0 -186 53t-70 136q0 42 33 74t92 32q36 0 66 -18t50.5 -43.5t38.5 -51t40 -43.5t47 -18q66 0 225.5 107t337.5 268q13 108 14 243.5t-10.5 269.5t-33.5 247t-58.5 183.5t-81.5 70.5q-16 0 -25 -2t-26 -10.5t-34.5 -32t-35.5 -60.5
l-47 25q79 225 316 225zM254 1372q0 72 50 122t122 50q75 0 125.5 -50t50.5 -122q0 -75 -50.5 -125.5t-125.5 -50.5q-72 0 -122 50.5t-50 125.5zM725 1372q0 72 50 122t122 50q75 0 125.5 -50t50.5 -122q0 -75 -50.5 -125.5t-125.5 -50.5q-72 0 -122 50.5t-50 125.5z" />
    <glyph glyph-name="Amacron" unicode="&#x100;" horiz-adv-x="1609" 
d="M1004 211l-58 268h-512l-108 -215q-23 -44 -32.5 -77t-4 -53.5t15.5 -33.5t33.5 -20.5t41.5 -10.5t48 -6t45 -6l-10 -57h-584l10 59q125 9 193.5 59.5t140.5 188.5l674 1305h100l349 -1409q8 -32 22.5 -56t28.5 -37t36.5 -23t37 -13.5t40.5 -8.5t37 -8l-10 -57h-741
l10 57q78 6 123.5 19t62 32t18.5 45t-7 58zM797 1194l-287 -565h405zM569 1767l19 113h766l-19 -113h-766z" />
    <glyph glyph-name="amacron" unicode="&#x101;" horiz-adv-x="1228" 
d="M670 1014q74 0 147 -37l12 53h289l-151 -801q-13 -71 -6 -97t34 -26q46 0 156 127l45 -36q-37 -54 -66 -88t-69.5 -69t-88.5 -52t-106 -17q-97 0 -150.5 59.5t-51.5 159.5q-126 -219 -349 -219q-63 0 -112 20t-79 52.5t-50 76t-27.5 86.5t-7.5 89q0 118 37 230t100.5 199
t144 153.5t171 101.5t178.5 35zM471 123q93 0 207 168l98 526q-21 113 -108 113q-57 0 -115.5 -60.5t-102 -150.5t-71 -199t-27.5 -203q0 -91 29.5 -142.5t89.5 -51.5zM406 1270l18 112h766l-19 -112h-765z" />
    <glyph glyph-name="Abreve" unicode="&#x102;" horiz-adv-x="1609" 
d="M1004 211l-58 268h-512l-108 -215q-23 -44 -32.5 -77t-4 -53.5t15.5 -33.5t33.5 -20.5t41.5 -10.5t48 -6t45 -6l-10 -57h-584l10 59q125 9 193.5 59.5t140.5 188.5l674 1305h100l349 -1409q8 -32 22.5 -56t28.5 -37t36.5 -23t37 -13.5t40.5 -8.5t37 -8l-10 -57h-741
l10 57q78 6 123.5 19t62 32t18.5 45t-7 58zM797 1194l-287 -565h405zM989 1784q92 0 147 52.5t87 174.5h116q-13 -61 -35.5 -111t-48 -83.5t-57 -58.5t-60.5 -39t-61.5 -22.5t-56 -11t-47.5 -2.5q-33 0 -67.5 5.5t-78.5 24.5t-77.5 49.5t-56.5 86.5t-23 129v33h121v-14
q0 -108 55 -160.5t143 -52.5z" />
    <glyph glyph-name="abreve" unicode="&#x103;" horiz-adv-x="1228" 
d="M670 1014q74 0 147 -37l12 53h289l-151 -801q-13 -71 -6 -97t34 -26q46 0 156 127l45 -36q-37 -54 -66 -88t-69.5 -69t-88.5 -52t-106 -17q-97 0 -150.5 59.5t-51.5 159.5q-126 -219 -349 -219q-63 0 -112 20t-79 52.5t-50 76t-27.5 86.5t-7.5 89q0 118 37 230t100.5 199
t144 153.5t171 101.5t178.5 35zM471 123q93 0 207 168l98 526q-21 113 -108 113q-57 0 -115.5 -60.5t-102 -150.5t-71 -199t-27.5 -203q0 -91 29.5 -142.5t89.5 -51.5zM825 1266q92 0 147 52.5t87 174.5h117q-15 -71 -42 -126.5t-60.5 -90t-68 -58t-73 -34.5t-67 -15
t-56.5 -4q-33 0 -67.5 5.5t-78.5 24.5t-77.5 49.5t-56.5 86.5t-23 129l2 33h119v-14q0 -108 55 -160.5t143 -52.5z" />
    <glyph glyph-name="Aogonek" unicode="&#x104;" horiz-adv-x="1609" 
d="M1241 -406l6 -30q-100 -74 -213 -74q-74 0 -127 39.5t-53 110.5q0 52 25 101.5t74.5 94.5t105 82.5t133.5 81.5h-395l10 57q78 6 123.5 19t62 32t18.5 45t-7 58l-58 268h-512l-108 -215q-23 -44 -32.5 -77t-4 -53.5t15.5 -33.5t33.5 -20.5t41.5 -10.5t48 -6t45 -6
l-10 -57h-584l10 59q125 9 193.5 59.5t140.5 188.5l674 1305h100l349 -1409q8 -32 22.5 -56t28.5 -37t36.5 -23t37 -13.5t40.5 -8.5t37 -8l-10 -57h-303q-184 -160 -184 -319q0 -52 30 -76.5t78 -24.5q31 0 82 14zM797 1194l-287 -565h405z" />
    <glyph glyph-name="aogonek" unicode="&#x105;" horiz-adv-x="1228" 
d="M928 -408l6 -30q-100 -74 -213 -74q-74 0 -127 39.5t-53 110.5q0 92 76 171t219 164q-84 9 -129 67t-43 150q-126 -219 -349 -219q-63 0 -112 20t-79 52.5t-50 76t-27.5 86.5t-7.5 89q0 118 37 230t100.5 199t144 153.5t171 101.5t178.5 35q74 0 147 -37l12 53h289
l-151 -801q-13 -71 -6 -97t34 -26q46 0 156 127l45 -36q-35 -51 -62 -83.5t-64.5 -66.5t-80.5 -52t-94 -22q-158 -152 -158 -295q0 -52 30 -76t79 -24q31 0 82 14zM471 123q93 0 207 168l98 526q-21 113 -108 113q-57 0 -115.5 -60.5t-102 -150.5t-71 -199t-27.5 -203
q0 -91 29.5 -142.5t89.5 -51.5z" />
    <glyph glyph-name="Cacute" unicode="&#x106;" horiz-adv-x="1611" 
d="M1485 461l-88 -346q-101 -76 -244.5 -110t-296.5 -34q-141 0 -266 39.5t-218.5 110t-161.5 165t-103 206.5t-35 233q0 253 119.5 454.5t331.5 314t476 112.5q309 0 594 -127l-28 -363h-54q-15 78 -51 142.5t-83.5 108.5t-107 74t-122.5 44t-129 14q-121 0 -223.5 -45
t-174.5 -122t-122.5 -181t-74.5 -222t-24 -245q0 -154 37 -271t103 -188t150.5 -106t184.5 -35q359 0 551 377h60zM846 1673l231 428h340l-512 -428h-59z" />
    <glyph glyph-name="cacute" unicode="&#x107;" horiz-adv-x="892" 
d="M791 358l49 -28q-170 -359 -504 -359q-132 0 -214.5 87.5t-82.5 260.5q0 93 27.5 192.5t81.5 193t126.5 167.5t171.5 119t207 45q114 0 182 -50t68 -120q0 -47 -28.5 -81.5t-88.5 -34.5q-44 0 -71 21.5t-37 52t-17.5 61t-22.5 52t-42 21.5q-63 0 -119 -93.5t-87.5 -229.5
t-31.5 -268q0 -244 127 -244q69 0 148.5 54.5t157.5 180.5zM528 1155l232 428h340l-512 -428h-60z" />
    <glyph glyph-name="Ccircumflex" unicode="&#x108;" horiz-adv-x="1611" 
d="M1485 461l-88 -346q-101 -76 -244.5 -110t-296.5 -34q-141 0 -266 39.5t-218.5 110t-161.5 165t-103 206.5t-35 233q0 253 119.5 454.5t331.5 314t476 112.5q309 0 594 -127l-28 -363h-54q-15 78 -51 142.5t-83.5 108.5t-107 74t-122.5 44t-129 14q-121 0 -223.5 -45
t-174.5 -122t-122.5 -181t-74.5 -222t-24 -245q0 -154 37 -271t103 -188t150.5 -106t184.5 -35q359 0 551 377h60zM698 1696l353 403h94l225 -401l-39 -37l-268 207l-326 -209z" />
    <glyph glyph-name="ccircumflex" unicode="&#x109;" horiz-adv-x="892" 
d="M791 358l49 -28q-170 -359 -504 -359q-132 0 -214.5 87.5t-82.5 260.5q0 93 27.5 192.5t81.5 193t126.5 167.5t171.5 119t207 45q114 0 182 -50t68 -120q0 -47 -28.5 -81.5t-88.5 -34.5q-44 0 -71 21.5t-37 52t-17.5 61t-22.5 52t-42 21.5q-63 0 -119 -93.5t-87.5 -229.5
t-31.5 -268q0 -244 127 -244q69 0 148.5 54.5t157.5 180.5zM295 1178l352 403h94l226 -401l-39 -37l-269 207l-325 -209z" />
    <glyph glyph-name="Cdotaccent" unicode="&#x10a;" horiz-adv-x="1611" 
d="M1485 461l-88 -346q-101 -76 -244.5 -110t-296.5 -34q-141 0 -266 39.5t-218.5 110t-161.5 165t-103 206.5t-35 233q0 253 119.5 454.5t331.5 314t476 112.5q309 0 594 -127l-28 -363h-54q-15 78 -51 142.5t-83.5 108.5t-107 74t-122.5 44t-129 14q-121 0 -223.5 -45
t-174.5 -122t-122.5 -181t-74.5 -222t-24 -245q0 -154 37 -271t103 -188t150.5 -106t184.5 -35q359 0 551 377h60zM903 1894q0 78 55.5 133.5t133.5 55.5t133 -55.5t55 -133.5t-55 -133t-133 -55t-133.5 55t-55.5 133z" />
    <glyph glyph-name="cdotaccent" unicode="&#x10b;" horiz-adv-x="892" 
d="M791 358l49 -28q-170 -359 -504 -359q-132 0 -214.5 87.5t-82.5 260.5q0 93 27.5 192.5t81.5 193t126.5 167.5t171.5 119t207 45q114 0 182 -50t68 -120q0 -47 -28.5 -81.5t-88.5 -34.5q-44 0 -71 21.5t-37 52t-17.5 61t-22.5 52t-42 21.5q-63 0 -119 -93.5t-87.5 -229.5
t-31.5 -268q0 -244 127 -244q69 0 148.5 54.5t157.5 180.5zM524 1376q0 78 55.5 133.5t133.5 55.5t133 -55.5t55 -133.5t-55 -133t-133 -55t-133.5 55t-55.5 133z" />
    <glyph glyph-name="Ccaron" unicode="&#x10c;" horiz-adv-x="1611" 
d="M1485 461l-88 -346q-101 -76 -244.5 -110t-296.5 -34q-141 0 -266 39.5t-218.5 110t-161.5 165t-103 206.5t-35 233q0 253 119.5 454.5t331.5 314t476 112.5q309 0 594 -127l-28 -363h-54q-15 78 -51 142.5t-83.5 108.5t-107 74t-122.5 44t-129 14q-121 0 -223.5 -45
t-174.5 -122t-122.5 -181t-74.5 -222t-24 -245q0 -154 37 -271t103 -188t150.5 -106t184.5 -35q359 0 551 377h60zM1450 2064l-365 -403h-79l-232 401l43 35l266 -213l326 215z" />
    <glyph glyph-name="ccaron" unicode="&#x10d;" horiz-adv-x="892" 
d="M791 358l49 -28q-170 -359 -504 -359q-132 0 -214.5 87.5t-82.5 260.5q0 93 27.5 192.5t81.5 193t126.5 167.5t171.5 119t207 45q114 0 182 -50t68 -120q0 -47 -28.5 -81.5t-88.5 -34.5q-44 0 -71 21.5t-37 52t-17.5 61t-22.5 52t-42 21.5q-63 0 -119 -93.5t-87.5 -229.5
t-31.5 -268q0 -244 127 -244q69 0 148.5 54.5t157.5 180.5zM1010 1546l-365 -403h-80l-231 401l43 35l266 -213l326 215z" />
    <glyph glyph-name="Dcaron" unicode="&#x10e;" horiz-adv-x="1806" 
d="M-51 0l8 57l98 13q73 8 111 39.5t51 111.5q54 316 55 324l80 495q4 26 15.5 116t29.5 206q13 80 -14.5 111.5t-97.5 39.5l-97 13l9 55q134 0 374.5 3t343.5 3q169 0 306.5 -34.5t232 -95.5t158.5 -147.5t93.5 -187.5t29.5 -217q0 -137 -43.5 -268t-131.5 -246.5
t-210 -202.5t-290.5 -137.5t-361.5 -50.5h-749zM580 545l-43 -285q-4 -27 -5 -48t4 -37.5t11.5 -27.5t21.5 -19t30 -12.5t40.5 -7.5t49.5 -3.5t61 -0.5q118 0 222.5 42.5t183 118t136 177t86.5 222.5t29 251q0 128 -27.5 227.5t-89 177.5t-169.5 119.5t-259 41.5
q-74 0 -135 -4zM1362 2064l-365 -403h-79l-232 401l43 35l266 -213l326 215z" />
    <glyph glyph-name="dcaron" unicode="&#x10f;" horiz-adv-x="1392" 
d="M672 1036q63 0 129 -28l69 424q10 59 -2.5 82.5t-64.5 29.5l-105 12l11 58l493 24l-225 -1409q-10 -71 -3.5 -97t32.5 -26q45 0 155 127l45 -36q-37 -54 -65.5 -88t-69 -69t-88.5 -52t-106 -17q-96 0 -148.5 60.5t-52.5 161.5q-74 -123 -161 -172.5t-198 -49.5
q-67 0 -118 22t-80 56t-47.5 81t-24.5 90t-6 91q0 147 57 283.5t147.5 232t203.5 152.5t223 57zM471 123q111 0 215 168l86 530q-10 62 -38.5 96.5t-63.5 34.5q-77 0 -151 -91t-119.5 -235t-45.5 -292q0 -94 29 -152.5t88 -58.5zM1237 1112l-16 41q133 90 133 152
q0 17 -16 36.5t-34.5 35t-34.5 40t-16 51.5q0 62 46 102t118 40q70 0 104.5 -39.5t34.5 -102.5q0 -72 -52 -146.5t-123 -127.5t-144 -82z" />
    <glyph glyph-name="Dcroat" unicode="&#x110;" horiz-adv-x="1806" 
d="M12 766l17 113h297l26 161q4 26 15.5 116t29.5 206q13 80 -14.5 111.5t-97.5 39.5l-97 13l9 55q134 0 374.5 3t343.5 3q169 0 306.5 -34.5t232 -95.5t158.5 -147.5t93.5 -187.5t29.5 -217q0 -137 -43.5 -268t-131.5 -246.5t-210 -202.5t-290.5 -137.5t-361.5 -50.5h-749
l8 57l98 13q73 8 111 39.5t51 111.5q54 316 55 324l35 221h-295zM580 545l-43 -285q-4 -27 -5 -48t4 -37.5t11.5 -27.5t21.5 -19t30 -12.5t40.5 -7.5t49.5 -3.5t61 -0.5q118 0 222.5 42.5t183 118t136 177t86.5 222.5t29 251q0 128 -27.5 227.5t-89 177.5t-169.5 119.5
t-259 41.5q-74 0 -135 -4l-96 -598h327l-18 -113h-326z" />
    <glyph glyph-name="dcroat" unicode="&#x111;" horiz-adv-x="1236" 
d="M487 1221l15 96h350l18 115q10 59 -2.5 82.5t-64.5 29.5l-105 12l11 58l493 24l-51 -321h203l-15 -96h-204l-158 -992q-10 -71 -3.5 -97t32.5 -26q45 0 155 127l45 -36q-37 -54 -65.5 -88t-69 -69t-88.5 -52t-106 -17q-96 0 -148.5 60.5t-52.5 161.5
q-74 -123 -161 -172.5t-198 -49.5q-67 0 -118 22t-80 56t-47.5 81t-24.5 90t-6 91q0 147 57 283.5t147.5 232t203.5 152.5t223 57q63 0 129 -28l35 213h-349zM471 123q111 0 215 168l86 530q-10 62 -38.5 96.5t-63.5 34.5q-77 0 -151 -91t-119.5 -235t-45.5 -292
q0 -94 29 -152.5t88 -58.5z" />
    <glyph glyph-name="Emacron" unicode="&#x112;" horiz-adv-x="1474" 
d="M199 1583h1257l-57 -397h-62q7 151 -74.5 221t-238.5 70h-297l-94 -596h194q203 0 267 245h55l-94 -600h-60q7 128 -38 188t-146 60h-195l-43 -272l-34 -234q-14 -91 17 -128.5t134 -37.5h225q80 0 145.5 26.5t109.5 72.5t73 99.5t45 115.5h58l-64 -416h-1333l10 57
l98 13q72 8 109.5 39.5t50.5 111.5q11 72 30 176t25 148l80 499l47 320q10 81 -17 112.5t-97 39.5l-97 12zM532 1767l19 113h766l-19 -113h-766z" />
    <glyph glyph-name="emacron" unicode="&#x113;" horiz-adv-x="933" 
d="M39 319q0 138 51 270t134 229.5t196.5 157.5t232.5 60q77 0 132.5 -15t83 -40t39.5 -49.5t12 -50.5q0 -63 -34.5 -118.5t-86.5 -95.5t-129 -78.5t-145 -64.5t-153 -56q-7 -2 -10 -3q-4 -41 -4 -98q0 -132 32 -188t93 -56q155 0 305 248l50 -25q-178 -375 -502 -375
q-132 0 -214.5 87.5t-82.5 260.5zM594 958q-48 0 -88 -41.5t-66.5 -111t-43.5 -140.5t-27 -149q120 59 203 146.5t83 183.5q0 65 -16 88.5t-45 23.5zM279 1270l18 112h766l-19 -112h-765z" />
    <glyph glyph-name="Ebreve" unicode="&#x114;" horiz-adv-x="1474" 
d="M199 1583h1257l-57 -397h-62q7 151 -74.5 221t-238.5 70h-297l-94 -596h194q203 0 267 245h55l-94 -600h-60q7 128 -38 188t-146 60h-195l-43 -272l-34 -234q-14 -91 17 -128.5t134 -37.5h225q80 0 145.5 26.5t109.5 72.5t73 99.5t45 115.5h58l-64 -416h-1333l10 57
l98 13q72 8 109.5 39.5t50.5 111.5q11 72 30 176t25 148l80 499l47 320q10 81 -17 112.5t-97 39.5l-97 12zM948 1784q92 0 147 52.5t87 174.5h116q-13 -61 -35.5 -111t-48 -83.5t-57 -58.5t-60.5 -39t-61.5 -22.5t-56 -11t-47.5 -2.5q-33 0 -67.5 5.5t-78.5 24.5t-77.5 49.5
t-56.5 86.5t-23 129v33h121v-14q0 -108 55 -160.5t143 -52.5z" />
    <glyph glyph-name="ebreve" unicode="&#x115;" horiz-adv-x="933" 
d="M39 319q0 138 51 270t134 229.5t196.5 157.5t232.5 60q77 0 132.5 -15t83 -40t39.5 -49.5t12 -50.5q0 -63 -34.5 -118.5t-86.5 -95.5t-129 -78.5t-145 -64.5t-153 -56q-7 -2 -10 -3q-4 -41 -4 -98q0 -132 32 -188t93 -56q155 0 305 248l50 -25q-178 -375 -502 -375
q-132 0 -214.5 87.5t-82.5 260.5zM594 958q-48 0 -88 -41.5t-66.5 -111t-43.5 -140.5t-27 -149q120 59 203 146.5t83 183.5q0 65 -16 88.5t-45 23.5zM686 1266q92 0 147 52.5t87 174.5h116q-13 -61 -35.5 -111t-48 -83.5t-57 -58.5t-60.5 -39t-61.5 -22.5t-56 -11
t-47.5 -2.5q-33 0 -67.5 5.5t-78.5 24.5t-77.5 49.5t-56.5 86.5t-23 129l2 33h118v-14q0 -108 55.5 -160.5t143.5 -52.5z" />
    <glyph glyph-name="Edotaccent" unicode="&#x116;" horiz-adv-x="1474" 
d="M199 1583h1257l-57 -397h-62q7 151 -74.5 221t-238.5 70h-297l-94 -596h194q203 0 267 245h55l-94 -600h-60q7 128 -38 188t-146 60h-195l-43 -272l-34 -234q-14 -91 17 -128.5t134 -37.5h225q80 0 145.5 26.5t109.5 72.5t73 99.5t45 115.5h58l-64 -416h-1333l10 57
l98 13q72 8 109.5 39.5t50.5 111.5q11 72 30 176t25 148l80 499l47 320q10 81 -17 112.5t-97 39.5l-97 12zM737 1894q0 78 55.5 133.5t133.5 55.5t133 -55.5t55 -133.5t-55 -133t-133 -55t-133.5 55t-55.5 133z" />
    <glyph glyph-name="edotaccent" unicode="&#x117;" horiz-adv-x="933" 
d="M39 319q0 138 51 270t134 229.5t196.5 157.5t232.5 60q77 0 132.5 -15t83 -40t39.5 -49.5t12 -50.5q0 -63 -34.5 -118.5t-86.5 -95.5t-129 -78.5t-145 -64.5t-153 -56q-7 -2 -10 -3q-4 -41 -4 -98q0 -132 32 -188t93 -56q155 0 305 248l50 -25q-178 -375 -502 -375
q-132 0 -214.5 87.5t-82.5 260.5zM594 958q-48 0 -88 -41.5t-66.5 -111t-43.5 -140.5t-27 -149q120 59 203 146.5t83 183.5q0 65 -16 88.5t-45 23.5zM504 1376q0 78 55 133.5t133 55.5t133.5 -55.5t55.5 -133.5t-55.5 -133t-133.5 -55t-133 55t-55 133z" />
    <glyph glyph-name="Eogonek" unicode="&#x118;" horiz-adv-x="1474" 
d="M784 -406l7 -30q-100 -74 -213 -74q-74 0 -127.5 39.5t-53.5 110.5q0 52 25 101.5t74.5 94.5t105 82.5t133.5 81.5h-786l10 57l98 13q72 8 109.5 39.5t50.5 111.5q11 72 30 176t25 148l80 499l47 320q10 81 -17 112.5t-97 39.5l-97 12l11 55h1257l-57 -397h-62
q7 151 -74.5 221t-238.5 70h-297l-94 -596h194q203 0 267 245h55l-94 -600h-60q7 128 -38 188t-146 60h-195l-43 -272l-34 -234q-14 -91 17 -128.5t134 -37.5h225q80 0 145.5 26.5t109.5 72.5t73 99.5t45 115.5h58l-64 -416h-504q-184 -160 -184 -319q0 -52 30 -76.5
t78 -24.5q31 0 82 14z" />
    <glyph glyph-name="eogonek" unicode="&#x119;" horiz-adv-x="933" 
d="M412 -408l6 -30q-100 -74 -213 -74q-74 0 -127 39.5t-53 110.5q0 92 75.5 171t216.5 162q-125 6 -201.5 93.5t-76.5 254.5q0 138 51 270t134 229.5t196.5 157.5t232.5 60q77 0 132.5 -15t83 -40t39.5 -49.5t12 -50.5q0 -63 -34.5 -118.5t-86.5 -95.5t-129 -78.5
t-145 -64.5t-153 -56q-7 -2 -10 -3q-4 -41 -4 -98q0 -132 32 -188t93 -56q155 0 305 248l50 -25q-167 -351 -459 -373q-158 -152 -158 -295q0 -52 30 -76t79 -24q31 0 82 14zM594 958q-48 0 -88 -41.5t-66.5 -111t-43.5 -140.5t-27 -149q120 59 203 146.5t83 183.5
q0 65 -16 88.5t-45 23.5z" />
    <glyph glyph-name="Ecaron" unicode="&#x11a;" horiz-adv-x="1474" 
d="M199 1583h1257l-57 -397h-62q7 151 -74.5 221t-238.5 70h-297l-94 -596h194q203 0 267 245h55l-94 -600h-60q7 128 -38 188t-146 60h-195l-43 -272l-34 -234q-14 -91 17 -128.5t134 -37.5h225q80 0 145.5 26.5t109.5 72.5t73 99.5t45 115.5h58l-64 -416h-1333l10 57
l98 13q72 8 109.5 39.5t50.5 111.5q11 72 30 176t25 148l80 499l47 320q10 81 -17 112.5t-97 39.5l-97 12zM1321 2064l-365 -403h-79l-232 401l43 35l266 -213l326 215z" />
    <glyph glyph-name="ecaron" unicode="&#x11b;" horiz-adv-x="933" 
d="M39 319q0 138 51 270t134 229.5t196.5 157.5t232.5 60q77 0 132.5 -15t83 -40t39.5 -49.5t12 -50.5q0 -63 -34.5 -118.5t-86.5 -95.5t-129 -78.5t-145 -64.5t-153 -56q-7 -2 -10 -3q-4 -41 -4 -98q0 -132 32 -188t93 -56q155 0 305 248l50 -25q-178 -375 -502 -375
q-132 0 -214.5 87.5t-82.5 260.5zM594 958q-48 0 -88 -41.5t-66.5 -111t-43.5 -140.5t-27 -149q120 59 203 146.5t83 183.5q0 65 -16 88.5t-45 23.5zM1063 1546l-365 -403h-80l-231 401l43 35l266 -213l326 215z" />
    <glyph glyph-name="Gcircumflex" unicode="&#x11c;" horiz-adv-x="1699" 
d="M991 678h668l-10 -57q-82 -12 -106.5 -39t-39.5 -125l-49 -305q-109 -88 -280.5 -134.5t-348.5 -46.5q-143 0 -266.5 41.5t-211.5 113.5t-151 168t-93.5 205.5t-30.5 225.5q0 190 71.5 354.5t195 280t295 181t365.5 65.5q325 0 594 -127l-28 -363h-54q-14 82 -51.5 149
t-87 109.5t-109.5 71.5t-116.5 41t-110.5 12q-137 0 -253.5 -54.5t-202 -156.5t-133.5 -257t-48 -347q0 -284 128.5 -442t332.5 -158q270 0 299 168l33 205q13 80 -15 111.5t-100 39.5l-96 13zM721 1696l352 403h94l226 -401l-39 -37l-269 207l-325 -209z" />
    <glyph glyph-name="gcircumflex" unicode="&#x11d;" horiz-adv-x="1200" 
d="M1206 907h-260q78 -97 55 -258q-27 -171 -174.5 -275t-351.5 -104q-47 0 -104 13q-99 -52 -109 -111q-6 -39 21 -57.5t84 -16.5l235 4q232 3 338 -68.5t80 -228.5q-15 -96 -78.5 -175.5t-156 -130t-202 -78t-221.5 -27.5q-217 0 -348 80.5t-110 212.5q10 63 74 117.5
t178 68.5q-59 15 -96.5 52.5t-48.5 74.5t-5 70q5 32 22 66t50 70.5t92.5 64.5t136.5 38q-105 35 -164.5 141.5t-40.5 219.5q30 177 177.5 276.5t334.5 93.5q111 -3 195 -36h412zM561 -139h-207q-86 0 -125 4q-102 -53 -118 -158q-10 -64 7 -109.5t58 -70.5t92.5 -36
t116.5 -11q82 0 161 27t141 86t75 139q6 38 -6.5 64.5t-42.5 40t-66 19t-86 5.5zM604 969q-77 0 -130 -80.5t-77 -218.5q-13 -89 -11.5 -161t30 -118.5t80.5 -46.5q44 0 81 28.5t61.5 75.5t40 95.5t23.5 99.5q27 133 3.5 229.5t-101.5 96.5zM326 1178l352 403h94l225 -401
l-39 -37l-268 207l-325 -209z" />
    <glyph glyph-name="Gbreve" unicode="&#x11e;" horiz-adv-x="1699" 
d="M991 678h668l-10 -57q-82 -12 -106.5 -39t-39.5 -125l-49 -305q-109 -88 -280.5 -134.5t-348.5 -46.5q-143 0 -266.5 41.5t-211.5 113.5t-151 168t-93.5 205.5t-30.5 225.5q0 190 71.5 354.5t195 280t295 181t365.5 65.5q325 0 594 -127l-28 -363h-54q-14 82 -51.5 149
t-87 109.5t-109.5 71.5t-116.5 41t-110.5 12q-137 0 -253.5 -54.5t-202 -156.5t-133.5 -257t-48 -347q0 -284 128.5 -442t332.5 -158q270 0 299 168l33 205q13 80 -15 111.5t-100 39.5l-96 13zM1092 1784q92 0 146.5 52.5t86.5 174.5h117q-15 -71 -42 -126.5t-60.5 -90
t-68 -58t-73 -34.5t-67 -15t-56.5 -4q-33 0 -67.5 5.5t-78.5 24.5t-77.5 49.5t-56.5 86.5t-23 129v33h121v-14q0 -108 55.5 -160.5t143.5 -52.5z" />
    <glyph glyph-name="gbreve" unicode="&#x11f;" horiz-adv-x="1200" 
d="M1206 907h-260q78 -97 55 -258q-27 -171 -174.5 -275t-351.5 -104q-47 0 -104 13q-99 -52 -109 -111q-6 -39 21 -57.5t84 -16.5l235 4q232 3 338 -68.5t80 -228.5q-15 -96 -78.5 -175.5t-156 -130t-202 -78t-221.5 -27.5q-217 0 -348 80.5t-110 212.5q10 63 74 117.5
t178 68.5q-59 15 -96.5 52.5t-48.5 74.5t-5 70q5 32 22 66t50 70.5t92.5 64.5t136.5 38q-105 35 -164.5 141.5t-40.5 219.5q30 177 177.5 276.5t334.5 93.5q111 -3 195 -36h412zM561 -139h-207q-86 0 -125 4q-102 -53 -118 -158q-10 -64 7 -109.5t58 -70.5t92.5 -36
t116.5 -11q82 0 161 27t141 86t75 139q6 38 -6.5 64.5t-42.5 40t-66 19t-86 5.5zM604 969q-77 0 -130 -80.5t-77 -218.5q-13 -89 -11.5 -161t30 -118.5t80.5 -46.5q44 0 81 28.5t61.5 75.5t40 95.5t23.5 99.5q27 133 3.5 229.5t-101.5 96.5zM707 1266q92 0 146.5 52.5
t86.5 174.5h117q-15 -71 -42 -126.5t-60.5 -90t-68 -58t-73 -34.5t-67 -15t-56.5 -4q-33 0 -67.5 5.5t-78.5 24.5t-77.5 49.5t-56.5 86.5t-23 129l2 33h119v-14q0 -108 55.5 -160.5t143.5 -52.5z" />
    <glyph glyph-name="Gdotaccent" unicode="&#x120;" horiz-adv-x="1699" 
d="M991 678h668l-10 -57q-82 -12 -106.5 -39t-39.5 -125l-49 -305q-109 -88 -280.5 -134.5t-348.5 -46.5q-143 0 -266.5 41.5t-211.5 113.5t-151 168t-93.5 205.5t-30.5 225.5q0 190 71.5 354.5t195 280t295 181t365.5 65.5q325 0 594 -127l-28 -363h-54q-14 82 -51.5 149
t-87 109.5t-109.5 71.5t-116.5 41t-110.5 12q-137 0 -253.5 -54.5t-202 -156.5t-133.5 -257t-48 -347q0 -284 128.5 -442t332.5 -158q270 0 299 168l33 205q13 80 -15 111.5t-100 39.5l-96 13zM903 1894q0 78 55.5 133.5t133.5 55.5t133 -55.5t55 -133.5t-55 -133t-133 -55
t-133.5 55t-55.5 133z" />
    <glyph glyph-name="gdotaccent" unicode="&#x121;" horiz-adv-x="1200" 
d="M1206 907h-260q78 -97 55 -258q-27 -171 -174.5 -275t-351.5 -104q-47 0 -104 13q-99 -52 -109 -111q-6 -39 21 -57.5t84 -16.5l235 4q232 3 338 -68.5t80 -228.5q-15 -96 -78.5 -175.5t-156 -130t-202 -78t-221.5 -27.5q-217 0 -348 80.5t-110 212.5q10 63 74 117.5
t178 68.5q-59 15 -96.5 52.5t-48.5 74.5t-5 70q5 32 22 66t50 70.5t92.5 64.5t136.5 38q-105 35 -164.5 141.5t-40.5 219.5q30 177 177.5 276.5t334.5 93.5q111 -3 195 -36h412zM561 -139h-207q-86 0 -125 4q-102 -53 -118 -158q-10 -64 7 -109.5t58 -70.5t92.5 -36
t116.5 -11q82 0 161 27t141 86t75 139q6 38 -6.5 64.5t-42.5 40t-66 19t-86 5.5zM604 969q-77 0 -130 -80.5t-77 -218.5q-13 -89 -11.5 -161t30 -118.5t80.5 -46.5q44 0 81 28.5t61.5 75.5t40 95.5t23.5 99.5q27 133 3.5 229.5t-101.5 96.5zM502 1376q0 78 55 133.5
t133 55.5t133.5 -55.5t55.5 -133.5t-55.5 -133t-133.5 -55t-133 55t-55 133z" />
    <glyph glyph-name="Gcommaaccent" unicode="&#x122;" horiz-adv-x="1699" 
d="M991 678h668l-10 -57q-82 -12 -106.5 -39t-39.5 -125l-49 -305q-109 -88 -280.5 -134.5t-348.5 -46.5q-143 0 -266.5 41.5t-211.5 113.5t-151 168t-93.5 205.5t-30.5 225.5q0 190 71.5 354.5t195 280t295 181t365.5 65.5q325 0 594 -127l-28 -363h-54q-14 82 -51.5 149
t-87 109.5t-109.5 71.5t-116.5 41t-110.5 12q-137 0 -253.5 -54.5t-202 -156.5t-133.5 -257t-48 -347q0 -284 128.5 -442t332.5 -158q270 0 299 168l33 205q13 80 -15 111.5t-100 39.5l-96 13zM655 -571l-16 41q133 90 133 151q0 21 -25 46t-50 55t-25 65q0 60 46 99.5
t118 39.5q70 0 104.5 -39t34.5 -100q0 -55 -30 -112.5t-78 -104t-103 -83.5t-109 -58z" />
    <glyph glyph-name="gcommaaccent" unicode="&#x123;" horiz-adv-x="1200" 
d="M1206 907h-260q78 -97 55 -258q-27 -171 -174.5 -275t-351.5 -104q-47 0 -104 13q-99 -52 -109 -111q-6 -39 21 -57.5t84 -16.5l235 4q232 3 338 -68.5t80 -228.5q-15 -96 -78.5 -175.5t-156 -130t-202 -78t-221.5 -27.5q-217 0 -348 80.5t-110 212.5q10 63 74 117.5
t178 68.5q-59 15 -96.5 52.5t-48.5 74.5t-5 70q5 32 22 66t50 70.5t92.5 64.5t136.5 38q-105 35 -164.5 141.5t-40.5 219.5q30 177 177.5 276.5t334.5 93.5q111 -3 195 -36h412zM561 -139h-207q-86 0 -125 4q-102 -53 -118 -158q-10 -64 7 -109.5t58 -70.5t92.5 -36
t116.5 -11q82 0 161 27t141 86t75 139q6 38 -6.5 64.5t-42.5 40t-66 19t-86 5.5zM604 969q-77 0 -130 -80.5t-77 -218.5q-13 -89 -11.5 -161t30 -118.5t80.5 -46.5q44 0 81 28.5t61.5 75.5t40 95.5t23.5 99.5q27 133 3.5 229.5t-101.5 96.5zM893 1610l16 -41
q-133 -90 -133 -152q0 -17 16 -36.5t34.5 -35.5t34.5 -41t16 -53q0 -60 -46 -99.5t-118 -39.5q-70 0 -105 39t-35 100q0 55 30 112.5t78 104.5t103 84t109 58z" />
    <glyph glyph-name="Hcircumflex" unicode="&#x124;" horiz-adv-x="1916" 
d="M1673 1044l-80 -499q-21 -129 -32.5 -210t-12.5 -97l-2 -17q-10 -81 17 -112t98 -39l96 -13l-10 -57h-784l10 57l100 13q72 8 110.5 39.5t49.5 111.5q16 100 32 189t23 135l37 237h-709l-36 -237l-48 -324q-10 -81 17 -112t98 -39l96 -13l-10 -57h-782l10 57l98 13
q72 8 110.5 39.5t49.5 111.5q16 100 32 189t23 135l80 499l47 318q11 80 -16.5 111.5t-97.5 39.5l-97 13l11 57h784l-10 -57l-101 -13q-73 -8 -109.5 -39.5t-49.5 -111.5q-23 -111 -56 -318l-24 -153h708l25 153l47 318q11 80 -17 111.5t-98 39.5l-96 13l10 57h785l-10 -57
l-101 -13q-73 -8 -109.5 -39.5t-49.5 -111.5q-23 -111 -56 -318zM768 1696l352 403h94l226 -401l-39 -37l-268 207l-326 -209z" />
    <glyph glyph-name="hcircumflex" unicode="&#x125;" horiz-adv-x="1220" 
d="M610 1178l271 403h94l164 -401l-41 -33l-205 203l-246 -205zM627 1638l-146 -929q128 329 359 329q57 0 98 -18.5t62.5 -54t33 -76.5t10.5 -97t-6 -104.5t-16 -109.5l-59 -349q-9 -46 -8 -73.5t9.5 -38.5t26.5 -11q46 0 156 127l45 -36q-37 -54 -66 -88t-69.5 -69
t-88.5 -52t-106 -17q-118 0 -168.5 77.5t-25.5 213.5l57 320q47 266 -41 266q-45 0 -105 -72t-116 -196l-92 -580h-299l223 1432q9 58 -3.5 82t-64.5 30l-104 12l10 58z" />
    <glyph glyph-name="Hbar" unicode="&#x126;" horiz-adv-x="1916" 
d="M131 1128l19 113h233l18 121q11 80 -16.5 111.5t-97.5 39.5l-97 13l11 57h784l-10 -57l-101 -13q-73 -8 -109.5 -39.5t-49.5 -111.5q-11 -45 -23 -121h705l18 121q11 80 -17 111.5t-98 39.5l-96 13l10 57h785l-10 -57l-101 -13q-73 -8 -109.5 -39.5t-49.5 -111.5
q-11 -45 -23 -121h229l-18 -113h-231l-13 -84l-80 -499q-21 -129 -32.5 -210t-12.5 -97l-2 -17q-10 -81 17 -112t98 -39l96 -13l-10 -57h-784l10 57l100 13q72 8 110.5 39.5t49.5 111.5q16 100 32 189t23 135l37 237h-709l-36 -237l-48 -324q-10 -81 17 -112t98 -39l96 -13
l-10 -57h-782l10 57l98 13q72 8 110.5 39.5t49.5 111.5q16 100 32 189t23 135l80 499l13 84h-236zM1368 1044l12 84h-708l-13 -84l-24 -153h708z" />
    <glyph glyph-name="hbar" unicode="&#x127;" horiz-adv-x="1220" 
d="M627 1638l-52 -321h361l-14 -96h-361l-80 -512q128 329 359 329q57 0 98 -18.5t62.5 -54t33 -76.5t10.5 -97t-6 -104.5t-16 -109.5l-59 -349q-9 -46 -8 -73.5t9.5 -38.5t26.5 -11q46 0 156 127l45 -36q-37 -54 -66 -88t-69.5 -69t-88.5 -52t-106 -17q-118 0 -168.5 77.5
t-25.5 213.5l57 320q47 266 -41 266q-45 0 -105 -72t-116 -196l-92 -580h-299l190 1221h-192l14 96h192l19 115q9 58 -3.5 82t-64.5 30l-104 12l10 58z" />
    <glyph glyph-name="Itilde" unicode="&#x128;" horiz-adv-x="905" 
d="M659 1044l-79 -499q-21 -129 -33 -210t-13 -97l-2 -17q-10 -81 17 -112t98 -39l96 -13l-10 -57h-782l10 57l98 13q72 8 109.5 39.5t50.5 111.5q16 84 55 324l80 499q16 95 27.5 174.5t15.5 111.5l4 32q11 80 -16.5 111.5t-97.5 39.5l-97 13l11 57h784l-10 -57l-101 -13
q-73 -8 -109.5 -39.5t-49.5 -111.5q-23 -111 -56 -318zM154 1743q31 60 49.5 94.5t48.5 82.5t55 73t58 44t67 19q49 0 110 -22.5t109.5 -49t108.5 -49t108 -22.5q94 0 170 84l41 -21q-24 -46 -35.5 -66.5t-34.5 -60.5t-37.5 -59t-37.5 -46.5t-42 -40t-43.5 -22.5t-49.5 -10
q-55 0 -118 22t-110 48.5t-104 48.5t-102 22q-92 0 -172 -92z" />
    <glyph glyph-name="itilde" unicode="&#x129;" horiz-adv-x="700" 
d="M-27 1245q35 69 61.5 114t62 90t73.5 67t80 22q47 0 101 -29t97.5 -59.5t90 -51.5t95.5 -3.5t97 84.5l41 -21q-28 -53 -49 -89.5t-49 -76t-54 -63.5t-58.5 -39.5t-67.5 -15.5q-40 0 -81.5 16t-73 37.5t-64.5 44.5t-63.5 36.5t-61.5 14t-66 -24t-72 -75.5zM150 262l98 504
q24 119 -51 119q-42 0 -134 -62l-32 41q48 53 101 90.5t99 54t79 23t61 6.5q113 0 155.5 -69.5t8.5 -245.5l-93 -494q-12 -71 -5 -97t34 -26q48 0 158 127l45 -36q-37 -54 -66 -88t-69.5 -69t-88.5 -52t-106 -17q-117 0 -168.5 77.5t-25.5 213.5z" />
    <glyph glyph-name="Imacron" unicode="&#x12a;" horiz-adv-x="905" 
d="M659 1044l-79 -499q-21 -129 -33 -210t-13 -97l-2 -17q-10 -81 17 -112t98 -39l96 -13l-10 -57h-782l10 57l98 13q72 8 109.5 39.5t50.5 111.5q16 84 55 324l80 499q16 95 27.5 174.5t15.5 111.5l4 32q11 80 -16.5 111.5t-97.5 39.5l-97 13l11 57h784l-10 -57l-101 -13
q-73 -8 -109.5 -39.5t-49.5 -111.5q-23 -111 -56 -318zM244 1767l18 113h766l-18 -113h-766z" />
    <glyph glyph-name="imacron" unicode="&#x12b;" horiz-adv-x="700" 
d="M27 1270l18 112h643l-18 -112h-643zM150 262l98 504q24 119 -51 119q-42 0 -134 -62l-32 41q48 53 101 90.5t99 54t79 23t61 6.5q113 0 155.5 -69.5t8.5 -245.5l-93 -494q-12 -71 -5 -97t34 -26q48 0 158 127l45 -36q-37 -54 -66 -88t-69.5 -69t-88.5 -52t-106 -17
q-117 0 -168.5 77.5t-25.5 213.5z" />
    <glyph glyph-name="Ibreve" unicode="&#x12c;" horiz-adv-x="905" 
d="M659 1044l-79 -499q-21 -129 -33 -210t-13 -97l-2 -17q-10 -81 17 -112t98 -39l96 -13l-10 -57h-782l10 57l98 13q72 8 109.5 39.5t50.5 111.5q16 84 55 324l80 499q16 95 27.5 174.5t15.5 111.5l4 32q11 80 -16.5 111.5t-97.5 39.5l-97 13l11 57h784l-10 -57l-101 -13
q-73 -8 -109.5 -39.5t-49.5 -111.5q-23 -111 -56 -318zM641 1784q92 0 146.5 52.5t86.5 174.5h117q-13 -61 -35.5 -111t-48 -83.5t-57 -58.5t-60.5 -39t-61.5 -22.5t-56 -11t-47.5 -2.5q-33 0 -67.5 5.5t-78.5 24.5t-77.5 49.5t-56.5 86.5t-23 129v33h120v-14
q0 -108 55.5 -160.5t143.5 -52.5z" />
    <glyph glyph-name="ibreve" unicode="&#x12d;" horiz-adv-x="700" 
d="M362 1266q89 0 134.5 50.5t78.5 176.5h117q-54 -328 -346 -328q-33 0 -65.5 5.5t-73.5 24.5t-71.5 49.5t-51.5 86.5t-21 129l3 33h118v-14q0 -213 178 -213zM150 262l98 504q24 119 -51 119q-42 0 -134 -62l-32 41q48 53 101 90.5t99 54t79 23t61 6.5q113 0 155.5 -69.5
t8.5 -245.5l-93 -494q-12 -71 -5 -97t34 -26q48 0 158 127l45 -36q-37 -54 -66 -88t-69.5 -69t-88.5 -52t-106 -17q-117 0 -168.5 77.5t-25.5 213.5z" />
    <glyph glyph-name="Iogonek" unicode="&#x12e;" horiz-adv-x="905" 
d="M406 -406l6 -30q-100 -74 -213 -74q-74 0 -127.5 39.5t-53.5 110.5q0 52 25 101.5t74.5 94.5t105 82.5t133.5 81.5h-405l10 57l98 13q72 8 109.5 39.5t50.5 111.5q16 84 55 324l80 499q16 95 27.5 174.5t15.5 111.5l4 32q11 80 -16.5 111.5t-97.5 39.5l-97 13l11 57h784
l-10 -57l-101 -13q-73 -8 -109.5 -39.5t-49.5 -111.5q-23 -111 -56 -318l-79 -499q-21 -129 -33 -210t-13 -97l-2 -17q-10 -81 17 -112t98 -39l96 -13l-10 -57h-334q-184 -160 -184 -319q0 -52 30.5 -76.5t78.5 -24.5q31 0 82 14z" />
    <glyph glyph-name="iogonek" unicode="&#x12f;" horiz-adv-x="700" 
d="M150 262l98 504q24 119 -51 119q-42 0 -134 -62l-32 41q48 53 101 90.5t99 54t79 23t61 6.5q113 0 155.5 -69.5t8.5 -245.5l-93 -494q-12 -71 -5 -97t34 -26q48 0 158 127l45 -36q-37 -54 -65.5 -87.5t-68.5 -68.5t-87.5 -52t-104.5 -18q-155 -152 -155 -293
q0 -52 30 -76t78 -24q31 0 82 14l6 -30q-100 -74 -213 -74q-74 0 -127 39.5t-53 110.5q0 94 77 173t222 164q-93 17 -130.5 91.5t-14.5 195.5zM266 1376q0 78 55.5 133.5t133.5 55.5t133 -55.5t55 -133.5t-55 -133t-133 -55t-133.5 55t-55.5 133z" />
    <glyph glyph-name="Idotaccent" unicode="&#x130;" horiz-adv-x="905" 
d="M659 1044l-79 -499q-21 -129 -33 -210t-13 -97l-2 -17q-10 -81 17 -112t98 -39l96 -13l-10 -57h-782l10 57l98 13q72 8 109.5 39.5t50.5 111.5q16 84 55 324l80 499q16 95 27.5 174.5t15.5 111.5l4 32q11 80 -16.5 111.5t-97.5 39.5l-97 13l11 57h784l-10 -57l-101 -13
q-73 -8 -109.5 -39.5t-49.5 -111.5q-23 -111 -56 -318zM428 1894q0 78 55 133.5t133 55.5t133.5 -55.5t55.5 -133.5t-55.5 -133t-133.5 -55t-133 55t-55 133z" />
    <glyph glyph-name="dotlessi" unicode="&#x131;" horiz-adv-x="700" 
d="M150 262l98 504q24 119 -51 119q-42 0 -134 -62l-32 41q48 53 101 90.5t99 54t79 23t61 6.5q113 0 155.5 -69.5t8.5 -245.5l-93 -494q-12 -71 -5 -97t34 -26q48 0 158 127l45 -36q-37 -54 -66 -88t-69.5 -69t-88.5 -52t-106 -17q-117 0 -168.5 77.5t-25.5 213.5z" />
    <glyph glyph-name="Jcircumflex" unicode="&#x134;" horiz-adv-x="993" 
d="M479 711l51 301l56 350q11 78 -24 110t-109 41l-97 13l11 57h802l-10 -57l-100 -13q-73 -8 -110 -39.5t-50 -111.5q-10 -34 -63 -350l-52 -301q-17 -101 -35.5 -181t-44.5 -159t-56.5 -137.5t-72 -110t-91.5 -83.5t-115 -50.5t-142 -18.5q-53 0 -107 11t-105 33.5t-83 64
t-32 94.5q0 58 38.5 92.5t96.5 34.5q46 0 79 -26.5t50.5 -64t32.5 -75t35 -64t47 -26.5q26 0 47 24.5t37.5 69t33 118t32 159t35.5 205.5q10 59 15 90zM430 1696l352 403h95l225 -401l-39 -37l-268 207l-326 -209z" />
    <glyph glyph-name="jcircumflex" unicode="&#x135;" horiz-adv-x="630" 
d="M61 1178l353 403h94l225 -401l-39 -37l-268 207l-326 -209zM528 723l-94 -530q-24 -132 -53 -227.5t-74 -183.5t-109.5 -157t-155.5 -132t-216 -124l-23 37q128 119 201.5 292t136.5 521l103 547q21 119 -51 119q-44 0 -136 -62l-32 41q48 53 101 90.5t99 54t79 23
t61 6.5q52 0 87.5 -14.5t60 -50.5t27 -97t-11.5 -153z" />
    <glyph glyph-name="Kcommaaccent" unicode="&#x136;" horiz-adv-x="1667" 
d="M621 768l466 477q74 76 110.5 129.5t42 82t-17 45t-49.5 20t-73 4.5l12 57h617l-11 -61q-96 0 -203 -57t-204 -154l-410 -410l402 -639q134 -194 307 -205l-11 -57h-741l10 57q48 0 78 5.5t49 20.5t14.5 43t-32.5 71zM662 1044l-80 -499q-21 -129 -32.5 -210t-13.5 -97
l-1 -17q-10 -81 17 -112t97 -39l96 -13l-10 -57h-782l10 57l98 13q72 8 109.5 39.5t50.5 111.5q35 201 55 324l80 499l47 318q11 80 -16.5 111.5t-97.5 39.5l-96 13l10 57h784l-10 -57l-100 -13q-73 -8 -110 -39.5t-50 -111.5q-22 -111 -55 -318zM612 -571l-16 41
q133 90 133 151q0 21 -25 46t-50 55t-25 65q0 60 46 99.5t118 39.5q70 0 104.5 -39t34.5 -100q0 -55 -30 -112.5t-78 -104t-103 -83.5t-109 -58z" />
    <glyph glyph-name="kcommaaccent" unicode="&#x137;" horiz-adv-x="1165" 
d="M143 1614l494 24l-168 -1040h29q284 0 284 262q0 176 140 176q48 0 76 -29t28 -87q0 -46 -31.5 -103.5t-83.5 -110t-128 -91.5t-156 -46q63 -9 109.5 -29t74.5 -43.5t47.5 -60.5t28.5 -68.5t18 -78.5l6 -35q15 -91 76.5 -146t181.5 -45l7 -47q-147 -47 -230 -47
q-146 0 -222.5 57t-109.5 203l-10 47q-4 19 -12 58t-12.5 59.5t-15.5 50.5t-23 46.5t-32.5 31t-47.5 19.5l-86 -541h-299l229 1432q10 59 -2.5 82.5t-64.5 29.5l-105 12zM379 -571l-17 41q134 91 134 151q0 17 -16 36.5t-34.5 35.5t-34.5 41t-16 53q0 60 46 99.5t118 39.5
q70 0 104.5 -39t34.5 -100q0 -73 -52 -148t-122.5 -128t-144.5 -82z" />
    <glyph glyph-name="Lacute" unicode="&#x139;" horiz-adv-x="1386" 
d="M276 545l80 499l47 320q10 80 -17 110.5t-97 38.5l-96 13l10 57h805l-11 -57l-100 -13q-90 -11 -129.5 -41t-50.5 -110q-22 -119 -47 -281l-92 -579l-35 -230q-14 -91 17.5 -129.5t133.5 -38.5h221q80 0 145 26t109 72t72.5 99t44.5 115h60l-64 -416h-1329l10 57l98 13
q72 8 110.5 39.5t49.5 111.5q54 316 55 324zM551 1673l231 428h340l-512 -428h-59z" />
    <glyph glyph-name="lacute" unicode="&#x13a;" horiz-adv-x="626" 
d="M74 262l194 1170q10 59 -2.5 82.5t-64.5 29.5l-105 12l10 58l494 24l-231 -1409q-9 -46 -8 -73.5t9.5 -38.5t26.5 -11q46 0 156 127l45 -36q-37 -54 -66 -88t-69.5 -69t-88.5 -52t-106 -17q-117 0 -167 76t-27 215zM326 1673l231 428h340l-512 -428h-59z" />
    <glyph glyph-name="Lcommaaccent" unicode="&#x13b;" horiz-adv-x="1386" 
d="M276 545l80 499l47 320q10 80 -17 110.5t-97 38.5l-96 13l10 57h805l-11 -57l-100 -13q-90 -11 -129.5 -41t-50.5 -110q-22 -119 -47 -281l-92 -579l-35 -230q-14 -91 17.5 -129.5t133.5 -38.5h221q80 0 145 26t109 72t72.5 99t44.5 115h60l-64 -416h-1329l10 57l98 13
q72 8 110.5 39.5t49.5 111.5q54 316 55 324zM492 -571l-17 41q133 90 133 151q0 21 -25 46t-50 55t-25 65q0 60 46 99.5t118 39.5q70 0 104.5 -39t34.5 -100q0 -73 -52 -148t-122.5 -128t-144.5 -82z" />
    <glyph glyph-name="lcommaaccent" unicode="&#x13c;" horiz-adv-x="626" 
d="M74 262l194 1170q10 59 -2.5 82.5t-64.5 29.5l-105 12l10 58l494 24l-231 -1409q-9 -46 -8 -73.5t9.5 -38.5t26.5 -11q46 0 156 127l45 -36q-37 -54 -66 -88t-69.5 -69t-88.5 -52t-106 -17q-117 0 -167 76t-27 215zM61 -571l-16 41q133 90 133 151q0 21 -25 46t-50 55
t-25 65q0 60 46 99.5t118 39.5q70 0 104.5 -39t34.5 -100q0 -55 -30 -112.5t-78 -104t-103 -83.5t-109 -58z" />
    <glyph glyph-name="Lcaron" unicode="&#x13d;" horiz-adv-x="1386" 
d="M276 545l80 499l47 320q10 80 -17 110.5t-97 38.5l-96 13l10 57h805l-11 -57l-100 -13q-90 -11 -129.5 -41t-50.5 -110q-22 -119 -47 -281l-92 -579l-35 -230q-14 -91 17.5 -129.5t133.5 -38.5h221q80 0 145 26t109 72t72.5 99t44.5 115h60l-64 -416h-1329l10 57l98 13
q72 8 110.5 39.5t49.5 111.5q54 316 55 324zM1090 1114l-17 41q133 90 133 152q0 21 -25 46t-50 55t-25 65q0 60 46 99.5t118 39.5q70 0 104.5 -39t34.5 -100q0 -73 -52 -148.5t-123 -128.5t-144 -82z" />
    <glyph glyph-name="lcaron" unicode="&#x13e;" horiz-adv-x="790" 
d="M74 262l194 1170q10 59 -2.5 82.5t-64.5 29.5l-105 12l10 58l494 24l-231 -1409q-9 -46 -8 -73.5t9.5 -38.5t26.5 -11q46 0 156 127l45 -36q-37 -54 -66 -88t-69.5 -69t-88.5 -52t-106 -17q-117 0 -167 76t-27 215zM655 1112l-16 41q133 90 133 152q0 17 -15.5 36.5
t-34.5 35t-34.5 40.5t-15.5 53q0 60 46 100t118 40q70 0 104.5 -39.5t34.5 -100.5q0 -55 -30 -112.5t-78 -104t-103 -83.5t-109 -58z" />
    <glyph glyph-name="Ldot" unicode="&#x13f;" horiz-adv-x="1386" 
d="M276 545l80 499l47 320q10 80 -17 110.5t-97 38.5l-96 13l10 57h805l-11 -57l-100 -13q-90 -11 -129.5 -41t-50.5 -110q-22 -119 -47 -281l-92 -579l-35 -230q-14 -91 17.5 -129.5t133.5 -38.5h221q80 0 145 26t109 72t72.5 99t44.5 115h60l-64 -416h-1329l10 57l98 13
q72 8 110.5 39.5t49.5 111.5q54 316 55 324zM963 762q0 78 55 133t133 55t133 -55t55 -133t-55 -133.5t-133 -55.5t-133 55.5t-55 133.5z" />
    <glyph glyph-name="ldot" unicode="&#x140;" horiz-adv-x="761" 
d="M74 262l194 1170q10 59 -2.5 82.5t-64.5 29.5l-105 12l10 58l494 24l-231 -1409q-9 -46 -8 -73.5t9.5 -38.5t26.5 -11q46 0 156 127l45 -36q-37 -54 -66 -88t-69.5 -69t-88.5 -52t-106 -17q-117 0 -167 76t-27 215zM498 762q0 78 55 133t133 55t133 -55t55 -133
t-55 -133.5t-133 -55.5t-133 55.5t-55 133.5z" />
    <glyph glyph-name="Lslash" unicode="&#x141;" horiz-adv-x="1386" 
d="M70 526l-37 99l278 147l45 272l47 320q10 80 -17 110.5t-97 38.5l-96 13l10 57h805l-11 -57l-100 -13q-90 -11 -129.5 -41t-50.5 -110q-22 -119 -47 -281l-21 -129l258 138l43 -99l-321 -170l-51 -319l-35 -230q-14 -91 17.5 -129.5t133.5 -38.5h221q80 0 145 26t109 72
t72.5 99t44.5 115h60l-64 -416h-1329l10 57l98 13q72 8 110.5 39.5t49.5 111.5q54 316 55 324l15 98z" />
    <glyph glyph-name="lslash" unicode="&#x142;" horiz-adv-x="712" 
d="M-27 561l-55 98l246 142l104 631q10 59 -2.5 82.5t-64.5 29.5l-105 12l10 58l494 24l-106 -645l147 86l57 -98l-229 -133l-100 -619q-9 -46 -8 -73.5t9.5 -38.5t26.5 -11q46 0 156 127l45 -36q-37 -54 -66 -88t-69.5 -69t-88.5 -52t-106 -17q-117 0 -167 76t-27 215
l65 395z" />
    <glyph glyph-name="Nacute" unicode="&#x143;" horiz-adv-x="1765" 
d="M1364 467l113 713q12 77 17 126t-1 88.5t-18.5 60t-43 36t-65.5 22.5t-96 13l10 57h639l-10 -57q-59 -7 -92.5 -13t-69.5 -20.5t-55 -36t-38.5 -59.5t-32 -89.5t-24.5 -127.5l-192 -1209h-98l-791 1237l-133 -835q-11 -69 -14.5 -113t3 -80t19.5 -55t43 -33.5t66 -21.5
t96 -13l-10 -57h-637l10 57q58 6 91.5 12.5t68.5 20t54 33.5t38 54.5t30.5 80.5t22.5 115l156 979q-27 40 -40 57.5t-37.5 45.5t-43.5 40t-48 21.5t-63 9.5l11 57h458zM903 1673l232 428h340l-512 -428h-60z" />
    <glyph glyph-name="nacute" unicode="&#x144;" horiz-adv-x="1261" 
d="M1067 578l-59 -349q-9 -46 -8 -73.5t9.5 -38.5t26.5 -11q46 0 156 127l45 -36q-37 -54 -66 -88t-69.5 -69t-88.5 -52t-106 -17q-120 0 -169.5 77.5t-24.5 213.5l57 320q47 268 -41 268q-45 0 -105 -72.5t-116 -197.5l-96 -580h-299l125 766q19 119 -52 119
q-41 0 -133 -62l-33 41q48 53 102.5 90.5t103 54t83 23t62.5 6.5q52 0 86 -15t56.5 -52.5t22.5 -102t-14 -163.5q66 178 157 255.5t206 77.5q57 0 98 -18.5t62.5 -54t33 -76.5t10.5 -97t-6 -104.5t-16 -109.5zM590 1155l231 428h340l-512 -428h-59z" />
    <glyph glyph-name="Ncommaaccent" unicode="&#x145;" horiz-adv-x="1765" 
d="M1364 467l113 713q12 77 17 126t-1 88.5t-18.5 60t-43 36t-65.5 22.5t-96 13l10 57h639l-10 -57q-59 -7 -92.5 -13t-69.5 -20.5t-55 -36t-38.5 -59.5t-32 -89.5t-24.5 -127.5l-192 -1209h-98l-791 1237l-133 -835q-11 -69 -14.5 -113t3 -80t19.5 -55t43 -33.5t66 -21.5
t96 -13l-10 -57h-637l10 57q58 6 91.5 12.5t68.5 20t54 33.5t38 54.5t30.5 80.5t22.5 115l156 979q-27 40 -40 57.5t-37.5 45.5t-43.5 40t-48 21.5t-63 9.5l11 57h458zM651 -571l-16 41q133 90 133 151q0 21 -25 46t-50 55t-25 65q0 60 45.5 99.5t117.5 39.5q70 0 105 -39
t35 -100q0 -55 -30 -112.5t-78 -104t-103 -83.5t-109 -58z" />
    <glyph glyph-name="ncommaaccent" unicode="&#x146;" horiz-adv-x="1261" 
d="M1067 578l-59 -349q-9 -46 -8 -73.5t9.5 -38.5t26.5 -11q46 0 156 127l45 -36q-37 -54 -66 -88t-69.5 -69t-88.5 -52t-106 -17q-120 0 -169.5 77.5t-24.5 213.5l57 320q47 268 -41 268q-45 0 -105 -72.5t-116 -197.5l-96 -580h-299l125 766q19 119 -52 119
q-41 0 -133 -62l-33 41q48 53 102.5 90.5t103 54t83 23t62.5 6.5q52 0 86 -15t56.5 -52.5t22.5 -102t-14 -163.5q66 178 157 255.5t206 77.5q57 0 98 -18.5t62.5 -54t33 -76.5t10.5 -97t-6 -104.5t-16 -109.5zM385 -571l-16 41q133 90 133 151q0 17 -16 36.5t-34.5 35.5
t-34.5 41t-16 53q0 60 46 99.5t118 39.5q70 0 105 -39t35 -100q0 -55 -30 -112.5t-78 -104t-103 -83.5t-109 -58z" />
    <glyph glyph-name="Ncaron" unicode="&#x147;" horiz-adv-x="1765" 
d="M1364 467l113 713q12 77 17 126t-1 88.5t-18.5 60t-43 36t-65.5 22.5t-96 13l10 57h639l-10 -57q-59 -7 -92.5 -13t-69.5 -20.5t-55 -36t-38.5 -59.5t-32 -89.5t-24.5 -127.5l-192 -1209h-98l-791 1237l-133 -835q-11 -69 -14.5 -113t3 -80t19.5 -55t43 -33.5t66 -21.5
t96 -13l-10 -57h-637l10 57q58 6 91.5 12.5t68.5 20t54 33.5t38 54.5t30.5 80.5t22.5 115l156 979q-27 40 -40 57.5t-37.5 45.5t-43.5 40t-48 21.5t-63 9.5l11 57h458zM1423 2064l-364 -403h-80l-231 401l43 35l266 -213l325 215z" />
    <glyph glyph-name="ncaron" unicode="&#x148;" horiz-adv-x="1261" 
d="M1067 578l-59 -349q-9 -46 -8 -73.5t9.5 -38.5t26.5 -11q46 0 156 127l45 -36q-37 -54 -66 -88t-69.5 -69t-88.5 -52t-106 -17q-120 0 -169.5 77.5t-24.5 213.5l57 320q47 268 -41 268q-45 0 -105 -72.5t-116 -197.5l-96 -580h-299l125 766q19 119 -52 119
q-41 0 -133 -62l-33 41q48 53 102.5 90.5t103 54t83 23t62.5 6.5q52 0 86 -15t56.5 -52.5t22.5 -102t-14 -163.5q66 178 157 255.5t206 77.5q57 0 98 -18.5t62.5 -54t33 -76.5t10.5 -97t-6 -104.5t-16 -109.5zM1094 1546l-365 -403h-80l-231 401l43 35l266 -213l326 215z
" />
    <glyph glyph-name="Eng" unicode="&#x14a;" horiz-adv-x="1796" 
d="M1397 467l116 743q11 69 14.5 113t-2.5 80t-19 55t-43 33.5t-65 21.5t-95 13l8 57h639l-8 -57q-44 -5 -72 -9t-58 -12t-48.5 -18t-38.5 -27t-31.5 -38.5t-24 -52.5t-21 -69.5t-16.5 -89.5l-176 -1112q-11 -71 -24.5 -126t-37.5 -123t-61 -126t-90 -119.5t-130 -120
t-175 -112.5l-31 45q215 195 287 643l16 103l-696 1046l-133 -835q-8 -51 -12 -88t-2.5 -68.5t6 -52.5t17.5 -38.5t29 -27.5t44 -18.5t57 -13t74 -9.5l-8 -57h-637l8 57q43 5 71 9t58 12t48 18t37.5 27t31 38.5t23.5 52.5t20 69.5t16 89.5l156 979q-29 42 -40 58t-36 45
t-43.5 40t-47.5 21t-63 10l9 57h458z" />
    <glyph glyph-name="eng" unicode="&#x14b;" horiz-adv-x="1212" 
d="M686 59l84 523q5 31 7 49t6 55t2 61t-6.5 50.5t-17 39.5t-32.5 13q-45 0 -105 -72.5t-116 -197.5l-96 -580h-299l125 766q19 119 -52 119q-41 0 -133 -62l-33 41q48 53 102.5 90.5t103 54t83 23t62.5 6.5q52 0 86 -15t56.5 -52.5t22.5 -102t-14 -163.5q66 178 157 255.5
t206 77.5q57 0 98 -18.5t62.5 -54t33 -76.5t10.5 -97t-6 -104.5t-16 -109.5l-82 -480q-11 -61 -21 -107t-29.5 -106t-44 -108t-64 -104.5t-88.5 -104.5t-118.5 -99.5t-154.5 -97.5l-29 45q49 45 89 109t63 120t44.5 142t30.5 134.5t23 137.5z" />
    <glyph glyph-name="Omacron" unicode="&#x14c;" horiz-adv-x="1792" 
d="M1389 901q0 288 -117.5 441t-325.5 153q-160 0 -286.5 -116t-193.5 -306.5t-67 -415.5q0 -277 119 -425t320 -148q160 0 285 100.5t195.5 287t70.5 429.5zM72 741q0 181 70.5 342t189 274t278.5 179t334 66q164 0 307.5 -57.5t246.5 -158.5t162.5 -244t59.5 -308
q0 -182 -70.5 -343t-189 -274t-278.5 -178.5t-334 -65.5q-165 0 -309 57.5t-246.5 158t-161.5 243.5t-59 309zM627 1767l18 113h766l-18 -113h-766z" />
    <glyph glyph-name="omacron" unicode="&#x14d;" horiz-adv-x="1114" 
d="M43 311q0 141 60 276.5t153 232.5t209.5 156.5t226.5 59.5q107 0 184.5 -30t118 -81t58.5 -107.5t18 -121.5q0 -141 -59.5 -276.5t-152.5 -232.5t-209 -156.5t-226 -59.5q-87 0 -155 20.5t-109.5 53t-68.5 78t-37.5 91.5t-10.5 97zM365 365q0 -74 4 -125t16 -96t35 -67
t59 -22q57 0 105 44.5t78 112t51.5 149.5t30 153.5t8.5 128.5q0 73 -4.5 124t-17 94.5t-36 65t-59.5 21.5q-57 0 -105 -44t-77.5 -110.5t-50 -148t-29 -152.5t-8.5 -128zM330 1270l18 112h766l-18 -112h-766z" />
    <glyph glyph-name="Obreve" unicode="&#x14e;" horiz-adv-x="1792" 
d="M1389 901q0 288 -117.5 441t-325.5 153q-160 0 -286.5 -116t-193.5 -306.5t-67 -415.5q0 -277 119 -425t320 -148q160 0 285 100.5t195.5 287t70.5 429.5zM72 741q0 181 70.5 342t189 274t278.5 179t334 66q164 0 307.5 -57.5t246.5 -158.5t162.5 -244t59.5 -308
q0 -182 -70.5 -343t-189 -274t-278.5 -178.5t-334 -65.5q-165 0 -309 57.5t-246.5 158t-161.5 243.5t-59 309zM1065 1784q92 0 146.5 52.5t86.5 174.5h117q-13 -61 -35.5 -111t-48 -83.5t-57 -58.5t-60.5 -39t-61.5 -22.5t-56 -11t-47.5 -2.5q-33 0 -67.5 5.5t-79 24.5
t-77.5 49.5t-56.5 86.5t-23.5 129v33h121v-14q0 -108 55.5 -160.5t143.5 -52.5z" />
    <glyph glyph-name="obreve" unicode="&#x14f;" horiz-adv-x="1114" 
d="M43 311q0 141 60 276.5t153 232.5t209.5 156.5t226.5 59.5q107 0 184.5 -30t118 -81t58.5 -107.5t18 -121.5q0 -141 -59.5 -276.5t-152.5 -232.5t-209 -156.5t-226 -59.5q-87 0 -155 20.5t-109.5 53t-68.5 78t-37.5 91.5t-10.5 97zM365 365q0 -74 4 -125t16 -96t35 -67
t59 -22q57 0 105 44.5t78 112t51.5 149.5t30 153.5t8.5 128.5q0 73 -4.5 124t-17 94.5t-36 65t-59.5 21.5q-57 0 -105 -44t-77.5 -110.5t-50 -148t-29 -152.5t-8.5 -128zM709 1266q92 0 146.5 52.5t86.5 174.5h117q-15 -71 -42 -126.5t-60.5 -90t-68 -58t-73 -34.5t-67 -15
t-56.5 -4q-33 0 -67.5 5.5t-78.5 24.5t-77.5 49.5t-56.5 86.5t-23 129l2 33h119v-14q0 -108 55.5 -160.5t143.5 -52.5z" />
    <glyph glyph-name="Ohungarumlaut" unicode="&#x150;" horiz-adv-x="1792" 
d="M1389 901q0 288 -117.5 441t-325.5 153q-160 0 -286.5 -116t-193.5 -306.5t-67 -415.5q0 -277 119 -425t320 -148q160 0 285 100.5t195.5 287t70.5 429.5zM72 741q0 181 70.5 342t189 274t278.5 179t334 66q164 0 307.5 -57.5t246.5 -158.5t162.5 -244t59.5 -308
q0 -182 -70.5 -343t-189 -274t-278.5 -178.5t-334 -65.5q-165 0 -309 57.5t-246.5 158t-161.5 243.5t-59 309zM608 1673l234 428h340l-514 -428h-60zM1020 1673l233 428h340l-514 -428h-59z" />
    <glyph glyph-name="ohungarumlaut" unicode="&#x151;" horiz-adv-x="1114" 
d="M43 311q0 141 60 276.5t153 232.5t209.5 156.5t226.5 59.5q107 0 184.5 -30t118 -81t58.5 -107.5t18 -121.5q0 -141 -59.5 -276.5t-152.5 -232.5t-209 -156.5t-226 -59.5q-87 0 -155 20.5t-109.5 53t-68.5 78t-37.5 91.5t-10.5 97zM365 365q0 -74 4 -125t16 -96t35 -67
t59 -22q57 0 105 44.5t78 112t51.5 149.5t30 153.5t8.5 128.5q0 73 -4.5 124t-17 94.5t-36 65t-59.5 21.5q-57 0 -105 -44t-77.5 -110.5t-50 -148t-29 -152.5t-8.5 -128zM309 1155l234 428h340l-514 -428h-60zM721 1155l233 428h340l-514 -428h-59z" />
    <glyph glyph-name="OE" unicode="&#x152;" horiz-adv-x="2519" 
d="M1501 1581h1000l-58 -395h-61q7 151 -75 221t-239 70h-276l-94 -596h174q202 0 266 245h55l-94 -600h-59q7 128 -38.5 188t-146.5 60h-174l-43 -272l-34 -234q-14 -91 17 -128.5t134 -37.5h205q80 0 145.5 26.5t109.5 72.5t73 99.5t45 115.5h57l-63 -416h-1080
q22 128 23 137q-208 -164 -459 -164q-208 0 -376.5 97.5t-265.5 273.5t-97 397q0 182 69.5 342.5t187 274t278.5 179t339 65.5q164 0 297.5 -61.5t224.5 -174.5zM1399 901q0 285 -126 439.5t-337 154.5q-160 0 -286.5 -116t-193.5 -306.5t-67 -415.5q0 -277 118.5 -425
t319.5 -148q120 0 225 59t182 164t121 258.5t44 335.5z" />
    <glyph glyph-name="oe" unicode="&#x153;" horiz-adv-x="1607" 
d="M43 311q0 141 60 276.5t153 232.5t209.5 156.5t226.5 59.5q233 0 291 -151q151 151 344 151q77 0 132.5 -15t82.5 -40t39 -49.5t12 -50.5q0 -45 -18 -87t-47 -75t-74 -65t-89.5 -55.5t-104 -48.5t-107.5 -43t-108 -39q-3 -1 -5 -1.5t-4 -1.5q-4 -41 -4 -98
q0 -132 32 -188t93 -56q155 0 305 248l49 -25q-90 -190 -212.5 -282.5t-258.5 -92.5q-106 0 -166.5 41.5t-85.5 130.5q-80 -81 -174 -126.5t-190 -45.5q-87 0 -155 20.5t-109.5 53t-68.5 78t-37.5 91.5t-10.5 97zM365 365q0 -74 4 -125t16 -96t35 -67t59 -22q57 0 105 44.5
t78 112t51.5 149.5t30 153.5t8.5 128.5q0 73 -4.5 124t-17 94.5t-36 65t-59.5 21.5q-57 0 -105 -44t-77.5 -110.5t-50 -148t-29 -152.5t-8.5 -128zM1268 958q-48 0 -88 -41.5t-66.5 -111t-44 -140.5t-27.5 -149q120 59 203.5 146.5t83.5 183.5q0 65 -16 88.5t-45 23.5z" />
    <glyph glyph-name="Racute" unicode="&#x154;" horiz-adv-x="1581" 
d="M725 1485l-109 -688q109 -3 193 19.5t135.5 63t84 99.5t44.5 121t12 135t-30.5 126.5t-82.5 81t-114.5 38t-132.5 4.5zM743 0h-794l10 57l98 13q72 8 110.5 39.5t49.5 111.5q16 88 53 326l127 813q13 80 -14.5 111.5t-97.5 39.5l-97 13l9 57q121 0 320.5 4t320.5 4
q83 0 158 -9t150.5 -32.5t130 -60t88.5 -96t34 -136.5q0 -163 -132.5 -296.5t-334.5 -176.5q132 -15 216 -97.5t101 -213.5l15 -121q18 -155 79 -224.5t191 -55.5l6 -56q-128 -43 -252 -43q-325 0 -360 420q-6 74 -13.5 120.5t-23 86.5t-35.5 61t-56.5 36.5t-81.5 21.5
t-114 8l-29 -180l-51 -324q-11 -80 16.5 -111.5t98.5 -39.5l115 -13zM678 1673l231 428h340l-512 -428h-59z" />
    <glyph glyph-name="racute" unicode="&#x155;" horiz-adv-x="919" 
d="M518 657q27 77 56.5 139t56 101t56 68t51.5 43t47.5 21.5t38.5 9t30 1.5q37 0 62.5 -12.5t36 -32.5t14.5 -36.5t4 -34.5q0 -62 -34.5 -105.5t-105.5 -54.5q-14 -2 -47.5 -3.5t-59.5 -3.5t-62 -14.5t-63.5 -35t-54.5 -68.5t-44 -111l-84 -528h-299l121 766q19 119 -52 119
q-41 0 -133 -62l-33 41q48 53 102.5 90.5t103 54t83 23t62.5 6.5q223 0 147 -381zM317 1155l232 428h340l-512 -428h-60z" />
    <glyph glyph-name="Rcommaaccent" unicode="&#x156;" horiz-adv-x="1581" 
d="M725 1485l-109 -688q109 -3 193 19.5t135.5 63t84 99.5t44.5 121t12 135t-30.5 126.5t-82.5 81t-114.5 38t-132.5 4.5zM743 0h-794l10 57l98 13q72 8 110.5 39.5t49.5 111.5q16 88 53 326l127 813q13 80 -14.5 111.5t-97.5 39.5l-97 13l9 57q121 0 320.5 4t320.5 4
q83 0 158 -9t150.5 -32.5t130 -60t88.5 -96t34 -136.5q0 -163 -132.5 -296.5t-334.5 -176.5q132 -15 216 -97.5t101 -213.5l15 -121q18 -155 79 -224.5t191 -55.5l6 -56q-128 -43 -252 -43q-325 0 -360 420q-6 74 -13.5 120.5t-23 86.5t-35.5 61t-56.5 36.5t-81.5 21.5
t-114 8l-29 -180l-51 -324q-11 -80 16.5 -111.5t98.5 -39.5l115 -13zM637 -571l-16 41q133 90 133 151q0 17 -16 36.5t-34.5 35.5t-34.5 41t-16 53q0 60 46 99.5t118 39.5q70 0 104.5 -39t34.5 -100q0 -73 -52 -148t-122.5 -128t-144.5 -82z" />
    <glyph glyph-name="rcommaaccent" unicode="&#x157;" horiz-adv-x="919" 
d="M518 657q27 77 56.5 139t56 101t56 68t51.5 43t47.5 21.5t38.5 9t30 1.5q37 0 62.5 -12.5t36 -32.5t14.5 -36.5t4 -34.5q0 -62 -34.5 -105.5t-105.5 -54.5q-14 -2 -47.5 -3.5t-59.5 -3.5t-62 -14.5t-63.5 -35t-54.5 -68.5t-44 -111l-84 -528h-299l121 766q19 119 -52 119
q-41 0 -133 -62l-33 41q48 53 102.5 90.5t103 54t83 23t62.5 6.5q223 0 147 -381zM76 -571l-17 41q134 91 134 151q0 17 -16 36.5t-34.5 35.5t-34.5 41t-16 53q0 60 46 99.5t118 39.5q70 0 104.5 -39t34.5 -100q0 -73 -52 -148t-122.5 -128t-144.5 -82z" />
    <glyph glyph-name="Rcaron" unicode="&#x158;" horiz-adv-x="1581" 
d="M725 1485l-109 -688q109 -3 193 19.5t135.5 63t84 99.5t44.5 121t12 135t-30.5 126.5t-82.5 81t-114.5 38t-132.5 4.5zM743 0h-794l10 57l98 13q72 8 110.5 39.5t49.5 111.5q16 88 53 326l127 813q13 80 -14.5 111.5t-97.5 39.5l-97 13l9 57q121 0 320.5 4t320.5 4
q83 0 158 -9t150.5 -32.5t130 -60t88.5 -96t34 -136.5q0 -163 -132.5 -296.5t-334.5 -176.5q132 -15 216 -97.5t101 -213.5l15 -121q18 -155 79 -224.5t191 -55.5l6 -56q-128 -43 -252 -43q-325 0 -360 420q-6 74 -13.5 120.5t-23 86.5t-35.5 61t-56.5 36.5t-81.5 21.5
t-114 8l-29 -180l-51 -324q-11 -80 16.5 -111.5t98.5 -39.5l115 -13zM1255 2064l-364 -403h-80l-231 401l43 35l266 -213l325 215z" />
    <glyph glyph-name="rcaron" unicode="&#x159;" horiz-adv-x="919" 
d="M518 657q27 77 56.5 139t56 101t56 68t51.5 43t47.5 21.5t38.5 9t30 1.5q37 0 62.5 -12.5t36 -32.5t14.5 -36.5t4 -34.5q0 -62 -34.5 -105.5t-105.5 -54.5q-14 -2 -47.5 -3.5t-59.5 -3.5t-62 -14.5t-63.5 -35t-54.5 -68.5t-44 -111l-84 -528h-299l121 766q19 119 -52 119
q-41 0 -133 -62l-33 41q48 53 102.5 90.5t103 54t83 23t62.5 6.5q223 0 147 -381zM813 1546l-364 -403h-80l-232 401l43 35l266 -213l326 215z" />
    <glyph glyph-name="Sacute" unicode="&#x15a;" horiz-adv-x="1218" 
d="M483 84q163 0 254.5 73.5t91.5 180.5q0 95 -48.5 166t-157.5 133l-150 86q-88 51 -144.5 93t-98.5 93t-60 109.5t-18 134.5q0 204 164.5 331.5t428.5 127.5q225 0 418 -101l-28 -348h-70q-28 173 -118.5 257.5t-215.5 84.5q-143 0 -221 -66t-78 -177q0 -144 166 -240
l186 -109q39 -23 54 -31.5t51.5 -31.5t53 -36.5t46 -38.5t44 -44t34.5 -48t29.5 -56.5t16.5 -62.5t7 -72q0 -245 -177.5 -383t-475.5 -138q-123 0 -255 33t-212 90l63 373h56q19 -211 109 -297t255 -86zM586 1673l231 428h340l-512 -428h-59z" />
    <glyph glyph-name="sacute" unicode="&#x15b;" horiz-adv-x="911" 
d="M504 666l69 -58q113 -92 168.5 -166.5t55.5 -150.5q0 -82 -39 -146t-101 -100.5t-130 -55t-136 -18.5q-88 0 -167.5 19t-136 63.5t-56.5 106.5q0 55 35 89t98 34q42 0 73 -18t46.5 -44.5t31.5 -57.5t29 -57.5t37.5 -44.5t58.5 -18q40 0 71.5 29t31.5 88q0 70 -37.5 120.5
t-128.5 127.5l-94 79q-170 146 -170 291q0 84 55.5 144.5t140.5 88t187 27.5q47 0 102 -9t111.5 -26.5t93.5 -50.5t37 -75q0 -45 -29 -82t-82 -37q-49 0 -83 21.5t-52.5 52t-35.5 60.5t-42.5 51.5t-62.5 21.5q-41 0 -67 -21t-26 -65q0 -46 39.5 -103t104.5 -110zM334 1155
l231 428h340l-512 -428h-59z" />
    <glyph glyph-name="Scircumflex" unicode="&#x15c;" horiz-adv-x="1218" 
d="M483 84q163 0 254.5 73.5t91.5 180.5q0 95 -48.5 166t-157.5 133l-150 86q-88 51 -144.5 93t-98.5 93t-60 109.5t-18 134.5q0 204 164.5 331.5t428.5 127.5q225 0 418 -101l-28 -348h-70q-28 173 -118.5 257.5t-215.5 84.5q-143 0 -221 -66t-78 -177q0 -144 166 -240
l186 -109q39 -23 54 -31.5t51.5 -31.5t53 -36.5t46 -38.5t44 -44t34.5 -48t29.5 -56.5t16.5 -62.5t7 -72q0 -245 -177.5 -383t-475.5 -138q-123 0 -255 33t-212 90l63 373h56q19 -211 109 -297t255 -86zM459 1696l352 403h94l225 -401l-38 -37l-269 207l-325 -209z" />
    <glyph glyph-name="scircumflex" unicode="&#x15d;" horiz-adv-x="911" 
d="M504 666l69 -58q113 -92 168.5 -166.5t55.5 -150.5q0 -82 -39 -146t-101 -100.5t-130 -55t-136 -18.5q-88 0 -167.5 19t-136 63.5t-56.5 106.5q0 55 35 89t98 34q42 0 73 -18t46.5 -44.5t31.5 -57.5t29 -57.5t37.5 -44.5t58.5 -18q40 0 71.5 29t31.5 88q0 70 -37.5 120.5
t-128.5 127.5l-94 79q-170 146 -170 291q0 84 55.5 144.5t140.5 88t187 27.5q47 0 102 -9t111.5 -26.5t93.5 -50.5t37 -75q0 -45 -29 -82t-82 -37q-49 0 -83 21.5t-52.5 52t-35.5 60.5t-42.5 51.5t-62.5 21.5q-41 0 -67 -21t-26 -65q0 -46 39.5 -103t104.5 -110zM180 1178
l352 403h95l225 -401l-39 -37l-268 207l-326 -209z" />
    <glyph glyph-name="Scedilla" unicode="&#x15e;" horiz-adv-x="1218" 
d="M483 84q163 0 254.5 73.5t91.5 180.5q0 95 -48.5 166t-157.5 133l-150 86q-88 51 -144.5 93t-98.5 93t-60 109.5t-18 134.5q0 204 164.5 331.5t428.5 127.5q225 0 418 -101l-28 -348h-70q-28 173 -118.5 257.5t-215.5 84.5q-143 0 -221 -66t-78 -177q0 -144 166 -240
l186 -109q39 -23 54 -31.5t51.5 -31.5t53 -36.5t46 -38.5t44 -44t34.5 -48t29.5 -56.5t16.5 -62.5t7 -72q0 -230 -156 -365.5t-423 -153.5l-140 -166q78 54 146 54q59 0 95 -30t36 -85q0 -63 -42.5 -116t-108.5 -87t-137 -54t-138 -26v37q99 20 171.5 88.5t72.5 141.5
q0 27 -16.5 42t-43.5 15q-32 0 -65 -23l-43 39l135 168q-125 2 -255 34.5t-208 88.5l63 373h56q19 -211 109 -297t255 -86z" />
    <glyph glyph-name="scedilla" unicode="&#x15f;" horiz-adv-x="911" 
d="M504 666l69 -58q113 -92 168.5 -166.5t55.5 -150.5t-34 -137t-89.5 -98t-118 -57.5t-127.5 -25.5l-139 -166q78 54 145 54q59 0 95 -30t36 -85q0 -63 -42.5 -116t-108.5 -87t-137 -54t-138 -26v37q99 20 171.5 88.5t72.5 141.5q0 27 -16 42t-43 15q-33 0 -66 -23l-43 39
l137 170q-131 7 -226 55t-95 132q0 55 35 89t98 34q42 0 73 -18t46.5 -44.5t31.5 -57.5t29 -57.5t37.5 -44.5t58.5 -18q40 0 71.5 29t31.5 88q0 70 -37.5 120.5t-128.5 127.5l-94 79q-170 146 -170 291q0 84 55.5 144.5t140.5 88t187 27.5q47 0 102 -9t111.5 -26.5
t93.5 -50.5t37 -75q0 -45 -29 -82t-82 -37q-49 0 -83 21.5t-52.5 52t-35.5 60.5t-42.5 51.5t-62.5 21.5q-41 0 -67 -21t-26 -65q0 -46 39.5 -103t104.5 -110z" />
    <glyph glyph-name="Scaron" unicode="&#x160;" horiz-adv-x="1218" 
d="M483 84q163 0 254.5 73.5t91.5 180.5q0 95 -48.5 166t-157.5 133l-150 86q-88 51 -144.5 93t-98.5 93t-60 109.5t-18 134.5q0 204 164.5 331.5t428.5 127.5q225 0 418 -101l-28 -348h-70q-28 173 -118.5 257.5t-215.5 84.5q-143 0 -221 -66t-78 -177q0 -144 166 -240
l186 -109q39 -23 54 -31.5t51.5 -31.5t53 -36.5t46 -38.5t44 -44t34.5 -48t29.5 -56.5t16.5 -62.5t7 -72q0 -245 -177.5 -383t-475.5 -138q-123 0 -255 33t-212 90l63 373h56q19 -211 109 -297t255 -86zM1171 2064l-364 -403h-80l-231 401l43 35l266 -213l325 215z" />
    <glyph glyph-name="scaron" unicode="&#x161;" horiz-adv-x="911" 
d="M504 666l69 -58q113 -92 168.5 -166.5t55.5 -150.5q0 -82 -39 -146t-101 -100.5t-130 -55t-136 -18.5q-88 0 -167.5 19t-136 63.5t-56.5 106.5q0 55 35 89t98 34q42 0 73 -18t46.5 -44.5t31.5 -57.5t29 -57.5t37.5 -44.5t58.5 -18q40 0 71.5 29t31.5 88q0 70 -37.5 120.5
t-128.5 127.5l-94 79q-170 146 -170 291q0 84 55.5 144.5t140.5 88t187 27.5q47 0 102 -9t111.5 -26.5t93.5 -50.5t37 -75q0 -45 -29 -82t-82 -37q-49 0 -83 21.5t-52.5 52t-35.5 60.5t-42.5 51.5t-62.5 21.5q-41 0 -67 -21t-26 -65q0 -46 39.5 -103t104.5 -110zM915 1546
l-364 -403h-80l-231 401l43 35l266 -213l325 215z" />
    <glyph glyph-name="uni0162" unicode="&#x162;" horiz-adv-x="1531" 
d="M92 1145l70 438h1468l-69 -438h-70q5 74 -7 131t-44.5 103t-95 70t-152.5 24h-162l-147 -928l-47 -324q-10 -81 17 -112t97 -39l97 -13l-11 -57h-784l10 57l100 13q72 8 109.5 39.5t50.5 111.5l16 76l40 248l147 928h-162q-175 0 -269.5 -87t-131.5 -241h-70zM440 -571
l-16 41q133 90 133 151q0 21 -25 46t-50 55t-25 65q0 60 46 99.5t118 39.5q70 0 104.5 -39t34.5 -100q0 -55 -30 -112.5t-78 -104t-103 -83.5t-109 -58z" />
    <glyph glyph-name="uni0163" unicode="&#x163;" horiz-adv-x="827" 
d="M139 262l103 623l-154 16l12 82h179l292 262h23l-41 -262h295l-14 -98h-295l-107 -656q-11 -71 -4.5 -97t33.5 -26q30 0 88 33.5t110 93.5l46 -36q-70 -100 -164.5 -163t-206.5 -63q-119 0 -168 77t-27 214zM94 -571l-16 41q133 90 133 151q0 21 -25 46t-50 55t-25 65
q0 60 45.5 99.5t117.5 39.5q70 0 105 -39t35 -100q0 -55 -30 -112.5t-78 -104t-103 -83.5t-109 -58z" />
    <glyph glyph-name="Tcaron" unicode="&#x164;" horiz-adv-x="1531" 
d="M92 1145l70 438h1468l-69 -438h-70q5 74 -7 131t-44.5 103t-95 70t-152.5 24h-162l-147 -928l-47 -324q-10 -81 17 -112t97 -39l97 -13l-11 -57h-784l10 57l100 13q72 8 109.5 39.5t50.5 111.5l16 76l40 248l147 928h-162q-175 0 -269.5 -87t-131.5 -241h-70zM1311 2064
l-365 -403h-80l-231 401l43 35l266 -213l326 215z" />
    <glyph glyph-name="tcaron" unicode="&#x165;" horiz-adv-x="827" 
d="M139 262l103 623l-154 16l12 82h179l292 262h23l-41 -262h295l-14 -98h-295l-107 -656q-11 -71 -4.5 -97t33.5 -26q30 0 88 33.5t110 93.5l46 -36q-70 -100 -164.5 -163t-206.5 -63q-119 0 -168 77t-27 214zM674 1112l-17 41q134 91 134 152q0 17 -16 36.5t-34.5 35
t-34.5 40.5t-16 53q0 60 46 100t118 40q70 0 104.5 -39.5t34.5 -100.5q0 -73 -52 -148t-122.5 -128t-144.5 -82z" />
    <glyph glyph-name="Tbar" unicode="&#x166;" horiz-adv-x="1531" 
d="M92 1145l70 438h1468l-69 -438h-70q5 74 -7 131t-44.5 103t-95 70t-152.5 24h-162l-94 -594h317l-18 -113h-317l-35 -221l-47 -324q-10 -81 17 -112t97 -39l97 -13l-11 -57h-784l10 57l100 13q72 8 109.5 39.5t50.5 111.5l16 76l40 248l34 221h-307l19 113h307l94 594
h-162q-175 0 -269.5 -87t-131.5 -241h-70z" />
    <glyph glyph-name="tbar" unicode="&#x167;" horiz-adv-x="827" 
d="M70 614l14 97h129l29 174l-154 16l12 82h179l292 262h23l-41 -262h295l-14 -98h-295l-29 -174h303l-14 -97h-305l-62 -385q-11 -71 -4.5 -97t33.5 -26q30 0 88 33.5t110 93.5l46 -36q-70 -100 -164.5 -163t-206.5 -63q-119 0 -168 77t-27 214l58 352h-127z" />
    <glyph glyph-name="Utilde" unicode="&#x168;" horiz-adv-x="1742" 
d="M221 614l117 748q11 80 -16.5 111.5t-98.5 39.5l-96 13l10 57h785l-11 -57l-100 -13q-72 -8 -110.5 -39.5t-49.5 -111.5q-86 -514 -125 -764q-25 -157 -6 -262.5t103.5 -159t242.5 -53.5q199 0 329.5 139.5t172.5 411.5l55 348q10 63 15.5 97t12.5 87.5t7.5 83.5t0 69.5
t-8 61.5t-19.5 44.5t-32 33.5t-47 14l-115 13l10 57h649l-10 -57l-117 -13q-53 -6 -91 -45t-64.5 -124t-38 -141t-30.5 -176q-1 -3 -1 -5l-59 -385q-51 -319 -238.5 -492.5t-486.5 -173.5q-154 0 -269 41t-186.5 121.5t-93.5 201t10 279.5zM614 1743q30 59 49 94.5
t49.5 82.5t55.5 72.5t58 44.5t67 19q49 0 110 -22.5t109.5 -49t108.5 -49t108 -22.5q94 0 170 84l41 -21q-24 -46 -35.5 -66.5t-34.5 -60.5t-37.5 -59t-37.5 -46.5t-42 -40t-43.5 -22.5t-49.5 -10q-55 0 -118 22t-110.5 48.5t-104.5 48.5t-102 22q-92 0 -172 -92z" />
    <glyph glyph-name="utilde" unicode="&#x169;" horiz-adv-x="1259" 
d="M735 305q-66 -178 -156.5 -256t-205.5 -78q-57 0 -98 18.5t-63 54t-33.5 77t-11 97t6 105t16.5 109.5l62 334q21 119 -51 119q-41 0 -133 -62l-33 41q48 53 102.5 90.5t102.5 54t82.5 23t62.5 6.5q57 0 92 -15t57 -52.5t21 -102t-16 -163.5l-50 -277q-47 -268 39 -268
q45 0 105.5 73t116.5 197l92 553h299l-123 -754q-11 -71 -4.5 -97t33.5 -26q45 0 155 127l45 -36q-37 -54 -65.5 -88t-69 -69t-88.5 -52t-106 -17q-119 0 -166.5 91t-16.5 243zM299 1245q35 69 61.5 114t61.5 90t73 67t80 22q48 0 105 -22.5t101 -50t99 -50t99 -22.5
q85 0 160 86l41 -21q-35 -67 -62 -111t-62 -87.5t-73.5 -64.5t-81.5 -21q-54 0 -112.5 22.5t-101 49t-94.5 49t-93 22.5q-83 0 -162 -94z" />
    <glyph glyph-name="Umacron" unicode="&#x16a;" horiz-adv-x="1742" 
d="M221 614l117 748q11 80 -16.5 111.5t-98.5 39.5l-96 13l10 57h785l-11 -57l-100 -13q-72 -8 -110.5 -39.5t-49.5 -111.5q-86 -514 -125 -764q-25 -157 -6 -262.5t103.5 -159t242.5 -53.5q199 0 329.5 139.5t172.5 411.5l55 348q10 63 15.5 97t12.5 87.5t7.5 83.5t0 69.5
t-8 61.5t-19.5 44.5t-32 33.5t-47 14l-115 13l10 57h649l-10 -57l-117 -13q-53 -6 -91 -45t-64.5 -124t-38 -141t-30.5 -176q-1 -3 -1 -5l-59 -385q-51 -319 -238.5 -492.5t-486.5 -173.5q-154 0 -269 41t-186.5 121.5t-93.5 201t10 279.5zM698 1767l19 113h766l-19 -113
h-766z" />
    <glyph glyph-name="umacron" unicode="&#x16b;" horiz-adv-x="1259" 
d="M735 305q-66 -178 -156.5 -256t-205.5 -78q-57 0 -98 18.5t-63 54t-33.5 77t-11 97t6 105t16.5 109.5l62 334q21 119 -51 119q-41 0 -133 -62l-33 41q48 53 102.5 90.5t102.5 54t82.5 23t62.5 6.5q57 0 92 -15t57 -52.5t21 -102t-16 -163.5l-50 -277q-47 -268 39 -268
q45 0 105.5 73t116.5 197l92 553h299l-123 -754q-11 -71 -4.5 -97t33.5 -26q45 0 155 127l45 -36q-37 -54 -65.5 -88t-69 -69t-88.5 -52t-106 -17q-119 0 -166.5 91t-16.5 243zM340 1270l18 112h766l-18 -112h-766z" />
    <glyph glyph-name="Ubreve" unicode="&#x16c;" horiz-adv-x="1742" 
d="M221 614l117 748q11 80 -16.5 111.5t-98.5 39.5l-96 13l10 57h785l-11 -57l-100 -13q-72 -8 -110.5 -39.5t-49.5 -111.5q-86 -514 -125 -764q-25 -157 -6 -262.5t103.5 -159t242.5 -53.5q199 0 329.5 139.5t172.5 411.5l55 348q10 63 15.5 97t12.5 87.5t7.5 83.5t0 69.5
t-8 61.5t-19.5 44.5t-32 33.5t-47 14l-115 13l10 57h649l-10 -57l-117 -13q-53 -6 -91 -45t-64.5 -124t-38 -141t-30.5 -176q-1 -3 -1 -5l-59 -385q-51 -319 -238.5 -492.5t-486.5 -173.5q-154 0 -269 41t-186.5 121.5t-93.5 201t10 279.5zM1096 1784q92 0 146.5 52.5
t86.5 174.5h117q-15 -71 -42 -126.5t-60.5 -90t-68 -58t-73 -34.5t-67 -15t-56.5 -4q-33 0 -67.5 5.5t-78.5 24.5t-77.5 49.5t-56.5 86.5t-23 129v33h121v-14q0 -108 55.5 -160.5t143.5 -52.5z" />
    <glyph glyph-name="ubreve" unicode="&#x16d;" horiz-adv-x="1259" 
d="M735 305q-66 -178 -156.5 -256t-205.5 -78q-57 0 -98 18.5t-63 54t-33.5 77t-11 97t6 105t16.5 109.5l62 334q21 119 -51 119q-41 0 -133 -62l-33 41q48 53 102.5 90.5t102.5 54t82.5 23t62.5 6.5q57 0 92 -15t57 -52.5t21 -102t-16 -163.5l-50 -277q-47 -268 39 -268
q45 0 105.5 73t116.5 197l92 553h299l-123 -754q-11 -71 -4.5 -97t33.5 -26q45 0 155 127l45 -36q-37 -54 -65.5 -88t-69 -69t-88.5 -52t-106 -17q-119 0 -166.5 91t-16.5 243zM737 1266q92 0 147 52.5t87 174.5h116q-13 -61 -35.5 -111t-48 -83.5t-57 -58.5t-60.5 -39
t-61.5 -22.5t-56 -11t-47.5 -2.5q-33 0 -67.5 5.5t-78.5 24.5t-77.5 49.5t-56.5 86.5t-23 129l2 33h119v-14q0 -108 55 -160.5t143 -52.5z" />
    <glyph glyph-name="Uring" unicode="&#x16e;" horiz-adv-x="1742" 
d="M221 614l117 748q11 80 -16.5 111.5t-98.5 39.5l-96 13l10 57h785l-11 -57l-100 -13q-72 -8 -110.5 -39.5t-49.5 -111.5q-86 -514 -125 -764q-25 -157 -6 -262.5t103.5 -159t242.5 -53.5q199 0 329.5 139.5t172.5 411.5l55 348q10 63 15.5 97t12.5 87.5t7.5 83.5t0 69.5
t-8 61.5t-19.5 44.5t-32 33.5t-47 14l-115 13l10 57h649l-10 -57l-117 -13q-53 -6 -91 -45t-64.5 -124t-38 -141t-30.5 -176q-1 -3 -1 -5l-59 -385q-51 -319 -238.5 -492.5t-486.5 -173.5q-154 0 -269 41t-186.5 121.5t-93.5 201t10 279.5zM1122 2064q78 0 131.5 -51.5
t53.5 -126.5q0 -98 -68.5 -160.5t-171.5 -62.5q-78 0 -130 51t-52 125q0 93 70.5 159t166.5 66zM1108 1976q-55 0 -89 -36t-34 -95q0 -42 25.5 -68t70.5 -26q58 0 92.5 34t34.5 93q0 46 -28 72t-72 26z" />
    <glyph glyph-name="uring" unicode="&#x16f;" horiz-adv-x="1259" 
d="M735 305q-66 -178 -156.5 -256t-205.5 -78q-57 0 -98 18.5t-63 54t-33.5 77t-11 97t6 105t16.5 109.5l62 334q21 119 -51 119q-41 0 -133 -62l-33 41q48 53 102.5 90.5t102.5 54t82.5 23t62.5 6.5q57 0 92 -15t57 -52.5t21 -102t-16 -163.5l-50 -277q-47 -268 39 -268
q45 0 105.5 73t116.5 197l92 553h299l-123 -754q-11 -71 -4.5 -97t33.5 -26q45 0 155 127l45 -36q-37 -54 -65.5 -88t-69 -69t-88.5 -52t-106 -17q-119 0 -166.5 91t-16.5 243zM758 1546q78 0 131 -51.5t53 -126.5q0 -98 -68.5 -160.5t-171.5 -62.5q-78 0 -130 51t-52 125
q0 93 71 159t167 66zM743 1458q-55 0 -88.5 -36t-33.5 -95q0 -42 25.5 -68t70.5 -26q58 0 92.5 34t34.5 93q0 46 -28.5 72t-72.5 26z" />
    <glyph glyph-name="Uhungarumlaut" unicode="&#x170;" horiz-adv-x="1742" 
d="M221 614l117 748q11 80 -16.5 111.5t-98.5 39.5l-96 13l10 57h785l-11 -57l-100 -13q-72 -8 -110.5 -39.5t-49.5 -111.5q-86 -514 -125 -764q-25 -157 -6 -262.5t103.5 -159t242.5 -53.5q199 0 329.5 139.5t172.5 411.5l55 348q10 63 15.5 97t12.5 87.5t7.5 83.5t0 69.5
t-8 61.5t-19.5 44.5t-32 33.5t-47 14l-115 13l10 57h649l-10 -57l-117 -13q-53 -6 -91 -45t-64.5 -124t-38 -141t-30.5 -176q-1 -3 -1 -5l-59 -385q-51 -319 -238.5 -492.5t-486.5 -173.5q-154 0 -269 41t-186.5 121.5t-93.5 201t10 279.5zM727 1673l234 428h339l-514 -428
h-59zM1139 1673l233 428h340l-514 -428h-59z" />
    <glyph glyph-name="uhungarumlaut" unicode="&#x171;" horiz-adv-x="1259" 
d="M735 305q-66 -178 -156.5 -256t-205.5 -78q-57 0 -98 18.5t-63 54t-33.5 77t-11 97t6 105t16.5 109.5l62 334q21 119 -51 119q-41 0 -133 -62l-33 41q48 53 102.5 90.5t102.5 54t82.5 23t62.5 6.5q57 0 92 -15t57 -52.5t21 -102t-16 -163.5l-50 -277q-47 -268 39 -268
q45 0 105.5 73t116.5 197l92 553h299l-123 -754q-11 -71 -4.5 -97t33.5 -26q45 0 155 127l45 -36q-37 -54 -65.5 -88t-69 -69t-88.5 -52t-106 -17q-119 0 -166.5 91t-16.5 243zM322 1155l233 428h340l-514 -428h-59zM733 1155l234 428h340l-514 -428h-60z" />
    <glyph glyph-name="Uogonek" unicode="&#x172;" horiz-adv-x="1742" 
d="M815 -406l6 -30q-100 -74 -213 -74q-74 0 -127 39.5t-53 110.5q0 92 74.5 170t216.5 163q-292 11 -426.5 175.5t-71.5 465.5l117 748q11 80 -16.5 111.5t-98.5 39.5l-96 13l10 57h785l-11 -57l-100 -13q-72 -8 -110.5 -39.5t-49.5 -111.5q-86 -514 -125 -764
q-25 -157 -6 -262.5t103.5 -159t242.5 -53.5q199 0 329.5 139.5t172.5 411.5l55 348q10 63 15.5 97t12.5 87.5t7.5 83.5t0 69.5t-8 61.5t-19.5 44.5t-32 33.5t-47 14l-115 13l10 57h649l-10 -57l-117 -13q-53 -6 -91 -45t-64.5 -124t-38 -141t-30.5 -176q-1 -3 -1 -5
l-59 -385q-51 -315 -233 -487.5t-474 -178.5q-153 -147 -153 -290q0 -52 30 -76.5t78 -24.5q31 0 82 14z" />
    <glyph glyph-name="uogonek" unicode="&#x173;" horiz-adv-x="1259" 
d="M983 -408l6 -30q-100 -74 -213 -74q-74 0 -127 39.5t-53 110.5q0 92 76 171t219 164q-106 10 -146 99.5t-10 232.5q-66 -178 -156.5 -256t-205.5 -78q-57 0 -98 18.5t-63 54t-33.5 77t-11 97t6 105t16.5 109.5l62 334q21 119 -51 119q-41 0 -133 -62l-33 41
q48 53 102.5 90.5t102.5 54t82.5 23t62.5 6.5q57 0 92 -15t57 -52.5t21 -102t-16 -163.5l-50 -277q-47 -268 39 -268q45 0 105.5 73t116.5 197l92 553h299l-123 -754q-11 -71 -4.5 -97t33.5 -26q45 0 155 127l45 -36q-34 -49 -61 -82t-63.5 -66t-79.5 -52t-93 -24
q-157 -151 -157 -295q0 -52 30 -76t78 -24q31 0 82 14z" />
    <glyph glyph-name="Wcircumflex" unicode="&#x174;" horiz-adv-x="2260" 
d="M1575 397l323 799q35 87 47 148t6 96t-32 54.5t-55.5 25t-75.5 6.5l10 57h617l-11 -59q-56 -4 -93.5 -13t-79.5 -32t-76 -63.5t-72.5 -106.5t-79.5 -162l-520 -1196h-146l-180 1110l-489 -1110h-138l-219 1429q-6 39 -20.5 65.5t-40 40.5t-44 20t-52 11.5t-45.5 8.5
l10 57h741l-10 -57q-78 -6 -122.5 -18.5t-60.5 -31.5t-19 -45t3 -59l117 -975l362 842l-22 141q-7 39 -22 65.5t-40 40.5t-43.5 20t-52 11.5t-45.5 8.5l10 57h742l-10 -57q-78 -6 -122.5 -18.5t-61 -31.5t-19.5 -45t4 -59zM934 1696l352 403h94l226 -401l-39 -37l-269 207
l-325 -209z" />
    <glyph glyph-name="wcircumflex" unicode="&#x175;" horiz-adv-x="1720" 
d="M1130 821l50 -473l235 373q27 43 41.5 76.5t18 54.5t-4 36t-16 22.5t-27 11t-28 4t-26.5 0.5h-7l8 57h438l-8 -57q-44 0 -74 -8t-66.5 -34t-75.5 -74.5t-95 -131.5l-475 -717h-80l-98 727l-486 -727h-80l-118 870q-3 28 -15 47t-24.5 28t-35.5 14t-35.5 5.5t-37.5 0.5
l8 57h590l-8 -57q-27 0 -42.5 -1t-35.5 -6.5t-30.5 -16.5t-16.5 -31t-4 -50l41 -481l313 471l-4 20q-3 28 -15 47t-24 28t-35 14t-35.5 5.5t-37.5 0.5l8 57h590l-8 -57q-76 0 -107.5 -20.5t-24.5 -84.5zM524 1178l353 403h94l225 -401l-39 -37l-268 207l-326 -209z" />
    <glyph glyph-name="Ycircumflex" unicode="&#x176;" horiz-adv-x="1468" 
d="M844 834l268 362q47 64 73.5 115t34.5 84.5t1 58.5t-21 38t-39 21t-45 10t-47 3l10 57h543l-10 -59q-50 -1 -86.5 -15t-76.5 -52t-80.5 -89t-107.5 -141q-38 -51 -59 -80l-340 -453l-71 -473q-11 -80 16 -111.5t98 -39.5l96 -13l-10 -57h-784l10 57l100 13
q72 8 109.5 39.5t50.5 111.5l80 469l-250 690q-11 31 -27 54.5t-29.5 36.5t-36.5 23.5t-35 14t-39.5 9.5t-35.5 8l11 57h741l-10 -57q-78 -6 -125 -19.5t-64.5 -33t-19.5 -45t10 -56.5zM586 1696l352 403h94l225 -401l-38 -37l-269 207l-325 -209z" />
    <glyph glyph-name="ycircumflex" unicode="&#x177;" horiz-adv-x="1042" 
d="M283 1030q81 0 143 -46t100 -127t57.5 -192t19 -241t-18.5 -274q244 277 282 403q16 62 11 96t-24 66t-39.5 53.5t-37 57.5t-16.5 79q0 56 35 90.5t104 34.5q79 0 116.5 -55.5t37.5 -147.5q0 -81 -30.5 -173t-78 -177t-119 -181t-140.5 -175.5t-155 -169.5
q-278 -292 -509 -434t-390 -142q-116 0 -186 53t-70 136q0 42 33 74t92 32q36 0 66 -18t50.5 -43.5t38.5 -51t40 -43.5t47 -18q66 0 225.5 107t337.5 268q13 108 14 243.5t-10.5 269.5t-33.5 247t-58.5 183.5t-81.5 70.5q-16 0 -25 -2t-26 -10.5t-34.5 -32t-35.5 -60.5
l-47 25q79 225 316 225zM287 1178l352 403h94l225 -401l-38 -37l-269 207l-325 -209z" />
    <glyph glyph-name="Ydieresis" unicode="&#x178;" horiz-adv-x="1468" 
d="M844 834l268 362q47 64 73.5 115t34.5 84.5t1 58.5t-21 38t-39 21t-45 10t-47 3l10 57h543l-10 -59q-50 -1 -86.5 -15t-76.5 -52t-80.5 -89t-107.5 -141q-38 -51 -59 -80l-340 -453l-71 -473q-11 -80 16 -111.5t98 -39.5l96 -13l-10 -57h-784l10 57l100 13
q72 8 109.5 39.5t50.5 111.5l80 469l-250 690q-11 31 -27 54.5t-29.5 36.5t-36.5 23.5t-35 14t-39.5 9.5t-35.5 8l11 57h741l-10 -57q-78 -6 -125 -19.5t-64.5 -33t-19.5 -45t10 -56.5zM492 1890q0 72 50 122t122 50q75 0 125.5 -50t50.5 -122q0 -75 -50.5 -125.5
t-125.5 -50.5q-72 0 -122 50.5t-50 125.5zM1085 1890q0 72 50 122t122 50q75 0 126 -50t51 -122q0 -75 -51 -125.5t-126 -50.5q-72 0 -122 50.5t-50 125.5z" />
    <glyph glyph-name="Zacute" unicode="&#x179;" horiz-adv-x="1376" 
d="M-125 23l1122 1450h-254q-107 0 -186 -16.5t-129.5 -43.5t-86.5 -74.5t-55.5 -94.5t-39.5 -120h-72l90 459h1135l8 -29l-1124 -1450h405q91 0 165 22.5t122.5 58t86 87t58 100.5t35.5 107h70l-76 -479h-1264zM686 1673l232 428h339l-512 -428h-59z" />
    <glyph glyph-name="zacute" unicode="&#x17a;" horiz-adv-x="1001" 
d="M1073 965l-776 -689h440l125 156h49l-174 -432h-852l-8 18l764 684h-385l-127 -151h-49l174 432h811zM449 1155l231 428h340l-512 -428h-59z" />
    <glyph glyph-name="Zdotaccent" unicode="&#x17b;" horiz-adv-x="1376" 
d="M-125 23l1122 1450h-254q-107 0 -186 -16.5t-129.5 -43.5t-86.5 -74.5t-55.5 -94.5t-39.5 -120h-72l90 459h1135l8 -29l-1124 -1450h405q91 0 165 22.5t122.5 58t86 87t58 100.5t35.5 107h70l-76 -479h-1264zM668 1894q0 78 55 133.5t133 55.5t133 -55.5t55 -133.5
t-55 -133t-133 -55t-133 55t-55 133z" />
    <glyph glyph-name="zdotaccent" unicode="&#x17c;" horiz-adv-x="1001" 
d="M1073 965l-776 -689h440l125 156h49l-174 -432h-852l-8 18l764 684h-385l-127 -151h-49l174 432h811zM479 1376q0 78 55.5 133.5t133.5 55.5t133 -55.5t55 -133.5t-55 -133t-133 -55t-133.5 55t-55.5 133z" />
    <glyph glyph-name="Zcaron" unicode="&#x17d;" horiz-adv-x="1376" 
d="M-125 23l1122 1450h-254q-107 0 -186 -16.5t-129.5 -43.5t-86.5 -74.5t-55.5 -94.5t-39.5 -120h-72l90 459h1135l8 -29l-1124 -1450h405q91 0 165 22.5t122.5 58t86 87t58 100.5t35.5 107h70l-76 -479h-1264zM1251 2064l-364 -403h-80l-232 401l43 35l267 -213l325 215z
" />
    <glyph glyph-name="zcaron" unicode="&#x17e;" horiz-adv-x="1001" 
d="M1073 965l-776 -689h440l125 156h49l-174 -432h-852l-8 18l764 684h-385l-127 -151h-49l174 432h811zM1051 1546l-365 -403h-80l-231 401l43 35l266 -213l326 215z" />
    <glyph glyph-name="uni018F" unicode="&#x18f;" horiz-adv-x="1642" 
d="M668 -27q-131 0 -245.5 34.5t-201.5 100.5t-137.5 169.5t-50.5 232.5q0 49 10 117h1135q36 109 36 243q0 105 -25.5 201.5t-74 175.5t-128.5 126.5t-181 47.5q-179 0 -319 -72t-293 -253l-76 32q303 484 778 484q159 0 289 -51t214 -139.5t129.5 -206.5t45.5 -254
q0 -203 -76 -387.5t-200.5 -315.5t-289.5 -208t-339 -77zM688 63q158 0 279.5 125t185.5 361h-780q-11 -75 -11 -115q0 -94 27.5 -167t74.5 -116.5t103.5 -65.5t120.5 -22z" />
    <glyph glyph-name="Scommaaccent" unicode="&#x218;" horiz-adv-x="1218" 
d="M483 84q163 0 254.5 73.5t91.5 180.5q0 95 -48.5 166t-157.5 133l-150 86q-88 51 -144.5 93t-98.5 93t-60 109.5t-18 134.5q0 204 164.5 331.5t428.5 127.5q225 0 418 -101l-28 -348h-70q-28 173 -118.5 257.5t-215.5 84.5q-143 0 -221 -66t-78 -177q0 -144 166 -240
l186 -109q39 -23 54 -31.5t51.5 -31.5t53 -36.5t46 -38.5t44 -44t34.5 -48t29.5 -56.5t16.5 -62.5t7 -72q0 -245 -177.5 -383t-475.5 -138q-123 0 -255 33t-212 90l63 373h56q19 -211 109 -297t255 -86zM287 -571l-17 41q133 90 133 151q0 21 -25 46t-50 55t-25 65
q0 60 46 99.5t118 39.5q70 0 104.5 -39t34.5 -100q0 -73 -52 -148t-122.5 -128t-144.5 -82z" />
    <glyph glyph-name="scommaaccent" unicode="&#x219;" horiz-adv-x="911" 
d="M504 666l69 -58q113 -92 168.5 -166.5t55.5 -150.5q0 -82 -39 -146t-101 -100.5t-130 -55t-136 -18.5q-88 0 -167.5 19t-136 63.5t-56.5 106.5q0 55 35 89t98 34q42 0 73 -18t46.5 -44.5t31.5 -57.5t29 -57.5t37.5 -44.5t58.5 -18q40 0 71.5 29t31.5 88q0 70 -37.5 120.5
t-128.5 127.5l-94 79q-170 146 -170 291q0 84 55.5 144.5t140.5 88t187 27.5q47 0 102 -9t111.5 -26.5t93.5 -50.5t37 -75q0 -45 -29 -82t-82 -37q-49 0 -83 21.5t-52.5 52t-35.5 60.5t-42.5 51.5t-62.5 21.5q-41 0 -67 -21t-26 -65q0 -46 39.5 -103t104.5 -110zM240 -571
l-17 41q133 90 133 151q0 21 -25 46t-50 55t-25 65q0 60 46 99.5t118 39.5q70 0 104.5 -39t34.5 -100q0 -73 -52 -148t-122.5 -128t-144.5 -82z" />
    <glyph glyph-name="Tcommaaccent" unicode="&#x21a;" horiz-adv-x="1531" 
d="M92 1145l70 438h1468l-69 -438h-70q5 74 -7 131t-44.5 103t-95 70t-152.5 24h-162l-147 -928l-47 -324q-10 -81 17 -112t97 -39l97 -13l-11 -57h-784l10 57l100 13q72 8 109.5 39.5t50.5 111.5l16 76l40 248l147 928h-162q-175 0 -269.5 -87t-131.5 -241h-70zM440 -571
l-16 41q133 90 133 151q0 21 -25 46t-50 55t-25 65q0 60 46 99.5t118 39.5q70 0 104.5 -39t34.5 -100q0 -55 -30 -112.5t-78 -104t-103 -83.5t-109 -58z" />
    <glyph glyph-name="tcommaaccent" unicode="&#x21b;" horiz-adv-x="827" 
d="M139 262l103 623l-154 16l12 82h179l292 262h23l-41 -262h295l-14 -98h-295l-107 -656q-11 -71 -4.5 -97t33.5 -26q30 0 88 33.5t110 93.5l46 -36q-70 -100 -164.5 -163t-206.5 -63q-119 0 -168 77t-27 214zM94 -571l-16 41q133 90 133 151q0 21 -25 46t-50 55t-25 65
q0 60 45.5 99.5t117.5 39.5q70 0 105 -39t35 -100q0 -55 -30 -112.5t-78 -104t-103 -83.5t-109 -58z" />
    <glyph glyph-name="uni0232" unicode="&#x232;" horiz-adv-x="1468" 
d="M844 834l268 362q47 64 73.5 115t34.5 84.5t1 58.5t-21 38t-39 21t-45 10t-47 3l10 57h543l-10 -59q-50 -1 -86.5 -15t-76.5 -52t-80.5 -89t-107.5 -141q-38 -51 -59 -80l-340 -453l-71 -473q-11 -80 16 -111.5t98 -39.5l96 -13l-10 -57h-784l10 57l100 13
q72 8 109.5 39.5t50.5 111.5l80 469l-250 690q-11 31 -27 54.5t-29.5 36.5t-36.5 23.5t-35 14t-39.5 9.5t-35.5 8l11 57h741l-10 -57q-78 -6 -125 -19.5t-64.5 -33t-19.5 -45t10 -56.5zM580 1767l18 113h766l-18 -113h-766z" />
    <glyph glyph-name="uni0233" unicode="&#x233;" horiz-adv-x="1042" 
d="M283 1030q81 0 143 -46t100 -127t57.5 -192t19 -241t-18.5 -274q244 277 282 403q16 62 11 96t-24 66t-39.5 53.5t-37 57.5t-16.5 79q0 56 35 90.5t104 34.5q79 0 116.5 -55.5t37.5 -147.5q0 -81 -30.5 -173t-78 -177t-119 -181t-140.5 -175.5t-155 -169.5
q-278 -292 -509 -434t-390 -142q-116 0 -186 53t-70 136q0 42 33 74t92 32q36 0 66 -18t50.5 -43.5t38.5 -51t40 -43.5t47 -18q66 0 225.5 107t337.5 268q13 108 14 243.5t-10.5 269.5t-33.5 247t-58.5 183.5t-81.5 70.5q-16 0 -25 -2t-26 -10.5t-34.5 -32t-35.5 -60.5
l-47 25q79 225 316 225zM240 1270l18 112h766l-18 -112h-766z" />
    <glyph glyph-name="dotlessj" unicode="&#x237;" horiz-adv-x="630" 
d="M528 723l-94 -530q-24 -132 -53 -227.5t-74 -183.5t-109.5 -157t-155.5 -132t-216 -124l-23 37q128 119 201.5 292t136.5 521l103 547q21 119 -51 119q-44 0 -136 -62l-32 41q48 53 101 90.5t99 54t79 23t61 6.5q52 0 87.5 -14.5t60 -50.5t27 -97t-11.5 -153z" />
    <glyph glyph-name="uni0259" unicode="&#x259;" horiz-adv-x="933" 
d="M895 688q0 -138 -51 -270t-134 -229.5t-196.5 -157.5t-232.5 -60q-62 0 -110.5 10.5t-77.5 26.5t-47.5 38t-25 41.5t-6.5 39.5q0 45 18 86t45 73.5t73.5 65t87 54.5t104 49t105 43t108.5 40q9 3 14 5q6 59 6 98q0 132 -31.5 188t-92.5 56q-156 0 -306 -248l-49 25
q177 374 502 374q132 0 214.5 -87.5t82.5 -260.5zM340 49q48 0 87.5 41.5t65.5 111t42.5 139.5t27.5 148q-120 -59 -202 -145t-82 -182q0 -65 16 -89t45 -24z" />
    <glyph glyph-name="circumflex" unicode="&#x2c6;" horiz-adv-x="700" 
d="M-23 1178l353 403h94l225 -401l-39 -37l-268 207l-326 -209z" />
    <glyph glyph-name="caron" unicode="&#x2c7;" horiz-adv-x="700" 
d="M711 1546l-365 -403h-80l-231 401l43 35l266 -213l326 215z" />
    <glyph glyph-name="breve" unicode="&#x2d8;" horiz-adv-x="944" 
d="M479 1266q92 0 147 52.5t87 174.5h116q-13 -61 -35.5 -111t-48 -83.5t-57 -58.5t-60.5 -39t-61.5 -22.5t-56 -11t-47.5 -2.5q-33 0 -67.5 5.5t-78.5 24.5t-77.5 49.5t-56.5 86.5t-23 129l2 33h119v-14q0 -108 55 -160.5t143 -52.5z" />
    <glyph glyph-name="dotaccent" unicode="&#x2d9;" horiz-adv-x="499" 
d="M61 1376q0 78 55.5 133.5t133.5 55.5t133 -55.5t55 -133.5t-55 -133t-133 -55t-133.5 55t-55.5 133z" />
    <glyph glyph-name="ring" unicode="&#x2da;" horiz-adv-x="622" 
d="M338 1546q78 0 131 -51.5t53 -126.5q0 -98 -68 -160.5t-171 -62.5q-78 0 -130.5 51t-52.5 125q0 93 71 159t167 66zM324 1458q-55 0 -89 -36t-34 -95q0 -42 25.5 -68t70.5 -26q58 0 92.5 34t34.5 93q0 46 -28 72t-72 26z" />
    <glyph glyph-name="ogonek" unicode="&#x2db;" 
d="M793 -408l6 -30q-100 -74 -213 -74q-74 0 -127 39.5t-53 110.5q0 52 25.5 101t76 94.5t105.5 83t135 83.5h40q-186 -165 -186 -322q0 -52 30 -76t79 -24q31 0 82 14z" />
    <glyph glyph-name="tilde" unicode="&#x2dc;" horiz-adv-x="968" 
d="M43 1245q35 69 61.5 114t61.5 90t73 67t80 22q48 0 105 -22.5t101 -50t99 -50t99 -22.5q85 0 160 86l41 -21q-35 -67 -62 -111t-62 -87.5t-73.5 -64.5t-81.5 -21q-54 0 -112.5 22.5t-101 49t-94.5 49t-93 22.5q-83 0 -162 -94z" />
    <glyph glyph-name="hungarumlaut" unicode="&#x2dd;" horiz-adv-x="1073" 
d="M27 1155l233 428h340l-514 -428h-59zM438 1155l234 428h340l-514 -428h-60z" />
    <glyph glyph-name="pi" unicode="&#x3c0;" horiz-adv-x="1470" 
d="M203 870l18 113h1184l-19 -113h-178l-139 -870h-119l140 870h-590l-140 -870h-118l139 870h-178z" />
    <glyph glyph-name="Wgrave" unicode="&#x1e80;" horiz-adv-x="2260" 
d="M1575 397l323 799q35 87 47 148t6 96t-32 54.5t-55.5 25t-75.5 6.5l10 57h617l-11 -59q-56 -4 -93.5 -13t-79.5 -32t-76 -63.5t-72.5 -106.5t-79.5 -162l-520 -1196h-146l-180 1110l-489 -1110h-138l-219 1429q-6 39 -20.5 65.5t-40 40.5t-44 20t-52 11.5t-45.5 8.5
l10 57h741l-10 -57q-78 -6 -122.5 -18.5t-60.5 -31.5t-19 -45t3 -59l117 -975l362 842l-22 141q-7 39 -22 65.5t-40 40.5t-43.5 20t-52 11.5t-45.5 8.5l10 57h742l-10 -57q-78 -6 -122.5 -18.5t-61 -31.5t-19.5 -45t4 -59zM1217 2101l98 -428h-60l-376 428h338z" />
    <glyph glyph-name="wgrave" unicode="&#x1e81;" horiz-adv-x="1720" 
d="M1130 821l50 -473l235 373q27 43 41.5 76.5t18 54.5t-4 36t-16 22.5t-27 11t-28 4t-26.5 0.5h-7l8 57h438l-8 -57q-44 0 -74 -8t-66.5 -34t-75.5 -74.5t-95 -131.5l-475 -717h-80l-98 727l-486 -727h-80l-118 870q-3 28 -15 47t-24.5 28t-35.5 14t-35.5 5.5t-37.5 0.5
l8 57h590l-8 -57q-27 0 -42.5 -1t-35.5 -6.5t-30.5 -16.5t-16.5 -31t-4 -50l41 -481l313 471l-4 20q-3 28 -15 47t-24 28t-35 14t-35.5 5.5t-37.5 0.5l8 57h590l-8 -57q-76 0 -107.5 -20.5t-24.5 -84.5zM938 1583l98 -428h-59l-377 428h338z" />
    <glyph glyph-name="Wacute" unicode="&#x1e82;" horiz-adv-x="2260" 
d="M1575 397l323 799q35 87 47 148t6 96t-32 54.5t-55.5 25t-75.5 6.5l10 57h617l-11 -59q-56 -4 -93.5 -13t-79.5 -32t-76 -63.5t-72.5 -106.5t-79.5 -162l-520 -1196h-146l-180 1110l-489 -1110h-138l-219 1429q-6 39 -20.5 65.5t-40 40.5t-44 20t-52 11.5t-45.5 8.5
l10 57h741l-10 -57q-78 -6 -122.5 -18.5t-60.5 -31.5t-19 -45t3 -59l117 -975l362 842l-22 141q-7 39 -22 65.5t-40 40.5t-43.5 20t-52 11.5t-45.5 8.5l10 57h742l-10 -57q-78 -6 -122.5 -18.5t-61 -31.5t-19.5 -45t4 -59zM1116 1673l232 428h340l-512 -428h-60z" />
    <glyph glyph-name="wacute" unicode="&#x1e83;" horiz-adv-x="1720" 
d="M1130 821l50 -473l235 373q27 43 41.5 76.5t18 54.5t-4 36t-16 22.5t-27 11t-28 4t-26.5 0.5h-7l8 57h438l-8 -57q-44 0 -74 -8t-66.5 -34t-75.5 -74.5t-95 -131.5l-475 -717h-80l-98 727l-486 -727h-80l-118 870q-3 28 -15 47t-24.5 28t-35.5 14t-35.5 5.5t-37.5 0.5
l8 57h590l-8 -57q-27 0 -42.5 -1t-35.5 -6.5t-30.5 -16.5t-16.5 -31t-4 -50l41 -481l313 471l-4 20q-3 28 -15 47t-24 28t-35 14t-35.5 5.5t-37.5 0.5l8 57h590l-8 -57q-76 0 -107.5 -20.5t-24.5 -84.5zM770 1155l231 428h340l-512 -428h-59z" />
    <glyph glyph-name="Wdieresis" unicode="&#x1e84;" horiz-adv-x="2260" 
d="M1575 397l323 799q35 87 47 148t6 96t-32 54.5t-55.5 25t-75.5 6.5l10 57h617l-11 -59q-56 -4 -93.5 -13t-79.5 -32t-76 -63.5t-72.5 -106.5t-79.5 -162l-520 -1196h-146l-180 1110l-489 -1110h-138l-219 1429q-6 39 -20.5 65.5t-40 40.5t-44 20t-52 11.5t-45.5 8.5
l10 57h741l-10 -57q-78 -6 -122.5 -18.5t-60.5 -31.5t-19 -45t3 -59l117 -975l362 842l-22 141q-7 39 -22 65.5t-40 40.5t-43.5 20t-52 11.5t-45.5 8.5l10 57h742l-10 -57q-78 -6 -122.5 -18.5t-61 -31.5t-19.5 -45t4 -59zM797 1890q0 72 50 122t122 50q75 0 125.5 -50
t50.5 -122q0 -75 -50.5 -125.5t-125.5 -50.5q-72 0 -122 50.5t-50 125.5zM1391 1890q0 72 50 122t122 50q75 0 125.5 -50t50.5 -122q0 -75 -50.5 -125.5t-125.5 -50.5q-72 0 -122 50.5t-50 125.5z" />
    <glyph glyph-name="wdieresis" unicode="&#x1e85;" horiz-adv-x="1720" 
d="M1130 821l50 -473l235 373q27 43 41.5 76.5t18 54.5t-4 36t-16 22.5t-27 11t-28 4t-26.5 0.5h-7l8 57h438l-8 -57q-44 0 -74 -8t-66.5 -34t-75.5 -74.5t-95 -131.5l-475 -717h-80l-98 727l-486 -727h-80l-118 870q-3 28 -15 47t-24.5 28t-35.5 14t-35.5 5.5t-37.5 0.5
l8 57h590l-8 -57q-27 0 -42.5 -1t-35.5 -6.5t-30.5 -16.5t-16.5 -31t-4 -50l41 -481l313 471l-4 20q-3 28 -15 47t-24 28t-35 14t-35.5 5.5t-37.5 0.5l8 57h590l-8 -57q-76 0 -107.5 -20.5t-24.5 -84.5zM588 1372q0 72 50 122t122 50q75 0 125.5 -50t50.5 -122
q0 -75 -50.5 -125.5t-125.5 -50.5q-72 0 -122 50.5t-50 125.5zM1059 1372q0 72 50 122t122 50q75 0 125.5 -50t50.5 -122q0 -75 -50.5 -125.5t-125.5 -50.5q-72 0 -122 50.5t-50 125.5z" />
    <glyph glyph-name="uni1ECA" unicode="&#x1eca;" horiz-adv-x="905" 
d="M659 1044l-79 -499q-21 -129 -33 -210t-13 -97l-2 -17q-10 -81 17 -112t98 -39l96 -13l-10 -57h-782l10 57l98 13q72 8 109.5 39.5t50.5 111.5q16 84 55 324l80 499q16 95 27.5 174.5t15.5 111.5l4 32q11 80 -16.5 111.5t-97.5 39.5l-97 13l11 57h784l-10 -57l-101 -13
q-73 -8 -109.5 -39.5t-49.5 -111.5q-23 -111 -56 -318zM119 -322q0 72 50 122t122 50q75 0 125.5 -50t50.5 -122q0 -75 -50.5 -125.5t-125.5 -50.5q-72 0 -122 50.5t-50 125.5z" />
    <glyph glyph-name="uni1ECB" unicode="&#x1ecb;" horiz-adv-x="700" 
d="M266 1376q0 78 55.5 133.5t133.5 55.5t133 -55.5t55 -133.5t-55 -133t-133 -55t-133.5 55t-55.5 133zM61 -322q0 72 50 122t122 50q75 0 126 -50t51 -122q0 -75 -51 -125.5t-126 -50.5q-72 0 -122 50.5t-50 125.5zM150 262l98 504q24 119 -51 119q-42 0 -134 -62l-32 41
q48 53 101 90.5t99 54t79 23t61 6.5q113 0 155.5 -69.5t8.5 -245.5l-93 -494q-12 -71 -5 -97t34 -26q48 0 158 127l45 -36q-37 -54 -66 -88t-69.5 -69t-88.5 -52t-106 -17q-117 0 -168.5 77.5t-25.5 213.5z" />
    <glyph glyph-name="uni1ECC" unicode="&#x1ecc;" horiz-adv-x="1792" 
d="M1389 901q0 288 -117.5 441t-325.5 153q-160 0 -286.5 -116t-193.5 -306.5t-67 -415.5q0 -277 119 -425t320 -148q160 0 285 100.5t195.5 287t70.5 429.5zM72 741q0 181 70.5 342t189 274t278.5 179t334 66q164 0 307.5 -57.5t246.5 -158.5t162.5 -244t59.5 -308
q0 -182 -70.5 -343t-189 -274t-278.5 -178.5t-334 -65.5q-165 0 -309 57.5t-246.5 158t-161.5 243.5t-59 309zM571 -322q0 72 50 122t122 50q75 0 126 -50t51 -122q0 -75 -51 -125.5t-126 -50.5q-72 0 -122 50.5t-50 125.5z" />
    <glyph glyph-name="uni1ECD" unicode="&#x1ecd;" horiz-adv-x="1114" 
d="M43 311q0 141 60 276.5t153 232.5t209.5 156.5t226.5 59.5q107 0 184.5 -30t118 -81t58.5 -107.5t18 -121.5q0 -141 -59.5 -276.5t-152.5 -232.5t-209 -156.5t-226 -59.5q-87 0 -155 20.5t-109.5 53t-68.5 78t-37.5 91.5t-10.5 97zM365 365q0 -74 4 -125t16 -96t35 -67
t59 -22q57 0 105 44.5t78 112t51.5 149.5t30 153.5t8.5 128.5q0 73 -4.5 124t-17 94.5t-36 65t-59.5 21.5q-57 0 -105 -44t-77.5 -110.5t-50 -148t-29 -152.5t-8.5 -128zM195 -322q0 72 50 122t122 50q75 0 125.5 -50t50.5 -122q0 -75 -50.5 -125.5t-125.5 -50.5
q-72 0 -122 50.5t-50 125.5z" />
    <glyph glyph-name="uni1EE4" unicode="&#x1ee4;" horiz-adv-x="1742" 
d="M221 614l117 748q11 80 -16.5 111.5t-98.5 39.5l-96 13l10 57h785l-11 -57l-100 -13q-72 -8 -110.5 -39.5t-49.5 -111.5q-86 -514 -125 -764q-25 -157 -6 -262.5t103.5 -159t242.5 -53.5q199 0 329.5 139.5t172.5 411.5l55 348q10 63 15.5 97t12.5 87.5t7.5 83.5t0 69.5
t-8 61.5t-19.5 44.5t-32 33.5t-47 14l-115 13l10 57h649l-10 -57l-117 -13q-53 -6 -91 -45t-64.5 -124t-38 -141t-30.5 -176q-1 -3 -1 -5l-59 -385q-51 -319 -238.5 -492.5t-486.5 -173.5q-154 0 -269 41t-186.5 121.5t-93.5 201t10 279.5zM563 -322q0 72 50 122t122 50
q75 0 125.5 -50t50.5 -122q0 -75 -50.5 -125.5t-125.5 -50.5q-72 0 -122 50.5t-50 125.5z" />
    <glyph glyph-name="uni1EE5" unicode="&#x1ee5;" horiz-adv-x="1259" 
d="M735 305q-66 -178 -156.5 -256t-205.5 -78q-57 0 -98 18.5t-63 54t-33.5 77t-11 97t6 105t16.5 109.5l62 334q21 119 -51 119q-41 0 -133 -62l-33 41q48 53 102.5 90.5t102.5 54t82.5 23t62.5 6.5q57 0 92 -15t57 -52.5t21 -102t-16 -163.5l-50 -277q-47 -268 39 -268
q45 0 105.5 73t116.5 197l92 553h299l-123 -754q-11 -71 -4.5 -97t33.5 -26q45 0 155 127l45 -36q-37 -54 -65.5 -88t-69 -69t-88.5 -52t-106 -17q-119 0 -166.5 91t-16.5 243zM350 -322q0 72 50 122t122 50q75 0 125.5 -50t50.5 -122q0 -75 -50.5 -125.5t-125.5 -50.5
q-72 0 -122 50.5t-50 125.5z" />
    <glyph glyph-name="Ygrave" unicode="&#x1ef2;" horiz-adv-x="1468" 
d="M887 2101l98 -428h-59l-377 428h338zM844 834l268 362q47 64 73.5 115t34.5 84.5t1 58.5t-21 38t-39 21t-45 10t-47 3l10 57h543l-10 -59q-50 -1 -86.5 -15t-76.5 -52t-80.5 -89t-107.5 -141q-38 -51 -59 -80l-340 -453l-71 -473q-11 -80 16 -111.5t98 -39.5l96 -13
l-10 -57h-784l10 57l100 13q72 8 109.5 39.5t50.5 111.5l80 469l-250 690q-11 31 -27 54.5t-29.5 36.5t-36.5 23.5t-35 14t-39.5 9.5t-35.5 8l11 57h741l-10 -57q-78 -6 -125 -19.5t-64.5 -33t-19.5 -45t10 -56.5z" />
    <glyph glyph-name="ygrave" unicode="&#x1ef3;" horiz-adv-x="1042" 
d="M283 1030q81 0 143 -46t100 -127t57.5 -192t19 -241t-18.5 -274q244 277 282 403q16 62 11 96t-24 66t-39.5 53.5t-37 57.5t-16.5 79q0 56 35 90.5t104 34.5q79 0 116.5 -55.5t37.5 -147.5q0 -81 -30.5 -173t-78 -177t-119 -181t-140.5 -175.5t-155 -169.5
q-278 -292 -509 -434t-390 -142q-116 0 -186 53t-70 136q0 42 33 74t92 32q36 0 66 -18t50.5 -43.5t38.5 -51t40 -43.5t47 -18q66 0 225.5 107t337.5 268q13 108 14 243.5t-10.5 269.5t-33.5 247t-58.5 183.5t-81.5 70.5q-16 0 -25 -2t-26 -10.5t-34.5 -32t-35.5 -60.5
l-47 25q79 225 316 225zM590 1583l98 -428h-59l-377 428h338z" />
    <glyph glyph-name="endash" unicode="&#x2013;" horiz-adv-x="1052" 
d="M92 465l19 113h847l-18 -113h-848z" />
    <glyph glyph-name="emdash" unicode="&#x2014;" horiz-adv-x="1558" 
d="M92 465l19 113h1353l-18 -113h-1354z" />
    <glyph glyph-name="quoteleft" unicode="&#x2018;" horiz-adv-x="518" 
d="M418 1610l18 -64q-49 -20 -107.5 -74t-58.5 -106q0 -24 18.5 -54.5t41 -56t41 -61.5t18.5 -70q0 -75 -50 -120.5t-130 -45.5q-87 0 -138 67t-51 161q0 90 64 180.5t153.5 152.5t180.5 91z" />
    <glyph glyph-name="quoteright" unicode="&#x2019;" horiz-adv-x="518" 
d="M100 958l-18 64q49 20 107.5 74t58.5 106q0 24 -18.5 54.5t-41 56t-41 61.5t-18.5 70q0 75 50 120.5t130 45.5q87 0 138 -67t51 -161q0 -90 -64 -180.5t-153.5 -152.5t-180.5 -91z" />
    <glyph glyph-name="quotesinglbase" unicode="&#x201a;" horiz-adv-x="579" 
d="M94 -270l-18 63q49 20 107.5 74t58.5 106q0 24 -18.5 54.5t-41 56t-41 61.5t-18.5 70q0 75 50 120.5t130 45.5q87 0 138 -66.5t51 -160.5q0 -90 -64 -180.5t-153.5 -152.5t-180.5 -91z" />
    <glyph glyph-name="quotedblleft" unicode="&#x201c;" horiz-adv-x="968" 
d="M868 1610l19 -64q-49 -20 -107.5 -74t-58.5 -106q0 -24 18.5 -54.5t41 -56t41 -61.5t18.5 -70q0 -75 -50.5 -120.5t-130.5 -45.5q-87 0 -137.5 67t-50.5 161q0 90 64 180.5t153 152.5t180 91zM418 1610l18 -64q-49 -20 -107.5 -74t-58.5 -106q0 -24 18.5 -54.5t41 -56
t41 -61.5t18.5 -70q0 -75 -50 -120.5t-130 -45.5q-87 0 -138 67t-51 161q0 90 64 180.5t153.5 152.5t180.5 91z" />
    <glyph glyph-name="quotedblright" unicode="&#x201d;" horiz-adv-x="968" 
d="M551 958l-19 64q49 20 107.5 74t58.5 106q0 24 -18.5 54.5t-40.5 56t-40.5 61.5t-18.5 70q0 75 50 120.5t130 45.5q87 0 137.5 -67t50.5 -161q0 -90 -64 -180.5t-153 -152.5t-180 -91zM100 958l-18 64q49 20 107.5 74t58.5 106q0 24 -18.5 54.5t-41 56t-41 61.5t-18.5 70
q0 75 50 120.5t130 45.5q87 0 138 -67t51 -161q0 -90 -64 -180.5t-153.5 -152.5t-180.5 -91z" />
    <glyph glyph-name="quotedblbase" unicode="&#x201e;" horiz-adv-x="1032" 
d="M547 -270l-19 63q49 20 107.5 74t58.5 106q0 24 -18.5 54.5t-41 56t-41 61.5t-18.5 70q0 75 50.5 120.5t130.5 45.5q87 0 137.5 -66.5t50.5 -160.5q0 -90 -64 -180.5t-153 -152.5t-180 -91zM96 -270l-18 63q49 20 107.5 74t58.5 106q0 24 -18.5 54.5t-41 56t-41 61.5
t-18.5 70q0 75 50 120.5t130 45.5q87 0 138 -66.5t51 -160.5q0 -90 -64 -180.5t-153.5 -152.5t-180.5 -91z" />
    <glyph glyph-name="dagger" unicode="&#x2020;" horiz-adv-x="1474" 
d="M70 868l18 113h637l96 606h119l-96 -606h643l-19 -113h-643l-178 -1126h-119l179 1126h-637z" />
    <glyph glyph-name="daggerdbl" unicode="&#x2021;" horiz-adv-x="1474" 
d="M76 909l18 113h637l90 565h119l-90 -565h643l-18 -113h-644l-86 -540h646l-19 -113h-643l-82 -514h-119l82 514h-635l19 113h633l86 540h-637z" />
    <glyph glyph-name="bullet" unicode="&#x2022;" horiz-adv-x="872" 
d="M102 530q0 135 96.5 231.5t231.5 96.5q144 0 242 -96t98 -232q0 -145 -97.5 -242.5t-242.5 -97.5q-136 0 -232 98t-96 242z" />
    <glyph glyph-name="ellipsis" unicode="&#x2026;" horiz-adv-x="1650" 
d="M1161 168q0 79 55.5 134.5t135.5 55.5q84 0 140 -55t56 -135q0 -85 -55.5 -141t-140.5 -56q-80 0 -135.5 56.5t-55.5 140.5zM633 168q0 80 55.5 135t134.5 55q84 0 140.5 -55t56.5 -135q0 -85 -56 -141t-141 -56q-80 0 -135 56.5t-55 140.5zM102 168q0 79 55.5 134.5
t135.5 55.5q84 0 140 -55t56 -135q0 -85 -55.5 -141t-140.5 -56q-80 0 -135.5 56.5t-55.5 140.5z" />
    <glyph glyph-name="perthousand" unicode="&#x2030;" horiz-adv-x="2684" 
d="M2136 74q84 0 147 46t93 115t30 148q0 102 -54.5 165.5t-160.5 63.5q-119 0 -195.5 -87.5t-76.5 -219.5q0 -46 11 -85t35 -73t67.5 -53.5t103.5 -19.5zM2132 -31q-158 0 -243 91t-85 229q0 186 111.5 306t284.5 120q160 0 242.5 -88.5t82.5 -223.5q0 -112 -49.5 -211.5
t-141 -161t-202.5 -61.5zM1665 1618l-1331 -1618h-127l1327 1618h131zM471 893q84 0 147 46t93 115t30 148q0 102 -54.5 166t-160.5 64q-119 0 -195.5 -88t-76.5 -220q0 -46 11 -85t35 -73t67.5 -53.5t103.5 -19.5zM467 788q-158 0 -243 91t-85 229q0 186 111.5 306
t284.5 120q160 0 242.5 -88t82.5 -223q0 -113 -49.5 -212t-141 -161t-202.5 -62zM1290 76q84 0 147.5 46t93.5 115.5t30 147.5q0 102 -54.5 165.5t-160.5 63.5q-119 0 -196 -87.5t-77 -219.5q0 -46 11 -85t35 -73t67.5 -53.5t103.5 -19.5zM1286 -29q-158 0 -243 91t-85 229
q0 186 111.5 306t284.5 120q160 0 242.5 -88t82.5 -223q0 -113 -49.5 -212t-141 -161t-202.5 -62z" />
    <glyph glyph-name="guilsinglleft" unicode="&#x2039;" horiz-adv-x="602" 
d="M449 70l-410 430l545 432h55l-324 -438l187 -424h-53z" />
    <glyph glyph-name="guilsinglright" unicode="&#x203a;" horiz-adv-x="602" 
d="M559 500l-545 -430h-51l324 440l-189 422h56z" />
    <glyph glyph-name="fraction" unicode="&#x2044;" horiz-adv-x="866" 
d="M1006 1669l-963 -1737h-125l963 1737h125z" />
    <glyph glyph-name="Euro" unicode="&#x20ac;" horiz-adv-x="1755" 
d="M59 952l17 113h252q103 246 335 393.5t517 147.5q164 0 289 -31.5t268 -95.5l-29 -363h-53q-38 192 -162 287.5t-295 95.5q-203 0 -344 -118t-213 -316h403l-16 -113h-420q-28 -131 -28 -262h405l-16 -112h-385q13 -126 54.5 -222.5t105 -155t142 -87.5t169.5 -29
q72 0 135.5 17t130 57.5t129.5 116.5t119 186h59l-88 -346q-192 -144 -504 -144q-154 0 -287.5 47t-229 129.5t-158.5 192.5t-87 238h-274l16 112h246v35q0 111 29 227h-232z" />
    <glyph glyph-name="trademark" unicode="&#x2122;" horiz-adv-x="2191" 
d="M51 1243v342h852v-342h-37q-14 149 -73 216t-191 67v-701q0 -56 28 -79t118 -27v-43h-539v43q88 4 115.5 27t27.5 79v701q-73 0 -119.5 -14t-76.5 -49.5t-44.5 -86t-23.5 -133.5h-37zM1112 895l21 532q3 64 -23.5 86t-91.5 27v45h352l199 -508l176 508h366v-45
q-61 -5 -85 -26t-21 -78l27 -633q2 -38 23 -59t77 -25v-43h-451v43q58 4 80.5 25.5t20.5 58.5l-25 608l-266 -747h-12l-281 667l-16 -436q-1 -41 2 -70.5t14 -48t21 -29.5t31 -17t34 -7.5t41 -3.5v-43h-367v43q27 2 41 4t34.5 8t31.5 17t22.5 29.5t17.5 48t7 69.5z" />
    <glyph glyph-name="Omega" unicode="&#x2126;" horiz-adv-x="1826" 
d="M981 0l18 111q94 27 178 69t161.5 107t133.5 145t89.5 189t33.5 233q0 131 -38.5 243.5t-103.5 190t-150.5 133t-179.5 81.5t-191 26q-103 0 -202 -22t-195.5 -74t-168.5 -129.5t-116.5 -198t-44.5 -268.5q0 -129 42 -247.5t113 -209.5t159 -158.5t186 -107.5l-19 -113
h-682l19 113h501q-204 104 -321 305t-117 418q0 187 68 340t184 252t267 152.5t321 53.5q229 0 409.5 -101.5t281.5 -282t101 -408.5q0 -241 -140 -440.5t-361 -288.5h512l-19 -113h-729z" />
    <glyph glyph-name="partialdiff" unicode="&#x2202;" horiz-adv-x="1161" 
d="M582 1038q141 0 248 -88.5t131 -251.5q2 20 2 64q0 260 -153 456.5t-398 274.5l53 106q602 -230 602 -819q0 -116 -21.5 -229t-69 -218.5t-115.5 -185.5t-169 -128t-221 -48q-111 0 -198 39t-139.5 105.5t-79.5 148.5t-27 174q0 131 48.5 245.5t127.5 191t178 120
t201 43.5zM586 922q-85 0 -162 -33t-136 -93.5t-93.5 -152t-34.5 -201.5q0 -159 87 -257.5t226 -98.5q104 0 188 38.5t136.5 104t80 149t27.5 177.5q0 73 -18.5 137t-56 116.5t-100.5 83t-144 30.5z" />
    <glyph glyph-name="Delta" unicode="&#x2206;" horiz-adv-x="1236" 
d="M711 1204l430 -1204h-1235zM674 952l-553 -837h848z" />
    <glyph glyph-name="product" unicode="&#x220f;" horiz-adv-x="1736" 
d="M-2 -276l14 108h174l260 1638h-178l17 113h1450l-17 -113h-178l-260 -1638h182l-16 -108h-461l16 108h160l260 1638h-856l-260 -1638h168l-16 -108h-459z" />
    <glyph glyph-name="summation" unicode="&#x2211;" horiz-adv-x="1441" 
d="M596 807l-416 776h1223l-76 -471h-119l58 358h-885l362 -671l-598 -686h926l57 358h119l-76 -471h-1275z" />
    <glyph glyph-name="minus" unicode="&#x2212;" horiz-adv-x="1134" 
d="M92 465l19 113h929l-18 -113h-930z" />
    <glyph glyph-name="radical" unicode="&#x221a;" horiz-adv-x="1415" 
d="M18 715l19 112h328l137 -634l758 1615h512l-19 -112h-424l-868 -1811l-189 830h-254z" />
    <glyph glyph-name="infinity" unicode="&#x221e;" horiz-adv-x="1611" 
d="M469 770q112 0 191.5 -45.5t160.5 -159.5q102 108 197.5 156.5t206.5 48.5q129 0 208.5 -77.5t79.5 -190.5q0 -144 -106.5 -234t-259.5 -90q-98 0 -193 56.5t-159 160.5q-209 -215 -414 -215q-128 0 -206.5 75.5t-78.5 186.5q0 147 106.5 237.5t266.5 90.5zM406 291
q88 0 164.5 41.5t168.5 142.5q-60 95 -120.5 139.5t-147.5 44.5q-110 0 -179 -56t-69 -148q0 -68 47 -116t136 -48zM1153 291q101 0 167 51.5t66 144.5q0 73 -49.5 122.5t-142.5 49.5q-81 0 -152 -39.5t-163 -138.5q59 -100 121.5 -145t152.5 -45z" />
    <glyph glyph-name="integral" unicode="&#x222b;" horiz-adv-x="546" 
d="M76 -379l276 1751q9 56 26.5 97t51.5 76.5t92 54t140 18.5h20l-16 -105q-101 0 -142 -26.5t-55 -114.5l-276 -1751q-9 -56 -26.5 -97t-51 -76.5t-91.5 -54t-139 -18.5h-20l16 105q104 0 143 27t52 114z" />
    <glyph glyph-name="approxequal" unicode="&#x2248;" horiz-adv-x="1349" 
d="M399 854q57 0 119.5 -21t118 -51t110 -59.5t112 -50.5t106.5 -21q63 0 112 35t101 125l96 -41q-56 -114 -144 -172.5t-182 -58.5q-71 0 -153.5 31.5t-144 68.5t-135.5 68.5t-132 31.5q-63 0 -113 -36t-102 -128l-94 48q56 114 143.5 172.5t181.5 58.5zM399 475
q57 0 119.5 -21t118 -50.5t110 -59.5t112 -51t106.5 -21q63 0 112 35t101 125l96 -41q-56 -114 -144 -172.5t-182 -58.5q-59 0 -123 20.5t-119 50t-109 59t-110 50t-104 20.5q-63 0 -113 -36t-102 -127l-94 47q56 114 143.5 172.5t181.5 58.5z" />
    <glyph glyph-name="notequal" unicode="&#x2260;" horiz-adv-x="1134" 
d="M145 645l33 113h502l176 246h119l-176 -246h309l-33 -113h-356l-189 -262h459l-33 -113h-505l-193 -270h-119l193 270h-305l32 113h355l186 262h-455z" />
    <glyph glyph-name="lessequal" unicode="&#x2264;" horiz-adv-x="1239" 
d="M109 565l18 113l1090 352l-21 -131l-913 -283l821 -301l-23 -137zM45 0l16 113h1010l-16 -113h-1010z" />
    <glyph glyph-name="greaterequal" unicode="&#x2265;" horiz-adv-x="1241" 
d="M1163 678l-18 -113l-1096 -387l23 139l907 304l-815 282l20 127zM1049 113l-17 -113h-1009l16 113h1010z" />
    <glyph glyph-name="lozenge" unicode="&#x25ca;" horiz-adv-x="1153" 
d="M428 -102l-369 870l648 889l383 -889zM956 778l-280 652l-481 -672l268 -643z" />
    <glyph glyph-name="fi" unicode="&#xfb01;" horiz-adv-x="1329" 
d="M776 262l121 623h-324l-151 -953q-20 -123 -66.5 -221t-105.5 -159.5t-131 -102.5t-138 -57.5t-131 -16.5q-82 0 -162.5 20.5t-140 66.5t-59.5 108q0 52 33 92.5t98 40.5q41 0 72.5 -18.5t48.5 -46t33.5 -59.5t29.5 -59.5t34.5 -46t49.5 -18.5q20 0 41.5 10t48 39.5
t50 75t47 124.5t39.5 181l157 1000h-229l18 100h228l16 98q20 123 65.5 221t103 159.5t127.5 102.5t136 57.5t131 16.5q82 0 164 -20t143.5 -66.5t61.5 -107.5q0 -53 -32 -95t-97 -42q-49 0 -84.5 26t-55.5 63t-38 74t-42.5 63t-56.5 26q-27 0 -53.5 -18.5t-56.5 -62.5
t-58.5 -133.5t-48.5 -216.5l-22 -145h622l-143 -756q-12 -71 -5 -97t34 -26q47 0 157 127l45 -36q-37 -54 -65.5 -88t-69 -69t-88.5 -52t-106 -17q-117 0 -169 77.5t-26 213.5z" />
    <glyph glyph-name="fl" unicode="&#xfb02;" horiz-adv-x="1351" 
d="M846 1561q-21 0 -43 -10t-49.5 -39.5t-51.5 -75.5t-48 -125t-40 -181l-22 -145h237l-16 -100h-238l-151 -953q-20 -123 -66.5 -221t-105.5 -159.5t-130.5 -102.5t-137.5 -57.5t-131 -16.5q-82 0 -162.5 20.5t-140.5 66.5t-60 108q0 52 33 92.5t98 40.5q41 0 72.5 -18.5
t48.5 -46t33.5 -59.5t29.5 -59.5t34.5 -46t49.5 -18.5q20 0 41.5 10t48 39.5t50 75t47 124.5t39.5 181l157 1000h-229l18 100h228l16 98q20 123 67 221t106.5 159.5t132 102.5t140 57.5t132.5 16.5q93 0 172 -16l270 14l-231 -1409q-9 -46 -8 -73.5t9.5 -38.5t26.5 -11
q46 0 156 127l45 -36q-37 -54 -66 -88t-69.5 -69t-88.5 -52t-106 -17q-117 0 -167 76t-27 215l188 1135q-14 20 -39 69.5t-47 72t-55 22.5z" />
    <glyph glyph-name="uniFB06" unicode="&#xfb06;" horiz-adv-x="1685" 
d="M1442 1145l-27 -162h291l-14 -98h-295l-107 -656q-11 -71 -4.5 -97t33.5 -26q30 0 88.5 33.5t110.5 93.5l45 -36q-70 -100 -164.5 -163t-206.5 -63q-119 0 -168 77t-27 214l103 623l-154 16l12 82h164l21 127q14 84 15.5 149t-9 108.5t-27.5 73t-44 45t-54.5 21.5
t-62.5 6q-123 0 -181.5 -81t-58.5 -203q0 -139 65 -250q4 -7 21 -32t25 -43.5t8 -37.5q0 -41 -29 -74.5t-82 -33.5q-49 0 -83 21.5t-52.5 52t-35.5 60.5t-42.5 51.5t-62.5 21.5q-41 0 -67 -21t-26 -65q0 -46 39.5 -103t104.5 -110l69 -58q113 -92 168.5 -166.5t55.5 -150.5
q0 -82 -39 -146t-101 -100.5t-130 -55t-136 -18.5q-88 0 -167.5 19t-136 63.5t-56.5 106.5q0 55 35 89t98 34q42 0 73 -18t46.5 -44.5t31.5 -57.5t29 -57.5t37.5 -44.5t58.5 -18q40 0 71.5 29t31.5 88q0 70 -37.5 120.5t-128.5 127.5l-94 79q-170 146 -170 291
q0 84 55.5 144.5t140.5 88t187 27.5q48 0 112 -11t113 -34q-59 66 -90 149t-31 156q0 146 121 243t319 97q45 0 85.5 -4.5t83.5 -15t77 -28.5t67 -45.5t53 -64.5t35 -86t13.5 -110.5t-12.5 -138.5z" />
    <glyph glyph-name="CR" horiz-adv-x="368" 
 />
    <glyph glyph-name="A.sc" horiz-adv-x="1265" 
d="M760 1149l260 -981q16 -60 62 -85.5t100 -25.5l-8 -57h-590l8 57q73 0 102 21t15 84l-35 145h-369l-24 -45q-19 -34 -30 -62.5t-15.5 -48.5t0 -36t9 -25.5t18.5 -16.5t21 -10t25 -4.5t22.5 -1.5h20.5l-8 -57h-434l8 57q43 0 72 8t62 34t67.5 74.5t81.5 131.5l473 844h86z
M567 768l-198 -348h278z" />
    <glyph glyph-name="Aacute.sc" horiz-adv-x="1265" 
d="M760 1149l260 -981q16 -60 62 -85.5t100 -25.5l-8 -57h-590l8 57q73 0 102 21t15 84l-35 145h-369l-24 -45q-19 -34 -30 -62.5t-15.5 -48.5t0 -36t9 -25.5t18.5 -16.5t21 -10t25 -4.5t22.5 -1.5h20.5l-8 -57h-434l8 57q43 0 72 8t62 34t67.5 74.5t81.5 131.5l473 844h86z
M567 768l-198 -348h278zM461 1155l231 428h340l-512 -428h-59z" />
    <glyph glyph-name="Acircumflex.sc" horiz-adv-x="1265" 
d="M760 1149l260 -981q16 -60 62 -85.5t100 -25.5l-8 -57h-590l8 57q73 0 102 21t15 84l-35 145h-369l-24 -45q-19 -34 -30 -62.5t-15.5 -48.5t0 -36t9 -25.5t18.5 -16.5t21 -10t25 -4.5t22.5 -1.5h20.5l-8 -57h-434l8 57q43 0 72 8t62 34t67.5 74.5t81.5 131.5l473 844h86z
M567 768l-198 -348h278zM367 1178l352 403h94l225 -401l-39 -37l-268 207l-325 -209z" />
    <glyph glyph-name="Adieresis.sc" horiz-adv-x="1265" 
d="M760 1149l260 -981q16 -60 62 -85.5t100 -25.5l-8 -57h-590l8 57q73 0 102 21t15 84l-35 145h-369l-24 -45q-19 -34 -30 -62.5t-15.5 -48.5t0 -36t9 -25.5t18.5 -16.5t21 -10t25 -4.5t22.5 -1.5h20.5l-8 -57h-434l8 57q43 0 72 8t62 34t67.5 74.5t81.5 131.5l473 844h86z
M567 768l-198 -348h278zM328 1372q0 72 50 122t122 50q75 0 125.5 -50t50.5 -122q0 -75 -50.5 -125.5t-125.5 -50.5q-72 0 -122 50.5t-50 125.5zM799 1372q0 72 50 122t122 50q75 0 125.5 -50t50.5 -122q0 -75 -50.5 -125.5t-125.5 -50.5q-72 0 -122 50.5t-50 125.5z" />
    <glyph glyph-name="Agrave.sc" horiz-adv-x="1265" 
d="M760 1149l260 -981q16 -60 62 -85.5t100 -25.5l-8 -57h-590l8 57q73 0 102 21t15 84l-35 145h-369l-24 -45q-19 -34 -30 -62.5t-15.5 -48.5t0 -36t9 -25.5t18.5 -16.5t21 -10t25 -4.5t22.5 -1.5h20.5l-8 -57h-434l8 57q43 0 72 8t62 34t67.5 74.5t81.5 131.5l473 844h86z
M567 768l-198 -348h278zM813 1583l98 -428h-59l-377 428h338z" />
    <glyph glyph-name="Aring.sc" horiz-adv-x="1265" 
d="M786 1546q78 0 131.5 -51.5t53.5 -126.5q0 -91 -59 -152.5t-152 -70.5l260 -977q16 -60 62 -85.5t100 -25.5l-8 -57h-590l8 57q73 0 102 21t15 84l-35 145h-369l-24 -45q-19 -34 -30 -62.5t-15.5 -48.5t0 -36t9 -25.5t18.5 -16.5t21 -10t25 -4.5t22.5 -1.5h20.5l-8 -57
h-434l8 57q43 0 72 8t62 34t67.5 74.5t81.5 131.5l473 844h14q-62 12 -100.5 60t-38.5 112q0 93 70.5 159t166.5 66zM567 768l-198 -348h278zM772 1458q-55 0 -89 -36t-34 -95q0 -42 25.5 -68t70.5 -26q58 0 92.5 34t34.5 93q0 46 -28 72t-72 26z" />
    <glyph glyph-name="Atilde.sc" horiz-adv-x="1265" 
d="M760 1149l260 -981q16 -60 62 -85.5t100 -25.5l-8 -57h-590l8 57q73 0 102 21t15 84l-35 145h-369l-24 -45q-19 -34 -30 -62.5t-15.5 -48.5t0 -36t9 -25.5t18.5 -16.5t21 -10t25 -4.5t22.5 -1.5h20.5l-8 -57h-434l8 57q43 0 72 8t62 34t67.5 74.5t81.5 131.5l473 844h86z
M567 768l-198 -348h278zM313 1245q35 69 61.5 114t62 90t73.5 67t80 22q48 0 104.5 -22.5t100.5 -50t99 -50t99 -22.5q85 0 160 86l41 -21q-35 -67 -62 -111t-62 -87.5t-73.5 -64.5t-81.5 -21q-54 0 -112.5 22.5t-101 49t-94.5 49t-93 22.5q-83 0 -162 -94z" />
    <glyph glyph-name="B.sc" horiz-adv-x="1249" 
d="M-4 0l6 57l88 13q54 7 74 30t31 82q20 98 45 256l34 217q39 246 39 297q0 34 -15 50t-56 22l-84 12l10 58h102q101 0 270 2t263 2q165 0 271 -62.5t106 -173.5q0 -100 -78 -172t-209 -102q127 -7 198.5 -81.5t71.5 -172.5q0 -165 -129.5 -249.5t-367.5 -84.5h-670z
M545 526q-56 -322 -56 -360q0 -96 136 -96q96 0 161.5 67.5t65.5 190.5q0 86 -54 142t-143 56h-110zM623 1026l-66 -424h66q115 0 183 59.5t68 180.5q0 97 -51.5 143.5t-134.5 46.5q-30 0 -65 -6z" />
    <glyph glyph-name="C.sc" horiz-adv-x="1288" 
d="M1178 377l-70 -322q-193 -84 -422 -84q-169 0 -305.5 65.5t-218.5 193.5t-82 296q0 177 87 314t241 211.5t350 74.5q241 0 473 -88l-23 -278h-51q-32 138 -141.5 209t-257.5 71q-155 0 -261 -155t-106 -420q0 -408 305 -408q298 0 428 320h54z" />
    <glyph glyph-name="Ccedilla.sc" horiz-adv-x="1288" 
d="M1178 377l-70 -322q-197 -84 -418 -84l-137 -164q78 54 145 54q59 0 95 -30t36 -85q0 -63 -42.5 -116t-108.5 -87t-137 -54t-138 -26v37q99 20 171.5 88.5t72.5 141.5q0 27 -16 42t-43 15q-33 0 -66 -23l-43 39l137 172q-235 19 -385.5 167t-150.5 384q0 177 87 314
t241 211.5t350 74.5q241 0 473 -88l-23 -278h-51q-32 138 -141.5 209t-257.5 71q-155 0 -261 -155t-106 -420q0 -408 305 -408q298 0 428 320h54z" />
    <glyph glyph-name="D.sc" horiz-adv-x="1441" 
d="M522 379l-28 -197q-5 -34 5 -55.5t35.5 -31t52 -12.5t68.5 -3q75 0 146.5 39t130 111.5t94 187t35.5 252.5q0 96 -27.5 166t-78 108.5t-111 56t-135.5 17.5q-64 0 -84 -2zM158 1036l10 58q101 -1 317.5 1.5t282.5 2.5q290 0 446 -119t156 -338q0 -288 -206.5 -464.5
t-545.5 -176.5h-622l6 57l88 13q54 7 74 30t31 82q20 98 45 256l34 217l37 256q6 60 -6 83t-63 30z" />
    <glyph glyph-name="E.sc" horiz-adv-x="1210" 
d="M168 1094h985l-49 -312h-66q9 115 -50.5 163t-211.5 48h-155l-60 -381h117q79 0 118.5 41t63.5 127h62l-70 -440h-64q5 94 -21.5 140t-96.5 46h-123l-27 -170l-22 -153q-10 -61 8 -84t88 -23h94q153 0 224 52t104 176h65l-51 -324h-1034l8 57l88 13q54 7 74 30.5t29 81.5
q20 98 45 256l34 217l37 256q7 60 -5 83t-64 30l-84 12z" />
    <glyph glyph-name="Eacute.sc" horiz-adv-x="1210" 
d="M502 1155l231 428h340l-512 -428h-59zM168 1094h985l-49 -312h-66q9 115 -50.5 163t-211.5 48h-155l-60 -381h117q79 0 118.5 41t63.5 127h62l-70 -440h-64q5 94 -21.5 140t-96.5 46h-123l-27 -170l-22 -153q-10 -61 8 -84t88 -23h94q153 0 224 52t104 176h65l-51 -324
h-1034l8 57l88 13q54 7 74 30.5t29 81.5q20 98 45 256l34 217l37 256q7 60 -5 83t-64 30l-84 12z" />
    <glyph glyph-name="Ecircumflex.sc" horiz-adv-x="1210" 
d="M367 1178l352 403h94l225 -401l-39 -37l-268 207l-325 -209zM168 1094h985l-49 -312h-66q9 115 -50.5 163t-211.5 48h-155l-60 -381h117q79 0 118.5 41t63.5 127h62l-70 -440h-64q5 94 -21.5 140t-96.5 46h-123l-27 -170l-22 -153q-10 -61 8 -84t88 -23h94q153 0 224 52
t104 176h65l-51 -324h-1034l8 57l88 13q54 7 74 30.5t29 81.5q20 98 45 256l34 217l37 256q7 60 -5 83t-64 30l-84 12z" />
    <glyph glyph-name="Edieresis.sc" horiz-adv-x="1210" 
d="M338 1372q0 72 50 122t122 50q75 0 125.5 -50t50.5 -122q0 -75 -50.5 -125.5t-125.5 -50.5q-72 0 -122 50.5t-50 125.5zM809 1372q0 72 50 122t122 50q75 0 125.5 -50t50.5 -122q0 -75 -50.5 -125.5t-125.5 -50.5q-72 0 -122 50.5t-50 125.5zM168 1094h985l-49 -312h-66
q9 115 -50.5 163t-211.5 48h-155l-60 -381h117q79 0 118.5 41t63.5 127h62l-70 -440h-64q5 94 -21.5 140t-96.5 46h-123l-27 -170l-22 -153q-10 -61 8 -84t88 -23h94q153 0 224 52t104 176h65l-51 -324h-1034l8 57l88 13q54 7 74 30.5t29 81.5q20 98 45 256l34 217l37 256
q7 60 -5 83t-64 30l-84 12z" />
    <glyph glyph-name="Egrave.sc" horiz-adv-x="1210" 
d="M766 1583l98 -428h-59l-377 428h338zM168 1094h985l-49 -312h-66q9 115 -50.5 163t-211.5 48h-155l-60 -381h117q79 0 118.5 41t63.5 127h62l-70 -440h-64q5 94 -21.5 140t-96.5 46h-123l-27 -170l-22 -153q-10 -61 8 -84t88 -23h94q153 0 224 52t104 176h65l-51 -324
h-1034l8 57l88 13q54 7 74 30.5t29 81.5q20 98 45 256l34 217l37 256q7 60 -5 83t-64 30l-84 12z" />
    <glyph glyph-name="F.sc" horiz-adv-x="1107" 
d="M-4 0l8 57l88 13q54 7 74 30.5t29 81.5q20 98 45 256l34 217l37 256q7 60 -5 83t-64 30l-84 12l10 58h985l-49 -310h-66q9 115 -50.5 163t-211.5 48h-155l-60 -383h117q79 0 118.5 41t63.5 127h62l-70 -440h-64q5 94 -21.5 140t-96.5 46h-123l-15 -88q-12 -70 -21 -134
t-12 -93l-3 -29q-7 -60 5 -83t64 -29l111 -13l-10 -57h-670z" />
    <glyph glyph-name="G.sc" horiz-adv-x="1320" 
d="M645 -29q-169 0 -305.5 65.5t-218.5 193.5t-82 296q0 177 87 314t241 211.5t350 74.5q241 0 473 -88l-23 -278h-51q-32 138 -141.5 209t-257.5 71q-155 0 -261 -155t-106 -420q0 -408 305 -408q85 0 131.5 24.5t55.5 78.5l22 133q9 59 -3.5 82.5t-65.5 30.5l-84 12l10 57
h563l-10 -57q-55 -4 -73.5 -32t-29.5 -93l-30 -193q-91 -65 -227 -97t-269 -32z" />
    <glyph glyph-name="H.sc" horiz-adv-x="1540" 
d="M997 606l9 49l36 256q7 60 -5 83t-64 30l-84 12l10 58h645l-10 -58l-88 -12q-53 -7 -73.5 -31t-29.5 -82q-20 -98 -45 -256l-34 -217l-37 -256q-5 -37 -2.5 -60t19 -35t52.5 -17l84 -13l-10 -57h-645l10 57l88 13q54 7 74 30.5t29 81.5q20 98 45 256l10 66h-438l-11 -66
l-36 -256q-5 -37 -2.5 -60t19 -35t52.5 -17l84 -13l-10 -57h-643l8 57l88 13q54 7 74 30.5t29 81.5q20 98 45 256l34 217l37 256q7 60 -5 83t-64 30l-84 12l10 58h645l-10 -58l-88 -12q-53 -7 -73.5 -31t-29.5 -82q-20 -98 -45 -256l-8 -49h438z" />
    <glyph glyph-name="I.sc" horiz-adv-x="808" 
d="M240 438l34 217l37 256q7 60 -5 83t-64 30l-84 12l10 58h645l-10 -58l-88 -12q-53 -7 -73.5 -31t-29.5 -82q-20 -98 -45 -256l-35 -217l-36 -256q-5 -37 -2.5 -60t19 -35t52.5 -17l84 -13l-10 -57h-643l8 57l88 13q54 7 74 30.5t29 81.5q20 98 45 256z" />
    <glyph glyph-name="Iacute.sc" horiz-adv-x="808" 
d="M221 1155l232 428h340l-512 -428h-60zM240 438l34 217l37 256q7 60 -5 83t-64 30l-84 12l10 58h645l-10 -58l-88 -12q-53 -7 -73.5 -31t-29.5 -82q-20 -98 -45 -256l-35 -217l-36 -256q-5 -37 -2.5 -60t19 -35t52.5 -17l84 -13l-10 -57h-643l8 57l88 13q54 7 74 30.5
t29 81.5q20 98 45 256z" />
    <glyph glyph-name="Icircumflex.sc" horiz-adv-x="808" 
d="M162 1178l352 403h94l226 -401l-39 -37l-269 207l-325 -209zM240 438l34 217l37 256q7 60 -5 83t-64 30l-84 12l10 58h645l-10 -58l-88 -12q-53 -7 -73.5 -31t-29.5 -82q-20 -98 -45 -256l-35 -217l-36 -256q-5 -37 -2.5 -60t19 -35t52.5 -17l84 -13l-10 -57h-643l8 57
l88 13q54 7 74 30.5t29 81.5q20 98 45 256z" />
    <glyph glyph-name="Idieresis.sc" horiz-adv-x="808" 
d="M102 1372q0 72 50 122t122 50q75 0 126 -50t51 -122q0 -75 -51 -125.5t-126 -50.5q-72 0 -122 50.5t-50 125.5zM573 1372q0 72 50 122t122 50q75 0 126 -50t51 -122q0 -75 -51 -125.5t-126 -50.5q-72 0 -122 50.5t-50 125.5zM240 438l34 217l37 256q7 60 -5 83t-64 30
l-84 12l10 58h645l-10 -58l-88 -12q-53 -7 -73.5 -31t-29.5 -82q-20 -98 -45 -256l-35 -217l-36 -256q-5 -37 -2.5 -60t19 -35t52.5 -17l84 -13l-10 -57h-643l8 57l88 13q54 7 74 30.5t29 81.5q20 98 45 256z" />
    <glyph glyph-name="Igrave.sc" horiz-adv-x="808" 
d="M608 1583l99 -428h-60l-377 428h338zM240 438l34 217l37 256q7 60 -5 83t-64 30l-84 12l10 58h645l-10 -58l-88 -12q-53 -7 -73.5 -31t-29.5 -82q-20 -98 -45 -256l-35 -217l-36 -256q-5 -37 -2.5 -60t19 -35t52.5 -17l84 -13l-10 -57h-643l8 57l88 13q54 7 74 30.5
t29 81.5q20 98 45 256z" />
    <glyph glyph-name="J.sc" horiz-adv-x="913" 
d="M395 487l33 205l31 219q8 59 -4.5 83t-63.5 30l-106 12l10 58h666l-11 -58l-86 -12q-54 -7 -73.5 -30.5t-30.5 -82.5q-14 -61 -39 -219l-33 -205q-16 -98 -36 -172t-53 -141.5t-77 -110t-107.5 -67.5t-144.5 -25q-69 0 -133 19.5t-109.5 63t-45.5 102.5q0 47 28.5 74.5
t79.5 27.5q48 0 77 -25.5t42 -85.5q14 -67 27 -89.5t32 -22.5t36.5 34t33.5 105.5t28 138.5t29 174z" />
    <glyph glyph-name="K.sc" horiz-adv-x="1447" 
d="M240 438l34 217l37 256q7 60 -5 83t-64 30l-84 12l10 58h645l-10 -58l-88 -12q-53 -7 -73.5 -31t-29.5 -82q-20 -98 -45 -256l-20 -125l346 332q38 37 59.5 67t25 54.5t-19 38t-71.5 14.5l10 58h514l-10 -60q-117 0 -205.5 -47.5t-189.5 -140.5l-203 -187l340 -475
q85 -117 225 -131l-8 -53h-645l10 57q35 1 58 6.5t38 19t9 40t-33 63.5l-250 342l-15 -90l-36 -256q-5 -37 -2.5 -60t19 -35t52.5 -17l84 -13l-10 -57h-643l8 57l88 13q54 7 74 30.5t29 81.5q20 98 45 256z" />
    <glyph glyph-name="L.sc" horiz-adv-x="1179" 
d="M821 1094l-10 -58l-100 -12q-53 -7 -73.5 -31t-29.5 -82l-88 -553l-22 -153q-10 -61 8 -84t88 -23h94q153 0 224 52t104 176h65l-51 -326h-1034l8 57l88 13q54 7 74 30.5t29 81.5q20 98 45 256l34 217l37 256q7 60 -5 83t-64 30l-84 12l10 58h653z" />
    <glyph glyph-name="M.sc" horiz-adv-x="1740" 
d="M223 313l127 598q12 57 -1.5 81.5t-67.5 31.5l-84 12l10 58h446l215 -738l447 738h409l-10 -58l-88 -12q-54 -7 -75 -31.5t-27 -81.5l-76 -729q-5 -61 6.5 -83t63.5 -29l84 -13l-11 -57h-641l11 57l88 13q54 7 75 31t27 81l68 563l-451 -745h-106l-240 752l-88 -447
q-11 -57 -16 -93t-2 -64.5t11 -43.5t29.5 -25.5t47 -14.5t69.5 -7l-10 -57h-488l11 57q42 4 65 8t50 14t41 25.5t30.5 43.5t27.5 67.5t23 97.5z" />
    <glyph glyph-name="N.sc" horiz-adv-x="1433" 
d="M989 -29l-565 854l-88 -553q-17 -84 -7.5 -131.5t44.5 -65t116 -20.5l-10 -55h-481l8 55q57 2 92 11t62.5 32.5t43 63.5t25.5 106l109 684q-35 46 -66 68t-77 22l8 52h436l446 -688l66 419q20 129 -7.5 169t-144.5 44l9 56h483l-8 -56q-58 -2 -93 -10.5t-63 -31
t-43.5 -62t-26.5 -105.5l-135 -858h-133z" />
    <glyph glyph-name="Ntilde.sc" horiz-adv-x="1433" 
d="M418 1245q35 69 61.5 114t61.5 90t73 67t80 22q48 0 105 -22.5t101 -50t99 -50t99 -22.5q84 0 159 86l41 -21q-28 -53 -49 -89.5t-49 -76t-54 -63.5t-58.5 -39.5t-67.5 -15.5q-54 0 -113 22.5t-101.5 49t-94.5 49t-93 22.5q-82 0 -161 -94zM989 -29l-565 854l-88 -553
q-17 -84 -7.5 -131.5t44.5 -65t116 -20.5l-10 -55h-481l8 55q57 2 92 11t62.5 32.5t43 63.5t25.5 106l109 684q-35 46 -66 68t-77 22l8 52h436l446 -688l66 419q20 129 -7.5 169t-144.5 44l9 56h483l-8 -56q-58 -2 -93 -10.5t-63 -31t-43.5 -62t-26.5 -105.5l-135 -858h-133
z" />
    <glyph glyph-name="O.sc" horiz-adv-x="1404" 
d="M743 1038q-79 0 -146.5 -49t-111.5 -129.5t-69 -183t-25 -209.5q0 -198 72 -303t190 -105q107 0 190.5 84.5t125 213.5t41.5 274q0 201 -75 304t-192 103zM721 1124q119 0 228.5 -40.5t193 -111.5t133 -176.5t49.5 -228.5q0 -134 -53 -247t-143.5 -188t-209.5 -117
t-251 -42q-159 0 -292.5 69.5t-214.5 199.5t-81 293q0 173 83.5 308t229.5 208t328 73z" />
    <glyph glyph-name="Oacute.sc" horiz-adv-x="1404" 
d="M580 1155l231 428h340l-512 -428h-59zM743 1038q-79 0 -146.5 -49t-111.5 -129.5t-69 -183t-25 -209.5q0 -198 72 -303t190 -105q107 0 190.5 84.5t125 213.5t41.5 274q0 201 -75 304t-192 103zM721 1124q119 0 228.5 -40.5t193 -111.5t133 -176.5t49.5 -228.5
q0 -134 -53 -247t-143.5 -188t-209.5 -117t-251 -42q-159 0 -292.5 69.5t-214.5 199.5t-81 293q0 173 83.5 308t229.5 208t328 73z" />
    <glyph glyph-name="Ocircumflex.sc" horiz-adv-x="1404" 
d="M438 1178l353 403h94l225 -401l-39 -37l-268 207l-326 -209zM743 1038q-79 0 -146.5 -49t-111.5 -129.5t-69 -183t-25 -209.5q0 -198 72 -303t190 -105q107 0 190.5 84.5t125 213.5t41.5 274q0 201 -75 304t-192 103zM721 1124q119 0 228.5 -40.5t193 -111.5t133 -176.5
t49.5 -228.5q0 -134 -53 -247t-143.5 -188t-209.5 -117t-251 -42q-159 0 -292.5 69.5t-214.5 199.5t-81 293q0 173 83.5 308t229.5 208t328 73z" />
    </font>
</defs>
</svg>
